<?xml version="1.0" encoding="UTF-8" standalone="no"?>
<!-- Created with Inkscape (http://www.inkscape.org/) -->

<svg
   version="1.1"
   id="svg2"
   xml:space="preserve"
   width="240"
   height="336"
   viewBox="0 0 240 336"
   sodipodi:docname="band_structure.svg"
   inkscape:version="1.1 (c68e22c387, 2021-05-23)"
   xmlns:inkscape="http://www.inkscape.org/namespaces/inkscape"
   xmlns:sodipodi="http://sodipodi.sourceforge.net/DTD/sodipodi-0.dtd"
   xmlns="http://www.w3.org/2000/svg"
   xmlns:svg="http://www.w3.org/2000/svg"><defs
     id="defs6" /><sodipodi:namedview
     id="namedview4"
     pagecolor="#ffffff"
     bordercolor="#666666"
     borderopacity="1.0"
     inkscape:pageshadow="2"
     inkscape:pageopacity="0.0"
     inkscape:pagecheckerboard="0"
     showgrid="false"
     inkscape:zoom="2.5952381"
     inkscape:cx="120.02752"
     inkscape:cy="167.80734"
     inkscape:window-width="1858"
     inkscape:window-height="1057"
     inkscape:window-x="-8"
     inkscape:window-y="-8"
     inkscape:window-maximized="1"
     inkscape:current-layer="g8" /><g
     id="g8"
     inkscape:groupmode="layer"
     inkscape:label="ink_ext_XXXXXX"
     transform="matrix(1.3333333,0,0,-1.3333333,0,336)"><g
       id="g10"
       transform="scale(0.1)"><path
         d="m 301,268.5 h 31.5 m 1341,0 H 1642"
         style="fill:none;stroke:#000000;stroke-width:2.5;stroke-linecap:butt;stroke-linejoin:miter;stroke-miterlimit:3.8;stroke-dasharray:none;stroke-opacity:1"
         id="path12" /><g
         id="g14"
         transform="scale(10)"><text
           transform="matrix(1,0,0,-1,15.7855,24.5148)"
           style="font-variant:normal;font-weight:normal;font-size:7px;font-family:Helvetica;-inkscape-font-specification:Helvetica;writing-mode:lr-tb;fill:#000000;fill-opacity:1;fill-rule:nonzero;stroke:none"
           id="text18"><tspan
             x="0 2.3310001 6.223"
             y="0"
             sodipodi:role="line"
             id="tspan16">-12</tspan></text></g><path
         d="m 301,525 h 31.5 m 1341,0 H 1642"
         style="fill:none;stroke:#000000;stroke-width:2.5;stroke-linecap:butt;stroke-linejoin:miter;stroke-miterlimit:3.8;stroke-dasharray:none;stroke-opacity:1"
         id="path20" /><g
         id="g22"
         transform="scale(10)"><text
           transform="matrix(1,0,0,-1,15.7855,50.1648)"
           style="font-variant:normal;font-weight:normal;font-size:7px;font-family:Helvetica;-inkscape-font-specification:Helvetica;writing-mode:lr-tb;fill:#000000;fill-opacity:1;fill-rule:nonzero;stroke:none"
           id="text26"><tspan
             x="0 2.3310001 6.223"
             y="0"
             sodipodi:role="line"
             id="tspan24">-10</tspan></text></g><path
         d="m 301,781.5 h 31.5 m 1341,0 H 1642"
         style="fill:none;stroke:#000000;stroke-width:2.5;stroke-linecap:butt;stroke-linejoin:miter;stroke-miterlimit:3.8;stroke-dasharray:none;stroke-opacity:1"
         id="path28" /><g
         id="g30"
         transform="scale(10)"><text
           transform="matrix(1,0,0,-1,19.6773,75.8148)"
           style="font-variant:normal;font-weight:normal;font-size:7px;font-family:Helvetica;-inkscape-font-specification:Helvetica;writing-mode:lr-tb;fill:#000000;fill-opacity:1;fill-rule:nonzero;stroke:none"
           id="text34"><tspan
             x="0 2.3310001"
             y="0"
             sodipodi:role="line"
             id="tspan32">-8</tspan></text></g><path
         d="m 301,1038 h 31.5 m 1341,0 H 1642"
         style="fill:none;stroke:#000000;stroke-width:2.5;stroke-linecap:butt;stroke-linejoin:miter;stroke-miterlimit:3.8;stroke-dasharray:none;stroke-opacity:1"
         id="path36" /><g
         id="g38"
         transform="scale(10)"><text
           transform="matrix(1,0,0,-1,19.6773,101.465)"
           style="font-variant:normal;font-weight:normal;font-size:7px;font-family:Helvetica;-inkscape-font-specification:Helvetica;writing-mode:lr-tb;fill:#000000;fill-opacity:1;fill-rule:nonzero;stroke:none"
           id="text42"><tspan
             x="0 2.3310001"
             y="0"
             sodipodi:role="line"
             id="tspan40">-6</tspan></text></g><path
         d="m 301,1295 h 31.5 m 1341,0 H 1642"
         style="fill:none;stroke:#000000;stroke-width:2.5;stroke-linecap:butt;stroke-linejoin:miter;stroke-miterlimit:3.8;stroke-dasharray:none;stroke-opacity:1"
         id="path44" /><g
         id="g46"
         transform="scale(10)"><text
           transform="matrix(1,0,0,-1,19.6773,127.165)"
           style="font-variant:normal;font-weight:normal;font-size:7px;font-family:Helvetica;-inkscape-font-specification:Helvetica;writing-mode:lr-tb;fill:#000000;fill-opacity:1;fill-rule:nonzero;stroke:none"
           id="text50"><tspan
             x="0 2.3310001"
             y="0"
             sodipodi:role="line"
             id="tspan48">-4</tspan></text></g><path
         d="m 301,1551.5 h 31.5 m 1341,0 H 1642"
         style="fill:none;stroke:#000000;stroke-width:2.5;stroke-linecap:butt;stroke-linejoin:miter;stroke-miterlimit:3.8;stroke-dasharray:none;stroke-opacity:1"
         id="path52" /><g
         id="g54"
         transform="scale(10)"><text
           transform="matrix(1,0,0,-1,19.6773,152.815)"
           style="font-variant:normal;font-weight:normal;font-size:7px;font-family:Helvetica;-inkscape-font-specification:Helvetica;writing-mode:lr-tb;fill:#000000;fill-opacity:1;fill-rule:nonzero;stroke:none"
           id="text58"><tspan
             x="0 2.3310001"
             y="0"
             sodipodi:role="line"
             id="tspan56">-2</tspan></text></g><path
         d="m 301,1808 h 31.5 m 1341,0 H 1642"
         style="fill:none;stroke:#000000;stroke-width:2.5;stroke-linecap:butt;stroke-linejoin:miter;stroke-miterlimit:3.8;stroke-dasharray:none;stroke-opacity:1"
         id="path60" /><g
         id="g62"
         transform="scale(10)"><text
           transform="matrix(1,0,0,-1,22.0085,178.465)"
           style="font-variant:normal;font-weight:normal;font-size:7px;font-family:Helvetica;-inkscape-font-specification:Helvetica;writing-mode:lr-tb;fill:#000000;fill-opacity:1;fill-rule:nonzero;stroke:none"
           id="text66"><tspan
             x="0"
             y="0"
             id="tspan64">0</tspan></text></g><path
         d="m 301,2064.5 h 31.5 m 1341,0 H 1642"
         style="fill:none;stroke:#000000;stroke-width:2.5;stroke-linecap:butt;stroke-linejoin:miter;stroke-miterlimit:3.8;stroke-dasharray:none;stroke-opacity:1"
         id="path68" /><g
         id="g70"
         transform="scale(10)"><text
           transform="matrix(1,0,0,-1,22.0085,204.115)"
           style="font-variant:normal;font-weight:normal;font-size:7px;font-family:Helvetica;-inkscape-font-specification:Helvetica;writing-mode:lr-tb;fill:#000000;fill-opacity:1;fill-rule:nonzero;stroke:none"
           id="text74"><tspan
             x="0"
             y="0"
             id="tspan72">2</tspan></text></g><path
         d="m 301,2321 h 31.5 m 1341,0 H 1642"
         style="fill:none;stroke:#000000;stroke-width:2.5;stroke-linecap:butt;stroke-linejoin:miter;stroke-miterlimit:3.8;stroke-dasharray:none;stroke-opacity:1"
         id="path76" /><g
         id="g78"
         transform="scale(10)"><text
           transform="matrix(1,0,0,-1,22.0085,229.765)"
           style="font-variant:normal;font-weight:normal;font-size:7px;font-family:Helvetica;-inkscape-font-specification:Helvetica;writing-mode:lr-tb;fill:#000000;fill-opacity:1;fill-rule:nonzero;stroke:none"
           id="text82"><tspan
             x="0"
             y="0"
             id="tspan80">4</tspan></text></g><path
         d="m 301,140 v 31.5 m 0,2278 V 2418"
         style="fill:none;stroke:#000000;stroke-width:2.5;stroke-linecap:butt;stroke-linejoin:miter;stroke-miterlimit:3.8;stroke-dasharray:none;stroke-opacity:1"
         id="path84" /><g
         id="g86"
         transform="scale(10)"><text
           transform="matrix(1,0,0,-1,28.739,4.66484)"
           style="font-variant:normal;font-weight:normal;font-size:7px;font-family:Helvetica;-inkscape-font-specification:Helvetica;writing-mode:lr-tb;fill:#000000;fill-opacity:1;fill-rule:nonzero;stroke:none"
           id="text90"><tspan
             x="0"
             y="0"
             id="tspan88">X</tspan></text></g><path
         d="m 785.5,140 v 31.5 m 0,2278 V 2418"
         style="fill:none;stroke:#000000;stroke-width:2.5;stroke-linecap:butt;stroke-linejoin:miter;stroke-miterlimit:3.8;stroke-dasharray:none;stroke-opacity:1"
         id="path92" /><g
         id="g94"
         transform="scale(10)"><text
           transform="matrix(1,0,0,-1,77.41289,4.66484)"
           style="font-variant:normal;font-weight:normal;font-size:7px;font-family:Symbol;-inkscape-font-specification:Symbol;writing-mode:lr-tb;fill:#000000;fill-opacity:1;fill-rule:nonzero;stroke:none"
           id="text98"><tspan
             x="0"
             y="0"
             id="tspan96">Γ</tspan></text></g><path
         d="m 1205.5,140 v 31.5 m 0,2278 V 2418"
         style="fill:none;stroke:#000000;stroke-width:2.5;stroke-linecap:butt;stroke-linejoin:miter;stroke-miterlimit:3.8;stroke-dasharray:none;stroke-opacity:1"
         id="path100" /><g
         id="g102"
         transform="scale(10)"><text
           transform="matrix(1,0,0,-1,119.577,4.66484)"
           style="font-variant:normal;font-weight:normal;font-size:7px;font-family:Helvetica;-inkscape-font-specification:Helvetica;writing-mode:lr-tb;fill:#000000;fill-opacity:1;fill-rule:nonzero;stroke:none"
           id="text106"><tspan
             x="0"
             y="0"
             id="tspan104">L</tspan></text></g><path
         d="m 1502,140 v 31.5 m 0,2278 V 2418"
         style="fill:none;stroke:#000000;stroke-width:2.5;stroke-linecap:butt;stroke-linejoin:miter;stroke-miterlimit:3.8;stroke-dasharray:none;stroke-opacity:1"
         id="path108" /><g
         id="g110"
         transform="scale(10)"><text
           transform="matrix(1,0,0,-1,148.646,4.66484)"
           style="font-variant:normal;font-weight:normal;font-size:7px;font-family:Helvetica;-inkscape-font-specification:Helvetica;writing-mode:lr-tb;fill:#000000;fill-opacity:1;fill-rule:nonzero;stroke:none"
           id="text114"><tspan
             x="0"
             y="0"
             id="tspan112">U</tspan></text></g><path
         d="m 1673.5,140 v 31.5 m 0,2278 V 2418"
         style="fill:none;stroke:#000000;stroke-width:2.5;stroke-linecap:butt;stroke-linejoin:miter;stroke-miterlimit:3.8;stroke-dasharray:none;stroke-opacity:1"
         id="path116" /><g
         id="g118"
         transform="scale(10)"><text
           transform="matrix(1,0,0,-1,165.989,4.66484)"
           style="font-variant:normal;font-weight:normal;font-size:7px;font-family:Helvetica;-inkscape-font-specification:Helvetica;writing-mode:lr-tb;fill:#000000;fill-opacity:1;fill-rule:nonzero;stroke:none"
           id="text122"><tspan
             x="0"
             y="0"
             id="tspan120">X</tspan></text></g><path
         d="M 301,2449.5 V 140 h 1372.5 v 2309.5 z"
         style="fill:none;stroke:#000000;stroke-width:5;stroke-linecap:butt;stroke-linejoin:miter;stroke-miterlimit:3.8;stroke-dasharray:none;stroke-opacity:1"
         id="path124" /><path
         d="M 786,140.5 V 2450"
         style="fill:none;stroke:#000000;stroke-width:2.5;stroke-linecap:butt;stroke-linejoin:miter;stroke-miterlimit:3.8;stroke-dasharray:none;stroke-opacity:1"
         id="path126" /><path
         d="M 1206,140.5 V 2450"
         style="fill:none;stroke:#000000;stroke-width:2.5;stroke-linecap:butt;stroke-linejoin:miter;stroke-miterlimit:3.8;stroke-dasharray:none;stroke-opacity:1"
         id="path128" /><path
         d="M 1502.5,140.5 V 2450"
         style="fill:none;stroke:#000000;stroke-width:2.5;stroke-linecap:butt;stroke-linejoin:miter;stroke-miterlimit:3.8;stroke-dasharray:none;stroke-opacity:1"
         id="path130" /><g
         id="g132"
         transform="scale(10)"><text
           transform="matrix(0,1,1,0,8.98516,110.779)"
           style="font-variant:normal;font-weight:normal;font-size:7px;font-family:Helvetica;-inkscape-font-specification:Helvetica;writing-mode:lr-tb;fill:#000000;fill-opacity:1;fill-rule:nonzero;stroke:none"
           id="text136"><tspan
             x="0 4.6690001 8.5609999 12.453 14.784 18.676001 22.176001 24.122 26.452999 30.344999 35.014"
             y="0"
             sodipodi:role="line"
             id="tspan134">Energy (eV)</tspan></text></g><path
         d="M 301,1808 H 1673.5"
         style="fill:none;stroke:#000000;stroke-width:1.25;stroke-linecap:butt;stroke-linejoin:miter;stroke-miterlimit:3.8;stroke-dasharray:5, 10;stroke-dashoffset:0;stroke-opacity:1"
         id="path138" /><path
         d="m 301,806 9.5,-19.5 10,-19.5 9.5,-19.5 10,-18.5 9.5,-19 9.5,-18 10,-18 9.5,-17.5 9.5,-17.5 10,-17 9.5,-16.5 10,-16 9.5,-16 9.5,-15.5 10,-15 9.5,-15 10,-14.5 9.5,-14 9.5,-13.5 10,-13 9.5,-13 9.5,-12.5 10,-12 9.5,-11.5 10,-11.5 9.5,-10.5 9.5,-10.5 10,-10 9.5,-9.5 10,-9 9.5,-8.5 9.5,-8.5 10,-7.5 9.5,-7.5 10,-7 9.5,-6.5 9.5,-6 10,-5.5 9.5,-5 9.5,-5 10,-4 9.5,-4 10,-3 9.5,-3 9.5,-2.5 10,-2 9.5,-1.5 10,-1.5 9.5,-0.5 h 9.5 10 l 9.5,0.5 10,1.5 9.5,1.5 10,2 9.5,2.5 10,3 9.5,3.5 10,3.5 10,4.5 9.5,4.5 10,5.5 9.5,5.5 10,6 9.5,6.5 10,7 9.5,7 10,8 9.5,8 10,8.5 9.5,9 10,9 9.5,10 10,9.5 9.5,10.5 10,10.5 9.5,10.5 10,11.5 9.5,11 10,11.5 9.5,11 10,11.5 10,11.5 9.5,11 10,11 9.5,10.5 10,9.5 9.5,9 10,7.5 9.5,6.5 10,4.5 9.5,3 10,1 10,0.5 9.5,0.5 10,1.5 10,1.5 10,2 9.5,2.5 10,3 10,3.5 10,4 10,4.5 9.5,5 10,5 10,6 10,6 10,6.5 9.5,7.5 10,7 10,8 10,8.5 9.5,8.5 10,9 10,9 10,9.5 10,9.5 9.5,10 10,9.5 10,9.5 10,8.5 10,8 9.5,6 10,8 10.5,7 10,6.5 10,5.5 10,5 10,4 10,3.5 10.5,3 10,2.5 10,2 10,1.5 10,1.5 10,1 10.5,0.5 10,0.5 10,0.5 h 10"
         style="fill:none;stroke:#9400d4;stroke-width:1.25;stroke-linecap:butt;stroke-linejoin:miter;stroke-miterlimit:3.8;stroke-dasharray:none;stroke-opacity:1"
         id="path140" /><path
         d="m 301,806 9.5,20 10,20.5 9.5,20.5 10,20.5 9.5,21 9.5,21.5 10,21 9.5,22 9.5,21.5 10,22 9.5,22 10,22.5 9.5,22.5 9.5,22.5 10,22.5 9.5,22.5 10,23 9.5,23 9.5,22.5 10,23 9.5,23 9.5,23 10,23.5 9.5,23 10,23 9.5,23 9.5,23 10,23 9.5,22.5 10,23 9.5,22.5 9.5,22.5 10,22.5 9.5,22 10,22 9.5,21.5 9.5,21.5 10,21 9.5,20.5 9.5,19.5 10,19 9.5,18.5 10,17 9.5,15.5 9.5,14 10,12.5 9.5,10 10,7.5 9.5,4.5 9.5,1.5 10,-3 9.5,-8 10,-12.5 9.5,-17 10,-19.5 9.5,-22 10,-24 9.5,-25 10,-26.5 10,-27 9.5,-27.5 10,-28 9.5,-28 10,-28 9.5,-28 10,-28.5 9.5,-28 10,-27.5 9.5,-28 10,-27 9.5,-27.5 10,-26.5 9.5,-26.5 10,-26 9.5,-25.5 10,-25 9.5,-25 10,-24 9.5,-23 10,-23 9.5,-22 10,-21 10,-20.5 9.5,-19 10,-18 9.5,-17 10,-15 9.5,-13.5 10,-12 9.5,-9 10,-7 9.5,-4.5 10,-1.5 10,0.5 h 9.5 l 10,1 10,0.5 10,1 9.5,1.5 10,1.5 10,1.5 10,2 10,2 9.5,2 10,2 10,2 10,2 10,1.5 9.5,1.5 10,1 10,0.5 h 10 l 9.5,-1 10,-1.5 10,-3 10,-3.5 10,-5 9.5,-6 10,-7 10,-7.5 10,-7.5 10,-7.5 9.5,-6 10,-8.5 10.5,-8 10,-7.5 10,-7 10,-6.5 10,-6 10,-5.5 10.5,-5 10,-4.5 10,-4 10,-3.5 10,-3 10,-2 10.5,-2 10,-1.5 10,-0.5 10,-0.5"
         style="fill:none;stroke:#9400d4;stroke-width:1.25;stroke-linecap:butt;stroke-linejoin:miter;stroke-miterlimit:3.8;stroke-dasharray:none;stroke-opacity:1"
         id="path142" /><path
         d="m 301,1440.5 h 9.5 l 10,0.5 9.5,1 10,1.5 9.5,2 9.5,2 10,3 9.5,3 9.5,3.5 10,3.5 9.5,4.5 10,4.5 9.5,5 9.5,5.5 10,6 9.5,6 10,6.5 9.5,7 9.5,7.5 10,7.5 9.5,8 9.5,8.5 10,8.5 9.5,9.5 10,9.5 9.5,9.5 9.5,10 10,10.5 9.5,10.5 10,11 9.5,11 9.5,11.5 10,11.5 9.5,12 10,12 9.5,12 9.5,12 10,12 9.5,12 9.5,11.5 10,11.5 9.5,11 10,10.5 9.5,10 9.5,9 10,7.5 9.5,6.5 10,4.5 9.5,3 9.5,1 10,-0.5 9.5,-1 10,-2 9.5,-2.5 10,-3.5 9.5,-4 10,-4.5 9.5,-4.5 10,-5 10,-5.5 9.5,-5.5 10,-6 9.5,-6 10,-5.5 9.5,-6 10,-6 9.5,-6 10,-5.5 9.5,-5.5 10,-5.5 9.5,-5 10,-5 9.5,-5 10,-5 9.5,-4 10,-4.5 9.5,-4 10,-4 9.5,-3.5 10,-3.5 9.5,-3 10,-3 10,-2.5 9.5,-2.5 10,-2 9.5,-2 10,-1.5 9.5,-1.5 10,-1 9.5,-1 10,-0.5 9.5,-0.5 h 10 l 10,-2 9.5,-7 10,-10 10,-14 10,-16 9.5,-18 10,-19.5 10,-20.5 10,-21.5 10,-21.5 9.5,-22 10,-21.5 10,-21.5 10,-21.5 10,-20.5 9.5,-20 10,-19 10,-18 10,-16.5 9.5,-15.5 10,-14 10,-12 10,-10 10,-8 9.5,-6.5 10,-4 10,-2 10,-0.5 10,1.5 9.5,3 10,7.5 10.5,8.5 10,10 10,11.5 10,12.5 10,13 10,14 10.5,15 10,14.5 10,15 10,14 10,13.5 10,12.5 10.5,10 10,8 10,4.5 10,2"
         style="fill:none;stroke:#9400d4;stroke-width:1.25;stroke-linecap:butt;stroke-linejoin:miter;stroke-miterlimit:3.8;stroke-dasharray:none;stroke-opacity:1"
         id="path144" /><path
         d="m 301,1440.5 h 9.5 l 10,0.5 9.5,1 10,1.5 9.5,2 9.5,2 10,3 9.5,3 9.5,3.5 10,3.5 9.5,4.5 10,4.5 9.5,5 9.5,5.5 10,6 9.5,6 10,6.5 9.5,7 9.5,7.5 10,7.5 9.5,8 9.5,8.5 10,8.5 9.5,9.5 10,9.5 9.5,9.5 9.5,10 10,10.5 9.5,10.5 10,11 9.5,11 9.5,11.5 10,11.5 9.5,12 10,12 9.5,12 9.5,12 10,12 9.5,12 9.5,11.5 10,11.5 9.5,11 10,10.5 9.5,10 9.5,9 10,7.5 9.5,6.5 10,4.5 9.5,3 9.5,1 10,-0.5 9.5,-1 10,-2 9.5,-2.5 10,-3.5 9.5,-4 10,-4.5 9.5,-4.5 10,-5 10,-5.5 9.5,-5.5 10,-6 9.5,-6 10,-5.5 9.5,-6 10,-6 9.5,-6 10,-5.5 9.5,-5.5 10,-5.5 9.5,-5 10,-5 9.5,-5 10,-5 9.5,-4 10,-4.5 9.5,-4 10,-4 9.5,-3.5 10,-3.5 9.5,-3 10,-3 10,-2.5 9.5,-2.5 10,-2 9.5,-2 10,-1.5 9.5,-1.5 10,-1 9.5,-1 10,-0.5 9.5,-0.5 h 10 l 10,-0.5 9.5,-1 10,-2.5 10,-3 10,-3.5 9.5,-4.5 10,-5 10,-5.5 10,-5.5 10,-6.5 9.5,-6.5 10,-7 10,-7 10,-7 10,-7 9.5,-7 10,-7 10,-7 10,-6.5 9.5,-6.5 10,-6.5 10,-6 10,-6 10,-6 9.5,-5 10,-5 10,-5 10,-4.5 10,-4 9.5,-3.5 10,-6.5 10.5,-5.5 10,-5.5 10,-5 10,-5 10,-4 10,-4 10.5,-4 10,-3 10,-3 10,-2.5 10,-2 10,-2 10.5,-1.5 10,-1 10,-0.5 h 10"
         style="fill:none;stroke:#9400d4;stroke-width:1.25;stroke-linecap:butt;stroke-linejoin:miter;stroke-miterlimit:3.8;stroke-dasharray:none;stroke-opacity:1"
         id="path146" /><path
         d="m 301,1901.5 9.5,-4.5 10,-3.5 9.5,-3.5 10,-2.5 9.5,-2 9.5,-1 10,-1 h 9.5 9.5 l 10,1 9.5,1 10,2 9.5,2.5 9.5,3 10,3 9.5,4 10,4.5 9.5,4.5 9.5,5.5 10,5.5 9.5,6.5 9.5,6.5 10,6.5 9.5,7.5 10,7.5 9.5,8 9.5,8 10,8.5 9.5,9 10,9 9.5,9 9.5,9.5 10,9 9.5,9.5 10,9.5 9.5,9.5 9.5,9.5 10,9 9.5,9 9.5,8.5 10,8.5 9.5,7.5 10,7 9.5,6.5 9.5,5.5 10,4.5 9.5,4 10,3 9.5,1.5 9.5,0.5 10,0.5 9.5,2 10,2.5 9.5,2.5 10,0.5 h 9.5 l 10,-1.5 9.5,-3 10,-3.5 10,-4 9.5,-5 10,-5 9.5,-5.5 10,-5.5 9.5,-5.5 10,-6 9.5,-6 10,-5.5 9.5,-6 10,-5.5 9.5,-6 10,-5 9.5,-5.5 10,-5 9.5,-4.5 10,-5 9.5,-4.5 10,-4 9.5,-4 10,-3.5 9.5,-3.5 10,-3.5 10,-2.5 9.5,-3 10,-2.5 9.5,-2 10,-1.5 9.5,-1.5 10,-1.5 9.5,-1 10,-0.5 9.5,-0.5 h 10 l 10,2 9.5,6 10,9.5 10,12 10,13 9.5,14 10,12 10,10 10,6.5 10,2.5 9.5,-1 10,-3.5 10,-5.5 10,-7 10,-8 9.5,-8 10,-8.5 10,-8.5 10,-8.5 9.5,-8.5 10,-8 10,-7.5 10,-7.5 10,-7 9.5,-7 10,-6 10,-6 10,-5 10,-5 9.5,-4 10,-7.5 10.5,-6.5 10,-6 10,-6 10,-5.5 10,-5 10,-5 10.5,-4 10,-4 10,-3 10,-3 10,-3 10,-2 10.5,-1 10,-1.5 10,-0.5 h 10"
         style="fill:none;stroke:#9400d4;stroke-width:1.25;stroke-linecap:butt;stroke-linejoin:miter;stroke-miterlimit:3.8;stroke-dasharray:none;stroke-opacity:1"
         id="path148" /><path
         d="m 301,1901.5 9.5,4.5 10,6 9.5,6 10,6.5 9.5,7.5 9.5,8 10,9 9.5,9.5 9.5,9.5 10,11 9.5,11 10,12 9.5,12.5 9.5,13 10,14 9.5,14.5 10,15.5 9.5,15.5 9.5,16.5 10,17 9.5,17.5 9.5,18 10,18.5 9.5,18.5 10,19.5 9.5,19.5 9.5,19.5 10,19.5 9.5,19 10,19 9.5,17.5 9.5,16 10,14 9.5,-3 10,-20 9.5,-20 9.5,-19 10,-19 9.5,-18.5 9.5,-17.5 10,-16.5 9.5,-16 10,-14.5 9.5,-13.5 9.5,-12 10,-10 9.5,-8.5 10,-6 9.5,-4 9.5,-1 10,0.5 9.5,2 10,2.5 9.5,4 10,5 9.5,6 10,6 9.5,7.5 10,7.5 10,7.5 9.5,8.5 10,8 9.5,8 10,8 9.5,7.5 10,7 9.5,6.5 10,6 9.5,5 10,4 9.5,3.5 10,2.5 9.5,1.5 10,1.5 h 9.5 10 l 9.5,-1 10,-1 9.5,-2 10,-1.5 9.5,-2 10,-2.5 10,-2 9.5,-2 10,-2 9.5,-2 10,-1.5 9.5,-1.5 10,-1 9.5,-1 10,-1 9.5,-0.5 h 10 l 10,-0.5 9.5,-1 10,-1.5 10,-2 10,-1.5 9.5,-0.5 10,1.5 10,5 10,9.5 10,14 9.5,17.5 10,21 10,23.5 10,25.5 10,26.5 9.5,27 10,28 6,18.5 m 74.5,0 8.5,-19 10,-23 10,-23 10,-22 9.5,-22 10,-37.5 10.5,-37 10,-36.5 10,-35.5 10,-35 10,-33.5 10,-32 10.5,-31 10,-29 10,-27.5 10,-25 10,-22.5 10,-19.5 10.5,-16 10,-11.5 10,-7.5 10,-2.5"
         style="fill:none;stroke:#9400d4;stroke-width:1.25;stroke-linecap:butt;stroke-linejoin:miter;stroke-miterlimit:3.8;stroke-dasharray:none;stroke-opacity:1"
         id="path150" /><path
         d="m 586.5,2449.5 5.5,-11.5 9.5,-21.5 9.5,-21.5 10,-20.5 9.5,-21 10,-20 9.5,-20 9.5,-19 10,-19 9.5,-18.5 9.5,-17.5 10,-16.5 9.5,-16 10,-14.5 9.5,-13.5 9.5,-12 10,-10 9.5,-8.5 10,-6 9.5,-4 9.5,-1 10,1 9.5,2 10,2.5 9.5,3.5 10,5 9.5,6 10,6 9.5,7.5 10,7.5 10,7.5 9.5,8.5 10,8 9.5,8 10,8 9.5,7.5 10,7 9.5,6.5 10,6 9.5,5 10,4 9.5,3.5 10,2.5 9.5,1.5 10,1.5 h 9.5 10 l 9.5,-1 10,-1 9.5,-2 10,-1.5 9.5,-2 10,-2.5 10,-2 9.5,-2 10,-2 9.5,-2 10,-1.5 9.5,-1.5 10,-1 9.5,-1 10,-1 9.5,-0.5 h 10 l 10,1 9.5,3 10,4.5 10,6 10,8 9.5,9.5 10,11 10,12.5 10,14 10,15.5 9.5,16.5 10,18 10,18.5 10,20 10,20.5 9.5,21.5 4.5,10.5"
         style="fill:none;stroke:#9400d4;stroke-width:1.25;stroke-linecap:butt;stroke-linejoin:miter;stroke-miterlimit:3.8;stroke-dasharray:none;stroke-opacity:1"
         id="path152" /><path
         d="m 586.5,2449.5 5.5,-11.5 9.5,-21.5 9.5,-21.5 10,-20.5 9.5,-7.5 10,6.5 9.5,2 9.5,-2.5 10,-7 9.5,-10 9.5,-12.5 10,-14.5 9.5,-14.5 10,-15 9.5,-14 9.5,-13 10,-11.5 9.5,-10 10,-7 9.5,-4.5 9.5,-1.5 10,1.5 9.5,5 10,8 9.5,12 10,15.5 9.5,18.5 10,20.5 9.5,23 10,24 10,25 9.5,25.5 10,26.5 2,6.5"
         style="fill:none;stroke:#9400d4;stroke-width:1.25;stroke-linecap:butt;stroke-linejoin:miter;stroke-miterlimit:3.8;stroke-dasharray:none;stroke-opacity:1"
         id="path154" /><path
         d="M 301,2449.5 V 140 h 1372.5 v 2309.5 z"
         style="fill:none;stroke:#000000;stroke-width:5;stroke-linecap:butt;stroke-linejoin:miter;stroke-miterlimit:3.8;stroke-dasharray:none;stroke-opacity:1"
         id="path156" /></g></g></svg>
