<?xml version="1.0" encoding="UTF-8" standalone="no"?>
<!-- Created with Inkscape (http://www.inkscape.org/) -->

<svg
   version="1.1"
   id="svg2"
   xml:space="preserve"
   width="480"
   height="336"
   viewBox="0 0 480 336"
   sodipodi:docname="spiky.svg"
   inkscape:version="1.1 (c68e22c387, 2021-05-23)"
   xmlns:inkscape="http://www.inkscape.org/namespaces/inkscape"
   xmlns:sodipodi="http://sodipodi.sourceforge.net/DTD/sodipodi-0.dtd"
   xmlns="http://www.w3.org/2000/svg"
   xmlns:svg="http://www.w3.org/2000/svg"><defs
     id="defs6" /><sodipodi:namedview
     id="namedview4"
     pagecolor="#ffffff"
     bordercolor="#666666"
     borderopacity="1.0"
     inkscape:pageshadow="2"
     inkscape:pageopacity="0.0"
     inkscape:pagecheckerboard="0"
     showgrid="false"
     inkscape:zoom="2.5952381"
     inkscape:cx="239.86239"
     inkscape:cy="167.80734"
     inkscape:window-width="1858"
     inkscape:window-height="1057"
     inkscape:window-x="-8"
     inkscape:window-y="-8"
     inkscape:window-maximized="1"
     inkscape:current-layer="g8" /><g
     id="g8"
     inkscape:groupmode="layer"
     inkscape:label="ink_ext_XXXXXX"
     transform="matrix(1.3333333,0,0,-1.3333333,0,336)"><g
       id="g10"
       transform="scale(0.1)"><path
         d="m 259,224 h 31.5 m 3183,0 H 3442"
         style="fill:none;stroke:#000000;stroke-width:2.5;stroke-linecap:butt;stroke-linejoin:miter;stroke-miterlimit:3.8;stroke-dasharray:none;stroke-opacity:1"
         id="path12" /><g
         id="g14"
         transform="scale(10)"><text
           transform="matrix(1,0,0,-1,17.8085,20.0648)"
           style="font-variant:normal;font-weight:normal;font-size:7px;font-family:Helvetica;-inkscape-font-specification:Helvetica;writing-mode:lr-tb;fill:#000000;fill-opacity:1;fill-rule:nonzero;stroke:none"
           id="text18"><tspan
             x="0"
             y="0"
             id="tspan16">0</tspan></text></g><path
         d="m 259,595 h 31.5 m 3183,0 H 3442"
         style="fill:none;stroke:#000000;stroke-width:2.5;stroke-linecap:butt;stroke-linejoin:miter;stroke-miterlimit:3.8;stroke-dasharray:none;stroke-opacity:1"
         id="path20" /><g
         id="g22"
         transform="scale(10)"><text
           transform="matrix(1,0,0,-1,17.8085,57.1648)"
           style="font-variant:normal;font-weight:normal;font-size:7px;font-family:Helvetica;-inkscape-font-specification:Helvetica;writing-mode:lr-tb;fill:#000000;fill-opacity:1;fill-rule:nonzero;stroke:none"
           id="text26"><tspan
             x="0"
             y="0"
             id="tspan24">1</tspan></text></g><path
         d="m 259,966 h 31.5 m 3183,0 H 3442"
         style="fill:none;stroke:#000000;stroke-width:2.5;stroke-linecap:butt;stroke-linejoin:miter;stroke-miterlimit:3.8;stroke-dasharray:none;stroke-opacity:1"
         id="path28" /><g
         id="g30"
         transform="scale(10)"><text
           transform="matrix(1,0,0,-1,17.8085,94.2648)"
           style="font-variant:normal;font-weight:normal;font-size:7px;font-family:Helvetica;-inkscape-font-specification:Helvetica;writing-mode:lr-tb;fill:#000000;fill-opacity:1;fill-rule:nonzero;stroke:none"
           id="text34"><tspan
             x="0"
             y="0"
             id="tspan32">2</tspan></text></g><path
         d="m 259,1337 h 31.5 m 3183,0 H 3442"
         style="fill:none;stroke:#000000;stroke-width:2.5;stroke-linecap:butt;stroke-linejoin:miter;stroke-miterlimit:3.8;stroke-dasharray:none;stroke-opacity:1"
         id="path36" /><g
         id="g38"
         transform="scale(10)"><text
           transform="matrix(1,0,0,-1,17.8085,131.365)"
           style="font-variant:normal;font-weight:normal;font-size:7px;font-family:Helvetica;-inkscape-font-specification:Helvetica;writing-mode:lr-tb;fill:#000000;fill-opacity:1;fill-rule:nonzero;stroke:none"
           id="text42"><tspan
             x="0"
             y="0"
             id="tspan40">3</tspan></text></g><path
         d="m 259,1707.5 h 31.5 m 3183,0 H 3442"
         style="fill:none;stroke:#000000;stroke-width:2.5;stroke-linecap:butt;stroke-linejoin:miter;stroke-miterlimit:3.8;stroke-dasharray:none;stroke-opacity:1"
         id="path44" /><g
         id="g46"
         transform="scale(10)"><text
           transform="matrix(1,0,0,-1,17.8085,168.415)"
           style="font-variant:normal;font-weight:normal;font-size:7px;font-family:Helvetica;-inkscape-font-specification:Helvetica;writing-mode:lr-tb;fill:#000000;fill-opacity:1;fill-rule:nonzero;stroke:none"
           id="text50"><tspan
             x="0"
             y="0"
             id="tspan48">4</tspan></text></g><path
         d="m 259,2078.5 h 31.5 m 3183,0 H 3442"
         style="fill:none;stroke:#000000;stroke-width:2.5;stroke-linecap:butt;stroke-linejoin:miter;stroke-miterlimit:3.8;stroke-dasharray:none;stroke-opacity:1"
         id="path52" /><g
         id="g54"
         transform="scale(10)"><text
           transform="matrix(1,0,0,-1,17.8085,205.515)"
           style="font-variant:normal;font-weight:normal;font-size:7px;font-family:Helvetica;-inkscape-font-specification:Helvetica;writing-mode:lr-tb;fill:#000000;fill-opacity:1;fill-rule:nonzero;stroke:none"
           id="text58"><tspan
             x="0"
             y="0"
             id="tspan56">5</tspan></text></g><path
         d="m 259,2449.5 h 31.5 m 3183,0 H 3442"
         style="fill:none;stroke:#000000;stroke-width:2.5;stroke-linecap:butt;stroke-linejoin:miter;stroke-miterlimit:3.8;stroke-dasharray:none;stroke-opacity:1"
         id="path60" /><g
         id="g62"
         transform="scale(10)"><text
           transform="matrix(1,0,0,-1,17.8085,242.615)"
           style="font-variant:normal;font-weight:normal;font-size:7px;font-family:Helvetica;-inkscape-font-specification:Helvetica;writing-mode:lr-tb;fill:#000000;fill-opacity:1;fill-rule:nonzero;stroke:none"
           id="text66"><tspan
             x="0"
             y="0"
             id="tspan64">6</tspan></text></g><path
         d="m 437.5,224 v 31.5 m 0,2194 V 2418"
         style="fill:none;stroke:#000000;stroke-width:2.5;stroke-linecap:butt;stroke-linejoin:miter;stroke-miterlimit:3.8;stroke-dasharray:none;stroke-opacity:1"
         id="path68" /><g
         id="g70"
         transform="scale(10)"><text
           transform="matrix(1,0,0,-1,38.693,13.0648)"
           style="font-variant:normal;font-weight:normal;font-size:7px;font-family:Helvetica;-inkscape-font-specification:Helvetica;writing-mode:lr-tb;fill:#000000;fill-opacity:1;fill-rule:nonzero;stroke:none"
           id="text74"><tspan
             x="0 2.3310001 6.223"
             y="0"
             sodipodi:role="line"
             id="tspan72">-12</tspan></text></g><path
         d="m 795,224 v 31.5 m 0,2194 V 2418"
         style="fill:none;stroke:#000000;stroke-width:2.5;stroke-linecap:butt;stroke-linejoin:miter;stroke-miterlimit:3.8;stroke-dasharray:none;stroke-opacity:1"
         id="path76" /><g
         id="g78"
         transform="scale(10)"><text
           transform="matrix(1,0,0,-1,74.443,13.0648)"
           style="font-variant:normal;font-weight:normal;font-size:7px;font-family:Helvetica;-inkscape-font-specification:Helvetica;writing-mode:lr-tb;fill:#000000;fill-opacity:1;fill-rule:nonzero;stroke:none"
           id="text82"><tspan
             x="0 2.3310001 6.223"
             y="0"
             sodipodi:role="line"
             id="tspan80">-10</tspan></text></g><path
         d="m 1152,224 v 31.5 m 0,2194 V 2418"
         style="fill:none;stroke:#000000;stroke-width:2.5;stroke-linecap:butt;stroke-linejoin:miter;stroke-miterlimit:3.8;stroke-dasharray:none;stroke-opacity:1"
         id="path84" /><g
         id="g86"
         transform="scale(10)"><text
           transform="matrix(1,0,0,-1,112.089,13.0648)"
           style="font-variant:normal;font-weight:normal;font-size:7px;font-family:Helvetica;-inkscape-font-specification:Helvetica;writing-mode:lr-tb;fill:#000000;fill-opacity:1;fill-rule:nonzero;stroke:none"
           id="text90"><tspan
             x="0 2.3310001"
             y="0"
             sodipodi:role="line"
             id="tspan88">-8</tspan></text></g><path
         d="m 1509,224 v 31.5 m 0,2194 V 2418"
         style="fill:none;stroke:#000000;stroke-width:2.5;stroke-linecap:butt;stroke-linejoin:miter;stroke-miterlimit:3.8;stroke-dasharray:none;stroke-opacity:1"
         id="path92" /><g
         id="g94"
         transform="scale(10)"><text
           transform="matrix(1,0,0,-1,147.789,13.0648)"
           style="font-variant:normal;font-weight:normal;font-size:7px;font-family:Helvetica;-inkscape-font-specification:Helvetica;writing-mode:lr-tb;fill:#000000;fill-opacity:1;fill-rule:nonzero;stroke:none"
           id="text98"><tspan
             x="0 2.3310001"
             y="0"
             sodipodi:role="line"
             id="tspan96">-6</tspan></text></g><path
         d="m 1866.5,224 v 31.5 m 0,2194 V 2418"
         style="fill:none;stroke:#000000;stroke-width:2.5;stroke-linecap:butt;stroke-linejoin:miter;stroke-miterlimit:3.8;stroke-dasharray:none;stroke-opacity:1"
         id="path100" /><g
         id="g102"
         transform="scale(10)"><text
           transform="matrix(1,0,0,-1,183.539,13.0648)"
           style="font-variant:normal;font-weight:normal;font-size:7px;font-family:Helvetica;-inkscape-font-specification:Helvetica;writing-mode:lr-tb;fill:#000000;fill-opacity:1;fill-rule:nonzero;stroke:none"
           id="text106"><tspan
             x="0 2.3310001"
             y="0"
             sodipodi:role="line"
             id="tspan104">-4</tspan></text></g><path
         d="m 2223.5,224 v 31.5 m 0,2194 V 2418"
         style="fill:none;stroke:#000000;stroke-width:2.5;stroke-linecap:butt;stroke-linejoin:miter;stroke-miterlimit:3.8;stroke-dasharray:none;stroke-opacity:1"
         id="path108" /><g
         id="g110"
         transform="scale(10)"><text
           transform="matrix(1,0,0,-1,219.239,13.0648)"
           style="font-variant:normal;font-weight:normal;font-size:7px;font-family:Helvetica;-inkscape-font-specification:Helvetica;writing-mode:lr-tb;fill:#000000;fill-opacity:1;fill-rule:nonzero;stroke:none"
           id="text114"><tspan
             x="0 2.3310001"
             y="0"
             sodipodi:role="line"
             id="tspan112">-2</tspan></text></g><path
         d="m 2580.5,224 v 31.5 m 0,2194 V 2418"
         style="fill:none;stroke:#000000;stroke-width:2.5;stroke-linecap:butt;stroke-linejoin:miter;stroke-miterlimit:3.8;stroke-dasharray:none;stroke-opacity:1"
         id="path116" /><g
         id="g118"
         transform="scale(10)"><text
           transform="matrix(1,0,0,-1,257.077,13.0648)"
           style="font-variant:normal;font-weight:normal;font-size:7px;font-family:Helvetica;-inkscape-font-specification:Helvetica;writing-mode:lr-tb;fill:#000000;fill-opacity:1;fill-rule:nonzero;stroke:none"
           id="text122"><tspan
             x="0"
             y="0"
             id="tspan120">0</tspan></text></g><path
         d="m 2938,224 v 31.5 m 0,2194 V 2418"
         style="fill:none;stroke:#000000;stroke-width:2.5;stroke-linecap:butt;stroke-linejoin:miter;stroke-miterlimit:3.8;stroke-dasharray:none;stroke-opacity:1"
         id="path124" /><g
         id="g126"
         transform="scale(10)"><text
           transform="matrix(1,0,0,-1,292.827,13.0648)"
           style="font-variant:normal;font-weight:normal;font-size:7px;font-family:Helvetica;-inkscape-font-specification:Helvetica;writing-mode:lr-tb;fill:#000000;fill-opacity:1;fill-rule:nonzero;stroke:none"
           id="text130"><tspan
             x="0"
             y="0"
             id="tspan128">2</tspan></text></g><path
         d="m 3295,224 v 31.5 m 0,2194 V 2418"
         style="fill:none;stroke:#000000;stroke-width:2.5;stroke-linecap:butt;stroke-linejoin:miter;stroke-miterlimit:3.8;stroke-dasharray:none;stroke-opacity:1"
         id="path132" /><g
         id="g134"
         transform="scale(10)"><text
           transform="matrix(1,0,0,-1,328.527,13.0648)"
           style="font-variant:normal;font-weight:normal;font-size:7px;font-family:Helvetica;-inkscape-font-specification:Helvetica;writing-mode:lr-tb;fill:#000000;fill-opacity:1;fill-rule:nonzero;stroke:none"
           id="text138"><tspan
             x="0"
             y="0"
             id="tspan136">4</tspan></text></g><path
         d="M 259,2449.5 V 224 h 3214.5 v 2225.5 z"
         style="fill:none;stroke:#000000;stroke-width:5;stroke-linecap:butt;stroke-linejoin:miter;stroke-miterlimit:3.8;stroke-dasharray:none;stroke-opacity:1"
         id="path140" /><path
         d="M 2581,224.5 V 2450"
         style="fill:none;stroke:#000000;stroke-width:1.25;stroke-linecap:butt;stroke-linejoin:miter;stroke-miterlimit:3.8;stroke-dasharray:5, 10;stroke-dashoffset:0;stroke-opacity:1"
         id="path142" /><g
         id="g144"
         transform="scale(10)"><text
           transform="matrix(0,1,1,0,8.98516,108.171)"
           style="font-variant:normal;font-weight:normal;font-size:7px;font-family:Helvetica;-inkscape-font-specification:Helvetica;writing-mode:lr-tb;fill:#000000;fill-opacity:1;fill-rule:nonzero;stroke:none"
           id="text148"><tspan
             x="0 5.0539999 10.5 15.169 17.115 19.445999 22.945999 24.892 28.784 30.73 34.622002 38.122002 40.068001 43.959999 48.629002"
             y="0"
             sodipodi:role="line"
             id="tspan146">DOS (states/eV)</tspan></text><text
           transform="matrix(1,0,0,-1,167.929,2.56484)"
           style="font-variant:normal;font-weight:normal;font-size:7px;font-family:Helvetica;-inkscape-font-specification:Helvetica;writing-mode:lr-tb;fill:#000000;fill-opacity:1;fill-rule:nonzero;stroke:none"
           id="text152"><tspan
             x="0 4.6690001 8.5609999 12.453 14.784 18.676001 22.176001 24.122 26.452999 30.344999 35.014"
             y="0"
             sodipodi:role="line"
             id="tspan150">Energy (eV)</tspan></text></g><path
         d="m 403,224 h 25 l 2,0.5 1.5,0.5 2,1 1.5,3 2,4.5 1.5,7.5 2,9 2,9 1.5,6 2,1 1.5,-4.5 2,-8 1.5,-9 2,-8 2,-6 1.5,-3.5 2,-2 1.5,-0.5 2,-0.5 h 1.5 2 2 1.5 2 1.5 2 l 1.5,0.5 2,0.5 2,2.5 1.5,6 2,13.5 1.5,24.5 2,39.5 1.5,52 2,55 2,43 1.5,16.5 2,-16.5 1.5,-43 2,-55 1.5,-52 2,-39 2,-25 1.5,-13.5 2,-6 1.5,-2.5 2,-0.5 1.5,-0.5 h 2 2 1.5 2 1.5 l 2,1 1.5,2 2,6 2,14.5 1.5,31.5 2,56 1.5,85 2,107.5 1.5,107.5 2,76 2,18 1.5,-46.5 2,-94.5 1.5,-111 2,-99.5 1.5,-72 2,-43.5 2,-22.5 1.5,-10 2,-4 1.5,-1 2,-0.5 h 1.5 2 2 1.5 l 2,0.5 1.5,1.5 2,4 1.5,10 2,21 2,37.5 1.5,57 2,71.5 1.5,72 2,50 1.5,11.5 2,-31.5 2,-63 1.5,-74.5 2,-65.5 1.5,-48 2,-29 1.5,-15 2,-6.5 2,-2.5 1.5,-0.5 2,-0.5 h 1.5 2 1.5 2 2 1.5 l 2,0.5 1.5,0.5 2,2.5 1.5,6.5 2,13.5 2,25 1.5,40 2,52 1.5,55 2,42.5 1.5,15.5 2,-17 2,-44 1.5,-55 2,-51.5 1.5,-39 2,-24.5 1.5,-13 2,-6 2,-2.5 1.5,-0.5 2,-0.5 h 1.5 2 l 1.5,0.5 2,1 2,4.5 1.5,12 2,29.5 1.5,62 2,112 1.5,170.5 2,215 2,215 1.5,152.5 2,36 1.5,-93.5 2,-189 1.5,-222 2,-198.5 2,-144 1.5,-87.5 2,-45 1.5,-20 2,-7.5 1.5,-2.5 2,-0.5 h 2 l 1.5,1.5 2,5.5 1.5,14.5 2,34.5 1.5,71 2,123.5 2,181.5 1.5,219.5 2,208 1.5,132 2,9.5 1.5,-116.5 2,-201 2,-221.5 1.5,-189 2,-132 1.5,-77.5 2,-38.5 1.5,-16.5 2,-6.5 2,-2 1.5,-0.5 h 2 1.5 2 1.5 2 2 1.5 2 1.5 2 1.5 2 2 1.5 2 1.5 2 1.5 2 2 1.5 2 1.5 2 1.5 2 l 2,0.5 1.5,1 2,3 1.5,9 2,20 1.5,40 2,67.5 2,95.5 1.5,111 2,99 1.5,55.5 2,-8 1.5,-68.5 2,-104.5 2,-107.5 1.5,-83.5 2,-44 1.5,3.5 2,59.5 1.5,123 2,185 2,220 1.5,202.5 2,120 1.5,-5 2,-129 1.5,-206.5 2,-219.5 2,-183.5 1.5,-125 2,-72 1.5,-35"
         style="fill:none;stroke:#9400d4;stroke-width:2.5;stroke-linecap:butt;stroke-linejoin:miter;stroke-miterlimit:3.8;stroke-dasharray:none;stroke-opacity:1"
         id="path154" /><path
         d="m 847.5,248 2,-12 1.5,1 2,11 2,21.5 1.5,31.5 2,38.5 1.5,38 2,30 1.5,18.5 2,12 2,13.5 1.5,18.5 2,19.5 1.5,7 2,-16 1.5,-40 2,-55 2,-55.5 1.5,-45 2,-30 1.5,-17.5 2,-8 1.5,-3.5 2,-0.5 2,1.5 1.5,7 2,18 1.5,42 2,82.5 1.5,138 2,194 2,222 1.5,195 2,105 1.5,-23 2,-142 1.5,-211 2,-214 2,-165.5 1.5,-92 2,-10.5 1.5,71.5 2,148 1.5,205.5 2,217.5 2,166 1.5,56.5 2,-74 1.5,-178 2,-221 1.5,-205 2,-152.5 2,-93.5 1.5,-43.5 2,-4.5 1.5,33.5 2,80 1.5,137.5 2,194 2,222 1.5,194.5 2,104 1.5,-24 2,-144 1.5,-212 2,-217.5 2,-175 1.5,-117 2,-66 1.5,-32 2,-13 1.5,-4.5 2,-1.5 2,-0.5 h 1.5 l 2,0.5 1.5,1 2,3.5 1.5,10 2,25 2,55 1.5,102 2,160 1.5,209 2,219.5 1.5,168.5 2,60 2,-71.5 1.5,-175.5 2,-221 1.5,-206 2,-154.5 1.5,-97 2,-51.5 2,-23.5 1.5,-9 2,-3.5 1.5,-0.5 2,-0.5 h 1.5 2 2 1.5 2 1.5 2 1.5 2 2 1.5 2 1.5 2 1.5 2 2 1.5 2 1.5 2 2 1.5 2 1.5 2 1.5 2 2 1.5 2 1.5 2 1.5 2 2 1.5 2 l 1.5,0.5 2,1 1.5,3 2,8.5 2,19 1.5,39 2,66 1.5,95 2,110.5 1.5,100.5 2,58 2,-5 1.5,-66.5 2,-104 1.5,-109.5 2,-91 1.5,-61.5 2,-35.5 2,-17 1.5,-7.5 2,-2.5 1.5,-0.5 2,-0.5 h 1.5 2 2 1.5 2 1.5 2 1.5 2 2 1.5 2 1.5 2 1.5 2 2 1.5 2 l 1.5,0.5 2,1.5 1.5,3.5 2,9 2,18 1.5,31 2,45.5 1.5,55.5 2,53.5 1.5,39 2,18 2,8.5 1.5,26 2,75 1.5,140.5 2,188.5 1.5,183.5 2,111 2,-6 1.5,-120.5 2,-183.5 1.5,-174 2,-109 1.5,-24 2,39 2,56.5 1.5,27.5 2,-28.5 1.5,-81 2,-109 1.5,-106.5 2,-83.5 2,-53.5 1.5,-30 2,-13.5 1.5,-6 2,-1.5 1.5,-1 h 2 2 1.5 2 1.5 2 1.5 2 2 1.5 2 1.5 2 1.5 2 2 1.5 2 1.5 2 l 1.5,0.5 2,0.5 2,3 1.5,7.5 2,18.5 1.5,37 2,63.5 1.5,92.5 2,110 2,102.5 1.5,63 2,0.5"
         style="fill:none;stroke:#9400d4;stroke-width:2.5;stroke-linecap:butt;stroke-linejoin:miter;stroke-miterlimit:3.8;stroke-dasharray:none;stroke-opacity:1"
         id="path156" /><path
         d="m 1292.5,723 1.5,-62 2,-102 1.5,-110.5 2,-92.5 2,-64.5 1.5,-37 2,-18.5 1.5,-8 2,-3 1.5,-0.5 2,-0.5 h 2 1.5 2 l 1.5,0.5 2,2 1.5,4 2,8.5 2,16.5 1.5,26 2,34.5 1.5,37 2,29 1.5,11 2,-10.5 2,-28.5 1.5,-37 2,-34.5 1.5,-26.5 2,-16.5 1.5,-9 2,-3.5 2,-0.5 1.5,3 2,11 1.5,27.5 2,59 1.5,107.5 2,166 2,212.5 1.5,217.5 2,159.5 1.5,46.5 2,-84 1.5,-183.5 2,-222 2,-201.5 1.5,-149 2,-91.5 1.5,-47.5 2,-21.5 1.5,-8 2,-3 2,-0.5 1.5,0.5 2,2 1.5,7 2,18 1.5,41.5 2,82 2,137.5 1.5,193.5 2,222 1.5,196 2,106 1.5,-22 2,-142 2,-211.5 1.5,-217.5 2,-176.5 1.5,-118 2,-66.5 1.5,-31.5 2,-10 2,5.5 1.5,26.5 2,67.5 1.5,138.5 2,243.5 1.5,359 2,437.5 2,418.5 1.5,271 2,28 1.5,-226 2,-398 1.5,-443 2,-381 2,-268 1.5,-158.5 2,-79.5 1.5,-34 2,-13 1.5,-4 2,-1 2,-0.5 h 1.5 2 1.5 2 1.5 2 2 1.5 2 1.5 2 1.5 2 2 1.5 2 1.5 2 l 1.5,0.5 2,1 2,3.5 1.5,10 2,26 1.5,55.5 2,103 1.5,161 2,210 2,219 1.5,167 2,57 1.5,-73.5 2,-177.5 1.5,-221 2,-205 2,-153.5 1.5,-96 2,-51 1.5,-23 2,-9 1.5,-3 2,-0.5 h 2 l 1.5,1 2,2.5 1.5,6.5 2,14 1.5,26 2,40.5 2,52.5 1.5,55 2,41 1.5,14 2,-19 1.5,-45 2,-55 2,-51.5 1.5,-38 2,-23.5 1.5,-12.5 2,-6 1.5,-2 2,-0.5 2,-0.5 h 1.5 2 1.5 2 l 1.5,0.5 2,2 2,4.5 1.5,12.5 2,26.5 1.5,49.5 2,79 1.5,104 2,110 2,86 1.5,32.5 2,-33 1.5,-86 2,-110.5 1.5,-103.5 2,-78.5 2,-50 1.5,-26.5 2,-11.5 1.5,-4 2,1 1.5,8.5 2,22.5 2,50 1.5,94.5 2,152 1.5,204.5 2,221.5 1.5,179 2,76.5 2,-54.5 1.5,-165 2,-218.5 1.5,-210.5 2,-162.5 1.5,-104.5 2,-56.5 2,-26 1.5,-10.5 2,-3.5 1.5,-1 2,-0.5 h 1.5 2 2 1.5 2 1.5 2 1.5 2 2 1.5 2 1.5 2 1.5 2 2 1.5 2 1.5 2 1.5 2 2 1.5 2 1.5 2 1.5 2 2 1.5 2 1.5 2 1.5 2 2 1.5 2 1.5 2 1.5 2"
         style="fill:none;stroke:#9400d4;stroke-width:2.5;stroke-linecap:butt;stroke-linejoin:miter;stroke-miterlimit:3.8;stroke-dasharray:none;stroke-opacity:1"
         id="path158" /><path
         d="m 1737,224 h 53.5 l 2,0.5 1.5,1.5 2,5 1.5,12.5 2,29 2,57.5 1.5,101 2,154 1.5,207.5 2,245.5 1.5,254.5 2,224.5 2,163 1.5,86.5 2,19 1.5,-27.5 2,-60.5 1.5,-102 2,-160.5 2,-222 1.5,-256.5 2,-248 1.5,-201 2,-137 1.5,-80.5 2,-39.5 2,-17.5 1.5,-6 2,-2.5 1.5,-0.5 h 2 1.5 2 2 1.5 2 1.5 2 1.5 l 2,0.5 2,1.5 1.5,4 2,9.5 1.5,20 2,37 1.5,56.5 2,73 2,76.5 1.5,64 2,39.5 1.5,19.5 2,15.5 1.5,29.5 2,43.5 2,38.5 1.5,5 2,-45.5 1.5,-88.5 2,-103 1.5,-83.5 2,-37.5 2,19.5 1.5,71 2,98.5 1.5,91.5 2,49 1.5,-14.5 2,-73.5 2,-106.5 1.5,-108.5 2,-87 1.5,-57.5 2,-32.5 1.5,-15.5 2,-6.5 2,-2 1.5,-0.5 2,0.5 1.5,2.5 2,7 1.5,19 2,44 2,86.5 1.5,144.5 2,204.5 1.5,239.5 2,223 1.5,148 2,36 2,-66 1.5,-115 2,-90.5 1.5,-2 2,116.5 1.5,218 2,261 2,225.5 1.5,122 2,-10.5 1.5,-120 2,-168 1.5,-148 2,-91 2,-51.5 1.5,-64.5 2,-125.5 1.5,-196.5 2,-233.5 1.5,-221.5 2,-172.5 2,-112.5 1.5,-62 2,-29.5 1.5,-12 2,-4.5 1.5,-1 2,-0.5 h 2 1.5 2 1.5 2 1.5 2 2 1.5 2 1.5 2 1.5 2 2 1.5 2 1.5 2 1.5 2 2 1.5 2 1.5 2 1.5 2 l 2,0.5 1.5,0.5 2,3 1.5,6 2,14 1.5,26 2,40.5 2,52.5 1.5,54.5 2,42.5 1.5,16 2,-13 1.5,-28.5 2,-18 2,24.5 1.5,92.5 2,168.5 1.5,226 2,239 1.5,203 2,136.5 2,75.5 1.5,38.5 2,19 1.5,-4.5 2,-46.5 1.5,-98.5 2,-143 2,-163.5 1.5,-154 2,-111.5 1.5,-34.5 2,62.5 1.5,155 2,207 2,192.5 1.5,105.5 2,-28.5 1.5,-165 2,-258 1.5,-283.5 2,-245.5 2,-170.5 1.5,-84 2,3 1.5,89 2,173 2,241.5 1.5,271.5 2,240.5 1.5,147.5 2,17 1.5,-111.5 2,-205.5 2,-248 1.5,-240.5 2,-200 1.5,-145 2,-91.5 1.5,-51 2,-25 2,-10.5 1.5,-4 2,-1 h 1.5 l 2,1 1.5,4 2,11.5 2,28 1.5,60 2,110 1.5,172.5 2,227.5 1.5,251"
         style="fill:none;stroke:#9400d4;stroke-width:2.5;stroke-linecap:butt;stroke-linejoin:miter;stroke-miterlimit:3.8;stroke-dasharray:none;stroke-opacity:1"
         id="path160" /><path
         d="m 2181.5,1090 2,228.5 2,167.5 1.5,94.5 2,34.5 1.5,-13.5 2,-68 1.5,-136.5 2,-206.5 2,-247.5 1.5,-242.5 2,-197.5 1.5,-135.5 2,-78.5 1.5,-39.5 2,-16.5 2,-6.5 1.5,-2 2,-0.5 h 1.5 2 1.5 2 l 2,0.5 1.5,1 2,2.5 1.5,8 2,19 1.5,37.5 2,65 2,94.5 1.5,115 2,113.5 1.5,90.5 2,61 1.5,49 2,68 2,105 1.5,123 2,88.5 1.5,-2 2,-112.5 1.5,-197 2,-225 2,-199 1.5,-143.5 2,-87 1.5,-45 2,-19.5 1.5,-7.5 2,-2 2,1 1.5,4.5 2,11.5 1.5,26.5 2,52 1.5,87.5 2,129 2,167.5 1.5,192.5 2,199 1.5,182 2,134.5 1.5,55 2,-51 2,-157.5 1.5,-230.5 2,-249.5 1.5,-216.5 2,-157 1.5,-95 2,-47 2,-13 1.5,16 2,50.5 1.5,99 2,158 1.5,208 2,220 2,171.5 1.5,65 2,-64.5 1.5,-166 2,-202.5 1.5,-168.5 2,-84.5 2,16.5 1.5,102 2,148 1.5,144.5 2,102.5 1.5,54.5 2,33 2,45 1.5,67.5 2,60 1.5,4.5 2,-79.5 1.5,-148 2,-168.5 2,-140 1.5,-91 2,-55.5 1.5,-49 2,-61.5 1.5,-76 2,-77.5 2,-65 1.5,-45.5 2,-27 1.5,-14 2,-6 1.5,-2 2,-0.5 2,-0.5 h 1.5 2 1.5 2 1.5 2 2 1.5 2 1.5 2 1.5 2 2 1.5 2 1.5 l 2,0.5 1.5,1 2,3.5 2,9 1.5,21.5 2,42 1.5,71.5 2,104 1.5,128.5 2,135.5 2,122.5 1.5,97 2,69 1.5,40 2,0.5 1.5,-52.5 2,-111 2,-153 1.5,-163.5 2,-142.5 1.5,-103.5 2,-63.5 1.5,-33 2,-15 2,-6 1.5,-2 2,-0.5 h 1.5 2 1.5 2 2 1.5 2 1.5 2 1.5 2 2 1.5 2 1.5 2 1.5 2 2 1.5 2 1.5 2 1.5 2 l 2,0.5 1.5,2 2,5.5 1.5,13.5 2,29 1.5,52.5 2,82 2,106 1.5,109 2,81 1.5,25.5 2,-40 1.5,-90.5 2,-111 2,-101.5 1.5,-75 2,-47 1.5,-24.5 2,-11 1.5,-4 2,-1.5 2,-0.5 h 1.5 2 1.5 2 1.5 2 2 1.5 l 2,0.5 1.5,0.5 2,2 1.5,5 2,10 2,16.5 1.5,23.5 2,27.5 1.5,25.5 2,14.5 1.5,-1.5 2,-16.5 2,-26 1.5,-27.5 2,-23 1.5,-15 2,-9 1.5,-4.5 2,-1.5 2,-0.5 1.5,-0.5 h 2 1.5 2 1.5 2 2 1.5 2 1.5 2 1.5 2 2 1.5 2"
         style="fill:none;stroke:#9400d4;stroke-width:2.5;stroke-linecap:butt;stroke-linejoin:miter;stroke-miterlimit:3.8;stroke-dasharray:none;stroke-opacity:1"
         id="path162" /><path
         d="m 2626.5,224 h 48 l 2,1 1.5,1.5 2,4.5 1.5,10.5 2,20.5 2,34.5 1.5,48.5 2,55.5 1.5,49 2,26.5 1.5,-5 2,-33.5 2,-47.5 1.5,-42.5 2,-21 1.5,8 2,33.5 1.5,47.5 2,42.5 2,19.5 1.5,-12 2,-40.5 1.5,-54 2,-53.5 1.5,-41 2,-27 2,-14.5 1.5,-7 2,-2.5 1.5,-1 2,-0.5 h 1.5 2 2 1.5 2 1.5 2 1.5 2 2 1.5 2 1.5 2 1.5 2 2 1.5 2 1.5 l 2,0.5 1.5,1.5 2,3.5 2,8.5 1.5,17.5 2,30.5 1.5,45.5 2,55 1.5,53 2,36 2,9.5 1.5,-12 2,-15 1.5,5 2,42 1.5,76.5 2,85 2,58.5 1.5,3 2,-57.5 1.5,-100 2,-111 1.5,-95.5 2,-67 2,-40 1.5,-20 2,-8.5 1.5,-3 2,-1 1.5,-0.5 h 2 2 1.5 2 1.5 2 1.5 2 l 2,0.5 1.5,0.5 2,3 1.5,8.5 2,22.5 1.5,51 2,100 2,167 1.5,237.5 2,280 1.5,264 2,174 1.5,32 2,-118.5 2,-228 1.5,-272 2,-252.5 1.5,-196.5 2,-131 1.5,-76 2,-39 2,-17 1.5,-6.5 2,-2.5 1.5,-1 h 2 1.5 2 2 1.5 2 1.5 2 1.5 2 2 1.5 2 1.5 2 1.5 2 2 l 1.5,0.5 2,2 1.5,5.5 2,15.5 1.5,38 2,80 2,145.5 1.5,229.5 2,310.5 1.5,357.5 2,342.5 1.5,255.5 2,116 2,-35 1.5,-158.5 2,-228 1.5,-246 2,-232 1.5,-209.5 2,-190 2,-171 1.5,-146 2,-113.5 1.5,-78.5 2,-47.5 1.5,-25 2,-11.5 2,-4.5 1.5,-1.5 h 2 1.5 l 2,2 1.5,5.5 2,15 2,36 1.5,73 2,126.5 1.5,184 2,220 1.5,205.5 2,127.5 2,3.5 1.5,-120.5 2,-199 1.5,-208.5 2,-156 1.5,-65.5 2,38.5 2,135 1.5,200 2,209 1.5,149.5 2,39.5 1.5,-75.5 2,-139 2,-116.5 1.5,-12.5 2,128 1.5,240.5 2,265 1.5,179 2,10.5 2,-172.5 1.5,-296 2,-327 1.5,-277.5 2,-189 1.5,-100.5 2,-35 2,2 1.5,14 2,9.5 1.5,-2.5 2,-10.5 1.5,-4.5 2,22 2,72 1.5,137 2,195.5 1.5,218 2,179 1.5,79 2,-52 2,-163 1.5,-218 2,-211.5 1.5,-163.5 2,-105.5 1.5,-57.5 2,-26.5"
         style="fill:none;stroke:#9400d4;stroke-width:2.5;stroke-linecap:butt;stroke-linejoin:miter;stroke-miterlimit:3.8;stroke-dasharray:none;stroke-opacity:1"
         id="path164" /><path
         d="m 3071,240 2,-11 1.5,-3.5 2,-1 1.5,1 2,3.5 1.5,10.5 2,26.5 2,56.5 1.5,104.5 2,162.5 1.5,210.5 2,219 1.5,164.5 2,54 2,-77 1.5,-179 2,-221.5 1.5,-204 2,-152 1.5,-94 2,-48.5 2,-18 1.5,3 2,24.5 1.5,53.5 2,94 1.5,143 2,192 2,226.5 1.5,233 2,202.5 1.5,136.5 2,50 1.5,-22 2,-43 2,3 1.5,91 2,158 1.5,147.5 2,40 1.5,-125 2,-277 2,-357 1.5,-348 2,-276 1.5,-183.5 2,-103.5 1.5,-50.5 2,-21 2,-7.5 1.5,-2.5 2,0.5 1.5,3 2,9 1.5,21 2,44 2,79.5 1.5,124 2,163.5 1.5,177.5 2,148.5 1.5,75 2,-24.5 2,-116 1.5,-170.5 2,-176.5 1.5,-146 2,-100 1.5,-54.5 2,-16 2,18 1.5,55.5 2,96.5 1.5,133.5 2,148 2,123.5 1.5,57 2,-29 1.5,-105 2,-142.5 1.5,-135.5 2,-92.5 2,-26.5 1.5,59.5 2,164 1.5,282 2,382.5 1.5,420 2,352.5 2,179.5 1.5,-45 2,-235.5 1.5,-326.5 2,-307 1.5,-222.5 2,-138 2,-95 1.5,-94.5 2,-112 1.5,-120 2,-108 1.5,-81 2,-50.5 2,-27 1.5,-9.5 2,4 1.5,22 2,54.5 1.5,110.5 2,192.5 2,288 1.5,364.5 2,381 1.5,306.5 2,145 1.5,-63 2,-250 2,-363 1.5,-380.5 2,-323.5 1.5,-231 2,-141 1.5,-74 2,-34 2,-13.5 1.5,-4.5 2,-1.5 1.5,-0.5 h 2 l 1.5,0.5 2,1 2,3 1.5,9 2,20 1.5,40.5 2,67.5 1.5,96.5 2,112.5 2,104 1.5,69.5 2,25 1.5,0.5 2,17 1.5,71 2,130 2,150.5 1.5,106 2,8.5 1.5,-94 2,-152.5 1.5,-144 2,-87 2,-23.5 1.5,8.5 2,-5 1.5,-45.5 2,-83 1.5,-94 2,-73 2,-33.5 1.5,5 2,25.5 1.5,22 2,3 1.5,-13.5 2,-6.5 2,40 1.5,129 2,244 1.5,350 2,397.5 1.5,344 2,186 2,-30 1.5,-224 2,-321.5 1.5,-296 2,-175 1.5,-28 2,73.5 2,86 1.5,14.5 2,-95.5 1.5,-187 2,-223 1.5,-202.5 2,-149.5 2,-92 1.5,-48 2,-22 1.5,-8 2,-3 1.5,-0.5 2,-0.5 2,0.5 1.5,0.5 2,3 1.5,7 2,17.5 1.5,36 2,62 2,91.5 1.5,109.5 2,103.5 1.5,65.5 2,4 1.5,-59.5 2,-100.5 2,-111 1.5,-94 2,-65.5 1.5,-38.5 2,-19 1.5,-8 2,-3 2,-1 1.5,1 2,2.5 1.5,7.5 2,18 1.5,36.5 2,63 2,92 1.5,110 2,103 0.5,21"
         style="fill:none;stroke:#9400d4;stroke-width:2.5;stroke-linecap:butt;stroke-linejoin:miter;stroke-miterlimit:3.8;stroke-dasharray:none;stroke-opacity:1"
         id="path166" /><path
         d="M 259,2449.5 V 224 h 3214.5 v 2225.5 z"
         style="fill:none;stroke:#000000;stroke-width:5;stroke-linecap:butt;stroke-linejoin:miter;stroke-miterlimit:3.8;stroke-dasharray:none;stroke-opacity:1"
         id="path168" /></g></g></svg>
