<?xml version="1.0" encoding="UTF-8" standalone="no"?>
<!-- Created with Inkscape (http://www.inkscape.org/) -->

<svg
   version="1.1"
   id="svg2"
   xml:space="preserve"
   width="480"
   height="336"
   viewBox="0 0 480 336"
   sodipodi:docname="tetrahedral.svg"
   inkscape:version="1.1 (c68e22c387, 2021-05-23)"
   xmlns:inkscape="http://www.inkscape.org/namespaces/inkscape"
   xmlns:sodipodi="http://sodipodi.sourceforge.net/DTD/sodipodi-0.dtd"
   xmlns="http://www.w3.org/2000/svg"
   xmlns:svg="http://www.w3.org/2000/svg"><defs
     id="defs6" /><sodipodi:namedview
     id="namedview4"
     pagecolor="#ffffff"
     bordercolor="#666666"
     borderopacity="1.0"
     inkscape:pageshadow="2"
     inkscape:pageopacity="0.0"
     inkscape:pagecheckerboard="0"
     showgrid="false"
     inkscape:zoom="2.5952381"
     inkscape:cx="239.86239"
     inkscape:cy="167.80734"
     inkscape:window-width="1858"
     inkscape:window-height="1057"
     inkscape:window-x="-8"
     inkscape:window-y="-8"
     inkscape:window-maximized="1"
     inkscape:current-layer="g8" /><g
     id="g8"
     inkscape:groupmode="layer"
     inkscape:label="ink_ext_XXXXXX"
     transform="matrix(1.3333333,0,0,-1.3333333,0,336)"><g
       id="g10"
       transform="scale(0.1)"><path
         d="m 343,224 h 31.5 m 3099,0 H 3442"
         style="fill:none;stroke:#000000;stroke-width:2.5;stroke-linecap:butt;stroke-linejoin:miter;stroke-miterlimit:3.8;stroke-dasharray:none;stroke-opacity:1"
         id="path12" /><g
         id="g14"
         transform="scale(10)"><text
           transform="matrix(1,0,0,-1,26.2085,20.0648)"
           style="font-variant:normal;font-weight:normal;font-size:7px;font-family:Helvetica;-inkscape-font-specification:Helvetica;writing-mode:lr-tb;fill:#000000;fill-opacity:1;fill-rule:nonzero;stroke:none"
           id="text18"><tspan
             x="0"
             y="0"
             id="tspan16">0</tspan></text></g><path
         d="m 343,502 h 31.5 m 3099,0 H 3442"
         style="fill:none;stroke:#000000;stroke-width:2.5;stroke-linecap:butt;stroke-linejoin:miter;stroke-miterlimit:3.8;stroke-dasharray:none;stroke-opacity:1"
         id="path20" /><g
         id="g22"
         transform="scale(10)"><text
           transform="matrix(1,0,0,-1,20.371,47.8648)"
           style="font-variant:normal;font-weight:normal;font-size:7px;font-family:Helvetica;-inkscape-font-specification:Helvetica;writing-mode:lr-tb;fill:#000000;fill-opacity:1;fill-rule:nonzero;stroke:none"
           id="text26"><tspan
             x="0 3.892 5.8379998"
             y="0"
             sodipodi:role="line"
             id="tspan24">0.5</tspan></text></g><path
         d="m 343,780.5 h 31.5 m 3099,0 H 3442"
         style="fill:none;stroke:#000000;stroke-width:2.5;stroke-linecap:butt;stroke-linejoin:miter;stroke-miterlimit:3.8;stroke-dasharray:none;stroke-opacity:1"
         id="path28" /><g
         id="g30"
         transform="scale(10)"><text
           transform="matrix(1,0,0,-1,26.2085,75.7148)"
           style="font-variant:normal;font-weight:normal;font-size:7px;font-family:Helvetica;-inkscape-font-specification:Helvetica;writing-mode:lr-tb;fill:#000000;fill-opacity:1;fill-rule:nonzero;stroke:none"
           id="text34"><tspan
             x="0"
             y="0"
             id="tspan32">1</tspan></text></g><path
         d="m 343,1058.5 h 31.5 m 3099,0 H 3442"
         style="fill:none;stroke:#000000;stroke-width:2.5;stroke-linecap:butt;stroke-linejoin:miter;stroke-miterlimit:3.8;stroke-dasharray:none;stroke-opacity:1"
         id="path36" /><g
         id="g38"
         transform="scale(10)"><text
           transform="matrix(1,0,0,-1,20.371,103.515)"
           style="font-variant:normal;font-weight:normal;font-size:7px;font-family:Helvetica;-inkscape-font-specification:Helvetica;writing-mode:lr-tb;fill:#000000;fill-opacity:1;fill-rule:nonzero;stroke:none"
           id="text42"><tspan
             x="0 3.892 5.8379998"
             y="0"
             sodipodi:role="line"
             id="tspan40">1.5</tspan></text></g><path
         d="m 343,1337 h 31.5 m 3099,0 H 3442"
         style="fill:none;stroke:#000000;stroke-width:2.5;stroke-linecap:butt;stroke-linejoin:miter;stroke-miterlimit:3.8;stroke-dasharray:none;stroke-opacity:1"
         id="path44" /><g
         id="g46"
         transform="scale(10)"><text
           transform="matrix(1,0,0,-1,26.2085,131.365)"
           style="font-variant:normal;font-weight:normal;font-size:7px;font-family:Helvetica;-inkscape-font-specification:Helvetica;writing-mode:lr-tb;fill:#000000;fill-opacity:1;fill-rule:nonzero;stroke:none"
           id="text50"><tspan
             x="0"
             y="0"
             id="tspan48">2</tspan></text></g><path
         d="m 343,1615 h 31.5 m 3099,0 H 3442"
         style="fill:none;stroke:#000000;stroke-width:2.5;stroke-linecap:butt;stroke-linejoin:miter;stroke-miterlimit:3.8;stroke-dasharray:none;stroke-opacity:1"
         id="path52" /><g
         id="g54"
         transform="scale(10)"><text
           transform="matrix(1,0,0,-1,20.371,159.165)"
           style="font-variant:normal;font-weight:normal;font-size:7px;font-family:Helvetica;-inkscape-font-specification:Helvetica;writing-mode:lr-tb;fill:#000000;fill-opacity:1;fill-rule:nonzero;stroke:none"
           id="text58"><tspan
             x="0 3.892 5.8379998"
             y="0"
             sodipodi:role="line"
             id="tspan56">2.5</tspan></text></g><path
         d="m 343,1893 h 31.5 m 3099,0 H 3442"
         style="fill:none;stroke:#000000;stroke-width:2.5;stroke-linecap:butt;stroke-linejoin:miter;stroke-miterlimit:3.8;stroke-dasharray:none;stroke-opacity:1"
         id="path60" /><g
         id="g62"
         transform="scale(10)"><text
           transform="matrix(1,0,0,-1,26.2085,186.965)"
           style="font-variant:normal;font-weight:normal;font-size:7px;font-family:Helvetica;-inkscape-font-specification:Helvetica;writing-mode:lr-tb;fill:#000000;fill-opacity:1;fill-rule:nonzero;stroke:none"
           id="text66"><tspan
             x="0"
             y="0"
             id="tspan64">3</tspan></text></g><path
         d="m 343,2171.5 h 31.5 m 3099,0 H 3442"
         style="fill:none;stroke:#000000;stroke-width:2.5;stroke-linecap:butt;stroke-linejoin:miter;stroke-miterlimit:3.8;stroke-dasharray:none;stroke-opacity:1"
         id="path68" /><g
         id="g70"
         transform="scale(10)"><text
           transform="matrix(1,0,0,-1,20.371,214.815)"
           style="font-variant:normal;font-weight:normal;font-size:7px;font-family:Helvetica;-inkscape-font-specification:Helvetica;writing-mode:lr-tb;fill:#000000;fill-opacity:1;fill-rule:nonzero;stroke:none"
           id="text74"><tspan
             x="0 3.892 5.8379998"
             y="0"
             sodipodi:role="line"
             id="tspan72">3.5</tspan></text></g><path
         d="m 343,2449.5 h 31.5 m 3099,0 H 3442"
         style="fill:none;stroke:#000000;stroke-width:2.5;stroke-linecap:butt;stroke-linejoin:miter;stroke-miterlimit:3.8;stroke-dasharray:none;stroke-opacity:1"
         id="path76" /><g
         id="g78"
         transform="scale(10)"><text
           transform="matrix(1,0,0,-1,26.2085,242.615)"
           style="font-variant:normal;font-weight:normal;font-size:7px;font-family:Helvetica;-inkscape-font-specification:Helvetica;writing-mode:lr-tb;fill:#000000;fill-opacity:1;fill-rule:nonzero;stroke:none"
           id="text82"><tspan
             x="0"
             y="0"
             id="tspan80">4</tspan></text></g><path
         d="m 517,224 v 31.5 m 0,2194 V 2418"
         style="fill:none;stroke:#000000;stroke-width:2.5;stroke-linecap:butt;stroke-linejoin:miter;stroke-miterlimit:3.8;stroke-dasharray:none;stroke-opacity:1"
         id="path84" /><g
         id="g86"
         transform="scale(10)"><text
           transform="matrix(1,0,0,-1,46.643,13.0648)"
           style="font-variant:normal;font-weight:normal;font-size:7px;font-family:Helvetica;-inkscape-font-specification:Helvetica;writing-mode:lr-tb;fill:#000000;fill-opacity:1;fill-rule:nonzero;stroke:none"
           id="text90"><tspan
             x="0 2.3310001 6.223"
             y="0"
             sodipodi:role="line"
             id="tspan88">-12</tspan></text></g><path
         d="m 865,224 v 31.5 m 0,2194 V 2418"
         style="fill:none;stroke:#000000;stroke-width:2.5;stroke-linecap:butt;stroke-linejoin:miter;stroke-miterlimit:3.8;stroke-dasharray:none;stroke-opacity:1"
         id="path92" /><g
         id="g94"
         transform="scale(10)"><text
           transform="matrix(1,0,0,-1,81.443,13.0648)"
           style="font-variant:normal;font-weight:normal;font-size:7px;font-family:Helvetica;-inkscape-font-specification:Helvetica;writing-mode:lr-tb;fill:#000000;fill-opacity:1;fill-rule:nonzero;stroke:none"
           id="text98"><tspan
             x="0 2.3310001 6.223"
             y="0"
             sodipodi:role="line"
             id="tspan96">-10</tspan></text></g><path
         d="m 1212.5,224 v 31.5 m 0,2194 V 2418"
         style="fill:none;stroke:#000000;stroke-width:2.5;stroke-linecap:butt;stroke-linejoin:miter;stroke-miterlimit:3.8;stroke-dasharray:none;stroke-opacity:1"
         id="path100" /><g
         id="g102"
         transform="scale(10)"><text
           transform="matrix(1,0,0,-1,118.139,13.0648)"
           style="font-variant:normal;font-weight:normal;font-size:7px;font-family:Helvetica;-inkscape-font-specification:Helvetica;writing-mode:lr-tb;fill:#000000;fill-opacity:1;fill-rule:nonzero;stroke:none"
           id="text106"><tspan
             x="0 2.3310001"
             y="0"
             sodipodi:role="line"
             id="tspan104">-8</tspan></text></g><path
         d="m 1560.5,224 v 31.5 m 0,2194 V 2418"
         style="fill:none;stroke:#000000;stroke-width:2.5;stroke-linecap:butt;stroke-linejoin:miter;stroke-miterlimit:3.8;stroke-dasharray:none;stroke-opacity:1"
         id="path108" /><g
         id="g110"
         transform="scale(10)"><text
           transform="matrix(1,0,0,-1,152.939,13.0648)"
           style="font-variant:normal;font-weight:normal;font-size:7px;font-family:Helvetica;-inkscape-font-specification:Helvetica;writing-mode:lr-tb;fill:#000000;fill-opacity:1;fill-rule:nonzero;stroke:none"
           id="text114"><tspan
             x="0 2.3310001"
             y="0"
             sodipodi:role="line"
             id="tspan112">-6</tspan></text></g><path
         d="m 1908.5,224 v 31.5 m 0,2194 V 2418"
         style="fill:none;stroke:#000000;stroke-width:2.5;stroke-linecap:butt;stroke-linejoin:miter;stroke-miterlimit:3.8;stroke-dasharray:none;stroke-opacity:1"
         id="path116" /><g
         id="g118"
         transform="scale(10)"><text
           transform="matrix(1,0,0,-1,187.739,13.0648)"
           style="font-variant:normal;font-weight:normal;font-size:7px;font-family:Helvetica;-inkscape-font-specification:Helvetica;writing-mode:lr-tb;fill:#000000;fill-opacity:1;fill-rule:nonzero;stroke:none"
           id="text122"><tspan
             x="0 2.3310001"
             y="0"
             sodipodi:role="line"
             id="tspan120">-4</tspan></text></g><path
         d="m 2256,224 v 31.5 m 0,2194 V 2418"
         style="fill:none;stroke:#000000;stroke-width:2.5;stroke-linecap:butt;stroke-linejoin:miter;stroke-miterlimit:3.8;stroke-dasharray:none;stroke-opacity:1"
         id="path124" /><g
         id="g126"
         transform="scale(10)"><text
           transform="matrix(1,0,0,-1,222.489,13.0648)"
           style="font-variant:normal;font-weight:normal;font-size:7px;font-family:Helvetica;-inkscape-font-specification:Helvetica;writing-mode:lr-tb;fill:#000000;fill-opacity:1;fill-rule:nonzero;stroke:none"
           id="text130"><tspan
             x="0 2.3310001"
             y="0"
             sodipodi:role="line"
             id="tspan128">-2</tspan></text></g><path
         d="m 2604,224 v 31.5 m 0,2194 V 2418"
         style="fill:none;stroke:#000000;stroke-width:2.5;stroke-linecap:butt;stroke-linejoin:miter;stroke-miterlimit:3.8;stroke-dasharray:none;stroke-opacity:1"
         id="path132" /><g
         id="g134"
         transform="scale(10)"><text
           transform="matrix(1,0,0,-1,259.427,13.0648)"
           style="font-variant:normal;font-weight:normal;font-size:7px;font-family:Helvetica;-inkscape-font-specification:Helvetica;writing-mode:lr-tb;fill:#000000;fill-opacity:1;fill-rule:nonzero;stroke:none"
           id="text138"><tspan
             x="0"
             y="0"
             id="tspan136">0</tspan></text></g><path
         d="m 2952,224 v 31.5 m 0,2194 V 2418"
         style="fill:none;stroke:#000000;stroke-width:2.5;stroke-linecap:butt;stroke-linejoin:miter;stroke-miterlimit:3.8;stroke-dasharray:none;stroke-opacity:1"
         id="path140" /><g
         id="g142"
         transform="scale(10)"><text
           transform="matrix(1,0,0,-1,294.227,13.0648)"
           style="font-variant:normal;font-weight:normal;font-size:7px;font-family:Helvetica;-inkscape-font-specification:Helvetica;writing-mode:lr-tb;fill:#000000;fill-opacity:1;fill-rule:nonzero;stroke:none"
           id="text146"><tspan
             x="0"
             y="0"
             id="tspan144">2</tspan></text></g><path
         d="m 3299.5,224 v 31.5 m 0,2194 V 2418"
         style="fill:none;stroke:#000000;stroke-width:2.5;stroke-linecap:butt;stroke-linejoin:miter;stroke-miterlimit:3.8;stroke-dasharray:none;stroke-opacity:1"
         id="path148" /><g
         id="g150"
         transform="scale(10)"><text
           transform="matrix(1,0,0,-1,328.977,13.0648)"
           style="font-variant:normal;font-weight:normal;font-size:7px;font-family:Helvetica;-inkscape-font-specification:Helvetica;writing-mode:lr-tb;fill:#000000;fill-opacity:1;fill-rule:nonzero;stroke:none"
           id="text154"><tspan
             x="0"
             y="0"
             id="tspan152">4</tspan></text></g><path
         d="M 343,2449.5 V 224 h 3130.5 v 2225.5 z"
         style="fill:none;stroke:#000000;stroke-width:5;stroke-linecap:butt;stroke-linejoin:miter;stroke-miterlimit:3.8;stroke-dasharray:none;stroke-opacity:1"
         id="path156" /><path
         d="M 2604.5,224.5 V 2450"
         style="fill:none;stroke:#000000;stroke-width:1.25;stroke-linecap:butt;stroke-linejoin:miter;stroke-miterlimit:3.8;stroke-dasharray:5, 10;stroke-dashoffset:0;stroke-opacity:1"
         id="path158" /><g
         id="g160"
         transform="scale(10)"><text
           transform="matrix(0,1,1,0,8.98516,108.171)"
           style="font-variant:normal;font-weight:normal;font-size:7px;font-family:Helvetica;-inkscape-font-specification:Helvetica;writing-mode:lr-tb;fill:#000000;fill-opacity:1;fill-rule:nonzero;stroke:none"
           id="text164"><tspan
             x="0 5.0539999 10.5 15.169 17.115 19.445999 22.945999 24.892 28.784 30.73 34.622002 38.122002 40.068001 43.959999 48.629002"
             y="0"
             sodipodi:role="line"
             id="tspan162">DOS (states/eV)</tspan></text><text
           transform="matrix(1,0,0,-1,172.129,2.56484)"
           style="font-variant:normal;font-weight:normal;font-size:7px;font-family:Helvetica;-inkscape-font-specification:Helvetica;writing-mode:lr-tb;fill:#000000;fill-opacity:1;fill-rule:nonzero;stroke:none"
           id="text168"><tspan
             x="0 4.6690001 8.5609999 12.453 14.784 18.676001 22.176001 24.122 26.452999 30.344999 35.014"
             y="0"
             sodipodi:role="line"
             id="tspan166">Energy (eV)</tspan></text></g><path
         d="m 483,224 h 43.5 l 2,0.5 1.5,0.5 2,0.5 1.5,1 2,1 1.5,1.5 2,1 1.5,1.5 2,2 1.5,2 2,2 1.5,2 2,2.5 1.5,2.5 2,3 1.5,3 2,3 1.5,3 2,3.5 1.5,3.5 1.5,4 2,4 1.5,4 2,4.5 1.5,4.5 2,5.5 1.5,4.5 2,4.5 1.5,4.5 2,4 1.5,4 2,3.5 1.5,3.5 2,3.5 1.5,3.5 2,3 1.5,3 2,3 1.5,2.5 2,2.5 1.5,2 2,2.5 1.5,2 1.5,1.5 2,2 1.5,1.5 2,1 1.5,1.5 2,1 1.5,0.5 2,1 1.5,0.5 h 2 l 1.5,-0.5 h 2 l 1.5,0.5 h 2 l 1.5,0.5 h 2 l 1.5,0.5 2,0.5 1.5,1 2,0.5 1.5,0.5 2,1 1.5,1 1.5,1 2,1 1.5,1 2,1 1.5,1.5 2,1 1.5,1.5 2,1.5 1.5,1.5 2,1.5 1.5,1.5 2,2 1.5,1.5 2,2 1.5,2 2,2 1.5,1.5 2,2 1.5,2 2,2 1.5,1.5 2,2 1.5,2 1.5,2 2,2 1.5,2 2,2 1.5,2 2,2 1.5,2 2,2 1.5,2 2,2 1.5,2 2,2 1.5,2 2,2 1.5,2 2,2.5 1.5,2 2,2 1.5,2 2,2 1.5,2 2,2 1.5,1.5 1.5,2 2,1.5 1.5,1.5 2,1.5 1.5,1.5 2,1.5 1.5,1 2,1.5 1.5,1 2,1 1.5,1 2,1 1.5,0.5 2,1 1.5,0.5 2,0.5 1.5,0.5 2,0.5 1.5,0.5 2,0.5 1.5,0.5 2,0.5 1.5,0.5 1.5,1 2,0.5 1.5,1 2,0.5 1.5,1 2,1 1.5,1.5 2,1 1.5,1.5 2,1 1.5,1.5 2,1.5 1.5,1.5 2,1.5 1.5,2 2,1.5 1.5,2 2,2 1.5,2 2,1.5 1.5,1.5 2,2 1.5,1.5 1.5,2 2,1.5 1.5,2 2,1.5 1.5,2 2,2 1.5,1.5 2,2 1.5,2 2,2 1.5,2 2,2 1.5,2 2,2.5 1.5,2 2,2 1.5,2.5 2,2 1.5,2.5 2,2 1.5,2.5 2,2.5 1.5,2.5 1.5,2 2,2.5 1.5,2.5 2,2.5 1.5,2.5 2,2.5 1.5,3 2,2.5 1.5,2.5 2,3 1.5,2.5 2,3 1.5,2.5 2,3 1.5,3 2,2.5 1.5,3 2,3 1.5,3 2,3 1.5,3 2,3 1.5,3.5 1.5,3 2,3.5 1.5,3.5 2,4 1.5,4 2,4 1.5,4.5 2,4.5 1.5,4.5 2,5 1.5,5 2,5.5 1.5,5 2,4 1.5,3.5 2,3.5 1.5,3.5 2,3.5 1.5,3.5 2,3"
         style="fill:none;stroke:#9400d4;stroke-width:2.5;stroke-linecap:butt;stroke-linejoin:miter;stroke-miterlimit:3.8;stroke-dasharray:none;stroke-opacity:1"
         id="path170" /><path
         d="m 916.5,690 1.5,3 2,3 1.5,3 1.5,2.5 2,3 1.5,2.5 2,2.5 1.5,2 2,2.5 1.5,2 2,2 1.5,2 2,1.5 1.5,2 2,1.5 1.5,1.5 2,1 1.5,1 2,1 1.5,1 2,0.5 1.5,0.5 h 2 l 1.5,0.5 h 2 l 1.5,-0.5 h 1.5 l 2,-0.5 1.5,-0.5 2,-1 1.5,-1 2,-1 1.5,-1 2,-1.5 1.5,-1.5 2,-2 1.5,-1.5 2,-2 1.5,-1.5 2,-2 1.5,-1.5 2,-1.5 1.5,-1.5 2,-1.5 1.5,-1.5 2,-1.5 1.5,-1.5 2,-1.5 1.5,-1 1.5,-0.5 2,-0.5 1.5,-0.5 2,0.5 1.5,0.5 2,0.5 1.5,1 2,1 1.5,1.5 2,2 1.5,2 2,2.5 1.5,2 2,-6 1.5,-7.5 2,-8 1.5,-7 2,-7.5 1.5,-6.5 2,-7 1.5,-6 2,-6.5 1.5,-6 1.5,-5.5 2,-5.5 1.5,-5 2,-5 1.5,-5 2,-4.5 1.5,-4 2,-4.5 1.5,-3.5 2,-3.5 1.5,-3.5 2,-3 1.5,-3 2,-2.5 1.5,-3 2,-3.5 1.5,-3.5 2,-3.5 1.5,-3 2,-3.5 1.5,-3.5 2,-3 1.5,-3.5 1.5,-3 2,-3 1.5,-3.5 2,-3 1.5,-3 2,-3.5 1.5,-3 2,-3 1.5,-3 2,-3 1.5,-3 2,-3 1.5,-3 2,-3 1.5,-2.5 2,-3 1.5,-3 2,-3 1.5,-2.5 2,-3 1.5,-2.5 2,-3 1.5,-2.5 1.5,-3 2,-2.5 1.5,-3 2,-2.5 1.5,-2.5 2,-2.5 1.5,-2.5 2,-3 1.5,-2.5 2,-2.5 1.5,-2.5 2,-2 1.5,-2.5 2,-2.5 1.5,-2.5 2,-2.5 1.5,-2 2,-2.5 1.5,-2.5 2,-2 1.5,-2.5 2,-2 1.5,-2.5 1.5,-2 2,-2.5 1.5,-2 2,-2 1.5,-2 2,-2.5 1.5,-2 2,-2 1.5,-2 2,-2 1.5,-2.5 2,-2 1.5,-2.5 2,-2.5 1.5,-2.5 2,-2.5 1.5,-2.5 2,-3 1.5,-2.5 2,-3 1.5,-2.5 2,-3 1.5,-3 1.5,-3 2,-3 1.5,-3.5 2,-3 1.5,-3.5 2,-3 1.5,-3.5 2,-3.5 1.5,-3.5 2,-3.5 1.5,-3.5 2,-4 1.5,-3.5 2,-4 1.5,-4 2,-3.5 1.5,-4 2,-4.5 1.5,-4 2,-4 1.5,-4.5 2,-4 1.5,-4.5 1.5,-4.5 2,-4.5 1.5,-4.5 2,-4 1.5,-4 2,-3.5 1.5,-3.5 2,-3 1.5,-2.5 2,-2.5 1.5,-1.5 h 2 l 1.5,0.5 2,1 1.5,2 2,2.5 1.5,3.5 2,3.5 1.5,4.5 2,5 1.5,4.5 2,5 1.5,4.5 1.5,4.5 2,4.5 1.5,4.5 2,4.5 1.5,4.5 2,4 1.5,4.5 2,4 1.5,4 2,4 1.5,4.5 2,4 1.5,3.5 2,4 1.5,4 2,3.5 1.5,4 2,3.5 1.5,3.5 2,3.5 1.5,3.5 2,3.5 1.5,3.5 1.5,3.5 2,3 1.5,3.5 2,3 1.5,3.5 2,3 1.5,3 2,3 1.5,2.5 2,3 1.5,3 2,2.5 1.5,3 2,2.5 1.5,2.5 2,2.5"
         style="fill:none;stroke:#9400d4;stroke-width:2.5;stroke-linecap:butt;stroke-linejoin:miter;stroke-miterlimit:3.8;stroke-dasharray:none;stroke-opacity:1"
         id="path172" /><path
         d="m 1349.5,429.5 1.5,3 2,2.5 1.5,3 2,2.5 1.5,3 2,3 1.5,3 1.5,3 2,3.5 1.5,3 2,3.5 1.5,3.5 2,3.5 1.5,3.5 2,3.5 1.5,4 2,3.5 1.5,4 2,4 1.5,4 2,4 1.5,4 2,4.5 1.5,4 2,5 1.5,4.5 2,5.5 1.5,6 2,6 1.5,6.5 1.5,7.5 2,7 1.5,8 2,8.5 1.5,8.5 2,9 1.5,9.5 2,10 1.5,10.5 2,10.5 1.5,11 2,11.5 1.5,19 2,28 1.5,26.5 2,25.5 1.5,23.5 2,22 1.5,20.5 2,19 1.5,17.5 2,15.5 1.5,14.5 1.5,12.5 2,11.5 1.5,9.5 2,8 1.5,6.5 2,5 1.5,3.5 2,2 1.5,0.5 2,-1.5 1.5,-2.5 2,-4.5 1.5,-5.5 2,-5 1.5,-6 2,-6 1.5,-6 2,-7 1.5,-7.5 2,-7.5 1.5,-8.5 2,-8.5 1.5,-9 1.5,-10 2,-10 1.5,-10.5 2,-10.5 1.5,-11.5 2,-12 1.5,-12 2,-11.5 1.5,-7.5 2,-7 1.5,-7 2,-7 1.5,-7 2,-6.5 1.5,-6.5 2,-6.5 1.5,-6.5 2,-6.5 1.5,-6 2,-6.5 1.5,-6 2,-6 1.5,-5.5 2,-6 1.5,-5.5 1.5,-5.5 2,-5.5 1.5,-5.5 2,-5 1.5,-5 2,-5 1.5,-5 2,-5 1.5,-4.5 2,-4.5 1.5,-4.5 2,-4.5 1.5,-4.5 2,-4 1.5,-4 2,-4 1.5,-4 2,-4 1.5,-3.5 2,-3.5 1.5,-3.5 2,-3.5 1.5,-3.5 1.5,-3 2,-3 1.5,-3 2,-3 1.5,-3 2,-3 1.5,-3 2,-2.5 1.5,-3 2,-3 1.5,-3 2,-2.5 1.5,-3 2,-2.5 1.5,-3 2,-2.5 1.5,-3 2,-2.5 1.5,-3 2,-2.5 1.5,-2.5 2,-2.5 1.5,-2.5 1.5,-2.5 2,-3 1.5,-2 2,-2.5 1.5,-2.5 2,-2.5 1.5,-2 2,-2.5 1.5,-2 2,-2.5 1.5,-2 2,-2 1.5,-2 2,-2 1.5,-2 2,-2 1.5,-2 2,-1.5 1.5,-2 2,-2 1.5,-1.5 2,-1.5 1.5,-2 1.5,-1.5 2,-1.5 1.5,-1.5 2,-1.5 1.5,-1.5 2,-1 1.5,-1.5 2,-1.5 1.5,-1.5 2,-1 1.5,-1.5 2,-1 1.5,-1.5 2,-1 1.5,-1.5 2,-1 1.5,-1.5 2,-1 1.5,-1 2,-1.5 1.5,-1 2,-1 1.5,-1 1.5,-1 2,-1.5 1.5,-1 2,-1 1.5,-1 2,-1 1.5,-1 2,-1 1.5,-1 2,-1 1.5,-1.5 2,-1 1.5,-1 2,-1 1.5,-1 2,-1 1.5,-1 2,-1 1.5,-1 2,-1 1.5,-1 2,-1 1.5,-1 1.5,-1 2,-0.5 1.5,-1 2,-1 1.5,-1 2,-1 1.5,-1 2,-1 1.5,-1 2,-1 1.5,-0.5 2,-1 1.5,-1 2,-1 1.5,-1 2,-1 1.5,-0.5 2,-1 1.5,-1 2,-1 1.5,-0.5 2,-1 1.5,-1 1.5,-1 2,-0.5 1.5,-1 2,-1 1.5,-0.5 2,-1 1.5,-1 2,-0.5 1.5,-1 2,-1"
         style="fill:none;stroke:#9400d4;stroke-width:2.5;stroke-linecap:butt;stroke-linejoin:miter;stroke-miterlimit:3.8;stroke-dasharray:none;stroke-opacity:1"
         id="path174" /><path
         d="m 1782.5,368 1.5,-0.5 2,-1 1.5,-1 2,-0.5 1.5,-1 2,-0.5 1.5,-1 2,-1 1.5,-0.5 2,-1 1.5,-0.5 2,-1 1.5,-0.5 1.5,-1 2,-0.5 1.5,-1 2,-0.5 1.5,-1 2,-0.5 1.5,-1 2,-0.5 1.5,-0.5 2,-1 1.5,-0.5 2,-1 1.5,-0.5 2,-0.5 1.5,-1 2,-0.5 1.5,-1 2,-0.5 1.5,-0.5 2,-1 1.5,-0.5 2,-0.5 1.5,-0.5 1.5,-1 2,-0.5 1.5,-0.5 2,-1 1.5,-0.5 2,3 1.5,8 2,13.5 1.5,19 2,24.5 1.5,30 2,36 1.5,24.5 2,9 1.5,8.5 2,9 1.5,9 2,9 1.5,8.5 2,9 1.5,9 2,9 1.5,8.5 1.5,9 2,9 1.5,8.5 2,9 1.5,9 2,9 1.5,8.5 2,9 1.5,9 2,9 1.5,8.5 2,9 1.5,9 2,9 1.5,8.5 2,9 1.5,9 2,9 1.5,8.5 2,9 1.5,9 2,8.5 1.5,9 1.5,9 2,9 1.5,9 2,8.5 1.5,9 2,8 1.5,8.5 2,7.5 1.5,7.5 2,7 1.5,7 2,6.5 1.5,6 2,6 1.5,5.5 2,5 1.5,4.5 2,4 1.5,3.5 2,3.5 1.5,2.5 2,2.5 1.5,2 1.5,1.5 2,1 1.5,0.5 h 2 l 1.5,-0.5 2,-1 1.5,-1 2,-2 1.5,-2 2,-3 1.5,-3 2,-3.5 1.5,-4 2,-2.5 1.5,1 2,6 1.5,10.5 2,14.5 1.5,19 2,23.5 1.5,27.5 2,30.5 1.5,17.5 1.5,-3.5 2,-17 1.5,-21.5 2,-25 1.5,-27 2,-30.5 1.5,-32.5 2,-11 1.5,1 2,1 1.5,1 2,1 1.5,1 2,1.5 1.5,1 2,1 1.5,1.5 2,1 1.5,1.5 2,1.5 1.5,1.5 2,1.5 1.5,1.5 1.5,1.5 2,1.5 1.5,2 2,1.5 1.5,2 2,1.5 1.5,2 2,2 1.5,1.5 2,2 1.5,2.5 2,2 1.5,2 2,2 1.5,2.5 2,2 1.5,2.5 2,2.5 1.5,2 2,2.5 1.5,2.5 2,2.5 1.5,2.5 1.5,3 2,2.5 1.5,3 2,2.5 1.5,3 2,2.5 1.5,3 2,3 1.5,3 2,3 1.5,3 2,3.5 1.5,3 2,3 1.5,3 2,3.5 1.5,3 2,3 1.5,3 2,3 1.5,3 2,1.5 1.5,0.5 1.5,0.5 2,1.5 1.5,2 2,2.5 1.5,2 2,3 1.5,3.5 2,4.5 1.5,4.5 2,5 1.5,6 2,6.5 1.5,6.5 2,7.5 1.5,8 2,10 1.5,16 2,14.5 1.5,13.5 2,12.5 1.5,10.5 2,9.5 1.5,7.5 1.5,6.5 2,5.5 1.5,3.5 2,2.5 1.5,0.5 h 2 l 1.5,-1 2,-3 1.5,-4 2,-4.5 1.5,-4.5 2,-5 1.5,-5 2,-5.5 1.5,-5.5 2,-5.5 1.5,-5.5 2,-6 1.5,-6 2,-6 1.5,-6.5 2,-6.5 1.5,-7 1.5,-6.5 2,-7.5 1.5,-7 2,-7.5 1.5,-7.5 2,-7.5"
         style="fill:none;stroke:#9400d4;stroke-width:2.5;stroke-linecap:butt;stroke-linejoin:miter;stroke-miterlimit:3.8;stroke-dasharray:none;stroke-opacity:1"
         id="path176" /><path
         d="m 2215.5,1069.5 1.5,-8 2,-8 1.5,-8.5 2,-9.5 1.5,-10 2,-11 1.5,-8.5 2,-0.5 h 1.5 l 2,-0.5 1.5,-0.5 2,-0.5 1.5,-0.5 2,-1 1.5,-0.5 2,-0.5 1.5,-1 1.5,-1 2,-1 1.5,-0.5 2,-1.5 1.5,-1 2,-1 1.5,-1.5 2,-1 1.5,-1.5 2,-1.5 1.5,-1 2,-1.5 1.5,-2 2,-1.5 1.5,-1.5 2,-2 1.5,-1.5 2,-2 1.5,-2 2,-2.5 1.5,-2 2,-2.5 1.5,-2.5 1.5,-2 2,-1.5 1.5,-2 2,-2 1.5,-2 2,-2 1.5,-2.5 2,-2 1.5,-2.5 2,-2 1.5,-2.5 2,-2.5 1.5,-2.5 2,-3 1.5,-2.5 2,-3 1.5,-3 2,-3 1.5,-3 2,-2.5 1.5,-3 2,-3 1.5,-3 1.5,4 2,17 1.5,17 2,16.5 1.5,16 2,16 1.5,15.5 2,15 1.5,15 2,14.5 1.5,14.5 2,14 1.5,13.5 2,13 1.5,13 2,12.5 1.5,5.5 2,-21.5 1.5,-24 2,-23.5 1.5,-23 2,-23 1.5,-22.5 1.5,-22 2,-22 1.5,-21.5 2,-21 1.5,-19 2,-17 1.5,-14 2,-11.5 1.5,-8.5 2,-16 1.5,-52.5 2,-49.5 1.5,-41 2,-32.5 1.5,-23.5 2,-15 1.5,-7.5 2,-6 1.5,-6 2,-5.5 1.5,-6 2,-5.5 1.5,-6 1.5,-5.5 2,-5.5 1.5,-5.5 2,-5.5 1.5,-5.5 2,-5 1.5,-5.5 2,-5.5 1.5,-5 2,-5 1.5,-5.5 2,-5 1.5,-5 2,-5 1.5,-4.5 2,-5 1.5,-5 2,-4.5 1.5,-5 2,-4.5 1.5,-4.5 2,-4.5 1.5,-5 1.5,-4 2,-4.5 1.5,-4.5 2,-4.5 1.5,-4 2,-4.5 1.5,-4 2,-4 1.5,-4 2,-4 1.5,-1.5 h 2 1.5 l 2,0.5 1.5,1 2,1 1.5,0.5 2,0.5 1.5,0.5 h 2 1.5 l 2,-0.5 h 1.5 l 1.5,-1 2,-0.5 1.5,-1 2,-1.5 1.5,-1 2,-2 1.5,-1.5 2,-2 1.5,-2 2,-2.5 1.5,-2.5 2,-2.5 1.5,-3 2,-3 1.5,-3.5 2,-3.5 1.5,-3.5 2,-4 1.5,-4 2,-4 1.5,-4.5 2,-4.5 1.5,-5 1.5,-5 2,-5 1.5,-5.5 2,-5.5 1.5,-5.5 2,-6 1.5,-6 2,-6.5 1.5,-6.5 2,-6.5 1.5,-7 2,-7 1.5,-7.5 2,-7.5 1.5,-7.5 2,-7 1.5,-2.5 2,-1.5 1.5,-2 2,-1.5 1.5,-2 2,-1.5 1.5,-1.5 2,-1.5 1.5,-1 1.5,-1.5 2,-1.5 1.5,-1 2,-1 1.5,-1 2,-1 1.5,-1 2,-1 1.5,-0.5 2,-1 1.5,-0.5 2,-0.5 1.5,-0.5 2,-0.5 1.5,-0.5 2,-0.5 h 1.5 l 2,-0.5 h 1.5 2 1.5 2 1.5 1.5 2 1.5 2 1.5 2 1.5 2 1.5 2 1.5 2 1.5 2 1.5 2 1.5 2 1.5 2 1.5 2 1.5"
         style="fill:none;stroke:#9400d4;stroke-width:2.5;stroke-linecap:butt;stroke-linejoin:miter;stroke-miterlimit:3.8;stroke-dasharray:none;stroke-opacity:1"
         id="path178" /><path
         d="m 2648.5,224 h 66 l 2,0.5 h 1.5 l 2,1 1.5,0.5 2,1 1.5,1 2,1.5 1.5,1 1.5,2 2,1.5 1.5,2 2,1.5 1.5,2 2,2 1.5,1.5 2,2 1.5,2 2,2 1.5,2 2,2 1.5,2 2,2 1.5,2 2,2 1.5,2.5 2,2 1.5,2 2,2.5 1.5,2 2,2.5 1.5,2 1.5,2.5 2,2.5 1.5,2.5 2,2 1.5,2.5 2,2.5 1.5,2.5 2,2.5 1.5,2.5 2,2.5 1.5,3 2,2.5 1.5,2.5 2,3 1.5,2.5 2,2.5 1.5,3 2,3 1.5,2.5 2,3 1.5,3 2,2.5 1.5,3 1.5,3 2,3 1.5,3 2,3 1.5,3 2,3 1.5,3.5 2,3 1.5,3.5 2,3.5 1.5,3.5 2,3.5 1.5,3.5 2,4 1.5,4 2,4 1.5,4 2,4 1.5,4 2,4.5 1.5,4.5 2,4.5 1.5,4.5 1.5,4.5 2,5 1.5,4.5 2,5 1.5,5 2,5 1.5,5 2,5.5 1.5,5.5 2,5 1.5,5.5 2,6 1.5,5.5 2,6 1.5,7.5 2,8 1.5,8 2,8 1.5,8.5 2,8.5 1.5,9 2,9 1.5,9 1.5,9.5 2,9.5 1.5,9.5 2,10 1.5,10 2,10 1.5,10.5 2,11 1.5,10.5 2,11 1.5,11.5 2,11.5 1.5,11.5 2,11.5 1.5,12 2,12.5 1.5,12 2,12.5 1.5,13 2,13 1.5,13 2,13 1.5,13.5 1.5,14 2,13.5 1.5,14 2,14.5 1.5,14.5 2,14.5 1.5,14.5 2,15 1.5,15 2,-18.5 1.5,-41 2,-31.5 1.5,-1.5 2,9 1.5,9.5 2,11 1.5,12.5 2,14 1.5,15 2,15.5 1.5,16 2,17.5 1.5,17.5 1.5,19 2,19.5 1.5,20 2,21 1.5,22 2,22.5 1.5,23.5 2,24 1.5,25 2,25.5 1.5,26.5 2,27.5 1.5,28 2,28.5 1.5,30 2,31.5 1.5,52.5 2,51 1.5,42.5 2,34 1.5,26 2,18 1.5,9.5 1.5,1 2,-7 1.5,-15 2,-23.5 1.5,-23 2,-1.5 1.5,-3 2,-5.5 1.5,-8.5 2,-12 1.5,-14.5 2,-17.5 1.5,-29 2,-137.5 1.5,-22.5 2,-16 1.5,-15.5 2,-15.5 1.5,-15.5 2,-15.5 1.5,-15 2,-15.5 1.5,-15 1.5,-15 2,-15 1.5,-15 2,-14.5 1.5,-14 2,-14.5 1.5,-14 2,-13.5 1.5,-14 2,-13.5 1.5,-13 2,-13 1.5,-13 2,-12.5 1.5,-12 2,-12.5 1.5,-11.5 2,-12 1.5,-11.5"
         style="fill:none;stroke:#9400d4;stroke-width:2.5;stroke-linecap:butt;stroke-linejoin:miter;stroke-miterlimit:3.8;stroke-dasharray:none;stroke-opacity:1"
         id="path180" /><path
         d="m 3081.5,937 2,-11 1.5,-11 2,-11 1.5,-10.5 1.5,-10.5 2,-10.5 1.5,-10 2,-9.5 1.5,-9.5 2,-9.5 1.5,-9 2,-9 1.5,-9 2,-11.5 1.5,-20.5 2,-20 1.5,-19.5 2,-19 1.5,-18 2,-17 1.5,-16.5 2,-15.5 1.5,-14.5 2,-14 1.5,-13.5 2,-12.5 1.5,-11.5 1.5,-11 2,-10 1.5,-9 2,-6.5 1.5,-5.5 2,-4.5 h 1.5 l 2,3 1.5,3.5 2,3 1.5,3 2,7 1.5,13 2,18.5 1.5,20 2,20.5 1.5,20.5 2,20.5 1.5,21 2,21 1.5,21 2,21 1.5,21.5 1.5,21.5 2,22 1.5,21.5 2,22 1.5,22.5 2,22 1.5,22.5 2,22.5 1.5,22.5 2,23 1.5,23 2,23.5 1.5,30.5 2,43 1.5,42.5 2,41.5 1.5,40.5 2,39 1.5,38 2,37 1.5,35.5 2,35 1.5,33 1.5,32.5 2,31 1.5,30 2,29 1.5,28 2,28 1.5,28 2,28 1.5,27.5 2,27.5 1.5,27.5 2,27.5 1.5,27 2,27 1.5,27 2,59.5 1.5,498 2,-733.5 1.5,-181 2,-28 1.5,-28.5 2,-28.5 1.5,-28.5 1.5,-28.5 2,-22 1.5,-20 2,-19 1.5,-18.5 2,-17.5 1.5,-17 2,-16 1.5,-15 2,-14.5 1.5,-13.5 2,-13 1.5,-12 2,-11 1.5,-10.5 2,-9.5 1.5,-9 2,-8 1.5,-9 2,-8 1.5,-4 2,-2 1.5,-2 1.5,-1.5 2,-2 1.5,-1.5 2,-2 1.5,-1.5 2,-2 1.5,-1.5 2,-2 1.5,-1.5 2,-2 1.5,-1.5 2,-1.5 1.5,-2 2,-1.5 1.5,-1.5 2,-1.5 1.5,-1.5 2,-2 1.5,-1.5 2,-1.5 1.5,-1.5 2,-1.5 1.5,-1 1.5,-1 2,-0.5 h 1.5 2 l 1.5,0.5 2,0.5 1.5,-1 2,-0.5 1.5,-1 2,-0.5 1.5,-0.5 2,-1 1.5,-0.5 2,-1.5 1.5,-3 2,-4 1.5,-6 2,-7 1.5,-8 2,-10 1.5,-11 2,-12.5 1.5,-14 1.5,-15.5 2,-16.5 1.5,-18 2,-19.5 1.5,-20.5 2,-22.5 1.5,-23.5 2,-24.5 1.5,-24.5 2,-19 1.5,-17 2,-16.5 1.5,-16.5 2,-16.5 1.5,-16 2,-15.5 1.5,-14.5 2,-10 1.5,-8.5 2,-8.5 1.5,-7.5 2,-7.5 1.5,-7 1.5,-6.5 2,-6 1.5,-5.5 2,-5 1.5,-4.5 2,-4.5 1.5,-4 2,-3 1.5,-3 2,-2.5 1.5,-2 2,-1.5 1.5,-1.5 2,-0.5 1.5,-0.5 2,0.5 1.5,0.5 2,1 1.5,1 2,1 1.5,1 2,1 1.5,1 1.5,1 2,1 1.5,1 2,1 1.5,1 2,1 1.5,1 2,0.5 1.5,1 2,1 1.5,1 2,1 1.5,0.5 2,1 h 0.5"
         style="fill:none;stroke:#9400d4;stroke-width:2.5;stroke-linecap:butt;stroke-linejoin:miter;stroke-miterlimit:3.8;stroke-dasharray:none;stroke-opacity:1"
         id="path182" /><path
         d="M 343,2449.5 V 224 h 3130.5 v 2225.5 z"
         style="fill:none;stroke:#000000;stroke-width:5;stroke-linecap:butt;stroke-linejoin:miter;stroke-miterlimit:3.8;stroke-dasharray:none;stroke-opacity:1"
         id="path184" /></g></g></svg>
