<?xml version="1.0" encoding="UTF-8" standalone="no"?>
<!-- Created with Inkscape (http://www.inkscape.org/) -->

<svg
   version="1.1"
   id="svg2"
   xml:space="preserve"
   width="480"
   height="336"
   viewBox="0 0 480 336"
   sodipodi:docname="full.svg"
   inkscape:version="1.1.2 (b8e25be833, 2022-02-05)"
   xmlns:inkscape="http://www.inkscape.org/namespaces/inkscape"
   xmlns:sodipodi="http://sodipodi.sourceforge.net/DTD/sodipodi-0.dtd"
   xmlns="http://www.w3.org/2000/svg"
   xmlns:svg="http://www.w3.org/2000/svg"><defs
     id="defs6" /><sodipodi:namedview
     id="namedview4"
     pagecolor="#ffffff"
     bordercolor="#666666"
     borderopacity="1.0"
     inkscape:pageshadow="2"
     inkscape:pageopacity="0.0"
     inkscape:pagecheckerboard="0"
     showgrid="false"
     inkscape:zoom="2.5922619"
     inkscape:cx="239.94489"
     inkscape:cy="168.19288"
     inkscape:window-width="1858"
     inkscape:window-height="1057"
     inkscape:window-x="-8"
     inkscape:window-y="-8"
     inkscape:window-maximized="1"
     inkscape:current-layer="g8" /><g
     id="g8"
     inkscape:groupmode="layer"
     inkscape:label="ink_ext_XXXXXX"
     transform="matrix(1.3333333,0,0,-1.3333333,0,336)"><g
       id="g10"
       transform="scale(0.1)"><path
         d="m 387,288 h 31.5 m 3019,0 H 3406"
         style="fill:none;stroke:#000000;stroke-width:2.5;stroke-linecap:butt;stroke-linejoin:miter;stroke-miterlimit:3.8;stroke-dasharray:none;stroke-opacity:1"
         id="path12" /><g
         id="g14"
         transform="scale(10)"><text
           transform="matrix(1,0,0,-1,18.0363,25.8)"
           style="font-variant:normal;font-weight:normal;font-size:9px;font-family:Helvetica;-inkscape-font-specification:Helvetica;writing-mode:lr-tb;fill:#000000;fill-opacity:1;fill-rule:nonzero;stroke:none"
           id="text18"><tspan
             x="0 5.256 10.26"
             y="0"
             sodipodi:role="line"
             id="tspan16">−20</tspan></text></g><path
         d="m 387,716.5 h 31.5 m 3019,0 H 3406"
         style="fill:none;stroke:#000000;stroke-width:2.5;stroke-linecap:butt;stroke-linejoin:miter;stroke-miterlimit:3.8;stroke-dasharray:none;stroke-opacity:1"
         id="path20" /><g
         id="g22"
         transform="scale(10)"><text
           transform="matrix(1,0,0,-1,18.0363,68.65)"
           style="font-variant:normal;font-weight:normal;font-size:9px;font-family:Helvetica;-inkscape-font-specification:Helvetica;writing-mode:lr-tb;fill:#000000;fill-opacity:1;fill-rule:nonzero;stroke:none"
           id="text26"><tspan
             x="0 5.256 10.26"
             y="0"
             sodipodi:role="line"
             id="tspan24">−15</tspan></text></g><path
         d="m 387,1144.5 h 31.5 m 3019,0 H 3406"
         style="fill:none;stroke:#000000;stroke-width:2.5;stroke-linecap:butt;stroke-linejoin:miter;stroke-miterlimit:3.8;stroke-dasharray:none;stroke-opacity:1"
         id="path28" /><g
         id="g30"
         transform="scale(10)"><text
           transform="matrix(1,0,0,-1,18.0363,111.45)"
           style="font-variant:normal;font-weight:normal;font-size:9px;font-family:Helvetica;-inkscape-font-specification:Helvetica;writing-mode:lr-tb;fill:#000000;fill-opacity:1;fill-rule:nonzero;stroke:none"
           id="text34"><tspan
             x="0 5.256 10.26"
             y="0"
             sodipodi:role="line"
             id="tspan32">−10</tspan></text></g><path
         d="m 387,1573 h 31.5 m 3019,0 H 3406"
         style="fill:none;stroke:#000000;stroke-width:2.5;stroke-linecap:butt;stroke-linejoin:miter;stroke-miterlimit:3.8;stroke-dasharray:none;stroke-opacity:1"
         id="path36" /><g
         id="g38"
         transform="scale(10)"><text
           transform="matrix(1,0,0,-1,23.0402,154.3)"
           style="font-variant:normal;font-weight:normal;font-size:9px;font-family:Helvetica;-inkscape-font-specification:Helvetica;writing-mode:lr-tb;fill:#000000;fill-opacity:1;fill-rule:nonzero;stroke:none"
           id="text42"><tspan
             x="0 5.256"
             y="0"
             sodipodi:role="line"
             id="tspan40">−5</tspan></text></g><path
         d="m 387,2001 h 31.5 m 3019,0 H 3406"
         style="fill:none;stroke:#000000;stroke-width:2.5;stroke-linecap:butt;stroke-linejoin:miter;stroke-miterlimit:3.8;stroke-dasharray:none;stroke-opacity:1"
         id="path44" /><g
         id="g46"
         transform="scale(10)"><text
           transform="matrix(1,0,0,-1,28.2961,197.1)"
           style="font-variant:normal;font-weight:normal;font-size:9px;font-family:Helvetica;-inkscape-font-specification:Helvetica;writing-mode:lr-tb;fill:#000000;fill-opacity:1;fill-rule:nonzero;stroke:none"
           id="text50"><tspan
             x="0"
             y="0"
             id="tspan48">0</tspan></text></g><path
         d="m 387,2429.5 h 31.5 m 3019,0 H 3406"
         style="fill:none;stroke:#000000;stroke-width:2.5;stroke-linecap:butt;stroke-linejoin:miter;stroke-miterlimit:3.8;stroke-dasharray:none;stroke-opacity:1"
         id="path52" /><g
         id="g54"
         transform="scale(10)"><text
           transform="matrix(1,0,0,-1,28.2961,239.95)"
           style="font-variant:normal;font-weight:normal;font-size:9px;font-family:Helvetica;-inkscape-font-specification:Helvetica;writing-mode:lr-tb;fill:#000000;fill-opacity:1;fill-rule:nonzero;stroke:none"
           id="text58"><tspan
             x="0"
             y="0"
             id="tspan56">5</tspan></text></g><path
         d="m 387,288 v 31.5 m 0,2110 V 2398"
         style="fill:none;stroke:#000000;stroke-width:2.5;stroke-linecap:butt;stroke-linejoin:miter;stroke-miterlimit:3.8;stroke-dasharray:none;stroke-opacity:1"
         id="path60" /><g
         id="g62"
         transform="scale(10)"><text
           transform="matrix(1,0,0,-1,37.4493,16.8)"
           style="font-variant:normal;font-weight:normal;font-size:9px;font-family:Helvetica;-inkscape-font-specification:Helvetica;writing-mode:lr-tb;fill:#000000;fill-opacity:1;fill-rule:nonzero;stroke:none"
           id="text66"><tspan
             x="0"
             y="0"
             id="tspan64">0</tspan></text></g><path
         d="m 895.5,288 v 31.5 m 0,2110 V 2398"
         style="fill:none;stroke:#000000;stroke-width:2.5;stroke-linecap:butt;stroke-linejoin:miter;stroke-miterlimit:3.8;stroke-dasharray:none;stroke-opacity:1"
         id="path68" /><g
         id="g70"
         transform="scale(10)"><text
           transform="matrix(1,0,0,-1,85.7973,16.8)"
           style="font-variant:normal;font-weight:normal;font-size:9px;font-family:Helvetica;-inkscape-font-specification:Helvetica;writing-mode:lr-tb;fill:#000000;fill-opacity:1;fill-rule:nonzero;stroke:none"
           id="text74"><tspan
             x="0 5.0040002"
             y="0"
             sodipodi:role="line"
             id="tspan72">10</tspan></text></g><path
         d="m 1404,288 v 31.5 m 0,2110 V 2398"
         style="fill:none;stroke:#000000;stroke-width:2.5;stroke-linecap:butt;stroke-linejoin:miter;stroke-miterlimit:3.8;stroke-dasharray:none;stroke-opacity:1"
         id="path76" /><g
         id="g78"
         transform="scale(10)"><text
           transform="matrix(1,0,0,-1,136.647,16.8)"
           style="font-variant:normal;font-weight:normal;font-size:9px;font-family:Helvetica;-inkscape-font-specification:Helvetica;writing-mode:lr-tb;fill:#000000;fill-opacity:1;fill-rule:nonzero;stroke:none"
           id="text82"><tspan
             x="0 5.0040002"
             y="0"
             sodipodi:role="line"
             id="tspan80">20</tspan></text></g><path
         d="m 1912.5,288 v 31.5 m 0,2110 V 2398"
         style="fill:none;stroke:#000000;stroke-width:2.5;stroke-linecap:butt;stroke-linejoin:miter;stroke-miterlimit:3.8;stroke-dasharray:none;stroke-opacity:1"
         id="path84" /><g
         id="g86"
         transform="scale(10)"><text
           transform="matrix(1,0,0,-1,187.497,16.8)"
           style="font-variant:normal;font-weight:normal;font-size:9px;font-family:Helvetica;-inkscape-font-specification:Helvetica;writing-mode:lr-tb;fill:#000000;fill-opacity:1;fill-rule:nonzero;stroke:none"
           id="text90"><tspan
             x="0 5.0040002"
             y="0"
             sodipodi:role="line"
             id="tspan88">30</tspan></text></g><path
         d="m 2420.5,288 v 31.5 m 0,2110 V 2398"
         style="fill:none;stroke:#000000;stroke-width:2.5;stroke-linecap:butt;stroke-linejoin:miter;stroke-miterlimit:3.8;stroke-dasharray:none;stroke-opacity:1"
         id="path92" /><g
         id="g94"
         transform="scale(10)"><text
           transform="matrix(1,0,0,-1,238.297,16.8)"
           style="font-variant:normal;font-weight:normal;font-size:9px;font-family:Helvetica;-inkscape-font-specification:Helvetica;writing-mode:lr-tb;fill:#000000;fill-opacity:1;fill-rule:nonzero;stroke:none"
           id="text98"><tspan
             x="0 5.0040002"
             y="0"
             sodipodi:role="line"
             id="tspan96">40</tspan></text></g><path
         d="m 2929,288 v 31.5 m 0,2110 V 2398"
         style="fill:none;stroke:#000000;stroke-width:2.5;stroke-linecap:butt;stroke-linejoin:miter;stroke-miterlimit:3.8;stroke-dasharray:none;stroke-opacity:1"
         id="path100" /><g
         id="g102"
         transform="scale(10)"><text
           transform="matrix(1,0,0,-1,289.147,16.8)"
           style="font-variant:normal;font-weight:normal;font-size:9px;font-family:Helvetica;-inkscape-font-specification:Helvetica;writing-mode:lr-tb;fill:#000000;fill-opacity:1;fill-rule:nonzero;stroke:none"
           id="text106"><tspan
             x="0 5.0040002"
             y="0"
             sodipodi:role="line"
             id="tspan104">50</tspan></text></g><path
         d="m 3437.5,288 v 31.5 m 0,2110 V 2398"
         style="fill:none;stroke:#000000;stroke-width:2.5;stroke-linecap:butt;stroke-linejoin:miter;stroke-miterlimit:3.8;stroke-dasharray:none;stroke-opacity:1"
         id="path108" /><g
         id="g110"
         transform="scale(10)"><text
           transform="matrix(1,0,0,-1,339.997,16.8)"
           style="font-variant:normal;font-weight:normal;font-size:9px;font-family:Helvetica;-inkscape-font-specification:Helvetica;writing-mode:lr-tb;fill:#000000;fill-opacity:1;fill-rule:nonzero;stroke:none"
           id="text114"><tspan
             x="0 5.0040002"
             y="0"
             sodipodi:role="line"
             id="tspan112">60</tspan></text></g><path
         d="M 387,2429.5 V 288 h 3050.5 v 2141.5 z"
         style="fill:none;stroke:#000000;stroke-width:5;stroke-linecap:butt;stroke-linejoin:miter;stroke-miterlimit:3.8;stroke-dasharray:none;stroke-opacity:1"
         id="path116" /><g
         id="g118"
         transform="scale(10)"><text
           transform="matrix(1,0,0,-1,167.45,214.65)"
           style="font-variant:normal;font-weight:normal;font-size:9px;font-family:Symbol;-inkscape-font-specification:Symbol;writing-mode:lr-tb;fill:#000000;fill-opacity:1;fill-rule:nonzero;stroke:none"
           id="text122"><tspan
             x="0"
             y="0"
             id="tspan120">φ</tspan></text><text
           transform="matrix(1,0,0,-1,174.64106,214.65)"
           style="font-variant:normal;font-weight:normal;font-size:9px;font-family:Helvetica;-inkscape-font-specification:Helvetica;writing-mode:lr-tb;fill:#000000;fill-opacity:1;fill-rule:nonzero;stroke:none"
           id="text126"><tspan
             x="0 5.256 7.7579999 12.762 15.264 20.268 25.271999 27.774 32.778"
             y="0"
             sodipodi:role="line"
             id="tspan124">= 4.09 eV</tspan></text></g><path
         d="m 1670.5,2291.5 -16,60.5 -16,-60.5"
         style="fill:none;stroke:#000000;stroke-width:2.5;stroke-linecap:butt;stroke-linejoin:miter;stroke-miterlimit:3.8;stroke-dasharray:none;stroke-opacity:1"
         id="path128" /><path
         d="m 1638.5,2062.5 16,-60.5 16,60.5 m -16,-60.5 v 350"
         style="fill:none;stroke:#000000;stroke-width:2.5;stroke-linecap:butt;stroke-linejoin:miter;stroke-miterlimit:3.8;stroke-dasharray:none;stroke-opacity:1"
         id="path130" /><g
         id="g132"
         transform="scale(10)"><text
           transform="matrix(0,1,1,0,11.55,112.343)"
           style="font-variant:normal;font-weight:normal;font-size:9px;font-family:Helvetica;-inkscape-font-specification:Helvetica;writing-mode:lr-tb;fill:#000000;fill-opacity:1;fill-rule:nonzero;stroke:none"
           id="text136"><tspan
             x="0 5.0040002 10.008 15.012 18.009001 23.013 27.513 30.014999 33.012001 38.015999 44.019001"
             y="0"
             sodipodi:role="line"
             id="tspan134">energy (eV)</tspan></text><text
           transform="matrix(1,0,0,-1,133.3,3.3)"
           style="font-variant:normal;font-weight:normal;font-size:9px;font-family:Helvetica;-inkscape-font-specification:Helvetica;writing-mode:lr-tb;fill:#000000;fill-opacity:1;fill-rule:nonzero;stroke:none"
           id="text140"><tspan
             x="0 5.0040002 7.0019999 11.502 14.004 19.007999 24.011999 28.511999 33.515999 36.018002 41.021999 43.02 48.023998 53.028 58.032001 60.534 63.035999 68.040001 73.043999 75.545998 80.045998 85.302002 90.306 94.806 96.804001 101.304 103.806 106.803 112.806"
             y="0"
             sodipodi:role="line"
             id="tspan138">distance along the z−axis (Å)</tspan></text></g><path
         d="m 395,393 8,90 8,260.5 8,379 7.5,379.5 8,269 8,136 8,54.5 8,-0.5 8,-56.5 8,-139.5 8,-275.5 8,-383 7.5,-378 8,-257 8,-84.5 8,96.5 8,267.5 8,383 8,380 8,267 8,134 7.5,54 8,-2.5 8,-59.5 8,-146 8,-283 8,-387.5 8,-377 8,-251.5 8,-77.5 7.5,104.5 8,275 8,386.5 8,377 8,260.5 8,127.5 8,49.5 8,-7 8,-64 7.5,-150 8,-286.5 8,-385.5 8,-370 8,-241.5 8,-68 8,111.5 8,279 8,388 7.5,379 8,271 8,157.5 8,106.5 8,83.5 8,57.5 8,41 8,27 8,19 7.5,12.5 8,9 8,5.5 8,4 8,2 8,2 8,1 8,1 7.5,0.5 h 8 l 8,0.5 h 8 8 8 l 8,0.5 8,-0.5 8,0.5 7.5,-0.5 8,0.5 h 8 8 8 8 8 8 8 7.5 8 8 8 8 8 8 8 8 7.5 8 8 8 8 8 8 8 8 7.5 8 8 8 8 8 8 8 8 7.5 8 8 8 8 8 8 8 8 7.5 8 8 8 8 8 8 8 8 7.5 8 8 8 8 8 8 8 8 7.5 8 8 8 8 8 8 8 8 7.5 8 8 8 8 8 8 8 8 7.5 8 8 8 8 8 8 8 8 7.5 8 8 8 8 8 8 8 8 7.5 8 8 8 8 8 8 8 8 7.5 8 8 8 8 8 8 8 8 7.5 8 8 8 8 8 8 8 7.5 8 8 8 8 8 8 8 8 7.5 8 8 8 8 8 8 8 8 7.5 8 8 8 8 8 8 8 8 7.5 8 8 8 8 8 8 8 8 7.5 8 8 8 8 8 8 8 8 l 7.5,-0.5 8,0.5 8,-0.5 8,0.5 8,-0.5"
         style="fill:none;stroke:#9400d4;stroke-width:2.5;stroke-linecap:butt;stroke-linejoin:miter;stroke-miterlimit:3.8;stroke-dasharray:none;stroke-opacity:1"
         id="path142" /><path
         d="m 2373,2351 h 24 l 8,-0.5 h 7.5 l 8,-0.5 8,-1 8,-1 8,-2 8,-2 8,-4 8,-5.5 8,-9 7.5,-12.5 8,-19 8,-27 8,-41 8,-57.5 8,-83.5 8,-106.5 8,-157.5 8,-271 7.5,-379 8,-388 8,-279 8,-111.5 8,68 8,241.5 8,370 8,385.5 8,286.5 7.5,150 8,64 8,7 8,-49.5 8,-127.5 8,-260.5 8,-377 8,-386.5 8,-275 7.5,-104.5 8,77.5 8,251.5 8,377 8,387.5 8,283 8,146 8,59.5 8,2.5 7.5,-54 8,-134 8,-267 8,-380 8,-383 8,-267.5 8,-96.5 8,84.5 8,257 7.5,378 8,383 8,275.5 8,139.5 8,56.5 8,0.5 8,-54.5 8,-136 8,-269 7.5,-379.5 8,-379 8,-260.5"
         style="fill:none;stroke:#9400d4;stroke-width:2.5;stroke-linecap:butt;stroke-linejoin:miter;stroke-miterlimit:3.8;stroke-dasharray:none;stroke-opacity:1"
         id="path144" /><path
         d="M 387,2001.5 H 2929"
         style="fill:none;stroke:#000000;stroke-width:1.25;stroke-linecap:butt;stroke-linejoin:miter;stroke-miterlimit:3.8;stroke-dasharray:5, 10;stroke-dashoffset:0;stroke-opacity:1"
         id="path146" /><path
         d="M 387,2429.5 V 288 h 3050.5 v 2141.5 z"
         style="fill:none;stroke:#000000;stroke-width:5;stroke-linecap:butt;stroke-linejoin:miter;stroke-miterlimit:3.8;stroke-dasharray:none;stroke-opacity:1"
         id="path148" /></g></g></svg>
