<?xml version="1.0" encoding="UTF-8" standalone="no"?>
<!-- Created with Inkscape (http://www.inkscape.org/) -->

<svg
   version="1.1"
   id="svg2"
   xml:space="preserve"
   width="480"
   height="336"
   viewBox="0 0 480 336"
   sodipodi:docname="half.svg"
   inkscape:version="1.1.2 (b8e25be833, 2022-02-05)"
   xmlns:inkscape="http://www.inkscape.org/namespaces/inkscape"
   xmlns:sodipodi="http://sodipodi.sourceforge.net/DTD/sodipodi-0.dtd"
   xmlns="http://www.w3.org/2000/svg"
   xmlns:svg="http://www.w3.org/2000/svg"><defs
     id="defs6" /><sodipodi:namedview
     id="namedview4"
     pagecolor="#ffffff"
     bordercolor="#666666"
     borderopacity="1.0"
     inkscape:pageshadow="2"
     inkscape:pageopacity="0.0"
     inkscape:pagecheckerboard="0"
     showgrid="false"
     inkscape:zoom="2.5922619"
     inkscape:cx="9.6440873"
     inkscape:cy="168.19288"
     inkscape:window-width="1858"
     inkscape:window-height="1057"
     inkscape:window-x="-8"
     inkscape:window-y="-8"
     inkscape:window-maximized="1"
     inkscape:current-layer="g8" /><g
     id="g8"
     inkscape:groupmode="layer"
     inkscape:label="ink_ext_XXXXXX"
     transform="matrix(1.3333333,0,0,-1.3333333,0,336)"><g
       id="g10"
       transform="scale(0.1)"><path
         d="m 387,288 h 31.5 m 3019,0 H 3406"
         style="fill:none;stroke:#000000;stroke-width:2.5;stroke-linecap:butt;stroke-linejoin:miter;stroke-miterlimit:3.8;stroke-dasharray:none;stroke-opacity:1"
         id="path12" /><g
         id="g14"
         transform="scale(10)"><text
           transform="matrix(1,0,0,-1,18.0363,25.8)"
           style="font-variant:normal;font-weight:normal;font-size:9px;font-family:Helvetica;-inkscape-font-specification:Helvetica;writing-mode:lr-tb;fill:#000000;fill-opacity:1;fill-rule:nonzero;stroke:none"
           id="text18"><tspan
             x="0 5.256 10.26"
             y="0"
             sodipodi:role="line"
             id="tspan16">−20</tspan></text></g><path
         d="m 387,716.5 h 31.5 m 3019,0 H 3406"
         style="fill:none;stroke:#000000;stroke-width:2.5;stroke-linecap:butt;stroke-linejoin:miter;stroke-miterlimit:3.8;stroke-dasharray:none;stroke-opacity:1"
         id="path20" /><g
         id="g22"
         transform="scale(10)"><text
           transform="matrix(1,0,0,-1,18.0363,68.65)"
           style="font-variant:normal;font-weight:normal;font-size:9px;font-family:Helvetica;-inkscape-font-specification:Helvetica;writing-mode:lr-tb;fill:#000000;fill-opacity:1;fill-rule:nonzero;stroke:none"
           id="text26"><tspan
             x="0 5.256 10.26"
             y="0"
             sodipodi:role="line"
             id="tspan24">−15</tspan></text></g><path
         d="m 387,1144.5 h 31.5 m 3019,0 H 3406"
         style="fill:none;stroke:#000000;stroke-width:2.5;stroke-linecap:butt;stroke-linejoin:miter;stroke-miterlimit:3.8;stroke-dasharray:none;stroke-opacity:1"
         id="path28" /><g
         id="g30"
         transform="scale(10)"><text
           transform="matrix(1,0,0,-1,18.0363,111.45)"
           style="font-variant:normal;font-weight:normal;font-size:9px;font-family:Helvetica;-inkscape-font-specification:Helvetica;writing-mode:lr-tb;fill:#000000;fill-opacity:1;fill-rule:nonzero;stroke:none"
           id="text34"><tspan
             x="0 5.256 10.26"
             y="0"
             sodipodi:role="line"
             id="tspan32">−10</tspan></text></g><path
         d="m 387,1573 h 31.5 m 3019,0 H 3406"
         style="fill:none;stroke:#000000;stroke-width:2.5;stroke-linecap:butt;stroke-linejoin:miter;stroke-miterlimit:3.8;stroke-dasharray:none;stroke-opacity:1"
         id="path36" /><g
         id="g38"
         transform="scale(10)"><text
           transform="matrix(1,0,0,-1,23.0402,154.3)"
           style="font-variant:normal;font-weight:normal;font-size:9px;font-family:Helvetica;-inkscape-font-specification:Helvetica;writing-mode:lr-tb;fill:#000000;fill-opacity:1;fill-rule:nonzero;stroke:none"
           id="text42"><tspan
             x="0 5.256"
             y="0"
             sodipodi:role="line"
             id="tspan40">−5</tspan></text></g><path
         d="m 387,2001 h 31.5 m 3019,0 H 3406"
         style="fill:none;stroke:#000000;stroke-width:2.5;stroke-linecap:butt;stroke-linejoin:miter;stroke-miterlimit:3.8;stroke-dasharray:none;stroke-opacity:1"
         id="path44" /><g
         id="g46"
         transform="scale(10)"><text
           transform="matrix(1,0,0,-1,28.2961,197.1)"
           style="font-variant:normal;font-weight:normal;font-size:9px;font-family:Helvetica;-inkscape-font-specification:Helvetica;writing-mode:lr-tb;fill:#000000;fill-opacity:1;fill-rule:nonzero;stroke:none"
           id="text50"><tspan
             x="0"
             y="0"
             id="tspan48">0</tspan></text></g><path
         d="m 387,2429.5 h 31.5 m 3019,0 H 3406"
         style="fill:none;stroke:#000000;stroke-width:2.5;stroke-linecap:butt;stroke-linejoin:miter;stroke-miterlimit:3.8;stroke-dasharray:none;stroke-opacity:1"
         id="path52" /><g
         id="g54"
         transform="scale(10)"><text
           transform="matrix(1,0,0,-1,28.2961,239.95)"
           style="font-variant:normal;font-weight:normal;font-size:9px;font-family:Helvetica;-inkscape-font-specification:Helvetica;writing-mode:lr-tb;fill:#000000;fill-opacity:1;fill-rule:nonzero;stroke:none"
           id="text58"><tspan
             x="0"
             y="0"
             id="tspan56">5</tspan></text></g><path
         d="m 387,288 v 31.5 m 0,2110 V 2398"
         style="fill:none;stroke:#000000;stroke-width:2.5;stroke-linecap:butt;stroke-linejoin:miter;stroke-miterlimit:3.8;stroke-dasharray:none;stroke-opacity:1"
         id="path60" /><g
         id="g62"
         transform="scale(10)"><text
           transform="matrix(1,0,0,-1,37.4493,16.8)"
           style="font-variant:normal;font-weight:normal;font-size:9px;font-family:Helvetica;-inkscape-font-specification:Helvetica;writing-mode:lr-tb;fill:#000000;fill-opacity:1;fill-rule:nonzero;stroke:none"
           id="text66"><tspan
             x="0"
             y="0"
             id="tspan64">0</tspan></text></g><path
         d="m 895.5,288 v 31.5 m 0,2110 V 2398"
         style="fill:none;stroke:#000000;stroke-width:2.5;stroke-linecap:butt;stroke-linejoin:miter;stroke-miterlimit:3.8;stroke-dasharray:none;stroke-opacity:1"
         id="path68" /><g
         id="g70"
         transform="scale(10)"><text
           transform="matrix(1,0,0,-1,88.2993,16.8)"
           style="font-variant:normal;font-weight:normal;font-size:9px;font-family:Helvetica;-inkscape-font-specification:Helvetica;writing-mode:lr-tb;fill:#000000;fill-opacity:1;fill-rule:nonzero;stroke:none"
           id="text74"><tspan
             x="0"
             y="0"
             id="tspan72">5</tspan></text></g><path
         d="m 1404,288 v 31.5 m 0,2110 V 2398"
         style="fill:none;stroke:#000000;stroke-width:2.5;stroke-linecap:butt;stroke-linejoin:miter;stroke-miterlimit:3.8;stroke-dasharray:none;stroke-opacity:1"
         id="path76" /><g
         id="g78"
         transform="scale(10)"><text
           transform="matrix(1,0,0,-1,136.647,16.8)"
           style="font-variant:normal;font-weight:normal;font-size:9px;font-family:Helvetica;-inkscape-font-specification:Helvetica;writing-mode:lr-tb;fill:#000000;fill-opacity:1;fill-rule:nonzero;stroke:none"
           id="text82"><tspan
             x="0 5.0040002"
             y="0"
             sodipodi:role="line"
             id="tspan80">10</tspan></text></g><path
         d="m 1912.5,288 v 31.5 m 0,2110 V 2398"
         style="fill:none;stroke:#000000;stroke-width:2.5;stroke-linecap:butt;stroke-linejoin:miter;stroke-miterlimit:3.8;stroke-dasharray:none;stroke-opacity:1"
         id="path84" /><g
         id="g86"
         transform="scale(10)"><text
           transform="matrix(1,0,0,-1,187.497,16.8)"
           style="font-variant:normal;font-weight:normal;font-size:9px;font-family:Helvetica;-inkscape-font-specification:Helvetica;writing-mode:lr-tb;fill:#000000;fill-opacity:1;fill-rule:nonzero;stroke:none"
           id="text90"><tspan
             x="0 5.0040002"
             y="0"
             sodipodi:role="line"
             id="tspan88">15</tspan></text></g><path
         d="m 2420.5,288 v 31.5 m 0,2110 V 2398"
         style="fill:none;stroke:#000000;stroke-width:2.5;stroke-linecap:butt;stroke-linejoin:miter;stroke-miterlimit:3.8;stroke-dasharray:none;stroke-opacity:1"
         id="path92" /><g
         id="g94"
         transform="scale(10)"><text
           transform="matrix(1,0,0,-1,238.297,16.8)"
           style="font-variant:normal;font-weight:normal;font-size:9px;font-family:Helvetica;-inkscape-font-specification:Helvetica;writing-mode:lr-tb;fill:#000000;fill-opacity:1;fill-rule:nonzero;stroke:none"
           id="text98"><tspan
             x="0 5.0040002"
             y="0"
             sodipodi:role="line"
             id="tspan96">20</tspan></text></g><path
         d="m 2929,288 v 31.5 m 0,2110 V 2398"
         style="fill:none;stroke:#000000;stroke-width:2.5;stroke-linecap:butt;stroke-linejoin:miter;stroke-miterlimit:3.8;stroke-dasharray:none;stroke-opacity:1"
         id="path100" /><g
         id="g102"
         transform="scale(10)"><text
           transform="matrix(1,0,0,-1,289.147,16.8)"
           style="font-variant:normal;font-weight:normal;font-size:9px;font-family:Helvetica;-inkscape-font-specification:Helvetica;writing-mode:lr-tb;fill:#000000;fill-opacity:1;fill-rule:nonzero;stroke:none"
           id="text106"><tspan
             x="0 5.0040002"
             y="0"
             sodipodi:role="line"
             id="tspan104">25</tspan></text></g><path
         d="m 3437.5,288 v 31.5 m 0,2110 V 2398"
         style="fill:none;stroke:#000000;stroke-width:2.5;stroke-linecap:butt;stroke-linejoin:miter;stroke-miterlimit:3.8;stroke-dasharray:none;stroke-opacity:1"
         id="path108" /><g
         id="g110"
         transform="scale(10)"><text
           transform="matrix(1,0,0,-1,339.997,16.8)"
           style="font-variant:normal;font-weight:normal;font-size:9px;font-family:Helvetica;-inkscape-font-specification:Helvetica;writing-mode:lr-tb;fill:#000000;fill-opacity:1;fill-rule:nonzero;stroke:none"
           id="text114"><tspan
             x="0 5.0040002"
             y="0"
             sodipodi:role="line"
             id="tspan112">30</tspan></text></g><path
         d="M 387,2429.5 V 288 h 3050.5 v 2141.5 z"
         style="fill:none;stroke:#000000;stroke-width:5;stroke-linecap:butt;stroke-linejoin:miter;stroke-miterlimit:3.8;stroke-dasharray:none;stroke-opacity:1"
         id="path116" /><g
         id="g118"
         transform="scale(10)"><text
           transform="matrix(1,0,0,-1,216.75,214.65)"
           style="font-variant:normal;font-weight:normal;font-size:9px;font-family:Symbol;-inkscape-font-specification:Symbol;writing-mode:lr-tb;fill:#000000;fill-opacity:1;fill-rule:nonzero;stroke:none"
           id="text122"><tspan
             x="0"
             y="0"
             id="tspan120">φ</tspan></text><text
           transform="matrix(1,0,0,-1,223.94106,214.65)"
           style="font-variant:normal;font-weight:normal;font-size:9px;font-family:Helvetica;-inkscape-font-specification:Helvetica;writing-mode:lr-tb;fill:#000000;fill-opacity:1;fill-rule:nonzero;stroke:none"
           id="text126"><tspan
             x="0 5.256 7.7579999 12.762 15.264 20.268 25.271999 27.774 32.778"
             y="0"
             sodipodi:role="line"
             id="tspan124">= 4.09 eV</tspan></text></g><path
         d="m 2159,2291.5 -16,60.5 -16,-60.5"
         style="fill:none;stroke:#000000;stroke-width:2.5;stroke-linecap:butt;stroke-linejoin:miter;stroke-miterlimit:3.8;stroke-dasharray:none;stroke-opacity:1"
         id="path128" /><path
         d="m 2127,2062.5 16,-60.5 16,60.5 m -16,-60.5 v 350"
         style="fill:none;stroke:#000000;stroke-width:2.5;stroke-linecap:butt;stroke-linejoin:miter;stroke-miterlimit:3.8;stroke-dasharray:none;stroke-opacity:1"
         id="path130" /><g
         id="g132"
         transform="scale(10)"><text
           transform="matrix(0,1,1,0,11.55,112.343)"
           style="font-variant:normal;font-weight:normal;font-size:9px;font-family:Helvetica;-inkscape-font-specification:Helvetica;writing-mode:lr-tb;fill:#000000;fill-opacity:1;fill-rule:nonzero;stroke:none"
           id="text136"><tspan
             x="0 5.0040002 10.008 15.012 18.009001 23.013 27.513 30.014999 33.012001 38.015999 44.019001"
             y="0"
             sodipodi:role="line"
             id="tspan134">energy (eV)</tspan></text><text
           transform="matrix(1,0,0,-1,133.3,3.3)"
           style="font-variant:normal;font-weight:normal;font-size:9px;font-family:Helvetica;-inkscape-font-specification:Helvetica;writing-mode:lr-tb;fill:#000000;fill-opacity:1;fill-rule:nonzero;stroke:none"
           id="text140"><tspan
             x="0 5.0040002 7.0019999 11.502 14.004 19.007999 24.011999 28.511999 33.515999 36.018002 41.021999 43.02 48.023998 53.028 58.032001 60.534 63.035999 68.040001 73.043999 75.545998 80.045998 85.302002 90.306 94.806 96.804001 101.304 103.806 106.803 112.806"
             y="0"
             sodipodi:role="line"
             id="tspan138">distance along the z−axis (Å)</tspan></text></g><path
         d="m 403,392.5 16,90 15.5,261 16,379 16,379 16,269.5 15.5,135.5 16,55 16,-0.5 16,-56.5 16,-140 15.5,-275 16,-383 16,-378 16,-257 15.5,-84.5 16,96 16,267.5 16,383.5 16,379.5 15.5,267 16,134 16,54 16,-2 15.5,-60 16,-145.5 16,-283 16,-387.5 16,-377 15.5,-251.5 16,-77.5 16,104.5 16,275 15.5,386.5 16,377 16,260.5 16,127.5 15.5,49 16,-7 16,-63.5 16,-150 16,-286.5 15.5,-386 16,-369.5 16,-241.5 16,-68 15.5,111.5 16,279 16,388 16,379 16,271 15.5,157.5 16,106.5 16,83 16,58 15.5,40.5 16,27.5 16,19 16,12.5 16,9 15.5,5.5 16,4 16,2 16,2 15.5,1 16,1 16,0.5 h 16 l 16,0.5 h 15.5 16 16 l 16,0.5 15.5,-0.5 16,0.5 h 16 16 16 15.5 16 16 16 15.5 16 16 16 16 15.5 16 16 16 15.5 16 16 16 16 15.5 16 16 16 15.5 16 16 16 15.5 16 16 16 16 15.5 16 16 16 15.5 16 16 16 16 15.5 16 16 16 15.5 16 16 16 16 15.5 16 16 16 15.5 16 16 16 16 15.5 16 16 16 15.5 16 16 16 16 15.5 16 16 16 15.5 16 16 16 16 15.5 16 16 16 15.5 16"
         style="fill:none;stroke:#9400d4;stroke-width:2.5;stroke-linecap:butt;stroke-linejoin:miter;stroke-miterlimit:3.8;stroke-dasharray:none;stroke-opacity:1"
         id="path142" /><path
         d="M 387,2001.5 H 2929"
         style="fill:none;stroke:#000000;stroke-width:1.25;stroke-linecap:butt;stroke-linejoin:miter;stroke-miterlimit:3.8;stroke-dasharray:5, 10;stroke-dashoffset:0;stroke-opacity:1"
         id="path144" /><path
         d="M 387,2429.5 V 288 h 3050.5 v 2141.5 z"
         style="fill:none;stroke:#000000;stroke-width:5;stroke-linecap:butt;stroke-linejoin:miter;stroke-miterlimit:3.8;stroke-dasharray:none;stroke-opacity:1"
         id="path146" /></g></g></svg>
