<?xml version="1.0" encoding="UTF-8" standalone="no"?>
<!-- Created with Inkscape (http://www.inkscape.org/) -->

<svg
   version="1.1"
   id="svg2"
   width="459.24301"
   height="329.23999"
   viewBox="0 0 459.24301 329.23999"
   sodipodi:docname="meta.svg"
   inkscape:version="1.2.1 (9c6d41e410, 2022-07-14)"
   xmlns:inkscape="http://www.inkscape.org/namespaces/inkscape"
   xmlns:sodipodi="http://sodipodi.sourceforge.net/DTD/sodipodi-0.dtd"
   xmlns="http://www.w3.org/2000/svg"
   xmlns:svg="http://www.w3.org/2000/svg">
  <defs
     id="defs6" />
  <sodipodi:namedview
     id="namedview4"
     pagecolor="#ffffff"
     bordercolor="#666666"
     borderopacity="1.0"
     inkscape:showpageshadow="2"
     inkscape:pageopacity="0.0"
     inkscape:pagecheckerboard="0"
     inkscape:deskcolor="#d1d1d1"
     showgrid="false"
     inkscape:zoom="4.04"
     inkscape:cx="85.643564"
     inkscape:cy="16.584158"
     inkscape:window-width="1858"
     inkscape:window-height="1057"
     inkscape:window-x="-8"
     inkscape:window-y="-8"
     inkscape:window-maximized="1"
     inkscape:current-layer="g10">
    <inkscape:page
       x="0"
       y="0"
       id="page8"
       width="459.24301"
       height="329.23999" />
  </sodipodi:namedview>
  <g
     id="g10"
     inkscape:groupmode="layer"
     inkscape:label="Page 1"
     transform="matrix(1.3333333,0,0,-1.3333333,-15.705375,327.5805)">
    <path
       d="m 47.735671,26.893001 h 3.15 m 296.499999,0 h -3.15"
       style="fill:none;stroke:#000000;stroke-width:0.5;stroke-linecap:butt;stroke-linejoin:miter;stroke-miterlimit:3.8;stroke-dasharray:none;stroke-opacity:1"
       id="path14" />
    <g
       id="g16"
       transform="translate(3.6356714,-1.9069994)">
      <text
         xml:space="preserve"
         transform="matrix(1,0,0,-1,33.6961,25.8)"
         style="font-variant:normal;font-weight:normal;font-size:9px;font-family:Helvetica;-inkscape-font-specification:Helvetica;writing-mode:lr-tb;fill:#000000;fill-opacity:1;fill-rule:nonzero;stroke:none"
         id="text20"><tspan
           x="0"
           y="0"
           id="tspan18">0</tspan></text>
    </g>
    <path
       d="m 47.735671,53.443 h 3.15 m 296.499999,0 h -3.15"
       style="fill:none;stroke:#000000;stroke-width:0.5;stroke-linecap:butt;stroke-linejoin:miter;stroke-miterlimit:3.8;stroke-dasharray:none;stroke-opacity:1"
       id="path22" />
    <g
       id="g24"
       transform="translate(3.6356714,-1.9069994)">
      <text
         xml:space="preserve"
         transform="matrix(1,0,0,-1,26.1903,52.35)"
         style="font-variant:normal;font-weight:normal;font-size:9px;font-family:Helvetica;-inkscape-font-specification:Helvetica;writing-mode:lr-tb;fill:#000000;fill-opacity:1;fill-rule:nonzero;stroke:none"
         id="text28"><tspan
           x="0 5.0040002 7.506"
           y="0"
           sodipodi:role="line"
           id="tspan26">0.5</tspan></text>
    </g>
    <path
       d="m 47.735671,79.993001 h 3.15 m 296.499999,0 h -3.15"
       style="fill:none;stroke:#000000;stroke-width:0.5;stroke-linecap:butt;stroke-linejoin:miter;stroke-miterlimit:3.8;stroke-dasharray:none;stroke-opacity:1"
       id="path30" />
    <g
       id="g32"
       transform="translate(3.6356714,-1.9069994)">
      <text
         xml:space="preserve"
         transform="matrix(1,0,0,-1,33.6961,78.9)"
         style="font-variant:normal;font-weight:normal;font-size:9px;font-family:Helvetica;-inkscape-font-specification:Helvetica;writing-mode:lr-tb;fill:#000000;fill-opacity:1;fill-rule:nonzero;stroke:none"
         id="text36"><tspan
           x="0"
           y="0"
           id="tspan34">1</tspan></text>
    </g>
    <path
       d="m 47.735671,106.543 h 3.15 m 296.499999,0 h -3.15"
       style="fill:none;stroke:#000000;stroke-width:0.5;stroke-linecap:butt;stroke-linejoin:miter;stroke-miterlimit:3.8;stroke-dasharray:none;stroke-opacity:1"
       id="path38" />
    <g
       id="g40"
       transform="translate(3.6356714,-1.9069994)">
      <text
         xml:space="preserve"
         transform="matrix(1,0,0,-1,26.1903,105.45)"
         style="font-variant:normal;font-weight:normal;font-size:9px;font-family:Helvetica;-inkscape-font-specification:Helvetica;writing-mode:lr-tb;fill:#000000;fill-opacity:1;fill-rule:nonzero;stroke:none"
         id="text44"><tspan
           x="0 5.0040002 7.506"
           y="0"
           sodipodi:role="line"
           id="tspan42">1.5</tspan></text>
    </g>
    <path
       d="m 47.735671,133.093 h 3.15 m 296.499999,0 h -3.15"
       style="fill:none;stroke:#000000;stroke-width:0.5;stroke-linecap:butt;stroke-linejoin:miter;stroke-miterlimit:3.8;stroke-dasharray:none;stroke-opacity:1"
       id="path46" />
    <g
       id="g48"
       transform="translate(3.6356714,-1.9069994)">
      <text
         xml:space="preserve"
         transform="matrix(1,0,0,-1,33.6961,132)"
         style="font-variant:normal;font-weight:normal;font-size:9px;font-family:Helvetica;-inkscape-font-specification:Helvetica;writing-mode:lr-tb;fill:#000000;fill-opacity:1;fill-rule:nonzero;stroke:none"
         id="text52"><tspan
           x="0"
           y="0"
           id="tspan50">2</tspan></text>
    </g>
    <path
       d="m 47.735671,159.593 h 3.15 m 296.499999,0 h -3.15"
       style="fill:none;stroke:#000000;stroke-width:0.5;stroke-linecap:butt;stroke-linejoin:miter;stroke-miterlimit:3.8;stroke-dasharray:none;stroke-opacity:1"
       id="path54" />
    <g
       id="g56"
       transform="translate(3.6356714,-1.9069994)">
      <text
         xml:space="preserve"
         transform="matrix(1,0,0,-1,26.1903,158.5)"
         style="font-variant:normal;font-weight:normal;font-size:9px;font-family:Helvetica;-inkscape-font-specification:Helvetica;writing-mode:lr-tb;fill:#000000;fill-opacity:1;fill-rule:nonzero;stroke:none"
         id="text60"><tspan
           x="0 5.0040002 7.506"
           y="0"
           sodipodi:role="line"
           id="tspan58">2.5</tspan></text>
    </g>
    <path
       d="m 47.735671,186.143 h 3.15 m 296.499999,0 h -3.15"
       style="fill:none;stroke:#000000;stroke-width:0.5;stroke-linecap:butt;stroke-linejoin:miter;stroke-miterlimit:3.8;stroke-dasharray:none;stroke-opacity:1"
       id="path62" />
    <g
       id="g64"
       transform="translate(3.6356714,-1.9069994)">
      <text
         xml:space="preserve"
         transform="matrix(1,0,0,-1,33.6961,185.05)"
         style="font-variant:normal;font-weight:normal;font-size:9px;font-family:Helvetica;-inkscape-font-specification:Helvetica;writing-mode:lr-tb;fill:#000000;fill-opacity:1;fill-rule:nonzero;stroke:none"
         id="text68"><tspan
           x="0"
           y="0"
           id="tspan66">3</tspan></text>
    </g>
    <path
       d="m 47.735671,212.693 h 3.15 m 296.499999,0 h -3.15"
       style="fill:none;stroke:#000000;stroke-width:0.5;stroke-linecap:butt;stroke-linejoin:miter;stroke-miterlimit:3.8;stroke-dasharray:none;stroke-opacity:1"
       id="path70" />
    <g
       id="g72"
       transform="translate(3.6356714,-1.9069994)">
      <text
         xml:space="preserve"
         transform="matrix(1,0,0,-1,26.1903,211.6)"
         style="font-variant:normal;font-weight:normal;font-size:9px;font-family:Helvetica;-inkscape-font-specification:Helvetica;writing-mode:lr-tb;fill:#000000;fill-opacity:1;fill-rule:nonzero;stroke:none"
         id="text76"><tspan
           x="0 5.0040002 7.506"
           y="0"
           sodipodi:role="line"
           id="tspan74">3.5</tspan></text>
    </g>
    <path
       d="m 47.735671,239.243 h 3.15 m 296.499999,0 h -3.15"
       style="fill:none;stroke:#000000;stroke-width:0.5;stroke-linecap:butt;stroke-linejoin:miter;stroke-miterlimit:3.8;stroke-dasharray:none;stroke-opacity:1"
       id="path78" />
    <g
       id="g80"
       transform="translate(3.6356714,-1.9069994)">
      <text
         xml:space="preserve"
         transform="matrix(1,0,0,-1,33.6961,238.15)"
         style="font-variant:normal;font-weight:normal;font-size:9px;font-family:Helvetica;-inkscape-font-specification:Helvetica;writing-mode:lr-tb;fill:#000000;fill-opacity:1;fill-rule:nonzero;stroke:none"
         id="text84"><tspan
           x="0"
           y="0"
           id="tspan82">4</tspan></text>
    </g>
    <path
       d="m 86.835671,26.893001 v 3.15 m 0,209.199999 v -3.15"
       style="fill:none;stroke:#000000;stroke-width:0.5;stroke-linecap:butt;stroke-linejoin:miter;stroke-miterlimit:3.8;stroke-dasharray:none;stroke-opacity:1"
       id="path86" />
    <g
       id="g88"
       transform="translate(3.6356714,-1.9069994)">
      <text
         xml:space="preserve"
         transform="matrix(1,0,0,-1,76.6977,16.8)"
         style="font-variant:normal;font-weight:normal;font-size:9px;font-family:Helvetica;-inkscape-font-specification:Helvetica;writing-mode:lr-tb;fill:#000000;fill-opacity:1;fill-rule:nonzero;stroke:none"
         id="text92"><tspan
           x="0 2.997 8.0010004"
           y="0"
           sodipodi:role="line"
           id="tspan90">-10</tspan></text>
    </g>
    <path
       d="m 151.98567,26.893001 v 3.15 m 0,209.199999 v -3.15"
       style="fill:none;stroke:#000000;stroke-width:0.5;stroke-linecap:butt;stroke-linejoin:miter;stroke-miterlimit:3.8;stroke-dasharray:none;stroke-opacity:1"
       id="path94" />
    <g
       id="g96"
       transform="translate(3.6356714,-1.9069994)">
      <text
         xml:space="preserve"
         transform="matrix(1,0,0,-1,144.35,16.8)"
         style="font-variant:normal;font-weight:normal;font-size:9px;font-family:Helvetica;-inkscape-font-specification:Helvetica;writing-mode:lr-tb;fill:#000000;fill-opacity:1;fill-rule:nonzero;stroke:none"
         id="text100"><tspan
           x="0 2.997"
           y="0"
           sodipodi:role="line"
           id="tspan98">-5</tspan></text>
    </g>
    <path
       d="m 217.08567,26.893001 v 3.15 m 0,209.199999 v -3.15"
       style="fill:none;stroke:#000000;stroke-width:0.5;stroke-linecap:butt;stroke-linejoin:miter;stroke-miterlimit:3.8;stroke-dasharray:none;stroke-opacity:1"
       id="path102" />
    <g
       id="g104"
       transform="translate(3.6356714,-1.9069994)">
      <text
         xml:space="preserve"
         transform="matrix(1,0,0,-1,212.199,16.8)"
         style="font-variant:normal;font-weight:normal;font-size:9px;font-family:Helvetica;-inkscape-font-specification:Helvetica;writing-mode:lr-tb;fill:#000000;fill-opacity:1;fill-rule:nonzero;stroke:none"
         id="text108"><tspan
           x="0"
           y="0"
           id="tspan106">0</tspan></text>
    </g>
    <path
       d="m 282.23567,26.893001 v 3.15 m 0,209.199999 v -3.15"
       style="fill:none;stroke:#000000;stroke-width:0.5;stroke-linecap:butt;stroke-linejoin:miter;stroke-miterlimit:3.8;stroke-dasharray:none;stroke-opacity:1"
       id="path110" />
    <g
       id="g112"
       transform="translate(3.6356714,-1.9069994)">
      <text
         xml:space="preserve"
         transform="matrix(1,0,0,-1,277.349,16.8)"
         style="font-variant:normal;font-weight:normal;font-size:9px;font-family:Helvetica;-inkscape-font-specification:Helvetica;writing-mode:lr-tb;fill:#000000;fill-opacity:1;fill-rule:nonzero;stroke:none"
         id="text116"><tspan
           x="0"
           y="0"
           id="tspan114">5</tspan></text>
    </g>
    <path
       d="m 347.38567,26.893001 v 3.15 m 0,209.199999 v -3.15"
       style="fill:none;stroke:#000000;stroke-width:0.5;stroke-linecap:butt;stroke-linejoin:miter;stroke-miterlimit:3.8;stroke-dasharray:none;stroke-opacity:1"
       id="path118" />
    <g
       id="g120"
       transform="translate(3.6356714,-1.9069994)">
      <text
         xml:space="preserve"
         transform="matrix(1,0,0,-1,339.997,16.8)"
         style="font-variant:normal;font-weight:normal;font-size:9px;font-family:Helvetica;-inkscape-font-specification:Helvetica;writing-mode:lr-tb;fill:#000000;fill-opacity:1;fill-rule:nonzero;stroke:none"
         id="text124"><tspan
           x="0 5.0040002"
           y="0"
           sodipodi:role="line"
           id="tspan122">10</tspan></text>
    </g>
    <path
       d="M 47.735671,239.243 V 26.893001 H 347.38567 V 239.243 Z"
       style="fill:none;stroke:#000000;stroke-width:0.5;stroke-linecap:butt;stroke-linejoin:miter;stroke-miterlimit:3.8;stroke-dasharray:none;stroke-opacity:1"
       id="path126" />
    <text
       xml:space="preserve"
       transform="matrix(0,1,1,0,0,0)"
       style="font-variant:normal;font-weight:normal;font-size:9px;font-family:Helvetica;-inkscape-font-specification:Helvetica;writing-mode:lr-tb;fill:#000000;fill-opacity:1;fill-rule:nonzero;stroke:none"
       id="text132"
       x="100.284"
       y="21.335672"><tspan
         x="100.284 106.782 113.784 119.787 122.289 125.28601 129.786 132.28799 137.29199 139.79399 144.798 149.298 151.8 156.804 162.80699"
         y="21.335672"
         sodipodi:role="line"
         id="tspan130">DOS (states/eV)</tspan></text>
    <text
       xml:space="preserve"
       transform="scale(1,-1)"
       style="font-variant:normal;font-weight:normal;font-size:9px;font-family:Helvetica;-inkscape-font-specification:Helvetica;writing-mode:lr-tb;fill:#ff0000;fill-opacity:1;fill-rule:nonzero;stroke:none"
       id="text138"
       x="278.75818"
       y="-229.04553"><tspan
         x="278.75818"
         y="-229.04553"
         sodipodi:role="line"
         id="tspan136">PBEsol</tspan></text>
    <path
       d="m 311.83567,231.593 h 24.75 M 66.935671,26.893001 h 1.45 l 0.35,0.3 0.35,1.75 0.35,2.9 0.35,1.9 0.35,0.65 0.35,0.4 0.35,1.05 0.4,1.3 0.35,1.3 0.35,0.949999 0.35,0.45 0.35,0.3 0.35,0.65 0.35,0.65 0.35,0.7 0.35,0.7 0.35,0.7 0.35,0.8 0.4,0.9 0.35,0.75 0.35,0.55 0.35,0.4 0.35,0.55 0.35,0.55 0.35,0.6 0.35,0.55 0.35,0.6 0.35,0.75 0.35,0.7 0.4,0.75 0.35,0.8 0.35,0.8 0.35,0.8 0.35,0.7 0.35,0.55 0.35,0.6 0.35,0.7 0.35,0.8 0.35,0.85 0.35,0.850001 0.4,0.9 0.35,0.95 0.35,0.9 0.35,0.95 0.35,0.95 0.35,1 0.35,1.05 0.35,1.35 0.35,1.4 0.35,1.45 0.35,1.5 0.4,1.6 0.35,1.65 0.35,1.85 0.35,2 0.35,2.15 0.35,2.35 0.35,3.1 0.35,3.95 0.35,5.199999 0.35,7.2 0.35,5.25 0.4,2 0.35,-0.7 0.35,-0.9 0.35,-2.1 0.35,0.15 0.35,1.6 0.35,0.35 0.35,0.25 0.35,1.1 0.35,1.9 0.35,0.3 0.4,-1.15 0.35,-0.15 0.35,0.25 0.35,-0.8 0.35,-1.25 0.35,-1.1 0.35,3.4 0.35,15.5 0.35,12.05 0.35,3.3 0.35,-3.95 0.4,-14.5 0.35,-48.199999 0.35,-43.55 0.35,-5.05 h 0.35 0.349999 0.35 0.35 0.35 0.35 0.35 0.35 0.4 0.35"
       style="fill:none;stroke:#ff0000;stroke-width:0.75000002;stroke-linecap:butt;stroke-linejoin:miter;stroke-miterlimit:3.8;stroke-dasharray:none;stroke-opacity:1"
       id="path140" />
    <path
       d="m 103.13567,26.893001 h 36.85"
       style="fill:none;stroke:#ff0000;stroke-width:0.25;stroke-linecap:butt;stroke-linejoin:miter;stroke-miterlimit:3.8;stroke-dasharray:none;stroke-opacity:1"
       id="path142" />
    <path
       d="m 139.98567,26.893001 h 5.3 l 0.4,0.35 0.35,1.55 0.35,2.85 0.35,8.749999 0.35,1.3 0.35,1.8 0.35,2.5 0.35,2.6 0.35,3.1 0.35,5.2 0.35,7.950001 0.35,6.95 0.4,6 0.35,7.55 0.35,8.9 0.35,11.249999 0.35,15.1 0.35,18.1 0.35,28.35 0.35,31.7 0.35,26.5 0.35,5.55 0.4,-34.55 0.35,-55.05 0.35,-18.95 0.35,-12 0.35,-8.05 0.35,-6.3 0.35,-5.499999 0.35,-4.65 0.35,-3.95 0.35,-3.6 0.35,-3.15 0.35,-2.75 0.4,-2.3 0.35,-2.1 0.35,-2.05 0.35,-1.7 0.35,-1.45 0.35,-1.35 0.35,-1.25 0.35,-1.2 0.35,-1.000001 0.35,-0.9 0.35,-0.85 0.4,-0.8 0.35,-0.8 0.35,-0.8 0.35,-0.8 0.35,-0.75 0.35,-0.75 0.35,-0.65 0.35,-0.65 0.35,-0.65 0.35,-0.6 0.35,-0.55 0.4,-0.5 0.35,-0.5 0.35,-0.45 0.35,-0.5 0.35,-0.45 0.35,-0.45 0.35,-0.5 0.35,-0.4 0.35,-0.4 0.35,-0.4 0.35,-0.4 0.4,-0.4 0.35,-0.35 0.35,-0.35 0.35,-0.35 0.35,-0.35 0.35,-0.3 0.35,0.2 0.35,2.1 0.35,3.4 0.35,4.15 0.35,3.85 0.4,4.150001 0.35,4.6 0.35,13.25 0.35,10.35 0.35,8.05 0.35,5.149999 0.35,-1.1 0.35,-3.15 0.35,-1.649999 0.35,-1.55 0.35,-1.8"
       style="fill:none;stroke:#ff0000;stroke-width:0.75000002;stroke-linecap:butt;stroke-linejoin:miter;stroke-miterlimit:3.8;stroke-dasharray:none;stroke-opacity:1"
       id="path144" />
    <path
       d="m 176.83567,91.293001 0.4,-1.75 0.35,-1.85 0.35,-1.5 0.35,-1 0.35,-0.75 0.35,-0.3 0.35,-0.2 0.35,-0.2 0.35,-0.1 0.35,-0.1 0.35,0.05 0.4,0.15 0.35,0.3 0.35,0.4 0.35,0.45 0.35,0.5 0.35,0.35 0.35,0.2 0.35,0.55 0.35,0.65 0.35,0.7 0.35,0.8 0.4,1.25 0.35,1.9 0.35,1.45 0.35,1.4 0.35,1.399999 0.35,1.4 0.35,1.4 0.35,1.45 0.35,2.1 0.35,2.75 0.35,3.6 0.4,3.55 0.35,3.2 0.35,1.7 0.35,1.6 0.35,1.5 0.35,3.8 0.35,1.7 0.35,-1.65 0.35,-1.55 0.35,0.15 0.35,-1.15 0.4,-1.5 0.35,-1.65 0.35,-1.7 0.35,-1.25 0.35,0.25 0.35,0.85 0.35,3.1 0.35,2.65 0.35,-2.1 0.35,-1.9 0.35,-0.6 0.4,-1.05 0.35,-0.8 0.35,-0.5 0.35,-0.45 h 0.35 l 0.35,0.05 0.35,-0.05 0.35,-0.15 0.35,-0.3 0.35,-0.45 h 0.35 l 0.4,1.3 0.35,2 0.35,-0.2 0.35,-2.3 0.35,-0.15 0.35,0.1 h 0.35 l 0.35,-0.9 0.35,-0.75 0.35,-0.55 0.35,-0.5 0.4,-0.45 0.35,-0.7 0.35,-0.95 0.35,-1 0.35,-1.1 0.35,4.95 0.35,13.1 0.35,-12.35 0.35,-23.199999 0.35,-5.05 0.35,-3.45 0.35,-2.55 0.4,-1.95 0.35,0.55 h 0.35 l 0.35,-2.35 0.35,-4.15 0.35,-2.55 0.35,-2 0.35,-0.45 0.35,-2.45 0.35,-7.000001 0.4,-1.7 0.35,-1.55 0.35,-1.25 0.35,3.25 0.35,3.050001"
       style="fill:none;stroke:#ff0000;stroke-width:0.75000002;stroke-linecap:butt;stroke-linejoin:miter;stroke-miterlimit:3.8;stroke-dasharray:none;stroke-opacity:1"
       id="path146" />
    <path
       d="m 213.73567,58.793001 0.35,-2.850001 0.35,-6.1 0.35,-4.75 0.35,-4.6 0.35,-1.7 0.35,-1.049999 0.35,-2.75 0.4,-4.3 0.35,-3.5 0.35,-0.3 h 0.35 0.35 0.35 0.35 0.35 0.35 0.35 0.35 0.4 0.35 0.35 0.35 0.35 0.35 0.35 0.35 0.35 0.35 0.35 0.4 0.35 0.35 0.35 0.35 0.35 0.35 0.35 0.35 0.35 0.35 0.4 0.35 0.35 0.35 0.35 0.35 0.35 0.35 0.35 0.35 0.35 0.4 0.35 0.35 0.35 0.35 0.35 0.35 0.35 0.35 0.35 0.35 0.4 0.35 l 0.35,0.15 0.35,0.25 0.35,0.4 0.35,0.5 0.35,0.55 0.35,0.6 0.35,0.65 0.35,0.7 0.35,0.75 0.4,0.8 0.35,1.45 0.35,1.8 0.35,1 0.35,0.25 0.35,-0.45 0.35,-0.25 0.35,0.35 0.35,0.55 0.35,0.55 0.35,0.6 0.4,0.55 0.35,0.599999 0.35,0.6 0.35,0.6 0.35,0.5 0.35,0.55 0.35,0.6 0.35,0.75 0.35,0.7 0.35,0.75 0.35,2.95 0.4,1.7 0.35,0.65 0.35,0.7 0.35,-1.3 0.35,0.85 0.35,0.9 0.35,0.9 0.35,0.95 0.35,0.95"
       style="fill:none;stroke:#ff0000;stroke-width:0.75000002;stroke-linecap:butt;stroke-linejoin:miter;stroke-miterlimit:3.8;stroke-dasharray:none;stroke-opacity:1"
       id="path148" />
    <path
       d="m 250.58567,53.543 0.35,1 0.35,1.15 0.4,1.2 0.35,1.25 0.35,0.900001 0.35,1.35 0.35,1.4 0.35,1.6 0.35,1.85 0.35,2.1 0.35,3.3 0.35,4.1 0.35,4.8 0.4,3 0.35,-2.35 0.35,1.7 0.35,2.3 0.35,2.45 0.35,2.7 0.35,3.05 0.35,3.449999 0.35,5.35 0.35,5.9 0.35,4.95 0.4,3 0.35,3.45 0.35,3.4 0.35,3.1 0.35,2.65 0.35,3.55 0.35,-0.5 0.35,-2.1 0.35,0.6 0.35,1.85 0.35,3.6 0.4,7.35 0.35,8.6 0.35,-1.65 0.35,-5.65 0.35,-5.1 0.35,-5.1 0.35,-4.6 0.35,-3.25 0.35,-4.5 0.35,-6.7 0.35,-8.25 0.35,-6.7 0.4,-5.249999 0.35,-5.15 0.35,-4.95 0.35,-5.2 0.35,-5.05 0.35,-4.8 0.35,-4.85 0.35,-4.9 0.35,-3.400001 0.35,-1.3 0.4,-1.4 0.35,-1.85 0.35,0.15 0.35,1.6 0.35,1.85 0.35,1.9 0.35,2.250001 0.35,2.9 0.35,2.65 0.35,2.4 0.35,3.05 0.35,9.15 0.4,13.85 0.35,8.849999 0.35,6.4 0.35,6.1 0.35,10.75 0.35,30.65 0.35,20.5 0.35,-8.6 0.35,-13.85 0.35,-2.35 0.35,1.2 0.4,0.35 0.35,-1.6 0.35,-3.6 0.35,-4.5 0.35,-4.95 0.35,-4.6 0.35,-4.75 0.35,-7.3 0.35,-6.1 0.35,-4.05 0.35,0.2 0.4,1.25 0.35,0.35 0.35,-0.85 0.35,-0.8 0.35,-4.7 0.35,-7.6 0.35,-1.45 0.35,-0.55 0.35,-0.15 0.35,0.25 0.35,0.55 0.4,0.75 0.35,1.25"
       style="fill:none;stroke:#ff0000;stroke-width:0.75000002;stroke-linecap:butt;stroke-linejoin:miter;stroke-miterlimit:3.8;stroke-dasharray:none;stroke-opacity:1"
       id="path150" />
    <path
       d="m 287.48567,99.793 0.35,1.65 0.35,1.75 0.35,1.75 0.35,2.6 0.35,3.4 0.35,1.5 0.35,-0.75 0.35,-1.85 0.35,-2.85 0.4,-2.4 0.35,-1.55 0.35,-0.65 0.35,0.5 0.35,0.8 0.35,0.7 0.35,1.1 0.35,2.65 0.35,5.75 0.35,-9.9 0.35,-3.55 0.4,-2.2 0.35,-2.45 0.35,-4.049999 0.35,-2.6 0.35,-0.4 0.35,0.55 0.35,0.7 0.35,0.7 0.35,0.65 0.35,0.6 0.35,0.65 0.4,0.7 0.35,2.399999 0.35,2.5 0.35,-0.55 0.35,-0.6 0.35,6.8 0.35,-4.2 0.35,-0.85 0.35,-0.75 0.35,-0.7 0.35,-0.45 0.4,0.4 0.35,-0.1 0.35,-0.35 0.35,-1.15 0.35,-2.349999 0.35,-3.45 0.35,-2.9 0.35,-9.8 0.35,-1.65 0.35,-0.3 0.35,-0.35 0.4,-0.3 0.35,-0.25 0.35,-0.3 0.35,-0.2 0.35,0.05 0.35,4.5 0.35,3.35 0.35,-1.15 0.35,-1.25 0.35,-0.1 0.35,0.25 0.4,2.95 0.35,5.35 0.35,2.75 0.35,-0.15 0.35,0.4 0.35,2.1 0.35,2.3 0.35,3.599999 0.35,7.25 0.35,7.8 0.35,4.9 0.4,1.3 0.35,1.2 0.35,1.25 0.35,1.3 0.35,5.1 0.35,-2.8 0.35,0.5 0.35,-3.2 0.35,-4.3 0.35,-4.2 0.35,-4.55 0.4,-6.05 0.35,-4 0.35,-1.85 0.35,-1.5 0.35,-1.35 0.35,-1.149999 0.35,0.1 0.35,1.899999 0.35,0.85 0.35,-1.35 0.35,-2.149999 0.4,-2.3 0.35,-2.4 0.35,-2.55 0.35,-2.65 0.35,-2.5 0.35,-3.55 0.35,-4.1"
       style="fill:none;stroke:#ff0000;stroke-width:0.75000002;stroke-linecap:butt;stroke-linejoin:miter;stroke-miterlimit:3.8;stroke-dasharray:none;stroke-opacity:1"
       id="path152" />
    <path
       d="m 324.33567,73.743001 0.35,-4.25 0.35,-1.1 0.35,0.05 0.35,0.25 0.35,0.5 0.4,0.6 0.35,4.15 0.35,-3.15 0.35,0.3 0.35,1.1 0.35,1.3 0.35,1.35 0.35,1.6 0.35,4.2 0.35,3.5 0.35,-0.1 0.4,1.85 0.35,1.6 0.35,1.45 0.35,1.3 0.35,0.4 0.35,1.9 0.35,1.8 0.35,0.05 0.35,-0.5 0.35,-0.75 0.35,-0.6 0.4,-0.3 0.35,-0.2 0.35,-0.05 0.35,-0.4 0.35,-0.2 0.35,0.25 0.35,0.35 0.35,0.45 0.35,0.4 0.35,0.4 0.35,0.35 0.4,0.3 0.35,0.25 0.35,0.3 0.35,0.25 0.35,-0.15 0.35,-0.15 0.35,-0.15 0.35,-0.1 0.35,-0.1 h 0.35 0.35 l 0.4,-0.15 0.35,0.15 0.35,0.45 0.35,0.5 0.35,0.699999 0.35,0.7 0.35,0.6 0.35,0.65 0.35,-1.15 0.35,-3.749999 0.35,-1.05 0.4,-0.95 0.35,-0.7 0.35,0.5 0.35,0.25 0.35,-0.4"
       style="fill:none;stroke:#ff0000;stroke-width:0.75000002;stroke-linecap:butt;stroke-linejoin:miter;stroke-miterlimit:3.8;stroke-dasharray:none;stroke-opacity:1"
       id="path154" />
    <g
       id="g156"
       transform="translate(89.291315,-1.3149201)"
       style="fill:#008000">
      <text
         xml:space="preserve"
         transform="matrix(1,0,0,-1,197.232,221.5)"
         style="font-variant:normal;font-weight:normal;font-size:9px;font-family:Helvetica;-inkscape-font-specification:Helvetica;writing-mode:lr-tb;fill:#008000;fill-opacity:1;fill-rule:nonzero;stroke:none"
         id="text160"><tspan
           x="0"
           sodipodi:role="line"
           id="tspan158"
           y="0">TB09</tspan></text>
    </g>
    <path
       d="m 311.83567,222.593 h 24.75 M 70.985671,26.893001 h 1.4 l 0.35,0.35 0.35,1.85 0.35,3.05 0.4,1.9 0.35,0.55 0.35,0.55 0.35,1.2 0.35,1.35 0.35,1.349999 0.35,0.9 0.35,0.35 0.35,0.4 0.35,0.75 0.35,0.7 0.4,0.75 0.35,0.75 0.35,0.8 0.35,0.9 0.35,0.9 0.35,0.7 0.35,0.45 0.35,0.55 0.35,0.65 0.35,0.6 0.35,0.6 0.4,0.65 0.35,0.8 0.35,0.8 0.35,0.8 0.35,0.8 0.35,0.9 0.35,0.9 0.35,0.8 0.35,0.55 0.35,0.7 0.35,0.8 0.4,0.900001 0.35,0.95 0.35,1 0.35,1 0.35,1 0.35,1.05 0.35,1.05 0.35,1.1 0.35,1.1 0.35,1.4 0.35,1.6 0.4,1.6 0.35,1.7 0.35,1.8 0.35,1.85 0.35,2.1 0.35,2.3 0.35,2.45 0.35,2.75 0.35,3.65 0.35,4.85 0.35,6.599999 0.4,7.95 0.35,3.85 0.35,0.5 0.35,-0.75 0.35,-2.3 0.35,-0.7 0.35,1.5 0.35,0.9 0.35,0.4 0.35,1.1 0.35,2.3 0.4,0.55 0.35,-1.05 h 0.35 l 0.35,0.2 0.35,-1.05 0.35,-1.35 0.35,-0.6 0.35,7.9 0.349999,20.2 0.35,7.6 0.35,0.2 0.4,-12.1 0.35,-41 0.35,-60.699999 0.35,-8.75 h 0.35 0.35 0.35 0.35 0.35 0.35 0.35 0.4 0.35 0.35 0.35 0.35 0.35 0.35"
       style="fill:none;stroke:#00ff00;stroke-width:0.75000002;stroke-linecap:butt;stroke-linejoin:miter;stroke-miterlimit:3.8;stroke-dasharray:none;stroke-opacity:1"
       id="path162" />
    <path
       d="m 107.13567,26.893001 h 36.85"
       style="fill:none;stroke:#00ff00;stroke-width:0.25;stroke-linecap:butt;stroke-linejoin:miter;stroke-miterlimit:3.8;stroke-dasharray:none;stroke-opacity:1"
       id="path164" />
    <path
       d="m 143.98567,26.893001 h 6.4 l 0.35,0.05 0.35,0.95 0.35,2.4 0.35,4.35 0.4,9.599999 0.35,-1.15 0.35,2.6 0.35,2.7 0.35,2.9 0.35,4.3 0.35,7.150001 0.35,8.5 0.35,5.9 0.35,7.35 0.35,8.75 0.4,10.599999 0.35,13.9 0.35,16.8 0.35,21.75 0.35,37.95 0.35,24 0.35,15.75 0.35,-13.55 0.35,-55.4 0.35,-34.5 0.35,-14.55 0.4,-9.8 0.35,-7.3 0.35,-6.199999 0.35,-5.1 0.35,-4.45 0.35,-4 0.35,-3.45 0.35,-2.7 0.35,-2.5 0.35,-2.35 0.35,-1.9 0.4,-1.65 0.35,-1.55 0.35,-1.4 0.35,-1.3 0.35,-1.15 0.35,-0.950001 0.35,-0.95 0.35,-0.85 0.35,-0.9 0.35,-0.9 0.35,-0.85 0.4,-0.85 0.35,-0.75 0.35,-0.75 0.35,-0.7 0.35,-0.65 0.35,-0.65 0.35,-0.55 0.35,-0.55 0.35,-0.55 0.35,-0.5 0.35,-0.5 0.4,-0.5 0.35,-0.5 0.35,-0.5 0.35,-0.45 0.35,-0.4 0.35,-0.45 0.35,-0.4 0.35,-0.4 0.35,-0.4 0.35,-0.35 0.35,-0.35 0.4,0.9 0.35,2.8 0.35,4.3 0.35,4.45 0.35,4.450001 0.35,4.9 0.35,13.15 0.35,12.4 0.35,8.899999 0.35,6.4 0.35,-1.2 0.35,-3.8 0.4,-1.5 0.35,-1.85 0.35,-2.199999 0.35,-2.3"
       style="fill:none;stroke:#00ff00;stroke-width:0.75000002;stroke-linecap:butt;stroke-linejoin:miter;stroke-miterlimit:3.8;stroke-dasharray:none;stroke-opacity:1"
       id="path166" />
    <path
       d="m 180.88567,91.893001 0.35,-1.8 0.35,-1 0.35,-0.8 0.35,-0.55 0.35,-0.2 0.35,-0.2 0.35,-0.1 0.4,-0.1 h 0.35 0.35 l 0.35,0.15 0.35,0.35 0.35,0.6 0.35,0.75 0.35,0.65 0.35,0.4 0.35,0.8 0.35,0.9 0.4,1 0.35,1.25 0.35,1.949999 0.35,2.45 0.35,2 0.35,2 0.35,1.95 0.35,2.15 0.35,3.05 0.35,3.5 0.35,4.5 0.4,4.5 0.35,3.05 0.35,1.7 0.35,1.35 0.35,3.2 0.35,2.45 0.35,-2.4 0.35,-0.65 0.35,1.05 0.35,-1.4 0.35,-1.75 0.4,-1.75 0.35,-1.9 0.35,-1.35 0.35,0.45 0.35,2 0.35,4.5 0.35,-0.75 0.35,-2.25 0.35,-0.9 0.35,-1.05 0.35,-0.8 0.4,-0.45 0.35,-0.4 0.35,0.1 0.35,0.2 0.35,-0.1 0.35,-0.2 0.35,-0.3 0.35,-0.1 0.35,1.2 0.35,1.95 0.35,0.9 0.4,-2.25 0.35,-0.1 0.35,0.15 0.35,-0.25 0.35,-1.35 0.35,-0.85 0.35,-0.35 0.35,-0.35 0.35,-0.5 0.35,-1.2 0.35,-1.55 0.4,0.3 0.35,8.95 0.35,4.3 0.35,-27.65 0.35,-11.499999 0.35,-4.6 0.35,-3.15 0.35,-2.45 0.35,-0.85 0.35,1.9 0.35,-3.3 0.4,-4.6 0.35,-2.8 0.35,-1.25 0.35,-1.6 0.35,-7.85 0.35,-3.3 0.35,-2.050001 0.35,-1.75 0.35,2.85 0.35,4.950001 0.35,-5.900001 0.4,-6.95 0.35,-6.25 0.35,-3.75 0.35,-1.1 0.35,-3.499999 0.35,-6.05 0.35,-3.1 0.35,-0.1 h 0.35"
       style="fill:none;stroke:#00ff00;stroke-width:0.75000002;stroke-linecap:butt;stroke-linejoin:miter;stroke-miterlimit:3.8;stroke-dasharray:none;stroke-opacity:1"
       id="path168" />
    <path
       d="m 217.73567,26.893001 h 28.35 l 0.4,0.05 0.35,0.2 0.35,0.35 0.35,0.55 0.35,0.6 0.35,0.7 0.35,0.75 0.35,0.8 0.35,0.9 0.35,1 0.35,1.9 0.4,1.5 0.35,0.75 h 0.35 l 0.35,-0.4 0.35,0.05 0.35,0.5 0.35,0.65 0.35,0.6 0.35,0.649999 0.35,0.65 0.35,0.7 0.4,0.65 0.35,0.65"
       style="fill:none;stroke:#00ff00;stroke-width:0.75000002;stroke-linecap:butt;stroke-linejoin:miter;stroke-miterlimit:3.8;stroke-dasharray:none;stroke-opacity:1"
       id="path170" />
    <path
       d="m 254.63567,41.643 0.35,0.55 0.35,0.65 0.35,0.8 0.35,0.8 0.35,0.9 0.35,3.25 0.35,1.35 0.35,0.8 0.35,-0.05 0.4,-0.3 0.35,0.95 0.35,1 0.35,1.05 0.35,1.15 0.35,1.15 0.35,1.25 0.35,1.3 0.35,1.100001 0.35,0.85 0.35,0.85 0.4,1.15 0.35,1.1 0.35,1.15 0.35,1.2 0.35,1.6 0.35,2.55 0.35,2.5 0.35,2.15 0.35,1.25 0.35,1.75 0.35,2.65 0.4,3.8 0.35,6.05 0.35,-1.4 0.35,3.35 0.35,3.5 0.35,3.599999 0.35,4.2 0.35,4.75 0.35,4.6 0.35,5.5 0.35,6.2 0.4,5.8 0.35,2.9 0.35,3.55 0.35,3.05 0.35,2.8 0.35,-5.95 0.35,2.7 0.35,5.1 0.35,5 0.35,1.95 0.35,-3.15 0.4,-5.25 0.35,-4.3 0.35,-5.4 0.35,-6.15 0.35,-7.75 0.35,-8.15 0.35,-2.7 0.35,-2.5 0.35,-5.4 0.35,-5.999999 0.35,-6.55 0.4,-6.05 0.35,-5.45 0.35,-5.4 0.35,-5 0.35,-3.75 0.35,-2.3 0.35,-2.000001 0.35,-1.65 0.35,-1.75 0.35,-2.9 0.35,-2.15 0.4,-1.15 0.35,1.1 0.35,2.9 0.35,5.1 0.35,9.850001 0.35,13.5 0.35,8.35 0.35,7.299999 0.35,8.5 0.35,9.4 0.35,23.7 0.4,35.75 0.35,-7.9 0.35,-14.1 0.35,1.4 0.35,4.8 0.35,3.7 0.35,2.7 0.35,2.8 0.35,20.25 0.35,-6.1 0.35,-7.8 0.35,-10.35 0.4,-14.2 0.35,-20.2 0.35,-12.35 0.35,-1.15 0.35,0.85 0.35,-1"
       style="fill:none;stroke:#00ff00;stroke-width:0.75000002;stroke-linecap:butt;stroke-linejoin:miter;stroke-miterlimit:3.8;stroke-dasharray:none;stroke-opacity:1"
       id="path172" />
    <path
       d="m 291.48567,115.093 0.35,-1.15 0.35,-5.5 0.35,-6 0.35,-2.6 0.4,-1.25 0.35,-1 0.35,-0.3 0.35,0.5 0.35,0.7 0.35,1.15 0.35,1.55 0.35,1.9 0.35,2.15 0.35,3.1 0.35,3.6 0.35,1.65 0.4,-2.8 0.35,-4.1 0.35,-4.9 0.35,-3.1 0.35,-0.95 0.35,-0.2 0.35,0.1 0.35,0.65 0.35,0.75 0.35,0.5 0.35,0.35 0.4,1.4 0.35,2.65 0.35,1.45 0.35,-5.85 0.35,-3.3 0.35,-1.299999 0.35,-1.6 0.35,-1.6 0.35,-1.15 0.35,-0.8 0.35,-0.45 0.4,-0.1 0.35,0.5 0.35,0.9 0.35,1.35 0.35,2.8 0.35,1.649999 0.35,0.45 0.35,0.05 0.35,-0.25 0.35,0.95 0.35,1.05 0.4,0.15 0.35,0.05 0.35,0.05 0.35,0.4 0.35,-0.85 0.35,-1.1 0.35,-1.7 0.35,-2.799999 0.35,-3.7 0.35,-2.45 0.35,-5.75 0.4,-3.75 0.35,-1.7 0.35,-0.6 0.35,-0.2 0.35,-0.1 0.35,-0.05 0.35,0.05 0.35,0.85 0.35,2.3 0.35,3.05 0.35,2.8 0.4,0.2 0.35,-0.65 0.35,1.45 0.35,3.7 0.35,5.2 0.35,6.699999 0.35,7.3 0.35,3.4 0.35,4.6 0.35,4.35 0.35,2.55 0.4,3.15 0.35,-1.05 0.35,-1.15 0.35,0.8 0.35,2.05 0.35,1.3 0.35,-1.55 0.35,-2.85 0.35,-3.3 0.35,-3.35 0.35,-3.45 0.4,-3.6 0.35,-4.35 0.35,-3.6 0.35,-2.9 0.35,-1.95 0.35,-1.649999 0.35,-1.6 0.35,-1.5 0.35,-1.3 0.35,-0.05 0.35,-0.75"
       style="fill:none;stroke:#00ff00;stroke-width:0.75000002;stroke-linecap:butt;stroke-linejoin:miter;stroke-miterlimit:3.8;stroke-dasharray:none;stroke-opacity:1"
       id="path174" />
    <path
       d="m 328.33567,89.793001 0.4,-1.7 0.35,-2.6 0.35,-1.45 0.35,-0.5 0.35,-0.3 0.35,-0.15 0.35,-0.2 0.35,0.35 0.35,1 0.35,0.2 0.35,0.5 0.4,0.9 0.35,0.7 0.35,0.55 0.35,1 0.35,2.9 0.35,2.45 0.35,-6.75 0.35,-4.8 0.35,-0.9 0.35,-1.7 0.35,-1.2 0.4,-1.1 0.35,-0.7 0.35,-0.3 0.35,-0.05 0.35,0.05 0.35,0.1 0.35,0.4 0.35,1.8 0.35,2.65 0.35,2.3 0.35,2 0.4,1.7 0.35,1.55 0.35,1.45 0.35,0.65 0.35,-1.8 0.35,-0.95 0.35,-0.25 0.35,-0.35 0.35,-0.15 0.35,-0.05 0.35,0.1 0.4,0.1 0.35,0.15 0.35,0.1 0.35,0.1 h 0.35 l 0.35,0.05 0.35,0.1 0.35,0.15 0.35,0.25 0.25,0.15"
       style="fill:none;stroke:#00ff00;stroke-width:0.75000002;stroke-linecap:butt;stroke-linejoin:miter;stroke-miterlimit:3.8;stroke-dasharray:none;stroke-opacity:1"
       id="path176" />
    <g
       id="g178"
       transform="translate(89.306011,-1.263263)"
       style="fill:#0000ff">
      <text
         xml:space="preserve"
         transform="matrix(1,0,0,-1,190.23,212.5)"
         style="font-variant:normal;font-weight:normal;font-size:9px;font-family:Helvetica;-inkscape-font-specification:Helvetica;writing-mode:lr-tb;fill:#0000ff;fill-opacity:1;fill-rule:nonzero;stroke:none"
         id="text182"><tspan
           x="0"
           sodipodi:role="line"
           id="tspan180"
           y="0">HSE06</tspan></text>
    </g>
    <path
       d="m 311.83567,213.593 h 24.75 M 51.435671,26.893001 h 1.45 l 0.35,0.25 0.35,1.3 0.35,2.4 0.35,1.9 0.35,0.9 0.35,0.2 0.35,0.65 0.35,0.95 0.35,1.1 0.4,1.1 0.35,0.7 0.35,0.349999 0.35,0.25 0.35,0.5 0.35,0.55 0.35,0.6 0.35,0.6 0.35,0.55 0.35,0.6 0.35,0.7 0.35,0.75 0.4,0.6 0.35,0.4 0.35,0.35 0.35,0.45 0.35,0.5 0.35,0.45 0.35,0.5 0.35,0.45 0.35,0.55 0.35,0.65 0.35,0.6 0.4,0.6 0.35,0.65 0.35,0.7 0.35,0.7 0.35,0.6 0.35,0.45 0.35,0.45 0.35,0.6 0.35,0.65 0.35,0.65 0.35,0.7 0.4,0.75 0.35,0.75 0.35,0.75 0.35,0.800001 0.35,0.8 0.35,0.8 0.35,0.8 0.35,0.85 0.35,1 0.35,1.25 0.35,1.15 0.4,1.25 0.35,1.25 0.35,1.35 0.35,1.4 0.35,1.55 0.35,1.65 0.35,1.8 0.35,1.9 0.35,2.3 0.35,3 0.35,3.75 0.4,4.9 0.35,6.349999 0.35,3.45 0.35,1.3 0.35,-0.7 0.35,-0.65 0.35,-1.9 0.35,-0.3 0.35,1.2 0.35,0.75 0.35,0.2 0.4,0.35 0.35,1.35 0.35,1.4 h 0.35 l 0.35,-0.95 0.35,-0.1 0.35,0.25 0.35,-0.5 0.35,-1.05 0.35,-1 0.35,-0.05 0.4,7.15 0.35,15.2 0.35,6.5 0.35,2.5 0.35,-4.35 0.35,-12.5 0.35,-38.199999 0.35,-43.05 0.35,-7.6 h 0.35 0.35"
       style="fill:none;stroke:#0000ff;stroke-width:0.75000002;stroke-linecap:butt;stroke-linejoin:miter;stroke-miterlimit:3.8;stroke-dasharray:none;stroke-opacity:1"
       id="path184" />
    <path
       d="M 87.585671,26.893001 H 124.48567"
       style="fill:none;stroke:#0000ff;stroke-width:0.25;stroke-linecap:butt;stroke-linejoin:miter;stroke-miterlimit:3.8;stroke-dasharray:none;stroke-opacity:1"
       id="path186" />
    <path
       d="m 124.48567,26.893001 h 14.55 l 0.35,0.4 0.35,1.3 0.35,2.3 0.35,5.6 0.35,4.999999 0.35,-0.35 0.35,2.05 0.35,2.15 0.35,2.55 0.35,4.25 0.4,5.75 0.35,6.850001 0.35,5.75 0.35,5.35 0.35,6.65 0.35,8 0.35,10.249999 0.35,12.55 0.35,14.15 0.35,21.05 0.35,32.5 0.4,22.05 0.35,12.8 0.35,-14.5 0.35,-54.3 0.35,-23.8 0.35,-12.85 0.35,-9 0.35,-6.349999 0.35,-5.15 0.35,-4.55 0.35,-3.95 0.4,-3.35 0.35,-3 0.35,-2.8 0.35,-2.5 0.35,-2.15 0.35,-1.85 0.35,-1.75 0.35,-1.65 0.35,-1.4 0.35,-1.2 0.35,-1.150001 0.4,-1.05 0.35,-1 0.35,-0.95 0.35,-0.8 0.35,-0.75 0.35,-0.7 0.35,-0.65 0.35,-0.65 0.35,-0.65 0.35,-0.65 0.35,-0.6 0.4,-0.6 0.35,-0.6 0.35,-0.55 0.35,-0.5 0.35,-0.55 0.35,-0.45 0.35,-0.45 0.35,-0.45 0.35,-0.4"
       style="fill:none;stroke:#0000ff;stroke-width:0.75000002;stroke-linecap:butt;stroke-linejoin:miter;stroke-miterlimit:3.8;stroke-dasharray:none;stroke-opacity:1"
       id="path188" />
    <path
       d="m 161.33567,45.593 0.35,-0.4 0.35,-0.4 0.4,-0.35 0.35,-0.4 0.35,-0.35 0.35,-0.4 0.35,-0.35 0.35,-0.35 0.35,-0.3 0.35,-0.3 0.35,-0.35 0.35,-0.3 0.35,-0.3 0.4,-0.25 0.35,-0.3 0.35,-0.25 0.35,-0.3 0.35,-0.25 0.35,-0.2 0.35,0.5 0.35,2 0.35,3.1 0.35,3.55 0.35,3.35 0.35,3.55 0.4,3.850001 0.35,8.65 0.35,12 0.35,6.95 0.35,6.5 0.35,1.85 0.35,-2.35 0.35,-2.55 0.35,-1.3 0.35,-1.45 0.4,-1.6 0.35,-1.55 0.35,-1.65 0.35,-1.25 0.35,-0.75 0.35,-0.7 0.35,-0.35 0.35,-0.2 0.35,-0.1 0.35,-0.15 0.35,-0.05 0.35,-0.05 0.4,-0.05 0.35,0.05 0.35,0.2 0.35,0.3 0.35,0.4 0.35,0.5 0.35,0.45 0.35,0.2 0.35,0.4 0.35,0.6 0.35,0.65 0.4,0.7 0.35,0.85 0.35,1.25 0.35,1.8 0.35,1.55 0.35,1.45 0.35,1.4 0.35,1.4 0.35,1.5 0.35,2.049999 0.35,2.35 0.4,3.15 0.35,3.25 0.35,3.2 0.35,2.1 0.35,1.25 0.35,1 0.35,1.15 0.35,3.55 0.35,0.25 0.35,-2.2 0.35,-0.3 0.4,1 0.35,-0.9 0.35,-1.25 0.35,-1.3 0.35,-1.4 0.35,-1.4 0.35,-1 0.35,0.3 0.35,0.9 0.35,3 0.35,2.1 0.4,-1.55 0.35,-1.65 0.35,-0.55 0.35,-0.8 0.35,-0.75 0.35,-0.4 0.35,-0.35 0.35,-0.3 0.35,0.15 0.35,0.05 0.35,-0.05 0.4,-0.15 0.35,-0.2"
       style="fill:none;stroke:#0000ff;stroke-width:0.75000002;stroke-linecap:butt;stroke-linejoin:miter;stroke-miterlimit:3.8;stroke-dasharray:none;stroke-opacity:1"
       id="path190" />
    <path
       d="m 198.23567,109.193 0.35,-0.3 0.35,0.05 0.35,0.9 0.35,1.4 0.35,1.2 0.35,-1.65 0.35,-0.85 0.35,0.05 0.35,0.1 0.4,-0.2 0.35,-1 0.35,-0.75 0.35,-0.3 0.35,-0.35 0.35,-0.3 0.35,-0.45 0.35,-0.9 0.35,-1.1 0.35,-1.1 0.35,3.4 0.4,8.3 0.35,-0.65 0.35,-21.549999 0.35,-9.45 0.35,-3.55 0.35,-2.6 0.35,-1.95 0.35,-1.7 0.35,-0.2 0.35,1.35 0.35,-1.6 0.4,-3.9 0.35,-2.2 0.35,-2.1 0.35,-0.5 0.35,-0.95 0.35,-5.05 0.35,-3.850001 0.35,-1.5 0.35,-1.35 0.35,-1.2 0.35,1.9 0.4,4.25 0.35,-1.55 0.35,-5.5 0.35,-4.4 0.35,-4.2 0.35,-2.949999 0.35,-0.5 0.35,-1.55 0.35,-3.1 0.35,-4.4 0.35,-1.85 0.4,-0.1 h 0.35 0.35 0.35 0.35 0.35 0.35 0.35 0.35 0.35 0.35 0.4 0.35 0.35 0.35 0.35 0.35 0.35 0.35 0.35 0.35 0.35 0.4 0.35 0.35 0.35 0.35 0.35 0.35 0.35 0.35 0.35 0.35 0.35 0.4 0.35 0.35 0.35 0.35 0.35 0.35 0.35 0.35 0.35 0.35 0.4 0.35 0.35 0.35 0.35 0.35"
       style="fill:none;stroke:#0000ff;stroke-width:0.75000002;stroke-linecap:butt;stroke-linejoin:miter;stroke-miterlimit:3.8;stroke-dasharray:none;stroke-opacity:1"
       id="path192" />
    <path
       d="m 235.08567,26.893001 h 12.75 l 0.35,0.15 0.35,0.25 0.4,0.4 0.35,0.45 0.35,0.55 0.35,0.55 0.35,0.65 0.35,0.65 0.35,0.7 0.35,0.75 0.35,1.3 0.35,1.65 0.35,1 0.4,0.4 0.35,-0.35 0.35,-0.25 0.35,0.1 0.35,0.45 0.35,0.5 0.35,0.55 0.35,0.55 0.35,0.5 0.35,0.549999 0.35,0.55 0.4,0.55 0.35,0.45 0.35,0.5 0.35,0.6 0.35,0.65 0.35,0.7 0.35,0.65 0.35,2.15 0.35,2.2 0.35,0.65 0.35,0.6 0.4,-1.15 0.35,0.45 0.35,0.8 0.35,0.8 0.35,0.85 0.35,0.85 0.35,0.9 0.35,1 0.35,1.05 0.35,1.15 0.35,0.9 0.4,0.85 0.35,1.150001 0.35,1.2 0.35,1.4 0.35,1.55 0.35,1.8 0.35,2.5 0.35,3.55 0.35,3.5 0.35,5.05 0.35,-0.1 0.4,-0.8 0.35,1.75 0.35,2.15 0.35,2.35 0.35,2.6 0.35,2.85 0.35,2.95 0.35,4.299999 0.35,6.05 0.35,5.35 0.35,2.8"
       style="fill:none;stroke:#0000ff;stroke-width:0.75000002;stroke-linecap:butt;stroke-linejoin:miter;stroke-miterlimit:3.8;stroke-dasharray:none;stroke-opacity:1"
       id="path194" />
    <path
       d="m 271.93567,111.593 0.4,2.75 0.35,3.05 0.35,2.85 0.35,2.5 0.35,2.95 0.35,0.55 0.35,-2.65 0.35,-0.95 0.35,1.25 0.35,1.95 0.35,4.8 0.4,7.15 0.35,8.45 0.35,-3.2 0.35,-4.85 0.35,-4.75 0.35,-5.55 0.35,-4.45 0.35,-3.45 0.35,-5.05 0.35,-7.2 0.35,-7.35 0.4,-5.649999 0.35,-4.75 0.35,-4.6 0.35,-4.35 0.35,-4.45 0.35,-4.45 0.35,-4.25 0.35,-4.35 0.35,-4.05 0.35,-3.550001 0.35,-2.5 0.4,-0.85 0.35,-0.95 0.35,-2.15 h 0.35 l 0.35,1.65 0.35,1.6 0.35,1.6 0.35,2.35 0.35,2.400001 0.35,2.15 0.35,1.8 0.35,1.75 0.4,5.1 0.35,11.65 0.35,9.5 0.35,9.199999 0.35,7.6 0.35,5.5 0.35,13.9 0.35,28.35 0.35,13.1 0.35,-14.6 0.35,-8.95 0.4,-0.75 0.35,1.55 0.35,1.6 0.35,-0.4 0.35,-2 0.35,-3.4 0.35,-4.05 0.35,-4.55 0.35,-5.45 0.35,-6.35 0.35,-7.85 0.4,-5.4 0.35,-1.7 0.35,0.9 0.35,1.05 0.35,0.3 0.35,-1.7 0.35,-0.65 0.35,-7.3 0.35,-5.049999 0.35,-0.55 0.35,-0.55 0.4,-0.15 0.35,0.2 0.35,0.5 0.35,0.65 0.35,1 0.35,1.399999 0.35,1.65 0.35,1.7 0.35,1.85 0.35,2.9 0.35,2.35 h 0.4 l 0.35,-1.25 0.35,-2.1 0.35,-2.75 0.35,-2.05 0.35,-1.2 0.35,-0.6 0.35,0.3 0.35,0.7 0.35,0.7 0.35,0.6 0.4,1 0.35,2.5 0.35,4.4 0.35,-9.55"
       style="fill:none;stroke:#0000ff;stroke-width:0.75000002;stroke-linecap:butt;stroke-linejoin:miter;stroke-miterlimit:3.8;stroke-dasharray:none;stroke-opacity:1"
       id="path196" />
    <path
       d="m 308.83567,97.593 0.35,-2.649999 0.35,-1.85 0.35,-2.3 0.35,-3.4 0.35,-2.35 0.35,-0.65 0.35,0.3 0.4,0.6 0.35,0.6 0.35,0.65 0.35,0.6 0.35,0.65 0.35,0.65 0.35,0.8 0.35,3.65 0.35,0.4 0.35,-0.45 0.35,-0.15 0.4,5.199999 0.35,-2.949999 0.35,-0.75 0.35,-0.65 0.35,-0.6 0.35,-0.5 0.35,-0.1 0.35,0.5 0.35,-0.5 0.35,-0.4 0.35,-1.2 0.4,-2.05 0.35,-3 0.35,-2.2 0.35,-8.6 0.35,-2.3 0.35,-0.3 0.35,-0.25 0.35,-0.25 0.35,-0.2 0.35,-0.25 0.35,-0.2 0.4,-0.05 0.35,2.45 0.35,4.4 0.35,0.75 0.35,-1.85 0.35,-0.4 0.35,0.15 0.35,1 0.35,3.5 0.35,4.35 0.35,2.85 0.4,-0.9 0.35,0.75 0.35,1.95 0.35,2.8 0.35,5.449999 0.35,7.3 0.35,6.35 0.35,1.65 0.35,1.1 0.35,1.15 0.35,1.15 0.4,1.4 0.35,4.05 0.35,-2.65 0.35,0.7 0.35,-2.25 0.35,-3.45 0.35,-3.45 0.35,-3.45 0.35,-3.75 0.35,-5.15 0.35,-3.3 0.4,-1.649999 0.35,-1.3 0.35,-1.25 0.35,-1.1 0.35,-0.85 0.35,0.5 0.35,2 0.35,0.75 0.35,-1.1 0.35,-2 0.35,-2.1 0.4,-2.2 0.35,-1.4 0.35,-1.8 0.35,-3.3 0.35,-4.25 0.35,-4.15 0.35,-2.3 0.35,-1.5 h 0.35 l 0.35,0.35 0.35,0.5 0.4,0.65 0.35,4.6 0.35,-4.1 0.35,0.9 0.35,1 0.35,1.2 0.35,1.3 0.35,1.45 0.35,6.2"
       style="fill:none;stroke:#0000ff;stroke-width:0.75000002;stroke-linecap:butt;stroke-linejoin:miter;stroke-miterlimit:3.8;stroke-dasharray:none;stroke-opacity:1"
       id="path198" />
    <path
       d="m 345.68567,80.793001 0.35,-1.2 0.35,2.05 0.35,1.85 0.4,1.55 0.25,1"
       style="fill:none;stroke:#0000ff;stroke-width:0.25;stroke-linecap:butt;stroke-linejoin:miter;stroke-miterlimit:3.8;stroke-dasharray:none;stroke-opacity:1"
       id="path200" />
    <path
       d="M 47.735671,239.243 V 26.893001 H 347.38567 V 239.243 Z"
       style="fill:none;stroke:#000000;stroke-width:0.5;stroke-linecap:butt;stroke-linejoin:miter;stroke-miterlimit:3.8;stroke-dasharray:none;stroke-opacity:1"
       id="path202" />
    <text
       xml:space="preserve"
       transform="scale(1,-1)"
       style="font-variant:normal;font-weight:normal;font-size:9px;font-family:Helvetica;-inkscape-font-specification:Helvetica;writing-mode:lr-tb;fill:#000000;fill-opacity:1;fill-rule:nonzero;stroke:none"
       id="text138-2"
       x="178.00063"
       y="-3.6495533"><tspan
         x="178.00063"
         y="-3.6495533"
         sodipodi:role="line"
         id="tspan136-9">Energy (eV)</tspan></text>
  </g>
</svg>
