<?xml version="1.0" encoding="UTF-8" standalone="no"?>
<svg
   width="496.17456"
   height="462.36987"
   viewBox="0 0 496.17456 462.36987"
   version="1.1"
   id="svg277"
   sodipodi:docname="force.svg"
   inkscape:version="1.1.2 (b8e25be833, 2022-02-05)"
   xmlns:inkscape="http://www.inkscape.org/namespaces/inkscape"
   xmlns:sodipodi="http://sodipodi.sourceforge.net/DTD/sodipodi-0.dtd"
   xmlns:xlink="http://www.w3.org/1999/xlink"
   xmlns="http://www.w3.org/2000/svg"
   xmlns:svg="http://www.w3.org/2000/svg"
   xmlns:rdf="http://www.w3.org/1999/02/22-rdf-syntax-ns#"
   xmlns:cc="http://creativecommons.org/ns#"
   xmlns:dc="http://purl.org/dc/elements/1.1/">
  <defs
     id="defs281">
    <defs
       id="defs34">
      <circle
         id="gpDot"
         r="0.5"
         stroke-width="0.5"
         stroke="currentColor"
         cx="0"
         cy="0" />
      <path
         id="gpPt0"
         stroke-width="0.148"
         stroke="currentColor"
         d="M -1,0 H 1 M 0,-1 v 2" />
      <path
         id="gpPt1"
         stroke-width="0.148"
         stroke="currentColor"
         d="M -1,-1 1,1 M 1,-1 -1,1" />
      <path
         id="gpPt2"
         stroke-width="0.148"
         stroke="currentColor"
         d="M -1,0 H 1 M 0,-1 v 2 m -1,-2 2,2 m -2,0 2,-2" />
      <rect
         id="gpPt3"
         stroke-width="0.148"
         stroke="currentColor"
         x="-1"
         y="-1"
         width="2"
         height="2" />
      <rect
         id="gpPt4"
         stroke-width="0.148"
         stroke="currentColor"
         fill="currentColor"
         x="-1"
         y="-1"
         width="2"
         height="2" />
      <circle
         id="gpPt5"
         stroke-width="0.148"
         stroke="currentColor"
         cx="0"
         cy="0"
         r="1" />
      <use
         xlink:href="#gpPt5"
         id="gpPt6"
         fill="currentColor"
         stroke="none"
         x="0"
         y="0"
         width="100%"
         height="100%" />
      <path
         id="gpPt7"
         stroke-width="0.148"
         stroke="currentColor"
         d="m 0,-1.33 -1.33,2 h 2.66 z" />
      <use
         xlink:href="#gpPt7"
         id="gpPt8"
         fill="currentColor"
         stroke="none"
         x="0"
         y="0"
         width="100%"
         height="100%" />
      <use
         xlink:href="#gpPt7"
         id="gpPt9"
         stroke="currentColor"
         transform="scale(-1)"
         x="0"
         y="0"
         width="100%"
         height="100%" />
      <use
         xlink:href="#gpPt9"
         id="gpPt10"
         fill="currentColor"
         stroke="none"
         x="0"
         y="0"
         width="100%"
         height="100%" />
      <use
         xlink:href="#gpPt3"
         id="gpPt11"
         stroke="currentColor"
         transform="rotate(45)"
         x="0"
         y="0"
         width="100%"
         height="100%" />
      <use
         xlink:href="#gpPt11"
         id="gpPt12"
         fill="currentColor"
         stroke="none"
         x="0"
         y="0"
         width="100%"
         height="100%" />
      <path
         id="gpPt13"
         stroke-width="0.148"
         stroke="currentColor"
         d="M 0,1.33 1.265,0.411 0.782,-1.067 -0.782,-1.076 -1.265,0.411 Z" />
      <use
         xlink:href="#gpPt13"
         id="gpPt14"
         fill="currentColor"
         stroke="none"
         x="0"
         y="0"
         width="100%"
         height="100%" />
      <filter
         id="textbox"
         filterUnits="objectBoundingBox"
         x="0"
         y="0"
         height="1"
         width="1">
        <feFlood
           flood-color="white"
           flood-opacity="1"
           result="bgnd"
           id="feFlood24" />
        <feComposite
           in="SourceGraphic"
           in2="bgnd"
           operator="atop"
           id="feComposite26" />
      </filter>
      <filter
         id="greybox"
         filterUnits="objectBoundingBox"
         x="0"
         y="0"
         height="1"
         width="1">
        <feFlood
           flood-color="lightgrey"
           flood-opacity="1"
           result="grey"
           id="feFlood29" />
        <feComposite
           in="SourceGraphic"
           in2="grey"
           operator="atop"
           id="feComposite31" />
      </filter>
    </defs>
  </defs>
  <sodipodi:namedview
     id="namedview279"
     pagecolor="#ffffff"
     bordercolor="#666666"
     borderopacity="1.0"
     inkscape:pageshadow="2"
     inkscape:pageopacity="0.0"
     inkscape:pagecheckerboard="0"
     showgrid="false"
     fit-margin-top="8"
     fit-margin-bottom="8"
     fit-margin-right="8"
     fit-margin-left="8"
     inkscape:zoom="1.1196396"
     inkscape:cx="277.76796"
     inkscape:cy="226.85872"
     inkscape:window-width="1858"
     inkscape:window-height="1057"
     inkscape:window-x="-8"
     inkscape:window-y="-8"
     inkscape:window-maximized="1"
     inkscape:current-layer="svg277" />
  <title
     id="title2">Gnuplot</title>
  <desc
     id="desc4">Produced by GNUPLOT 5.4 patchlevel 3 </desc>
  <g
     fill="none"
     color="#ffffff"
     stroke="currentColor"
     stroke-width="1"
     stroke-linecap="butt"
     stroke-linejoin="miter"
     id="g36"
     transform="translate(-639.24922,-146.22967)" />
  <g
     fill="none"
     color="#000000"
     stroke="currentColor"
     stroke-width="1"
     stroke-linecap="butt"
     stroke-linejoin="miter"
     id="g46"
     transform="translate(-25.658906,-18.51)">
    <path
       stroke="#000000"
       d="M 121.5,382.46 H 135 m 355.19,0 h -13.5"
       id="path38" />
    <g
       transform="translate(113.94,388.31)"
       stroke="none"
       fill="#000000"
       font-family="Arial"
       font-size="18px"
       text-anchor="end"
       id="g44">
      <text
         id="text42"><tspan
           font-family="Arial"
           id="tspan40">-0.06</tspan></text>
    </g>
  </g>
  <g
     fill="none"
     color="#000000"
     stroke="currentColor"
     stroke-width="1"
     stroke-linecap="butt"
     stroke-linejoin="miter"
     id="g56"
     transform="translate(-25.658906,-18.51)">
    <path
       stroke="#000000"
       d="M 121.5,327.77 H 135 m 355.19,0 h -13.5"
       id="path48" />
    <g
       transform="translate(113.94,333.62)"
       stroke="none"
       fill="#000000"
       font-family="Arial"
       font-size="18px"
       text-anchor="end"
       id="g54">
      <text
         id="text52"><tspan
           font-family="Arial"
           id="tspan50">-0.04</tspan></text>
    </g>
  </g>
  <g
     fill="none"
     color="#000000"
     stroke="currentColor"
     stroke-width="1"
     stroke-linecap="butt"
     stroke-linejoin="miter"
     id="g66"
     transform="translate(-25.658906,-18.51)">
    <path
       stroke="#000000"
       d="M 121.5,273.09 H 135 m 355.19,0 h -13.5"
       id="path58" />
    <g
       transform="translate(113.94,278.94)"
       stroke="none"
       fill="#000000"
       font-family="Arial"
       font-size="18px"
       text-anchor="end"
       id="g64">
      <text
         id="text62"><tspan
           font-family="Arial"
           id="tspan60">-0.02</tspan></text>
    </g>
  </g>
  <g
     fill="none"
     color="#000000"
     stroke="currentColor"
     stroke-width="1"
     stroke-linecap="butt"
     stroke-linejoin="miter"
     id="g76"
     transform="translate(-25.658906,-18.51)">
    <path
       stroke="#000000"
       d="M 121.5,218.4 H 135 m 355.19,0 h -13.5"
       id="path68" />
    <g
       transform="translate(113.94,224.25)"
       stroke="none"
       fill="#000000"
       font-family="Arial"
       font-size="18px"
       text-anchor="end"
       id="g74">
      <text
         id="text72"><tspan
           font-family="Arial"
           id="tspan70">0</tspan></text>
    </g>
  </g>
  <g
     fill="none"
     color="#000000"
     stroke="currentColor"
     stroke-width="1"
     stroke-linecap="butt"
     stroke-linejoin="miter"
     id="g86"
     transform="translate(-25.658906,-18.51)">
    <path
       stroke="#000000"
       d="M 121.5,163.72 H 135 m 355.19,0 h -13.5"
       id="path78" />
    <g
       transform="translate(113.94,169.57)"
       stroke="none"
       fill="#000000"
       font-family="Arial"
       font-size="18px"
       text-anchor="end"
       id="g84">
      <text
         id="text82"><tspan
           font-family="Arial"
           id="tspan80">0.02</tspan></text>
    </g>
  </g>
  <g
     fill="none"
     color="#000000"
     stroke="currentColor"
     stroke-width="1"
     stroke-linecap="butt"
     stroke-linejoin="miter"
     id="g96"
     transform="translate(-25.658906,-18.51)">
    <path
       stroke="#000000"
       d="M 121.5,109.04 H 135 m 355.19,0 h -13.5"
       id="path88" />
    <g
       transform="translate(113.94,114.89)"
       stroke="none"
       fill="#000000"
       font-family="Arial"
       font-size="18px"
       text-anchor="end"
       id="g94">
      <text
         id="text92"><tspan
           font-family="Arial"
           id="tspan90">0.04</tspan></text>
    </g>
  </g>
  <g
     fill="none"
     color="#000000"
     stroke="currentColor"
     stroke-width="1"
     stroke-linecap="butt"
     stroke-linejoin="miter"
     id="g106"
     transform="translate(-25.658906,-18.51)">
    <path
       stroke="#000000"
       d="M 121.5,54.35 H 135 m 355.19,0 h -13.5"
       id="path98" />
    <g
       transform="translate(113.94,60.2)"
       stroke="none"
       fill="#000000"
       font-family="Arial"
       font-size="18px"
       text-anchor="end"
       id="g104">
      <text
         id="text102"><tspan
           font-family="Arial"
           id="tspan100">0.06</tspan></text>
    </g>
  </g>
  <g
     fill="none"
     color="#000000"
     stroke="currentColor"
     stroke-width="1"
     stroke-linecap="butt"
     stroke-linejoin="miter"
     id="g120"
     transform="translate(-25.658906,-18.51)">
    <path
       stroke="#000000"
       d="m 121.5,409.8 v -13.5 m 0,-369.29 v 13.5"
       id="path108" />
    <g
       transform="translate(121.5,434.55)"
       stroke="none"
       fill="#000000"
       font-family="Arial"
       font-size="18px"
       text-anchor="middle"
       id="g118">
      <text
         id="text116"><tspan
           font-family="Arial"
           id="tspan110">-3×10</tspan><tspan
           font-family="Arial"
           font-size="14.4px"
           dy="-9"
           id="tspan112">8</tspan><tspan
           font-size="18px"
           dy="9"
           id="tspan114" /></text>
    </g>
  </g>
  <g
     fill="none"
     color="#000000"
     stroke="currentColor"
     stroke-width="1"
     stroke-linecap="butt"
     stroke-linejoin="miter"
     id="g134"
     transform="translate(-25.658906,-18.51)">
    <path
       stroke="#000000"
       d="m 182.95,409.8 v -13.5 m 0,-369.29 v 13.5"
       id="path122" />
    <g
       transform="translate(182.95,434.55)"
       stroke="none"
       fill="#000000"
       font-family="Arial"
       font-size="18px"
       text-anchor="middle"
       id="g132">
      <text
         id="text130"><tspan
           font-family="Arial"
           id="tspan124">-2×10</tspan><tspan
           font-family="Arial"
           font-size="14.4px"
           dy="-9"
           id="tspan126">8</tspan><tspan
           font-size="18px"
           dy="9"
           id="tspan128" /></text>
    </g>
  </g>
  <g
     fill="none"
     color="#000000"
     stroke="currentColor"
     stroke-width="1"
     stroke-linecap="butt"
     stroke-linejoin="miter"
     id="g148"
     transform="translate(-25.658906,-18.51)">
    <path
       stroke="#000000"
       d="m 244.4,409.8 v -13.5 m 0,-369.29 v 13.5"
       id="path136" />
    <g
       transform="translate(244.4,434.55)"
       stroke="none"
       fill="#000000"
       font-family="Arial"
       font-size="18px"
       text-anchor="middle"
       id="g146">
      <text
         id="text144"><tspan
           font-family="Arial"
           id="tspan138">-1×10</tspan><tspan
           font-family="Arial"
           font-size="14.4px"
           dy="-9"
           id="tspan140">8</tspan><tspan
           font-size="18px"
           dy="9"
           id="tspan142" /></text>
    </g>
  </g>
  <g
     fill="none"
     color="#000000"
     stroke="currentColor"
     stroke-width="1"
     stroke-linecap="butt"
     stroke-linejoin="miter"
     id="g158"
     transform="translate(-25.658906,-18.51)">
    <path
       stroke="#000000"
       d="m 305.85,409.8 v -13.5 m 0,-369.29 v 13.5"
       id="path150" />
    <g
       transform="translate(305.85,434.55)"
       stroke="none"
       fill="#000000"
       font-family="Arial"
       font-size="18px"
       text-anchor="middle"
       id="g156">
      <text
         id="text154"><tspan
           font-family="Arial"
           id="tspan152">0</tspan></text>
    </g>
  </g>
  <g
     fill="none"
     color="#000000"
     stroke="currentColor"
     stroke-width="1"
     stroke-linecap="butt"
     stroke-linejoin="miter"
     id="g172"
     transform="translate(-25.658906,-18.51)">
    <path
       stroke="#000000"
       d="m 367.29,409.8 v -13.5 m 0,-369.29 v 13.5"
       id="path160" />
    <g
       transform="translate(367.29,434.55)"
       stroke="none"
       fill="#000000"
       font-family="Arial"
       font-size="18px"
       text-anchor="middle"
       id="g170">
      <text
         id="text168"><tspan
           font-family="Arial"
           id="tspan162">1×10</tspan><tspan
           font-family="Arial"
           font-size="14.4px"
           dy="-9"
           id="tspan164">8</tspan><tspan
           font-size="18px"
           dy="9"
           id="tspan166" /></text>
    </g>
  </g>
  <g
     fill="none"
     color="#000000"
     stroke="currentColor"
     stroke-width="1"
     stroke-linecap="butt"
     stroke-linejoin="miter"
     id="g186"
     transform="translate(-25.658906,-18.51)">
    <path
       stroke="#000000"
       d="m 428.74,409.8 v -13.5 m 0,-369.29 v 13.5"
       id="path174" />
    <g
       transform="translate(428.74,434.55)"
       stroke="none"
       fill="#000000"
       font-family="Arial"
       font-size="18px"
       text-anchor="middle"
       id="g184">
      <text
         id="text182"><tspan
           font-family="Arial"
           id="tspan176">2×10</tspan><tspan
           font-family="Arial"
           font-size="14.4px"
           dy="-9"
           id="tspan178">8</tspan><tspan
           font-size="18px"
           dy="9"
           id="tspan180" /></text>
    </g>
  </g>
  <g
     fill="none"
     color="#000000"
     stroke="currentColor"
     stroke-width="1"
     stroke-linecap="butt"
     stroke-linejoin="miter"
     id="g200"
     transform="translate(-25.658906,-18.51)">
    <path
       stroke="#000000"
       d="m 490.19,409.8 v -13.5 m 0,-369.29 v 13.5"
       id="path188" />
    <g
       transform="translate(490.19,434.55)"
       stroke="none"
       fill="#000000"
       font-family="Arial"
       font-size="18px"
       text-anchor="middle"
       id="g198">
      <text
         id="text196"><tspan
           font-family="Arial"
           id="tspan190">3×10</tspan><tspan
           font-family="Arial"
           font-size="14.4px"
           dy="-9"
           id="tspan192">8</tspan><tspan
           font-size="18px"
           dy="9"
           id="tspan194" /></text>
    </g>
  </g>
  <g
     fill="none"
     color="#000000"
     stroke="currentColor"
     stroke-width="1"
     stroke-linecap="butt"
     stroke-linejoin="miter"
     id="g202"
     transform="translate(-639.24922,-146.22967)" />
  <g
     fill="none"
     color="#000000"
     stroke="currentColor"
     stroke-width="1"
     stroke-linecap="butt"
     stroke-linejoin="miter"
     id="g206"
     transform="translate(-25.658906,-18.51)">
    <path
       stroke="#000000"
       d="M 121.5,27.01 V 409.8 H 490.19 V 27.01 Z"
       id="path204" />
  </g>
  <g
     fill="none"
     color="#000000"
     stroke="currentColor"
     stroke-width="1"
     stroke-linecap="butt"
     stroke-linejoin="miter"
     id="g218"
     transform="translate(-25.658906,-18.51)">
    <g
       transform="rotate(-90,135.595,82.815)"
       stroke="none"
       fill="#000000"
       font-family="Arial"
       font-size="22px"
       text-anchor="middle"
       id="g216">
      <text
         id="text214"><tspan
           font-family="Arial"
           id="tspan208">Force (eV/</tspan><tspan
           font-family="Arial"
           id="tspan210">Å</tspan><tspan
           font-family="Arial"
           id="tspan212">)</tspan></text>
    </g>
  </g>
  <g
     fill="none"
     color="#000000"
     stroke="currentColor"
     stroke-width="1"
     stroke-linecap="butt"
     stroke-linejoin="miter"
     id="g226"
     transform="translate(-25.658906,-18.51)">
    <g
       transform="translate(305.84,468.25)"
       stroke="none"
       fill="#000000"
       font-family="Arial"
       font-size="22px"
       text-anchor="middle"
       id="g224">
      <text
         id="text222"><tspan
           font-family="Arial"
           id="tspan220">Electric field (V/m)</tspan></text>
    </g>
  </g>
  <g
     fill="none"
     color="#000000"
     stroke="currentColor"
     stroke-width="1"
     stroke-linecap="butt"
     stroke-linejoin="miter"
     id="g228"
     transform="translate(-639.24922,-146.22967)" />
  <g
     id="gnuplot_plot_1"
     transform="translate(-25.658906,-18.51)">
    <title
       id="title230">'results.txt' u 1:2</title>
    <g
       fill="none"
       color="#000000"
       stroke="currentColor"
       stroke-width="1"
       stroke-linecap="butt"
       stroke-linejoin="miter"
       id="g254">
      <use
         xlink:href="#gpPt6"
         transform="matrix(6.75,0,0,6.75,305.85,218.4)"
         color="#9400d3"
         id="use232"
         x="0"
         y="0"
         width="100%"
         height="100%" />
      <use
         xlink:href="#gpPt6"
         transform="matrix(6.75,0,0,6.75,337.44,187.15)"
         color="#9400d3"
         id="use234"
         x="0"
         y="0"
         width="100%"
         height="100%" />
      <use
         xlink:href="#gpPt6"
         transform="matrix(6.75,0,0,6.75,369.04,155.92)"
         color="#9400d3"
         id="use236"
         x="0"
         y="0"
         width="100%"
         height="100%" />
      <use
         xlink:href="#gpPt6"
         transform="matrix(6.75,0,0,6.75,400.64,124.72)"
         color="#9400d3"
         id="use238"
         x="0"
         y="0"
         width="100%"
         height="100%" />
      <use
         xlink:href="#gpPt6"
         transform="matrix(6.75,0,0,6.75,432.24,93.56)"
         color="#9400d3"
         id="use240"
         x="0"
         y="0"
         width="100%"
         height="100%" />
      <use
         xlink:href="#gpPt6"
         transform="matrix(6.75,0,0,6.75,463.84,62.43)"
         color="#9400d3"
         id="use242"
         x="0"
         y="0"
         width="100%"
         height="100%" />
      <use
         xlink:href="#gpPt6"
         transform="matrix(6.75,0,0,6.75,274.25,249.7)"
         color="#9400d3"
         id="use244"
         x="0"
         y="0"
         width="100%"
         height="100%" />
      <use
         xlink:href="#gpPt6"
         transform="matrix(6.75,0,0,6.75,242.65,281.02)"
         color="#9400d3"
         id="use246"
         x="0"
         y="0"
         width="100%"
         height="100%" />
      <use
         xlink:href="#gpPt6"
         transform="matrix(6.75,0,0,6.75,211.05,312.37)"
         color="#9400d3"
         id="use248"
         x="0"
         y="0"
         width="100%"
         height="100%" />
      <use
         xlink:href="#gpPt6"
         transform="matrix(6.75,0,0,6.75,179.45,343.76)"
         color="#9400d3"
         id="use250"
         x="0"
         y="0"
         width="100%"
         height="100%" />
      <use
         xlink:href="#gpPt6"
         transform="matrix(6.75,0,0,6.75,147.85,375.17)"
         color="#9400d3"
         id="use252"
         x="0"
         y="0"
         width="100%"
         height="100%" />
    </g>
  </g>
  <g
     id="gnuplot_plot_2"
     transform="translate(-25.658906,-18.51)">
    <title
       id="title257">f(x)</title>
    <g
       fill="none"
       color="#000000"
       stroke="currentColor"
       stroke-width="1"
       stroke-linecap="butt"
       stroke-linejoin="miter"
       id="g261">
      <path
         stroke="#009e73"
         d="m 121.5,400.87 3.72,-3.69 3.73,-3.69 3.72,-3.68 3.73,-3.69 3.72,-3.68 3.72,-3.69 3.73,-3.69 3.72,-3.68 3.73,-3.69 3.72,-3.69 3.73,-3.68 3.72,-3.69 3.72,-3.68 3.73,-3.69 3.72,-3.69 3.73,-3.68 3.72,-3.69 3.72,-3.68 3.73,-3.69 3.72,-3.69 3.73,-3.68 3.72,-3.69 3.73,-3.68 3.72,-3.69 3.72,-3.69 3.73,-3.68 3.72,-3.69 3.73,-3.68 3.72,-3.69 3.72,-3.69 3.73,-3.68 3.72,-3.69 3.73,-3.68 3.72,-3.69 3.72,-3.69 3.73,-3.68 3.72,-3.69 3.73,-3.69 3.72,-3.68 3.73,-3.69 3.72,-3.68 3.72,-3.69 3.73,-3.69 3.72,-3.68 3.73,-3.69 3.72,-3.68 3.72,-3.69 3.73,-3.69 3.72,-3.68 3.73,-3.69 3.72,-3.68 3.73,-3.69 3.72,-3.69 3.72,-3.68 3.73,-3.69 3.72,-3.68 3.73,-3.69 3.72,-3.69 3.72,-3.68 3.73,-3.69 3.72,-3.68 3.73,-3.69 3.72,-3.69 3.73,-3.68 3.72,-3.69 3.72,-3.69 3.73,-3.68 3.72,-3.69 3.73,-3.68 3.72,-3.69 3.72,-3.69 3.73,-3.68 3.72,-3.69 3.73,-3.68 3.72,-3.69 3.72,-3.69 3.73,-3.68 3.72,-3.69 3.73,-3.68 3.72,-3.69 3.73,-3.69 3.72,-3.68 3.72,-3.69 3.73,-3.68 3.72,-3.69 3.73,-3.69 3.72,-3.68 3.72,-3.69 3.73,-3.68 3.72,-3.69 3.73,-3.69 3.72,-3.68 3.73,-3.69 3.72,-3.69 3.72,-3.68 3.73,-3.69 3.72,-3.68 3.73,-3.69 3.72,-3.69"
         id="path259" />
    </g>
  </g>
  <g
     fill="none"
     color="#ffffff"
     stroke="#009e73"
     stroke-width="2"
     stroke-linecap="butt"
     stroke-linejoin="miter"
     id="g264"
     transform="translate(-639.24922,-146.22967)" />
  <g
     fill="none"
     color="#000000"
     stroke="currentColor"
     stroke-width="2"
     stroke-linecap="butt"
     stroke-linejoin="miter"
     id="g266"
     transform="translate(-639.24922,-146.22967)" />
  <g
     fill="none"
     color="#000000"
     stroke="#000000"
     stroke-width="1"
     stroke-linecap="butt"
     stroke-linejoin="miter"
     id="g268"
     transform="translate(-639.24922,-146.22967)" />
  <g
     fill="none"
     color="#000000"
     stroke="currentColor"
     stroke-width="1"
     stroke-linecap="butt"
     stroke-linejoin="miter"
     id="g272"
     transform="translate(-25.658906,-18.51)">
    <path
       stroke="#000000"
       d="M 121.5,27.01 V 409.8 H 490.19 V 27.01 Z"
       id="path270" />
  </g>
  <g
     fill="none"
     color="#000000"
     stroke="currentColor"
     stroke-width="1"
     stroke-linecap="butt"
     stroke-linejoin="miter"
     id="g274"
     transform="translate(-639.24922,-146.22967)" />
  <metadata
     id="metadata283">
    <rdf:RDF>
      <cc:Work
         rdf:about="">
        <dc:title>Gnuplot</dc:title>
      </cc:Work>
    </rdf:RDF>
  </metadata>
</svg>
