<?xml version="1.0" encoding="UTF-8" standalone="no"?>
<svg
   width="587.88599"
   height="472.50699"
   viewBox="0 0 587.88599 472.50699"
   version="1.1"
   id="svg284"
   sodipodi:docname="wf.svg"
   inkscape:version="1.2 (dc2aedaf03, 2022-05-15)"
   xmlns:inkscape="http://www.inkscape.org/namespaces/inkscape"
   xmlns:sodipodi="http://sodipodi.sourceforge.net/DTD/sodipodi-0.dtd"
   xmlns:xlink="http://www.w3.org/1999/xlink"
   xmlns="http://www.w3.org/2000/svg"
   xmlns:svg="http://www.w3.org/2000/svg"
   xmlns:rdf="http://www.w3.org/1999/02/22-rdf-syntax-ns#"
   xmlns:cc="http://creativecommons.org/ns#"
   xmlns:dc="http://purl.org/dc/elements/1.1/">
  <defs
     id="defs288">
    <defs
       id="defs34">
      <circle
         id="gpDot"
         r="0.5"
         stroke-width="0.5"
         stroke="currentColor"
         cx="0"
         cy="0" />
      <path
         id="gpPt0"
         stroke-width="0.222"
         stroke="currentColor"
         d="M -1,0 H 1 M 0,-1 v 2" />
      <path
         id="gpPt1"
         stroke-width="0.222"
         stroke="currentColor"
         d="M -1,-1 1,1 M 1,-1 -1,1" />
      <path
         id="gpPt2"
         stroke-width="0.222"
         stroke="currentColor"
         d="M -1,0 H 1 M 0,-1 v 2 m -1,-2 2,2 m -2,0 2,-2" />
      <rect
         id="gpPt3"
         stroke-width="0.222"
         stroke="currentColor"
         x="-1"
         y="-1"
         width="2"
         height="2" />
      <rect
         id="gpPt4"
         stroke-width="0.222"
         stroke="currentColor"
         fill="currentColor"
         x="-1"
         y="-1"
         width="2"
         height="2" />
      <circle
         id="gpPt5"
         stroke-width="0.222"
         stroke="currentColor"
         cx="0"
         cy="0"
         r="1" />
      <use
         xlink:href="#gpPt5"
         id="gpPt6"
         fill="currentColor"
         stroke="none" />
      <path
         id="gpPt7"
         stroke-width="0.222"
         stroke="currentColor"
         d="m 0,-1.33 -1.33,2 h 2.66 z" />
      <use
         xlink:href="#gpPt7"
         id="gpPt8"
         fill="currentColor"
         stroke="none" />
      <use
         xlink:href="#gpPt7"
         id="gpPt9"
         stroke="currentColor"
         transform="scale(-1)" />
      <use
         xlink:href="#gpPt9"
         id="gpPt10"
         fill="currentColor"
         stroke="none" />
      <use
         xlink:href="#gpPt3"
         id="gpPt11"
         stroke="currentColor"
         transform="rotate(45)" />
      <use
         xlink:href="#gpPt11"
         id="gpPt12"
         fill="currentColor"
         stroke="none" />
      <path
         id="gpPt13"
         stroke-width="0.222"
         stroke="currentColor"
         d="M 0,1.33 1.265,0.411 0.782,-1.067 -0.782,-1.076 -1.265,0.411 Z" />
      <use
         xlink:href="#gpPt13"
         id="gpPt14"
         fill="currentColor"
         stroke="none" />
      <filter
         id="textbox"
         filterUnits="objectBoundingBox"
         x="0"
         y="0"
         height="1"
         width="1">
        <feFlood
           flood-color="white"
           flood-opacity="1"
           result="bgnd"
           id="feFlood24" />
        <feComposite
           in="SourceGraphic"
           in2="bgnd"
           operator="atop"
           id="feComposite26" />
      </filter>
      <filter
         id="greybox"
         filterUnits="objectBoundingBox"
         x="0"
         y="0"
         height="1"
         width="1">
        <feFlood
           flood-color="lightgrey"
           flood-opacity="1"
           result="grey"
           id="feFlood29" />
        <feComposite
           in="SourceGraphic"
           in2="grey"
           operator="atop"
           id="feComposite31" />
      </filter>
    </defs>
  </defs>
  <sodipodi:namedview
     id="namedview286"
     pagecolor="#ffffff"
     bordercolor="#666666"
     borderopacity="1.0"
     inkscape:showpageshadow="2"
     inkscape:pageopacity="0.0"
     inkscape:pagecheckerboard="0"
     inkscape:deskcolor="#d1d1d1"
     showgrid="false"
     inkscape:zoom="1.2969159"
     inkscape:cx="288.37646"
     inkscape:cy="229.77589"
     inkscape:window-width="1858"
     inkscape:window-height="1057"
     inkscape:window-x="-8"
     inkscape:window-y="-8"
     inkscape:window-maximized="1"
     inkscape:current-layer="svg284" />
  <title
     id="title2">Gnuplot</title>
  <desc
     id="desc4">Produced by GNUPLOT 5.4 patchlevel 3 </desc>
  <g
     fill="none"
     color="#ffffff"
     stroke="currentColor"
     stroke-width="1"
     stroke-linecap="butt"
     stroke-linejoin="miter"
     id="g36"
     transform="translate(-658.2555,-74.212604)" />
  <g
     fill="none"
     color="#000000"
     stroke="currentColor"
     stroke-width="1"
     stroke-linecap="butt"
     stroke-linejoin="miter"
     id="g46"
     transform="translate(-2.0833984,-8.6725)">
    <path
       stroke="#000000"
       d="m 72.53,426 h 9 m 493.29,0 h -9"
       id="path38" />
    <g
       transform="translate(64.97,431.85)"
       stroke="none"
       fill="#000000"
       font-family="Arial"
       font-size="18px"
       text-anchor="end"
       id="g44">
      <text
         id="text42"><tspan
           font-family="Arial"
           id="tspan40">-0.7</tspan></text>
    </g>
  </g>
  <g
     fill="none"
     color="#000000"
     stroke="currentColor"
     stroke-width="1"
     stroke-linecap="butt"
     stroke-linejoin="miter"
     id="g56"
     transform="translate(-2.0833984,-8.6725)">
    <path
       stroke="#000000"
       d="m 72.53,368.54 h 9 m 493.29,0 h -9"
       id="path48" />
    <g
       transform="translate(64.97,374.39)"
       stroke="none"
       fill="#000000"
       font-family="Arial"
       font-size="18px"
       text-anchor="end"
       id="g54">
      <text
         id="text52"><tspan
           font-family="Arial"
           id="tspan50">-0.6</tspan></text>
    </g>
  </g>
  <g
     fill="none"
     color="#000000"
     stroke="currentColor"
     stroke-width="1"
     stroke-linecap="butt"
     stroke-linejoin="miter"
     id="g66"
     transform="translate(-2.0833984,-8.6725)">
    <path
       stroke="#000000"
       d="m 72.53,311.07 h 9 m 493.29,0 h -9"
       id="path58" />
    <g
       transform="translate(64.97,316.92)"
       stroke="none"
       fill="#000000"
       font-family="Arial"
       font-size="18px"
       text-anchor="end"
       id="g64">
      <text
         id="text62"><tspan
           font-family="Arial"
           id="tspan60">-0.5</tspan></text>
    </g>
  </g>
  <g
     fill="none"
     color="#000000"
     stroke="currentColor"
     stroke-width="1"
     stroke-linecap="butt"
     stroke-linejoin="miter"
     id="g76"
     transform="translate(-2.0833984,-8.6725)">
    <path
       stroke="#000000"
       d="m 72.53,253.61 h 9 m 493.29,0 h -9"
       id="path68" />
    <g
       transform="translate(64.97,259.46)"
       stroke="none"
       fill="#000000"
       font-family="Arial"
       font-size="18px"
       text-anchor="end"
       id="g74">
      <text
         id="text72"><tspan
           font-family="Arial"
           id="tspan70">-0.4</tspan></text>
    </g>
  </g>
  <g
     fill="none"
     color="#000000"
     stroke="currentColor"
     stroke-width="1"
     stroke-linecap="butt"
     stroke-linejoin="miter"
     id="g86"
     transform="translate(-2.0833984,-8.6725)">
    <path
       stroke="#000000"
       d="m 72.53,196.15 h 9 m 493.29,0 h -9"
       id="path78" />
    <g
       transform="translate(64.97,202)"
       stroke="none"
       fill="#000000"
       font-family="Arial"
       font-size="18px"
       text-anchor="end"
       id="g84">
      <text
         id="text82"><tspan
           font-family="Arial"
           id="tspan80">-0.3</tspan></text>
    </g>
  </g>
  <g
     fill="none"
     color="#000000"
     stroke="currentColor"
     stroke-width="1"
     stroke-linecap="butt"
     stroke-linejoin="miter"
     id="g96"
     transform="translate(-2.0833984,-8.6725)">
    <path
       stroke="#000000"
       d="m 72.53,138.68 h 9 m 493.29,0 h -9"
       id="path88" />
    <g
       transform="translate(64.97,144.53)"
       stroke="none"
       fill="#000000"
       font-family="Arial"
       font-size="18px"
       text-anchor="end"
       id="g94">
      <text
         id="text92"><tspan
           font-family="Arial"
           id="tspan90">-0.2</tspan></text>
    </g>
  </g>
  <g
     fill="none"
     color="#000000"
     stroke="currentColor"
     stroke-width="1"
     stroke-linecap="butt"
     stroke-linejoin="miter"
     id="g106"
     transform="translate(-2.0833984,-8.6725)">
    <path
       stroke="#000000"
       d="m 72.53,81.22 h 9 m 493.29,0 h -9"
       id="path98" />
    <g
       transform="translate(64.97,87.07)"
       stroke="none"
       fill="#000000"
       font-family="Arial"
       font-size="18px"
       text-anchor="end"
       id="g104">
      <text
         id="text102"><tspan
           font-family="Arial"
           id="tspan100">-0.1</tspan></text>
    </g>
  </g>
  <g
     fill="none"
     color="#000000"
     stroke="currentColor"
     stroke-width="1"
     stroke-linecap="butt"
     stroke-linejoin="miter"
     id="g116"
     transform="translate(-2.0833984,-8.6725)">
    <path
       stroke="#000000"
       d="m 72.53,23.76 h 9 m 493.29,0 h -9"
       id="path108" />
    <g
       transform="translate(64.97,29.61)"
       stroke="none"
       fill="#000000"
       font-family="Arial"
       font-size="18px"
       text-anchor="end"
       id="g114">
      <text
         id="text112"><tspan
           font-family="Arial"
           id="tspan110">0</tspan></text>
    </g>
  </g>
  <g
     fill="none"
     color="#000000"
     stroke="currentColor"
     stroke-width="1"
     stroke-linecap="butt"
     stroke-linejoin="miter"
     id="g126"
     transform="translate(-2.0833984,-8.6725)">
    <path
       stroke="#000000"
       d="m 72.53,426 v -9 m 0,-398.99 v 9"
       id="path118" />
    <g
       transform="translate(72.53,446.25)"
       stroke="none"
       fill="#000000"
       font-family="Arial"
       font-size="18px"
       text-anchor="middle"
       id="g124">
      <text
         id="text122"><tspan
           font-family="Arial"
           id="tspan120">0</tspan></text>
    </g>
  </g>
  <g
     fill="none"
     color="#000000"
     stroke="currentColor"
     stroke-width="1"
     stroke-linecap="butt"
     stroke-linejoin="miter"
     id="g136"
     transform="translate(-2.0833984,-8.6725)">
    <path
       stroke="#000000"
       d="m 144.29,426 v -9 m 0,-398.99 v 9"
       id="path128" />
    <g
       transform="translate(144.29,446.25)"
       stroke="none"
       fill="#000000"
       font-family="Arial"
       font-size="18px"
       text-anchor="middle"
       id="g134">
      <text
         id="text132"><tspan
           font-family="Arial"
           id="tspan130">10</tspan></text>
    </g>
  </g>
  <g
     fill="none"
     color="#000000"
     stroke="currentColor"
     stroke-width="1"
     stroke-linecap="butt"
     stroke-linejoin="miter"
     id="g146"
     transform="translate(-2.0833984,-8.6725)">
    <path
       stroke="#000000"
       d="m 216.04,426 v -9 m 0,-398.99 v 9"
       id="path138" />
    <g
       transform="translate(216.04,446.25)"
       stroke="none"
       fill="#000000"
       font-family="Arial"
       font-size="18px"
       text-anchor="middle"
       id="g144">
      <text
         id="text142"><tspan
           font-family="Arial"
           id="tspan140">20</tspan></text>
    </g>
  </g>
  <g
     fill="none"
     color="#000000"
     stroke="currentColor"
     stroke-width="1"
     stroke-linecap="butt"
     stroke-linejoin="miter"
     id="g156"
     transform="translate(-2.0833984,-8.6725)">
    <path
       stroke="#000000"
       d="m 287.8,426 v -9 m 0,-398.99 v 9"
       id="path148" />
    <g
       transform="translate(287.8,446.25)"
       stroke="none"
       fill="#000000"
       font-family="Arial"
       font-size="18px"
       text-anchor="middle"
       id="g154">
      <text
         id="text152"><tspan
           font-family="Arial"
           id="tspan150">30</tspan></text>
    </g>
  </g>
  <g
     fill="none"
     color="#000000"
     stroke="currentColor"
     stroke-width="1"
     stroke-linecap="butt"
     stroke-linejoin="miter"
     id="g166"
     transform="translate(-2.0833984,-8.6725)">
    <path
       stroke="#000000"
       d="m 359.55,426 v -9 m 0,-398.99 v 9"
       id="path158" />
    <g
       transform="translate(359.55,446.25)"
       stroke="none"
       fill="#000000"
       font-family="Arial"
       font-size="18px"
       text-anchor="middle"
       id="g164">
      <text
         id="text162"><tspan
           font-family="Arial"
           id="tspan160">40</tspan></text>
    </g>
  </g>
  <g
     fill="none"
     color="#000000"
     stroke="currentColor"
     stroke-width="1"
     stroke-linecap="butt"
     stroke-linejoin="miter"
     id="g176"
     transform="translate(-2.0833984,-8.6725)">
    <path
       stroke="#000000"
       d="m 431.31,426 v -9 m 0,-398.99 v 9"
       id="path168" />
    <g
       transform="translate(431.31,446.25)"
       stroke="none"
       fill="#000000"
       font-family="Arial"
       font-size="18px"
       text-anchor="middle"
       id="g174">
      <text
         id="text172"><tspan
           font-family="Arial"
           id="tspan170">50</tspan></text>
    </g>
  </g>
  <g
     fill="none"
     color="#000000"
     stroke="currentColor"
     stroke-width="1"
     stroke-linecap="butt"
     stroke-linejoin="miter"
     id="g186"
     transform="translate(-2.0833984,-8.6725)">
    <path
       stroke="#000000"
       d="m 503.06,426 v -9 m 0,-398.99 v 9"
       id="path178" />
    <g
       transform="translate(503.06,446.25)"
       stroke="none"
       fill="#000000"
       font-family="Arial"
       font-size="18px"
       text-anchor="middle"
       id="g184">
      <text
         id="text182"><tspan
           font-family="Arial"
           id="tspan180">60</tspan></text>
    </g>
  </g>
  <g
     fill="none"
     color="#000000"
     stroke="currentColor"
     stroke-width="1"
     stroke-linecap="butt"
     stroke-linejoin="miter"
     id="g196"
     transform="translate(-2.0833984,-8.6725)">
    <path
       stroke="#000000"
       d="m 574.82,426 v -9 m 0,-398.99 v 9"
       id="path188" />
    <g
       transform="translate(574.82,446.25)"
       stroke="none"
       fill="#000000"
       font-family="Arial"
       font-size="18px"
       text-anchor="middle"
       id="g194">
      <text
         id="text192"><tspan
           font-family="Arial"
           id="tspan190">70</tspan></text>
    </g>
  </g>
  <g
     fill="none"
     color="#000000"
     stroke="currentColor"
     stroke-width="1"
     stroke-linecap="butt"
     stroke-linejoin="miter"
     id="g198"
     transform="translate(-658.2555,-74.212604)" />
  <g
     fill="none"
     color="#000000"
     stroke="currentColor"
     stroke-width="1"
     stroke-linecap="butt"
     stroke-linejoin="miter"
     id="g202"
     transform="translate(-2.0833984,-8.6725)">
    <path
       stroke="#000000"
       d="M 72.53,18.01 V 426 H 574.82 V 18.01 Z"
       id="path200" />
  </g>
  <g
     fill="none"
     color="#000000"
     stroke="currentColor"
     stroke-width="1"
     stroke-linecap="butt"
     stroke-linejoin="miter"
     id="g210"
     transform="translate(-2.0833984,-8.6725)">
    <g
       transform="rotate(-90,123.055,98.955)"
       stroke="none"
       fill="#000000"
       font-family="Arial"
       font-size="22px"
       text-anchor="middle"
       id="g208">
      <text
         id="text206"><tspan
           font-family="Arial"
           id="tspan204">v0 (Hartree)</tspan></text>
    </g>
  </g>
  <g
     fill="none"
     color="#000000"
     stroke="currentColor"
     stroke-width="1"
     stroke-linecap="butt"
     stroke-linejoin="miter"
     id="g222"
     transform="translate(-2.0833984,-12.6725)">
    <g
       transform="translate(323.67,474.55)"
       stroke="none"
       fill="#000000"
       font-family="Arial"
       font-size="22px"
       text-anchor="middle"
       id="g220">
      <text
         id="text218"><tspan
           font-family="Arial"
           id="tspan212">x (</tspan><tspan
           font-family="Arial"
           id="tspan214">Å</tspan><tspan
           font-family="Arial"
           id="tspan216">)</tspan></text>
    </g>
  </g>
  <g
     fill="none"
     color="#000000"
     stroke="currentColor"
     stroke-width="1"
     stroke-linecap="butt"
     stroke-linejoin="miter"
     id="g224"
     transform="translate(-658.2555,-74.212604)" />
  <g
     id="gnuplot_plot_1"
     transform="translate(-2.0833984,-8.6725)">
    <title
       id="title226">Au (111)</title>
    <g
       fill="none"
       color="#000000"
       stroke="currentColor"
       stroke-width="1"
       stroke-linecap="butt"
       stroke-linejoin="miter"
       id="g234">
      <g
         transform="translate(464.03,211.2)"
         stroke="none"
         fill="#000000"
         font-family="Arial"
         font-size="14px"
         text-anchor="end"
         id="g232">
        <text
           id="text230"><tspan
             font-family="Arial"
             id="tspan228">Au (111)</tspan></text>
      </g>
    </g>
    <g
       fill="none"
       color="#000000"
       stroke="currentColor"
       stroke-width="1"
       stroke-linecap="butt"
       stroke-linejoin="miter"
       id="g238">
      <path
         stroke="#9400d3"
         d="m 473.82,206.65 h 48.16 M 72.53,23.78 h 0.69 0.69 0.69 0.69 0.69 0.69 0.69 0.69 0.69 0.68 0.69 0.69 0.69 0.69 0.69 0.69 0.69 0.69 0.69 0.69 0.69 0.69 0.69 0.69 0.69 0.69 0.69 0.68 0.69 0.69 0.69 0.69 0.69 0.69 0.69 0.69 0.69 0.69 0.69 0.69 0.69 0.69 0.69 0.69 0.69 0.68 0.69 0.69 0.69 0.69 0.69 0.69 0.69 0.69 0.69 0.69 0.69 0.69 0.69 0.69 0.69 0.69 0.69 0.68 0.69 0.69 0.69 0.69 0.69 0.69 0.69 0.69 0.69 0.69 0.69 0.69 0.69 0.69 0.69 0.69 0.69 0.68 0.69 0.69 0.69 l 0.69,-0.01 h 0.69 0.69 0.69 0.69 0.69 0.69 0.69 0.69 0.69 0.69 0.69 0.69 0.69 0.68 0.69 0.69 0.69 0.69 0.69 0.69 0.69 0.69 0.69 0.69 l 0.69,0.02 0.69,0.01 0.69,0.02 0.69,0.02 0.69,0.01 0.69,0.02 0.69,0.01 0.68,0.01 h 0.69 l 0.69,0.01 h 0.69 0.69 0.69 0.69 0.69 0.69 l 0.69,-0.01 h 0.69 0.69 0.69 0.69 0.69 0.69 l 0.69,0.01 h 0.69 0.68 l 0.69,0.01 0.69,0.01 0.69,0.01 h 0.69 l 0.69,0.01 h 0.69 0.69 0.69 0.69 l 0.69,-0.01 h 0.69 0.69 0.69 l 0.69,-0.01 h 0.69 0.69 0.69 0.69 0.68 0.69 l 0.69,0.01 0.69,0.01 0.69,0.02 0.69,0.02 0.69,0.01 0.69,0.02 0.69,0.02 0.69,0.02 0.69,0.01 0.69,0.01 h 0.69 0.69 0.69 l 0.69,-0.01 0.69,-0.01 h 0.69 0.68 0.69 0.69 0.69 l 0.69,0.01 h 0.69 0.69 0.69 0.69 l 0.69,0.02 0.69,0.03 0.69,0.03 0.69,0.04 0.69,0.04 0.69,0.03 0.69,0.03 0.69,0.03 0.69,0.02 0.68,0.02 h 0.69 l 0.69,0.01 0.69,-0.01 0.69,-0.01 0.69,-0.01 h 0.69 l 0.69,-0.01 h 0.69 0.69 l 0.69,0.01 0.69,0.01 0.69,0.02 0.69,0.01 0.69,0.01 0.69,0.04 0.69,0.06 0.69,0.08 0.68,0.06 0.69,0.06 0.69,0.06 0.69,0.06 0.69,0.06 0.69,0.05 0.69,0.03 0.69,0.03 0.69,0.01 0.69,-0.02 0.69,-0.01 0.69,-0.01 0.69,0.01 0.69,0.02 0.69,-0.01 0.69,0.01 h 0.69 l 0.69,-0.01 0.68,0.06 0.69,0.01 0.69,0.01 0.69,0.08 0.69,0.11 0.69,0.15 0.69,0.15 0.69,0.14 0.69,0.13 0.69,0.15 0.69,0.15 0.69,0.1 0.69,0.08 0.69,-0.03 0.69,0.28 0.69,-0.05 0.69,-0.12 0.69,0.25 0.68,-0.07 0.69,0.06 0.69,0.11 0.69,0.14 0.69,0.16 0.69,0.18 0.69,0.14 0.69,0.12 0.69,0.13 0.69,0.11 0.69,0.1 0.69,0.17 0.69,0.24 0.69,0.33 0.69,0.47 0.69,0.53 0.69,0.54 0.69,0.53 0.68,0.51 0.69,0.5 0.69,0.55 0.69,0.61 0.69,0.63 0.69,0.61 0.69,0.66 0.69,0.75 0.69,0.83 0.69,0.86 0.69,0.75 0.69,0.81 0.69,1.45 0.69,1.48 0.69,1.13 0.69,1.17 0.69,1.09 0.69,1.12 0.68,1.21 0.69,1.42 0.69,2.45 0.69,2.56 0.69,2.04 0.69,2.27 0.69,2.26 0.69,2.51 0.69,2.75 0.69,2.92 0.69,2.97 0.69,2.9 0.69,2.86 0.69,3.16 0.69,3.83 0.69,4.56 0.69,5.19 0.69,5.96 0.69,7.02 0.68,8.32 0.69,9.75 0.69,11.07 0.69,12.1 0.69,12.96 0.69,13.77 0.69,14.75 0.69,15.93 0.69,17.29 0.69,18.91 0.69,20.92 0.69,23.3 0.69,25.77 0.69,27.47 0.69,26.29 0.69,21.64 0.69,15.28 0.69,9.1 0.68,4.37 0.69,0.47 0.69,-3.45 0.69,-8.14 0.69,-14.23 0.69,-20.43 0.69,-24.69 0.69,-25.25 0.69,-22.47 0.69,-18.53 0.69,-14.29 0.69,-10.06 0.69,-5.66 0.69,-0.96 0.69,3.93 0.69,8.67 0.69,13.11 0.69,17.36 0.68,21.37 0.69,24.7 0.69,25.78 0.69,22.97 0.69,17.36 0.69,11 0.69,5.7 0.69,1.75 0.69,-1.86 0.69,-5.84 0.69,-11.08 0.69,-17.41 0.69,-22.96 0.69,-25.7 0.69,-24.48 0.69,-21.04 0.69,-16.9 0.69,-12.6 0.68,-8.22 0.69,-3.6 0.69,1.19 0.69,5.92 0.69,10.41 0.69,14.75 0.69,18.98 0.69,22.86 0.69,25.46 0.69,24.72 0.69,20.31 0.69,14.11 0.69,8.14 0.69,3.65 h 0.69 l 0.69,-3.65 0.69,-8.14 0.69,-14.11 0.68,-20.31 0.69,-24.72 0.69,-25.46 0.69,-22.86 0.69,-18.98 0.69,-14.75 0.69,-10.41 0.69,-5.92 0.69,-1.19 0.69,3.6 0.69,8.22 0.69,12.6 0.69,16.9 0.69,21.04 0.69,24.48 0.69,25.7 0.69,22.96 0.69,17.41 0.68,11.08 0.69,5.84 0.69,1.86 0.69,-1.75 0.69,-5.7 0.69,-11 0.69,-17.36 0.69,-22.97 0.69,-25.78 0.69,-24.7 0.69,-21.37 0.69,-17.36 0.69,-13.11 0.69,-8.67 0.69,-3.93 0.69,0.96 0.69,5.66 0.69,10.06 0.68,14.29 0.69,18.53 0.69,22.47 0.69,25.25 0.69,24.69 0.69,20.43 0.69,14.23 0.69,8.14 0.69,3.45 0.69,-0.47 0.69,-4.37 0.69,-9.1 0.69,-15.28 0.69,-21.64 0.69,-26.29 0.69,-27.47 0.69,-25.77 0.69,-23.3 0.69,-20.92 0.68,-18.91 0.69,-17.29 0.69,-15.93 0.69,-14.75 0.69,-13.77 0.69,-12.96 0.69,-12.1 0.69,-11.07 0.69,-9.75 0.69,-8.32 0.69,-7.02 0.69,-5.96 0.69,-5.19 0.69,-4.56 0.69,-3.83 0.69,-3.16 0.69,-2.86 0.69,-2.9 0.68,-2.97 0.69,-2.92 0.69,-2.75 0.69,-2.51 0.69,-2.26 0.69,-2.27 0.69,-2.04 0.69,-2.56 0.69,-2.45 0.69,-1.42 0.69,-1.21 0.69,-1.12 0.69,-1.09 0.69,-1.17 0.69,-1.13 0.69,-1.48 0.69,-1.45 0.69,-0.81 0.68,-0.75 0.69,-0.86 0.69,-0.83 0.69,-0.75 0.69,-0.66 0.69,-0.61 0.69,-0.63 0.69,-0.61 0.69,-0.55 0.69,-0.5 0.69,-0.51 0.69,-0.53 0.69,-0.54 0.69,-0.53 0.69,-0.47 0.69,-0.33 0.69,-0.24 0.69,-0.17 0.68,-0.1 0.69,-0.11 0.69,-0.13 0.69,-0.12 0.69,-0.14 0.69,-0.18 0.69,-0.16 0.69,-0.14 0.69,-0.11 0.69,-0.06 0.69,0.07 0.69,-0.25 0.69,0.12 0.69,0.05 0.69,-0.28 0.69,0.03 0.69,-0.08 0.69,-0.1 0.68,-0.15 0.69,-0.15 0.69,-0.13 0.69,-0.14 0.69,-0.15 0.69,-0.15 0.69,-0.11 0.69,-0.08 0.69,-0.01 0.69,-0.01 0.69,-0.06 0.69,0.01 h 0.69 l 0.69,-0.01 0.69,0.01 0.69,-0.02 0.69,-0.01 0.69,0.01 0.68,0.01 0.69,0.02 0.69,-0.01 0.69,-0.03 0.69,-0.03 0.69,-0.05 0.69,-0.06 0.69,-0.06 0.69,-0.06 0.69,-0.06 0.69,-0.06 0.69,-0.08 0.69,-0.06 0.69,-0.04 0.69,-0.01 0.69,-0.01 0.69,-0.02 0.69,-0.01 0.68,-0.01 h 0.69 0.69 l 0.69,0.01 h 0.69 l 0.69,0.01 0.69,0.01 0.69,0.01 0.69,-0.01 h 0.69 l 0.69,-0.02 0.69,-0.02 0.69,-0.03 0.69,-0.03 0.69,-0.03 0.69,-0.04 0.69,-0.04 0.69,-0.03 0.68,-0.03 0.69,-0.02 h 0.69 0.69 0.69 0.69 l 0.69,-0.01 h 0.69 0.69 0.69 0.69 0.69 l 0.69,0.01 0.69,0.01 h 0.69 0.69 0.69 l 0.69,-0.01 0.69,-0.01 0.68,-0.02 0.69,-0.02 0.69,-0.02 0.69,-0.01 0.69,-0.02 0.69,-0.02 0.69,-0.01 0.69,-0.01 h 0.69 0.69 0.69 0.69 0.69 0.69 l 0.69,0.01 h 0.69 0.69 0.69 l 0.68,0.01 h 0.69 0.69 0.69 0.69 l 0.69,-0.01 h 0.69 l 0.69,-0.01 0.69,-0.01 0.69,-0.01 h 0.69 0.69 l 0.69,-0.01 h 0.69 0.69 0.69 0.69 0.69 0.68 l 0.69,0.01 h 0.69 0.69 0.69 0.69 0.69 0.69 l 0.69,-0.01 h 0.69 l 0.69,-0.01 0.69,-0.01 0.69,-0.02 0.69,-0.01 0.69,-0.02 0.69,-0.02 0.69,-0.01 0.69,-0.02 h 0.68 0.69 0.69 0.69 0.69 0.69 0.69 0.69 0.69 0.69 0.69 0.69 0.69 0.69 0.69 0.69 0.69 0.69 0.68 0.69 0.69 0.69 0.69 0.69 l 0.69,0.01 h 0.69 0.69 0.69 0.69 0.69 0.69 0.69 0.69 0.69 0.69 0.69 0.68 0.69 0.69 0.69 0.69 0.69 0.69 0.69 0.69 0.69 0.69 0.69 0.69 0.69 0.69 0.69 0.69 0.69 0.68 0.69 0.69 0.69 0.69 0.69 0.69 0.69 0.69 0.69 0.69 0.69 0.69 0.69 0.69 0.69 0.69 0.69 0.68 0.69 0.69 0.69 0.69 0.69 0.69 0.69 0.69 0.69 0.69 0.69 0.69 0.69 0.69 0.69 0.69 0.69 0.69 0.68 0.69 0.69 0.69 0.69 0.69 0.69 0.69 0.69 0.69 0.69 0.69 0.37"
         id="path236" />
    </g>
  </g>
  <g
     id="gnuplot_plot_2"
     transform="translate(-2.0833984,-8.6725)">
    <title
       id="title241">Ag (111)</title>
    <g
       fill="none"
       color="#000000"
       stroke="currentColor"
       stroke-width="1"
       stroke-linecap="butt"
       stroke-linejoin="miter"
       id="g249">
      <g
         transform="translate(464.03,232.2)"
         stroke="none"
         fill="#000000"
         font-family="Arial"
         font-size="14px"
         text-anchor="end"
         id="g247">
        <text
           id="text245"><tspan
             font-family="Arial"
             id="tspan243">Ag (111)</tspan></text>
      </g>
    </g>
    <g
       fill="none"
       color="#000000"
       stroke="currentColor"
       stroke-width="1"
       stroke-linecap="butt"
       stroke-linejoin="miter"
       id="g253">
      <path
         stroke="#009e73"
         d="m 473.82,227.65 h 48.16 M 72.53,24 h 0.69 0.7 0.69 0.69 L 76,23.99 h 0.69 0.69 0.7 0.69 0.69 0.7 0.69 0.69 0.7 0.69 0.69 0.7 0.69 0.69 l 0.7,-0.01 h 0.69 0.69 0.7 0.69 0.69 0.7 0.69 0.69 0.7 0.69 0.69 0.7 0.69 0.69 l 0.7,-0.01 h 0.69 0.69 0.69 0.7 0.69 0.69 0.7 0.69 0.69 0.7 0.69 0.69 0.7 0.69 l 0.69,-0.01 h 0.7 0.69 0.69 0.7 0.69 0.69 0.7 0.69 0.69 0.7 0.69 0.69 0.7 0.69 l 0.69,-0.01 h 0.7 0.69 0.69 0.7 0.69 0.69 0.7 0.69 0.69 0.7 0.69 0.69 0.7 0.69 0.69 l 0.7,-0.01 h 0.69 0.69 0.7 0.69 0.69 0.7 0.69 0.69 0.7 0.69 0.69 0.7 0.69 0.69 l 0.7,-0.01 h 0.69 0.69 0.7 0.69 0.69 0.7 0.69 0.69 0.7 0.69 0.69 0.7 0.69 0.69 l 0.69,-0.01 h 0.7 0.69 0.69 0.7 0.69 0.69 0.7 0.69 0.69 l 0.7,0.01 0.69,0.01 h 0.69 0.7 l 0.69,0.01 h 0.69 0.7 0.69 0.69 0.7 0.69 l 0.69,0.01 h 0.7 0.69 0.69 0.7 0.69 0.69 0.7 0.69 0.69 0.7 0.69 0.69 0.7 0.69 l 0.69,-0.01 h 0.7 0.69 0.69 l 0.7,0.01 h 0.69 l 0.69,0.01 h 0.7 l 0.69,0.01 h 0.69 l 0.7,0.01 h 0.69 l 0.69,0.01 h 0.7 l 0.69,0.01 h 0.69 l 0.7,0.01 0.69,0.01 h 0.69 0.7 l 0.69,0.01 H 189 l 0.7,-0.01 h 0.69 l 0.69,-0.01 h 0.7 l 0.69,-0.01 h 0.69 l 0.7,0.01 0.69,0.01 0.69,0.01 0.7,0.02 0.69,0.01 0.69,0.02 0.69,0.01 0.7,0.01 0.69,0.01 0.69,0.01 0.7,0.01 0.69,0.02 0.69,0.02 0.7,0.02 0.69,0.02 0.69,0.01 0.7,0.01 h 0.69 l 0.69,0.01 0.7,-0.01 0.69,-0.02 0.69,-0.02 0.7,-0.01 h 0.69 l 0.69,0.01 0.7,0.02 0.69,0.03 0.69,0.04 0.7,0.03 0.69,0.03 0.69,0.02 0.7,0.03 0.69,0.03 0.69,0.03 0.7,0.04 0.69,0.05 0.69,0.04 0.7,0.05 0.69,0.04 0.69,0.03 0.7,0.01 0.69,0.01 0.69,-0.01 h 0.7 l 0.69,-0.03 0.69,-0.03 0.7,-0.02 0.69,-0.02 0.69,0.01 0.7,0.03 0.69,0.05 0.69,0.06 0.7,0.07 0.69,0.07 0.69,0.07 0.7,0.07 0.69,0.08 0.69,0.1 0.7,0.11 0.69,0.13 0.69,0.15 0.7,0.17 0.69,0.14 0.69,0.09 0.7,-0.03 0.69,0.32 0.69,0.21 0.7,-0.42 0.69,-0.05 0.69,0.27 0.7,0.11 0.69,0.1 0.69,0.16 0.7,0.22 0.69,0.26 0.69,0.25 0.7,0.21 0.69,0.08 0.69,0.26 0.69,0.25 0.7,-0.04 0.69,0.06 0.69,0.25 0.7,0.26 0.69,0.28 0.69,0.46 0.7,0.51 0.69,0.46 0.69,0.52 0.7,0.57 0.69,0.61 0.69,0.66 0.7,0.71 0.69,0.79 0.69,0.88 0.7,0.98 0.69,1.05 0.69,1.08 0.7,1.2 0.69,1.27 0.69,1.23 0.7,1.16 0.69,1.09 0.69,0.89 0.7,0.49 0.69,0.7 0.69,1.7 0.7,2.62 0.69,3.28 0.69,2.26 0.7,0.99 0.69,1.58 0.69,2.14 0.7,2.13 0.69,2.18 0.69,2.44 0.7,2.71 0.69,2.76 0.69,2.83 0.7,3.13 0.69,3.74 0.69,4.54 0.7,5.2 0.69,5.83 0.69,6.66 0.7,7.54 0.69,8.37 0.69,9.1 0.7,9.78 0.69,10.45 0.69,11.15 0.7,11.97 0.69,13.02 0.69,14.37 0.7,16.11 0.69,18.25 0.69,20.8 0.7,23.51 0.69,25.65 0.69,25.81 0.7,22.87 0.69,17.05 0.69,10.4 0.7,4.73 0.69,-0.13 0.69,-4.92 0.7,-10.56 0.69,-17.05 0.69,-22.67 0.7,-25.22 0.69,-24.4 0.69,-21.24 0.69,-17.16 0.7,-13.05 0.69,-9.13 0.69,-5.2 0.7,-0.99 0.69,3.4 0.69,7.63 0.7,11.67 0.69,15.7 0.69,19.79 0.7,23.41 0.69,25.4 0.69,24.41 0.7,19.99 0.69,13.52 0.69,7.33 0.7,2.2 0.69,-2.51 0.69,-7.61 0.7,-13.78 0.69,-20.18 0.69,-24.57 0.7,-25.46 0.69,-23.38 0.69,-19.66 0.7,-15.49 0.69,-11.39 0.69,-7.41 0.7,-3.3 0.69,0.99 0.69,5.23 0.7,9.26 0.69,13.29 0.69,17.45 0.7,21.49 0.69,24.57 0.69,25.27 0.7,22.59 0.69,16.89 0.69,10.36 0.7,4.75 h 0.69 l 0.69,-4.75 0.7,-10.36 0.69,-16.89 0.69,-22.59 0.7,-25.27 0.69,-24.57 0.69,-21.49 0.7,-17.45 0.69,-13.29 0.69,-9.26 0.7,-5.23 0.69,-0.99 0.69,3.3 0.7,7.41 0.69,11.39 0.69,15.49 0.7,19.66 0.69,23.38 0.69,25.46 0.7,24.57 0.69,20.18 0.69,13.78 0.7,7.61 0.69,2.51 0.69,-2.2 0.7,-7.33 0.69,-13.52 0.69,-19.99 0.7,-24.41 0.69,-25.4 0.69,-23.41 0.69,-19.79 0.7,-15.7 0.69,-11.67 0.69,-7.63 0.7,-3.4 0.69,0.99 0.69,5.2 0.7,9.13 0.69,13.05 0.69,17.16 0.7,21.24 0.69,24.4 0.69,25.22 0.7,22.67 0.69,17.05 0.69,10.56 0.7,4.92 0.69,0.13 0.69,-4.73 0.7,-10.4 0.69,-17.05 0.69,-22.87 0.7,-25.81 0.69,-25.65 0.69,-23.51 0.7,-20.8 0.69,-18.25 0.69,-16.11 0.7,-14.37 0.69,-13.02 0.69,-11.97 0.7,-11.15 0.69,-10.45 0.69,-9.78 0.7,-9.1 0.69,-8.37 0.69,-7.54 0.7,-6.66 0.69,-5.83 0.69,-5.2 0.7,-4.54 0.69,-3.74 0.69,-3.13 0.7,-2.83 0.69,-2.76 0.69,-2.71 0.7,-2.44 0.69,-2.18 0.69,-2.13 0.7,-2.14 0.69,-1.58 0.69,-0.99 0.7,-2.26 0.69,-3.28 0.69,-2.62 0.7,-1.7 0.69,-0.7 0.69,-0.49 0.7,-0.89 0.69,-1.09 0.69,-1.16 0.7,-1.23 0.69,-1.27 0.69,-1.2 0.7,-1.08 0.69,-1.05 0.69,-0.98 0.7,-0.88 0.69,-0.79 0.69,-0.71 0.7,-0.66 0.69,-0.61 0.69,-0.57 0.69,-0.52 0.7,-0.46 0.69,-0.51 0.69,-0.46 0.7,-0.28 0.69,-0.26 0.69,-0.25 0.7,-0.06 0.69,0.04 0.69,-0.25 0.7,-0.26 0.69,-0.08 0.69,-0.21 0.7,-0.25 0.69,-0.26 0.69,-0.22 0.7,-0.16 0.69,-0.1 0.69,-0.11 0.7,-0.27 0.69,0.05 0.69,0.42 0.7,-0.21 0.69,-0.32 0.69,0.03 0.7,-0.09 0.69,-0.14 0.69,-0.17 0.7,-0.15 0.69,-0.13 0.69,-0.11 0.7,-0.1 0.69,-0.08 0.69,-0.07 0.7,-0.07 0.69,-0.07 0.69,-0.07 0.7,-0.06 0.69,-0.05 0.69,-0.03 0.7,-0.01 0.69,0.02 0.69,0.02 0.7,0.03 0.69,0.03 h 0.69 l 0.7,0.01 0.69,-0.01 0.69,-0.01 0.7,-0.03 0.69,-0.04 0.69,-0.05 0.7,-0.04 0.69,-0.05 0.69,-0.04 0.7,-0.03 0.69,-0.03 0.69,-0.03 0.7,-0.02 0.69,-0.03 0.69,-0.03 0.7,-0.04 0.69,-0.03 0.69,-0.02 0.7,-0.01 h 0.69 l 0.69,0.01 0.7,0.02 0.69,0.02 0.69,0.01 0.69,-0.01 h 0.7 l 0.69,-0.01 0.69,-0.01 0.7,-0.02 0.69,-0.02 0.69,-0.02 0.7,-0.02 0.69,-0.01 0.69,-0.01 0.7,-0.01 0.69,-0.01 0.69,-0.01 0.7,-0.02 0.69,-0.01 0.69,-0.02 0.7,-0.01 0.69,-0.01 0.69,-0.01 h 0.7 l 0.69,0.01 h 0.69 l 0.7,0.01 h 0.69 l 0.69,0.01 h 0.7 l 0.69,-0.01 h 0.69 0.7 l 0.69,-0.01 0.69,-0.01 h 0.7 L 471.17,24 h 0.69 l 0.7,-0.01 h 0.69 l 0.69,-0.01 h 0.7 l 0.69,-0.01 h 0.69 l 0.7,-0.01 h 0.69 l 0.69,-0.01 h 0.7 0.69 0.69 l 0.7,0.01 h 0.69 0.69 0.7 0.69 0.69 0.7 0.69 0.69 0.7 0.69 0.69 0.7 0.69 0.69 l 0.7,-0.01 h 0.69 0.69 0.7 0.69 0.69 0.7 l 0.69,-0.01 h 0.69 0.7 l 0.69,-0.01 0.69,-0.01 h 0.69 0.7 0.69 0.69 0.7 0.69 0.69 0.7 0.69 l 0.69,0.01 h 0.7 0.69 0.69 0.7 0.69 0.69 0.7 0.69 0.69 0.7 0.69 0.69 0.7 0.69 l 0.69,0.01 h 0.7 0.69 0.69 0.7 0.69 0.69 0.7 0.69 0.69 0.7 0.69 0.69 0.7 0.69 l 0.69,0.01 h 0.7 0.69 0.69 0.7 0.69 0.69 0.7 0.69 0.69 0.7 0.69 0.69 0.7 0.69 0.69 l 0.7,0.01 h 0.69 0.69 0.7 0.69 0.69 0.7 0.69 0.69 0.7 0.69 0.69 0.7 0.69 0.69 l 0.7,0.01 h 0.69 0.69 0.69 0.7 0.69 0.69 0.7 0.69 0.69 0.7 0.69 0.69 0.7 0.69 l 0.69,0.01 h 0.7 0.69 0.69 0.7 0.69 0.69 0.7 0.69 0.69 0.7 0.69 0.69 0.7 0.69 l 0.69,0.01 h 0.7 0.69 0.69 0.7 0.69 0.69 0.7 0.69 0.35"
         id="path251" />
    </g>
  </g>
  <g
     id="gnuplot_plot_3"
     transform="translate(-2.0833984,-8.6725)">
    <title
       id="title256">Cu (111)</title>
    <g
       fill="none"
       color="#000000"
       stroke="currentColor"
       stroke-width="1"
       stroke-linecap="butt"
       stroke-linejoin="miter"
       id="g264">
      <g
         transform="translate(464.03,253.2)"
         stroke="none"
         fill="#000000"
         font-family="Arial"
         font-size="14px"
         text-anchor="end"
         id="g262">
        <text
           id="text260"><tspan
             font-family="Arial"
             id="tspan258">Cu (111)</tspan></text>
      </g>
    </g>
    <g
       fill="none"
       color="#000000"
       stroke="currentColor"
       stroke-width="1"
       stroke-linecap="butt"
       stroke-linejoin="miter"
       id="g268">
      <path
         stroke="#56b4e9"
         d="m 473.82,248.65 h 48.16 M 72.53,24.01 h 0.69 0.69 0.7 0.69 0.69 0.69 0.7 0.69 0.69 0.69 L 80.15,24 h 0.69 0.69 0.69 0.7 0.69 0.69 0.69 0.7 0.69 0.69 0.69 l 0.69,-0.01 h 0.7 0.69 0.69 0.69 0.7 0.69 0.69 0.69 0.7 0.69 0.69 0.69 l 0.7,-0.01 h 0.69 0.69 0.69 0.7 0.69 0.69 0.69 0.7 0.69 0.69 0.69 l 0.69,-0.01 h 0.7 0.69 0.69 0.69 0.7 0.69 0.69 0.69 0.7 0.69 0.69 0.69 l 0.7,-0.01 h 0.69 0.69 0.69 0.7 0.69 0.69 0.69 0.69 0.7 0.69 0.69 0.69 l 0.7,-0.01 h 0.69 0.69 0.69 0.7 0.69 0.69 0.69 0.7 0.69 0.69 0.69 l 0.7,-0.01 h 0.69 0.69 0.69 0.69 0.7 0.69 0.69 0.69 0.7 0.69 0.69 0.69 l 0.7,0.02 0.69,0.03 0.69,0.05 0.69,0.03 0.7,0.04 0.69,0.03 0.69,0.02 0.69,0.02 0.7,0.02 0.69,0.02 0.69,0.01 h 0.69 0.69 l 0.7,-0.01 h 0.69 0.69 l 0.69,-0.02 0.7,-0.01 h 0.69 l 0.69,0.01 0.69,0.02 0.7,0.02 0.69,0.01 0.69,-0.01 0.69,-0.01 0.7,-0.01 0.69,-0.02 0.69,-0.01 0.69,-0.01 0.7,0.01 0.69,0.02 0.69,0.02 0.69,0.02 0.7,0.01 0.69,0.02 0.69,0.01 0.69,0.01 h 0.69 l 0.7,-0.01 0.69,0.01 0.69,0.02 0.69,0.04 0.7,0.07 0.69,0.05 0.69,0.01 h 0.69 l 0.7,-0.01 0.69,-0.01 0.69,-0.01 0.69,-0.01 h 0.7 l 0.69,0.02 0.69,0.03 0.69,0.02 0.7,0.03 0.69,0.02 0.69,0.02 0.69,0.02 0.69,0.01 h 0.7 0.69 l 0.69,0.02 0.69,0.07 0.7,0.1 0.69,0.13 0.69,0.06 0.69,0.02 0.7,0.01 0.69,0.01 h 0.69 0.69 0.7 l 0.69,0.02 0.69,0.04 0.69,0.05 0.7,0.03 0.69,0.01 0.69,0.05 0.69,0.04 0.69,0.01 0.7,0.06 h 0.69 l 0.69,0.01 0.69,0.1 0.7,0.12 0.69,0.25 0.69,0.22 0.69,0.04 0.7,0.06 0.69,0.05 0.69,-0.01 0.69,0.03 0.7,0.03 0.69,-0.01 0.69,0.06 0.69,0.09 0.7,0.07 0.69,0.03 0.69,0.03 0.69,0.11 0.7,0.07 0.69,0.02 0.69,0.13 0.69,0.18 0.69,0.08 0.7,0.15 0.69,0.33 0.69,0.31 0.69,0.25 0.7,0.19 0.69,0.1 0.69,0.1 0.69,-0.01 0.7,-0.24 0.69,-0.1 0.69,0.16 0.69,0.29 0.7,0.25 0.69,0.23 0.69,0.27 0.69,0.38 0.7,0.43 0.69,0.36 0.69,0.23 0.69,0.15 0.69,0.48 0.7,0.78 0.69,0.37 0.69,-0.02 0.69,0.41 0.7,0.15 0.69,-0.22 0.69,0.52 0.69,1.28 0.7,1.25 0.69,0.48 0.69,0.68 0.69,1.12 0.7,1.37 0.69,1.56 0.69,1.56 0.69,1.75 0.7,1.94 0.69,1.58 0.69,1.4 0.69,1.01 0.69,0.48 0.7,-0.14 0.69,-0.6 0.69,2.27 0.69,6.62 0.7,5.92 0.69,1.92 0.69,-0.06 0.69,1.38 0.7,2.71 0.69,2.79 0.69,3.12 0.69,3.74 0.7,4.11 0.69,4.41 0.69,5.07 0.69,6.1 0.7,7.11 0.69,8.05 0.69,8.91 0.69,9.65 0.7,10.14 0.69,10.37 0.69,10.39 0.69,10.33 0.69,10.27 0.7,10.56 0.69,11.54 0.69,13 0.69,15.26 0.7,18.67 0.69,22.97 0.69,27.11 0.69,28.1 0.7,23.01 0.69,12.56 0.69,1.97 0.69,-6.88 0.7,-18.23 0.69,-26.44 0.69,-28.77 0.69,-25.33 0.7,-19.86 0.69,-14.36 0.69,-9.53 0.69,-5.64 0.69,-2.65 0.7,-0.15 0.69,2.47 0.69,5.63 0.69,9.49 0.7,14.11 0.69,19.36 0.69,24.68 0.69,28.48 0.7,27.19 0.69,19.89 0.69,8.35 0.69,-1.06 0.7,-11.02 0.69,-22.11 0.69,-28.21 0.69,-28.12 0.7,-23.66 0.69,-18.13 0.69,-12.87 0.69,-8.33 0.69,-4.63 0.7,-1.78 0.69,0.62 0.69,3.25 0.69,6.6 0.7,10.82 0.69,15.8 0.69,21.31 0.69,26.43 0.7,28.77 0.69,24.98 0.69,15.54 0.69,4.39 0.7,-4.39 0.69,-15.54 0.69,-24.98 0.69,-28.77 0.7,-26.43 0.69,-21.31 0.69,-15.8 0.69,-10.82 0.69,-6.6 0.7,-3.25 0.69,-0.62 0.69,1.78 0.69,4.63 0.7,8.33 0.69,12.87 0.69,18.13 0.69,23.66 0.7,28.12 0.69,28.21 0.69,22.11 0.69,11.02 0.7,1.06 0.69,-8.35 0.69,-19.89 0.69,-27.19 0.7,-28.48 0.69,-24.68 0.69,-19.36 0.69,-14.11 0.7,-9.49 0.69,-5.63 0.69,-2.47 0.69,0.15 0.69,2.65 0.7,5.64 0.69,9.53 0.69,14.36 0.69,19.86 0.7,25.33 0.69,28.77 0.69,26.44 0.69,18.23 0.7,6.88 0.69,-1.97 0.69,-12.56 0.69,-23.01 0.7,-28.1 0.69,-27.11 0.69,-22.97 0.69,-18.67 0.7,-15.26 0.69,-13 0.69,-11.54 0.69,-10.56 0.69,-10.27 0.7,-10.33 0.69,-10.39 0.69,-10.37 0.69,-10.14 0.7,-9.65 0.69,-8.91 0.69,-8.05 0.69,-7.11 0.7,-6.1 0.69,-5.07 0.69,-4.41 0.69,-4.11 0.7,-3.74 0.69,-3.12 0.69,-2.79 0.69,-2.71 0.7,-1.38 0.69,0.06 0.69,-1.92 0.69,-5.92 0.69,-6.62 0.7,-2.27 0.69,0.6 0.69,0.14 0.69,-0.48 0.7,-1.01 0.69,-1.4 0.69,-1.58 0.69,-1.94 0.7,-1.75 0.69,-1.56 0.69,-1.56 0.69,-1.37 0.7,-1.12 0.69,-0.68 0.69,-0.48 0.69,-1.25 0.7,-1.28 0.69,-0.52 0.69,0.22 0.69,-0.15 0.7,-0.41 0.69,0.02 0.69,-0.37 0.69,-0.78 0.69,-0.48 0.7,-0.15 0.69,-0.23 0.69,-0.36 0.69,-0.43 0.7,-0.38 0.69,-0.27 0.69,-0.23 0.69,-0.25 0.7,-0.29 0.69,-0.16 0.69,0.1 0.69,0.24 0.7,0.01 0.69,-0.1 0.69,-0.1 0.69,-0.19 0.7,-0.25 0.69,-0.31 0.69,-0.33 0.69,-0.15 0.69,-0.08 0.7,-0.18 0.69,-0.13 0.69,-0.02 0.69,-0.07 0.7,-0.11 0.69,-0.03 0.69,-0.03 0.69,-0.07 0.7,-0.09 0.69,-0.06 0.69,0.01 0.69,-0.03 0.7,-0.03 0.69,0.01 0.69,-0.05 0.69,-0.06 0.7,-0.04 0.69,-0.22 0.69,-0.25 0.69,-0.12 0.69,-0.1 0.7,-0.01 h 0.69 l 0.69,-0.06 0.69,-0.01 0.7,-0.04 0.69,-0.05 0.69,-0.01 0.69,-0.03 0.7,-0.05 0.69,-0.04 0.69,-0.02 h 0.69 0.7 0.69 l 0.69,-0.01 0.69,-0.01 0.7,-0.02 0.69,-0.06 0.69,-0.13 0.69,-0.1 0.7,-0.07 0.69,-0.02 h 0.69 0.69 l 0.69,-0.01 0.7,-0.02 0.69,-0.02 0.69,-0.02 0.69,-0.03 0.7,-0.02 0.69,-0.03 0.69,-0.02 h 0.69 l 0.7,0.01 0.69,0.01 0.69,0.01 0.69,0.01 h 0.7 l 0.69,-0.01 0.69,-0.05 0.69,-0.07 0.7,-0.04 0.69,-0.02 0.69,-0.01 0.69,0.01 h 0.69 l 0.7,-0.01 0.69,-0.01 0.69,-0.02 0.69,-0.01 0.7,-0.02 0.69,-0.02 0.69,-0.02 0.69,-0.01 0.7,0.01 0.69,0.01 0.69,0.02 0.69,0.01 0.7,0.01 0.69,0.01 0.69,-0.01 0.69,-0.02 0.7,-0.02 0.69,-0.01 h 0.69 l 0.69,0.01 0.69,0.02 h 0.7 0.69 l 0.69,0.01 h 0.69 0.7 l 0.69,-0.01 0.69,-0.02 0.69,-0.02 0.7,-0.02 0.69,-0.02 0.69,-0.03 0.69,-0.04 0.7,-0.03 0.69,-0.05 0.69,-0.03 0.69,-0.02 h 0.7 0.69 0.69 0.69 0.69 0.7 0.69 0.69 0.69 0.7 0.69 0.69 l 0.69,0.01 h 0.7 0.69 0.69 0.69 0.7 0.69 0.69 0.69 0.7 0.69 0.69 l 0.69,0.01 h 0.7 0.69 0.69 0.69 0.69 0.7 0.69 0.69 0.69 0.7 0.69 0.69 l 0.69,0.01 h 0.7 0.69 0.69 0.69 0.7 0.69 0.69 0.69 0.7 0.69 0.69 0.69 l 0.69,0.01 h 0.7 0.69 0.69 0.69 0.7 0.69 0.69 0.69 0.7 0.69 0.69 l 0.69,0.01 h 0.7 0.69 0.69 0.69 0.7 0.69 0.69 0.69 0.69 0.7 0.69 0.69 l 0.69,0.01 h 0.7 0.69 0.69 0.69 0.7 0.69 0.69 0.69 0.7 0.69 0.69 l 0.69,0.01 h 0.7 0.69 0.69 0.69 0.7 0.69 0.69 0.69 0.69"
         id="path266" />
    </g>
  </g>
  <g
     fill="none"
     color="#ffffff"
     stroke="#56b4e9"
     stroke-width="2"
     stroke-linecap="butt"
     stroke-linejoin="miter"
     id="g271"
     transform="translate(-658.2555,-74.212604)" />
  <g
     fill="none"
     color="#000000"
     stroke="currentColor"
     stroke-width="2"
     stroke-linecap="butt"
     stroke-linejoin="miter"
     id="g273"
     transform="translate(-658.2555,-74.212604)" />
  <g
     fill="none"
     color="#000000"
     stroke="#000000"
     stroke-width="1"
     stroke-linecap="butt"
     stroke-linejoin="miter"
     id="g275"
     transform="translate(-658.2555,-74.212604)" />
  <g
     fill="none"
     color="#000000"
     stroke="currentColor"
     stroke-width="1"
     stroke-linecap="butt"
     stroke-linejoin="miter"
     id="g279"
     transform="translate(-2.0833984,-8.6725)">
    <path
       stroke="#000000"
       d="M 72.53,18.01 V 426 H 574.82 V 18.01 Z"
       id="path277" />
  </g>
  <g
     fill="none"
     color="#000000"
     stroke="currentColor"
     stroke-width="1"
     stroke-linecap="butt"
     stroke-linejoin="miter"
     id="g281"
     transform="translate(-658.2555,-74.212604)" />
  <metadata
     id="metadata290">
    <rdf:RDF>
      <cc:Work
         rdf:about="">
        <dc:title>Gnuplot</dc:title>
      </cc:Work>
    </rdf:RDF>
  </metadata>
</svg>
