<?xml version="1.0" encoding="UTF-8" standalone="no"?>
<!-- Created with Inkscape (http://www.inkscape.org/) -->

<svg
   version="1.1"
   id="svg2"
   xml:space="preserve"
   width="240"
   height="336"
   viewBox="0 0 240 336"
   sodipodi:docname="band_structure.svg"
   inkscape:version="1.1 (c68e22c387, 2021-05-23)"
   xmlns:inkscape="http://www.inkscape.org/namespaces/inkscape"
   xmlns:sodipodi="http://sodipodi.sourceforge.net/DTD/sodipodi-0.dtd"
   xmlns="http://www.w3.org/2000/svg"
   xmlns:svg="http://www.w3.org/2000/svg"><defs
     id="defs6" /><sodipodi:namedview
     id="namedview4"
     pagecolor="#ffffff"
     bordercolor="#666666"
     borderopacity="1.0"
     inkscape:pageshadow="2"
     inkscape:pageopacity="0.0"
     inkscape:pagecheckerboard="0"
     showgrid="false"
     inkscape:zoom="2.5952381"
     inkscape:cx="120.02752"
     inkscape:cy="167.80734"
     inkscape:window-width="1858"
     inkscape:window-height="1057"
     inkscape:window-x="-8"
     inkscape:window-y="-8"
     inkscape:window-maximized="1"
     inkscape:current-layer="g8" /><g
     id="g8"
     inkscape:groupmode="layer"
     inkscape:label="ink_ext_XXXXXX"
     transform="matrix(1.3333333,0,0,-1.3333333,0,336)"><g
       id="g10"
       transform="scale(0.1)"><path
         d="m 301,140 h 31.5 m 1341,0 H 1642"
         style="fill:none;stroke:#000000;stroke-width:2.5;stroke-linecap:butt;stroke-linejoin:miter;stroke-miterlimit:3.8;stroke-dasharray:none;stroke-opacity:1"
         id="path12" /><g
         id="g14"
         transform="scale(10)"><text
           transform="matrix(1,0,0,-1,15.7855,11.6648)"
           style="font-variant:normal;font-weight:normal;font-size:7px;font-family:Helvetica;-inkscape-font-specification:Helvetica;writing-mode:lr-tb;fill:#000000;fill-opacity:1;fill-rule:nonzero;stroke:none"
           id="text18"><tspan
             x="0 2.3310001 6.223"
             y="0"
             sodipodi:role="line"
             id="tspan16">-10</tspan></text></g><path
         d="m 301,448 h 31.5 m 1341,0 H 1642"
         style="fill:none;stroke:#000000;stroke-width:2.5;stroke-linecap:butt;stroke-linejoin:miter;stroke-miterlimit:3.8;stroke-dasharray:none;stroke-opacity:1"
         id="path20" /><g
         id="g22"
         transform="scale(10)"><text
           transform="matrix(1,0,0,-1,19.6773,42.4648)"
           style="font-variant:normal;font-weight:normal;font-size:7px;font-family:Helvetica;-inkscape-font-specification:Helvetica;writing-mode:lr-tb;fill:#000000;fill-opacity:1;fill-rule:nonzero;stroke:none"
           id="text26"><tspan
             x="0 2.3310001"
             y="0"
             sodipodi:role="line"
             id="tspan24">-8</tspan></text></g><path
         d="m 301,756 h 31.5 m 1341,0 H 1642"
         style="fill:none;stroke:#000000;stroke-width:2.5;stroke-linecap:butt;stroke-linejoin:miter;stroke-miterlimit:3.8;stroke-dasharray:none;stroke-opacity:1"
         id="path28" /><g
         id="g30"
         transform="scale(10)"><text
           transform="matrix(1,0,0,-1,19.6773,73.2648)"
           style="font-variant:normal;font-weight:normal;font-size:7px;font-family:Helvetica;-inkscape-font-specification:Helvetica;writing-mode:lr-tb;fill:#000000;fill-opacity:1;fill-rule:nonzero;stroke:none"
           id="text34"><tspan
             x="0 2.3310001"
             y="0"
             sodipodi:role="line"
             id="tspan32">-6</tspan></text></g><path
         d="m 301,1064 h 31.5 m 1341,0 H 1642"
         style="fill:none;stroke:#000000;stroke-width:2.5;stroke-linecap:butt;stroke-linejoin:miter;stroke-miterlimit:3.8;stroke-dasharray:none;stroke-opacity:1"
         id="path36" /><g
         id="g38"
         transform="scale(10)"><text
           transform="matrix(1,0,0,-1,19.6773,104.065)"
           style="font-variant:normal;font-weight:normal;font-size:7px;font-family:Helvetica;-inkscape-font-specification:Helvetica;writing-mode:lr-tb;fill:#000000;fill-opacity:1;fill-rule:nonzero;stroke:none"
           id="text42"><tspan
             x="0 2.3310001"
             y="0"
             sodipodi:role="line"
             id="tspan40">-4</tspan></text></g><path
         d="m 301,1371.5 h 31.5 m 1341,0 H 1642"
         style="fill:none;stroke:#000000;stroke-width:2.5;stroke-linecap:butt;stroke-linejoin:miter;stroke-miterlimit:3.8;stroke-dasharray:none;stroke-opacity:1"
         id="path44" /><g
         id="g46"
         transform="scale(10)"><text
           transform="matrix(1,0,0,-1,19.6773,134.815)"
           style="font-variant:normal;font-weight:normal;font-size:7px;font-family:Helvetica;-inkscape-font-specification:Helvetica;writing-mode:lr-tb;fill:#000000;fill-opacity:1;fill-rule:nonzero;stroke:none"
           id="text50"><tspan
             x="0 2.3310001"
             y="0"
             sodipodi:role="line"
             id="tspan48">-2</tspan></text></g><path
         d="m 301,1679.5 h 31.5 m 1341,0 H 1642"
         style="fill:none;stroke:#000000;stroke-width:2.5;stroke-linecap:butt;stroke-linejoin:miter;stroke-miterlimit:3.8;stroke-dasharray:none;stroke-opacity:1"
         id="path52" /><g
         id="g54"
         transform="scale(10)"><text
           transform="matrix(1,0,0,-1,22.0085,165.615)"
           style="font-variant:normal;font-weight:normal;font-size:7px;font-family:Helvetica;-inkscape-font-specification:Helvetica;writing-mode:lr-tb;fill:#000000;fill-opacity:1;fill-rule:nonzero;stroke:none"
           id="text58"><tspan
             x="0"
             y="0"
             id="tspan56">0</tspan></text></g><path
         d="m 301,1987.5 h 31.5 m 1341,0 H 1642"
         style="fill:none;stroke:#000000;stroke-width:2.5;stroke-linecap:butt;stroke-linejoin:miter;stroke-miterlimit:3.8;stroke-dasharray:none;stroke-opacity:1"
         id="path60" /><g
         id="g62"
         transform="scale(10)"><text
           transform="matrix(1,0,0,-1,22.0085,196.415)"
           style="font-variant:normal;font-weight:normal;font-size:7px;font-family:Helvetica;-inkscape-font-specification:Helvetica;writing-mode:lr-tb;fill:#000000;fill-opacity:1;fill-rule:nonzero;stroke:none"
           id="text66"><tspan
             x="0"
             y="0"
             id="tspan64">2</tspan></text></g><path
         d="m 301,2295.5 h 31.5 m 1341,0 H 1642"
         style="fill:none;stroke:#000000;stroke-width:2.5;stroke-linecap:butt;stroke-linejoin:miter;stroke-miterlimit:3.8;stroke-dasharray:none;stroke-opacity:1"
         id="path68" /><g
         id="g70"
         transform="scale(10)"><text
           transform="matrix(1,0,0,-1,22.0085,227.215)"
           style="font-variant:normal;font-weight:normal;font-size:7px;font-family:Helvetica;-inkscape-font-specification:Helvetica;writing-mode:lr-tb;fill:#000000;fill-opacity:1;fill-rule:nonzero;stroke:none"
           id="text74"><tspan
             x="0"
             y="0"
             id="tspan72">4</tspan></text></g><path
         d="m 301,140 v 31.5 m 0,2278 V 2418"
         style="fill:none;stroke:#000000;stroke-width:2.5;stroke-linecap:butt;stroke-linejoin:miter;stroke-miterlimit:3.8;stroke-dasharray:none;stroke-opacity:1"
         id="path76" /><g
         id="g78"
         transform="scale(10)"><text
           transform="matrix(1,0,0,-1,28.96289,4.66484)"
           style="font-variant:normal;font-weight:normal;font-size:7px;font-family:Symbol;-inkscape-font-specification:Symbol;writing-mode:lr-tb;fill:#000000;fill-opacity:1;fill-rule:nonzero;stroke:none"
           id="text82"><tspan
             x="0"
             y="0"
             id="tspan80">Γ</tspan></text></g><path
         d="m 664,140 v 31.5 m 0,2278 V 2418"
         style="fill:none;stroke:#000000;stroke-width:2.5;stroke-linecap:butt;stroke-linejoin:miter;stroke-miterlimit:3.8;stroke-dasharray:none;stroke-opacity:1"
         id="path84" /><g
         id="g86"
         transform="scale(10)"><text
           transform="matrix(1,0,0,-1,64.8464,4.66484)"
           style="font-variant:normal;font-weight:normal;font-size:7px;font-family:Helvetica;-inkscape-font-specification:Helvetica;writing-mode:lr-tb;fill:#000000;fill-opacity:1;fill-rule:nonzero;stroke:none"
           id="text90"><tspan
             x="0"
             y="0"
             id="tspan88">H</tspan></text></g><path
         d="m 921,140 v 31.5 m 0,2278 V 2418"
         style="fill:none;stroke:#000000;stroke-width:2.5;stroke-linecap:butt;stroke-linejoin:miter;stroke-miterlimit:3.8;stroke-dasharray:none;stroke-opacity:1"
         id="path92" /><g
         id="g94"
         transform="scale(10)"><text
           transform="matrix(1,0,0,-1,90.5464,4.66484)"
           style="font-variant:normal;font-weight:normal;font-size:7px;font-family:Helvetica;-inkscape-font-specification:Helvetica;writing-mode:lr-tb;fill:#000000;fill-opacity:1;fill-rule:nonzero;stroke:none"
           id="text98"><tspan
             x="0"
             y="0"
             id="tspan96">N</tspan></text></g><path
         d="m 1102.5,140 v 31.5 m 0,2278 V 2418"
         style="fill:none;stroke:#000000;stroke-width:2.5;stroke-linecap:butt;stroke-linejoin:miter;stroke-miterlimit:3.8;stroke-dasharray:none;stroke-opacity:1"
         id="path100" /><g
         id="g102"
         transform="scale(10)"><text
           transform="matrix(1,0,0,-1,108.889,4.66484)"
           style="font-variant:normal;font-weight:normal;font-size:7px;font-family:Helvetica;-inkscape-font-specification:Helvetica;writing-mode:lr-tb;fill:#000000;fill-opacity:1;fill-rule:nonzero;stroke:none"
           id="text106"><tspan
             x="0"
             y="0"
             id="tspan104">P</tspan></text></g><path
         d="m 1417,140 v 31.5 m 0,2278 V 2418"
         style="fill:none;stroke:#000000;stroke-width:2.5;stroke-linecap:butt;stroke-linejoin:miter;stroke-miterlimit:3.8;stroke-dasharray:none;stroke-opacity:1"
         id="path108" /><g
         id="g110"
         transform="scale(10)"><text
           transform="matrix(1,0,0,-1,140.56309,4.66484)"
           style="font-variant:normal;font-weight:normal;font-size:7px;font-family:Symbol;-inkscape-font-specification:Symbol;writing-mode:lr-tb;fill:#000000;fill-opacity:1;fill-rule:nonzero;stroke:none"
           id="text114"><tspan
             x="0"
             y="0"
             id="tspan112">Γ</tspan></text></g><path
         d="m 1673.5,140 v 31.5 m 0,2278 V 2418"
         style="fill:none;stroke:#000000;stroke-width:2.5;stroke-linecap:butt;stroke-linejoin:miter;stroke-miterlimit:3.8;stroke-dasharray:none;stroke-opacity:1"
         id="path116" /><g
         id="g118"
         transform="scale(10)"><text
           transform="matrix(1,0,0,-1,165.796,4.66484)"
           style="font-variant:normal;font-weight:normal;font-size:7px;font-family:Helvetica;-inkscape-font-specification:Helvetica;writing-mode:lr-tb;fill:#000000;fill-opacity:1;fill-rule:nonzero;stroke:none"
           id="text122"><tspan
             x="0"
             y="0"
             id="tspan120">N</tspan></text></g><path
         d="M 301,2449.5 V 140 h 1372.5 v 2309.5 z"
         style="fill:none;stroke:#000000;stroke-width:5;stroke-linecap:butt;stroke-linejoin:miter;stroke-miterlimit:3.8;stroke-dasharray:none;stroke-opacity:1"
         id="path124" /><path
         d="M 664.5,140.5 V 2450"
         style="fill:none;stroke:#000000;stroke-width:2.5;stroke-linecap:butt;stroke-linejoin:miter;stroke-miterlimit:3.8;stroke-dasharray:none;stroke-opacity:1"
         id="path126" /><path
         d="M 921.5,140.5 V 2450"
         style="fill:none;stroke:#000000;stroke-width:2.5;stroke-linecap:butt;stroke-linejoin:miter;stroke-miterlimit:3.8;stroke-dasharray:none;stroke-opacity:1"
         id="path128" /><path
         d="M 1103,140.5 V 2450"
         style="fill:none;stroke:#000000;stroke-width:2.5;stroke-linecap:butt;stroke-linejoin:miter;stroke-miterlimit:3.8;stroke-dasharray:none;stroke-opacity:1"
         id="path130" /><path
         d="M 1417.5,140.5 V 2450"
         style="fill:none;stroke:#000000;stroke-width:2.5;stroke-linecap:butt;stroke-linejoin:miter;stroke-miterlimit:3.8;stroke-dasharray:none;stroke-opacity:1"
         id="path132" /><g
         id="g134"
         transform="scale(10)"><text
           transform="matrix(0,1,1,0,8.98516,110.779)"
           style="font-variant:normal;font-weight:normal;font-size:7px;font-family:Helvetica;-inkscape-font-specification:Helvetica;writing-mode:lr-tb;fill:#000000;fill-opacity:1;fill-rule:nonzero;stroke:none"
           id="text138"><tspan
             x="0 4.6690001 8.5609999 12.453 14.784 18.676001 22.176001 24.122 26.452999 30.344999 35.014"
             y="0"
             sodipodi:role="line"
             id="tspan136">Energy (eV)</tspan></text></g><path
         d="M 301,1679.5 H 1673.5"
         style="fill:none;stroke:#000000;stroke-width:1.25;stroke-linecap:butt;stroke-linejoin:miter;stroke-miterlimit:3.8;stroke-dasharray:5, 10;stroke-dashoffset:0;stroke-opacity:1"
         id="path140" /><path
         d="m 301,374 h 3.5 l 4,1 3.5,1.5 3.5,2.5 3.5,3 4,3.5 3.5,4 3.5,5 3.5,5 4,6 3.5,7 3.5,7 3.5,8 4,8.5 3.5,9 3.5,9.5 3.5,10 4,11 3.5,11.5 3.5,11.5 3.5,12.5 4,13 3.5,13.5 3.5,13.5 4,14.5 3.5,15 3.5,15 3.5,16 4,16 3.5,16.5 3.5,17 3.5,17 4,17.5 3.5,17.5 3.5,18 3.5,18 4,18.5 3.5,18.5 3.5,18.5 3.5,18 4,18.5 3.5,18.5 3.5,18 4,18 3.5,17.5 3.5,17.5 3.5,17 4,16.5 3.5,15.5 3.5,15.5 3.5,14.5 4,14 3.5,13 3.5,12 3.5,11.5 4,10 3.5,9.5 3.5,8.5 3.5,7.5 4,6.5 3.5,6 3.5,4.5 3.5,4 4,3 3.5,2.5 3.5,1.5 4,1 3.5,0.5 3.5,-0.5 3.5,-0.5 4,-1 3.5,-2 3.5,-2 3.5,-2 4,-2.5 3.5,-3 3.5,-3 3.5,-3 4,-3 3.5,-3.5 3.5,-3 3.5,-3.5 4,-3 3.5,-3.5 3.5,-3 3.5,-3 4,-3 3.5,-2.5 3.5,-3 4,-2 3.5,-2.5 3.5,-2 3.5,-2 4,-1.5 3.5,-1.5 3.5,-1 3.5,-1 4,-0.5 3.5,-0.5 h 3.5 3.5 l 4,0.5 3.5,0.5 3.5,1 4,1.5 3.5,1.5 3.5,1.5 4,2 3.5,2.5 3.5,2.5 4,3 3.5,3 4,3.5 3.5,3 3.5,3.5 4,4 3.5,3.5 3.5,4 4,4 3.5,4 3.5,4 4,4 3.5,4 3.5,4 4,3.5 3.5,3.5 3.5,3 4,3 3.5,2.5 3.5,2.5 4,1.5 3.5,1.5 3.5,0.5 4,0.5 3.5,-0.5 3.5,-1 4,-1.5 3.5,-2 3.5,-3 4,-3 3.5,-4 3.5,-4 4,-5 3.5,-5 3.5,-5.5 4,-5.5 3.5,-5.5 3.5,-6 4,-6 3.5,-6 3.5,-6 4,-6 3.5,-6 3.5,-5.5 4,-5.5 3.5,-5.5 3.5,-5 4,-5 3.5,-4.5 3.5,-4 4,-3.5 3.5,-3.5 3.5,-3.5 4,-2.5 3.5,-2.5 3.5,-1.5 4,-1.5 3.5,-1 3.5,-1 h 4 3.5 l 3.5,1 3.5,1 4,1.5 3.5,2 3.5,2.5 3.5,3 4,3 3.5,4 3.5,4 3.5,4.5 4,5 3.5,5 3.5,5.5 4,6 3.5,6.5 3.5,6.5 3.5,6.5 4,7 3.5,7.5 3.5,7.5 3.5,8 4,7.5 3.5,8 3.5,8.5 3.5,8 4,8 3.5,8.5 3.5,8 3.5,8.5 4,8 3.5,8 3.5,7.5 3.5,8 4,7 3.5,7.5 3.5,6.5 4,6.5 3.5,6 3.5,6 3.5,5 4,5 3.5,2 3.5,1.5 3.5,2 4,2 3.5,2.5 3.5,2.5 3.5,3 4,3 3.5,-1.5 3.5,-2 4,-1.5 3.5,-2 3.5,-1.5 4,-1 3.5,-1.5 3.5,-1 3.5,-1.5 4,-0.5 3.5,-1 3.5,-0.5 4,-0.5 3.5,-0.5 h 3.5 4 3.5 l 3.5,0.5 4,0.5 3.5,-6.5 3.5,-8.5 4,-9.5 3.5,-10 3.5,-11 3.5,-12 4,-12.5 3.5,-13 3.5,-14 4,-15"
         style="fill:none;stroke:#9400d4;stroke-width:1.25;stroke-linecap:butt;stroke-linejoin:miter;stroke-miterlimit:3.8;stroke-dasharray:none;stroke-opacity:1"
         id="path142" /><path
         d="m 1208.5,1141.5 3.5,-15 3.5,-16 4,-16.5 3.5,-17 3.5,-17.5 4,-18 3.5,-18 3.5,-18.5 4,-19 3.5,-19 3.5,-19.5 3.5,-19 4,-19.5 3.5,-19.5 3.5,-19.5 4,-19.5 3.5,-19.5 3.5,-19.5 4,-19 3.5,-19 3.5,-19 4,-18.5 3.5,-18.5 3.5,-18 4,-18 3.5,-17.5 3.5,-17 3.5,-16.5 4,-16.5 3.5,-16 3.5,-15 4,-15 3.5,-14.5 3.5,-14.5 4,-13.5 3.5,-13 3.5,-12.5 4,-12 3.5,-11.5 3.5,-10.5 4,-10.5 3.5,-9.5 3.5,-9.5 3.5,-8.5 4,-8 3.5,-7 3.5,-7 4,-6 3.5,-5.5 3.5,-4.5 4,-4.5 3.5,-3.5 3.5,-3 4,-2.5 3.5,-1.5 3.5,-1 h 4 3.5 l 3.5,1 4,1.5 3.5,2.5 3.5,3 4,3.5 3.5,4.5 3.5,4.5 4,5.5 3.5,6.5 3.5,6.5 4,7.5 3.5,8 3.5,8.5 4,9.5 3.5,9.5 3.5,10.5 4,11 3.5,11 3.5,12 4,13 3.5,13 3.5,13.5 4,14 3.5,14 3.5,15 4,15.5 3.5,15.5 3.5,16 4,16 3.5,17 3.5,16.5 4,17 3.5,17 3.5,17 4,17 3.5,17.5 3.5,16.5 4,17 3.5,16.5 3.5,16 4,15.5 3.5,15 3.5,14.5 4,14 3.5,13 3.5,12 4,11.5 3.5,10 3.5,9.5 4,9 3.5,7.5 3.5,7 4,6 3.5,5 3.5,5 4,4 3.5,3 3.5,3 4,2.5 3.5,2 3.5,1.5 4,1.5 3.5,1 3.5,1 4,1 3.5,0.5 h 3.5 l 4,0.5 h 3.5"
         style="fill:none;stroke:#9400d4;stroke-width:1.25;stroke-linecap:butt;stroke-linejoin:miter;stroke-miterlimit:3.8;stroke-dasharray:none;stroke-opacity:1"
         id="path144" /><path
         d="m 301,1442 h 29 l 3.5,-0.5 H 370 l 3.5,0.5 h 3.5 l 4,0.5 3.5,0.5 3.5,0.5 4,0.5 3.5,0.5 3.5,1 3.5,0.5 4,1 3.5,1.5 3.5,1 3.5,1.5 4,1.5 3.5,1.5 3.5,2 3.5,2 4,2 3.5,2.5 3.5,2.5 3.5,-6.5 4,-9.5 3.5,-9.5 3.5,-10 4,-9.5 3.5,-10 3.5,-9.5 3.5,-10 4,-9.5 3.5,-10 3.5,-10 3.5,-10 4,-9.5 3.5,-10 3.5,-9.5 3.5,-10 4,-9.5 3.5,-9.5 3.5,-9.5 3.5,-9 4,-9.5 3.5,-9 3.5,-9 3.5,-9 4,-9 3.5,-8.5 3.5,-8.5 4,-8.5 3.5,-8 3.5,-8 3.5,-7.5 4,-8 3.5,-7 3.5,-7.5 3.5,-7 4,-6.5 3.5,-6.5 3.5,-6.5 3.5,-6 4,-6 3.5,-5.5 3.5,-5.5 3.5,-5 4,-5 3.5,-4.5 3.5,-4.5 3.5,-4 4,-4 3.5,-3.5 3.5,-3 4,-3 3.5,-3 3.5,-2.5 3.5,-2 4,-2 3.5,-1.5 3.5,-1.5 3.5,-1 4,-0.5 3.5,-0.5 h 3.5 3.5 l 4,0.5 3.5,0.5 3.5,1 4,1.5 3.5,1.5 3.5,2 4,2 3.5,2 3.5,3 4,2.5 3.5,3 4,3.5 3.5,3.5 3.5,4 4,4.5 3.5,4.5 3.5,4.5 4,5 3.5,5.5 3.5,5.5 4,6 3.5,6 3.5,6.5 4,7 3.5,7 3.5,7 4,7.5 3.5,8 3.5,8 4,8.5 3.5,9 3.5,9 4,9 3.5,9.5 3.5,10 4,10 3.5,10.5 3.5,10.5 4,11 3.5,11 3.5,11.5 4,12 3.5,12 3.5,12.5 4,12.5 3.5,12.5 3.5,2 4,-8 3.5,-8 3.5,-7.5 4,-7 3.5,-7 3.5,-6.5 4,-6 3.5,-6 3.5,-5 4,-5 3.5,-5 3.5,-4 4,-4 3.5,-3.5 3.5,-3 4,-2.5 3.5,-2 3.5,-2 4,-1.5 3.5,-1 3.5,-0.5 h 4 l 3.5,-0.5 h 3.5 3.5 l 4,-0.5 3.5,-0.5 h 3.5 l 3.5,-1 4,-0.5 3.5,-0.5 3.5,-1 3.5,-0.5 4,-1 3.5,-1 3.5,-0.5 4,-1 3.5,-1 3.5,-1 3.5,-1 4,-1 3.5,-1 3.5,-1 3.5,-1 4,-1 3.5,-1 3.5,-1 3.5,-1 4,-0.5 3.5,-0.5 3.5,-1 3.5,-0.5 h 4 l 3.5,-0.5 h 3.5 3.5 4 3.5 l 3.5,0.5 4,0.5 3.5,1 3.5,1 3.5,1 4,1.5 3.5,3.5 3.5,4 3.5,3 4,3 3.5,2 3.5,1.5 3.5,1 h 4 l 3.5,-1.5 3.5,-2 4,-1.5 3.5,-2 3.5,-1.5 4,-1 3.5,-1.5 3.5,-1 3.5,-1.5 4,-0.5 3.5,-1 3.5,-0.5 4,-0.5 3.5,-0.5 h 3.5 4 3.5 l 3.5,0.5 4,0.5 3.5,0.5 3.5,1 4,1 3.5,1.5 3.5,1.5 3.5,1.5 4,2 3.5,1.5 3.5,2.5 4,2"
         style="fill:none;stroke:#9400d4;stroke-width:1.25;stroke-linecap:butt;stroke-linejoin:miter;stroke-miterlimit:3.8;stroke-dasharray:none;stroke-opacity:1"
         id="path146" /><path
         d="m 1208.5,1268.5 3.5,2.5 3.5,3 4,2.5 3.5,3 3.5,3.5 4,3 3.5,3.5 3.5,4 4,3.5 3.5,4 3.5,4 3.5,4 4,4 3.5,4.5 3.5,4 4,4.5 3.5,4.5 3.5,4.5 4,4.5 3.5,4.5 3.5,5 4,4.5 3.5,4.5 3.5,4.5 4,4.5 3.5,4.5 3.5,4.5 3.5,4 4,4 3.5,4.5 3.5,4 4,3.5 3.5,4 3.5,3.5 4,3.5 3.5,3 3.5,3.5 4,3 3.5,2.5 3.5,2.5 4,2.5 3.5,2.5 3.5,2 3.5,2 4,2 3.5,1.5 3.5,1.5 4,1 3.5,1.5 3.5,1 4,1 3.5,0.5 3.5,0.5 4,0.5 3.5,0.5 h 3.5 4 3.5 3.5 l 4,-0.5 3.5,-1 3.5,-0.5 4,-1 3.5,-1.5 3.5,-1.5 4,-1.5 3.5,-1.5 3.5,-2 4,-2 3.5,-2.5 3.5,-2 4,-2.5 3.5,-3 3.5,-2.5 4,-3 3.5,-3 3.5,-3.5 4,-3 3.5,-3.5 3.5,-3.5 4,-3.5 3.5,-3.5 3.5,-3.5 4,-4 3.5,-3.5 3.5,-4 4,-4 3.5,-3.5 3.5,-4 4,-4 3.5,-4 3.5,-4 4,-3.5 3.5,-4 3.5,-4 4,-4 3.5,-3.5 3.5,-4 4,-3.5 3.5,-3.5 3.5,-3.5 4,-3.5 3.5,-3.5 3.5,-3 4,-3.5 3.5,-3 3.5,-3 4,-2.5 3.5,-3 3.5,-2.5 4,-2.5 3.5,-2.5 3.5,-2 4,-2.5 3.5,-1.5 3.5,-2 4,-1.5 3.5,-1.5 3.5,-1.5 4,-1.5 3.5,-1 3.5,-0.5 4,-1 3.5,-0.5 3.5,-0.5 h 4 3.5"
         style="fill:none;stroke:#9400d4;stroke-width:1.25;stroke-linecap:butt;stroke-linejoin:miter;stroke-miterlimit:3.8;stroke-dasharray:none;stroke-opacity:1"
         id="path148" /><path
         d="m 301,1442 h 29 l 3.5,-0.5 H 370 l 3.5,0.5 h 3.5 l 4,0.5 3.5,0.5 3.5,0.5 4,0.5 3.5,0.5 3.5,1 3.5,0.5 4,1 3.5,1.5 3.5,1 3.5,1.5 4,1.5 3.5,1.5 3.5,2 3.5,2 4,2 3.5,2.5 3.5,2.5 3.5,2.5 4,3 3.5,3 3.5,3 4,3.5 3.5,4 3.5,3.5 3.5,4 4,4.5 3.5,4.5 3.5,4.5 3.5,5 4,5 3.5,5 3.5,5.5 3.5,6 4,6 3.5,6 3.5,6.5 3.5,6.5 4,6.5 3.5,7 3.5,7 3.5,7 4,7.5 3.5,7.5 3.5,8 4,7.5 3.5,8 3.5,8 3.5,8.5 4,8 3.5,8.5 3.5,8.5 3.5,8 4,8.5 3.5,8.5 3.5,8.5 3.5,8.5 4,8 3.5,8.5 3.5,8 3.5,8 4,7.5 3.5,7.5 3.5,7.5 3.5,7 4,6.5 3.5,6.5 3.5,6 4,6 3.5,5 3.5,5 3.5,4 4,4 3.5,3 3.5,2.5 3.5,2 4,1.5 3.5,1 3.5,0.5 3.5,-0.5 4,-1.5 3.5,-2 3.5,-3 4,-3.5 3.5,-4.5 3.5,-5.5 4,-6 3.5,-7 3.5,-7.5 4,-8 3.5,-8.5 4,-9 3.5,-9.5 3.5,-10 4,-10.5 3.5,-11 3.5,-11 4,-11.5 3.5,-12 3.5,-12 4,-12 3.5,-12 3.5,-12.5 4,-12.5 3.5,-12.5 3.5,-12 4,-12.5 3.5,-12.5 3.5,-12.5 4,-12.5 3.5,-12 3.5,-12 4,-12 3.5,-12 3.5,-11.5 4,-11.5 3.5,-11.5 3.5,-11 4,-10.5 3.5,-10.5 3.5,-10.5 4,-10 3.5,-10 3.5,-9.5 4,-9 3.5,-9 3.5,3 4,13 3.5,14 3.5,14 4,14 3.5,14.5 3.5,14.5 4,15 3.5,15.5 3.5,15.5 4,15.5 3.5,16 3.5,16 4,16.5 3.5,17 3.5,16.5 4,17.5 3.5,17 3.5,17.5 4,17 3.5,1.5 3.5,0.5 4,0.5 h 3.5 3.5 3.5 l 4,0.5 3.5,0.5 3.5,0.5 3.5,-2 4,-14.5 3.5,-15 3.5,-14.5 3.5,-14.5 4,-14 3.5,-14 3.5,-14 4,-13.5 3.5,-13.5 3.5,-13 3.5,-12.5 4,-12.5 3.5,-12 3.5,-12 3.5,-11.5 4,-11.5 3.5,-11 3.5,-10.5 3.5,-10.5 4,-10 3.5,-10 3.5,-9.5 3.5,-9 4,-9 3.5,-8.5 3.5,-8 3.5,-8 4,-8 3.5,-7 3.5,-7 4,-7 3.5,-6.5 3.5,-6 3.5,-6 4,-5.5 3.5,-5 3.5,-5 3.5,-5 4,-4.5 3.5,-4 3.5,-4 3.5,-3.5 4,-3.5 3.5,4 3.5,3 4,3.5 3.5,2.5 3.5,2.5 4,2 3.5,1.5 3.5,0.5 3.5,0.5 h 4 l 3.5,-1 3.5,-1.5 4,-2.5 3.5,-3 3.5,-3.5 4,-4.5 3.5,-5.5 3.5,-6 4,-7 3.5,-0.5 3.5,1 4,1 3.5,1.5 3.5,1.5 3.5,1.5 4,2 3.5,1.5 3.5,2.5 4,2"
         style="fill:none;stroke:#9400d4;stroke-width:1.25;stroke-linecap:butt;stroke-linejoin:miter;stroke-miterlimit:3.8;stroke-dasharray:none;stroke-opacity:1"
         id="path150" /><path
         d="m 1208.5,1268.5 3.5,2.5 3.5,3 4,2.5 3.5,3 3.5,3.5 4,3 3.5,3.5 3.5,4 4,3.5 3.5,4 3.5,4 3.5,4 4,4 3.5,4.5 3.5,4 4,4.5 3.5,4.5 3.5,4.5 4,4.5 3.5,4.5 3.5,5 4,4.5 3.5,4.5 3.5,4.5 4,4.5 3.5,4.5 3.5,4.5 3.5,4 4,4 3.5,4.5 3.5,4 4,3.5 3.5,4 3.5,3.5 4,3.5 3.5,3 3.5,3.5 4,3 3.5,2.5 3.5,2.5 4,2.5 3.5,2.5 3.5,2 3.5,2 4,2 3.5,1.5 3.5,1.5 4,1 3.5,1.5 3.5,1 4,1 3.5,0.5 3.5,0.5 4,0.5 3.5,0.5 h 3.5 4 3.5 3.5 4 3.5 3.5 4 l 3.5,-0.5 h 3.5 4 l 3.5,-0.5 3.5,-0.5 h 4 l 3.5,-0.5 3.5,-1 4,-0.5 3.5,-0.5 3.5,-1 4,-1 3.5,-1 3.5,-1.5 4,-1 3.5,-1.5 3.5,-1.5 4,-2 3.5,-1.5 3.5,-2 4,-1.5 3.5,-2 3.5,-1.5 4,-2 3.5,-1.5 3.5,-1.5 4,-1.5 3.5,-1 3.5,-1 h 4 3.5 l 3.5,0.5 4,1 3.5,2 3.5,2.5 4,3.5 3.5,4.5 3.5,5 4,6.5 3.5,7.5 3.5,8.5 4,9.5 3.5,11 3.5,11.5 4,13 3.5,13.5 3.5,15 4,15 3.5,16 3.5,16 4,16 3.5,16 3.5,15.5 4,14 3.5,12 3.5,9.5 4,6.5 3.5,4 3.5,3 4,2 3.5,1 3.5,1 h 4 l 3.5,0.5"
         style="fill:none;stroke:#9400d4;stroke-width:1.25;stroke-linecap:butt;stroke-linejoin:miter;stroke-miterlimit:3.8;stroke-dasharray:none;stroke-opacity:1"
         id="path152" /><path
         d="m 301,1442 3.5,0.5 h 4 l 3.5,0.5 3.5,0.5 3.5,1 4,1 3.5,1 3.5,1.5 3.5,1.5 4,1.5 3.5,2 3.5,2 3.5,2 4,2.5 3.5,2.5 3.5,2.5 3.5,3 4,3 3.5,3 3.5,3.5 3.5,3.5 4,3.5 3.5,3.5 3.5,4 4,4 3.5,4 3.5,4.5 3.5,4.5 4,4.5 3.5,4.5 3.5,5 3.5,4.5 4,-5 3.5,-9 3.5,-8.5 3.5,-9 4,-9 3.5,-9.5 3.5,-9 3.5,-0.5 4,3 3.5,3 3.5,3 4,3.5 3.5,4 3.5,3.5 3.5,4 4,4.5 3.5,4.5 3.5,4.5 3.5,5 4,5 3.5,5 3.5,5.5 3.5,6 4,6 3.5,6 3.5,6.5 3.5,6.5 4,6.5 3.5,7 3.5,7 3.5,7 4,7.5 3.5,7.5 3.5,8 4,7.5 3.5,8 3.5,8 3.5,8.5 4,8 3.5,8.5 3.5,8.5 3.5,8 4,8.5 3.5,8.5 3.5,8.5 3.5,8.5 4,8 3.5,8.5 3.5,8 3.5,8 4,7.5 3.5,7.5 3.5,7.5 3.5,7 4,6.5 3.5,6.5 3.5,6 4,6 3.5,5 3.5,5 3.5,4 4,4 3.5,3 3.5,2.5 3.5,2 4,1.5 3.5,1 3.5,0.5 3.5,-0.5 4,-1 3.5,-1.5 3.5,-2 4,-2.5 3.5,-3.5 3.5,-4 4,-4.5 3.5,-5 3.5,-5.5 4,-6 3.5,-6.5 4,-7 3.5,-7.5 3.5,-8 4,-8 3.5,-8.5 3.5,-8.5 4,-9 3.5,-9 3.5,-9.5 4,-9.5 3.5,-9 3.5,-9.5 4,-9 3.5,-9 3.5,-8.5 4,-8.5 3.5,-7.5 3.5,-7.5 4,-7 3.5,-6.5 3.5,-5.5 4,-5.5 3.5,-4 3.5,-3.5 4,-3 3.5,-2 3.5,-1 4,-0.5 h 3.5 l 3.5,1 4,1.5 3.5,2 3.5,2.5 4,3 3.5,3.5 3.5,3.5 4,4 3.5,4.5 3.5,4 4,4.5 3.5,4.5 3.5,4.5 4,4.5 3.5,4 3.5,4.5 4,4 3.5,4 3.5,3.5 4,3.5 3.5,3 3.5,2.5 4,2.5 3.5,2 3.5,2 4,1 3.5,16.5 3.5,15 4,8 h 3.5 3.5 3.5 4 l 3.5,-9.5 3.5,-14 3.5,-12 4,0.5 3.5,0.5 3.5,1 3.5,0.5 4,1 3.5,1 3.5,1 4,1 3.5,1 3.5,1 3.5,1 4,1.5 3.5,1 3.5,1.5 3.5,1.5 4,1 3.5,1.5 3.5,1.5 3.5,1 4,1.5 3.5,1.5 3.5,1 3.5,1.5 4,1.5 3.5,1 3.5,1.5 3.5,1 4,1.5 3.5,1 3.5,1 4,1 3.5,1 3.5,1 3.5,0.5 4,1 3.5,0.5 3.5,0.5 3.5,0.5 4,0.5 3.5,0.5 h 3.5 3.5 l 4,0.5 3.5,-0.5 h 3.5 4 3.5 l 3.5,-0.5 h 4 l 3.5,-0.5 3.5,-0.5 3.5,-0.5 4,-0.5 3.5,-0.5 3.5,-0.5 4,-0.5 3.5,-1 3.5,-0.5 4,-1 3.5,-0.5 3.5,-1 4,-1 3.5,-1 3.5,-1 4,-1 3.5,-1 3.5,-1.5 3.5,-1 4,-1 3.5,-1.5 3.5,-1 4,-1.5"
         style="fill:none;stroke:#9400d4;stroke-width:1.25;stroke-linecap:butt;stroke-linejoin:miter;stroke-miterlimit:3.8;stroke-dasharray:none;stroke-opacity:1"
         id="path154" /><path
         d="m 1208.5,1696 3.5,-1 3.5,-1.5 4,-1.5 3.5,-1.5 3.5,-1 4,-1.5 3.5,-1.5 3.5,-1.5 4,-1 3.5,-1.5 3.5,-1.5 3.5,-1 4,-1.5 3.5,-1.5 3.5,-1 4,-1 3.5,-1.5 3.5,-1 4,-1 3.5,-1 3.5,-1 4,-1 3.5,-0.5 3.5,-11.5 4,-12.5 3.5,-12 3.5,-11.5 3.5,-11.5 4,-11 3.5,-10.5 3.5,-10.5 4,-10 3.5,-9.5 3.5,-9 4,-9 3.5,-8.5 3.5,-8 4,-8 3.5,-7 3.5,-7 4,-7 3.5,-6 3.5,-6 3.5,-5.5 4,-5 3.5,-4.5 3.5,-4.5 4,-3.5 3.5,-3.5 3.5,-3 4,-3 3.5,-2 3.5,-2 4,-1.5 3.5,-1 3.5,-0.5 4,-0.5 3.5,0.5 3.5,0.5 4,1 3.5,1 3.5,1.5 4,2 3.5,2.5 3.5,2.5 4,3 3.5,3.5 3.5,3.5 4,4 3.5,4.5 3.5,4.5 4,5 3.5,5 3.5,5.5 4,6 3.5,6 3.5,6.5 4,7 3.5,6.5 3.5,7.5 4,7.5 3.5,7.5 3.5,8 4,8 3.5,8.5 3.5,8.5 4,8.5 3.5,8.5 3.5,9 4,9.5 3.5,9 3.5,9 4,9 3.5,1 3.5,1 4,1 3.5,1.5 3.5,1.5 4,1.5 3.5,1.5 3.5,1.5 4,1.5 3.5,2 3.5,1.5 4,2 3.5,1.5 3.5,2 4,1.5 3.5,2 3.5,1.5 4,2 3.5,2 3.5,1.5 4,2.5 3.5,2 3.5,3 4,3.5 3.5,5 3.5,6.5 4,8.5 3.5,5.5 h 3.5 l 4,0.5 h 3.5 3.5 l 4,0.5 h 3.5"
         style="fill:none;stroke:#9400d4;stroke-width:1.25;stroke-linecap:butt;stroke-linejoin:miter;stroke-miterlimit:3.8;stroke-dasharray:none;stroke-opacity:1"
         id="path156" /><path
         d="m 301,1677.5 h 3.5 l 4,-0.5 3.5,-1 3.5,-1 3.5,-1.5 4,-1.5 3.5,-2 3.5,-2.5 3.5,-2.5 4,-3 3.5,-3 3.5,-3.5 3.5,-4 4,-4 3.5,-4.5 3.5,-4.5 3.5,-5 4,-5 3.5,-5.5 3.5,-6 3.5,-6 4,-6 3.5,-6.5 3.5,-6.5 4,-7 3.5,-7.5 3.5,-7 3.5,-8 4,-7.5 3.5,-8 3.5,-8 3.5,-8.5 4,1.5 3.5,5 3.5,5.5 3.5,5 4,5.5 3.5,5.5 3.5,5.5 3.5,5.5 4,5.5 3.5,5.5 3.5,6 4,5.5 3.5,6 3.5,6 3.5,5.5 4,6 3.5,6 3.5,6 3.5,6 4,6 3.5,6 3.5,6 3.5,6 4,5.5 3.5,6 3.5,6 3.5,6 4,5.5 3.5,6 3.5,5.5 3.5,5.5 4,5.5 3.5,5.5 3.5,5.5 4,5 3.5,5.5 3.5,5 3.5,5 4,5 3.5,4.5 3.5,5 3.5,4.5 4,4.5 3.5,4 3.5,4 3.5,4 4,4 3.5,4 3.5,3.5 3.5,3 4,3.5 3.5,3 3.5,3 3.5,2.5 4,2.5 3.5,2.5 3.5,2.5 4,2 3.5,1.5 3.5,1.5 3.5,1.5 4,1.5 3.5,1 3.5,1 3.5,0.5 4,0.5 3.5,0.5 h 3.5 3.5 4 3.5 l 3.5,0.5 h 4 3.5 l 3.5,0.5 4,0.5 h 3.5 l 3.5,0.5 4,0.5 3.5,0.5 4,0.5 3.5,0.5 3.5,0.5 4,0.5 3.5,1 3.5,0.5 4,0.5 3.5,1 3.5,0.5 4,1 3.5,0.5 3.5,1 4,1 3.5,0.5 3.5,1 4,1 3.5,1 3.5,1 4,1 3.5,0.5 3.5,1 4,1 3.5,1 3.5,1 4,1 3.5,1 3.5,1 4,1 3.5,0.5 3.5,1 4,1 3.5,1 3.5,1 4,0.5 3.5,1 3.5,1 4,0.5 3.5,1 3.5,0.5 4,1 3.5,0.5 3.5,0.5 4,1 3.5,0.5 3.5,0.5 4,0.5 3.5,0.5 3.5,0.5 h 4 l 3.5,0.5 3.5,0.5 4,-15 3.5,-19.5 3.5,-19.5 4,-19 3.5,-18 3.5,-15.5 4,-8 3.5,-2.5 3.5,-7.5 3.5,-10.5 4,-12.5 3.5,-4.5 h 3.5 3.5 4 l 3.5,0.5 h 3.5 3.5 4 l 3.5,0.5 h 3.5 4 3.5 l 3.5,0.5 h 3.5 4 l 3.5,0.5 h 3.5 l 3.5,0.5 h 4 3.5 l 3.5,0.5 h 3.5 4 l 3.5,0.5 h 3.5 3.5 l 4,0.5 h 3.5 3.5 l 3.5,0.5 h 4 3.5 l 3.5,0.5 h 4 3.5 3.5 l 3.5,0.5 h 4 3.5 3.5 3.5 4 3.5 3.5 3.5 l 4,0.5 3.5,-0.5 h 3.5 4 3.5 l 3.5,-0.5 h 4 l 3.5,-0.5 3.5,-0.5 3.5,-0.5 4,-0.5 3.5,-0.5 3.5,-0.5 4,-0.5 3.5,-1 3.5,-0.5 4,-1 3.5,-0.5 3.5,-1 4,-1 3.5,-1 3.5,-1 4,-1 3.5,-1 3.5,-1.5 3.5,-1 4,-1 3.5,-1.5 3.5,-1 4,-1.5"
         style="fill:none;stroke:#9400d4;stroke-width:1.25;stroke-linecap:butt;stroke-linejoin:miter;stroke-miterlimit:3.8;stroke-dasharray:none;stroke-opacity:1"
         id="path158" /><path
         d="m 1208.5,1696 3.5,-1 3.5,-1.5 4,-1.5 3.5,-1.5 3.5,-1 4,-1.5 3.5,-1.5 3.5,-1.5 4,-1 3.5,-1.5 3.5,-1.5 3.5,-1 4,-1.5 3.5,-1.5 3.5,-1 4,-1 3.5,-1.5 3.5,-1 4,-1 3.5,-1 3.5,-1 4,-1 3.5,-0.5 3.5,-1 4,-0.5 3.5,-0.5 3.5,-0.5 3.5,-0.5 h 4 3.5 l 3.5,-0.5 4,0.5 h 3.5 3.5 l 4,0.5 3.5,0.5 3.5,0.5 4,0.5 3.5,0.5 3.5,0.5 4,1 3.5,0.5 3.5,1 3.5,0.5 4,1 3.5,0.5 3.5,1 4,0.5 3.5,0.5 3.5,1 4,0.5 3.5,0.5 h 3.5 l 4,0.5 3.5,0.5 h 3.5 4 3.5 l 3.5,-0.5 4,-0.5 3.5,-0.5 3.5,-1 4,-1 3.5,-1.5 3.5,-1.5 4,-1.5 3.5,-1.5 3.5,-2 4,-1.5 3.5,-2 3.5,-2 4,-2 3.5,-2 3.5,-2 4,-2 3.5,-2 3.5,-1.5 4,-2 3.5,-1.5 3.5,-1.5 4,-1 3.5,-1 3.5,-1 4,-0.5 3.5,-1 h 3.5 l 4,-0.5 3.5,0.5 h 3.5 l 4,0.5 3.5,0.5 3.5,0.5 4,1.5 3.5,9.5 3.5,9.5 4,9.5 3.5,9.5 3.5,9.5 4,5 3.5,1 3.5,1 4,0.5 3.5,1 3.5,1 4,0.5 3.5,1 3.5,0.5 4,1 3.5,0.5 3.5,1 4,0.5 3.5,1 3.5,0.5 4,0.5 3.5,0.5 3.5,1 4,0.5 3.5,0.5 h 3.5 l 4,0.5 3.5,4.5 3.5,9.5 4,8.5 3.5,7 3.5,5 4,3.5 3.5,1"
         style="fill:none;stroke:#9400d4;stroke-width:1.25;stroke-linecap:butt;stroke-linejoin:miter;stroke-miterlimit:3.8;stroke-dasharray:none;stroke-opacity:1"
         id="path160" /><path
         d="m 301,1677.5 h 7.5 l 3.5,0.5 3.5,0.5 3.5,0.5 4,0.5 3.5,1 3.5,1 3.5,1 4,1 3.5,1.5 3.5,1 3.5,1.5 4,1.5 3.5,2 3.5,1.5 3.5,2 4,2 3.5,2 3.5,2 3.5,2 4,2.5 3.5,2.5 3.5,2.5 4,2.5 3.5,2.5 3.5,2.5 3.5,3 4,3 3.5,3 3.5,3 3.5,3 4,3.5 3.5,3.5 3.5,3.5 3.5,4 4,4 3.5,4.5 3.5,4.5 3.5,5 4,5.5 3.5,5.5 3.5,6 4,7 3.5,7 3.5,8 3.5,8.5 4,9 3.5,10 3.5,11 3.5,11.5 4,13 3.5,14 3.5,14.5 3.5,16.5 4,17 3.5,18.5 3.5,19.5 3.5,20.5 4,22 3.5,23 3.5,24 3.5,25.5 4,26.5 3.5,27.5 3.5,28.5 4,29.5 3.5,30 3.5,31 3.5,32 4,32.5 3.5,33.5 3.5,34 3.5,34.5 3,28 m 228,0 3,-19.5 3.5,-24.5 4,-24 3.5,-24 3.5,-23.5 4,-24 3.5,-23.5 3.5,-23.5 4,-23 3.5,-23.5 3.5,-23 4,-23 3.5,-22.5 3.5,-22.5 4,-22.5 3.5,-22.5 3.5,-22 4,-22 3.5,-21.5 3.5,-21.5 4,-21.5 3.5,-21.5 3.5,-20.5 4,-21 3.5,-20.5 3.5,-20.5 4,-5 3.5,0.5 h 3.5 l 4,0.5 h 3.5 3.5 4 l 3.5,3 3.5,8 3.5,12 4,14.5 3.5,16 3.5,17.5 3.5,18 4,19 3.5,19.5 3.5,20 3.5,20 4,21 3.5,21 3.5,21.5 4,21.5 3.5,22 3.5,22 3.5,22.5 4,23 3.5,23 3.5,23 3.5,23.5 4,24 3.5,24 3.5,24.5 3.5,24.5 4,24.5 3.5,25 3.5,25 v 2.5 m 133.5,0 1.5,-9.5 3.5,-32.5 3.5,-32 4,-31.5 3.5,-30 3.5,-30 4,-29 3.5,-28 3.5,-27.5 3.5,-27 4,-26 3.5,-25 3.5,-24.5 4,-24 3.5,-23.5 3.5,-22.5 4,-22 3.5,-21.5 3.5,-20.5 4,-20.5 3.5,-19.5 3.5,-19 4,-18.5 3.5,-18 3.5,-18 3.5,-17 4,-17 3.5,-16.5 3.5,-15.5 4,-16 3.5,-15 3.5,-15 4,-14 3.5,-14.5 3.5,-13.5 4,-13.5 3.5,-13 3.5,-2 4,-0.5 3.5,-0.5 3.5,-0.5 3.5,-0.5 h 4 3.5 l 3.5,-0.5 4,0.5 h 3.5 3.5 l 4,0.5 3.5,0.5 3.5,0.5 4,0.5 3.5,0.5 3.5,0.5 4,1 3.5,0.5 3.5,1 3.5,0.5 4,1 3.5,0.5 3.5,1 4,0.5 3.5,0.5 3.5,1 4,0.5 3.5,0.5 h 3.5 l 4,0.5 3.5,0.5 h 3.5 4 3.5 3.5 4 3.5 3.5 l 4,0.5 h 3.5 3.5 4 l 3.5,0.5 h 3.5 4 l 3.5,0.5 h 3.5 l 4,0.5 h 3.5 l 3.5,0.5 4,0.5 h 3.5 l 3.5,0.5 4,0.5 3.5,0.5 3.5,0.5 4,0.5 3.5,0.5 3.5,0.5 4,0.5 3.5,0.5 3.5,0.5 4,0.5 3.5,1 3.5,0.5 4,0.5 3.5,1 3.5,0.5 4,1 3.5,0.5 3.5,1"
         style="fill:none;stroke:#9400d4;stroke-width:1.25;stroke-linecap:butt;stroke-linejoin:miter;stroke-miterlimit:3.8;stroke-dasharray:none;stroke-opacity:1"
         id="path162" /><path
         d="m 1556,1692 4,0.5 3.5,1 3.5,1 4,5 3.5,9 3.5,9.5 4,9 3.5,9.5 3.5,8.5 4,9 3.5,8.5 3.5,8.5 4,8 3.5,8 3.5,7.5 4,7.5 3.5,7 3.5,6.5 4,6.5 3.5,6 3.5,5.5 4,5 3.5,5 3.5,4 4,4 3.5,3 3.5,3 4,2.5 3.5,1.5 3.5,1.5 4,0.5 3.5,0.5"
         style="fill:none;stroke:#9400d4;stroke-width:1.25;stroke-linecap:butt;stroke-linejoin:miter;stroke-miterlimit:3.8;stroke-dasharray:none;stroke-opacity:1"
         id="path164" /><path
         d="m 301,374 h 3.5 l 4,1 3.5,1.5 3.5,2.5 3.5,3 4,3.5 3.5,4 3.5,5 3.5,5 4,6 3.5,7 3.5,7 3.5,8 4,8.5 3.5,9 3.5,9.5 3.5,10 4,11 3.5,11.5 3.5,11.5 3.5,12.5 4,13 3.5,13.5 3.5,13.5 4,14.5 3.5,15 3.5,15 3.5,16 4,16 3.5,16.5 3.5,17 3.5,17 4,17.5 3.5,17.5 3.5,18 3.5,18 4,18.5 3.5,18.5 3.5,18.5 3.5,18 4,18.5 3.5,18.5 3.5,18 4,18 3.5,17.5 3.5,17.5 3.5,17 4,16.5 3.5,15.5 3.5,15.5 3.5,14.5 4,14 3.5,13 3.5,12 3.5,11.5 4,10 3.5,9.5 3.5,8.5 3.5,7.5 4,6.5 3.5,6 3.5,4.5 3.5,4 4,3 3.5,2.5 3.5,1.5 4,1 3.5,0.5 3.5,-0.5 3.5,-0.5 4,-1 3.5,-2 3.5,-2 3.5,-2 4,-2.5 3.5,-3 3.5,-3 3.5,-3 4,-3 3.5,-3.5 3.5,-3 3.5,-3.5 4,-3 3.5,-3.5 3.5,-3 3.5,-3 4,-3 3.5,-2.5 3.5,-3 4,-2 3.5,-2.5 3.5,-2 3.5,-2 4,-1.5 3.5,-1.5 3.5,-1 3.5,-1 4,-0.5 3.5,-0.5 h 3.5 3.5 l 4,0.5 3.5,0.5 3.5,1 4,1.5 3.5,1.5 3.5,1.5 4,2 3.5,2.5 3.5,2.5 4,3 3.5,3 4,3.5 3.5,3 3.5,3.5 4,4 3.5,3.5 3.5,4 4,4 3.5,4 3.5,4 4,4 3.5,4 3.5,4 4,3.5 3.5,3.5 3.5,3 4,3 3.5,2.5 3.5,2.5 4,1.5 3.5,1.5 3.5,0.5 4,0.5 3.5,-0.5 3.5,-1 4,-1.5 3.5,-2 3.5,-3 4,-3 3.5,-4 3.5,-4 4,-5 3.5,-5 3.5,-5.5 4,-5.5 3.5,-5.5 3.5,-6 4,-6 3.5,-6 3.5,-6 4,-6 3.5,-6 3.5,-5.5 4,-5.5 3.5,-5.5 3.5,-5 4,-5 3.5,-4.5 3.5,-4 4,-3.5 3.5,-3.5 3.5,-3.5 4,-2.5 3.5,-2.5 3.5,-1.5 4,-1.5 3.5,-1 3.5,-1 h 4 3.5 l 3.5,1 3.5,1 4,1.5 3.5,2 3.5,2.5 3.5,3 4,3 3.5,4 3.5,4 3.5,4.5 4,5 3.5,5 3.5,5.5 4,6 3.5,6.5 3.5,6.5 3.5,6.5 4,7 3.5,7.5 3.5,7.5 3.5,8 4,7.5 3.5,8 3.5,8.5 3.5,8 4,8 3.5,8.5 3.5,8 3.5,8.5 4,8 3.5,8 3.5,7.5 3.5,8 4,7 3.5,7.5 3.5,6.5 4,6.5 3.5,6 3.5,6 3.5,5 4,5 3.5,2 3.5,1.5 3.5,2 4,2 3.5,2.5 3.5,2.5 3.5,3 4,3 3.5,-1.5 3.5,-2 4,-1.5 3.5,-2 3.5,-1.5 4,-1 3.5,-1.5 3.5,-1 3.5,-1.5 4,-0.5 3.5,-1 3.5,-0.5 4,-0.5 3.5,-0.5 h 3.5 4 3.5 l 3.5,0.5 4,0.5 3.5,-6.5 3.5,-8.5 4,-9.5 3.5,-10 3.5,-11 3.5,-12 4,-12.5 3.5,-13 3.5,-14 4,-15"
         style="fill:none;stroke:#57b5e8;stroke-width:1.25;stroke-linecap:butt;stroke-linejoin:miter;stroke-miterlimit:3.8;stroke-dasharray:none;stroke-opacity:1"
         id="path166" /><path
         d="m 1208.5,1141.5 3.5,-15 3.5,-16 4,-16.5 3.5,-17 3.5,-17.5 4,-18 3.5,-18 3.5,-18.5 4,-19 3.5,-19 3.5,-19.5 3.5,-19 4,-19.5 3.5,-19.5 3.5,-19.5 4,-19.5 3.5,-19.5 3.5,-19.5 4,-19 3.5,-19 3.5,-19 4,-18.5 3.5,-18.5 3.5,-18 4,-18 3.5,-17.5 3.5,-17 3.5,-16.5 4,-16.5 3.5,-16 3.5,-15 4,-15 3.5,-14.5 3.5,-14.5 4,-13.5 3.5,-13 3.5,-12.5 4,-12 3.5,-11.5 3.5,-10.5 4,-10.5 3.5,-9.5 3.5,-9.5 3.5,-8.5 4,-8 3.5,-7 3.5,-7 4,-6 3.5,-5.5 3.5,-4.5 4,-4.5 3.5,-3.5 3.5,-3 4,-2.5 3.5,-1.5 3.5,-1 h 4 3.5 l 3.5,1 4,1.5 3.5,2.5 3.5,3 4,3.5 3.5,4.5 3.5,4.5 4,5.5 3.5,6.5 3.5,6.5 4,7.5 3.5,8 3.5,8.5 4,9.5 3.5,9.5 3.5,10.5 4,11 3.5,11 3.5,12 4,13 3.5,13 3.5,13.5 4,14 3.5,14 3.5,15 4,15.5 3.5,15.5 3.5,16 4,16 3.5,17 3.5,16.5 4,17 3.5,17 3.5,17 4,17 3.5,17.5 3.5,16.5 4,17 3.5,16.5 3.5,16 4,15.5 3.5,15 3.5,14.5 4,14 3.5,13 3.5,12 4,11.5 3.5,10 3.5,9.5 4,9 3.5,7.5 3.5,7 4,6 3.5,5 3.5,5 4,4 3.5,3 3.5,3 4,2.5 3.5,2 3.5,1.5 4,1.5 3.5,1 3.5,1 4,1 3.5,0.5 h 3.5 l 4,0.5 h 3.5"
         style="fill:none;stroke:#57b5e8;stroke-width:1.25;stroke-linecap:butt;stroke-linejoin:miter;stroke-miterlimit:3.8;stroke-dasharray:none;stroke-opacity:1"
         id="path168" /><path
         d="m 301,1442 h 29 l 3.5,-0.5 H 370 l 3.5,0.5 h 3.5 l 4,0.5 3.5,0.5 3.5,0.5 4,0.5 3.5,0.5 3.5,1 3.5,0.5 4,1 3.5,1.5 3.5,1 3.5,1.5 4,1.5 3.5,1.5 3.5,2 3.5,2 4,2 3.5,2.5 3.5,2.5 3.5,-6.5 4,-9.5 3.5,-9.5 3.5,-10 4,-9.5 3.5,-10 3.5,-9.5 3.5,-10 4,-9.5 3.5,-10 3.5,-10 3.5,-10 4,-9.5 3.5,-10 3.5,-9.5 3.5,-10 4,-9.5 3.5,-9.5 3.5,-9.5 3.5,-9 4,-9.5 3.5,-9 3.5,-9 3.5,-9 4,-9 3.5,-8.5 3.5,-8.5 4,-8.5 3.5,-8 3.5,-8 3.5,-7.5 4,-8 3.5,-7 3.5,-7.5 3.5,-7 4,-6.5 3.5,-6.5 3.5,-6.5 3.5,-6 4,-6 3.5,-5.5 3.5,-5.5 3.5,-5 4,-5 3.5,-4.5 3.5,-4.5 3.5,-4 4,-4 3.5,-3.5 3.5,-3 4,-3 3.5,-3 3.5,-2.5 3.5,-2 4,-2 3.5,-1.5 3.5,-1.5 3.5,-1 4,-0.5 3.5,-0.5 h 3.5 3.5 l 4,0.5 3.5,0.5 3.5,1 4,1.5 3.5,1.5 3.5,2 4,2 3.5,2 3.5,3 4,2.5 3.5,3 4,3.5 3.5,3.5 3.5,4 4,4.5 3.5,4.5 3.5,4.5 4,5 3.5,5.5 3.5,5.5 4,6 3.5,6 3.5,6.5 4,7 3.5,7 3.5,7 4,7.5 3.5,8 3.5,8 4,8.5 3.5,9 3.5,9 4,9 3.5,9.5 3.5,10 4,10 3.5,10.5 3.5,10.5 4,11 3.5,11 3.5,11.5 4,12 3.5,12 3.5,12.5 4,12.5 3.5,12.5 3.5,2 4,-8 3.5,-8 3.5,-7.5 4,-7 3.5,-7 3.5,-6.5 4,-6 3.5,-6 3.5,-5 4,-5 3.5,-5 3.5,-4 4,-4 3.5,-3.5 3.5,-3 4,-2.5 3.5,-2 3.5,-2 4,-1.5 3.5,-1 3.5,-0.5 h 4 l 3.5,-0.5 h 3.5 3.5 l 4,-0.5 3.5,-0.5 h 3.5 l 3.5,-1 4,-0.5 3.5,-0.5 3.5,-1 3.5,-0.5 4,-1 3.5,-1 3.5,-0.5 4,-1 3.5,-1 3.5,-1 3.5,-1 4,-1 3.5,-1 3.5,-1 3.5,-1 4,-1 3.5,-1 3.5,-1 3.5,-1 4,-0.5 3.5,-0.5 3.5,-1 3.5,-0.5 h 4 l 3.5,-0.5 h 3.5 3.5 4 3.5 l 3.5,0.5 4,0.5 3.5,1 3.5,1 3.5,1 4,1.5 3.5,3.5 3.5,4 3.5,3 4,3 3.5,2 3.5,1.5 3.5,1 h 4 l 3.5,-1.5 3.5,-2 4,-1.5 3.5,-2 3.5,-1.5 4,-1 3.5,-1.5 3.5,-1 3.5,-1.5 4,-0.5 3.5,-1 3.5,-0.5 4,-0.5 3.5,-0.5 h 3.5 4 3.5 l 3.5,0.5 4,0.5 3.5,0.5 3.5,1 4,1 3.5,1.5 3.5,1.5 3.5,1.5 4,2 3.5,1.5 3.5,2.5 4,2"
         style="fill:none;stroke:#57b5e8;stroke-width:1.25;stroke-linecap:butt;stroke-linejoin:miter;stroke-miterlimit:3.8;stroke-dasharray:none;stroke-opacity:1"
         id="path170" /><path
         d="m 1208.5,1268.5 3.5,2.5 3.5,3 4,2.5 3.5,3 3.5,3.5 4,3 3.5,3.5 3.5,4 4,3.5 3.5,4 3.5,4 3.5,4 4,4 3.5,4.5 3.5,4 4,4.5 3.5,4.5 3.5,4.5 4,4.5 3.5,4.5 3.5,5 4,4.5 3.5,4.5 3.5,4.5 4,4.5 3.5,4.5 3.5,4.5 3.5,4 4,4 3.5,4.5 3.5,4 4,3.5 3.5,4 3.5,3.5 4,3.5 3.5,3 3.5,3.5 4,3 3.5,2.5 3.5,2.5 4,2.5 3.5,2.5 3.5,2 3.5,2 4,2 3.5,1.5 3.5,1.5 4,1 3.5,1.5 3.5,1 4,1 3.5,0.5 3.5,0.5 4,0.5 3.5,0.5 h 3.5 4 3.5 3.5 l 4,-0.5 3.5,-1 3.5,-0.5 4,-1 3.5,-1.5 3.5,-1.5 4,-1.5 3.5,-1.5 3.5,-2 4,-2 3.5,-2.5 3.5,-2 4,-2.5 3.5,-3 3.5,-2.5 4,-3 3.5,-3 3.5,-3.5 4,-3 3.5,-3.5 3.5,-3.5 4,-3.5 3.5,-3.5 3.5,-3.5 4,-4 3.5,-3.5 3.5,-4 4,-4 3.5,-3.5 3.5,-4 4,-4 3.5,-4 3.5,-4 4,-3.5 3.5,-4 3.5,-4 4,-4 3.5,-3.5 3.5,-4 4,-3.5 3.5,-3.5 3.5,-3.5 4,-3.5 3.5,-3.5 3.5,-3 4,-3.5 3.5,-3 3.5,-3 4,-2.5 3.5,-3 3.5,-2.5 4,-2.5 3.5,-2.5 3.5,-2 4,-2.5 3.5,-1.5 3.5,-2 4,-1.5 3.5,-1.5 3.5,-1.5 4,-1.5 3.5,-1 3.5,-0.5 4,-1 3.5,-0.5 3.5,-0.5 h 4 3.5"
         style="fill:none;stroke:#57b5e8;stroke-width:1.25;stroke-linecap:butt;stroke-linejoin:miter;stroke-miterlimit:3.8;stroke-dasharray:none;stroke-opacity:1"
         id="path172" /><path
         d="m 301,1442 h 29 l 3.5,-0.5 H 370 l 3.5,0.5 h 3.5 l 4,0.5 3.5,0.5 3.5,0.5 4,0.5 3.5,0.5 3.5,1 3.5,0.5 4,1 3.5,1.5 3.5,1 3.5,1.5 4,1.5 3.5,1.5 3.5,2 3.5,2 4,2 3.5,2.5 3.5,2.5 3.5,2.5 4,3 3.5,3 3.5,3 4,3.5 3.5,4 3.5,3.5 3.5,4 4,4.5 3.5,4.5 3.5,4.5 3.5,5 4,5 3.5,5 3.5,5.5 3.5,6 4,6 3.5,6 3.5,6.5 3.5,6.5 4,6.5 3.5,7 3.5,7 3.5,7 4,7.5 3.5,7.5 3.5,8 4,7.5 3.5,8 3.5,8 3.5,8.5 4,8 3.5,8.5 3.5,8.5 3.5,8 4,8.5 3.5,8.5 3.5,8.5 3.5,8.5 4,8 3.5,8.5 3.5,8 3.5,8 4,7.5 3.5,7.5 3.5,7.5 3.5,7 4,6.5 3.5,6.5 3.5,6 4,6 3.5,5 3.5,5 3.5,4 4,4 3.5,3 3.5,2.5 3.5,2 4,1.5 3.5,1 3.5,0.5 3.5,-0.5 4,-1.5 3.5,-2 3.5,-3 4,-3.5 3.5,-4.5 3.5,-5.5 4,-6 3.5,-7 3.5,-7.5 4,-8 3.5,-8.5 4,-9 3.5,-9.5 3.5,-10 4,-10.5 3.5,-11 3.5,-11 4,-11.5 3.5,-12 3.5,-12 4,-12 3.5,-12 3.5,-12.5 4,-12.5 3.5,-12.5 3.5,-12 4,-12.5 3.5,-12.5 3.5,-12.5 4,-12.5 3.5,-12 3.5,-12 4,-12 3.5,-12 3.5,-11.5 4,-11.5 3.5,-11.5 3.5,-11 4,-10.5 3.5,-10.5 3.5,-10.5 4,-10 3.5,-10 3.5,-9.5 4,-9 3.5,-9 3.5,3 4,13 3.5,14 3.5,14 4,14 3.5,14.5 3.5,14.5 4,15 3.5,15.5 3.5,15.5 4,15.5 3.5,16 3.5,16 4,16.5 3.5,17 3.5,16.5 4,17.5 3.5,17 3.5,17.5 4,17 3.5,1.5 3.5,0.5 4,0.5 h 3.5 3.5 3.5 l 4,0.5 3.5,0.5 3.5,0.5 3.5,-2 4,-14.5 3.5,-15 3.5,-14.5 3.5,-14.5 4,-14 3.5,-14 3.5,-14 4,-13.5 3.5,-13.5 3.5,-13 3.5,-12.5 4,-12.5 3.5,-12 3.5,-12 3.5,-11.5 4,-11.5 3.5,-11 3.5,-10.5 3.5,-10.5 4,-10 3.5,-10 3.5,-9.5 3.5,-9 4,-9 3.5,-8.5 3.5,-8 3.5,-8 4,-8 3.5,-7 3.5,-7 4,-7 3.5,-6.5 3.5,-6 3.5,-6 4,-5.5 3.5,-5 3.5,-5 3.5,-5 4,-4.5 3.5,-4 3.5,-4 3.5,-3.5 4,-3.5 3.5,4 3.5,3 4,3.5 3.5,2.5 3.5,2.5 4,2 3.5,1.5 3.5,0.5 3.5,0.5 h 4 l 3.5,-1 3.5,-1.5 4,-2.5 3.5,-3 3.5,-3.5 4,-4.5 3.5,-5.5 3.5,-6 4,-7 3.5,-0.5 3.5,1 4,1 3.5,1.5 3.5,1.5 3.5,1.5 4,2 3.5,1.5 3.5,2.5 4,2"
         style="fill:none;stroke:#57b5e8;stroke-width:1.25;stroke-linecap:butt;stroke-linejoin:miter;stroke-miterlimit:3.8;stroke-dasharray:none;stroke-opacity:1"
         id="path174" /><path
         d="m 1208.5,1268.5 3.5,2.5 3.5,3 4,2.5 3.5,3 3.5,3.5 4,3 3.5,3.5 3.5,4 4,3.5 3.5,4 3.5,4 3.5,4 4,4 3.5,4.5 3.5,4 4,4.5 3.5,4.5 3.5,4.5 4,4.5 3.5,4.5 3.5,5 4,4.5 3.5,4.5 3.5,4.5 4,4.5 3.5,4.5 3.5,4.5 3.5,4 4,4 3.5,4.5 3.5,4 4,3.5 3.5,4 3.5,3.5 4,3.5 3.5,3 3.5,3.5 4,3 3.5,2.5 3.5,2.5 4,2.5 3.5,2.5 3.5,2 3.5,2 4,2 3.5,1.5 3.5,1.5 4,1 3.5,1.5 3.5,1 4,1 3.5,0.5 3.5,0.5 4,0.5 3.5,0.5 h 3.5 4 3.5 3.5 4 3.5 3.5 4 l 3.5,-0.5 h 3.5 4 l 3.5,-0.5 3.5,-0.5 h 4 l 3.5,-0.5 3.5,-1 4,-0.5 3.5,-0.5 3.5,-1 4,-1 3.5,-1 3.5,-1.5 4,-1 3.5,-1.5 3.5,-1.5 4,-2 3.5,-1.5 3.5,-2 4,-1.5 3.5,-2 3.5,-1.5 4,-2 3.5,-1.5 3.5,-1.5 4,-1.5 3.5,-1 3.5,-1 h 4 3.5 l 3.5,0.5 4,1 3.5,2 3.5,2.5 4,3.5 3.5,4.5 3.5,5 4,6.5 3.5,7.5 3.5,8.5 4,9.5 3.5,11 3.5,11.5 4,13 3.5,13.5 3.5,15 4,15 3.5,16 3.5,16 4,16 3.5,16 3.5,15.5 4,14 3.5,12 3.5,9.5 4,6.5 3.5,4 3.5,3 4,2 3.5,1 3.5,1 h 4 l 3.5,0.5"
         style="fill:none;stroke:#57b5e8;stroke-width:1.25;stroke-linecap:butt;stroke-linejoin:miter;stroke-miterlimit:3.8;stroke-dasharray:none;stroke-opacity:1"
         id="path176" /><path
         d="m 301,1442 3.5,0.5 h 4 l 3.5,0.5 3.5,0.5 3.5,1 4,1 3.5,1 3.5,1.5 3.5,1.5 4,1.5 3.5,2 3.5,2 3.5,2 4,2.5 3.5,2.5 3.5,2.5 3.5,3 4,3 3.5,3 3.5,3.5 3.5,3.5 4,3.5 3.5,3.5 3.5,4 4,4 3.5,4 3.5,4.5 3.5,4.5 4,4.5 3.5,4.5 3.5,5 3.5,4.5 4,-5 3.5,-9 3.5,-8.5 3.5,-9 4,-9 3.5,-9.5 3.5,-9 3.5,-0.5 4,3 3.5,3 3.5,3 4,3.5 3.5,4 3.5,3.5 3.5,4 4,4.5 3.5,4.5 3.5,4.5 3.5,5 4,5 3.5,5 3.5,5.5 3.5,6 4,6 3.5,6 3.5,6.5 3.5,6.5 4,6.5 3.5,7 3.5,7 3.5,7 4,7.5 3.5,7.5 3.5,8 4,7.5 3.5,8 3.5,8 3.5,8.5 4,8 3.5,8.5 3.5,8.5 3.5,8 4,8.5 3.5,8.5 3.5,8.5 3.5,8.5 4,8 3.5,8.5 3.5,8 3.5,8 4,7.5 3.5,7.5 3.5,7.5 3.5,7 4,6.5 3.5,6.5 3.5,6 4,6 3.5,5 3.5,5 3.5,4 4,4 3.5,3 3.5,2.5 3.5,2 4,1.5 3.5,1 3.5,0.5 3.5,-0.5 4,-1 3.5,-1.5 3.5,-2 4,-2.5 3.5,-3.5 3.5,-4 4,-4.5 3.5,-5 3.5,-5.5 4,-6 3.5,-6.5 4,-7 3.5,-7.5 3.5,-8 4,-8 3.5,-8.5 3.5,-8.5 4,-9 3.5,-9 3.5,-9.5 4,-9.5 3.5,-9 3.5,-9.5 4,-9 3.5,-9 3.5,-8.5 4,-8.5 3.5,-7.5 3.5,-7.5 4,-7 3.5,-6.5 3.5,-5.5 4,-5.5 3.5,-4 3.5,-3.5 4,-3 3.5,-2 3.5,-1 4,-0.5 h 3.5 l 3.5,1 4,1.5 3.5,2 3.5,2.5 4,3 3.5,3.5 3.5,3.5 4,4 3.5,4.5 3.5,4 4,4.5 3.5,4.5 3.5,4.5 4,4.5 3.5,4 3.5,4.5 4,4 3.5,4 3.5,3.5 4,3.5 3.5,3 3.5,2.5 4,2.5 3.5,2 3.5,2 4,1 3.5,16.5 3.5,15 4,8 h 3.5 3.5 3.5 4 l 3.5,-9.5 3.5,-14 3.5,-12 4,0.5 3.5,0.5 3.5,1 3.5,0.5 4,1 3.5,1 3.5,1 4,1 3.5,1 3.5,1 3.5,1 4,1.5 3.5,1 3.5,1.5 3.5,1.5 4,1 3.5,1.5 3.5,1.5 3.5,1 4,1.5 3.5,1.5 3.5,1 3.5,1.5 4,1.5 3.5,1 3.5,1.5 3.5,1 4,1.5 3.5,1 3.5,1 4,1 3.5,1 3.5,1 3.5,0.5 4,1 3.5,0.5 3.5,0.5 3.5,0.5 4,0.5 3.5,0.5 h 3.5 3.5 l 4,0.5 3.5,-0.5 h 3.5 4 3.5 l 3.5,-0.5 h 4 l 3.5,-0.5 3.5,-0.5 3.5,-0.5 4,-0.5 3.5,-0.5 3.5,-0.5 4,-0.5 3.5,-1 3.5,-0.5 4,-1 3.5,-0.5 3.5,-1 4,-1 3.5,-1 3.5,-1 4,-1 3.5,-1 3.5,-1.5 3.5,-1 4,-1 3.5,-1.5 3.5,-1 4,-1.5"
         style="fill:none;stroke:#57b5e8;stroke-width:1.25;stroke-linecap:butt;stroke-linejoin:miter;stroke-miterlimit:3.8;stroke-dasharray:none;stroke-opacity:1"
         id="path178" /><path
         d="m 1208.5,1696 3.5,-1 3.5,-1.5 4,-1.5 3.5,-1.5 3.5,-1 4,-1.5 3.5,-1.5 3.5,-1.5 4,-1 3.5,-1.5 3.5,-1.5 3.5,-1 4,-1.5 3.5,-1.5 3.5,-1 4,-1 3.5,-1.5 3.5,-1 4,-1 3.5,-1 3.5,-1 4,-1 3.5,-0.5 3.5,-11.5 4,-12.5 3.5,-12 3.5,-11.5 3.5,-11.5 4,-11 3.5,-10.5 3.5,-10.5 4,-10 3.5,-9.5 3.5,-9 4,-9 3.5,-8.5 3.5,-8 4,-8 3.5,-7 3.5,-7 4,-7 3.5,-6 3.5,-6 3.5,-5.5 4,-5 3.5,-4.5 3.5,-4.5 4,-3.5 3.5,-3.5 3.5,-3 4,-3 3.5,-2 3.5,-2 4,-1.5 3.5,-1 3.5,-0.5 4,-0.5 3.5,0.5 3.5,0.5 4,1 3.5,1 3.5,1.5 4,2 3.5,2.5 3.5,2.5 4,3 3.5,3.5 3.5,3.5 4,4 3.5,4.5 3.5,4.5 4,5 3.5,5 3.5,5.5 4,6 3.5,6 3.5,6.5 4,7 3.5,6.5 3.5,7.5 4,7.5 3.5,7.5 3.5,8 4,8 3.5,8.5 3.5,8.5 4,8.5 3.5,8.5 3.5,9 4,9.5 3.5,9 3.5,9 4,9 3.5,1 3.5,1 4,1 3.5,1.5 3.5,1.5 4,1.5 3.5,1.5 3.5,1.5 4,1.5 3.5,2 3.5,1.5 4,2 3.5,1.5 3.5,2 4,1.5 3.5,2 3.5,1.5 4,2 3.5,2 3.5,1.5 4,2.5 3.5,2 3.5,3 4,3.5 3.5,5 3.5,6.5 4,8.5 3.5,5.5 h 3.5 l 4,0.5 h 3.5 3.5 l 4,0.5 h 3.5"
         style="fill:none;stroke:#57b5e8;stroke-width:1.25;stroke-linecap:butt;stroke-linejoin:miter;stroke-miterlimit:3.8;stroke-dasharray:none;stroke-opacity:1"
         id="path180" /><path
         d="m 301,1677.5 h 3.5 l 4,-0.5 3.5,-1 3.5,-1 3.5,-1.5 4,-1.5 3.5,-2 3.5,-2.5 3.5,-2.5 4,-3 3.5,-3 3.5,-3.5 3.5,-4 4,-4 3.5,-4.5 3.5,-4.5 3.5,-5 4,-5 3.5,-5.5 3.5,-6 3.5,-6 4,-6 3.5,-6.5 3.5,-6.5 4,-7 3.5,-7.5 3.5,-7 3.5,-8 4,-7.5 3.5,-8 3.5,-8 3.5,-8.5 4,1.5 3.5,5 3.5,5.5 3.5,5 4,5.5 3.5,5.5 3.5,5.5 3.5,5.5 4,5.5 3.5,5.5 3.5,6 4,5.5 3.5,6 3.5,6 3.5,5.5 4,6 3.5,6 3.5,6 3.5,6 4,6 3.5,6 3.5,6 3.5,6 4,5.5 3.5,6 3.5,6 3.5,6 4,5.5 3.5,6 3.5,5.5 3.5,5.5 4,5.5 3.5,5.5 3.5,5.5 4,5 3.5,5.5 3.5,5 3.5,5 4,5 3.5,4.5 3.5,5 3.5,4.5 4,4.5 3.5,4 3.5,4 3.5,4 4,4 3.5,4 3.5,3.5 3.5,3 4,3.5 3.5,3 3.5,3 3.5,2.5 4,2.5 3.5,2.5 3.5,2.5 4,2 3.5,1.5 3.5,1.5 3.5,1.5 4,1.5 3.5,1 3.5,1 3.5,0.5 4,0.5 3.5,0.5 h 3.5 3.5 4 3.5 l 3.5,0.5 h 4 3.5 l 3.5,0.5 4,0.5 h 3.5 l 3.5,0.5 4,0.5 3.5,0.5 4,0.5 3.5,0.5 3.5,0.5 4,0.5 3.5,1 3.5,0.5 4,0.5 3.5,1 3.5,0.5 4,1 3.5,0.5 3.5,1 4,1 3.5,0.5 3.5,1 4,1 3.5,1 3.5,1 4,1 3.5,0.5 3.5,1 4,1 3.5,1 3.5,1 4,1 3.5,1 3.5,1 4,1 3.5,0.5 3.5,1 4,1 3.5,1 3.5,1 4,0.5 3.5,1 3.5,1 4,0.5 3.5,1 3.5,0.5 4,1 3.5,0.5 3.5,0.5 4,1 3.5,0.5 3.5,0.5 4,0.5 3.5,0.5 3.5,0.5 h 4 l 3.5,0.5 3.5,0.5 4,-15 3.5,-19.5 3.5,-19.5 4,-19 3.5,-18 3.5,-15.5 4,-8 3.5,-2.5 3.5,-7.5 3.5,-10.5 4,-12.5 3.5,-4.5 h 3.5 3.5 4 l 3.5,0.5 h 3.5 3.5 4 l 3.5,0.5 h 3.5 4 3.5 l 3.5,0.5 h 3.5 4 l 3.5,0.5 h 3.5 l 3.5,0.5 h 4 3.5 l 3.5,0.5 h 3.5 4 l 3.5,0.5 h 3.5 3.5 l 4,0.5 h 3.5 3.5 l 3.5,0.5 h 4 3.5 l 3.5,0.5 h 4 3.5 3.5 l 3.5,0.5 h 4 3.5 3.5 3.5 4 3.5 3.5 3.5 l 4,0.5 3.5,-0.5 h 3.5 4 3.5 l 3.5,-0.5 h 4 l 3.5,-0.5 3.5,-0.5 3.5,-0.5 4,-0.5 3.5,-0.5 3.5,-0.5 4,-0.5 3.5,-1 3.5,-0.5 4,-1 3.5,-0.5 3.5,-1 4,-1 3.5,-1 3.5,-1 4,-1 3.5,-1 3.5,-1.5 3.5,-1 4,-1 3.5,-1.5 3.5,-1 4,-1.5"
         style="fill:none;stroke:#57b5e8;stroke-width:1.25;stroke-linecap:butt;stroke-linejoin:miter;stroke-miterlimit:3.8;stroke-dasharray:none;stroke-opacity:1"
         id="path182" /><path
         d="m 1208.5,1696 3.5,-1 3.5,-1.5 4,-1.5 3.5,-1.5 3.5,-1 4,-1.5 3.5,-1.5 3.5,-1.5 4,-1 3.5,-1.5 3.5,-1.5 3.5,-1 4,-1.5 3.5,-1.5 3.5,-1 4,-1 3.5,-1.5 3.5,-1 4,-1 3.5,-1 3.5,-1 4,-1 3.5,-0.5 3.5,-1 4,-0.5 3.5,-0.5 3.5,-0.5 3.5,-0.5 h 4 3.5 l 3.5,-0.5 4,0.5 h 3.5 3.5 l 4,0.5 3.5,0.5 3.5,0.5 4,0.5 3.5,0.5 3.5,0.5 4,1 3.5,0.5 3.5,1 3.5,0.5 4,1 3.5,0.5 3.5,1 4,0.5 3.5,0.5 3.5,1 4,0.5 3.5,0.5 h 3.5 l 4,0.5 3.5,0.5 h 3.5 4 3.5 l 3.5,-0.5 4,-0.5 3.5,-0.5 3.5,-1 4,-1 3.5,-1.5 3.5,-1.5 4,-1.5 3.5,-1.5 3.5,-2 4,-1.5 3.5,-2 3.5,-2 4,-2 3.5,-2 3.5,-2 4,-2 3.5,-2 3.5,-1.5 4,-2 3.5,-1.5 3.5,-1.5 4,-1 3.5,-1 3.5,-1 4,-0.5 3.5,-1 h 3.5 l 4,-0.5 3.5,0.5 h 3.5 l 4,0.5 3.5,0.5 3.5,0.5 4,1.5 3.5,9.5 3.5,9.5 4,9.5 3.5,9.5 3.5,9.5 4,5 3.5,1 3.5,1 4,0.5 3.5,1 3.5,1 4,0.5 3.5,1 3.5,0.5 4,1 3.5,0.5 3.5,1 4,0.5 3.5,1 3.5,0.5 4,0.5 3.5,0.5 3.5,1 4,0.5 3.5,0.5 h 3.5 l 4,0.5 3.5,4.5 3.5,9.5 4,8.5 3.5,7 3.5,5 4,3.5 3.5,1"
         style="fill:none;stroke:#57b5e8;stroke-width:1.25;stroke-linecap:butt;stroke-linejoin:miter;stroke-miterlimit:3.8;stroke-dasharray:none;stroke-opacity:1"
         id="path184" /><path
         d="m 301,1677.5 h 7.5 l 3.5,0.5 3.5,0.5 3.5,0.5 4,0.5 3.5,1 3.5,1 3.5,1 4,1 3.5,1.5 3.5,1 3.5,1.5 4,1.5 3.5,2 3.5,1.5 3.5,2 4,2 3.5,2 3.5,2 3.5,2 4,2.5 3.5,2.5 3.5,2.5 4,2.5 3.5,2.5 3.5,2.5 3.5,3 4,3 3.5,3 3.5,3 3.5,3 4,3.5 3.5,3.5 3.5,3.5 3.5,4 4,4 3.5,4.5 3.5,4.5 3.5,5 4,5.5 3.5,5.5 3.5,6 4,7 3.5,7 3.5,8 3.5,8.5 4,9 3.5,10 3.5,11 3.5,11.5 4,13 3.5,14 3.5,14.5 3.5,16.5 4,17 3.5,18.5 3.5,19.5 3.5,20.5 4,22 3.5,23 3.5,24 3.5,25.5 4,26.5 3.5,27.5 3.5,28.5 4,29.5 3.5,30 3.5,31 3.5,32 4,32.5 3.5,33.5 3.5,34 3.5,34.5 3,28 m 228,0 3,-19.5 3.5,-24.5 4,-24 3.5,-24 3.5,-23.5 4,-24 3.5,-23.5 3.5,-23.5 4,-23 3.5,-23.5 3.5,-23 4,-23 3.5,-22.5 3.5,-22.5 4,-22.5 3.5,-22.5 3.5,-22 4,-22 3.5,-21.5 3.5,-21.5 4,-21.5 3.5,-21.5 3.5,-20.5 4,-21 3.5,-20.5 3.5,-20.5 4,-5 3.5,0.5 h 3.5 l 4,0.5 h 3.5 3.5 4 l 3.5,3 3.5,8 3.5,12 4,14.5 3.5,16 3.5,17.5 3.5,18 4,19 3.5,19.5 3.5,20 3.5,20 4,21 3.5,21 3.5,21.5 4,21.5 3.5,22 3.5,22 3.5,22.5 4,23 3.5,23 3.5,23 3.5,23.5 4,24 3.5,24 3.5,24.5 3.5,24.5 4,24.5 3.5,25 3.5,25 v 2.5 m 133.5,0 1.5,-9.5 3.5,-32.5 3.5,-32 4,-31.5 3.5,-30 3.5,-30 4,-29 3.5,-28 3.5,-27.5 3.5,-27 4,-26 3.5,-25 3.5,-24.5 4,-24 3.5,-23.5 3.5,-22.5 4,-22 3.5,-21.5 3.5,-20.5 4,-20.5 3.5,-19.5 3.5,-19 4,-18.5 3.5,-18 3.5,-18 3.5,-17 4,-17 3.5,-16.5 3.5,-15.5 4,-16 3.5,-15 3.5,-15 4,-14 3.5,-14.5 3.5,-13.5 4,-13.5 3.5,-13 3.5,-2 4,-0.5 3.5,-0.5 3.5,-0.5 3.5,-0.5 h 4 3.5 l 3.5,-0.5 4,0.5 h 3.5 3.5 l 4,0.5 3.5,0.5 3.5,0.5 4,0.5 3.5,0.5 3.5,0.5 4,1 3.5,0.5 3.5,1 3.5,0.5 4,1 3.5,0.5 3.5,1 4,0.5 3.5,0.5 3.5,1 4,0.5 3.5,0.5 h 3.5 l 4,0.5 3.5,0.5 h 3.5 4 3.5 3.5 4 3.5 3.5 l 4,0.5 h 3.5 3.5 4 l 3.5,0.5 h 3.5 4 l 3.5,0.5 h 3.5 l 4,0.5 h 3.5 l 3.5,0.5 4,0.5 h 3.5 l 3.5,0.5 4,0.5 3.5,0.5 3.5,0.5 4,0.5 3.5,0.5 3.5,0.5 4,0.5 3.5,0.5 3.5,0.5 4,0.5 3.5,1 3.5,0.5 4,0.5 3.5,1 3.5,0.5 4,1 3.5,0.5 3.5,1"
         style="fill:none;stroke:#57b5e8;stroke-width:1.25;stroke-linecap:butt;stroke-linejoin:miter;stroke-miterlimit:3.8;stroke-dasharray:none;stroke-opacity:1"
         id="path186" /><path
         d="m 1556,1692 4,0.5 3.5,1 3.5,1 4,5 3.5,9 3.5,9.5 4,9 3.5,9.5 3.5,8.5 4,9 3.5,8.5 3.5,8.5 4,8 3.5,8 3.5,7.5 4,7.5 3.5,7 3.5,6.5 4,6.5 3.5,6 3.5,5.5 4,5 3.5,5 3.5,4 4,4 3.5,3 3.5,3 4,2.5 3.5,1.5 3.5,1.5 4,0.5 3.5,0.5"
         style="fill:none;stroke:#57b5e8;stroke-width:1.25;stroke-linecap:butt;stroke-linejoin:miter;stroke-miterlimit:3.8;stroke-dasharray:none;stroke-opacity:1"
         id="path188" /><path
         d="M 301,2449.5 V 140 h 1372.5 v 2309.5 z"
         style="fill:none;stroke:#000000;stroke-width:5;stroke-linecap:butt;stroke-linejoin:miter;stroke-miterlimit:3.8;stroke-dasharray:none;stroke-opacity:1"
         id="path190" /></g></g></svg>
