<?xml version="1.0" encoding="UTF-8" standalone="no"?>
<!-- Created with Inkscape (http://www.inkscape.org/) -->

<svg
   version="1.1"
   id="svg2"
   xml:space="preserve"
   width="480"
   height="336"
   viewBox="0 0 480 336"
   sodipodi:docname="dos_ferro.svg"
   inkscape:version="1.1 (c68e22c387, 2021-05-23)"
   xmlns:inkscape="http://www.inkscape.org/namespaces/inkscape"
   xmlns:sodipodi="http://sodipodi.sourceforge.net/DTD/sodipodi-0.dtd"
   xmlns="http://www.w3.org/2000/svg"
   xmlns:svg="http://www.w3.org/2000/svg"><defs
     id="defs6" /><sodipodi:namedview
     id="namedview4"
     pagecolor="#ffffff"
     bordercolor="#666666"
     borderopacity="1.0"
     inkscape:pageshadow="2"
     inkscape:pageopacity="0.0"
     inkscape:pagecheckerboard="0"
     showgrid="false"
     inkscape:zoom="2.5952381"
     inkscape:cx="239.86239"
     inkscape:cy="167.80734"
     inkscape:window-width="1858"
     inkscape:window-height="1057"
     inkscape:window-x="-8"
     inkscape:window-y="-8"
     inkscape:window-maximized="1"
     inkscape:current-layer="g8" /><g
     id="g8"
     inkscape:groupmode="layer"
     inkscape:label="ink_ext_XXXXXX"
     transform="matrix(1.3333333,0,0,-1.3333333,0,336)"><g
       id="g10"
       transform="scale(0.1)"><path
         d="m 259,224 h 31.5 m 3183,0 H 3442"
         style="fill:none;stroke:#000000;stroke-width:2.5;stroke-linecap:butt;stroke-linejoin:miter;stroke-miterlimit:3.8;stroke-dasharray:none;stroke-opacity:1"
         id="path12" /><g
         id="g14"
         transform="scale(10)"><text
           transform="matrix(1,0,0,-1,15.4773,20.0648)"
           style="font-variant:normal;font-weight:normal;font-size:7px;font-family:Helvetica;-inkscape-font-specification:Helvetica;writing-mode:lr-tb;fill:#000000;fill-opacity:1;fill-rule:nonzero;stroke:none"
           id="text18"><tspan
             x="0 2.3310001"
             y="0"
             sodipodi:role="line"
             id="tspan16">-5</tspan></text></g><path
         d="m 259,471.5 h 31.5 m 3183,0 H 3442"
         style="fill:none;stroke:#000000;stroke-width:2.5;stroke-linecap:butt;stroke-linejoin:miter;stroke-miterlimit:3.8;stroke-dasharray:none;stroke-opacity:1"
         id="path20" /><g
         id="g22"
         transform="scale(10)"><text
           transform="matrix(1,0,0,-1,15.4773,44.8148)"
           style="font-variant:normal;font-weight:normal;font-size:7px;font-family:Helvetica;-inkscape-font-specification:Helvetica;writing-mode:lr-tb;fill:#000000;fill-opacity:1;fill-rule:nonzero;stroke:none"
           id="text26"><tspan
             x="0 2.3310001"
             y="0"
             sodipodi:role="line"
             id="tspan24">-4</tspan></text></g><path
         d="m 259,718.5 h 31.5 m 3183,0 H 3442"
         style="fill:none;stroke:#000000;stroke-width:2.5;stroke-linecap:butt;stroke-linejoin:miter;stroke-miterlimit:3.8;stroke-dasharray:none;stroke-opacity:1"
         id="path28" /><g
         id="g30"
         transform="scale(10)"><text
           transform="matrix(1,0,0,-1,15.4773,69.5148)"
           style="font-variant:normal;font-weight:normal;font-size:7px;font-family:Helvetica;-inkscape-font-specification:Helvetica;writing-mode:lr-tb;fill:#000000;fill-opacity:1;fill-rule:nonzero;stroke:none"
           id="text34"><tspan
             x="0 2.3310001"
             y="0"
             sodipodi:role="line"
             id="tspan32">-3</tspan></text></g><path
         d="m 259,966 h 31.5 m 3183,0 H 3442"
         style="fill:none;stroke:#000000;stroke-width:2.5;stroke-linecap:butt;stroke-linejoin:miter;stroke-miterlimit:3.8;stroke-dasharray:none;stroke-opacity:1"
         id="path36" /><g
         id="g38"
         transform="scale(10)"><text
           transform="matrix(1,0,0,-1,15.4773,94.2648)"
           style="font-variant:normal;font-weight:normal;font-size:7px;font-family:Helvetica;-inkscape-font-specification:Helvetica;writing-mode:lr-tb;fill:#000000;fill-opacity:1;fill-rule:nonzero;stroke:none"
           id="text42"><tspan
             x="0 2.3310001"
             y="0"
             sodipodi:role="line"
             id="tspan40">-2</tspan></text></g><path
         d="m 259,1213 h 31.5 m 3183,0 H 3442"
         style="fill:none;stroke:#000000;stroke-width:2.5;stroke-linecap:butt;stroke-linejoin:miter;stroke-miterlimit:3.8;stroke-dasharray:none;stroke-opacity:1"
         id="path44" /><g
         id="g46"
         transform="scale(10)"><text
           transform="matrix(1,0,0,-1,15.4773,118.965)"
           style="font-variant:normal;font-weight:normal;font-size:7px;font-family:Helvetica;-inkscape-font-specification:Helvetica;writing-mode:lr-tb;fill:#000000;fill-opacity:1;fill-rule:nonzero;stroke:none"
           id="text50"><tspan
             x="0 2.3310001"
             y="0"
             sodipodi:role="line"
             id="tspan48">-1</tspan></text></g><path
         d="m 259,1460.5 h 31.5 m 3183,0 H 3442"
         style="fill:none;stroke:#000000;stroke-width:2.5;stroke-linecap:butt;stroke-linejoin:miter;stroke-miterlimit:3.8;stroke-dasharray:none;stroke-opacity:1"
         id="path52" /><g
         id="g54"
         transform="scale(10)"><text
           transform="matrix(1,0,0,-1,17.8085,143.715)"
           style="font-variant:normal;font-weight:normal;font-size:7px;font-family:Helvetica;-inkscape-font-specification:Helvetica;writing-mode:lr-tb;fill:#000000;fill-opacity:1;fill-rule:nonzero;stroke:none"
           id="text58"><tspan
             x="0"
             y="0"
             id="tspan56">0</tspan></text></g><path
         d="m 259,1707.5 h 31.5 m 3183,0 H 3442"
         style="fill:none;stroke:#000000;stroke-width:2.5;stroke-linecap:butt;stroke-linejoin:miter;stroke-miterlimit:3.8;stroke-dasharray:none;stroke-opacity:1"
         id="path60" /><g
         id="g62"
         transform="scale(10)"><text
           transform="matrix(1,0,0,-1,17.8085,168.415)"
           style="font-variant:normal;font-weight:normal;font-size:7px;font-family:Helvetica;-inkscape-font-specification:Helvetica;writing-mode:lr-tb;fill:#000000;fill-opacity:1;fill-rule:nonzero;stroke:none"
           id="text66"><tspan
             x="0"
             y="0"
             id="tspan64">1</tspan></text></g><path
         d="m 259,1955 h 31.5 m 3183,0 H 3442"
         style="fill:none;stroke:#000000;stroke-width:2.5;stroke-linecap:butt;stroke-linejoin:miter;stroke-miterlimit:3.8;stroke-dasharray:none;stroke-opacity:1"
         id="path68" /><g
         id="g70"
         transform="scale(10)"><text
           transform="matrix(1,0,0,-1,17.8085,193.165)"
           style="font-variant:normal;font-weight:normal;font-size:7px;font-family:Helvetica;-inkscape-font-specification:Helvetica;writing-mode:lr-tb;fill:#000000;fill-opacity:1;fill-rule:nonzero;stroke:none"
           id="text74"><tspan
             x="0"
             y="0"
             id="tspan72">2</tspan></text></g><path
         d="m 259,2202 h 31.5 m 3183,0 H 3442"
         style="fill:none;stroke:#000000;stroke-width:2.5;stroke-linecap:butt;stroke-linejoin:miter;stroke-miterlimit:3.8;stroke-dasharray:none;stroke-opacity:1"
         id="path76" /><g
         id="g78"
         transform="scale(10)"><text
           transform="matrix(1,0,0,-1,17.8085,217.865)"
           style="font-variant:normal;font-weight:normal;font-size:7px;font-family:Helvetica;-inkscape-font-specification:Helvetica;writing-mode:lr-tb;fill:#000000;fill-opacity:1;fill-rule:nonzero;stroke:none"
           id="text82"><tspan
             x="0"
             y="0"
             id="tspan80">3</tspan></text></g><path
         d="m 259,2449.5 h 31.5 m 3183,0 H 3442"
         style="fill:none;stroke:#000000;stroke-width:2.5;stroke-linecap:butt;stroke-linejoin:miter;stroke-miterlimit:3.8;stroke-dasharray:none;stroke-opacity:1"
         id="path84" /><g
         id="g86"
         transform="scale(10)"><text
           transform="matrix(1,0,0,-1,17.8085,242.615)"
           style="font-variant:normal;font-weight:normal;font-size:7px;font-family:Helvetica;-inkscape-font-specification:Helvetica;writing-mode:lr-tb;fill:#000000;fill-opacity:1;fill-rule:nonzero;stroke:none"
           id="text90"><tspan
             x="0"
             y="0"
             id="tspan88">4</tspan></text></g><path
         d="m 259,224 v 31.5 m 0,2194 V 2418"
         style="fill:none;stroke:#000000;stroke-width:2.5;stroke-linecap:butt;stroke-linejoin:miter;stroke-miterlimit:3.8;stroke-dasharray:none;stroke-opacity:1"
         id="path92" /><g
         id="g94"
         transform="scale(10)"><text
           transform="matrix(1,0,0,-1,20.843,13.0648)"
           style="font-variant:normal;font-weight:normal;font-size:7px;font-family:Helvetica;-inkscape-font-specification:Helvetica;writing-mode:lr-tb;fill:#000000;fill-opacity:1;fill-rule:nonzero;stroke:none"
           id="text98"><tspan
             x="0 2.3310001 6.223"
             y="0"
             sodipodi:role="line"
             id="tspan96">-10</tspan></text></g><path
         d="m 687.5,224 v 31.5 m 0,2194 V 2418"
         style="fill:none;stroke:#000000;stroke-width:2.5;stroke-linecap:butt;stroke-linejoin:miter;stroke-miterlimit:3.8;stroke-dasharray:none;stroke-opacity:1"
         id="path100" /><g
         id="g102"
         transform="scale(10)"><text
           transform="matrix(1,0,0,-1,65.6387,13.0648)"
           style="font-variant:normal;font-weight:normal;font-size:7px;font-family:Helvetica;-inkscape-font-specification:Helvetica;writing-mode:lr-tb;fill:#000000;fill-opacity:1;fill-rule:nonzero;stroke:none"
           id="text106"><tspan
             x="0 2.3310001"
             y="0"
             sodipodi:role="line"
             id="tspan104">-8</tspan></text></g><path
         d="m 1116,224 v 31.5 m 0,2194 V 2418"
         style="fill:none;stroke:#000000;stroke-width:2.5;stroke-linecap:butt;stroke-linejoin:miter;stroke-miterlimit:3.8;stroke-dasharray:none;stroke-opacity:1"
         id="path108" /><g
         id="g110"
         transform="scale(10)"><text
           transform="matrix(1,0,0,-1,108.489,13.0648)"
           style="font-variant:normal;font-weight:normal;font-size:7px;font-family:Helvetica;-inkscape-font-specification:Helvetica;writing-mode:lr-tb;fill:#000000;fill-opacity:1;fill-rule:nonzero;stroke:none"
           id="text114"><tspan
             x="0 2.3310001"
             y="0"
             sodipodi:role="line"
             id="tspan112">-6</tspan></text></g><path
         d="m 1545,224 v 31.5 m 0,2194 V 2418"
         style="fill:none;stroke:#000000;stroke-width:2.5;stroke-linecap:butt;stroke-linejoin:miter;stroke-miterlimit:3.8;stroke-dasharray:none;stroke-opacity:1"
         id="path116" /><g
         id="g118"
         transform="scale(10)"><text
           transform="matrix(1,0,0,-1,151.389,13.0648)"
           style="font-variant:normal;font-weight:normal;font-size:7px;font-family:Helvetica;-inkscape-font-specification:Helvetica;writing-mode:lr-tb;fill:#000000;fill-opacity:1;fill-rule:nonzero;stroke:none"
           id="text122"><tspan
             x="0 2.3310001"
             y="0"
             sodipodi:role="line"
             id="tspan120">-4</tspan></text></g><path
         d="m 1973.5,224 v 31.5 m 0,2194 V 2418"
         style="fill:none;stroke:#000000;stroke-width:2.5;stroke-linecap:butt;stroke-linejoin:miter;stroke-miterlimit:3.8;stroke-dasharray:none;stroke-opacity:1"
         id="path124" /><g
         id="g126"
         transform="scale(10)"><text
           transform="matrix(1,0,0,-1,194.239,13.0648)"
           style="font-variant:normal;font-weight:normal;font-size:7px;font-family:Helvetica;-inkscape-font-specification:Helvetica;writing-mode:lr-tb;fill:#000000;fill-opacity:1;fill-rule:nonzero;stroke:none"
           id="text130"><tspan
             x="0 2.3310001"
             y="0"
             sodipodi:role="line"
             id="tspan128">-2</tspan></text></g><path
         d="m 2402,224 v 31.5 m 0,2194 V 2418"
         style="fill:none;stroke:#000000;stroke-width:2.5;stroke-linecap:butt;stroke-linejoin:miter;stroke-miterlimit:3.8;stroke-dasharray:none;stroke-opacity:1"
         id="path132" /><g
         id="g134"
         transform="scale(10)"><text
           transform="matrix(1,0,0,-1,239.227,13.0648)"
           style="font-variant:normal;font-weight:normal;font-size:7px;font-family:Helvetica;-inkscape-font-specification:Helvetica;writing-mode:lr-tb;fill:#000000;fill-opacity:1;fill-rule:nonzero;stroke:none"
           id="text138"><tspan
             x="0"
             y="0"
             id="tspan136">0</tspan></text></g><path
         d="m 2830.5,224 v 31.5 m 0,2194 V 2418"
         style="fill:none;stroke:#000000;stroke-width:2.5;stroke-linecap:butt;stroke-linejoin:miter;stroke-miterlimit:3.8;stroke-dasharray:none;stroke-opacity:1"
         id="path140" /><g
         id="g142"
         transform="scale(10)"><text
           transform="matrix(1,0,0,-1,282.077,13.0648)"
           style="font-variant:normal;font-weight:normal;font-size:7px;font-family:Helvetica;-inkscape-font-specification:Helvetica;writing-mode:lr-tb;fill:#000000;fill-opacity:1;fill-rule:nonzero;stroke:none"
           id="text146"><tspan
             x="0"
             y="0"
             id="tspan144">2</tspan></text></g><path
         d="m 3259,224 v 31.5 m 0,2194 V 2418"
         style="fill:none;stroke:#000000;stroke-width:2.5;stroke-linecap:butt;stroke-linejoin:miter;stroke-miterlimit:3.8;stroke-dasharray:none;stroke-opacity:1"
         id="path148" /><g
         id="g150"
         transform="scale(10)"><text
           transform="matrix(1,0,0,-1,324.927,13.0648)"
           style="font-variant:normal;font-weight:normal;font-size:7px;font-family:Helvetica;-inkscape-font-specification:Helvetica;writing-mode:lr-tb;fill:#000000;fill-opacity:1;fill-rule:nonzero;stroke:none"
           id="text154"><tspan
             x="0"
             y="0"
             id="tspan152">4</tspan></text></g><path
         d="M 259,2449.5 V 224 h 3214.5 v 2225.5 z"
         style="fill:none;stroke:#000000;stroke-width:5;stroke-linecap:butt;stroke-linejoin:miter;stroke-miterlimit:3.8;stroke-dasharray:none;stroke-opacity:1"
         id="path156" /><path
         d="M 2402.5,224.5 V 2450"
         style="fill:none;stroke:#000000;stroke-width:1.25;stroke-linecap:butt;stroke-linejoin:miter;stroke-miterlimit:3.8;stroke-dasharray:5, 10;stroke-dashoffset:0;stroke-opacity:1"
         id="path158" /><g
         id="g160"
         transform="scale(10)"><text
           transform="matrix(0,1,1,0,8.98516,108.171)"
           style="font-variant:normal;font-weight:normal;font-size:7px;font-family:Helvetica;-inkscape-font-specification:Helvetica;writing-mode:lr-tb;fill:#000000;fill-opacity:1;fill-rule:nonzero;stroke:none"
           id="text164"><tspan
             x="0 5.0539999 10.5 15.169 17.115 19.445999 22.945999 24.892 28.784 30.73 34.622002 38.122002 40.068001 43.959999 48.629002"
             y="0"
             sodipodi:role="line"
             id="tspan162">DOS (states/eV)</tspan></text><text
           transform="matrix(1,0,0,-1,167.929,2.56484)"
           style="font-variant:normal;font-weight:normal;font-size:7px;font-family:Helvetica;-inkscape-font-specification:Helvetica;writing-mode:lr-tb;fill:#000000;fill-opacity:1;fill-rule:nonzero;stroke:none"
           id="text168"><tspan
             x="0 4.6690001 8.5609999 12.453 14.784 18.676001 22.176001 24.122 26.452999 30.344999 35.014"
             y="0"
             sodipodi:role="line"
             id="tspan166">Energy (eV)</tspan></text></g><path
         d="m 579.5,1460.5 h 41 l 6,0.5 5.5,0.5 h 6 l 6,0.5 5.5,1 6,0.5 6,0.5 5.5,0.5 h 6 l 6,0.5 h 5.5 l 6,0.5 h 6 5.5 6 6 5.5 l 6,0.5 h 6 l 5.5,0.5 h 6 l 6,0.5 h 5.5 l 6,0.5 h 6 l 5.5,0.5 h 6 l 6,0.5 h 5.5 l 6,0.5 h 6 5.5 6 l 6,0.5 h 5.5 6 6 5.5 l 6,0.5 h 6 5.5 l 6,0.5 h 6 5.5 l 6,0.5 h 5.5 6 l 6,0.5 h 6 5.5 l 6,0.5 h 5.5 6 l 6,0.5 h 5.5 6 l 6,0.5 h 5.5 l 6,0.5 h 6 l 5.5,0.5 h 6 l 6,0.5 h 5.5 6 l 6,0.5 h 5.5 l 6,0.5 h 6 5.5 l 6,0.5 h 6 l 5.5,0.5 h 6 6 l 5.5,0.5 h 6 l 6,0.5 h 5.5 l 6,0.5 h 6 5.5 l 6,0.5 h 6 l 5.5,0.5 6,0.5 h 6 l 5.5,0.5 6,0.5 6,0.5 h 5.5 l 6,0.5 6,0.5 5.5,0.5 h 6 l 6,0.5 5.5,0.5 6,0.5 h 6 l 5.5,0.5 6,0.5 6,0.5 5.5,0.5 6,0.5 6,0.5 5.5,0.5 6,0.5 6,0.5 5.5,1 6,1 6,0.5 5.5,1 6,1.5 6,1 5.5,1 6,1 6,1.5 5.5,1 6,1.5 6,1 5.5,1.5 6,1 6,1.5 5.5,2.5 6,3.5 6,4 5.5,4.5 6,5.5 6,9.5 5.5,13 6,15 5.5,8.5 6,5.5 6,2 h 6 5.5 l 6,5 5.5,7 6,5.5 6,5 5.5,4.5 6,6 6,7 5.5,7 6,6 6,5.5 5.5,4.5 6,4.5 6,4.5 5.5,4.5 6,5 6,6 5.5,7.5 6,13 6,21.5 5.5,41 6,32.5 6,-26 5.5,-31.5 6,-25 6,-45 5.5,-28.5 6,-5.5 6,-5 5.5,-2.5 6,8 6,18 5.5,-8.5 6,-17 6,-17 5.5,-12.5 6,-10 6,-12.5 5.5,-14 6,-8 6,-6 5.5,-1 h 6 l 6,1 5.5,0.5 6,12.5 6,74 5.5,171.5 6,74 6,53.5 5.5,38.5 6,-5.5 6,12.5 5.5,-86.5 6,-42.5 6,-30.5 5.5,-23 6,-11.5 6,-20 5.5,-20 6,-13 6,-10 5.5,-6 6,6 6,5 5.5,13 6,-27 6,-4.5 5.5,-3.5 6,-1.5 6,8 5.5,12.5 6,16 6,14 5.5,23.5 6,35 6,52.5 5.5,48.5 6,28 6,1 5.5,-29.5 6,-13.5 6,-19 5.5,-36 6,-39 5.5,-20.5 6,-69 6,-62 5.5,-15.5 6,-11.5 6,-10.5 5.5,-9 6,-7 6,-5.5 5.5,-5 6,-5 6,-4 5.5,-3 6,-2.5 6,-1.5 5.5,-0.5 h 6 l 6,0.5 5.5,1.5 6,2.5 6,3.5 5.5,7.5"
         style="fill:none;stroke:#9400d4;stroke-width:2.5;stroke-linecap:butt;stroke-linejoin:miter;stroke-miterlimit:3.8;stroke-dasharray:none;stroke-opacity:1"
         id="path170" /><path
         d="m 2031.5,1575 6,8 6,6.5 5.5,2 6,3.5 6,6.5 5.5,6.5 6,5.5 6,7 5.5,8 6,7.5 6,14 5.5,24 6,26 6,42 5.5,33 6,31 6,31 5.5,31 6,23 6,13.5 5.5,8 6,2.5 6,12 5.5,53 6,-34.5 6,-4.5 5.5,19.5 6,66 6,12 5.5,3 6,19.5 6,-39.5 5.5,-19 6,46 6,164.5 5.5,-156.5 6,-155 6,-65 5.5,-30.5 6,-27 6,-20 5.5,-15.5 6,-11.5 6,-8.5 5.5,-8.5 6,-8 6,-7.5 5.5,-7.5 6,-6 6,-6 5.5,2.5 6,-4.5 6,-9 5.5,-2.5 6,-1.5 6,-2 5.5,-1.5 6,2 5.5,1.5 6,1 6,2 6,19.5 5.5,24 6,-27.5 5.5,-13.5 6,-39 6,-39.5 6,-23 5.5,-18.5 6,-12 5.5,-11 6,-11 6,-7 5.5,-6 6,-3.5 6,-1 h 5.5 l 6,-0.5 h 6 5.5 6 6 5.5 6 6 l 5.5,0.5 6,0.5 h 6 5.5 l 6,-0.5 h 6 5.5 l 6,-0.5 h 6 5.5 6 6 5.5 l 6,-0.5 h 6 5.5 6 6 5.5 6 6 l 5.5,-0.5 h 6 6 5.5 6 6 5.5 6 6 5.5 6 6 5.5 6 6 5.5 6 6 5.5 l 6,-0.5 h 6 5.5 6 6 l 5.5,-0.5 h 6 6 5.5 6 l 6,-0.5 h 5.5 6 6 5.5 l 6,-0.5 h 6 5.5 6 6 5.5 6 6 5.5 l 6,-0.5 h 5.5 6 6 5.5 l 6,-0.5 h 6 5.5 6 l 6,-0.5 h 5.5 6 6 l 5.5,-0.5 h 6 6 l 5.5,-0.5 h 6 l 6,-0.5 h 5.5 6 6 l 5.5,-0.5 h 6 6 5.5 l 6,-0.5 h 6 5.5 6 l 6,-0.5 h 5.5 6 6 l 5.5,-0.5 h 6 6 5.5 6 l 6,-0.5 h 5.5 6 6 l 5.5,-0.5 h 6 6 5.5 l 6,-0.5 h 6 5.5 6 l 6,-0.5 h 5.5 6 6 l 5.5,-0.5 h 6 l 6,-0.5 h 5.5 6 l 6,-0.5 h 5.5 6 6 l 5.5,-0.5 h 6 6 5.5 l 6,0.5 h 6 5.5 6 6 l 5.5,-0.5 h 6 6 l 5.5,-0.5 h 6 6 l 5.5,-0.5 6,-0.5 6,-0.5 5.5,-0.5 h 6 l 5.5,-0.5 h 6 6 l 6,-0.5 h 5.5 l 6,-0.5 h 5.5 6 l 6,-0.5 h 5.5 6 6 5.5 l 6,-0.5 h 1.5"
         style="fill:none;stroke:#9400d4;stroke-width:2.5;stroke-linecap:butt;stroke-linejoin:miter;stroke-miterlimit:3.8;stroke-dasharray:none;stroke-opacity:1"
         id="path172" /><path
         d="m 579.5,1460.5 h 47 l 5.5,-0.5 h 6 l 6,-0.5 5.5,-0.5 6,-0.5 6,-0.5 5.5,-0.5 6,-0.5 6,-0.5 5.5,-0.5 h 6 l 6,-0.5 h 5.5 6 6 5.5 6 l 6,-0.5 h 5.5 6 l 6,-0.5 h 5.5 l 6,-0.5 h 6 l 5.5,-0.5 h 6 l 6,-0.5 h 5.5 l 6,-0.5 h 6 l 5.5,-0.5 h 6 6 5.5 l 6,-0.5 h 6 5.5 6 6 5.5 l 6,-0.5 h 6 5.5 l 6,-0.5 h 5.5 6 6 l 6,-0.5 h 5.5 6 l 5.5,-0.5 h 6 6 5.5 l 6,-0.5 h 6 5.5 l 6,-0.5 h 6 5.5 l 6,-0.5 h 6 5.5 l 6,-0.5 h 6 l 5.5,-0.5 h 6 6 5.5 l 6,-0.5 h 6 5.5 6 l 6,-0.5 h 5.5 6 6 l 5.5,-0.5 h 6 6 l 5.5,-0.5 h 6 6 5.5 l 6,-0.5 h 6 5.5 l 6,-0.5 h 6 5.5 l 6,-0.5 h 6 5.5 l 6,-0.5 h 6 l 5.5,-0.5 h 6 6 l 5.5,-0.5 h 6 l 6,-0.5 h 5.5 l 6,-0.5 h 6 5.5 l 6,-0.5 h 6 l 5.5,-0.5 h 6 l 6,-0.5 h 5.5 6 l 6,-0.5 h 5.5 l 6,-0.5 h 6 5.5 l 6,-0.5 h 6 l 5.5,-0.5 h 6 l 6,-0.5 5.5,-0.5 h 6 l 6,-0.5 5.5,-0.5 h 6 l 6,-0.5 5.5,-0.5 h 6 l 5.5,-0.5 6,-0.5 h 6 l 6,-0.5 5.5,-0.5 h 6 l 5.5,-0.5 6,-0.5 6,-0.5 h 5.5 l 6,-0.5 6,-0.5 h 5.5 l 6,-0.5 6,-0.5 5.5,-0.5 h 6 l 6,-1 5.5,-0.5 6,-0.5 6,-1 5.5,-0.5 6,-1 6,-0.5 5.5,-1 6,-0.5 6,-1 5.5,-0.5 6,-1 6,-1 5.5,-1 6,-1 6,-0.5 5.5,-1 6,-1 6,-1.5 5.5,-1.5 6,-1.5 6,-2 5.5,-2 6,-2 6,-2.5 5.5,-2.5 6,-2.5 6,-2.5 5.5,-3 6,-12 6,-3 5.5,-2.5 6,-2 6,-1.5 5.5,0.5 6,4 6,-0.5 h 5.5 6 l 6,0.5 h 5.5 l 6,0.5 h 6 l 5.5,-0.5 6,-0.5 6,-1 5.5,-1 6,-1.5 6,-1.5 5.5,-1.5 6,-1 6,-1.5 5.5,-3 6,-5.5 6,-7 5.5,-6.5 6,-7 6,-5 5.5,-2.5 6,-7.5 6,-9.5 5.5,-8.5 6,-6 6,1 5.5,0.5 h 6 l 6,-1 5.5,-0.5 6,1 6,6.5 5.5,10 6,11.5 5.5,13.5 6,10.5 6,3.5 5.5,2.5 6,0.5 6,2.5 5.5,6 6,6.5 6,4 5.5,1.5 6,-1 6,8.5 5.5,11 6,-3 6,-0.5 5.5,4.5 6,6.5 6,4 5.5,2.5 6,1 6,-0.5 5.5,-1"
         style="fill:none;stroke:#57b5e8;stroke-width:2.5;stroke-linecap:butt;stroke-linejoin:miter;stroke-miterlimit:3.8;stroke-dasharray:none;stroke-opacity:1"
         id="path174" /><path
         d="m 2031.5,1408.5 6,-22 6,-48 5.5,-49 6,-39.5 6,-34 5.5,-53 6,10.5 6,4 5.5,-23 6,-26 6,14 5.5,0.5 6,-23.5 6,3.5 5.5,1 6,15 6,1 5.5,-2.5 6,-29 6,20 5.5,13 6,2.5 6,6.5 5.5,11 6,13.5 6,14.5 5.5,11 6,7 6,3.5 5.5,-2.5 6,-4 6,-3 5.5,-4.5 6,-6 6,-8.5 5.5,-9.5 6,-23 6,-24 5.5,-20 6,-17.5 6,12 5.5,36.5 6,31.5 6,17.5 5.5,13 6,11 6,7.5 5.5,5.5 6,3.5 6,10.5 5.5,10 6,6.5 6,9.5 5.5,9 6,9 6,9.5 5.5,16 6,20 5.5,46.5 6,17 6,3 6,3 5.5,3 6,3 5.5,2.5 6,2.5 6,1.5 6,1.5 5.5,1.5 6,1.5 5.5,0.5 6,0.5 h 6 l 5.5,-0.5 6,-0.5 6,-1 5.5,-1 6,-1.5 6,-1.5 5.5,-1.5 6,-2 6,-2 5.5,-5 6,-4.5 6,-4.5 5.5,-4 6,-4 6,-2.5 5.5,-1.5 6,-1 6,-2.5 5.5,-3.5 6,-6 6,-6.5 5.5,-8 6,-9.5 6,-18.5 5.5,-13 6,-12 6,-11.5 5.5,-10.5 6,-9.5 6,-9 5.5,-8 6,-7.5 6,-8.5 5.5,-7.5 6,-5 6,-3.5 5.5,-5 6,-7.5 6,-9.5 5.5,-12 6,-13.5 6,-21.5 5.5,-22 6,-18 6,-23.5 5.5,-1 6,-3 6,18 5.5,1 6,-22.5 6,5 5.5,56 6,35 6,6.5 5.5,-7 6,-24 6,-23.5 5.5,-1 6,-7.5 6,-16 5.5,-7 6,-45 6,17 5.5,-204.5 6,-285.5 6,-114.5 5.5,416.5 6,84.5 6,115 5.5,56 6,25.5 6,16 5.5,15 6,16 6,13.5 5.5,9.5 6,6 5.5,2 6,-7 6,-12 5.5,30 6,9.5 6,8 5.5,23.5 6,28.5 6,22.5 5.5,14.5 6,11.5 6,11 5.5,10 6,9 6,5 5.5,2 6,1 h 6 l 5.5,0.5 6,0.5 h 6 5.5 6 6 5.5 6 l 6,0.5 h 5.5 6 l 6,0.5 5.5,0.5 h 6 l 6,0.5 5.5,0.5 6,0.5 h 6 l 5.5,0.5 6,1 6,0.5 5.5,0.5 6,0.5 6,0.5 5.5,0.5 h 6 l 6,0.5 5.5,0.5 6,0.5 h 6 l 5.5,0.5 6,0.5 h 6 l 5.5,0.5 6,0.5 6,0.5 5.5,0.5 h 6 l 6,0.5 5.5,0.5 h 6 l 6,0.5 5.5,0.5 h 6 l 6,0.5 5.5,0.5 h 6 l 6,0.5 5.5,0.5 h 6 l 6,0.5 h 5.5 l 6,0.5 6,0.5 h 5.5 6 l 6,0.5 h 5.5 l 6,0.5 h 6 l 5.5,0.5 h 6 l 6,0.5 h 5.5 l 6,0.5 h 5.5 6 l 6,0.5 h 6 l 5.5,0.5 h 6 l 5.5,0.5 h 6 6 l 5.5,0.5 h 6 l 6,0.5 h 5.5 l 6,0.5 h 1.5"
         style="fill:none;stroke:#57b5e8;stroke-width:2.5;stroke-linecap:butt;stroke-linejoin:miter;stroke-miterlimit:3.8;stroke-dasharray:none;stroke-opacity:1"
         id="path176" /><path
         d="M 259,1460.5 H 3473.5"
         style="fill:none;stroke:#000000;stroke-width:2.5;stroke-linecap:butt;stroke-linejoin:miter;stroke-miterlimit:3.8;stroke-dasharray:none;stroke-opacity:1"
         id="path178" /><path
         d="M 259,2449.5 V 224 h 3214.5 v 2225.5 z"
         style="fill:none;stroke:#000000;stroke-width:5;stroke-linecap:butt;stroke-linejoin:miter;stroke-miterlimit:3.8;stroke-dasharray:none;stroke-opacity:1"
         id="path180" /></g></g></svg>
