<?xml version="1.0" encoding="UTF-8" standalone="no"?>
<svg
   width="600"
   height="480"
   viewBox="0 0 600 480"
   version="1.1"
   id="svg25"
   sodipodi:docname="density_of_states.svg"
   inkscape:version="1.3.2 (091e20e, 2023-11-25, custom)"
   xmlns:inkscape="http://www.inkscape.org/namespaces/inkscape"
   xmlns:sodipodi="http://sodipodi.sourceforge.net/DTD/sodipodi-0.dtd"
   xmlns:xlink="http://www.w3.org/1999/xlink"
   xmlns="http://www.w3.org/2000/svg"
   xmlns:svg="http://www.w3.org/2000/svg">
  <defs
     id="defs25">
    <defs
       id="defs1">
      <circle
         id="gpDot"
         r="0.5"
         stroke-width="0.5" />
      <path
         id="gpPt0"
         stroke-width="0.190"
         stroke="currentColor"
         d="M-1,0 h2 M0,-1 v2" />
      <path
         id="gpPt1"
         stroke-width="0.190"
         stroke="currentColor"
         d="M-1,-1 L1,1 M1,-1 L-1,1" />
      <path
         id="gpPt2"
         stroke-width="0.190"
         stroke="currentColor"
         d="M-1,0 L1,0 M0,-1 L0,1 M-1,-1 L1,1 M-1,1 L1,-1" />
      <rect
         id="gpPt3"
         stroke-width="0.190"
         stroke="currentColor"
         x="-1"
         y="-1"
         width="2"
         height="2" />
      <rect
         id="gpPt4"
         stroke-width="0.190"
         stroke="currentColor"
         fill="currentColor"
         x="-1"
         y="-1"
         width="2"
         height="2" />
      <circle
         id="gpPt5"
         stroke-width="0.190"
         stroke="currentColor"
         cx="0"
         cy="0"
         r="1" />
      <use
         xlink:href="#gpPt5"
         id="gpPt6"
         fill="currentColor"
         stroke="none" />
      <path
         id="gpPt7"
         stroke-width="0.190"
         stroke="currentColor"
         d="M0,-1.33 L-1.33,0.67 L1.33,0.67 z" />
      <use
         xlink:href="#gpPt7"
         id="gpPt8"
         fill="currentColor"
         stroke="none" />
      <use
         xlink:href="#gpPt7"
         id="gpPt9"
         stroke="currentColor"
         transform="rotate(180)" />
      <use
         xlink:href="#gpPt9"
         id="gpPt10"
         fill="currentColor"
         stroke="none" />
      <use
         xlink:href="#gpPt3"
         id="gpPt11"
         stroke="currentColor"
         transform="rotate(45)" />
      <use
         xlink:href="#gpPt11"
         id="gpPt12"
         fill="currentColor"
         stroke="none" />
    </defs>
  </defs>
  <sodipodi:namedview
     id="namedview25"
     pagecolor="#ffffff"
     bordercolor="#000000"
     borderopacity="0.25"
     inkscape:showpageshadow="2"
     inkscape:pageopacity="0.0"
     inkscape:pagecheckerboard="0"
     inkscape:deskcolor="#d1d1d1"
     inkscape:zoom="0.93303299"
     inkscape:cx="299.56068"
     inkscape:cy="239.54137"
     inkscape:window-width="2560"
     inkscape:window-height="1369"
     inkscape:window-x="-8"
     inkscape:window-y="-8"
     inkscape:window-maximized="1"
     inkscape:current-layer="svg25" />
  <title
     id="title1">Gnuplot</title>
  <desc
     id="desc1">Produced by GNUPLOT 4.6 patchlevel 2 </desc>
  <rect
     x="0"
     y="0"
     width="600"
     height="480"
     fill="none"
     id="rect1" />
  <g
     style="color:#ffffff;fill:none;stroke:currentColor;stroke-width:1;stroke-linecap:butt;stroke-linejoin:miter"
     id="g1" />
  <path
     stroke="#000000"
     d="m 74.3,412.8 h 10.5 m 486,0 h -10.5 0.01"
     id="path1"
     style="color:#000000;fill:none;stroke-width:1;stroke-linecap:butt;stroke-linejoin:miter" />
  <g
     transform="translate(64.6,418)"
     style="color:#000000;font-size:18.6667px;font-family:Arial;text-anchor:end;fill:#000000;stroke:none;stroke-width:1;stroke-linecap:butt;stroke-linejoin:miter"
     id="g2">
    <text
       id="text1"><tspan
         id="tspan1">-80</tspan></text>
  </g>
  <path
     stroke="#000000"
     d="m 74.3,363.6 h 10.5 m 486,0 h -10.5 0.01"
     id="path2"
     style="color:#000000;fill:none;stroke-width:1;stroke-linecap:butt;stroke-linejoin:miter" />
  <g
     transform="translate(64.6,368.8)"
     style="color:#000000;font-size:18.6667px;font-family:Arial;text-anchor:end;fill:#000000;stroke:none;stroke-width:1;stroke-linecap:butt;stroke-linejoin:miter"
     id="g3">
    <text
       id="text2"><tspan
         id="tspan2">-60</tspan></text>
  </g>
  <path
     stroke="#000000"
     d="m 74.3,314.5 h 10.5 m 486,0 h -10.5 0.01"
     id="path3"
     style="color:#000000;fill:none;stroke-width:1;stroke-linecap:butt;stroke-linejoin:miter" />
  <g
     transform="translate(64.6,319.7)"
     style="color:#000000;font-size:18.6667px;font-family:Arial;text-anchor:end;fill:#000000;stroke:none;stroke-width:1;stroke-linecap:butt;stroke-linejoin:miter"
     id="g4">
    <text
       id="text3"><tspan
         id="tspan3">-40</tspan></text>
  </g>
  <path
     stroke="#000000"
     d="m 74.3,265.3 h 10.5 m 486,0 h -10.5 0.01"
     id="path4"
     style="color:#000000;fill:none;stroke-width:1;stroke-linecap:butt;stroke-linejoin:miter" />
  <g
     transform="translate(64.6,270.5)"
     style="color:#000000;font-size:18.6667px;font-family:Arial;text-anchor:end;fill:#000000;stroke:none;stroke-width:1;stroke-linecap:butt;stroke-linejoin:miter"
     id="g5">
    <text
       id="text4"><tspan
         id="tspan4">-20</tspan></text>
  </g>
  <path
     stroke="#000000"
     d="m 74.3,216.1 h 10.5 m 486,0 h -10.5 0.01"
     id="path5"
     style="color:#000000;fill:none;stroke-width:1;stroke-linecap:butt;stroke-linejoin:miter" />
  <g
     transform="translate(64.6,221.3)"
     style="color:#000000;font-size:18.6667px;font-family:Arial;text-anchor:end;fill:#000000;stroke:none;stroke-width:1;stroke-linecap:butt;stroke-linejoin:miter"
     id="g6">
    <text
       id="text5"><tspan
         id="tspan5">0</tspan></text>
  </g>
  <path
     stroke="#000000"
     d="m 74.3,167 h 10.5 m 486,0 h -10.5 0.01"
     id="path6"
     style="color:#000000;fill:none;stroke-width:1;stroke-linecap:butt;stroke-linejoin:miter" />
  <g
     transform="translate(64.6,172.2)"
     style="color:#000000;font-size:18.6667px;font-family:Arial;text-anchor:end;fill:#000000;stroke:none;stroke-width:1;stroke-linecap:butt;stroke-linejoin:miter"
     id="g7">
    <text
       id="text6"><tspan
         id="tspan6">20</tspan></text>
  </g>
  <path
     stroke="#000000"
     d="m 74.3,117.8 h 10.5 m 486,0 h -10.5 0.01"
     id="path7"
     style="color:#000000;fill:none;stroke-width:1;stroke-linecap:butt;stroke-linejoin:miter" />
  <g
     transform="translate(64.6,123)"
     style="color:#000000;font-size:18.6667px;font-family:Arial;text-anchor:end;fill:#000000;stroke:none;stroke-width:1;stroke-linecap:butt;stroke-linejoin:miter"
     id="g8">
    <text
       id="text7"><tspan
         id="tspan7">40</tspan></text>
  </g>
  <path
     stroke="#000000"
     d="m 74.3,68.7 h 10.5 m 486,0 h -10.5 0.01"
     id="path8"
     style="color:#000000;fill:none;stroke-width:1;stroke-linecap:butt;stroke-linejoin:miter" />
  <g
     transform="translate(64.6,73.9)"
     style="color:#000000;font-size:18.6667px;font-family:Arial;text-anchor:end;fill:#000000;stroke:none;stroke-width:1;stroke-linecap:butt;stroke-linejoin:miter"
     id="g9">
    <text
       id="text8"><tspan
         id="tspan8">60</tspan></text>
  </g>
  <path
     stroke="#000000"
     d="m 74.3,19.5 h 10.5 m 486,0 h -10.5 0.01"
     id="path9"
     style="color:#000000;fill:none;stroke-width:1;stroke-linecap:butt;stroke-linejoin:miter" />
  <g
     transform="translate(64.6,24.7)"
     style="color:#000000;font-size:18.6667px;font-family:Arial;text-anchor:end;fill:#000000;stroke:none;stroke-width:1;stroke-linecap:butt;stroke-linejoin:miter"
     id="g10">
    <text
       id="text9"><tspan
         id="tspan9">80</tspan></text>
  </g>
  <path
     stroke="#000000"
     d="m 119.4,412.8 v -10.5 m 0,-382.8 V 30 h 0.01"
     id="path10"
     style="color:#000000;fill:none;stroke-width:1;stroke-linecap:butt;stroke-linejoin:miter" />
  <g
     transform="translate(119.4,439)"
     style="color:#000000;font-size:18.6667px;font-family:Arial;text-anchor:middle;fill:#000000;stroke:none;stroke-width:1;stroke-linecap:butt;stroke-linejoin:miter"
     id="g11">
    <text
       id="text10"><tspan
         id="tspan10">-8</tspan></text>
  </g>
  <path
     stroke="#000000"
     d="m 209.7,412.8 v -10.5 m 0,-382.8 V 30 h 0.01"
     id="path11"
     style="color:#000000;fill:none;stroke-width:1;stroke-linecap:butt;stroke-linejoin:miter" />
  <g
     transform="translate(209.7,439)"
     style="color:#000000;font-size:18.6667px;font-family:Arial;text-anchor:middle;fill:#000000;stroke:none;stroke-width:1;stroke-linecap:butt;stroke-linejoin:miter"
     id="g12">
    <text
       id="text11"><tspan
         id="tspan11">-6</tspan></text>
  </g>
  <path
     stroke="#000000"
     d="M 300,412.8 V 402.3 M 300,19.5 V 30 h 0.01"
     id="path12"
     style="color:#000000;fill:none;stroke-width:1;stroke-linecap:butt;stroke-linejoin:miter" />
  <g
     transform="translate(300,439)"
     style="color:#000000;font-size:18.6667px;font-family:Arial;text-anchor:middle;fill:#000000;stroke:none;stroke-width:1;stroke-linecap:butt;stroke-linejoin:miter"
     id="g13">
    <text
       id="text12"><tspan
         id="tspan12">-4</tspan></text>
  </g>
  <path
     stroke="#000000"
     d="m 390.3,412.8 v -10.5 m 0,-382.8 V 30 h 0.01"
     id="path13"
     style="color:#000000;fill:none;stroke-width:1;stroke-linecap:butt;stroke-linejoin:miter" />
  <g
     transform="translate(390.3,439)"
     style="color:#000000;font-size:18.6667px;font-family:Arial;text-anchor:middle;fill:#000000;stroke:none;stroke-width:1;stroke-linecap:butt;stroke-linejoin:miter"
     id="g14">
    <text
       id="text13"><tspan
         id="tspan13">-2</tspan></text>
  </g>
  <path
     stroke="#000000"
     d="m 480.5,412.8 v -10.5 m 0,-382.8 V 30 h 0.01"
     id="path14"
     style="color:#000000;fill:none;stroke-width:1;stroke-linecap:butt;stroke-linejoin:miter" />
  <g
     transform="translate(480.5,439)"
     style="color:#000000;font-size:18.6667px;font-family:Arial;text-anchor:middle;fill:#000000;stroke:none;stroke-width:1;stroke-linecap:butt;stroke-linejoin:miter"
     id="g15">
    <text
       id="text14"><tspan
         id="tspan14">0</tspan></text>
  </g>
  <path
     stroke="#000000"
     d="m 570.8,412.8 v -10.5 m 0,-382.8 V 30 h 0.01"
     id="path15"
     style="color:#000000;fill:none;stroke-width:1;stroke-linecap:butt;stroke-linejoin:miter" />
  <g
     transform="translate(570.8,439)"
     style="color:#000000;font-size:18.6667px;font-family:Arial;text-anchor:middle;fill:#000000;stroke:none;stroke-width:1;stroke-linecap:butt;stroke-linejoin:miter"
     id="g16">
    <text
       id="text15"><tspan
         id="tspan15">2</tspan></text>
  </g>
  <path
     stroke="#000000"
     d="M 74.3,19.5 V 412.8 H 570.8 V 19.5 Z m 0,0 h 0.01"
     id="path16"
     style="color:#000000;fill:none;stroke-width:1;stroke-linecap:butt;stroke-linejoin:miter" />
  <g
     transform="rotate(-90,121.35,94.85)"
     style="color:#000000;font-size:18.6667px;font-family:Arial;text-anchor:middle;fill:#000000;stroke:none;stroke-width:1;stroke-linecap:butt;stroke-linejoin:miter"
     id="g17">
    <text
       id="text16"><tspan
         id="tspan16">DOS (states/eV)</tspan></text>
  </g>
  <g
     transform="translate(322.5,462.5)"
     style="color:#000000;font-size:18.6667px;font-family:Arial;text-anchor:middle;fill:#000000;stroke:none;stroke-width:1;stroke-linecap:butt;stroke-linejoin:miter"
     id="g18">
    <text
       id="text17"><tspan
         id="tspan17">Energy (eV)</tspan></text>
  </g>
  <g
     style="color:#808080;fill:none;stroke:currentColor;stroke-width:1;stroke-linecap:butt;stroke-linejoin:miter"
     id="g20">
    <path
       stroke="#808080"
       stroke-dasharray="0, 2, 4"
       d="M 480.5,412.8 V 19.5 h 0.01"
       id="path19" />
  </g>
  <g
     style="color:#000000;fill:none;stroke:currentColor;stroke-width:1;stroke-linecap:butt;stroke-linejoin:miter"
     id="g21" />
  <g
     id="gnuplot_plot_1">
    <title
       id="title21">gnuplot_plot_1</title>
    <g
       style="color:#ff0000;fill:none;stroke:currentColor;stroke-width:1;stroke-linecap:butt;stroke-linejoin:miter"
       id="g22">
      <path
         stroke="#ff0000"
         d="m 74.3,190.5 v 0.4 l 1.3,18.6 1.2,5.9 1.2,0.7 h 1.2 1.3 l 1.2,-0.7 1.2,-6.7 1.2,-25.5 1.3,-29.6 1.2,9.5 1.2,31.9 1.3,10.3 1.2,-13.5 1.2,-8.6 1.2,13.6 1.3,14.4 1.2,4.1 1.2,-3.9 1.3,-23.8 1.2,-48.5 1.2,-17.1 1.2,42.1 1.3,39.3 1.2,11.4 1.2,1.3 h 1.3 1.2 1.2 1.2 l 1.3,-0.6 1.2,-7 1.2,-26.4 1.3,-29.8 1.2,9.6 1.2,22.8 1.2,2.7 1.3,5.1 1.2,7.8 1.2,-7.8 1.2,-42.1 1.3,-62.5 1.2,-23.6 1.2,15.1 1.3,35.6 1.2,34.6 1.2,-3.4 1.2,-25.5 1.3,8.3 1.2,36.6 1.2,19.7 1.3,1 1.2,-1.8 1.2,12.3 1.2,14.1 1.3,4.7 1.2,0.5 1.2,-0.1 1.3,-1.8 1.2,-10.7 1.2,-26.3 1.2,-29.5 1.3,-9.6 1.2,26.6 1.2,34.8 1.3,14.2 1.2,2.3 1.2,0.1 h 1.2 1.3 1.2 1.2 1.3 1.2 1.2 1.2 1.3 1.2 l 1.2,-0.6 1.3,-8.1 1.2,-37.7 1.2,-56.7 1.2,-3.4 1.3,42.4 1.2,38.6 1.2,20 1.3,5 1.2,0.5 1.2,-1 1.2,-9.5 1.3,-31 1.2,-26.1 1.2,22.1 1.2,32.9 1.3,11.2 1.2,1.4 h 1.2 l 1.3,-0.5 1.2,-4.1 1.2,-15.3 1.2,-32.6 1.3,-32.8 1.2,11.8 1.2,44.5 1.3,24.2 1.2,4.5 1.2,0.3 1.2,-0.3 1.3,-5.1 1.2,-28.4 1.2,-53.1 1.3,-6.8 1.2,51.6 1.2,34.3 1.2,7.3 1.3,0.5 h 1.2 1.2 1.3 1.2 1.2 1.2 1.3 1.2 1.2 1.2 1.3 1.2 1.2 1.3 1.2 1.2 1.2 1.3 1.2 1.2 l 1.3,-0.1 1.2,-2.6 1.2,-17.4 1.2,-37.1 1.3,-7.8 1.2,35.5 1.2,24.2 1.3,5 1.2,0.3 h 1.2 1.2 1.3 1.2 1.2 1.3 1.2 1.2 1.2 1.3 1.2 1.2 1.3 1.2 1.2 1.2 1.3 1.2 1.2 1.2 1.3 1.2 1.2 1.3 1.2 1.2 1.2 1.3 1.2 1.2 1.3 1.2 1.2 1.2 1.3 1.2 1.2 1.3 1.2 1.2 1.2 1.3 1.2 1.2 1.3 1.2 1.2 1.2 1.3 1.2 1.2 1.3 1.2 1.2 1.2 1.3 1.2 1.2 1.3 1.2 1.2 1.2 1.3 1.2 1.2 1.2 1.3 1.2 1.2 1.3 1.2 1.2 1.2 1.3 1.2 1.2 1.3 1.2 1.2 1.2 1.3 1.2 1.2 1.3 1.2 1.2 1.2 1.3 1.2 1.2 1.3 1.2 1.2 1.2 1.3 1.2 1.2 1.3 1.2 1.2 1.2 1.3 1.2 1.2 1.2 1.3 1.2 1.2 1.3 1.2 1.2 1.2 1.3 1.2 1.2 1.3 1.2 1.2 1.2 1.3 1.2 1.2 1.3 1.2 1.2 1.2 1.3 1.2 1.2 1.3 1.2 1.2 1.2 1.3 1.2 1.2 1.3 1.2 1.2 1.2 1.3 1.2 1.2 1.3 1.2 1.2 1.2 1.3 1.2 1.2 1.2 1.3 1.2 1.2 1.3 1.2 1.2 1.2 1.3 1.2 1.2 1.3 1.2 1.2 1.2 1.3 1.2 1.2 1.3 1.2 1.2 1.2 1.3 1.2 1.2 1.3 1.2 1.2 1.2 1.3 1.2 1.2 1.3 l 1.2,-1.1 1.2,-7.8 1.2,-18.3 1.3,-5.9 1.2,16.9 1.2,13.1 1.2,2.9 1.3,0.2 h 1.2 1.2 1.3 1.2 1.2 1.2 1.3 1.2 1.2 1.3 1.2 1.2 l 1.2,-0.1 1.3,-2.2 1.2,-13.2 1.2,-31.3 1.3,-17.9 1.2,25.1 1.2,29.4 1.2,9.2 1.3,1 h 1.2 1.2 1.3 1.2 1.2 1.2 1.3 1.2 1.2 1.2 1.3 1.2 1.2 1.3 1.2 1.2 1.2 1.3 1.2 1.2 1.3 1.2 1.2 1.2 1.3 1.2 l 1.2,-0.3 1.3,-3.2 1.2,-13.4 1.2,-16 1.2,6.4 1.3,17.8 1.2,7.6 1.2,1.1 h 1.3 1.2 1.2 l 1.2,-1.4 1.3,-9 1.2,-24.4 1.2,-23.7 1.3,8.1 1.2,29.7 1.2,17 1.2,3.5 1.3,0.2 h 1.2 1.2 0.3 0.01"
         id="path21" />
    </g>
  </g>
  <g
     id="gnuplot_plot_2">
    <title
       id="title22">gnuplot_plot_2</title>
    <g
       style="color:#0000ff;fill:none;stroke:currentColor;stroke-width:1;stroke-linecap:butt;stroke-linejoin:miter"
       id="g23">
      <path
         stroke="#0000ff"
         d="m 74.3,259.4 v -0.3 l 1.3,-20.9 1.2,-16.8 1.2,-4.7 1.2,-0.5 h 1.3 l 1.2,0.1 1.2,1.8 1.2,12.8 1.3,31.4 1.2,17.7 1.2,-23.2 1.3,-26.8 1.2,-0.2 1.2,15.4 1.2,0.7 1.3,-15.9 1.2,-10.8 1.2,-1.7 1.3,9.2 1.2,34.7 1.2,44.3 1.2,-6.9 1.3,-47.8 1.2,-28.4 1.2,-5.9 1.3,-0.5 h 1.2 1.2 1.2 1.3 l 1.2,1.8 1.2,12.7 1.3,32.7 1.2,18.2 1.2,-21.2 1.2,-15.9 1.3,-0.4 1.2,-8.4 1.2,-2.8 1.2,22.2 1.3,59.4 1.2,56.2 1.2,1.8 1.3,-37.4 1.2,-44.1 1.2,-18.9 1.2,13.2 1.3,20.7 1.2,-13 1.2,-32.7 1.3,-16.7 1.2,2.2 1.2,2 1.2,-14 1.3,-13.4 1.2,-3.8 1.2,-0.4 1.3,1 1.2,7.1 1.2,19.8 1.2,23.5 1.3,17.9 1.2,-1.9 1.2,-31.8 1.3,-26.8 1.2,-7.9 1.2,-0.9 h 1.2 1.3 1.2 l 1.2,-0.1 h 1.3 1.2 1.2 l 1.2,0.1 h 1.3 1.2 l 1.2,0.1 1.3,2.3 1.2,18.6 1.2,52.6 1.2,38 1.3,-24.4 1.2,-41 1.2,-30.3 1.3,-13.2 1.2,-2.6 1.2,0.1 1.2,3.7 1.3,19.6 1.2,35.3 1.2,2.8 1.2,-34.5 1.3,-22.2 1.2,-4.6 1.2,-0.3 1.3,0.1 1.2,1.7 1.2,8.7 1.2,24.5 1.3,38.5 1.2,13.3 1.2,-37.4 1.3,-37.2 1.2,-11 1.2,-1.2 h 1.2 l 1.3,1.9 1.2,15.3 1.2,46.7 1.3,36.3 1.2,-33.6 1.2,-48.1 1.2,-16.4 1.3,-2 1.2,-0.1 h 1.2 1.3 l 1.2,-0.1 h 1.2 1.2 1.3 1.2 1.2 1.2 1.3 1.2 1.2 1.3 1.2 1.2 1.2 1.3 l 1.2,0.1 h 1.2 1.3 l 1.2,0.9 1.2,9.2 1.2,31.8 1.3,27.1 1.2,-23.6 1.2,-33.6 1.3,-10.6 1.2,-1.2 h 1.2 1.2 l 1.3,-0.1 h 1.2 1.2 1.3 1.2 1.2 1.2 1.3 1.2 1.2 1.3 1.2 1.2 1.2 1.3 1.2 1.2 1.2 1.3 1.2 1.2 1.3 1.2 1.2 1.2 1.3 1.2 1.2 1.3 1.2 1.2 1.2 1.3 1.2 1.2 1.3 1.2 1.2 1.2 1.3 1.2 1.2 1.3 1.2 1.2 1.2 1.3 1.2 1.2 1.3 1.2 1.2 1.2 1.3 1.2 1.2 1.3 1.2 1.2 1.2 1.3 1.2 1.2 1.2 1.3 1.2 1.2 1.3 1.2 1.2 1.2 1.3 1.2 1.2 1.3 1.2 1.2 1.2 1.3 1.2 1.2 1.3 1.2 1.2 1.2 1.3 1.2 1.2 1.3 1.2 1.2 1.2 1.3 1.2 1.2 1.3 1.2 1.2 1.2 1.3 1.2 1.2 1.2 1.3 1.2 1.2 1.3 1.2 1.2 1.2 1.3 1.2 1.2 1.3 1.2 1.2 1.2 1.3 1.2 1.2 1.3 1.2 1.2 1.2 1.3 1.2 1.2 1.3 1.2 1.2 1.2 1.3 1.2 1.2 1.3 1.2 1.2 1.2 1.3 1.2 1.2 1.3 1.2 1.2 1.2 1.3 1.2 1.2 1.2 1.3 1.2 1.2 1.3 1.2 1.2 1.2 1.3 1.2 1.2 1.3 1.2 1.2 1.2 1.3 1.2 1.2 1.3 1.2 1.2 1.2 1.3 1.2 1.2 1.3 1.2 1.2 1.2 1.3 1.2 1.2 1.3 1.2 1.2 1.2 1.3 1.2 1.2 1.2 1.3 1.2 1.2 1.3 1.2 1.2 1.2 l 1.3,0.1 h 1.2 1.2 l 1.3,0.4 1.2,4.4 1.2,14.7 1.2,13.2 1.3,-8.9 1.2,-14.5 1.2,4 1.3,28.1 1.2,23.2 1.2,-19.3 1.2,-31.7 1.3,-12 1.2,-1.6 h 1.2 1.3 1.2 l 1.2,-0.1 h 1.2 1.3 1.2 1.2 1.2 1.3 1.2 1.2 1.3 1.2 1.2 1.2 1.3 1.2 1.2 1.3 1.2 1.2 1.2 1.3 1.2 1.2 1.3 1.2 1.2 1.2 l 1.3,0.1 h 1.2 1.2 l 1.3,0.2 1.2,2.8 1.2,12 1.2,16.2 1.3,-3.5 1.2,-16.8 1.2,-8.2 1.3,5.8 1.2,27.6 1.2,29.5 1.2,-15 1.3,-34.1 1.2,-14.3 1.2,-2.1 h 0.3 0.01"
         id="path22" />
    </g>
  </g>
  <g
     id="gnuplot_plot_3">
    <title
       id="title23">gnuplot_plot_3</title>
    <g
       style="color:#000000;fill:none;stroke:currentColor;stroke-width:1;stroke-linecap:butt;stroke-linejoin:miter"
       id="g24">
      <path
         stroke="#000000"
         d="m 74.3,216.1 h 5 5 5 5.1 5 5 5 5 5 5.1 5 5 5 5 5 5 5.1 5 5 5 5 5 5 5.1 5 5 5 5 5 5.1 5 5 5 5 5 5 5.1 5 5 5 5 5 5.1 5 5 5 5 5 5 5.1 5 5 5 5 5 5 5.1 5 5 5 5 5 5.1 5 5 5 5 5 5 5.1 5 5 5 5 5 5.1 5 5 5 5 5 5 5.1 5 5 5 5 5 5 5.1 5 5 5 5 5 5.1 5 5 5 0.01"
         id="path23" />
    </g>
  </g>
  <g
     style="color:#000000;fill:none;stroke:currentColor;stroke-width:1;stroke-linecap:butt;stroke-linejoin:miter"
     id="g25">
    <path
       stroke="#000000"
       d="M 74.3,19.5 V 412.8 H 570.8 V 19.5 Z m 0,0 h 0.01"
       id="path24" />
  </g>
</svg>
