<?xml version="1.0" encoding="UTF-8" standalone="no"?>
<svg
   width="600"
   height="480"
   viewBox="0 0 600 480"
   version="1.1"
   id="svg26"
   sodipodi:docname="density_of_states.svg"
   inkscape:version="1.3.2 (091e20e, 2023-11-25, custom)"
   xmlns:inkscape="http://www.inkscape.org/namespaces/inkscape"
   xmlns:sodipodi="http://sodipodi.sourceforge.net/DTD/sodipodi-0.dtd"
   xmlns:xlink="http://www.w3.org/1999/xlink"
   xmlns="http://www.w3.org/2000/svg"
   xmlns:svg="http://www.w3.org/2000/svg">
  <defs
     id="defs26">
    <defs
       id="defs1">
      <circle
         id="gpDot"
         r="0.5"
         stroke-width="0.5" />
      <path
         id="gpPt0"
         stroke-width="0.190"
         stroke="currentColor"
         d="M-1,0 h2 M0,-1 v2" />
      <path
         id="gpPt1"
         stroke-width="0.190"
         stroke="currentColor"
         d="M-1,-1 L1,1 M1,-1 L-1,1" />
      <path
         id="gpPt2"
         stroke-width="0.190"
         stroke="currentColor"
         d="M-1,0 L1,0 M0,-1 L0,1 M-1,-1 L1,1 M-1,1 L1,-1" />
      <rect
         id="gpPt3"
         stroke-width="0.190"
         stroke="currentColor"
         x="-1"
         y="-1"
         width="2"
         height="2" />
      <rect
         id="gpPt4"
         stroke-width="0.190"
         stroke="currentColor"
         fill="currentColor"
         x="-1"
         y="-1"
         width="2"
         height="2" />
      <circle
         id="gpPt5"
         stroke-width="0.190"
         stroke="currentColor"
         cx="0"
         cy="0"
         r="1" />
      <use
         xlink:href="#gpPt5"
         id="gpPt6"
         fill="currentColor"
         stroke="none" />
      <path
         id="gpPt7"
         stroke-width="0.190"
         stroke="currentColor"
         d="M0,-1.33 L-1.33,0.67 L1.33,0.67 z" />
      <use
         xlink:href="#gpPt7"
         id="gpPt8"
         fill="currentColor"
         stroke="none" />
      <use
         xlink:href="#gpPt7"
         id="gpPt9"
         stroke="currentColor"
         transform="rotate(180)" />
      <use
         xlink:href="#gpPt9"
         id="gpPt10"
         fill="currentColor"
         stroke="none" />
      <use
         xlink:href="#gpPt3"
         id="gpPt11"
         stroke="currentColor"
         transform="rotate(45)" />
      <use
         xlink:href="#gpPt11"
         id="gpPt12"
         fill="currentColor"
         stroke="none" />
    </defs>
  </defs>
  <sodipodi:namedview
     id="namedview26"
     pagecolor="#ffffff"
     bordercolor="#000000"
     borderopacity="0.25"
     inkscape:showpageshadow="2"
     inkscape:pageopacity="0.0"
     inkscape:pagecheckerboard="0"
     inkscape:deskcolor="#d1d1d1"
     inkscape:zoom="2.44375"
     inkscape:cx="300.15345"
     inkscape:cy="240"
     inkscape:window-width="2560"
     inkscape:window-height="1369"
     inkscape:window-x="-8"
     inkscape:window-y="-8"
     inkscape:window-maximized="1"
     inkscape:current-layer="svg26" />
  <title
     id="title1">Gnuplot</title>
  <desc
     id="desc1">Produced by GNUPLOT 4.6 patchlevel 2 </desc>
  <rect
     x="0"
     y="0"
     width="600"
     height="480"
     fill="none"
     id="rect1" />
  <g
     style="color:#ffffff;fill:none;stroke:currentColor;stroke-width:1;stroke-linecap:butt;stroke-linejoin:miter"
     id="g1" />
  <path
     stroke="#000000"
     d="m 84,412.8 h 10.5 m 476.3,0 h -10.5 0.01"
     id="path1"
     style="color:#000000;fill:none;stroke-width:1;stroke-linecap:butt;stroke-linejoin:miter" />
  <g
     transform="translate(74.3,418)"
     style="color:#000000;font-size:18.6667px;font-family:Arial;text-anchor:end;fill:#000000;stroke:none;stroke-width:1;stroke-linecap:butt;stroke-linejoin:miter"
     id="g2">
    <text
       id="text1"><tspan
         id="tspan1">0</tspan></text>
  </g>
  <path
     stroke="#000000"
     d="m 84,356.6 h 10.5 m 476.3,0 h -10.5 0.01"
     id="path2"
     style="color:#000000;fill:none;stroke-width:1;stroke-linecap:butt;stroke-linejoin:miter" />
  <g
     transform="translate(74.3,361.8)"
     style="color:#000000;font-size:18.6667px;font-family:Arial;text-anchor:end;fill:#000000;stroke:none;stroke-width:1;stroke-linecap:butt;stroke-linejoin:miter"
     id="g3">
    <text
       id="text2"><tspan
         id="tspan2">0.2</tspan></text>
  </g>
  <path
     stroke="#000000"
     d="m 84,300.4 h 10.5 m 476.3,0 h -10.5 0.01"
     id="path3"
     style="color:#000000;fill:none;stroke-width:1;stroke-linecap:butt;stroke-linejoin:miter" />
  <g
     transform="translate(74.3,305.6)"
     style="color:#000000;font-size:18.6667px;font-family:Arial;text-anchor:end;fill:#000000;stroke:none;stroke-width:1;stroke-linecap:butt;stroke-linejoin:miter"
     id="g4">
    <text
       id="text3"><tspan
         id="tspan3">0.4</tspan></text>
  </g>
  <path
     stroke="#000000"
     d="m 84,244.2 h 10.5 m 476.3,0 h -10.5 0.01"
     id="path4"
     style="color:#000000;fill:none;stroke-width:1;stroke-linecap:butt;stroke-linejoin:miter" />
  <g
     transform="translate(74.3,249.4)"
     style="color:#000000;font-size:18.6667px;font-family:Arial;text-anchor:end;fill:#000000;stroke:none;stroke-width:1;stroke-linecap:butt;stroke-linejoin:miter"
     id="g5">
    <text
       id="text4"><tspan
         id="tspan4">0.6</tspan></text>
  </g>
  <path
     stroke="#000000"
     d="m 84,188.1 h 10.5 m 476.3,0 h -10.5 0.01"
     id="path5"
     style="color:#000000;fill:none;stroke-width:1;stroke-linecap:butt;stroke-linejoin:miter" />
  <g
     transform="translate(74.3,193.3)"
     style="color:#000000;font-size:18.6667px;font-family:Arial;text-anchor:end;fill:#000000;stroke:none;stroke-width:1;stroke-linecap:butt;stroke-linejoin:miter"
     id="g6">
    <text
       id="text5"><tspan
         id="tspan5">0.8</tspan></text>
  </g>
  <path
     stroke="#000000"
     d="m 84,131.9 h 10.5 m 476.3,0 h -10.5 0.01"
     id="path6"
     style="color:#000000;fill:none;stroke-width:1;stroke-linecap:butt;stroke-linejoin:miter" />
  <g
     transform="translate(74.3,137.1)"
     style="color:#000000;font-size:18.6667px;font-family:Arial;text-anchor:end;fill:#000000;stroke:none;stroke-width:1;stroke-linecap:butt;stroke-linejoin:miter"
     id="g7">
    <text
       id="text6"><tspan
         id="tspan6">1</tspan></text>
  </g>
  <path
     stroke="#000000"
     d="m 84,75.7 h 10.5 m 476.3,0 h -10.5 0.01"
     id="path7"
     style="color:#000000;fill:none;stroke-width:1;stroke-linecap:butt;stroke-linejoin:miter" />
  <g
     transform="translate(74.3,80.9)"
     style="color:#000000;font-size:18.6667px;font-family:Arial;text-anchor:end;fill:#000000;stroke:none;stroke-width:1;stroke-linecap:butt;stroke-linejoin:miter"
     id="g8">
    <text
       id="text7"><tspan
         id="tspan7">1.2</tspan></text>
  </g>
  <path
     stroke="#000000"
     d="m 84,19.5 h 10.5 m 476.3,0 h -10.5 0.01"
     id="path8"
     style="color:#000000;fill:none;stroke-width:1;stroke-linecap:butt;stroke-linejoin:miter" />
  <g
     transform="translate(74.3,24.7)"
     style="color:#000000;font-size:18.6667px;font-family:Arial;text-anchor:end;fill:#000000;stroke:none;stroke-width:1;stroke-linecap:butt;stroke-linejoin:miter"
     id="g9">
    <text
       id="text8"><tspan
         id="tspan8">1.4</tspan></text>
  </g>
  <path
     stroke="#000000"
     d="M 84,412.8 V 402.3 M 84,19.5 V 30 h 0.01"
     id="path9"
     style="color:#000000;fill:none;stroke-width:1;stroke-linecap:butt;stroke-linejoin:miter" />
  <g
     transform="translate(84,439)"
     style="color:#000000;font-size:18.6667px;font-family:Arial;text-anchor:middle;fill:#000000;stroke:none;stroke-width:1;stroke-linecap:butt;stroke-linejoin:miter"
     id="g10">
    <text
       id="text9"><tspan
         id="tspan9">-25</tspan></text>
  </g>
  <path
     stroke="#000000"
     d="m 138.1,412.8 v -10.5 m 0,-382.8 V 30 h 0.01"
     id="path10"
     style="color:#000000;fill:none;stroke-width:1;stroke-linecap:butt;stroke-linejoin:miter" />
  <g
     transform="translate(138.1,439)"
     style="color:#000000;font-size:18.6667px;font-family:Arial;text-anchor:middle;fill:#000000;stroke:none;stroke-width:1;stroke-linecap:butt;stroke-linejoin:miter"
     id="g11">
    <text
       id="text10"><tspan
         id="tspan10">-20</tspan></text>
  </g>
  <path
     stroke="#000000"
     d="m 192.2,412.8 v -10.5 m 0,-382.8 V 30 h 0.01"
     id="path11"
     style="color:#000000;fill:none;stroke-width:1;stroke-linecap:butt;stroke-linejoin:miter" />
  <g
     transform="translate(192.2,439)"
     style="color:#000000;font-size:18.6667px;font-family:Arial;text-anchor:middle;fill:#000000;stroke:none;stroke-width:1;stroke-linecap:butt;stroke-linejoin:miter"
     id="g12">
    <text
       id="text11"><tspan
         id="tspan11">-15</tspan></text>
  </g>
  <path
     stroke="#000000"
     d="m 246.3,412.8 v -10.5 m 0,-382.8 V 30 h 0.01"
     id="path12"
     style="color:#000000;fill:none;stroke-width:1;stroke-linecap:butt;stroke-linejoin:miter" />
  <g
     transform="translate(246.3,439)"
     style="color:#000000;font-size:18.6667px;font-family:Arial;text-anchor:middle;fill:#000000;stroke:none;stroke-width:1;stroke-linecap:butt;stroke-linejoin:miter"
     id="g13">
    <text
       id="text12"><tspan
         id="tspan12">-10</tspan></text>
  </g>
  <path
     stroke="#000000"
     d="m 300.4,412.8 v -10.5 m 0,-382.8 V 30 h 0.01"
     id="path13"
     style="color:#000000;fill:none;stroke-width:1;stroke-linecap:butt;stroke-linejoin:miter" />
  <g
     transform="translate(300.4,439)"
     style="color:#000000;font-size:18.6667px;font-family:Arial;text-anchor:middle;fill:#000000;stroke:none;stroke-width:1;stroke-linecap:butt;stroke-linejoin:miter"
     id="g14">
    <text
       id="text13"><tspan
         id="tspan13">-5</tspan></text>
  </g>
  <path
     stroke="#000000"
     d="m 354.4,412.8 v -10.5 m 0,-382.8 V 30 h 0.01"
     id="path14"
     style="color:#000000;fill:none;stroke-width:1;stroke-linecap:butt;stroke-linejoin:miter" />
  <g
     transform="translate(354.4,439)"
     style="color:#000000;font-size:18.6667px;font-family:Arial;text-anchor:middle;fill:#000000;stroke:none;stroke-width:1;stroke-linecap:butt;stroke-linejoin:miter"
     id="g15">
    <text
       id="text14"><tspan
         id="tspan14">0</tspan></text>
  </g>
  <path
     stroke="#000000"
     d="m 408.5,412.8 v -10.5 m 0,-382.8 V 30 h 0.01"
     id="path15"
     style="color:#000000;fill:none;stroke-width:1;stroke-linecap:butt;stroke-linejoin:miter" />
  <g
     transform="translate(408.5,439)"
     style="color:#000000;font-size:18.6667px;font-family:Arial;text-anchor:middle;fill:#000000;stroke:none;stroke-width:1;stroke-linecap:butt;stroke-linejoin:miter"
     id="g16">
    <text
       id="text15"><tspan
         id="tspan15">5</tspan></text>
  </g>
  <path
     stroke="#000000"
     d="m 462.6,412.8 v -10.5 m 0,-382.8 V 30 h 0.01"
     id="path16"
     style="color:#000000;fill:none;stroke-width:1;stroke-linecap:butt;stroke-linejoin:miter" />
  <g
     transform="translate(462.6,439)"
     style="color:#000000;font-size:18.6667px;font-family:Arial;text-anchor:middle;fill:#000000;stroke:none;stroke-width:1;stroke-linecap:butt;stroke-linejoin:miter"
     id="g17">
    <text
       id="text16"><tspan
         id="tspan16">10</tspan></text>
  </g>
  <path
     stroke="#000000"
     d="m 516.7,412.8 v -10.5 m 0,-382.8 V 30 h 0.01"
     id="path17"
     style="color:#000000;fill:none;stroke-width:1;stroke-linecap:butt;stroke-linejoin:miter" />
  <g
     transform="translate(516.7,439)"
     style="color:#000000;font-size:18.6667px;font-family:Arial;text-anchor:middle;fill:#000000;stroke:none;stroke-width:1;stroke-linecap:butt;stroke-linejoin:miter"
     id="g18">
    <text
       id="text17"><tspan
         id="tspan17">15</tspan></text>
  </g>
  <path
     stroke="#000000"
     d="m 570.8,412.8 v -10.5 m 0,-382.8 V 30 h 0.01"
     id="path18"
     style="color:#000000;fill:none;stroke-width:1;stroke-linecap:butt;stroke-linejoin:miter" />
  <g
     transform="translate(570.8,439)"
     style="color:#000000;font-size:18.6667px;font-family:Arial;text-anchor:middle;fill:#000000;stroke:none;stroke-width:1;stroke-linecap:butt;stroke-linejoin:miter"
     id="g19">
    <text
       id="text18"><tspan
         id="tspan18">20</tspan></text>
  </g>
  <path
     stroke="#000000"
     d="M 84,19.5 V 412.8 H 570.8 V 19.5 Z m 0,0 h 0.01"
     id="path19"
     style="color:#000000;fill:none;stroke-width:1;stroke-linecap:butt;stroke-linejoin:miter" />
  <g
     transform="rotate(-90,122.35,93.85)"
     style="color:#000000;font-size:18.6667px;font-family:Arial;text-anchor:middle;fill:#000000;stroke:none;stroke-width:1;stroke-linecap:butt;stroke-linejoin:miter"
     id="g20">
    <text
       id="text19"><tspan
         id="tspan19">DOS (states/eV)</tspan></text>
  </g>
  <g
     transform="translate(327.4,462.5)"
     style="color:#000000;font-size:18.6667px;font-family:Arial;text-anchor:middle;fill:#000000;stroke:none;stroke-width:1;stroke-linecap:butt;stroke-linejoin:miter"
     id="g21">
    <text
       id="text20"><tspan
         id="tspan20">Energy (eV)</tspan></text>
  </g>
  <g
     style="color:#808080;fill:none;stroke:currentColor;stroke-width:1;stroke-linecap:butt;stroke-linejoin:miter"
     id="g23">
    <path
       stroke="#808080"
       stroke-dasharray="0, 2, 4"
       d="M 354.4,412.8 V 19.5 h 0.01"
       id="path22" />
  </g>
  <g
     style="color:#000000;fill:none;stroke:currentColor;stroke-width:1;stroke-linecap:butt;stroke-linejoin:miter"
     id="g24" />
  <g
     id="gnuplot_plot_1">
    <title
       id="title24">gnuplot_plot_1</title>
    <g
       style="color:#ff0000;fill:none;stroke:currentColor;stroke-width:1;stroke-linecap:butt;stroke-linejoin:miter"
       id="g25">
      <path
         stroke="#ff0000"
         d="m 134,412.8 h 0.3 0.3 0.3 0.3 0.3 0.3 0.3 0.3 l 0.3,-0.2 0.3,-0.9 0.2,-1.8 0.3,-2.5 0.3,-3.5 0.3,-3.3 0.3,-2.4 0.3,-1.8 0.3,-1.1 0.3,-0.3 0.3,-0.2 0.3,-0.5 0.3,-0.8 0.3,-1.1 0.3,-1.3 0.3,-1.4 0.3,-1.4 0.3,-1.4 0.3,-1.4 0.3,-1.2 0.2,-1 0.3,-0.6 0.3,-0.4 0.3,-0.2 0.3,-0.2 0.3,-0.4 0.3,-0.6 0.3,-0.7 0.3,-0.7 0.3,-0.8 0.3,-0.7 0.3,-0.7 0.3,-0.7 0.3,-0.7 0.3,-0.7 0.3,-0.7 0.3,-0.7 0.3,-0.8 0.2,-0.8 0.3,-0.8 0.3,-0.9 0.3,-0.9 0.3,-0.7 0.3,-0.7 0.3,-0.4 0.3,-0.4 0.3,-0.3 0.3,-0.5 0.3,-0.4 0.3,-0.5 0.3,-0.6 0.3,-0.5 0.3,-0.6 0.3,-0.5 0.3,-0.6 0.3,-0.5 0.2,-0.5 0.3,-0.5 0.3,-0.6 0.3,-0.5 0.3,-0.6 0.3,-0.7 0.3,-0.7 0.3,-0.6 0.3,-0.7 0.3,-0.7 0.3,-0.7 0.3,-0.7 0.3,-0.7 0.3,-0.7 0.3,-0.7 0.3,-0.7 0.3,-0.7 0.3,-0.6 0.2,-0.6 0.3,-0.4 0.3,-0.5 0.3,-0.4 0.3,-0.5 0.3,-0.5 0.3,-0.5 0.3,-0.6 0.3,-0.6 0.3,-0.6 0.3,-0.6 0.3,-0.6 0.3,-0.6 0.3,-0.6 0.3,-0.7 0.3,-0.6 0.3,-0.7 0.2,-0.7 0.3,-0.7 0.3,-0.7 0.3,-0.7 0.3,-0.7 0.3,-0.8 0.3,-0.7 0.3,-0.7 0.3,-0.8 0.3,-0.7 0.3,-0.7 0.3,-0.8 0.3,-0.7 0.3,-0.8 0.3,-0.7 0.3,-0.8 0.3,-0.9 0.3,-0.9 0.2,-1 0.3,-1 0.3,-0.8 0.3,-0.9 0.3,-0.9 0.3,-0.9 0.3,-0.9 0.3,-1 0.3,-1 0.3,-1 0.3,-1.1 0.3,-1 0.3,-1.1 0.3,-1 0.3,-1.1 0.3,-1.2 0.3,-1.1 0.3,-1.2 0.2,-1.3 0.3,-1.2 0.3,-1.3 0.3,-1.3 0.3,-1.3 0.3,-1.4 0.3,-1.4 0.3,-1.6 0.3,-1.7 0.3,-1.9 0.3,-2.1 0.3,-2.1 0.3,-2.4 0.3,-2.4 0.3,-2.6 0.3,-2.8 0.3,-3.1 0.3,-3.3 0.2,-3.5 0.3,-3.7 0.3,-4 0.3,-4.2 0.3,-6.1 0.3,-6.3 0.3,-5.3 0.3,-4.1 0.3,-2.5 0.3,-0.8 0.3,1 0.3,1.9 0.3,0.6 0.3,-1.4 0.3,0.5 0.3,4.5 0.3,0.3 0.2,-4.6 0.3,-0.7 0.3,0.3 0.3,0.2 0.3,0.3 0.3,0.3 0.3,0.3 0.3,0.2 0.3,-0.1 0.3,-0.3 0.3,-0.6 0.3,-0.9 0.3,-1.4 0.3,-1.4 0.3,0.3 0.3,2.2 0.3,2.9 0.3,1.8 0.2,0.6 0.3,-0.2 0.3,-0.6 0.3,-0.4 0.3,0.1 0.3,0.5 0.3,-0.3 0.3,-2.2 0.3,-2.9 0.3,-2.5 0.3,-2.9 0.3,-3.5 0.3,-4.9 0.3,-12.9 0.3,-16.3 0.3,-6 0.3,-3.7 0.3,-2.2 0.2,-0.2 0.3,2.4 0.3,-1 0.3,1.5 0.3,6.5 0.3,15.1 0.3,21 0.3,29.3 0.3,34.2 0.3,36.4 0.3,28.2 0.3,22 0.3,17.8 0.3,13.1 0.3,6.2 0.3,0.6 h 0.3 0.3 0.2 0.3 0.3 0.3 0.3 0.3 0.3 0.3 0.3 0.3 0.3 0.3 0.3 0.3 0.3 0.3 0.3 0.2 0.3 0.3 0.3 0.3 0.3 0.3 0.3 0.3 0.3 0.3 0.3 0.3 0.3 0.3 0.3 0.3 0.3 0.2 0.3 0.3 0.3 0.3 0.3 0.3 0.3 0.3 0.3 0.3 0.3 0.3 0.3 0.3 0.3 0.3 0.3 0.2 0.3 0.3 0.3 0.3 0.3 0.3 0.3 0.3 0.3 0.3 0.3 0.3 0.3 0.3 0.3 0.3 0.3 0.2 0.3 0.3 0.3 0.3 0.3 0.3 0.3 0.3 0.3 0.3 0.3 0.3 0.3 0.3 0.3 0.3 0.2 0.3 0.3 0.3 0.3 0.3 0.3 0.3 0.3 0.3 0.3 0.3 0.3 0.3 0.3 0.3 0.3 0.3 0.2 0.3 0.3 0.3 0.3 0.3 0.3 0.3 0.3 0.3 0.3 0.3 0.3 0.3 0.3 0.3 0.3 0.3 0.2 0.3 0.3 0.3 0.3 0.3 0.3 0.3 0.3 0.3 0.3 l 0.3,-0.1 0.3,-0.6 0.3,-0.9 0.3,-1.3 0.3,-1.6 0.3,-2.1 0.3,-2.5 0.2,-2.8 0.3,-3.6 0.3,-17 0.3,-4.6 0.3,8.8 0.3,-1.5 0.3,-1.9 0.3,-1.8 0.3,-1.9 0.3,-1.8 0.3,-1.9 0.3,-1.9 0.3,-1.9 0.3,-1.9 0.3,-1.9 0.3,-2.1 0.3,-2.1 0.2,-2.2 0.3,-2.2 0.3,-2.4 0.3,-2.6 0.3,-3.7 0.3,-1.5 0.3,-0.5 0.3,-0.7 0.3,-0.8 0.3,-1 0.3,-1.1 0.3,-1.2 0.3,-1.3 0.3,-1.4 0.3,-1.4 0.3,-1.4 0.3,-1.4 0.3,-1.5 0.2,-1.5 0.3,-1.4 0.3,-1.5 0.3,-1.4 0.3,-1.1 0.3,-1.4 0.3,-1.6 0.3,-1.8 0.3,-2 0.3,-2.2 0.3,-2.2 0.3,-2.4 0.3,-2.4 0.3,-2.4 0.3,-2.4 0.3,-2.4 0.3,-2.5 0.3,-2.4 0.2,-2.5 0.3,-2.4 0.3,-3.9 0.3,-3 0.3,-3.5 0.3,-4.5 0.3,-5.5 0.3,-6.6 0.3,-7.1 0.3,-7.1 0.3,-7.2 0.3,-7.3 0.3,-7.9 0.3,-9 0.3,-10 0.3,-10.5 0.3,-10.7 0.3,-10.8 0.2,-10.9 0.3,-11.6 0.3,-14.7 0.3,-18.6 0.3,-20.5 0.3,-17.1 0.3,-16.4 0.3,-14.6 0.3,4.4 0.3,24.3 0.3,20.5 0.3,17.7 0.3,14.7 0.3,13.7 0.3,13.4 0.3,14 0.3,15.5 0.2,14.1 0.3,10.5 0.3,12.1 0.3,23.1 0.3,16 0.3,6.7 0.3,6.2 0.3,5.9 0.3,5.4 0.3,5 0.3,4.6 0.3,4.3 0.3,3.8 0.3,3.4 0.3,3 0.3,2.6 0.3,2 0.3,1.3 0.2,0.7 0.3,0.3 0.3,-0.3 0.3,-0.8 0.3,-0.7 0.3,-1 0.3,-1.2 0.3,-1.3 0.3,-1.4 0.3,-1.5 0.3,-1.8 0.3,-2.1 0.3,-2.4 0.3,-2.6 0.3,-2.9 0.3,-3.1 0.3,-3.2 0.3,-2.4 0.2,-2.4 0.3,-2.5 0.3,-2.7 0.3,-2.9 0.3,-3 0.3,-3.2 0.3,-3 0.3,-2.8 0.3,-2.7 0.3,-2.5 0.3,-2.2 0.3,-2.1 0.3,-2 0.3,-1.9 0.3,-1.8 0.3,-1.6 0.3,-1.4 0.3,-0.9 0.2,-0.6 0.3,-2.9 0.3,-3 0.3,-1.6 0.3,-0.1 0.3,1.3 0.3,2.6 0.3,3.4 0.3,2.2 0.3,0.1 0.3,-0.1 0.3,-0.2 0.3,-0.3 0.3,-0.3 0.3,-0.4 0.3,-0.5 0.3,-0.5 0.2,-0.5 0.3,-0.7 0.3,-0.7 0.3,-0.7 0.3,-0.7 0.3,-0.7 0.3,-0.7 0.3,-0.8 0.3,-0.9 0.3,-0.9 0.3,-1.1 0.3,-1.1 0.3,-1.2 0.3,-1.3 0.3,-1.2 0.3,-1.3 0.3,-1.3 0.3,-1.6 0.2,-1.8 0.3,-2.1 0.3,-2.4 0.3,-2.6 0.3,-2.8 0.3,-2.7 0.3,-2.4 0.3,-2.3 0.3,-2.4 0.3,-2.3 0.3,-2.4 0.3,-2.3 0.3,-2.3 0.3,-1.9 0.3,-1.8 0.3,-1.6 0.3,-1.9 0.3,-2.7 0.2,-3.9 0.3,-6.2 0.3,-5.9 0.3,-5.5 0.3,-4.6 0.3,-4.1 0.3,-1.6 0.3,-0.7 0.3,-0.5 0.3,-0.4 0.3,-0.4 0.3,-0.3 0.3,-0.4 0.3,-0.4 0.3,-0.4 0.3,-7.5 0.3,-4 0.3,1.2 0.2,1.4 0.3,1.3 0.3,6.1 0.3,-0.8 0.3,-3.5 0.3,-2.4 0.3,-0.2 0.3,1.2 0.3,1.3 0.3,1.4 0.3,1.4 0.3,1.5 0.3,1.4 0.3,1.4 0.3,1.4 0.3,1.3 0.3,1.4 0.2,1.4 0.3,1.1 0.3,-0.3 0.3,-0.4 0.3,-0.9 0.3,-1.5 0.3,-2.3 0.3,-3.4 0.3,-3.8 0.3,-1.9 0.3,1.1 0.3,1.8 0.3,2.4 0.3,2.3 0.3,0.7 0.3,0.8 0.3,0.9 0.3,1.1 0.2,0.8 0.3,0.9 0.3,1.3 0.3,0.8 0.3,0.7 0.3,0.7 0.3,0.8 0.3,0.7 0.3,0.5 0.3,-0.1 0.3,0.1 0.3,0.1 0.3,0.3 0.3,0.4 0.3,0.4 0.3,0.5 0.3,0.7 0.3,0.6 0.2,0.6 0.3,0.5 0.3,0.3 h 0.3 l 0.3,-0.4 0.3,-0.4 0.3,-0.6 0.3,-0.9 0.3,-1.4 0.3,-1.8 0.3,-2.1 0.3,0.6 0.3,2.2 0.3,1.5 0.3,-0.2 0.3,-0.3 0.3,-0.3 0.3,-0.2 0.2,-0.1 h 0.3 l 0.3,0.9 0.3,1.5 0.3,1.4 0.3,1.5 0.3,1.4 0.3,1.4 0.3,1.3 0.3,1.2 0.3,1 0.3,1 0.3,0.8 0.3,-0.4 0.3,-0.3 0.3,0.3 0.3,0.9 0.2,1.5 0.3,2.1 0.3,2.4 0.3,3.2 0.3,3.5 0.3,2.7 0.3,0.8 0.3,-22.6 0.3,-27.6 0.3,5.6 0.3,47.3 0.3,12 0.3,10.9 0.3,9.9 0.3,14.1 0.3,7.7 0.3,5.4 0.3,4.4 0.2,3.6 0.3,3.2 0.3,3.2 0.3,3 0.3,2.9 0.3,2.7 0.3,2.4 0.3,2.3 0.3,2.1 0.3,2.1 0.3,2 0.3,1.2 0.3,-16.3 0.3,11.7 0.3,1.9 0.3,1 0.3,1.5 0.3,1.9 0.2,2.3 0.3,2.7 0.3,2.4 0.3,0.7 h 0.3 l 0.3,4.1 0.3,4.7 0.3,5.3 0.3,6 0.3,4.4 0.3,2.5 0.3,2.3 0.3,2.3 0.3,2.1 0.3,2.1 0.3,2 0.3,1.9 0.2,1.8 0.3,1.7 0.3,1.6 0.3,1.5 0.3,1.4 0.3,-27.2 0.3,13.7 0.3,0.3 0.3,-0.6 0.3,1.2 0.3,10.1 0.3,8.6 0.3,6.2 0.3,4.9 0.3,4 0.3,3.2 0.3,2.5 0.3,0.3 0.2,0.8 0.3,1.6 0.3,2.6 0.3,3.4 0.3,4.3 0.3,5.2 0.3,6 0.3,3.2 0.3,1.3 0.3,0.7 0.3,0.2 h 0.3 0.3 0.3 0.3 0.3 0.3 0.3 0.2 0.3 0.3 0.3 0.3 0.3 0.3 0.3 0.3 0.3 0.3 0.3 0.3 0.3 0.3 0.3 0.3 0.3 0.2 0.3 0.3 0.3 0.3 0.3 0.3 0.3 0.3 0.3 0.3 0.3 0.3 0.3 0.3 0.3 0.3 0.2 0.3 0.3 0.3 0.3 0.3 0.3 0.3 0.3 0.3 0.3 0.3 0.3 0.3 0.3 0.3 0.3 0.3 0.2 0.3 0.3 0.3 0.3 0.3 0.3 0.3 0.3 0.3 0.3 0.3 0.3 0.3 0.3 0.3 0.3 0.3 0.2 0.3 0.3 0.3 0.3 0.3 0.3 0.3 0.3 0.3 0.3 0.3 0.3 0.3 0.3 0.3 0.3 0.3 0.2 0.3 0.3 0.3 0.3 0.3 0.3 0.3 0.3 0.3 0.3 0.3 0.3 0.3 0.3 0.3 0.3 0.2 0.3 0.3 0.3 0.3 0.3 0.3 0.3 0.3 0.3 0.3 0.3 0.3 0.3 0.3 0.3 0.3 0.3 0.2 0.3 0.3 0.3 0.3 0.3 0.3 0.3 0.3 0.3 0.3 0.3 0.3 0.3 0.3 0.3 0.3 0.3 0.2 0.3 0.3 0.3 0.3 0.3 0.3 0.3 0.3 0.3 0.3 0.3 0.3 l 0.3,-0.1 0.3,-0.1 0.3,-0.2 0.3,-0.3 0.3,-0.4 0.2,-0.5 0.3,-0.6 0.3,-0.6 0.3,-0.6 0.3,-0.7 0.3,-0.7 0.3,-0.8 0.3,-0.8 0.3,-0.8 0.3,-0.9 0.3,-0.9 0.3,-0.9 0.3,-0.9 0.3,-1 0.3,-1 0.3,-1.2 0.3,-1.4 0.3,-1.3 0.2,-1.2 0.3,-1.1 0.3,-0.9 0.3,-0.9 0.3,-0.7 0.3,-0.4 0.3,-0.4 0.3,-0.3 0.3,-0.3 0.3,-0.3 0.3,-0.2 0.3,-0.2 0.3,-0.3 0.3,-0.2 0.3,-0.4 0.3,-0.4 0.3,-0.5 0.2,-0.5 0.3,-0.6 0.3,-0.6 0.3,-0.6 0.3,-0.6 0.3,-0.6 0.3,-0.5 0.3,-0.6 0.3,-0.5 0.3,-0.6 0.3,-0.6 0.3,-0.7 0.3,-0.6 0.3,-0.7 0.3,-0.7 0.3,-0.7 0.3,-0.8 0.3,-0.7 0.2,-0.8 0.3,-0.8 0.3,-0.8 0.3,-0.8 0.3,-0.8 0.3,-0.8 0.3,-0.8 0.3,-0.8 0.3,-0.8 0.3,-0.9 0.3,-0.8 0.3,-0.8 0.3,-0.9 0.3,-0.8 0.3,-0.9 0.3,-0.8 0.3,-0.9 0.3,-1 0.2,-1.2 0.3,-1.3 0.3,-1.2 0.3,-1.1 0.3,-1.1 0.3,-1 0.3,-0.7 0.3,-0.7 0.3,-0.6 0.3,-0.6 0.3,-0.6 0.3,-0.6 0.3,-0.5 0.3,-0.6 0.3,-0.6 0.3,-0.7 0.3,-0.7 0.3,-0.8 0.2,-0.9 0.3,-0.9 0.3,-1 0.3,-0.9 0.3,-1 0.3,-0.9 0.3,-0.9 0.3,-1 0.3,-1 0.3,-1 0.3,-1 0.3,-1 0.3,-1.1 0.3,-1 0.3,-1.1 0.3,-1.2 0.3,-1.1 0.2,-1.2 0.3,-1.1 0.3,-1.2 0.3,-1.3 0.3,-1.2 0.3,-1.2 0.3,-1.3 0.3,-1.3 0.3,-1.3 0.3,-1.3 0.3,-1.4 0.3,-1.3 0.3,-1.4 0.3,-1.4 0.3,-1.4 0.3,-1.4 0.3,-1.6 0.3,-2.4 0.2,-2.5 0.3,-2.5 0.3,-2.4 0.3,-2.4 0.3,-1.8 0.3,-1.5 0.3,-1.5 0.3,-1.6 0.3,-1.6 0.3,-1.8 0.3,-1.8 0.3,-2 0.3,-2.1 0.3,-2.3 0.3,-2.4 0.3,-2.7 0.3,-2.7 0.3,-2.8 0.2,-2.8 0.3,-3.1 0.3,-4.1 0.3,-4.9 0.3,-4.8 0.3,-4.5 0.3,-4.3 0.3,-4.2 0.3,-3.9 0.3,-3.7 0.3,-3.7 0.3,-3.6 0.3,-3.7 0.3,-3.1 0.3,-2.8 0.3,-2.8 0.3,-2.6 0.3,-2.6 0.2,-3.6 0.3,-4 0.3,-4 0.3,-4 0.3,-4 0.3,-3.4 0.3,-3.2 0.3,-5.2 0.3,-7.7 0.3,-8 0.3,-6.7 0.3,-7.6 0.3,-10.2 0.3,-17.7 0.3,-22.3 0.3,-5.4 0.3,11.3 0.2,17.3 0.3,15.2 0.3,13.1 0.3,17.3 0.3,23.9 0.3,7.7 0.3,3 0.3,1.1 0.3,1.1 0.3,1 0.3,0.4 0.3,-1.1 0.3,-5.8 0.3,-9 0.3,-6.9 0.3,-10 0.3,-38.3 0.3,-20.3 0.2,6.3 0.3,21.8 0.3,23.6 0.3,24.1 0.3,18.4 0.3,14.5 0.3,12 0.3,11.5 0.3,-0.4 0.3,54 0.3,4 0.3,2.4 0.3,-6.3 0.3,-7.3 0.3,-0.8 0.3,0.2 0.3,1.4 0.3,2.5 0.2,-2 0.3,-14.6 0.3,-17.4 0.3,-19.4 0.3,-23.8 0.3,-34.2 0.3,-96.7 0.3,-7.4 0.3,17.6 0.3,-10.2 0.3,70.3 0.3,4.1 0.3,-1.2 0.3,-3.6 0.3,-4 0.3,-5.9 0.3,-5.6 0.3,-4.7 0.2,-4 0.3,-3.5 0.3,-3.9 0.3,-3.5 0.3,-3 0.3,-2.4 0.3,-2.3 0.3,-3.4 0.3,-3.6 0.3,-3.7 0.3,-3.7 0.3,-3 0.3,-3.2 0.3,-4.5 0.3,-0.8 0.3,0.5 0.3,1.1 0.2,0.4 0.3,-2.4 0.3,-4 0.3,-4.4 0.3,-3.8 0.3,-3.1 0.3,-2.2 0.3,-1.6 0.3,-0.7 0.3,-0.1 0.3,0.4 0.3,-1.1 0.3,-1.6 0.3,-0.9 0.3,2.8 0.3,1.4 0.3,1.4 0.3,5.5 0.2,6.1 0.3,5.9 0.3,5.8 0.3,5.6 0.3,5.5 0.3,5.1 0.3,3.1 0.3,1.2 0.3,12.6 0.3,11.6 0.3,5.7 0.3,3.6 0.3,3.2 0.3,2.7 0.3,2.4 0.3,1.9 0.3,1.7 0.3,1.4 0.2,1.1 0.3,0.7 0.3,0.4 0.3,-0.1 0.3,-0.4 0.3,-1.1 0.3,-3.1 0.3,-1.6 0.3,-0.1 0.3,-0.3 0.3,0.2 0.3,0.7 0.3,1.1 0.3,1.7 0.3,2.3 0.3,6.3 0.3,3.5 0.3,2.7 0.2,2.2 0.3,2.6 0.3,2.8 0.3,2.8 0.3,2.1 0.3,1.3 0.3,1.6 0.3,1 0.3,0.9 0.3,0.7 0.3,0.3 0.3,-0.1 0.3,0.1 0.3,0.1 0.3,-4.4 0.3,4.3 0.3,12.7 0.2,3.7 0.3,0.7 0.3,-0.4 0.3,-0.6 0.3,-0.6 0.3,-0.3 0.3,-0.3 0.3,-0.1 0.3,-0.1 0.3,-0.1 0.3,-0.1 0.3,-0.2 0.3,-0.3 0.3,-0.4 0.3,-0.7 0.3,-0.4 0.3,-0.4 0.3,-1.8 0.2,-2.9 0.3,-2.5 0.3,-3.2 0.3,-3.7 0.3,-3.9 0.3,-3.8 0.3,-4 0.3,-4 0.3,-4 0.3,-3.9 0.3,-3.8 0.3,-3.8 0.3,-3.9 0.3,-4.1 0.3,-4.1 0.3,-2.6 0.3,-2.2 0.3,-2.4 0.2,-3 0.3,-3.4 0.3,-3.2 0.3,-3.6 0.3,-4.8 0.3,-6.2 0.3,-6 0.3,-1.3 h 0.3 l 0.3,0.3 0.3,12.3 0.3,14.6 0.3,14.9 0.3,15.1 0.3,15.4 0.3,27.9 0.3,17.9 0.3,-1.4 0.2,-1.7 0.3,-1.2 0.3,-0.9 0.3,-1.1 0.3,-1.1 0.3,-1.5 0.3,-1.7 0.3,-1.7 0.3,-1.9 0.3,-1.9 0.3,-2.2 0.3,-2.8 0.3,-3.9 0.3,-5 0.3,-6.1 0.3,-7.1 0.3,-8.3 0.2,-9.4 0.3,-13.5 0.3,-13.1 0.3,-0.5 0.3,1.1 0.3,1.5 0.3,1.7 0.3,2.1 0.3,2.3 0.3,-0.1 0.3,23.7 0.3,37.8 0.3,9.5 0.3,8.7 0.3,5.8 0.3,2.7 0.3,-0.1 0.3,-0.3 0.2,0.1 0.3,1 0.3,-0.2 0.3,-2.8 0.3,-2 0.3,-2.1 0.3,-2.4 0.3,-3.9 0.3,-3.5 0.3,-1.3 0.3,1.2 0.3,3.6 0.3,6 0.3,3.7 0.3,1.3 0.3,2.1 0.3,3 0.3,3.7 0.2,4.6 0.3,5.3 0.3,6 0.3,6.2 0.3,6.4 0.3,5.9 0.3,5.3 0.3,4.5 0.3,4.4 0.3,4.8 0.3,5.2 0.3,5.1 0.3,4.2 0.3,3.8 0.3,3.5 0.3,3.3 0.3,3.1 0.3,2.8 0.2,2.7 0.3,2.5 0.3,2.4 0.3,2.1 0.3,0.5 0.3,-0.4 0.3,0.4 0.3,1.3 0.3,1.5 0.3,1.4 0.3,1.5 0.3,1.4 0.3,1.4 0.3,1.4 0.3,1.7 0.3,1.6 0.3,1.4 0.2,1.3 0.3,1.2 0.3,1.3 0.3,3.2 0.3,5.3 0.3,5.5 0.3,4.6 0.3,2.4 0.3,0.5 0.3,3.7 0.3,4.1 0.3,3.9 0.3,3.7 0.3,3.5 0.3,3.3 0.3,3.1 0.3,2.9 0.3,2.7 0.2,2.5 0.3,2.6 0.3,3.2 0.3,2.4 0.3,1.2 0.3,0.2 h 0.3 0.3 0.3 0.3 0.3 0.3 0.3 0.3 0.01"
         id="path24" />
    </g>
  </g>
  <g
     style="color:#000000;fill:none;stroke:currentColor;stroke-width:1;stroke-linecap:butt;stroke-linejoin:miter"
     id="g26">
    <path
       stroke="#000000"
       d="M 84,19.5 V 412.8 H 570.8 V 19.5 Z m 0,0 h 0.01"
       id="path25" />
  </g>
</svg>
