<?xml version="1.0" encoding="UTF-8" standalone="no"?>
<svg
   width="446"
   height="458"
   viewBox="0 0 445.99999 457.99999"
   version="1.1"
   id="svg32"
   sodipodi:docname="band_structure.svg"
   inkscape:version="1.3.2 (091e20e, 2023-11-25, custom)"
   xmlns:inkscape="http://www.inkscape.org/namespaces/inkscape"
   xmlns:sodipodi="http://sodipodi.sourceforge.net/DTD/sodipodi-0.dtd"
   xmlns:xlink="http://www.w3.org/1999/xlink"
   xmlns="http://www.w3.org/2000/svg"
   xmlns:svg="http://www.w3.org/2000/svg"
   xmlns:rdf="http://www.w3.org/1999/02/22-rdf-syntax-ns#"
   xmlns:cc="http://creativecommons.org/ns#"
   xmlns:dc="http://purl.org/dc/elements/1.1/">
  <defs
     id="defs32">
    <defs
       id="defs1">
      <circle
         id="gpDot"
         r="0.5"
         stroke-width="0.5"
         cx="0"
         cy="0" />
      <path
         id="gpPt0"
         stroke-width="0.167"
         stroke="currentColor"
         d="M -1,0 H 1 M 0,-1 v 2" />
      <path
         id="gpPt1"
         stroke-width="0.167"
         stroke="currentColor"
         d="M -1,-1 1,1 M 1,-1 -1,1" />
      <path
         id="gpPt2"
         stroke-width="0.167"
         stroke="currentColor"
         d="M -1,0 H 1 M 0,-1 v 2 m -1,-2 2,2 m -2,0 2,-2" />
      <rect
         id="gpPt3"
         stroke-width="0.167"
         stroke="currentColor"
         x="-1"
         y="-1"
         width="2"
         height="2" />
      <rect
         id="gpPt4"
         stroke-width="0.167"
         stroke="currentColor"
         fill="currentColor"
         x="-1"
         y="-1"
         width="2"
         height="2" />
      <circle
         id="gpPt5"
         stroke-width="0.167"
         stroke="currentColor"
         cx="0"
         cy="0"
         r="1" />
      <use
         xlink:href="#gpPt5"
         id="gpPt6"
         fill="currentColor"
         stroke="none" />
      <path
         id="gpPt7"
         stroke-width="0.167"
         stroke="currentColor"
         d="m 0,-1.33 -1.33,2 h 2.66 z" />
      <use
         xlink:href="#gpPt7"
         id="gpPt8"
         fill="currentColor"
         stroke="none" />
      <use
         xlink:href="#gpPt7"
         id="gpPt9"
         stroke="currentColor"
         transform="scale(-1)" />
      <use
         xlink:href="#gpPt9"
         id="gpPt10"
         fill="currentColor"
         stroke="none" />
      <use
         xlink:href="#gpPt3"
         id="gpPt11"
         stroke="currentColor"
         transform="rotate(45)" />
      <use
         xlink:href="#gpPt11"
         id="gpPt12"
         fill="currentColor"
         stroke="none" />
    </defs>
  </defs>
  <sodipodi:namedview
     id="namedview32"
     pagecolor="#ffffff"
     bordercolor="#000000"
     borderopacity="0.25"
     inkscape:showpageshadow="2"
     inkscape:pageopacity="0.0"
     inkscape:pagecheckerboard="0"
     inkscape:deskcolor="#d1d1d1"
     inkscape:zoom="1.4088798"
     inkscape:cx="220.38785"
     inkscape:cy="217.54872"
     inkscape:window-width="2560"
     inkscape:window-height="1369"
     inkscape:window-x="-8"
     inkscape:window-y="-8"
     inkscape:window-maximized="1"
     inkscape:current-layer="svg32" />
  <title
     id="title1">Gnuplot</title>
  <desc
     id="desc1">Produced by GNUPLOT 4.6 patchlevel 2 </desc>
  <g
     style="color:#ffffff;fill:none;stroke:currentColor;stroke-width:1;stroke-linecap:butt;stroke-linejoin:miter"
     id="g1"
     transform="translate(-687.78291,-60.980905)" />
  <path
     stroke="#000000"
     d="m 73.531217,422.83331 h 12 m 348.700003,0 h -12 0.01"
     id="path1"
     style="color:#000000;fill:none;stroke-width:1;stroke-linecap:butt;stroke-linejoin:miter" />
  <g
     transform="translate(62.331221,428.83331)"
     style="color:#000000;font-size:21.3333px;font-family:Arial;text-anchor:end;fill:#000000;stroke:none;stroke-width:1;stroke-linecap:butt;stroke-linejoin:miter"
     id="g2">
    <text
       id="text1"><tspan
         id="tspan1">-25</tspan></text>
  </g>
  <path
     stroke="#000000"
     d="m 73.531217,377.33331 h 12 m 348.700003,0 h -12 0.01"
     id="path2"
     style="color:#000000;fill:none;stroke-width:1;stroke-linecap:butt;stroke-linejoin:miter" />
  <g
     transform="translate(62.331221,383.33331)"
     style="color:#000000;font-size:21.3333px;font-family:Arial;text-anchor:end;fill:#000000;stroke:none;stroke-width:1;stroke-linecap:butt;stroke-linejoin:miter"
     id="g3">
    <text
       id="text2"><tspan
         id="tspan2">-20</tspan></text>
  </g>
  <path
     stroke="#000000"
     d="m 73.531217,331.83331 h 12 m 348.700003,0 h -12 0.01"
     id="path3"
     style="color:#000000;fill:none;stroke-width:1;stroke-linecap:butt;stroke-linejoin:miter" />
  <g
     transform="translate(62.331221,337.83331)"
     style="color:#000000;font-size:21.3333px;font-family:Arial;text-anchor:end;fill:#000000;stroke:none;stroke-width:1;stroke-linecap:butt;stroke-linejoin:miter"
     id="g4">
    <text
       id="text3"><tspan
         id="tspan3">-15</tspan></text>
  </g>
  <path
     stroke="#000000"
     d="m 73.531217,286.33331 h 12 m 348.700003,0 h -12 0.01"
     id="path4"
     style="color:#000000;fill:none;stroke-width:1;stroke-linecap:butt;stroke-linejoin:miter" />
  <g
     transform="translate(62.331221,292.33331)"
     style="color:#000000;font-size:21.3333px;font-family:Arial;text-anchor:end;fill:#000000;stroke:none;stroke-width:1;stroke-linecap:butt;stroke-linejoin:miter"
     id="g5">
    <text
       id="text4"><tspan
         id="tspan4">-10</tspan></text>
  </g>
  <path
     stroke="#000000"
     d="m 73.531217,240.83331 h 12 m 348.700003,0 h -12 0.01"
     id="path5"
     style="color:#000000;fill:none;stroke-width:1;stroke-linecap:butt;stroke-linejoin:miter" />
  <g
     transform="translate(62.331221,246.83331)"
     style="color:#000000;font-size:21.3333px;font-family:Arial;text-anchor:end;fill:#000000;stroke:none;stroke-width:1;stroke-linecap:butt;stroke-linejoin:miter"
     id="g6">
    <text
       id="text5"><tspan
         id="tspan5">-5</tspan></text>
  </g>
  <path
     stroke="#000000"
     d="m 73.531217,195.33331 h 12 m 348.700003,0 h -12 0.01"
     id="path6"
     style="color:#000000;fill:none;stroke-width:1;stroke-linecap:butt;stroke-linejoin:miter" />
  <g
     transform="translate(62.331221,201.33331)"
     style="color:#000000;font-size:21.3333px;font-family:Arial;text-anchor:end;fill:#000000;stroke:none;stroke-width:1;stroke-linecap:butt;stroke-linejoin:miter"
     id="g7">
    <text
       id="text6"><tspan
         id="tspan6">0</tspan></text>
  </g>
  <path
     stroke="#000000"
     d="m 73.531217,149.83331 h 12 m 348.700003,0 h -12 0.01"
     id="path7"
     style="color:#000000;fill:none;stroke-width:1;stroke-linecap:butt;stroke-linejoin:miter" />
  <g
     transform="translate(62.331221,155.83331)"
     style="color:#000000;font-size:21.3333px;font-family:Arial;text-anchor:end;fill:#000000;stroke:none;stroke-width:1;stroke-linecap:butt;stroke-linejoin:miter"
     id="g8">
    <text
       id="text7"><tspan
         id="tspan7">5</tspan></text>
  </g>
  <path
     stroke="#000000"
     d="m 73.531217,104.33331 h 12 m 348.700003,0 h -12 0.01"
     id="path8"
     style="color:#000000;fill:none;stroke-width:1;stroke-linecap:butt;stroke-linejoin:miter" />
  <g
     transform="translate(62.331221,110.33331)"
     style="color:#000000;font-size:21.3333px;font-family:Arial;text-anchor:end;fill:#000000;stroke:none;stroke-width:1;stroke-linecap:butt;stroke-linejoin:miter"
     id="g9">
    <text
       id="text8"><tspan
         id="tspan8">10</tspan></text>
  </g>
  <path
     stroke="#000000"
     d="m 73.531217,58.833309 h 12 m 348.700003,0 h -12 0.01"
     id="path9"
     style="color:#000000;fill:none;stroke-width:1;stroke-linecap:butt;stroke-linejoin:miter" />
  <g
     transform="translate(62.331221,64.833309)"
     style="color:#000000;font-size:21.3333px;font-family:Arial;text-anchor:end;fill:#000000;stroke:none;stroke-width:1;stroke-linecap:butt;stroke-linejoin:miter"
     id="g10">
    <text
       id="text9"><tspan
         id="tspan9">15</tspan></text>
  </g>
  <path
     stroke="#000000"
     d="m 73.531217,13.333309 h 12 m 348.700003,0 h -12 0.01"
     id="path10"
     style="color:#000000;fill:none;stroke-width:1;stroke-linecap:butt;stroke-linejoin:miter" />
  <g
     transform="translate(62.331221,19.333309)"
     style="color:#000000;font-size:21.3333px;font-family:Arial;text-anchor:end;fill:#000000;stroke:none;stroke-width:1;stroke-linecap:butt;stroke-linejoin:miter"
     id="g11">
    <text
       id="text10"><tspan
         id="tspan10">20</tspan></text>
  </g>
  <path
     stroke="#000000"
     d="m 73.531217,422.83331 v -12 m 0,-397.500001 v 12 h 0.01"
     id="path11"
     style="color:#000000;fill:none;stroke-width:1;stroke-linecap:butt;stroke-linejoin:miter" />
  <g
     transform="translate(73.531217,452.83331)"
     style="color:#000000;font-size:21.3333px;font-family:Arial;text-anchor:middle;fill:#000000;stroke:none;stroke-width:1;stroke-linecap:butt;stroke-linejoin:miter"
     id="g12">
    <text
       id="text11"><tspan
         id="tspan11">W</tspan></text>
  </g>
  <path
     stroke="#000000"
     d="m 137.53122,422.83331 v -12 m 0,-397.500001 v 12 h 0.01"
     id="path12"
     style="color:#000000;fill:none;stroke-width:1;stroke-linecap:butt;stroke-linejoin:miter" />
  <g
     transform="translate(137.53122,452.83331)"
     style="color:#000000;font-size:21.3333px;font-family:Arial;text-anchor:middle;fill:#000000;stroke:none;stroke-width:1;stroke-linecap:butt;stroke-linejoin:miter"
     id="g13">
    <text
       id="text12"><tspan
         id="tspan12">L</tspan></text>
  </g>
  <path
     stroke="#000000"
     d="m 215.83122,422.83331 v -12 m 0,-397.500001 v 12 h 0.01"
     id="path13"
     style="color:#000000;fill:none;stroke-width:1;stroke-linecap:butt;stroke-linejoin:miter" />
  <g
     transform="translate(215.83122,452.83331)"
     style="color:#000000;font-size:21.3333px;font-family:Arial;text-anchor:middle;fill:#000000;stroke:none;stroke-width:1;stroke-linecap:butt;stroke-linejoin:miter"
     id="g14">
    <text
       id="text14"><tspan
         id="tspan13" /><tspan
         style="font-family:Symbol"
         id="tspan14">G</tspan></text>
  </g>
  <path
     stroke="#000000"
     d="m 306.33122,422.83331 v -12 m 0,-397.500001 v 12 h 0.01"
     id="path14"
     style="color:#000000;fill:none;stroke-width:1;stroke-linecap:butt;stroke-linejoin:miter" />
  <g
     transform="translate(306.33122,452.83331)"
     style="color:#000000;font-size:21.3333px;font-family:Arial;text-anchor:middle;fill:#000000;stroke:none;stroke-width:1;stroke-linecap:butt;stroke-linejoin:miter"
     id="g15">
    <text
       id="text15"><tspan
         id="tspan15">X</tspan></text>
  </g>
  <path
     stroke="#000000"
     d="m 338.33122,422.83331 v -12 m 0,-397.500001 v 12 h 0.01"
     id="path15"
     style="color:#000000;fill:none;stroke-width:1;stroke-linecap:butt;stroke-linejoin:miter" />
  <g
     transform="translate(338.33122,452.83331)"
     style="color:#000000;font-size:21.3333px;font-family:Arial;text-anchor:middle;fill:#000000;stroke:none;stroke-width:1;stroke-linecap:butt;stroke-linejoin:miter"
     id="g16">
    <text
       id="text16"><tspan
         id="tspan16">U</tspan></text>
  </g>
  <path
     stroke="#000000"
     d="m 434.23122,422.83331 v -12 m 0,-397.500001 v 12 h 0.01"
     id="path16"
     style="color:#000000;fill:none;stroke-width:1;stroke-linecap:butt;stroke-linejoin:miter" />
  <g
     transform="translate(434.23122,452.83331)"
     style="color:#000000;font-size:21.3333px;font-family:Arial;text-anchor:middle;fill:#000000;stroke:none;stroke-width:1;stroke-linecap:butt;stroke-linejoin:miter"
     id="g18">
    <text
       id="text18"><tspan
         id="tspan17" /><tspan
         style="font-family:Symbol"
         id="tspan18">G</tspan></text>
  </g>
  <path
     stroke="#000000"
     d="M 73.531217,13.333309 V 422.83331 H 434.23122 V 13.333309 Z m 0,0 h 0.01"
     id="path18"
     style="color:#000000;fill:none;stroke-width:1;stroke-linecap:butt;stroke-linejoin:miter" />
  <g
     transform="rotate(-90,118.83227,99.30104)"
     style="color:#000000;font-size:21.3333px;font-family:Arial;text-anchor:middle;fill:#000000;stroke:none;stroke-width:1;stroke-linecap:butt;stroke-linejoin:miter"
     id="g19">
    <text
       id="text19"><tspan
         id="tspan19">Energy (eV)</tspan></text>
  </g>
  <path
     stroke="#000000"
     d="M 137.53122,422.83331 V 13.333309 m 78.3,409.500001 V 13.333309 m 90.5,409.500001 V 13.333309 m 32,409.500001 V 13.333309 h 0.01"
     id="path19"
     style="color:#000000;fill:none;stroke-width:1;stroke-linecap:butt;stroke-linejoin:miter" />
  <g
     id="gnuplot_plot_1"
     transform="translate(-12.068779,-9.166691)">
    <title
       id="title20">gnuplot_plot_1</title>
    <g
       style="color:#808080;fill:none;stroke:currentColor;stroke-width:1;stroke-linecap:butt;stroke-linejoin:miter"
       id="g21">
      <path
         stroke="#808080"
         stroke-dasharray="0, 2, 4"
         d="m 85.6,204.5 h 3.6 3.7 3.6 3.7 3.6 3.7 3.6 3.6 3.7 3.6 3.7 3.6 3.7 3.6 3.7 3.6 3.6 3.7 3.6 3.7 3.6 3.7 3.6 3.6 3.7 3.6 3.7 3.6 3.7 3.6 3.6 3.7 3.6 3.7 3.6 3.7 3.6 3.7 3.6 3.6 3.7 3.6 3.7 3.6 3.7 3.6 3.6 3.7 3.6 3.7 3.6 3.7 3.6 3.6 3.7 3.6 3.7 3.6 3.7 3.6 3.6 3.7 3.6 3.7 3.6 3.7 3.6 3.7 3.6 3.6 3.7 3.6 3.7 3.6 3.7 3.6 3.6 3.7 3.6 3.7 3.6 3.7 3.6 3.6 3.7 3.6 3.7 3.6 3.7 3.6 3.7 3.6 3.6 3.7 3.6 3.7 3.6 3.7 3.6 0.01"
         id="path20" />
    </g>
  </g>
  <g
     id="gnuplot_plot_2"
     transform="translate(-12.068779,-9.166691)">
    <title
       id="title21">gnuplot_plot_2</title>
    <g
       style="color:#ffffff;fill:none;stroke:#808080;stroke-width:0.5;stroke-linecap:butt;stroke-linejoin:miter"
       id="g22" />
    <g
       style="color:#ff0000;fill:none;stroke:currentColor;stroke-width:0.5;stroke-linecap:butt;stroke-linejoin:miter"
       id="g23">
      <path
         stroke="#ff0000"
         d="m 85.6,335.1 3.4,0.2 3.3,0.4 3.4,0.7 3.4,0.9 3.3,1 3.4,1.2 3.4,1.2 3.3,1.3 3.4,1.2 3.4,1.2 3.3,1.1 3.4,1 3.4,0.9 3.3,0.8 3.4,0.7 3.4,0.5 3.3,0.4 3.4,0.2 3.4,0.1 3.2,0.3 3.3,1.1 3.3,1.6 3.2,2.1 3.3,2.3 3.3,2.5 3.2,2.5 3.3,2.6 3.2,2.5 3.3,2.4 3.3,2.3 3.2,2.2 3.3,2.1 3.3,1.9 3.2,1.7 3.3,1.6 3.3,1.4 3.2,1.2 3.3,1.1 3.3,0.8 3.2,0.7 3.3,0.5 3.2,0.2 3.3,0.1 3.4,-0.1 3.3,-0.3 3.4,-0.5 3.3,-0.7 3.4,-0.9 3.3,-1.1 3.4,-1.2 3.3,-1.5 3.4,-1.7 3.3,-1.8 3.4,-2.1 3.3,-2.2 3.4,-2.3 3.3,-2.5 3.4,-2.6 3.3,-2.8 3.4,-2.9 3.3,-2.9 3.4,-3 3.3,-3 3.4,-2.9 3.3,-2.8 3.4,-2.6 3.3,-2.3 3.4,-1.7 3.3,-1.2 3.4,-0.4 h 3.5 l 3.6,-0.1 3.5,-0.2 3.6,-0.2 3.5,-0.2 3.6,-0.2 3.5,-0.1 3.6,0.1 3.6,0.2 3.3,0.1 3.3,0.6 3.3,1 3.3,1.6 3.3,1.9 3.3,2.3 3.3,2.6 3.3,2.7 3.3,2.9 3.3,2.8 3.3,2.9 3.4,2.9 3.3,2.7 3.3,2.7 3.3,2.6 3.3,2.4 3.3,2.3 3.3,2.1 3.3,2 3.3,1.8 3.3,1.6 3.3,1.5 3.3,1.2 3.4,1.1 3.3,0.9 3.3,0.7 3.3,0.5 3.3,0.2 3.3,0.1 h 0.01"
         id="path22" />
    </g>
  </g>
  <g
     id="gnuplot_plot_3"
     transform="translate(-12.068779,-9.166691)">
    <title
       id="title23">gnuplot_plot_3</title>
    <g
       style="color:#ff0000;fill:none;stroke:currentColor;stroke-width:0.5;stroke-linecap:butt;stroke-linejoin:miter"
       id="g24">
      <path
         stroke="#ff0000"
         d="m 85.6,273.2 3.4,0.4 3.3,1.3 3.4,2.2 3.4,2.5 3.3,2.5 3.4,2.4 3.4,2.4 3.3,2.1 3.4,2.1 3.4,1.8 3.3,1.7 3.4,1.5 3.4,1.2 3.3,1.1 3.4,1 3.4,0.7 3.3,0.5 3.4,0.3 3.4,0.1 3.2,-0.6 3.3,-1.5 3.3,-2.5 3.2,-3.1 3.3,-3.8 3.3,-4.3 3.2,-4.6 3.3,-4.9 3.2,-5.2 3.3,-5.3 3.3,-5.5 3.2,-5.6 3.3,-5.6 3.3,-5.6 3.2,-5.6 3.3,-5.4 3.3,-5.3 3.2,-5 3.3,-4.7 3.3,-4.1 3.2,-3.4 3.3,-2.7 3.2,-1.6 3.3,-0.6 3.4,0.3 3.3,0.8 3.4,1.4 3.3,1.9 3.4,2.3 3.3,2.6 3.4,3 3.3,3.2 3.4,3.4 3.3,3.7 3.4,3.7 3.3,3.9 3.4,4 3.3,4.1 3.4,4.2 3.3,4.2 3.4,4.2 3.3,4.2 3.4,4.1 3.3,4 3.4,3.8 3.3,3.6 3.4,3.2 3.3,2.8 3.4,2.2 3.3,1.3 3.4,0.5 3.5,-0.1 3.6,-0.3 3.5,-0.5 3.6,-0.6 3.5,-0.9 3.6,-1 3.5,-1.2 3.6,-1.3 3.6,-1.2 3.3,1 3.3,1.2 3.3,0.6 3.3,-0.1 3.3,-0.7 3.3,-1.2 3.3,-1.8 3.3,-2.3 3.3,-2.6 3.3,-2.9 3.3,-3.3 3.4,-3.4 3.3,-3.7 3.3,-3.9 3.3,-4 3.3,-4.1 3.3,-4.2 3.3,-4.3 3.3,-4.3 3.3,-4.3 3.3,-4.2 3.3,-4 3.3,-3.9 3.4,-3.6 3.3,-3.1 3.3,-2.7 3.3,-2 3.3,-1.3 3.3,-0.4 h 0.01"
         id="path23" />
    </g>
  </g>
  <g
     id="gnuplot_plot_4"
     transform="translate(-12.068779,-9.166691)">
    <title
       id="title24">gnuplot_plot_4</title>
    <g
       style="color:#ff0000;fill:none;stroke:currentColor;stroke-width:0.5;stroke-linecap:butt;stroke-linejoin:miter"
       id="g25">
      <path
         stroke="#ff0000"
         d="m 85.6,267.2 3.4,0.8 3.3,0.2 3.4,-1 3.4,-1.7 3.3,-2.4 3.4,-2.8 3.4,-3.2 3.3,-3.4 3.4,-3.6 3.4,-3.8 3.3,-3.9 3.4,-3.8 3.4,-3.7 3.3,-3.4 3.4,-3.1 3.4,-2.6 3.3,-2.1 3.4,-1.2 3.4,-0.4 3.2,-0.1 3.3,-0.2 3.3,-0.2 3.2,-0.4 3.3,-0.5 3.3,-0.6 3.2,-0.7 3.3,-0.8 3.2,-0.8 3.3,-1 3.3,-1 3.2,-1.1 3.3,-1.1 3.3,-1.2 3.2,-1.1 3.3,-1.2 3.3,-1.1 3.2,-1.1 3.3,-0.9 3.3,-0.9 3.2,-0.7 3.3,-0.5 3.2,-0.3 3.3,-0.1 3.4,0.3 3.3,0.8 3.4,1.2 3.3,1.7 3.4,2 3.3,2.2 3.4,2.5 3.3,2.5 3.4,2.6 3.3,2.6 3.4,2.6 3.3,2.6 3.4,2.4 3.3,2.4 3.4,2.2 3.3,2.1 3.4,1.9 3.3,1.8 3.4,1.6 3.3,1.5 3.4,1.2 3.3,1.1 3.4,0.9 3.3,0.7 3.4,0.5 3.3,0.3 3.4,0.1 3.5,0.5 3.6,1.7 3.5,2.5 3.6,3.1 3.5,3.5 3.6,3.7 3.5,3.7 3.6,3.3 3.6,2.8 3.3,-1.8 3.3,-2.8 3.3,-3 3.3,-3.2 3.3,-3.3 3.3,-3.4 3.3,-3.4 3.3,-3.5 3.3,-3.4 3.3,-3.4 3.3,-3.3 3.4,-3.3 3.3,-2.6 3.3,-1.8 3.3,-1.9 3.3,-2.1 3.3,-2.1 3.3,-2.2 3.3,-2.3 3.3,-2.3 3.3,-2.3 3.3,-2.3 3.3,-2.1 3.4,-2 3.3,-1.8 3.3,-1.5 3.3,-1.1 3.3,-0.7 3.3,-0.2 h 0.01"
         id="path24" />
    </g>
  </g>
  <g
     id="gnuplot_plot_5"
     transform="translate(-12.068779,-9.166691)">
    <title
       id="title25">gnuplot_plot_5</title>
    <g
       style="color:#ff0000;fill:none;stroke:currentColor;stroke-width:0.5;stroke-linecap:butt;stroke-linejoin:miter"
       id="g26">
      <path
         stroke="#ff0000"
         d="m 85.6,263.1 3.4,-1.4 3.3,-2.8 3.4,-3.1 3.4,-3.2 3.3,-3.3 3.4,-3.2 3.4,-3.1 3.3,-3.1 3.4,-2.9 3.4,-2.7 3.3,-2.5 3.4,-2.2 3.4,-2 3.3,-1.7 3.4,-1.4 3.4,-1 3.3,-0.8 3.4,-0.5 3.4,-0.1 3.2,-0.1 3.3,-0.2 3.3,-0.2 3.2,-0.4 3.3,-0.5 3.3,-0.6 3.2,-0.7 3.3,-0.8 3.2,-0.8 3.3,-1 3.3,-1 3.2,-1.1 3.3,-1.1 3.3,-1.2 3.2,-1.1 3.3,-1.2 3.3,-1.1 3.2,-1.1 3.3,-0.9 3.3,-0.9 3.2,-0.7 3.3,-0.5 3.2,-0.3 3.3,-0.1 3.4,0.3 3.3,0.8 3.4,1.2 3.3,1.7 3.4,2 3.3,2.2 3.4,2.5 3.3,2.5 3.4,2.6 3.3,2.6 3.4,2.6 3.3,2.6 3.4,2.4 3.3,2.4 3.4,2.2 3.3,2.1 3.4,1.9 3.3,1.8 3.4,1.6 3.3,1.5 3.4,1.2 3.3,1.1 3.4,0.9 3.3,0.7 3.4,0.5 3.3,0.3 3.4,0.1 3.5,-0.1 3.6,-0.3 3.5,-0.5 3.6,-0.6 3.5,-0.9 3.6,-1 3.5,-1.2 3.6,-1.4 3.6,-1.5 3.3,0.4 3.3,0.3 3.3,0.1 3.3,-0.2 3.3,-0.2 3.3,-0.5 3.3,-0.6 3.3,-0.8 3.3,-1 3.3,-1.2 3.3,-1.3 3.4,-1.5 3.3,-2.1 3.3,-3.1 3.3,-2.9 3.3,-2.7 3.3,-2.6 3.3,-2.5 3.3,-2.3 3.3,-2.1 3.3,-2 3.3,-1.8 3.3,-1.6 3.4,-1.3 3.3,-1.2 3.3,-0.9 3.3,-0.7 3.3,-0.4 3.3,-0.1 h 0.01"
         id="path25" />
    </g>
  </g>
  <g
     id="gnuplot_plot_6"
     transform="translate(-12.068779,-9.166691)">
    <title
       id="title26">gnuplot_plot_6</title>
    <g
       style="color:#ff0000;fill:none;stroke:currentColor;stroke-width:0.5;stroke-linecap:butt;stroke-linejoin:miter"
       id="g27">
      <path
         stroke="#ff0000"
         d="m 85.6,117.4 3.4,0.1 3.3,0.1 3.4,0.3 3.4,0.2 3.3,0.2 3.4,0.2 h 3.4 l 3.3,-0.1 3.4,-0.4 3.4,-0.6 3.3,-0.8 3.4,-1.1 3.4,-1.2 3.3,-1.4 3.4,-1.1 3.4,0.3 3.3,0.9 3.4,0.9 3.4,0.3 h 3.2 l 3.3,0.1 3.3,0.2 3.2,0.2 3.3,0.2 3.3,0.4 3.2,0.4 3.3,0.5 3.2,0.5 3.3,0.4 3.3,0.6 3.2,0.7 3.3,0.6 3.3,0.6 3.2,0.7 3.3,0.7 3.3,0.6 3.2,0.7 3.3,0.6 3.3,0.7 3.2,0.6 3.3,0.6 3.2,0.4 3.3,0.1 3.4,0.2 3.3,0.6 3.4,0.8 3.3,1 3.4,1.2 3.3,1.3 3.4,1.4 3.3,1.5 3.4,1.6 3.3,1.8 3.4,1.8 3.3,2 3.4,2 3.3,2.1 3.4,2.2 3.3,2.1 3.4,2.2 3.3,2.2 3.4,2 3.3,2 3.4,1.7 3.3,1.6 3.4,1.3 3.3,1.1 3.4,0.7 3.3,0.5 3.4,0.1 3.5,-0.5 3.6,-1.5 3.5,-2.3 3.6,-2.8 3.5,-3 3.6,-3.1 3.5,-3.1 3.6,-3 3.6,-2.8 3.3,0.7 3.3,0.6 3.3,0.3 3.3,0.1 3.3,-0.1 3.3,-0.3 3.3,-0.5 3.3,-0.6 3.3,-0.8 3.3,-0.9 3.3,-1 3.4,-1.1 3.3,-1 3.3,-1.1 3.3,-1 3.3,-1 3.3,-0.9 3.3,-0.9 3.3,-0.9 3.3,-0.9 3.3,-0.8 3.3,-0.8 3.3,-0.8 3.4,-0.8 3.3,-0.7 3.3,-0.6 3.3,-0.6 3.3,-0.3 3.3,-0.2 h 0.01"
         id="path26" />
    </g>
  </g>
  <g
     id="gnuplot_plot_7"
     transform="translate(-12.068779,-9.166691)">
    <title
       id="title27">gnuplot_plot_7</title>
    <g
       style="color:#ff0000;fill:none;stroke:currentColor;stroke-width:0.5;stroke-linecap:butt;stroke-linejoin:miter"
       id="g28">
      <path
         stroke="#ff0000"
         d="m 85.6,85.3 3.4,1 3.3,2.1 3.4,2.5 3.4,2.5 3.3,2.3 3.4,2.3 3.4,2 3.3,1.9 3.4,1.7 3.4,1.5 3.3,1.4 3.4,1.2 3.4,1.2 3.3,1 3.4,0.7 3.4,-0.6 3.3,-1 3.4,-0.7 3.4,-0.3 h 3.2 3.3 3.3 3.2 3.3 l 3.3,0.1 3.2,0.2 3.3,0.3 3.2,0.5 3.3,0.6 3.3,0.8 3.2,1 3.3,1.2 3.3,1.4 3.2,1.4 3.3,1.6 3.3,1.5 3.2,1.6 3.3,1.4 3.3,1.2 3.2,1.1 3.3,0.8 3.2,0.5 3.3,0.1 3.4,-0.3 3.3,-1.1 3.4,-1.7 3.3,-2.2 3.4,-2.8 3.3,-3.1 3.4,-3.5 3.3,-3.8 3.4,-4 3.3,-4.1 3.4,-1.6 3.3,0.8 3.4,1.7 3.3,2.1 3.4,2.6 3.3,2.6 3.4,2.5 3.3,2.3 3.4,2.1 3.3,1.8 3.4,1.6 3.3,1.3 3.4,1.1 3.3,0.8 3.4,0.6 3.3,0.3 3.4,0.1 3.5,-0.4 3.6,-1.2 3.5,-2.1 3.6,-2.9 3.5,-3.9 3.6,-4.7 3.5,-5.5 3.6,-5.9 3.6,-6.2 3.3,1.9 3.3,1.7 3.3,1.6 3.3,1.4 3.3,1.2 3.3,1 3.3,0.6 3.3,0.4 3.3,0.1 3.3,-0.2 3.3,-0.6 3.4,-0.7 3.3,-0.9 3.3,-0.8 h 3.3 l 3.3,1.4 3.3,2.6 3.3,2.8 3.3,3 3.3,2.9 3.3,2.9 3.3,2.7 3.3,2.6 3.4,2.4 3.3,2.2 3.3,1.9 3.3,1.4 3.3,0.9 3.3,0.3 h 0.01"
         id="path27" />
    </g>
  </g>
  <g
     id="gnuplot_plot_8"
     transform="translate(-12.068779,-9.166691)">
    <title
       id="title28">gnuplot_plot_8</title>
    <g
       style="color:#ff0000;fill:none;stroke:currentColor;stroke-width:0.5;stroke-linecap:butt;stroke-linejoin:miter"
       id="g29">
      <path
         stroke="#ff0000"
         d="M 85.6,73.7 89,73 l 3.3,-0.3 3.4,-0.6 3.4,-0.6 3.3,-0.6 3.4,-0.5 3.4,-0.2 3.3,0.8 3.4,2.5 3.4,4.1 3.3,5 3.4,5.2 3.4,5 3.3,4.7 3.4,4 3.4,3.1 3.3,2 3.4,1.1 3.4,0.3 h 3.2 3.3 3.3 3.2 3.3 l 3.3,0.1 3.2,0.2 3.3,0.3 3.2,0.5 3.3,0.6 3.3,0.8 3.2,1 3.3,1.2 3.3,1.4 3.2,1.4 3.3,1.6 3.3,1.5 3.2,1.6 3.3,1.4 3.3,1.2 3.2,1.1 3.3,0.8 3.2,0.5 3.3,0.1 3.4,-0.3 3.3,-1.1 3.4,-1.7 3.3,-2.2 3.4,-2.8 3.3,-3.1 3.4,-3.5 3.3,-3.8 3.4,-4 3.3,-4.1 3.4,-4.2 3.3,-4.4 3.4,-4.3 3.3,-4.4 3.4,-4.3 3.3,-4.3 3.4,-4.2 3.3,-4 3.4,-3.9 3.3,-3.7 3.4,-3.3 3.3,-3 3.4,-2.6 3.3,-2.1 3.4,-1.6 3.3,-1 3.4,-0.3 3.5,0.3 3.6,0.9 3.5,1.3 3.6,1.8 3.5,2.3 3.6,2.7 3.5,3 3.6,3.2 3.6,3.5 3.3,-0.8 3.3,-0.3 3.3,0.3 3.3,0.8 3.3,1.2 3.3,1.5 3.3,2.4 3.3,2.8 3.3,2.9 3.3,3 3.3,3 3.4,3.1 3.3,3 3.3,2.8 3.3,2.3 3.3,1.8 3.3,3.4 3.3,3.5 3.3,3.4 3.3,3.5 3.3,3.4 3.3,3.2 3.3,3.1 3.4,2.7 3.3,2.5 3.3,2 3.3,1.5 3.3,0.9 3.3,0.3 h 0.01"
         id="path28" />
    </g>
  </g>
  <g
     id="gnuplot_plot_9"
     transform="translate(-12.068779,-9.166691)">
    <title
       id="title29">gnuplot_plot_9</title>
    <g
       style="color:#ff0000;fill:none;stroke:currentColor;stroke-width:0.5;stroke-linecap:butt;stroke-linejoin:miter"
       id="g30">
      <path
         stroke="#ff0000"
         d="m 85.6,73.1 3.4,-0.6 3.3,-2.7 3.4,-3.5 3.4,-3.6 3.3,-3.3 3.4,-2 3.4,0.6 3.3,2.2 3.4,1.7 3.4,0.8 3.3,0.3 3.4,0.2 3.4,0.3 3.3,0.5 3.4,0.6 3.4,0.6 3.3,0.6 3.4,0.5 3.4,0.1 3.2,0.1 3.3,0.3 3.3,0.6 3.2,0.7 3.3,0.9 3.3,1.2 3.2,1.4 3.3,1.7 3.2,1.9 3.3,2.1 3.3,2.4 3.2,2.6 3.3,2.9 3.3,3.1 3.2,3.2 3.3,3.3 3.3,3.4 3.2,3.2 3.3,3.1 3.3,2.8 3.2,2.2 3.3,1.7 3.2,1 3.3,0.4 3.4,-0.4 3.3,-1 3.4,-1.5 3.3,-1.9 3.4,-2.2 3.3,-2.2 3.4,-2.2 3.3,-1.9 3.4,-1.4 3.3,-0.8 3.4,-2.6 3.3,-4.4 3.4,-4.3 3.3,-4.4 3.4,-4.3 3.3,-4.3 3.4,-4.2 3.3,-4 3.4,-3.9 3.3,-3.7 3.4,-3.3 3.3,-3 3.4,-2.6 3.3,-2.1 3.4,-1.6 3.3,-1 3.4,-0.3 3.5,0.2 3.6,0.6 3.5,0.9 3.6,1.1 3.5,1.5 3.6,1.6 3.5,1.8 3.6,1.9 3.6,2 h 3.3 l 3.3,1.1 3.3,1.7 3.3,2.1 3.3,2.4 3.3,2.5 3.3,2.2 3.3,2.1 3.3,2.3 3.3,2.5 3.3,2.7 3.4,2.9 3.3,3 3.3,3.1 3.3,3.3 3.3,2.5 3.3,0.4 3.3,0.7 3.3,1.3 3.3,1.8 3.3,2.2 3.3,2.6 3.3,2.6 3.4,2.6 3.3,2.3 3.3,2.1 3.3,1.5 3.3,1 3.3,0.4 h 0.01"
         id="path29" />
    </g>
  </g>
  <g
     style="color:#ffffff;fill:none;stroke:#ff0000;stroke-width:1;stroke-linecap:butt;stroke-linejoin:miter"
     id="g31"
     transform="translate(-687.78291,-60.980905)" />
  <g
     style="color:#000000;fill:none;stroke:currentColor;stroke-width:1;stroke-linecap:butt;stroke-linejoin:miter"
     id="g32"
     transform="translate(-12.068779,-9.166691)">
    <path
       stroke="#000000"
       d="M 85.6,22.5 V 432 H 446.3 V 22.5 Z m 0,0 h 0.01"
       id="path31" />
  </g>
  <metadata
     id="metadata32">
    <rdf:RDF>
      <cc:Work
         rdf:about="">
        <dc:title>Gnuplot</dc:title>
      </cc:Work>
    </rdf:RDF>
  </metadata>
</svg>
