<?xml version="1.0" encoding="UTF-8" standalone="no"?>
<svg
   width="500.70346"
   height="468.9574"
   viewBox="0 0 500.70346 468.9574"
   version="1.1"
   id="svg287"
   sodipodi:docname="polarization.svg"
   inkscape:version="1.1.2 (b8e25be833, 2022-02-05)"
   xmlns:inkscape="http://www.inkscape.org/namespaces/inkscape"
   xmlns:sodipodi="http://sodipodi.sourceforge.net/DTD/sodipodi-0.dtd"
   xmlns:xlink="http://www.w3.org/1999/xlink"
   xmlns="http://www.w3.org/2000/svg"
   xmlns:svg="http://www.w3.org/2000/svg"
   xmlns:rdf="http://www.w3.org/1999/02/22-rdf-syntax-ns#"
   xmlns:cc="http://creativecommons.org/ns#"
   xmlns:dc="http://purl.org/dc/elements/1.1/">
  <defs
     id="defs291">
    <defs
       id="defs34">
      <circle
         id="gpDot"
         r="0.5"
         stroke-width="0.5"
         stroke="currentColor"
         cx="0"
         cy="0" />
      <path
         id="gpPt0"
         stroke-width="0.148"
         stroke="currentColor"
         d="M -1,0 H 1 M 0,-1 v 2" />
      <path
         id="gpPt1"
         stroke-width="0.148"
         stroke="currentColor"
         d="M -1,-1 1,1 M 1,-1 -1,1" />
      <path
         id="gpPt2"
         stroke-width="0.148"
         stroke="currentColor"
         d="M -1,0 H 1 M 0,-1 v 2 m -1,-2 2,2 m -2,0 2,-2" />
      <rect
         id="gpPt3"
         stroke-width="0.148"
         stroke="currentColor"
         x="-1"
         y="-1"
         width="2"
         height="2" />
      <rect
         id="gpPt4"
         stroke-width="0.148"
         stroke="currentColor"
         fill="currentColor"
         x="-1"
         y="-1"
         width="2"
         height="2" />
      <circle
         id="gpPt5"
         stroke-width="0.148"
         stroke="currentColor"
         cx="0"
         cy="0"
         r="1" />
      <use
         xlink:href="#gpPt5"
         id="gpPt6"
         fill="currentColor"
         stroke="none"
         x="0"
         y="0"
         width="100%"
         height="100%" />
      <path
         id="gpPt7"
         stroke-width="0.148"
         stroke="currentColor"
         d="m 0,-1.33 -1.33,2 h 2.66 z" />
      <use
         xlink:href="#gpPt7"
         id="gpPt8"
         fill="currentColor"
         stroke="none"
         x="0"
         y="0"
         width="100%"
         height="100%" />
      <use
         xlink:href="#gpPt7"
         id="gpPt9"
         stroke="currentColor"
         transform="scale(-1)"
         x="0"
         y="0"
         width="100%"
         height="100%" />
      <use
         xlink:href="#gpPt9"
         id="gpPt10"
         fill="currentColor"
         stroke="none"
         x="0"
         y="0"
         width="100%"
         height="100%" />
      <use
         xlink:href="#gpPt3"
         id="gpPt11"
         stroke="currentColor"
         transform="rotate(45)"
         x="0"
         y="0"
         width="100%"
         height="100%" />
      <use
         xlink:href="#gpPt11"
         id="gpPt12"
         fill="currentColor"
         stroke="none"
         x="0"
         y="0"
         width="100%"
         height="100%" />
      <path
         id="gpPt13"
         stroke-width="0.148"
         stroke="currentColor"
         d="M 0,1.33 1.265,0.411 0.782,-1.067 -0.782,-1.076 -1.265,0.411 Z" />
      <use
         xlink:href="#gpPt13"
         id="gpPt14"
         fill="currentColor"
         stroke="none"
         x="0"
         y="0"
         width="100%"
         height="100%" />
      <filter
         id="textbox"
         filterUnits="objectBoundingBox"
         x="0"
         y="0"
         height="1"
         width="1">
        <feFlood
           flood-color="white"
           flood-opacity="1"
           result="bgnd"
           id="feFlood24" />
        <feComposite
           in="SourceGraphic"
           in2="bgnd"
           operator="atop"
           id="feComposite26" />
      </filter>
      <filter
         id="greybox"
         filterUnits="objectBoundingBox"
         x="0"
         y="0"
         height="1"
         width="1">
        <feFlood
           flood-color="lightgrey"
           flood-opacity="1"
           result="grey"
           id="feFlood29" />
        <feComposite
           in="SourceGraphic"
           in2="grey"
           operator="atop"
           id="feComposite31" />
      </filter>
    </defs>
  </defs>
  <sodipodi:namedview
     id="namedview289"
     pagecolor="#ffffff"
     bordercolor="#666666"
     borderopacity="1.0"
     inkscape:pageshadow="2"
     inkscape:pageopacity="0.0"
     inkscape:pagecheckerboard="0"
     showgrid="false"
     fit-margin-left="8"
     fit-margin-top="8"
     fit-margin-bottom="8"
     fit-margin-right="8"
     inkscape:zoom="1.2875855"
     inkscape:cx="285.80626"
     inkscape:cy="232.21758"
     inkscape:window-width="1858"
     inkscape:window-height="1057"
     inkscape:window-x="-8"
     inkscape:window-y="-8"
     inkscape:window-maximized="1"
     inkscape:current-layer="svg287" />
  <title
     id="title2">Gnuplot</title>
  <desc
     id="desc4">Produced by GNUPLOT 5.4 patchlevel 3 </desc>
  <g
     fill="none"
     color="#ffffff"
     stroke="#000000"
     stroke-width="1"
     stroke-linecap="butt"
     stroke-linejoin="miter"
     id="g36"
     transform="translate(-624.58506,-159.48551)" />
  <g
     fill="none"
     color="#000000"
     stroke="currentColor"
     stroke-width="1"
     stroke-linecap="butt"
     stroke-linejoin="miter"
     id="g46"
     transform="translate(-21.13,-11.9225)">
    <path
       stroke="#000000"
       d="m 134.1,409.8 h 13.5 m 342.59,0 h -13.5"
       id="path38" />
    <g
       transform="translate(126.54,415.65)"
       stroke="none"
       fill="#000000"
       font-family="Arial"
       font-size="18px"
       text-anchor="end"
       id="g44">
      <text
         id="text42"><tspan
           font-family="Arial"
           id="tspan40">-1.635</tspan></text>
    </g>
  </g>
  <g
     fill="none"
     color="#000000"
     stroke="currentColor"
     stroke-width="1"
     stroke-linecap="butt"
     stroke-linejoin="miter"
     id="g56"
     transform="translate(-21.13,-11.9225)">
    <path
       stroke="#000000"
       d="m 134.1,355.12 h 13.5 m 342.59,0 h -13.5"
       id="path48" />
    <g
       transform="translate(126.54,360.97)"
       stroke="none"
       fill="#000000"
       font-family="Arial"
       font-size="18px"
       text-anchor="end"
       id="g54">
      <text
         id="text52"><tspan
           font-family="Arial"
           id="tspan50">-1.63</tspan></text>
    </g>
  </g>
  <g
     fill="none"
     color="#000000"
     stroke="currentColor"
     stroke-width="1"
     stroke-linecap="butt"
     stroke-linejoin="miter"
     id="g66"
     transform="translate(-21.13,-11.9225)">
    <path
       stroke="#000000"
       d="m 134.1,300.43 h 13.5 m 342.59,0 h -13.5"
       id="path58" />
    <g
       transform="translate(126.54,306.28)"
       stroke="none"
       fill="#000000"
       font-family="Arial"
       font-size="18px"
       text-anchor="end"
       id="g64">
      <text
         id="text62"><tspan
           font-family="Arial"
           id="tspan60">-1.625</tspan></text>
    </g>
  </g>
  <g
     fill="none"
     color="#000000"
     stroke="currentColor"
     stroke-width="1"
     stroke-linecap="butt"
     stroke-linejoin="miter"
     id="g76"
     transform="translate(-21.13,-11.9225)">
    <path
       stroke="#000000"
       d="m 134.1,245.75 h 13.5 m 342.59,0 h -13.5"
       id="path68" />
    <g
       transform="translate(126.54,251.6)"
       stroke="none"
       fill="#000000"
       font-family="Arial"
       font-size="18px"
       text-anchor="end"
       id="g74">
      <text
         id="text72"><tspan
           font-family="Arial"
           id="tspan70">-1.62</tspan></text>
    </g>
  </g>
  <g
     fill="none"
     color="#000000"
     stroke="currentColor"
     stroke-width="1"
     stroke-linecap="butt"
     stroke-linejoin="miter"
     id="g86"
     transform="translate(-21.13,-11.9225)">
    <path
       stroke="#000000"
       d="m 134.1,191.06 h 13.5 m 342.59,0 h -13.5"
       id="path78" />
    <g
       transform="translate(126.54,196.91)"
       stroke="none"
       fill="#000000"
       font-family="Arial"
       font-size="18px"
       text-anchor="end"
       id="g84">
      <text
         id="text82"><tspan
           font-family="Arial"
           id="tspan80">-1.615</tspan></text>
    </g>
  </g>
  <g
     fill="none"
     color="#000000"
     stroke="currentColor"
     stroke-width="1"
     stroke-linecap="butt"
     stroke-linejoin="miter"
     id="g96"
     transform="translate(-21.13,-11.9225)">
    <path
       stroke="#000000"
       d="m 134.1,136.38 h 13.5 m 342.59,0 h -13.5"
       id="path88" />
    <g
       transform="translate(126.54,142.23)"
       stroke="none"
       fill="#000000"
       font-family="Arial"
       font-size="18px"
       text-anchor="end"
       id="g94">
      <text
         id="text92"><tspan
           font-family="Arial"
           id="tspan90">-1.61</tspan></text>
    </g>
  </g>
  <g
     fill="none"
     color="#000000"
     stroke="currentColor"
     stroke-width="1"
     stroke-linecap="butt"
     stroke-linejoin="miter"
     id="g106"
     transform="translate(-21.13,-11.9225)">
    <path
       stroke="#000000"
       d="m 134.1,81.69 h 13.5 m 342.59,0 h -13.5"
       id="path98" />
    <g
       transform="translate(126.54,87.54)"
       stroke="none"
       fill="#000000"
       font-family="Arial"
       font-size="18px"
       text-anchor="end"
       id="g104">
      <text
         id="text102"><tspan
           font-family="Arial"
           id="tspan100">-1.605</tspan></text>
    </g>
  </g>
  <g
     fill="none"
     color="#000000"
     stroke="currentColor"
     stroke-width="1"
     stroke-linecap="butt"
     stroke-linejoin="miter"
     id="g116"
     transform="translate(-21.13,-11.9225)">
    <path
       stroke="#000000"
       d="m 134.1,27.01 h 13.5 m 342.59,0 h -13.5"
       id="path108" />
    <g
       transform="translate(126.54,32.86)"
       stroke="none"
       fill="#000000"
       font-family="Arial"
       font-size="18px"
       text-anchor="end"
       id="g114">
      <text
         id="text112"><tspan
           font-family="Arial"
           id="tspan110">-1.6</tspan></text>
    </g>
  </g>
  <g
     fill="none"
     color="#000000"
     stroke="currentColor"
     stroke-width="1"
     stroke-linecap="butt"
     stroke-linejoin="miter"
     id="g130"
     transform="translate(-21.13,-11.9225)">
    <path
       stroke="#000000"
       d="m 134.1,409.8 v -13.5 m 0,-369.29 v 13.5"
       id="path118" />
    <g
       transform="translate(134.1,434.55)"
       stroke="none"
       fill="#000000"
       font-family="Arial"
       font-size="18px"
       text-anchor="middle"
       id="g128">
      <text
         id="text126"><tspan
           font-family="Arial"
           id="tspan120">-3×10</tspan><tspan
           font-family="Arial"
           font-size="14.4px"
           dy="-9"
           id="tspan122">8</tspan><tspan
           font-size="18px"
           dy="9"
           id="tspan124" /></text>
    </g>
  </g>
  <g
     fill="none"
     color="#000000"
     stroke="currentColor"
     stroke-width="1"
     stroke-linecap="butt"
     stroke-linejoin="miter"
     id="g144"
     transform="translate(-21.13,-11.9225)">
    <path
       stroke="#000000"
       d="m 193.45,409.8 v -13.5 m 0,-369.29 v 13.5"
       id="path132" />
    <g
       transform="translate(193.45,434.55)"
       stroke="none"
       fill="#000000"
       font-family="Arial"
       font-size="18px"
       text-anchor="middle"
       id="g142">
      <text
         id="text140"><tspan
           font-family="Arial"
           id="tspan134">-2×10</tspan><tspan
           font-family="Arial"
           font-size="14.4px"
           dy="-9"
           id="tspan136">8</tspan><tspan
           font-size="18px"
           dy="9"
           id="tspan138" /></text>
    </g>
  </g>
  <g
     fill="none"
     color="#000000"
     stroke="currentColor"
     stroke-width="1"
     stroke-linecap="butt"
     stroke-linejoin="miter"
     id="g158"
     transform="translate(-21.13,-11.9225)">
    <path
       stroke="#000000"
       d="m 252.8,409.8 v -13.5 m 0,-369.29 v 13.5"
       id="path146" />
    <g
       transform="translate(252.8,434.55)"
       stroke="none"
       fill="#000000"
       font-family="Arial"
       font-size="18px"
       text-anchor="middle"
       id="g156">
      <text
         id="text154"><tspan
           font-family="Arial"
           id="tspan148">-1×10</tspan><tspan
           font-family="Arial"
           font-size="14.4px"
           dy="-9"
           id="tspan150">8</tspan><tspan
           font-size="18px"
           dy="9"
           id="tspan152" /></text>
    </g>
  </g>
  <g
     fill="none"
     color="#000000"
     stroke="currentColor"
     stroke-width="1"
     stroke-linecap="butt"
     stroke-linejoin="miter"
     id="g168"
     transform="translate(-21.13,-11.9225)">
    <path
       stroke="#000000"
       d="m 312.15,409.8 v -13.5 m 0,-369.29 v 13.5"
       id="path160" />
    <g
       transform="translate(312.15,434.55)"
       stroke="none"
       fill="#000000"
       font-family="Arial"
       font-size="18px"
       text-anchor="middle"
       id="g166">
      <text
         id="text164"><tspan
           font-family="Arial"
           id="tspan162">0</tspan></text>
    </g>
  </g>
  <g
     fill="none"
     color="#000000"
     stroke="currentColor"
     stroke-width="1"
     stroke-linecap="butt"
     stroke-linejoin="miter"
     id="g182"
     transform="translate(-21.13,-11.9225)">
    <path
       stroke="#000000"
       d="m 371.49,409.8 v -13.5 m 0,-369.29 v 13.5"
       id="path170" />
    <g
       transform="translate(371.49,434.55)"
       stroke="none"
       fill="#000000"
       font-family="Arial"
       font-size="18px"
       text-anchor="middle"
       id="g180">
      <text
         id="text178"><tspan
           font-family="Arial"
           id="tspan172">1×10</tspan><tspan
           font-family="Arial"
           font-size="14.4px"
           dy="-9"
           id="tspan174">8</tspan><tspan
           font-size="18px"
           dy="9"
           id="tspan176" /></text>
    </g>
  </g>
  <g
     fill="none"
     color="#000000"
     stroke="currentColor"
     stroke-width="1"
     stroke-linecap="butt"
     stroke-linejoin="miter"
     id="g196"
     transform="translate(-21.13,-11.9225)">
    <path
       stroke="#000000"
       d="m 430.84,409.8 v -13.5 m 0,-369.29 v 13.5"
       id="path184" />
    <g
       transform="translate(430.84,434.55)"
       stroke="none"
       fill="#000000"
       font-family="Arial"
       font-size="18px"
       text-anchor="middle"
       id="g194">
      <text
         id="text192"><tspan
           font-family="Arial"
           id="tspan186">2×10</tspan><tspan
           font-family="Arial"
           font-size="14.4px"
           dy="-9"
           id="tspan188">8</tspan><tspan
           font-size="18px"
           dy="9"
           id="tspan190" /></text>
    </g>
  </g>
  <g
     fill="none"
     color="#000000"
     stroke="currentColor"
     stroke-width="1"
     stroke-linecap="butt"
     stroke-linejoin="miter"
     id="g210"
     transform="translate(-21.13,-11.9225)">
    <path
       stroke="#000000"
       d="m 490.19,409.8 v -13.5 m 0,-369.29 v 13.5"
       id="path198" />
    <g
       transform="translate(490.19,434.55)"
       stroke="none"
       fill="#000000"
       font-family="Arial"
       font-size="18px"
       text-anchor="middle"
       id="g208">
      <text
         id="text206"><tspan
           font-family="Arial"
           id="tspan200">3×10</tspan><tspan
           font-family="Arial"
           font-size="14.4px"
           dy="-9"
           id="tspan202">8</tspan><tspan
           font-size="18px"
           dy="9"
           id="tspan204" /></text>
    </g>
  </g>
  <g
     fill="none"
     color="#000000"
     stroke="currentColor"
     stroke-width="1"
     stroke-linecap="butt"
     stroke-linejoin="miter"
     id="g212"
     transform="translate(-624.58506,-159.48551)" />
  <g
     fill="none"
     color="#000000"
     stroke="currentColor"
     stroke-width="1"
     stroke-linecap="butt"
     stroke-linejoin="miter"
     id="g216"
     transform="translate(-21.13,-11.9225)">
    <path
       stroke="#000000"
       d="M 134.1,27.01 V 409.8 H 490.19 V 27.01 Z"
       id="path214" />
  </g>
  <g
     fill="none"
     color="#000000"
     stroke="currentColor"
     stroke-width="1"
     stroke-linecap="butt"
     stroke-linejoin="miter"
     id="g228"
     transform="translate(-21.13,-11.9225)">
    <g
       transform="rotate(-90,135.595,82.815)"
       stroke="none"
       fill="#000000"
       font-family="Arial"
       font-size="22px"
       text-anchor="middle"
       id="g226">
      <text
         id="text224"><tspan
           font-family="Arial"
           id="tspan218">Polarization (C/m</tspan><tspan
           font-family="Arial"
           font-size="17.6px"
           dy="-11"
           id="tspan220">2</tspan><tspan
           font-family="Arial"
           font-size="22px"
           dy="11"
           id="tspan222">)</tspan></text>
    </g>
  </g>
  <g
     fill="none"
     color="#000000"
     stroke="currentColor"
     stroke-width="1"
     stroke-linecap="butt"
     stroke-linejoin="miter"
     id="g236"
     transform="translate(-21.13,-11.9225)">
    <g
       transform="translate(312.14,468.25)"
       stroke="none"
       fill="#000000"
       font-family="Arial"
       font-size="22px"
       text-anchor="middle"
       id="g234">
      <text
         id="text232"><tspan
           font-family="Arial"
           id="tspan230">Electric field (V/m)</tspan></text>
    </g>
  </g>
  <g
     fill="none"
     color="#000000"
     stroke="currentColor"
     stroke-width="1"
     stroke-linecap="butt"
     stroke-linejoin="miter"
     id="g238"
     transform="translate(-624.58506,-159.48551)" />
  <g
     id="gnuplot_plot_1"
     transform="translate(-21.13,-11.9225)">
    <title
       id="title240">'results.txt' u 1:3</title>
    <g
       fill="none"
       color="#000000"
       stroke="currentColor"
       stroke-width="1"
       stroke-linecap="butt"
       stroke-linejoin="miter"
       id="g264">
      <use
         xlink:href="#gpPt6"
         transform="matrix(6.75,0,0,6.75,312.15,219.85)"
         color="#9400d3"
         id="use242"
         x="0"
         y="0"
         width="100%"
         height="100%" />
      <use
         xlink:href="#gpPt6"
         transform="matrix(6.75,0,0,6.75,342.66,187.88)"
         color="#9400d3"
         id="use244"
         x="0"
         y="0"
         width="100%"
         height="100%" />
      <use
         xlink:href="#gpPt6"
         transform="matrix(6.75,0,0,6.75,373.18,155.86)"
         color="#9400d3"
         id="use246"
         x="0"
         y="0"
         width="100%"
         height="100%" />
      <use
         xlink:href="#gpPt6"
         transform="matrix(6.75,0,0,6.75,403.7,123.79)"
         color="#9400d3"
         id="use248"
         x="0"
         y="0"
         width="100%"
         height="100%" />
      <use
         xlink:href="#gpPt6"
         transform="matrix(6.75,0,0,6.75,434.22,91.67)"
         color="#9400d3"
         id="use250"
         x="0"
         y="0"
         width="100%"
         height="100%" />
      <use
         xlink:href="#gpPt6"
         transform="matrix(6.75,0,0,6.75,464.74,59.49)"
         color="#9400d3"
         id="use252"
         x="0"
         y="0"
         width="100%"
         height="100%" />
      <use
         xlink:href="#gpPt6"
         transform="matrix(6.75,0,0,6.75,281.63,251.79)"
         color="#9400d3"
         id="use254"
         x="0"
         y="0"
         width="100%"
         height="100%" />
      <use
         xlink:href="#gpPt6"
         transform="matrix(6.75,0,0,6.75,251.11,283.7)"
         color="#9400d3"
         id="use256"
         x="0"
         y="0"
         width="100%"
         height="100%" />
      <use
         xlink:href="#gpPt6"
         transform="matrix(6.75,0,0,6.75,220.59,315.57)"
         color="#9400d3"
         id="use258"
         x="0"
         y="0"
         width="100%"
         height="100%" />
      <use
         xlink:href="#gpPt6"
         transform="matrix(6.75,0,0,6.75,190.07,347.42)"
         color="#9400d3"
         id="use260"
         x="0"
         y="0"
         width="100%"
         height="100%" />
      <use
         xlink:href="#gpPt6"
         transform="matrix(6.75,0,0,6.75,159.55,379.26)"
         color="#9400d3"
         id="use262"
         x="0"
         y="0"
         width="100%"
         height="100%" />
    </g>
  </g>
  <g
     id="gnuplot_plot_2"
     transform="translate(-21.13,-11.9225)">
    <title
       id="title267">f(x)</title>
    <g
       fill="none"
       color="#000000"
       stroke="currentColor"
       stroke-width="1"
       stroke-linecap="butt"
       stroke-linejoin="miter"
       id="g271">
      <path
         stroke="#009e73"
         d="m 134.1,406.18 3.6,-3.77 3.59,-3.76 3.6,-3.77 3.6,-3.77 3.59,-3.77 3.6,-3.77 3.6,-3.76 3.59,-3.77 3.6,-3.77 3.6,-3.77 3.6,-3.77 3.59,-3.77 3.6,-3.76 3.6,-3.77 3.59,-3.77 3.6,-3.77 3.6,-3.77 3.59,-3.76 3.6,-3.77 3.6,-3.77 3.59,-3.77 3.6,-3.77 3.6,-3.76 3.59,-3.77 3.6,-3.77 3.6,-3.77 3.6,-3.77 3.59,-3.76 3.6,-3.77 3.6,-3.77 3.59,-3.77 3.6,-3.77 3.6,-3.77 3.59,-3.76 3.6,-3.77 3.6,-3.77 3.59,-3.77 3.6,-3.77 3.6,-3.76 3.59,-3.77 3.6,-3.77 3.6,-3.77 3.6,-3.77 3.59,-3.76 3.6,-3.77 3.6,-3.77 3.59,-3.77 3.6,-3.77 3.6,-3.76 3.59,-3.77 3.6,-3.77 3.6,-3.77 3.59,-3.77 3.6,-3.76 3.6,-3.77 3.59,-3.77 3.6,-3.77 3.6,-3.77 3.6,-3.77 3.59,-3.76 3.6,-3.77 3.6,-3.77 3.59,-3.77 3.6,-3.77 3.6,-3.76 3.59,-3.77 3.6,-3.77 3.6,-3.77 3.59,-3.77 3.6,-3.76 3.6,-3.77 3.59,-3.77 3.6,-3.77 3.6,-3.77 3.6,-3.76 3.59,-3.77 3.6,-3.77 3.6,-3.77 3.59,-3.77 3.6,-3.77 3.6,-3.76 3.59,-3.77 3.6,-3.77 3.6,-3.77 3.59,-3.77 3.6,-3.76 3.6,-3.77 3.59,-3.77 3.6,-3.77 3.6,-3.77 3.6,-3.76 3.59,-3.77 3.6,-3.77 3.6,-3.77 3.59,-3.77 3.6,-3.76 3.6,-3.77 3.59,-3.77 3.6,-3.77"
         id="path269" />
    </g>
  </g>
  <g
     fill="none"
     color="#ffffff"
     stroke="#009e73"
     stroke-width="2"
     stroke-linecap="butt"
     stroke-linejoin="miter"
     id="g274"
     transform="translate(-624.58506,-159.48551)" />
  <g
     fill="none"
     color="#000000"
     stroke="currentColor"
     stroke-width="2"
     stroke-linecap="butt"
     stroke-linejoin="miter"
     id="g276"
     transform="translate(-624.58506,-159.48551)" />
  <g
     fill="none"
     color="#000000"
     stroke="#000000"
     stroke-width="1"
     stroke-linecap="butt"
     stroke-linejoin="miter"
     id="g278"
     transform="translate(-624.58506,-159.48551)" />
  <g
     fill="none"
     color="#000000"
     stroke="currentColor"
     stroke-width="1"
     stroke-linecap="butt"
     stroke-linejoin="miter"
     id="g282"
     transform="translate(-21.13,-11.9225)">
    <path
       stroke="#000000"
       d="M 134.1,27.01 V 409.8 H 490.19 V 27.01 Z"
       id="path280" />
  </g>
  <g
     fill="none"
     color="#000000"
     stroke="currentColor"
     stroke-width="1"
     stroke-linecap="butt"
     stroke-linejoin="miter"
     id="g284"
     transform="translate(-624.58506,-159.48551)" />
  <metadata
     id="metadata293">
    <rdf:RDF>
      <cc:Work
         rdf:about="">
        <dc:title>Gnuplot</dc:title>
      </cc:Work>
    </rdf:RDF>
  </metadata>
</svg>
