<?xml version="1.0" encoding="UTF-8" standalone="no"?>
<!-- Created with Inkscape (http://www.inkscape.org/) -->

<svg
   version="1.1"
   id="svg1"
   width="566.66669"
   height="377.33334"
   viewBox="0 0 566.66669 377.33334"
   sodipodi:docname="elk-band0.svg"
   inkscape:version="1.3 (0e150ed6c4, 2023-07-21)"
   xmlns:inkscape="http://www.inkscape.org/namespaces/inkscape"
   xmlns:sodipodi="http://sodipodi.sourceforge.net/DTD/sodipodi-0.dtd"
   xmlns="http://www.w3.org/2000/svg"
   xmlns:svg="http://www.w3.org/2000/svg">
  <defs
     id="defs1" />
  <sodipodi:namedview
     id="namedview1"
     pagecolor="#ffffff"
     bordercolor="#666666"
     borderopacity="1.0"
     inkscape:showpageshadow="2"
     inkscape:pageopacity="0.0"
     inkscape:pagecheckerboard="0"
     inkscape:deskcolor="#d1d1d1"
     inkscape:zoom="1.9147058"
     inkscape:cx="283.33334"
     inkscape:cy="188.80185"
     inkscape:window-width="1920"
     inkscape:window-height="1009"
     inkscape:window-x="-8"
     inkscape:window-y="-8"
     inkscape:window-maximized="1"
     inkscape:current-layer="g1">
    <inkscape:page
       x="0"
       y="0"
       inkscape:label="1"
       id="page1"
       width="566.66669"
       height="377.33334"
       margin="0"
       bleed="0" />
  </sodipodi:namedview>
  <g
     id="g1"
     inkscape:groupmode="layer"
     inkscape:label="1">
    <path
       id="path1"
       d="m 387,180 h 31.5 m 3670,0 H 4057"
       style="fill:none;stroke:#000000;stroke-width:5;stroke-linecap:butt;stroke-linejoin:miter;stroke-miterlimit:3.8;stroke-dasharray:none;stroke-opacity:1"
       transform="matrix(0.13333333,0,0,-0.13333333,0,377.33333)" />
    <text
       id="text1"
       xml:space="preserve"
       transform="matrix(1.3333333,0,0,1.3333333,28.404133,357.33333)"><tspan
         style="font-variant:normal;font-weight:normal;font-size:9px;writing-mode:lr-tb;fill:#000000;fill-opacity:1;fill-rule:nonzero;stroke:none"
         x="0 2.997 7.4970002"
         y="0"
         sodipodi:role="line"
         id="tspan1">-15</tspan></text>
    <path
       id="path2"
       d="m 387,265.5 h 15.5 m 3686,0 H 4073 M 387,351 h 15.5 m 3686,0 H 4073 M 387,436.5 h 15.5 m 3686,0 H 4073 M 387,522 h 15.5 m 3686,0 H 4073 M 387,607.5 h 31.5 m 3670,0 H 4057"
       style="fill:none;stroke:#000000;stroke-width:5;stroke-linecap:butt;stroke-linejoin:miter;stroke-miterlimit:3.8;stroke-dasharray:none;stroke-opacity:1"
       transform="matrix(0.13333333,0,0,-0.13333333,0,377.33333)" />
    <text
       id="text2"
       xml:space="preserve"
       transform="matrix(1.3333333,0,0,1.3333333,28.404133,300.33333)"><tspan
         style="font-variant:normal;font-weight:normal;font-size:9px;writing-mode:lr-tb;fill:#000000;fill-opacity:1;fill-rule:nonzero;stroke:none"
         x="0 2.997 7.4970002"
         y="0"
         sodipodi:role="line"
         id="tspan2">-10</tspan></text>
    <path
       id="path3"
       d="m 387,692.5 h 15.5 m 3686,0 H 4073 M 387,778 h 15.5 m 3686,0 H 4073 M 387,863.5 h 15.5 m 3686,0 H 4073 M 387,949 h 15.5 m 3686,0 H 4073 m -3686,85.5 h 31.5 m 3670,0 H 4057"
       style="fill:none;stroke:#000000;stroke-width:5;stroke-linecap:butt;stroke-linejoin:miter;stroke-miterlimit:3.8;stroke-dasharray:none;stroke-opacity:1"
       transform="matrix(0.13333333,0,0,-0.13333333,0,377.33333)" />
    <text
       id="text3"
       xml:space="preserve"
       transform="matrix(1.3333333,0,0,1.3333333,34.404133,243.4)"><tspan
         style="font-variant:normal;font-weight:normal;font-size:9px;writing-mode:lr-tb;fill:#000000;fill-opacity:1;fill-rule:nonzero;stroke:none"
         x="0 2.997"
         y="0"
         sodipodi:role="line"
         id="tspan3">-5</tspan></text>
    <path
       id="path4"
       d="m 387,1120 h 15.5 m 3686,0 H 4073 m -3686,85.5 h 15.5 m 3686,0 H 4073 M 387,1291 h 15.5 m 3686,0 H 4073 m -3686,85.5 h 15.5 m 3686,0 H 4073 M 387,1462 h 31.5 m 3670,0 H 4057"
       style="fill:none;stroke:#000000;stroke-width:5;stroke-linecap:butt;stroke-linejoin:miter;stroke-miterlimit:3.8;stroke-dasharray:none;stroke-opacity:1"
       transform="matrix(0.13333333,0,0,-0.13333333,0,377.33333)" />
    <text
       id="text4"
       xml:space="preserve"
       transform="matrix(1.3333333,0,0,1.3333333,38.4,186.4)"><tspan
         style="font-variant:normal;font-weight:normal;font-size:9px;writing-mode:lr-tb;fill:#000000;fill-opacity:1;fill-rule:nonzero;stroke:none"
         x="0"
         y="0"
         id="tspan4">0</tspan></text>
    <path
       id="path5"
       d="m 387,1547 h 15.5 m 3686,0 H 4073 m -3686,85.5 h 15.5 m 3686,0 H 4073 M 387,1718 h 15.5 m 3686,0 H 4073 m -3686,85.5 h 15.5 m 3686,0 H 4073 M 387,1889 h 31.5 m 3670,0 H 4057"
       style="fill:none;stroke:#000000;stroke-width:5;stroke-linecap:butt;stroke-linejoin:miter;stroke-miterlimit:3.8;stroke-dasharray:none;stroke-opacity:1"
       transform="matrix(0.13333333,0,0,-0.13333333,0,377.33333)" />
    <text
       id="text5"
       xml:space="preserve"
       transform="matrix(1.3333333,0,0,1.3333333,38.4,129.46667)"><tspan
         style="font-variant:normal;font-weight:normal;font-size:9px;writing-mode:lr-tb;fill:#000000;fill-opacity:1;fill-rule:nonzero;stroke:none"
         x="0"
         y="0"
         id="tspan5">5</tspan></text>
    <path
       id="path6"
       d="m 387,1974.5 h 15.5 m 3686,0 H 4073 M 387,2060 h 15.5 m 3686,0 H 4073 m -3686,85.5 h 15.5 m 3686,0 H 4073 M 387,2231 h 15.5 m 3686,0 H 4073 m -3686,85.5 h 31.5 m 3670,0 H 4057"
       style="fill:none;stroke:#000000;stroke-width:5;stroke-linecap:butt;stroke-linejoin:miter;stroke-miterlimit:3.8;stroke-dasharray:none;stroke-opacity:1"
       transform="matrix(0.13333333,0,0,-0.13333333,0,377.33333)" />
    <text
       id="text6"
       xml:space="preserve"
       transform="matrix(1.3333333,0,0,1.3333333,32.4,72.466667)"><tspan
         style="font-variant:normal;font-weight:normal;font-size:9px;writing-mode:lr-tb;fill:#000000;fill-opacity:1;fill-rule:nonzero;stroke:none"
         x="0 4.5"
         y="0"
         sodipodi:role="line"
         id="tspan6">10</tspan></text>
    <path
       id="path7"
       d="m 387,2401.5 h 15.5 m 3686,0 H 4073 M 387,2487 h 15.5 m 3686,0 H 4073 m -3686,85.5 h 15.5 m 3686,0 H 4073 M 387,2658 h 15.5 m 3686,0 H 4073 m -3686,85.5 h 31.5 m 3670,0 H 4057"
       style="fill:none;stroke:#000000;stroke-width:5;stroke-linecap:butt;stroke-linejoin:miter;stroke-miterlimit:3.8;stroke-dasharray:none;stroke-opacity:1"
       transform="matrix(0.13333333,0,0,-0.13333333,0,377.33333)" />
    <text
       id="text7"
       xml:space="preserve"
       transform="matrix(1.3333333,0,0,1.3333333,32.4,15.533333)"><tspan
         style="font-variant:normal;font-weight:normal;font-size:9px;writing-mode:lr-tb;fill:#000000;fill-opacity:1;fill-rule:nonzero;stroke:none"
         x="0 4.5"
         y="0"
         sodipodi:role="line"
         id="tspan7">15</tspan></text>
    <path
       id="path8"
       d="M 387,180 V 2743.5"
       style="fill:none;stroke:#000000;stroke-width:1.25;stroke-linecap:butt;stroke-linejoin:miter;stroke-miterlimit:3.8;stroke-dasharray:5, 10;stroke-dashoffset:0;stroke-opacity:1"
       transform="matrix(0.13333333,0,0,-0.13333333,0,377.33333)" />
    <path
       id="path9"
       d="m 387,180 v 31.5 m 0,2532 V 2712"
       style="fill:none;stroke:#000000;stroke-width:5;stroke-linecap:butt;stroke-linejoin:miter;stroke-miterlimit:3.8;stroke-dasharray:none;stroke-opacity:1"
       transform="matrix(0.13333333,0,0,-0.13333333,0,377.33333)" />
    <text
       id="text9"
       xml:space="preserve"
       transform="matrix(1.3333333,0,0,1.3333333,47.982267,369.33333)"><tspan
         style="font-variant:normal;font-weight:normal;font-size:9px;writing-mode:lr-tb;fill:#000000;fill-opacity:1;fill-rule:nonzero;stroke:none"
         x="0"
         y="0"
         id="tspan9">Γ</tspan></text>
    <path
       id="path10"
       d="M 1078.5,180 V 2743.5"
       style="fill:none;stroke:#000000;stroke-width:1.25;stroke-linecap:butt;stroke-linejoin:miter;stroke-miterlimit:3.8;stroke-dasharray:5, 10;stroke-dashoffset:0;stroke-opacity:1"
       transform="matrix(0.13333333,0,0,-0.13333333,0,377.33333)" />
    <path
       id="path11"
       d="m 1078.5,180 v 31.5 m 0,2532 V 2712"
       style="fill:none;stroke:#000000;stroke-width:5;stroke-linecap:butt;stroke-linejoin:miter;stroke-miterlimit:3.8;stroke-dasharray:none;stroke-opacity:1"
       transform="matrix(0.13333333,0,0,-0.13333333,0,377.33333)" />
    <text
       id="text11"
       xml:space="preserve"
       transform="matrix(1.3333333,0,0,1.3333333,139.468,369.33333)"><tspan
         style="font-variant:normal;font-weight:normal;font-size:9px;writing-mode:lr-tb;fill:#000000;fill-opacity:1;fill-rule:nonzero;stroke:none"
         x="0"
         y="0"
         id="tspan11">X</tspan></text>
    <path
       id="path12"
       d="M 2056.5,180 V 2743.5"
       style="fill:none;stroke:#000000;stroke-width:1.25;stroke-linecap:butt;stroke-linejoin:miter;stroke-miterlimit:3.8;stroke-dasharray:5, 10;stroke-dashoffset:0;stroke-opacity:1"
       transform="matrix(0.13333333,0,0,-0.13333333,0,377.33333)" />
    <path
       id="path13"
       d="m 2056.5,180 v 31.5 m 0,2532 V 2712"
       style="fill:none;stroke:#000000;stroke-width:5;stroke-linecap:butt;stroke-linejoin:miter;stroke-miterlimit:3.8;stroke-dasharray:none;stroke-opacity:1"
       transform="matrix(0.13333333,0,0,-0.13333333,0,377.33333)" />
    <text
       id="text13"
       xml:space="preserve"
       transform="matrix(1.3333333,0,0,1.3333333,270.58267,369.33333)"><tspan
         style="font-variant:normal;font-weight:normal;font-size:9px;writing-mode:lr-tb;fill:#000000;fill-opacity:1;fill-rule:nonzero;stroke:none"
         x="0"
         y="0"
         id="tspan13">Γ</tspan></text>
    <path
       id="path14"
       d="M 2655,180 V 2743.5"
       style="fill:none;stroke:#000000;stroke-width:1.25;stroke-linecap:butt;stroke-linejoin:miter;stroke-miterlimit:3.8;stroke-dasharray:5, 10;stroke-dashoffset:0;stroke-opacity:1"
       transform="matrix(0.13333333,0,0,-0.13333333,0,377.33333)" />
    <path
       id="path15"
       d="m 2655,180 v 31.5 m 0,2532 V 2712"
       style="fill:none;stroke:#000000;stroke-width:5;stroke-linecap:butt;stroke-linejoin:miter;stroke-miterlimit:3.8;stroke-dasharray:none;stroke-opacity:1"
       transform="matrix(0.13333333,0,0,-0.13333333,0,377.33333)" />
    <text
       id="text15"
       xml:space="preserve"
       transform="matrix(1.3333333,0,0,1.3333333,350.33467,369.33333)"><tspan
         style="font-variant:normal;font-weight:normal;font-size:9px;writing-mode:lr-tb;fill:#000000;fill-opacity:1;fill-rule:nonzero;stroke:none"
         x="0"
         y="0"
         id="tspan15">Z</tspan></text>
    <path
       id="path16"
       d="M 3254,180 V 2743.5"
       style="fill:none;stroke:#000000;stroke-width:1.25;stroke-linecap:butt;stroke-linejoin:miter;stroke-miterlimit:3.8;stroke-dasharray:5, 10;stroke-dashoffset:0;stroke-opacity:1"
       transform="matrix(0.13333333,0,0,-0.13333333,0,377.33333)" />
    <path
       id="path17"
       d="m 3254,180 v 31.5 m 0,2532 V 2712"
       style="fill:none;stroke:#000000;stroke-width:5;stroke-linecap:butt;stroke-linejoin:miter;stroke-miterlimit:3.8;stroke-dasharray:none;stroke-opacity:1"
       transform="matrix(0.13333333,0,0,-0.13333333,0,377.33333)" />
    <text
       id="text17"
       xml:space="preserve"
       transform="matrix(1.3333333,0,0,1.3333333,429.53467,369.33333)"><tspan
         style="font-variant:normal;font-weight:normal;font-size:9px;writing-mode:lr-tb;fill:#000000;fill-opacity:1;fill-rule:nonzero;stroke:none"
         x="0"
         y="0"
         id="tspan17">X</tspan></text>
    <path
       id="path18"
       d="M 3599.5,180 V 2743.5"
       style="fill:none;stroke:#000000;stroke-width:1.25;stroke-linecap:butt;stroke-linejoin:miter;stroke-miterlimit:3.8;stroke-dasharray:5, 10;stroke-dashoffset:0;stroke-opacity:1"
       transform="matrix(0.13333333,0,0,-0.13333333,0,377.33333)" />
    <path
       id="path19"
       d="m 3599.5,180 v 31.5 m 0,2532 V 2712"
       style="fill:none;stroke:#000000;stroke-width:5;stroke-linecap:butt;stroke-linejoin:miter;stroke-miterlimit:3.8;stroke-dasharray:none;stroke-opacity:1"
       transform="matrix(0.13333333,0,0,-0.13333333,0,377.33333)" />
    <text
       id="text19"
       xml:space="preserve"
       transform="matrix(1.3333333,0,0,1.3333333,474.26933,369.33333)"><tspan
         style="font-variant:normal;font-weight:normal;font-size:9px;writing-mode:lr-tb;fill:#000000;fill-opacity:1;fill-rule:nonzero;stroke:none"
         x="0"
         y="0"
         id="tspan19">W</tspan></text>
    <path
       id="path20"
       d="M 4088.5,180 V 2743.5"
       style="fill:none;stroke:#000000;stroke-width:1.25;stroke-linecap:butt;stroke-linejoin:miter;stroke-miterlimit:3.8;stroke-dasharray:5, 10;stroke-dashoffset:0;stroke-opacity:1"
       transform="matrix(0.13333333,0,0,-0.13333333,0,377.33333)" />
    <path
       id="path21"
       d="m 4088.5,180 v 31.5 m 0,2532 V 2712"
       style="fill:none;stroke:#000000;stroke-width:5;stroke-linecap:butt;stroke-linejoin:miter;stroke-miterlimit:3.8;stroke-dasharray:none;stroke-opacity:1"
       transform="matrix(0.13333333,0,0,-0.13333333,0,377.33333)" />
    <text
       id="text21"
       xml:space="preserve"
       transform="matrix(1.3333333,0,0,1.3333333,541.468,369.33333)"><tspan
         style="font-variant:normal;font-weight:normal;font-size:9px;writing-mode:lr-tb;fill:#000000;fill-opacity:1;fill-rule:nonzero;stroke:none"
         x="0"
         y="0"
         id="tspan21">Z</tspan></text>
    <path
       id="path22"
       d="M 387,2743.5 V 180 h 3701.5 v 2563.5 z"
       style="fill:none;stroke:#000000;stroke-width:10;stroke-linecap:butt;stroke-linejoin:miter;stroke-miterlimit:3.8;stroke-dasharray:none;stroke-opacity:1"
       transform="matrix(0.13333333,0,0,-0.13333333,0,377.33333)" />
    <path
       id="path23"
       d="m 387,472.5 h 18.5 l 19,1 18.5,1.5 18.5,2 19,2.5 18.5,3 19,3.5 18.5,4 18.5,4.5 19,5 18.5,6 18.5,6 19,7 18.5,7 19,8 18.5,8 18.5,9 19,9.5 18.5,10 18.5,10 19,11 18.5,11.5 19,11.5 18.5,12.5 18.5,13 19,13 18.5,13.5 18.5,14.5 19,14.5 18.5,15 19,15.5 18.5,15.5 18.5,16.5 19,16.5 18.5,17 18.5,17.5 19,17.5 h 18.5 l 19,-0.5 19,-0.5 18.5,-1 19,-1.5 19,-1.5 18.5,-2 19,-3 18.5,-3 19,-4.5 19,-5 18.5,-6 19,-6.5 18.5,-8 19,-8.5 19,-9.5 18.5,-10 19,-11 18.5,-11.5 19,-12 19,-12 18.5,-12 19,-12.5 18.5,-12.5 19,-12.5 19,-12 18.5,-12 19,-12 19,-11.5 18.5,-11 19,-10.5 18.5,-10.5 19,-10 19,-10 18.5,-9 19,-8.5 18.5,-8.5 19,-7.5 19,-7.5 18.5,-6.5 19,-6.5 18.5,-5.5 19,-5.5 19,-4.5 18.5,-4 19,-3.5 18.5,-3 19,-2.5 19,-2 18.5,-1.5 19,-1 h 19 18.5 l 18.5,1 19,1.5 18.5,2 19,2.5 18.5,3 19,3.5 18.5,4 18.5,4.5 19,5 18.5,5.5 19,6.5 18.5,6.5 18.5,7 19,7.5 18.5,8 19,8.5 18.5,9 19,9.5 18.5,9.5 18.5,10 19,10 18.5,10 19,10 18.5,10.5 19,9.5 18.5,9.5 18.5,8 19,7 18.5,6 19,3.5 18.5,1 h 19 l 18.5,0.5 18.5,0.5 19,0.5 18.5,1 19,1.5 18.5,1.5 19,1.5 18.5,2.5 18.5,2 19,3 18.5,2.5 19,3.5 18.5,3.5 19,4 18.5,4.5 18.5,5 19,5 18.5,5.5 19,6 18.5,6 18.5,7 19,7 18.5,7.5 19,7.5 18.5,8.5 19,8.5 18.5,9 18.5,9 19,10 18.5,9.5 19,10.5 h 18 l 18.5,0.5 h 18 l 18,1 18.5,0.5 18,1 18,1 18.5,1 18,1 18.5,1 18,1.5 18,1 18.5,1 18,1 18.5,1 18,0.5 18,0.5 18.5,0.5 h 18 l 18,-10.5 18.5,-10 18,-10.5 18,-10 18,-10 18,-9.5 18.5,-9.5 18,-9 18,-9 18,-8.5 18.5,-7.5 18,-8 18,-7 18,-6.5 18,-6 18.5,-6 18,-5 18,-5 18,-4.5 18,-3.5 18.5,-3.5 18,-2.5 18,-2.5 18,-1.5 18.5,-1.5 18,-1 h 18 M 387,1493.5 l 18.5,-2 19,-5.5 18.5,-9 18.5,-12 19,-14 18.5,-15.5 19,-17 18.5,-18 18.5,-18.5 19,-19 18.5,-19.5 18.5,-19.5 19,-20 18.5,-20.5 19,-20.5 18.5,-20.5 18.5,-20.5 19,-20.5 18.5,-20.5 18.5,-20.5 19,-21 18.5,-20.5 19,-20.5 18.5,-20.5 18.5,-20.5 19,-20 18.5,-20.5 18.5,-20 19,-20 18.5,-19.5 19,-19.5 18.5,-19.5 18.5,-19 19,-19 18.5,-18.5 18.5,-18 19,-18 h 18.5 l 19,1 19,1.5 18.5,2 19,3 19,3 18.5,4 19,4.5 18.5,5 19,5.5 19,6.5 18.5,6.5"
       style="fill:none;stroke:#000000;stroke-width:5;stroke-linecap:butt;stroke-linejoin:miter;stroke-miterlimit:3.8;stroke-dasharray:none;stroke-opacity:1"
       transform="matrix(0.13333333,0,0,-0.13333333,0,377.33333)" />
    <path
       id="path24"
       d="m 1304,868.5 19,7.5 18.5,8 19,8.5 19,9.5 18.5,9.5 19,10.5 18.5,11 19,11 19,12 18.5,13 19,13 18.5,13.5 19,14.5 19,14.5 18.5,15.5 19,16 19,16.5 18.5,17 19,17 18.5,18 19,18.5 19,19 18.5,19.5 19,19.5 18.5,20.5 19,20.5 19,21 18.5,21 19,21.5 18.5,22 19,21.5 19,22 18.5,21.5 19,21 18.5,20 19,18.5 19,16.5 18.5,13.5 19,8.5 19,3 18.5,-3.5 18.5,-9.5 19,-14.5 18.5,-18.5 19,-21 18.5,-22.5 19,-23.5 18.5,-24.5 18.5,-25 19,-25 18.5,-25.5 19,-25 18.5,-25 18.5,-25 19,-24 18.5,-24.5 19,-23.5 18.5,-23 19,-23 18.5,-22 18.5,-21.5 19,-20.5 18.5,-19.5 19,-19 18.5,-17.5 19,-16.5 18.5,-15 18.5,-13 19,-10.5 18.5,-8 19,-5 18.5,-2 19,0.5 18.5,1 18.5,1.5 19,2 18.5,3 19,3 18.5,4 19,4 18.5,4.5 18.5,4.5 19,5 18.5,4.5 19,4.5 18.5,3.5 19,3 18.5,2 18.5,0.5 19,-1 18.5,-2.5 19,-4.5 18.5,-6 18.5,-7 19,-8.5 18.5,-9 19,-10 18.5,-10.5 19,-10.5 18.5,-10.5 18.5,-11 19,-10.5 18.5,-10.5 19,-10.5 h 18 l 18.5,0.5 h 18 l 18,1 18.5,0.5 18,1 18,1 18.5,1 18,1 18.5,1 18,1.5 18,1 18.5,1 18,1 18.5,1 18,0.5 18,0.5 18.5,0.5 h 18 l 18,10 18.5,10 18,9.5 18,9 18,8 18,7 18.5,6.5 18,5 18,3.5 18,3 18.5,1.5 18,0.5 h 18 l 18,-0.5 18,-1 18.5,-1.5 18,-1.5 18,-2 18,-1.5 18,-2 18.5,-1.5 18,-1 18,-1.5 18,-0.5 18.5,-1 18,-0.5 h 18 m -3701.5,596 18.5,-1 19,-3.5 18.5,-5.5 18.5,-7 19,-8.5 18.5,-9.5 19,-10 18.5,-10.5 18.5,-10.5 19,-10.5 18.5,-11 18.5,-10.5 19,-10.5 18.5,-10 19,-10 18.5,-9.5 18.5,-9.5 19,-9 18.5,-8.5 18.5,-8 19,-8 18.5,-7 19,-7 18.5,-6.5 18.5,-6 19,-5.5 18.5,-5.5 18.5,-4.5 19,-4 18.5,-3.5 19,-3.5 18.5,-2.5 18.5,-2 19,-2 18.5,-1 18.5,-1 h 19 l 18.5,-2 19,-5.5 19,-9 18.5,-10.5 19,-12 19,-13 18.5,-13 19,-13 18.5,-11.5 19,-11 19,-9.5 18.5,-8.5 19,-6.5 18.5,-5 19,-3 19,-2 h 18.5 l 19,1.5 18.5,3 19,4 19,5.5 18.5,7 19,7.5 18.5,8.5 19,9.5 19,10.5 18.5,11 19,11.5 19,12.5 18.5,13 19,13.5 18.5,13.5 19,14.5 19,15 18.5,15 19,15 18.5,15.5 19,16 19,15.5 18.5,15.5 19,15.5 18.5,15 19,14.5 19,14 18.5,13.5 19,12 18.5,11 19,9.5 19,8 18.5,6 19,3.5 19,1 18.5,-0.5 18.5,-1.5 19,-2 18.5,-3 19,-4 18.5,-4 19,-4.5 18.5,-5 18.5,-5"
       style="fill:none;stroke:#000000;stroke-width:5;stroke-linecap:butt;stroke-linejoin:miter;stroke-miterlimit:3.8;stroke-dasharray:none;stroke-opacity:1"
       transform="matrix(0.13333333,0,0,-0.13333333,0,377.33333)" />
    <path
       id="path25"
       d="m 2224.5,1464 19,-5.5 18.5,-5 19,-5 18.5,-5.5 18.5,-4.5 19,-5 18.5,-4.5 19,-4.5 18.5,-4 19,-4 18.5,-3.5 18.5,-3.5 19,-3 18.5,-3 19,-2.5 18.5,-2 19,-2 18.5,-1.5 18.5,-1.5 19,-1 18.5,-1 19,-0.5 h 18.5 l 19,-2 18.5,-6.5 18.5,-10 19,-12.5 18.5,-14.5 19,-15.5 18.5,-16 19,-16.5 18.5,-16 18.5,-16 19,-15.5 18.5,-14.5 19,-13 18.5,-12.5 19,-10.5 18.5,-8.5 18.5,-6.5 19,-4.5 18.5,-1.5 19,0.5 18.5,2.5 18.5,4.5 19,6.5 18.5,7.5 19,8 18.5,8.5 19,8.5 18.5,8 18.5,7 19,5.5 18.5,3.5 19,1.5 18,-1 18.5,-2.5 18,-3.5 18,-5 18.5,-6 18,-6.5 18,-7 18.5,-7 18,-7 18.5,-7 18,-6.5 18,-6 18.5,-5.5 18,-4.5 18.5,-4 18,-3.5 18,-2 18.5,-1.5 18,-0.5 18,-7.5 18.5,-6 18,-5 18,-3.5 18,-2 18,-0.5 18.5,1.5 18,3.5 18,6 18,7.5 18.5,9.5 18,11 18,12.5 18,14 18,15 18.5,16.5 18,16.5 18,17.5 18,18 18,17.5 18.5,17.5 18,17 18,16 18,13.5 18.5,11.5 18,7 18,2.5 m -3701.5,102 18.5,-1 19,-3.5 18.5,-5.5 18.5,-7 19,-8.5 18.5,-9.5 19,-10 18.5,-10.5 18.5,-10.5 19,-10.5 18.5,-11 18.5,-10.5 19,-10.5 18.5,-10 19,-10 18.5,-9.5 18.5,-9.5 19,-9 18.5,-8.5 18.5,-8 19,-8 18.5,-7 19,-7 18.5,-6.5 18.5,-6 19,-5.5 18.5,-5.5 18.5,-4.5 19,-4 18.5,-3.5 19,-3.5 18.5,-2.5 18.5,-2 19,-2 18.5,-1 18.5,-1 h 19 18.5 l 19,0.5 19,1.5 18.5,1.5 19,2 19,2.5 18.5,2.5 19,3.5 18.5,3.5 19,4 19,4.5 18.5,5 19,5 18.5,6 19,6 19,6 18.5,6.5 19,7 18.5,7 19,7.5 19,7.5 18.5,8 19,8 18.5,8 19,8 19,8 18.5,8 19,8.5 19,7.5 18.5,8 19,7.5 18.5,7.5 19,7 19,6.5 18.5,6.5 19,6 18.5,5.5 19,5 19,4.5 18.5,4.5 19,3.5 18.5,3.5 19,2.5 19,2.5 18.5,2 19,2 18.5,1.5 19,1 19,1 18.5,0.5 19,0.5 h 19 l 18.5,-0.5 18.5,-1.5 19,-2 18.5,-3 19,-4 18.5,-4 19,-4.5 18.5,-5 18.5,-5 19,-5.5 18.5,-5 19,-5 18.5,-5.5 18.5,-4.5 19,-5 18.5,-4.5 19,-4.5 18.5,-4 19,-4 18.5,-3.5 18.5,-3.5 19,-3 18.5,-3 19,-2.5 18.5,-2 19,-2 18.5,-1.5 18.5,-1.5 19,-1 18.5,-1 19,-0.5 h 18.5 l 19,-0.5 18.5,-1.5 18.5,-3 19,-3.5 18.5,-5 19,-5 18.5,-6 19,-6.5 18.5,-6.5 18.5,-7 19,-7 18.5,-7 19,-7 18.5,-7 19,-6.5 18.5,-6.5 18.5,-6.5 19,-6 18.5,-5.5 19,-5 18.5,-5 18.5,-5 19,-4 18.5,-3.5 19,-3.5 18.5,-3"
       style="fill:none;stroke:#000000;stroke-width:5;stroke-linecap:butt;stroke-linejoin:miter;stroke-miterlimit:3.8;stroke-dasharray:none;stroke-opacity:1"
       transform="matrix(0.13333333,0,0,-0.13333333,0,377.33333)" />
    <path
       id="path26"
       d="m 3141.5,1259 19,-2.5 18.5,-2 18.5,-1.5 19,-1.5 18.5,-0.5 h 19 l 18,-1 18.5,-2.5 18,-3.5 18,-5 18.5,-6 18,-6.5 18,-7 18.5,-7 18,-7 18.5,-7 18,-6.5 18,-6 18.5,-5.5 18,-4.5 18.5,-4 18,-3.5 18,-2 18.5,-1.5 18,-0.5 18,8 18.5,9 18,10 18,10 18,11 18,11 18.5,11 18,12 18,11.5 18,11.5 18.5,12 18,11.5 18,11 18,11 18,10.5 18.5,10 18,9 18,9 18,7.5 18,7 18.5,6.5 18,5 18,4.5 18,3 18.5,2.5 18,1.5 18,0.5 m -3701.5,322 18.5,-1 19,-2 18.5,-3.5 18.5,-4.5 19,-6 18.5,-6.5 19,-7.5 18.5,-8 18.5,-8 19,-9 18.5,-8.5 18.5,-9 19,-9 18.5,-8.5 19,-8.5 18.5,-8 18.5,-8 19,-7.5 18.5,-7 18.5,-7 19,-6 18.5,-6 19,-5 18.5,-5 18.5,-4 19,-3.5 18.5,-3 18.5,-2.5 19,-2 18.5,-1 19,-0.5 18.5,0.5 18.5,1 19,1.5 18.5,2 18.5,3.5 19,3.5 18.5,0.5 19,0.5 19,1.5 18.5,1.5 19,2.5 19,3 18.5,3 19,4 18.5,4.5 19,4.5 19,5.5 18.5,5.5 19,6.5 18.5,6.5 19,7 19,7.5 18.5,7.5 19,8 18.5,8.5 19,8.5 19,9 18.5,9 19,9 18.5,9.5 19,9 19,8.5 18.5,8.5 19,8 19,8 18.5,6.5 19,6 18.5,5 19,4 19,3 18.5,1.5 19,1 h 18.5 l 19,-0.5 19,-1.5 18.5,-1.5 19,-2 18.5,-4.5 19,-5.5 19,-5 18.5,-4 19,-4 18.5,-3 19,-2.5 19,-2 18.5,-1.5 19,-1 h 19 l 18.5,0.5 18.5,2 19,1.5 18.5,-0.5 19,-2 18.5,-3 19,-4 18.5,-5 18.5,-5 19,-5 18.5,-5.5 19,-5.5 18.5,-5.5 18.5,-5.5 19,-5.5 18.5,-5 19,-5 18.5,-4.5 19,-4.5 18.5,-4 18.5,-4 19,-3.5 18.5,-3.5 19,-3 18.5,-2.5 19,-2 18.5,-2 18.5,-1.5 19,-1.5 18.5,-1 19,-0.5 h 18.5 l 19,2 18.5,6.5 18.5,10 19,11.5 18.5,11.5 19,10 18.5,6.5 19,2 18.5,-2.5 18.5,-5.5 19,-7 18.5,-8 19,-8.5 18.5,-8.5 19,-8.5 18.5,-8.5 18.5,-8.5 19,-8 18.5,-7.5 19,-7 18.5,-6.5 18.5,-6.5 19,-5.5 18.5,-5 19,-4.5 18.5,-3.5 19,-3.5 18.5,-2.5 18.5,-2 19,-1 18.5,-0.5 19,1.5 18,1.5 18.5,4.5 18,7 18,9.5 18.5,12 18,14 18,15.5 18.5,17 18,18.5 18.5,20 18,20.5 18,22 18.5,22.5 18,23.5 18.5,23.5 18,24.5 18,23.5 18.5,21 18,10.5 18,-9 18.5,-10.5 18,-10.5 18,-10 18,-9.5 18,-8.5 18.5,-8.5 18,-7.5 18,-6.5 18,-5.5 18.5,-5 18,-4 18,-8 18,-9 18,-9.5 18.5,-9.5 18,-9.5 18,-10 18,-11 18,-12 18.5,-12.5 18,-13 18,-13 18,-12.5"
       style="fill:none;stroke:#000000;stroke-width:5;stroke-linecap:butt;stroke-linejoin:miter;stroke-miterlimit:3.8;stroke-dasharray:none;stroke-opacity:1"
       transform="matrix(0.13333333,0,0,-0.13333333,0,377.33333)" />
    <path
       id="path27"
       d="m 4034,1636.5 18.5,-10 18,-6.5 18,-2.5 m -3701.5,96 18.5,1.5 19,4.5 18.5,7 18.5,10 19,11.5 18.5,13 19,14.5 18.5,15.5 18.5,17 19,17 18.5,18 18.5,16 19,-9.5 18.5,-13 19,-15.5 18.5,-17 18.5,-17.5 19,-17.5 18.5,-17.5 18.5,-17.5 19,-17 18.5,-16 19,-15.5 18.5,-15 18.5,-14 19,-13 18.5,-12.5 18.5,-12 19,-11 18.5,-10 19,-9 18.5,-8.5 18.5,-7.5 19,-7 18.5,-6 18.5,-5.5 19,-4.5 18.5,3 19,8.5 19,13 18.5,17.5 19,21 19,23.5 18.5,25.5 19,28 18.5,29 19,30.5 19,31.5 18.5,33 19,33.5 18.5,34.5 19,34.5 19,35.5 18.5,34.5 19,31.5 18.5,4 19,-18 19,-17.5 18.5,-17.5 19,-16.5 18.5,-16 19,-15.5 19,-15 18.5,-14.5 19,-14 19,-13 18.5,-13 19,-12 18.5,-12 19,-11 19,-10.5 18.5,-10 19,-9.5 18.5,-8.5 19,-8.5 19,-7.5 18.5,-7.5 19,-6.5 18.5,-3.5 19,-2.5 19,-2.5 18.5,-3 19,-5.5 18.5,-5 19,-4.5 19,-3.5 18.5,-2.5 19,-1.5 19,-0.5 18.5,0.5 18.5,2 19,3.5 18.5,4.5 19,5.5 18.5,6.5 19,7 18.5,7 18.5,7.5 19,7 18.5,7 19,6.5 18.5,6 18.5,4.5 19,4 18.5,3 19,2 18.5,1 h 19 l 18.5,-0.5 18.5,-1 19,-1.5 18.5,-2 19,-1.5 18.5,-2 19,-2 18.5,-1.5 18.5,-1.5 19,-1 18.5,-1 19,-0.5 h 18.5 l 19,-0.5 18.5,-2 18.5,-2 19,-2.5 18.5,-1 19,1.5 18.5,6 19,11.5 18.5,16.5 18.5,20 19,22 18.5,24 19,25 18.5,21.5 19,-17 18.5,-29.5 18.5,-30 19,-29.5 18.5,-29 19,-27.5 18.5,-27 18.5,-26 19,-24.5 18.5,-23.5 19,-21.5 18.5,-20.5 19,-18 18.5,-15.5 18.5,-13 19,-10 18.5,-7 19,-3.5 18,1.5 18.5,4.5 18,7 18,9.5 18.5,12 18,14 18,15.5 18.5,17 18,18.5 18.5,20 18,20.5 18,22 18.5,22.5 18,23.5 18.5,23.5 18,24.5 18,23.5 18.5,21 18,10.5 18,5.5 18.5,-1 18,-6.5 18,-9.5 18,-10.5 18,-11 18.5,-10.5 18,-10.5 18,-10.5 18,-10 18.5,-9.5 18,-9.5 18,-5 18,-2 18,-1 18.5,-0.5 18,0.5 18,1.5 18,2 18,2.5 18.5,3.5 18,3 18,3.5 18,2.5 18.5,2.5 18,1.5 18,0.5 m -3701.5,-69 18.5,1.5 19,4.5 18.5,7 18.5,10 19,11.5 18.5,13 19,14.5 18.5,15.5 18.5,17 19,17 18.5,18 18.5,18.5 19,19 18.5,19.5 19,20 18.5,20 18.5,20.5 19,20.5 18.5,21 18.5,21 19,21.5 18.5,21.5 19,22 18.5,22 18.5,22 19,22.5 18.5,22 18.5,22.5 19,22.5 18.5,22.5 19,22 18.5,21.5 18.5,21 19,19 18.5,16.5 18.5,11.5 19,4 18.5,-2.5 19,-7.5 19,-12 18.5,-15 19,-17 19,-19 18.5,-20 19,-21"
       style="fill:none;stroke:#000000;stroke-width:5;stroke-linecap:butt;stroke-linejoin:miter;stroke-miterlimit:3.8;stroke-dasharray:none;stroke-opacity:1"
       transform="matrix(0.13333333,0,0,-0.13333333,0,377.33333)" />
    <path
       id="path28"
       d="m 1229,2245.5 18.5,-21 19,-21 19,-21.5 18.5,-21 19,-21 18.5,-20.5 19,-20 19,-20 18.5,-19.5 19,-19 18.5,-4.5 19,-5 19,-14.5 18.5,-16.5 19,-17 18.5,-16.5 19,-16 19,-15.5 18.5,-15 19,-14.5 19,-14.5 18.5,-13.5 19,-13 18.5,-12 19,-12 19,-11.5 18.5,-11 19,-10.5 18.5,-9.5 19,-9.5 19,-9 18.5,-8.5 19,-8 18.5,-7.5 19,-7 19,-6.5 18.5,-5.5 19,-3 18.5,-3 19,-3.5 19,-4.5 18.5,-4.5 19,-3.5 19,-1.5 18.5,1 18.5,1.5 19,3.5 18.5,4.5 19,5.5 18.5,6.5 19,7 18.5,7 18.5,7.5 19,7 18.5,7 19,6.5 18.5,6 18.5,4.5 19,4 18.5,3 19,2 18.5,1 h 19 l 18.5,-0.5 18.5,-1 19,-1.5 18.5,-2 19,-1.5 18.5,-2 19,-2 18.5,-1.5 18.5,-1.5 19,-1 18.5,-1 19,-0.5 h 18.5 l 19,1 18.5,3.5 18.5,5.5 19,7.5 18.5,9.5 19,11.5 18.5,13 19,15 18.5,16 18.5,17 19,19 18.5,19.5 19,20.5 18.5,5 19,12 18.5,27 18.5,28 19,28.5 18.5,29 19,29 18.5,29.5 18.5,29.5 19,29 18.5,28 19,26.5 18.5,25.5 19,24 18.5,22 18.5,19 19,14.5 18.5,9.5 19,3 18,-2 18.5,-6.5 18,-12 18,-16.5 18.5,-21.5 18,-25 18,-27.5 18.5,-29 18,-30 18.5,-30.5 18,-30 18,-30.5 18.5,-30 18,-29.5 18.5,-29 18,-28 18,-27 18.5,-22.5 18,-11 18,-6 18.5,1.5 18,9 18,12.5 18,14.5 18,16 18.5,17 18,18 18,18 18,19 18.5,18 18,-8.5 18,-30 18,-30.5 18,-29.5 18.5,-28 18,-26.5 18,-24 18,-22.5 18,-19 18.5,-16.5 18,-13.5 18,-10.5 18,-8 18.5,-5.5 18,-3 18,-1 m -3701.5,-17 18.5,2 19,5.5 18.5,8.5 18.5,11.5 19,13 18.5,13.5 19,14 18.5,12.5 18.5,10 19,6.5 18.5,1 18.5,-2 19,19 18.5,19.5 19,20 18.5,20 18.5,20.5 19,20.5 18.5,21 18.5,21 19,21.5 18.5,21.5 19,22 18.5,22 18.5,22 19,22.5 18.5,22 18.5,22.5 19,22.5 18.5,22.5 19,22 18.5,21.5 18.5,21 19,19 18.5,16.5 18.5,11.5 19,4 18.5,-2 19,-5 19,-8.5 18.5,-10.5 19,-12.5 19,-14.5 18.5,-15 19,-15.5 18.5,-16.5 19,-16.5 19,-16.5 18.5,-17 19,-16.5 18.5,-21.5 19,-22 19,-21 18.5,-19 19,-15 18.5,-0.5 19,-9 19,-13.5 18.5,-13 19,-12.5 18.5,-11.5 19,-10.5 19,-9.5 18.5,-9 19,-7.5 19,-6.5 18.5,-5.5 19,-4 18.5,-3 19,-2 19,-1 18.5,-0.5 19,-1 18.5,-1.5 19,-3.5 19,-6 18.5,-9.5 19,-13.5 18.5,-17 19,-19.5 19,-21.5 18.5,-22 19,-21.5 18.5,-21 19,-18.5 19,-15 18.5,-11 19,-6 19,-2 18.5,2 18.5,6 19,11.5 18.5,15 19,19"
       style="fill:none;stroke:#000000;stroke-width:5;stroke-linecap:butt;stroke-linejoin:miter;stroke-miterlimit:3.8;stroke-dasharray:none;stroke-opacity:1"
       transform="matrix(0.13333333,0,0,-0.13333333,0,377.33333)" />
    <path
       id="path29"
       d="m 2150,1819 18.5,21 19,22.5 18.5,23 18.5,24 19,24 18.5,24.5 19,24 18.5,24 18.5,23.5 19,23.5 18.5,22.5 19,21.5 18.5,20 19,17 18.5,13.5 18.5,8.5 19,4 18.5,0.5 19,-1 18.5,-2.5 19,-2 18.5,-2.5 18.5,-2 19,-2 18.5,-1.5 19,-0.5 18.5,-0.5 19,1.5 18.5,3.5 18.5,5 19,6 18.5,4.5 19,-1.5 18.5,-12.5 19,-23 18.5,-28.5 18.5,-31.5 19,-32 18.5,-32.5 19,-32 18.5,-10 19,22.5 18.5,23.5 18.5,24 19,24.5 18.5,25.5 19,26 18.5,26.5 18.5,26.5 19,27 18.5,27.5 19,28 18.5,26.5 19,24.5 18.5,22 18.5,18 19,13.5 18.5,8 19,2.5 18,-2 18.5,-6.5 18,-12 18,-16.5 18.5,-21.5 18,-25 18,-27.5 18.5,-29 18,-30 18.5,-30.5 18,-30 18,-30.5 18.5,-30 18,-29.5 18.5,-29 18,-28 18,-27 18.5,-22.5 18,-11 18,10.5 18.5,12.5 18,14 18,15 18,15 18,16 18.5,16.5 18,16.5 18,16.5 18,17 18.5,17.5 18,-3 18,20 18,21.5 18,22.5 18.5,16.5 18,10.5 18,7 18,3 18,-2 18.5,-5.5 18,-7 18,-8 18,-7 18.5,-6 18,-3.5 18,-1.5 m -3701.5,10 18.5,1 19,4 18.5,6 18.5,-12 19,-17.5 18.5,-18.5 19,-18.5 18.5,-16.5 18.5,-13 19,-8.5 18.5,-3 18.5,4 19,10 18.5,14.5 19,17.5 18.5,20 18.5,22 19,22.5 18.5,23.5 18.5,24 19,24.5 18.5,24.5 19,24.5 18.5,25 18.5,24.5 19,24.5 18.5,24 18.5,23.5 19,23.5 18.5,23 19,22.5 18.5,22 18.5,21 19,20.5 18.5,-11 18.5,-12.5 19,-4.5 18.5,-10.5 19,-23 19,-27 18.5,-28 19,-28 19,-28 18.5,-27 19,-26.5 18.5,-26.5 19,-25.5 19,-25 18.5,-24 19,-23.5 18.5,-18 19,-16 19,-16 18.5,-15.5 19,-15 18.5,-15 19,19 19,7 18.5,-13.5 19,-12.5 18.5,-11.5 19,-10.5 19,-9.5 18.5,-8.5 19,-7 19,-6 18.5,-5 19,-3.5 18.5,-2 19,-1 19,0.5 18.5,2 19,3.5 18.5,4.5 19,6 19,7.5 18.5,8.5 19,10 18.5,11 19,12 19,12.5 18.5,13.5 19,13.5 18.5,14 19,12.5 19,1 18.5,-6 19,-4 19,-1 18.5,1 18.5,4 19,6 18.5,8.5 19,-6.5 18.5,-8.5 19,-8.5 18.5,-8 18.5,-7 19,-5.5 18.5,-4.5 19,-2.5 18.5,-0.5 18.5,1.5 19,4 18.5,6.5 19,8.5 18.5,11 19,13 18.5,15 18.5,17 19,19 18.5,20.5 19,21.5 18.5,23.5 19,24.5 18.5,26 18.5,27 19,27.5 18.5,29 19,29.5 18.5,15.5 19,-28.5 18.5,-36.5 18.5,-35.5 19,-34.5 18.5,-29.5 19,-22 18.5,-8.5 19,3 18.5,10.5 18.5,14 19,15 18.5,15.5 19,14.5 18.5,13.5 19,12.5 18.5,11 18.5,9.5 19,8.5 18.5,8 19,7 18.5,6.5 18.5,6.5"
       style="fill:none;stroke:#000000;stroke-width:5;stroke-linecap:butt;stroke-linejoin:miter;stroke-miterlimit:3.8;stroke-dasharray:none;stroke-opacity:1"
       transform="matrix(0.13333333,0,0,-0.13333333,0,377.33333)" />
    <path
       id="path30"
       d="m 3066.5,2424.5 19,6.5 18.5,6.5 19,7 18.5,8 19,8.5 18.5,10.5 18.5,12.5 19,14 18.5,13 19,6 18,-7 18.5,-16 18,-16.5 18,-13.5 18.5,-10 18,-7 18,-4.5 18.5,-3 18,-2 18.5,-1.5 18,-1 18,-0.5 18.5,-0.5 h 18 l 18.5,-0.5 h 18 18 18.5 18 l 18,-23.5 18.5,-26.5 18,-29.5 18,-32 18,-32.5 18,-34 18.5,-34 18,-34 18,-34 18,-33.5 18.5,-31 18,16.5 18,16.5 18,16 18,15 18.5,19.5 18,24 18,24.5 18,25.5 18,26 18.5,26.5 18,27 18,27.5 18,28.5 18.5,28.5 18,29 18,24.5 M 387,2195 l 18.5,-3 19,-8 18.5,-13 18.5,4.5 19,10.5 18.5,12.5 19,13 18.5,5 18.5,5.5 19,6.5 18.5,7 18.5,7.5 19,8.5 18.5,9 19,9.5 18.5,10 18.5,11 19,12 18.5,12 18.5,13 19,13.5 18.5,14.5 19,15 18.5,16 18.5,16 19,17.5 18.5,17.5 18.5,18.5 19,19 18.5,20 19,20.5 18.5,21.5 18.5,21.5 19,-7 18.5,-18 18.5,-12.5 19,-4.5 18.5,-5 19,-13.5 19,-18 18.5,-21 19,-22 19,-22.5 18.5,-22.5 19,-23 18.5,-22 19,-22 19,-21.5 18.5,-21 19,-20.5 18.5,-20 19,-19 19,-18.5 18.5,-17.5 19,-17 18.5,-16 19,-15 19,12.5 18.5,36.5 19,36.5 18.5,36.5 19,35 19,32.5 18.5,28.5 19,23 19,16 18.5,9 19,2 18.5,-2.5 19,-28.5 19,-34.5 18.5,-33 19,-30.5 18.5,-28 19,-24.5 19,-20 18.5,-15 19,-10 18.5,-5.5 19,-2 19,1 18.5,2.5 19,3.5 18.5,3.5 19,-8.5 19,2 18.5,9.5 19,6 19,2 18.5,-1 18.5,-4 19,-5.5 18.5,-7.5 19,-8 18.5,-8.5 19,-8.5 18.5,-8 18.5,-7 19,-5.5 18.5,-4.5 19,-2.5 18.5,-0.5 18.5,1.5 19,4 18.5,6.5 19,8.5 18.5,11 19,13 18.5,15 18.5,17 19,19 18.5,20.5 19,21.5 18.5,23.5 19,24.5 18.5,26 18.5,27 19,27.5 18.5,29 19,29.5 18.5,23 19,-1.5 18.5,-3 18.5,-4 19,-4 18.5,-3 19,-3 18.5,-3 19,-2 18.5,-2 18.5,-1 19,-1 h 18.5 19 l 18.5,0.5 19,1 18.5,2 18.5,2 19,2 18.5,3 19,3.5 18.5,3.5 18.5,4 19,4.5 18.5,4.5 19,5.5 18.5,5.5 19,6 18.5,6 18.5,6.5 19,6.5 18.5,4.5 19,2 18,-7 18.5,-16 18,-16.5 18,-13.5 18.5,-10 18,-7 18,-4.5 18.5,-3 18,-2 18.5,-1.5 18,-1 18,-0.5 18.5,-0.5 h 18 l 18.5,-0.5 h 18 18 18.5 18 l 18,20 18.5,15.5 18,12 18,8.5 18,5.5 18,3 18.5,1 18,-1.5 18,-4.5 18,-7 18.5,-10 18,-13 18,-16 18,-17 18,-17.5 18.5,-16 18,-13.5 18,-8.5 18,-3 18,3"
       style="fill:none;stroke:#000000;stroke-width:5;stroke-linecap:butt;stroke-linejoin:miter;stroke-miterlimit:3.8;stroke-dasharray:none;stroke-opacity:1"
       transform="matrix(0.13333333,0,0,-0.13333333,0,377.33333)" />
    <path
       id="path31"
       d="m 3961.5,2374.5 18.5,8 18,12.5 18,15 18,17 18.5,17.5 18,17 18,10 M 387,2195 l 18.5,0.5 19,1.5 18.5,1.5 18.5,2.5 19,2.5 18.5,4 19,5.5 18.5,16 18.5,17.5 19,18.5 18.5,20 18.5,21 19,21.5 18.5,22.5 19,23.5 18.5,23.5 18.5,24 19,24.5 18.5,24 18.5,24.5 19,24 18.5,23 19,22.5 18.5,21.5 18.5,19 19,17.5 18.5,14.5 18.5,11.5 19,8 18.5,-8 19,-25.5 18.5,-25 18.5,-23.5 19,-21.5 18.5,12.5 18.5,18.5 19,17.5 18.5,1.5 19,5 19,8.5 18.5,10 19,12.5 19,13.5 18.5,14 19,15 18.5,14.5 19,14.5 19,14 18.5,12.5 13.5,7.5 m 85,0 14.5,-9 18.5,-15 19,-16 19,-17.5 18.5,-17.5 19,-18 18.5,-18.5 19,-18.5 19,-19.5 18.5,-22 19,-25 19,-30 18.5,-33.5 19,-35.5 18.5,-36 19,-14 19,-10 18.5,-12 19,-13.5 18.5,-15 19,-16 19,-17 18.5,-17.5 19,-17.5 18.5,-17.5 19,-17 19,-16.5 18.5,-15.5 19,-14 18.5,-12.5 19,1.5 19,3 18.5,2.5 19,1 19,0.5 18.5,-1 18.5,-4 19,-5.5 18.5,-7.5 19,9 18.5,12 19,13.5 18.5,13.5 18.5,14 19,11.5 18.5,9 19,5 18.5,0.5 18.5,-2 19,-4 18.5,-4.5 19,-4 18.5,-3 h 19 l 18.5,4.5 18.5,9.5 19,14.5 18.5,18 19,20.5 18.5,22 19,23 18.5,22.5 18.5,22.5 19,21.5 18.5,19 19,13.5 18.5,13 19,4 18.5,1 18.5,1.5 19,1.5 18.5,2.5 19,3 18.5,4 19,5 18.5,6.5 18.5,8.5 19,10.5 18.5,12.5 19,15.5 18.5,18.5 19,21 18.5,14 18.5,2 19,1 18.5,0.5 h 19 18.5 l 18.5,-1 19,-1 18.5,-1.5 19,-2 18.5,-1.5 19,-1.5 18.5,-1.5 18.5,-1 19,-0.5 18.5,1.5 19,6 18,5.5 18.5,10 18,6.5 18,4 18.5,2.5 18,2.5 18,2 18.5,2 18,2 18.5,2 18,2 18,2 18.5,1.5 18,2 18.5,1.5 18,1 18,1 18.5,0.5 h 18 l 18,-19.5 18.5,-17 18,-14 18,-12 18,-11 18,-9 18.5,-8.5 18,-8 18,-7 18,-7 18.5,-6 18,-6 18,-5.5 18,-5 18,-5 18.5,-4.5 18,-4 18,-3.5 18,-3.5 18,-3 18.5,-2.5 18,-2.5 18,-2 18,-1.5 18.5,-1 18,-1.5 18,-9.5 m -3701.5,-3 18.5,1 19,1.5 18.5,2.5 18.5,4 19,4.5 18.5,6 19,6.5 18.5,8 18.5,9 19,10.5 18.5,11 18.5,12 19,13.5 18.5,14.5 19,15.5 18.5,16 18.5,17.5 19,18 18.5,19 18.5,19 19,19 18.5,18.5 19,16 18.5,11 9,1 m 11.5,0 17,-7.5 18.5,-17 18.5,-22 19,-24.5 18.5,-25 19,-25.5 18.5,-25 18.5,-23.5 19,8.5 18.5,23 18.5,11 19,-15.5 18.5,11 19,25 19,30 18.5,29 19,20 19,22"
       style="fill:none;stroke:#000000;stroke-width:5;stroke-linecap:butt;stroke-linejoin:miter;stroke-miterlimit:3.8;stroke-dasharray:none;stroke-opacity:1"
       transform="matrix(0.13333333,0,0,-0.13333333,0,377.33333)" />
    <path
       id="path32"
       d="m 1191.5,2737.5 4.5,6 m 248,0 10.5,-9.5 19,-16 18.5,-15.5 19,-13.5 18.5,-11.5 19,-8.5 19,-5 18.5,-14.5 19,-31.5 19,-25.5 18.5,-20.5 19,-17 18.5,-15 19,-13 19,-11.5 18.5,-10.5 19,-9.5 18.5,-8.5 19,-7 19,-6.5 18.5,-5 19,-4.5 18.5,-3 19,-2 19,-1 h 18.5 l 19,1 18.5,1.5 19,2.5 19,2 18.5,2 19,1.5 h 19 l 18.5,-1 18.5,-4 19,-6.5 18.5,-7.5 19,-9 18.5,-9.5 19,-8.5 18.5,-8 18.5,-5 19,-2 18.5,3.5 19,9.5 18.5,15.5 18.5,20 19,24 18.5,26.5 19,28 18.5,28.5 19,28.5 18.5,27 18.5,24 19,20 18.5,13.5 19,5.5 18.5,-2 19,-8.5 18.5,-21.5 18.5,-35.5 19,-34 18.5,-33.5 19,-32.5 18.5,-24 19,2 18.5,4.5 18.5,6 19,7 18.5,7 19,8 18.5,8 19,8.5 18.5,8.5 18.5,8.5 19,8.5 18.5,8.5 19,8.5 18.5,8 19,7.5 18.5,7 18.5,6.5 19,6 18.5,5 19,3.5 18.5,3 18.5,2 19,0.5 18.5,0.5 19,-0.5 18.5,-1 19,-0.5 h 18.5 l 18.5,1 19,3.5 18.5,-21 19,-14 18,5.5 18.5,10 18,6.5 18,4 18.5,2.5 18,2.5 18,2 18.5,2 18,2 18.5,2 18,2 18,2 18.5,1.5 18,2 18.5,1.5 18,1 18,1 18.5,0.5 h 18 l 18,23 18.5,24.5 18,24.5 18,19 5,1.5 m 17.5,0 13.5,-9.5 18.5,-22.5 18,-26 18,-26 18,-24.5 18.5,-21 18,-17.5 18,-14 18,-11 18,-8.5 18.5,-7 18,-5.5 18,-5 18,-4 18,-4 18.5,-4 18,-4.5 18,-5 18,-6 18.5,-9 18,-11 18,-8"
       style="fill:none;stroke:#000000;stroke-width:5;stroke-linecap:butt;stroke-linejoin:miter;stroke-miterlimit:3.8;stroke-dasharray:none;stroke-opacity:1"
       transform="matrix(0.13333333,0,0,-0.13333333,0,377.33333)" />
    <path
       id="path33"
       d="M 387,1462 H 4088.5"
       style="fill:none;stroke:#000000;stroke-width:5;stroke-linecap:butt;stroke-linejoin:miter;stroke-miterlimit:3.8;stroke-dasharray:none;stroke-opacity:1"
       transform="matrix(0.13333333,0,0,-0.13333333,0,377.33333)" />
    <path
       id="path34"
       d="M 387,2743.5 V 180 h 3701.5 v 2563.5 z"
       style="fill:none;stroke:#000000;stroke-width:10;stroke-linecap:butt;stroke-linejoin:miter;stroke-miterlimit:3.8;stroke-dasharray:none;stroke-opacity:1"
       transform="matrix(0.13333333,0,0,-0.13333333,0,377.33333)" />
    <text
       id="text34"
       xml:space="preserve"
       transform="matrix(0,-1.3333333,1.3333333,0,15.4,212.28533)"><tspan
         style="font-variant:normal;font-weight:normal;font-size:9px;writing-mode:lr-tb;fill:#000000;fill-opacity:1;fill-rule:nonzero;stroke:none"
         x="0 5.4990001 9.9989996 13.995 16.992001 21.492001 25.992001 28.242001 31.239 35.235001 41.733002"
         y="0"
         sodipodi:role="line"
         id="tspan34">Energy (eV)</tspan></text>
  </g>
</svg>
