<?xml version="1.0" encoding="UTF-8" standalone="no"?>
<svg
   width="542.66699"
   height="462.957"
   viewBox="0 0 542.66699 462.957"
   version="1.1"
   id="svg212"
   sodipodi:docname="dos.svg"
   inkscape:version="1.2 (dc2aedaf03, 2022-05-15)"
   xmlns:inkscape="http://www.inkscape.org/namespaces/inkscape"
   xmlns:sodipodi="http://sodipodi.sourceforge.net/DTD/sodipodi-0.dtd"
   xmlns:xlink="http://www.w3.org/1999/xlink"
   xmlns="http://www.w3.org/2000/svg"
   xmlns:svg="http://www.w3.org/2000/svg"
   xmlns:rdf="http://www.w3.org/1999/02/22-rdf-syntax-ns#"
   xmlns:cc="http://creativecommons.org/ns#"
   xmlns:dc="http://purl.org/dc/elements/1.1/">
  <defs
     id="defs216">
    <defs
       id="defs34">
      <circle
         id="gpDot"
         r="0.5"
         stroke-width="0.5"
         stroke="currentColor"
         cx="0"
         cy="0" />
      <path
         id="gpPt0"
         stroke-width="0.148"
         stroke="currentColor"
         d="M -1,0 H 1 M 0,-1 v 2" />
      <path
         id="gpPt1"
         stroke-width="0.148"
         stroke="currentColor"
         d="M -1,-1 1,1 M 1,-1 -1,1" />
      <path
         id="gpPt2"
         stroke-width="0.148"
         stroke="currentColor"
         d="M -1,0 H 1 M 0,-1 v 2 m -1,-2 2,2 m -2,0 2,-2" />
      <rect
         id="gpPt3"
         stroke-width="0.148"
         stroke="currentColor"
         x="-1"
         y="-1"
         width="2"
         height="2" />
      <rect
         id="gpPt4"
         stroke-width="0.148"
         stroke="currentColor"
         fill="currentColor"
         x="-1"
         y="-1"
         width="2"
         height="2" />
      <circle
         id="gpPt5"
         stroke-width="0.148"
         stroke="currentColor"
         cx="0"
         cy="0"
         r="1" />
      <use
         xlink:href="#gpPt5"
         id="gpPt6"
         fill="currentColor"
         stroke="none" />
      <path
         id="gpPt7"
         stroke-width="0.148"
         stroke="currentColor"
         d="m 0,-1.33 -1.33,2 h 2.66 z" />
      <use
         xlink:href="#gpPt7"
         id="gpPt8"
         fill="currentColor"
         stroke="none" />
      <use
         xlink:href="#gpPt7"
         id="gpPt9"
         stroke="currentColor"
         transform="scale(-1)" />
      <use
         xlink:href="#gpPt9"
         id="gpPt10"
         fill="currentColor"
         stroke="none" />
      <use
         xlink:href="#gpPt3"
         id="gpPt11"
         stroke="currentColor"
         transform="rotate(45)" />
      <use
         xlink:href="#gpPt11"
         id="gpPt12"
         fill="currentColor"
         stroke="none" />
      <path
         id="gpPt13"
         stroke-width="0.148"
         stroke="currentColor"
         d="M 0,1.33 1.265,0.411 0.782,-1.067 -0.782,-1.076 -1.265,0.411 Z" />
      <use
         xlink:href="#gpPt13"
         id="gpPt14"
         fill="currentColor"
         stroke="none" />
      <filter
         id="textbox"
         filterUnits="objectBoundingBox"
         x="0"
         y="0"
         height="1"
         width="1">
        <feFlood
           flood-color="white"
           flood-opacity="1"
           result="bgnd"
           id="feFlood24" />
        <feComposite
           in="SourceGraphic"
           in2="bgnd"
           operator="atop"
           id="feComposite26" />
      </filter>
      <filter
         id="greybox"
         filterUnits="objectBoundingBox"
         x="0"
         y="0"
         height="1"
         width="1">
        <feFlood
           flood-color="lightgrey"
           flood-opacity="1"
           result="grey"
           id="feFlood29" />
        <feComposite
           in="SourceGraphic"
           in2="grey"
           operator="atop"
           id="feComposite31" />
      </filter>
    </defs>
  </defs>
  <sodipodi:namedview
     id="namedview214"
     pagecolor="#ffffff"
     bordercolor="#666666"
     borderopacity="1.0"
     inkscape:showpageshadow="2"
     inkscape:pageopacity="0.0"
     inkscape:pagecheckerboard="0"
     inkscape:deskcolor="#d1d1d1"
     showgrid="false"
     inkscape:zoom="1.2969159"
     inkscape:cx="516.61023"
     inkscape:cy="229.00483"
     inkscape:window-width="1858"
     inkscape:window-height="1057"
     inkscape:window-x="-8"
     inkscape:window-y="-8"
     inkscape:window-maximized="1"
     inkscape:current-layer="svg212" />
  <title
     id="title2">Gnuplot</title>
  <desc
     id="desc4">Produced by GNUPLOT 5.4 patchlevel 3 </desc>
  <g
     fill="none"
     color="#ffffff"
     stroke="currentColor"
     stroke-width="1"
     stroke-linecap="butt"
     stroke-linejoin="miter"
     id="g36"
     transform="translate(-672.6525,-116.93137)" />
  <g
     fill="none"
     color="#000000"
     stroke="currentColor"
     stroke-width="1"
     stroke-linecap="butt"
     stroke-linejoin="miter"
     id="g46"
     transform="translate(-32.672656,-15.9225)">
    <path
       stroke="#000000"
       d="m 108.9,420.6 h 13.5 m 439.79,0 h -13.5"
       id="path38" />
    <g
       transform="translate(97.56,426.45)"
       stroke="none"
       fill="#000000"
       font-family="Arial"
       font-size="18px"
       text-anchor="end"
       id="g44">
      <text
         id="text42"><tspan
           font-family="Arial"
           id="tspan40">0</tspan></text>
    </g>
  </g>
  <g
     fill="none"
     color="#000000"
     stroke="currentColor"
     stroke-width="1"
     stroke-linecap="butt"
     stroke-linejoin="miter"
     id="g56"
     transform="translate(-32.672656,-15.9225)">
    <path
       stroke="#000000"
       d="m 108.9,364.37 h 13.5 m 439.79,0 h -13.5"
       id="path48" />
    <g
       transform="translate(97.56,370.22)"
       stroke="none"
       fill="#000000"
       font-family="Arial"
       font-size="18px"
       text-anchor="end"
       id="g54">
      <text
         id="text52"><tspan
           font-family="Arial"
           id="tspan50">0.2</tspan></text>
    </g>
  </g>
  <g
     fill="none"
     color="#000000"
     stroke="currentColor"
     stroke-width="1"
     stroke-linecap="butt"
     stroke-linejoin="miter"
     id="g66"
     transform="translate(-32.672656,-15.9225)">
    <path
       stroke="#000000"
       d="m 108.9,308.15 h 13.5 m 439.79,0 h -13.5"
       id="path58" />
    <g
       transform="translate(97.56,314)"
       stroke="none"
       fill="#000000"
       font-family="Arial"
       font-size="18px"
       text-anchor="end"
       id="g64">
      <text
         id="text62"><tspan
           font-family="Arial"
           id="tspan60">0.4</tspan></text>
    </g>
  </g>
  <g
     fill="none"
     color="#000000"
     stroke="currentColor"
     stroke-width="1"
     stroke-linecap="butt"
     stroke-linejoin="miter"
     id="g76"
     transform="translate(-32.672656,-15.9225)">
    <path
       stroke="#000000"
       d="m 108.9,251.92 h 13.5 m 439.79,0 h -13.5"
       id="path68" />
    <g
       transform="translate(97.56,257.77)"
       stroke="none"
       fill="#000000"
       font-family="Arial"
       font-size="18px"
       text-anchor="end"
       id="g74">
      <text
         id="text72"><tspan
           font-family="Arial"
           id="tspan70">0.6</tspan></text>
    </g>
  </g>
  <g
     fill="none"
     color="#000000"
     stroke="currentColor"
     stroke-width="1"
     stroke-linecap="butt"
     stroke-linejoin="miter"
     id="g86"
     transform="translate(-32.672656,-15.9225)">
    <path
       stroke="#000000"
       d="m 108.9,195.69 h 13.5 m 439.79,0 h -13.5"
       id="path78" />
    <g
       transform="translate(97.56,201.54)"
       stroke="none"
       fill="#000000"
       font-family="Arial"
       font-size="18px"
       text-anchor="end"
       id="g84">
      <text
         id="text82"><tspan
           font-family="Arial"
           id="tspan80">0.8</tspan></text>
    </g>
  </g>
  <g
     fill="none"
     color="#000000"
     stroke="currentColor"
     stroke-width="1"
     stroke-linecap="butt"
     stroke-linejoin="miter"
     id="g96"
     transform="translate(-32.672656,-15.9225)">
    <path
       stroke="#000000"
       d="m 108.9,139.46 h 13.5 m 439.79,0 h -13.5"
       id="path88" />
    <g
       transform="translate(97.56,145.31)"
       stroke="none"
       fill="#000000"
       font-family="Arial"
       font-size="18px"
       text-anchor="end"
       id="g94">
      <text
         id="text92"><tspan
           font-family="Arial"
           id="tspan90">1</tspan></text>
    </g>
  </g>
  <g
     fill="none"
     color="#000000"
     stroke="currentColor"
     stroke-width="1"
     stroke-linecap="butt"
     stroke-linejoin="miter"
     id="g106"
     transform="translate(-32.672656,-15.9225)">
    <path
       stroke="#000000"
       d="m 108.9,83.24 h 13.5 m 439.79,0 h -13.5"
       id="path98" />
    <g
       transform="translate(97.56,89.09)"
       stroke="none"
       fill="#000000"
       font-family="Arial"
       font-size="18px"
       text-anchor="end"
       id="g104">
      <text
         id="text102"><tspan
           font-family="Arial"
           id="tspan100">1.2</tspan></text>
    </g>
  </g>
  <g
     fill="none"
     color="#000000"
     stroke="currentColor"
     stroke-width="1"
     stroke-linecap="butt"
     stroke-linejoin="miter"
     id="g116"
     transform="translate(-32.672656,-15.9225)">
    <path
       stroke="#000000"
       d="m 108.9,27.01 h 13.5 m 439.79,0 h -13.5"
       id="path108" />
    <g
       transform="translate(97.56,32.86)"
       stroke="none"
       fill="#000000"
       font-family="Arial"
       font-size="18px"
       text-anchor="end"
       id="g114">
      <text
         id="text112"><tspan
           font-family="Arial"
           id="tspan110">1.4</tspan></text>
    </g>
  </g>
  <g
     fill="none"
     color="#000000"
     stroke="currentColor"
     stroke-width="1"
     stroke-linecap="butt"
     stroke-linejoin="miter"
     id="g126"
     transform="translate(-32.672656,-15.9225)">
    <path
       stroke="#000000"
       d="m 159.27,420.6 v -13.5 m 0,-380.09 v 13.5"
       id="path118" />
    <g
       transform="translate(159.27,448.05)"
       stroke="none"
       fill="#000000"
       font-family="Arial"
       font-size="18px"
       text-anchor="middle"
       id="g124">
      <text
         id="text122"><tspan
           font-family="Arial"
           id="tspan120">-20</tspan></text>
    </g>
  </g>
  <g
     fill="none"
     color="#000000"
     stroke="currentColor"
     stroke-width="1"
     stroke-linecap="butt"
     stroke-linejoin="miter"
     id="g136"
     transform="translate(-32.672656,-15.9225)">
    <path
       stroke="#000000"
       d="m 260,420.6 v -13.5 m 0,-380.09 v 13.5"
       id="path128" />
    <g
       transform="translate(260,448.05)"
       stroke="none"
       fill="#000000"
       font-family="Arial"
       font-size="18px"
       text-anchor="middle"
       id="g134">
      <text
         id="text132"><tspan
           font-family="Arial"
           id="tspan130">-10</tspan></text>
    </g>
  </g>
  <g
     fill="none"
     color="#000000"
     stroke="currentColor"
     stroke-width="1"
     stroke-linecap="butt"
     stroke-linejoin="miter"
     id="g146"
     transform="translate(-32.672656,-15.9225)">
    <path
       stroke="#000000"
       d="m 360.73,420.6 v -13.5 m 0,-380.09 v 13.5"
       id="path138" />
    <g
       transform="translate(360.73,448.05)"
       stroke="none"
       fill="#000000"
       font-family="Arial"
       font-size="18px"
       text-anchor="middle"
       id="g144">
      <text
         id="text142"><tspan
           font-family="Arial"
           id="tspan140">0</tspan></text>
    </g>
  </g>
  <g
     fill="none"
     color="#000000"
     stroke="currentColor"
     stroke-width="1"
     stroke-linecap="butt"
     stroke-linejoin="miter"
     id="g156"
     transform="translate(-32.672656,-15.9225)">
    <path
       stroke="#000000"
       d="m 461.46,420.6 v -13.5 m 0,-380.09 v 13.5"
       id="path148" />
    <g
       transform="translate(461.46,448.05)"
       stroke="none"
       fill="#000000"
       font-family="Arial"
       font-size="18px"
       text-anchor="middle"
       id="g154">
      <text
         id="text152"><tspan
           font-family="Arial"
           id="tspan150">10</tspan></text>
    </g>
  </g>
  <g
     fill="none"
     color="#000000"
     stroke="currentColor"
     stroke-width="1"
     stroke-linecap="butt"
     stroke-linejoin="miter"
     id="g166"
     transform="translate(-32.672656,-15.9225)">
    <path
       stroke="#000000"
       d="m 562.19,420.6 v -13.5 m 0,-380.09 v 13.5"
       id="path158" />
    <g
       transform="translate(562.19,448.05)"
       stroke="none"
       fill="#000000"
       font-family="Arial"
       font-size="18px"
       text-anchor="middle"
       id="g164">
      <text
         id="text162"><tspan
           font-family="Arial"
           id="tspan160">20</tspan></text>
    </g>
  </g>
  <g
     fill="none"
     color="#000000"
     stroke="currentColor"
     stroke-width="1"
     stroke-linecap="butt"
     stroke-linejoin="miter"
     id="g168"
     transform="translate(-672.6525,-116.93137)" />
  <g
     fill="none"
     color="#000000"
     stroke="currentColor"
     stroke-width="1"
     stroke-linecap="butt"
     stroke-linejoin="miter"
     id="g172"
     transform="translate(-32.672656,-15.9225)">
    <path
       stroke="#000000"
       d="M 108.9,27.01 V 420.6 H 562.19 V 27.01 Z"
       id="path170" />
  </g>
  <g
     fill="none"
     color="#000000"
     stroke="currentColor"
     stroke-width="1"
     stroke-linecap="butt"
     stroke-linejoin="miter"
     id="g180"
     transform="translate(-22.672656,-15.9225)">
    <g
       transform="rotate(-90,133.255,90.555)"
       stroke="none"
       fill="#000000"
       font-family="Arial"
       font-size="22px"
       text-anchor="middle"
       id="g178">
      <text
         id="text176"><tspan
           font-family="Arial"
           id="tspan174">DOS</tspan></text>
    </g>
  </g>
  <g
     fill="none"
     color="#000000"
     stroke="currentColor"
     stroke-width="1"
     stroke-linecap="butt"
     stroke-linejoin="miter"
     id="g188"
     transform="translate(-32.672656,-13.9225)">
    <g
       transform="translate(335.54,468.25)"
       stroke="none"
       fill="#000000"
       font-family="Arial"
       font-size="22px"
       text-anchor="middle"
       id="g186">
      <text
         id="text184"><tspan
           font-family="Arial"
           id="tspan182">Energy (eV)</tspan></text>
    </g>
  </g>
  <g
     fill="none"
     color="#000000"
     stroke="currentColor"
     stroke-width="1"
     stroke-linecap="butt"
     stroke-linejoin="miter"
     id="g190"
     transform="translate(-672.6525,-116.93137)" />
  <g
     id="gnuplot_plot_1"
     transform="translate(-32.672656,-15.9225)">
    <title
       id="title192">'cdia.Dos.Tetrahedron'</title>
    <g
       fill="none"
       color="#000000"
       stroke="currentColor"
       stroke-width="1"
       stroke-linecap="butt"
       stroke-linejoin="miter"
       id="g196">
      <path
         stroke="#9400d3"
         d="m 108.9,420.6 h 0.1 0.1 0.1 0.1 0.1 0.1 0.11 0.1 0.1 0.1 0.1 0.1 0.1 0.1 0.1 0.1 0.1 0.1 0.1 0.11 0.1 0.1 0.1 0.1 0.1 0.1 0.1 0.1 0.1 0.1 0.1 0.1 0.11 0.1 0.1 0.1 0.1 0.1 0.1 0.1 0.1 0.1 0.1 0.1 0.1 0.11 0.1 0.1 0.1 0.1 0.1 0.1 0.1 0.1 0.1 0.1 0.1 0.11 0.1 0.1 0.1 0.1 0.1 0.1 0.1 0.1 0.1 0.1 0.1 0.1 0.11 0.1 0.1 0.1 0.1 0.1 0.1 0.1 0.1 0.1 0.1 0.1 0.1 0.11 0.1 0.1 0.1 0.1 0.1 0.1 0.1 0.1 0.1 0.1 0.1 0.1 0.11 0.1 0.1 0.1 0.1 0.1 0.1 0.1 0.1 0.1 0.1 0.1 0.1 0.11 0.1 0.1 0.1 0.1 0.1 0.1 0.1 0.1 0.1 0.1 0.1 0.1 0.11 0.1 0.1 0.1 0.1 0.1 0.1 0.1 0.1 0.1 0.1 l 0.1,-0.02 0.1,-0.06 0.11,-0.09 0.1,-0.12 0.1,-0.16 0.1,-0.19 0.1,-0.22 0.1,-0.26 0.1,-0.29 0.1,-0.33 0.1,-0.35 0.1,-0.4 0.1,-0.42 0.1,-0.46 0.1,-0.49 0.11,-0.53 0.1,-0.56 0.1,-0.59 0.1,-0.62 0.1,-4.18 0.1,-4.39 0.1,-2.63 0.1,-0.86 0.1,0.9 0.1,2.67 0.1,3.45 0.1,-0.28 0.1,-0.3 0.11,-0.29 0.1,-0.3 0.1,-0.3 0.1,-0.3 0.1,-0.31 0.1,-0.3 0.1,-0.32 0.1,-0.31 0.1,-0.32 0.1,-0.32 0.1,-0.32 0.1,-0.32 0.11,-0.33 0.1,-0.33 0.1,-0.34 0.1,-0.33 0.1,-0.34 0.1,-0.34 0.1,-0.35 0.1,-0.35 0.1,-0.35 0.1,-0.35 0.1,-0.36 0.1,-0.41 0.1,-0.57 0.11,-0.54 0.1,-0.52 0.1,-0.48 0.1,-0.46 0.1,-0.42 0.1,-0.4 0.1,-0.37 0.1,-0.35 0.1,-0.31 0.1,-0.28 0.1,-0.26 0.1,-0.23 0.1,-0.2 0.11,-0.17 0.1,-0.14 0.1,-0.11 0.1,-0.09 0.1,-0.05 0.1,0.43 0.1,0.45 0.1,0.32 0.1,0.21 0.1,0.08 0.1,-0.03 0.1,-0.15 0.1,-0.18 0.11,-0.18 0.1,-0.19 0.1,-0.18 0.1,-0.19 0.1,-0.19 0.1,-0.19 0.1,-0.2 0.1,-0.2 0.1,-0.2 0.1,-0.2 0.1,-0.21 0.1,-0.21 0.1,-0.21 0.11,-0.21 0.1,-0.22 0.1,-0.22 0.1,-0.22 0.1,-0.23 0.1,-0.22 0.1,-0.23 0.1,-0.23 0.1,-0.24 0.1,-0.23 0.1,-0.24 0.1,-0.25 0.1,-0.24 0.11,-0.24 0.1,-0.25 0.1,-0.24 0.1,-0.24 0.1,-0.25 0.1,-0.24 0.1,-0.25 0.1,-0.24 0.1,-0.25 0.1,-0.24 0.1,-0.25 0.1,-0.24 0.1,-0.25 0.11,-0.25 0.1,-0.24 0.1,-0.25 0.1,-0.25 0.1,-0.24 0.1,-0.16 0.1,-0.13 0.1,-0.09 0.1,-0.05 0.1,-0.01 0.1,0.03 0.1,-0.08 0.1,-0.12 0.11,-0.12 0.1,-0.12 0.1,-0.12 0.1,-0.12 0.1,-0.11 0.1,-0.11 0.1,-0.12 0.1,-0.11 0.1,-0.1 0.1,-0.11 0.1,-0.1 0.1,-0.11 0.1,-0.1 0.11,-0.1 0.1,-0.1 0.1,-0.09 0.1,-0.1 0.1,-0.09 0.1,-0.09 0.1,-0.09 0.1,-0.09 0.1,-0.09 0.1,-0.08 0.1,-0.08 0.1,-0.03 0.11,-0.03 0.1,-0.05 0.1,-0.05 0.1,-0.06 0.1,-0.07 0.1,-0.07 0.1,-0.08 0.1,-0.09 0.1,-0.09 0.1,-0.11 0.1,-0.1 0.1,-0.12 0.1,-0.13 0.11,-0.13 0.1,-0.14 0.1,-0.14 0.1,-0.16 0.1,-0.16 0.1,-0.17 0.1,-0.18 0.1,-0.18 0.1,-0.18 0.1,-0.19 0.1,-0.18 0.1,-0.18 0.1,-0.18 0.11,-0.19 0.1,-0.18 0.1,-0.19 0.1,-0.18 0.1,-0.19 0.1,-0.18 0.1,-0.19 0.1,-0.19 0.1,-0.19 0.1,-0.18 0.1,-0.19 0.1,-0.19 0.1,-0.19 0.11,-0.19 0.1,-0.19 0.1,-0.19 0.1,-0.2 0.1,-0.19 0.1,-0.19 0.1,-0.2 0.1,-0.19 0.1,-0.19 0.1,-0.2 0.1,-0.2 0.1,-0.18 0.1,-0.18 0.11,-0.17 0.1,-0.16 0.1,-0.14 0.1,-0.14 0.1,-0.12 0.1,-0.11 0.1,-0.1 0.1,-0.09 0.1,-0.08 0.1,-0.07 0.1,-0.06 0.1,-0.04 0.1,-0.03 0.11,-0.03 0.1,-0.01 h 0.1 l 0.1,0.01 0.1,0.03 0.1,-0.01 0.1,-0.05 0.1,-0.08 0.1,-0.13 0.1,-0.17 0.1,-0.11 0.1,-0.1 0.1,-0.1 0.11,-0.1 0.1,-0.1 0.1,-0.1 0.1,-0.1 0.1,-0.1 0.1,-0.1 0.1,-0.1 0.1,-0.1 0.1,-0.1 0.1,-0.11 0.1,-0.1 0.1,-0.1 0.1,-0.1 0.11,-0.11 0.1,-0.1 0.1,-0.1 0.1,-0.11 0.1,-0.1 0.1,-0.11 0.1,-0.1 0.1,-0.11 0.1,-0.1 0.1,-0.11 0.1,-0.1 0.1,-0.09 0.1,-0.1 0.11,-0.1 0.1,-0.1 0.1,-0.1 0.1,-0.09 0.1,-0.1 0.1,-0.09 0.1,-0.1 0.1,-0.09 0.1,-0.1 0.1,-0.09 0.1,-0.1 0.1,-0.09 0.11,-0.09 0.1,-0.09 0.1,-0.09 0.1,-0.08 0.1,-0.09 0.1,-0.09 0.1,-0.1 0.1,-0.11 0.1,-0.12 0.1,-0.12 0.1,-0.13 0.1,-0.13 0.1,-0.13 0.11,-0.13 0.1,-0.13 0.1,-0.14 0.1,-0.13 0.1,-0.14 0.1,-0.14 0.1,-0.14 0.1,-0.14 0.1,-0.14 0.1,-0.14 0.1,-0.15 0.1,-0.15 0.1,-0.14 0.11,-0.15 0.1,-0.15 0.1,-0.16 0.1,-0.15 0.1,-0.15 0.1,-0.16 0.1,-0.16 0.1,-0.16 0.1,-0.16 0.1,-0.16 0.1,-0.16 0.1,-0.16 0.1,-0.17 0.11,-0.16 0.1,-0.16 0.1,-0.17 0.1,-0.16 0.1,-0.17 0.1,-0.17 0.1,-0.17 0.1,-0.16 0.1,-0.17 0.1,-0.17 0.1,-0.17 0.1,-0.18 0.1,-0.17 0.11,-0.17 0.1,-0.11 0.1,-0.08 0.1,-0.06 0.1,-0.05 0.1,-0.03 0.1,-0.03 0.1,-0.02 0.1,-0.1 0.1,-0.08 0.1,-0.09 0.1,-0.09 0.1,-0.08 0.11,-0.08 0.1,-0.09 0.1,-0.07 0.1,-0.08 0.1,-0.08 0.1,-0.07 0.1,-0.07 0.1,-0.07 0.1,-0.07 0.1,-0.07 0.1,-0.07 0.1,-0.06 0.1,-0.06 0.11,-0.06 0.1,-0.06 0.1,-0.06 0.1,-0.05 0.1,-0.06 0.1,-0.05 0.1,-0.07 0.1,-0.07 0.1,-0.08 0.1,-0.09 0.1,-0.08 0.1,-0.09 0.1,-0.1 0.11,-0.09 0.1,-0.1 0.1,-0.11 0.1,-0.11 0.1,-0.11 0.1,-0.12 0.1,-0.12 0.1,-0.12 0.1,-0.13 0.1,-0.13 0.1,-0.13 0.1,-0.12 0.1,-0.12 0.11,-0.12 0.1,-0.11 0.1,-0.12 0.1,-0.12 0.1,-0.11 0.1,-0.12 0.1,-0.12 0.1,-0.11 0.1,-0.12 0.1,-0.12 0.1,-0.12 0.1,-0.11 0.11,-0.12 0.1,-0.12 0.1,-0.12 0.1,-0.11 0.1,-0.12 0.1,-0.12 0.1,-0.12 0.1,-0.11 0.1,-0.12 0.1,-0.12 0.1,-0.12 0.1,-0.12 0.1,-0.12 0.11,-0.11 0.1,-0.12 0.1,-0.12 0.1,-0.12 0.1,-0.12 0.1,-0.12 0.1,-0.12 0.1,-0.11 0.1,-0.12 0.1,-0.12 0.1,-0.12 0.1,-0.12 0.1,-0.12 0.11,-0.12 0.1,-0.12 0.1,-0.12 0.1,-0.12 0.1,-0.12 0.1,-0.12 0.1,-0.12 0.1,-0.12 0.1,-0.12 0.1,-0.13 0.1,-0.13 0.1,-0.13 0.1,-0.15 0.11,-0.14 0.1,-0.15 0.1,-0.15 0.1,-0.15 0.1,-0.15 0.1,-0.15 0.1,-0.15 0.1,-0.16 0.1,-0.15 0.1,-0.16 0.1,-0.16 0.1,-0.16 0.1,-0.16 0.11,-0.16 0.1,-0.17 0.1,-0.17 0.1,-0.16 0.1,-0.18 0.1,-0.17 0.1,-0.17 0.1,-0.18 0.1,-0.17 0.1,-0.18 0.1,-0.18 0.1,-0.18 0.1,-0.19 0.11,-0.18 0.1,-0.18 0.1,-0.18 0.1,-0.18 0.1,-0.17 0.1,-0.17 0.1,-0.17 0.1,-0.16 0.1,-0.16 0.1,-0.15 0.1,-0.16 0.1,-0.15 0.1,-0.14 0.11,-0.15 0.1,-0.14 0.1,-0.13 0.1,-0.14 0.1,-0.13 0.1,-0.1 0.1,-0.09 0.1,-0.11 0.1,-0.13 0.1,-0.15 0.1,-0.17 0.1,-0.16 0.1,-0.16 0.11,-0.17 0.1,-0.16 0.1,-0.17 0.1,-0.17 0.1,-0.17 0.1,-0.17 0.1,-0.17 0.1,-0.17 0.1,-0.17 0.1,-0.18 0.1,-0.17 0.1,-0.18 0.1,-0.17 0.11,-0.18 0.1,-0.18 0.1,-0.18 0.1,-0.18 0.1,-0.19 0.1,-0.18 0.1,-0.19 0.1,-0.18 0.1,-0.19 0.1,-0.19 0.1,-0.19 0.1,-0.19 0.11,-0.19 0.1,-0.19 0.1,-0.19 0.1,-0.19 0.1,-0.2 0.1,-0.19 0.1,-0.2 0.1,-0.2 0.1,-0.19 0.1,-0.2 0.1,-0.2 0.1,-0.27 0.1,-0.28 0.11,-0.3 0.1,-0.32 0.1,-0.33 0.1,-0.36 0.1,-0.38 0.1,-0.39 0.1,-0.42 0.1,-0.43 0.1,-0.43 0.1,-0.45 0.1,-0.46 0.1,-0.48 0.1,-0.5 0.11,-0.51 0.1,-0.52 0.1,-0.55 0.1,-0.56 0.1,-0.57 0.1,-0.59 0.1,-0.61 0.1,-0.51 0.1,-0.45 0.1,-0.45 0.1,-0.43 0.1,-0.43 0.1,-0.42 0.11,-0.41 0.1,-0.4 0.1,-0.4 0.1,-0.38 0.1,-0.38 0.1,-0.37 0.1,-0.36 0.1,-0.35 0.1,-0.34 0.1,-0.34 0.1,-0.32 0.1,-0.32 0.1,-0.31 0.11,-0.3 0.1,-0.29 0.1,-0.28 0.1,-0.28 0.1,-0.26 0.1,-0.26 0.1,-0.25 0.1,-0.24 0.1,-0.23 0.1,-0.23 0.1,-0.21 0.1,-0.21 0.1,-0.2 0.11,-0.18 0.1,-0.18 0.1,-0.18 0.1,-0.16 0.1,-0.15 0.1,-0.15 0.1,-0.13 0.1,-0.13 0.1,-0.12 0.1,-0.11 0.1,-0.1 0.1,-0.09 0.1,-0.08 0.11,-0.08 0.1,0.41 0.1,2.41 0.1,0.04 h 0.1 l 0.1,-0.05 0.1,-0.09 0.1,-0.13 0.1,-0.13 0.1,-0.14 0.1,-0.13 0.1,-0.14 0.1,-0.14 0.11,-0.14 0.1,-0.15 0.1,-0.14 0.1,-0.15 0.1,-0.14 0.1,-0.15 0.1,-0.15 0.1,-0.15 0.1,-0.15 0.1,-0.16 0.1,-0.15 0.1,-0.16 0.1,-0.16 0.11,-0.17 0.1,-0.17 0.1,-0.17 0.1,-0.15 0.1,-0.13 0.1,-0.11 0.1,-0.09 0.1,-0.06 0.1,-0.04 h 0.1 l 0.1,0.04 0.1,0.06 0.11,0.11 0.1,0.13 0.1,0.17 0.1,0.2 0.1,0.23 0.1,0.27 0.1,0.3 0.1,0.33 0.1,0.37 0.1,-0.4 0.1,-2.32 0.1,0.66 0.1,0.65 0.11,0.66 0.1,0.67 0.1,0.37 0.1,0.36 0.1,0.36 0.1,0.36 0.1,0.37 0.1,0.37 0.1,0.37 0.1,0.38 0.1,0.38 0.1,0.39 0.1,0.39 0.11,0.39 0.1,0.4 0.1,0.4 0.1,0.4 0.1,0.41 0.1,0.41 0.1,0.42 0.1,0.42 0.1,0.42 0.1,0.42 0.1,0.42 0.1,0.4 0.1,0.38 0.11,0.37 0.1,0.36 0.1,0.33 0.1,0.33 0.1,0.31 0.1,0.29 0.1,0.28 0.1,0.26 0.1,0.25 0.1,0.23 0.1,0.22 0.1,0.2 0.1,0.19 0.11,0.17 0.1,0.16 0.1,0.15 0.1,0.13 0.1,0.24 0.1,0.24 0.1,0.24 0.1,0.23 0.1,0.23 0.1,0.22 0.1,0.22 0.1,0.22 0.1,0.22 0.11,0.21 0.1,0.21 0.1,0.2 0.1,0.2 0.1,0.2 0.1,0.2 0.1,0.19 0.1,0.19 0.1,0.18 0.1,0.18 0.1,0.18 0.1,0.17 0.1,0.17 0.11,0.17 0.1,0.16 0.1,0.16 0.1,0.16 0.1,0.16 0.1,0.15 0.1,0.14 0.1,0.15 0.1,0.14 0.1,0.13 0.1,0.13 0.1,0.13 0.1,0.13 0.11,0.12 0.1,0.12 0.1,0.12 0.1,0.11 0.1,0.11 0.1,0.11 0.1,0.11 0.1,0.1 0.1,0.1 0.1,0.1 0.1,0.09 0.1,0.09 0.1,0.09 0.11,0.05 0.1,0.01 0.1,-0.01 0.1,-0.01 0.1,-0.02 0.1,-0.02 0.1,-0.03 0.1,-0.03 0.1,-0.04 0.1,-0.05 0.1,-0.06 0.1,-0.06 0.11,-0.06 0.1,-0.08 0.1,-0.07 0.1,-0.09 0.1,-0.09 0.1,-0.1 0.1,-0.1 0.1,-0.11 0.1,-0.12 0.1,-0.12 0.1,-0.13 0.1,-0.13 0.1,-0.14 0.11,-0.15 0.1,-0.15 0.1,-0.16 0.1,-0.17 0.1,-0.17 0.1,-0.15 0.1,0.06 0.1,0.31 0.1,0.56 0.1,0.82 0.1,1.07 0.1,1.35 0.1,0.38 0.11,0.16 0.1,0.16 0.1,0.16 0.1,0.15 0.1,0.16 0.1,0.15 0.1,0.15 0.1,0.16 0.1,0.15 0.1,0.16 0.1,0.16 0.1,0.16 0.1,0.17 0.11,0.17 0.1,0.17 0.1,0.17 0.1,0.18 0.1,0.18 0.1,0.18 0.1,0.19 0.1,0.18 0.1,0.19 0.1,0.19 0.1,0.2 0.1,0.2 0.1,0.2 0.11,0.2 0.1,0.2 0.1,0.21 0.1,0.21 0.1,0.22 0.1,0.21 0.1,0.22 0.1,0.22 0.1,0.22 0.1,0.31 0.1,0.32 0.1,0.34 0.1,0.34 0.11,0.3 0.1,0.32 0.1,0.31 0.1,0.32 0.1,0.33 0.1,0.33 0.1,0.33 0.1,0.34 0.1,0.34 0.1,0.35 0.1,0.36 0.1,0.37 0.1,0.37 0.11,0.38 0.1,0.37 0.1,0.37 0.1,0.37 0.1,0.37 0.1,0.37 0.1,0.38 0.1,0.37 0.1,0.37 0.1,0.37 0.1,0.37 0.1,0.37 0.1,0.37 0.11,0.37 0.1,0.37 0.1,0.37 0.1,0.37 0.1,0.37 0.1,0.37 0.1,0.36 0.1,0.37 0.1,0.37 0.1,0.37 0.1,0.37 0.1,0.37 0.1,0.36 0.11,0.37 0.1,0.37 0.1,0.37 0.1,0.36 0.1,0.37 0.1,0.37 0.1,0.36 0.1,0.37 0.1,0.37 0.1,0.36 0.1,-0.3 0.1,-1.29 0.11,-0.72 0.1,-0.19 0.1,0.34 0.1,0.86 0.1,1.39 0.1,1.55 0.1,0.34 0.1,0.36 0.1,0.36 0.1,0.36 0.1,0.37 0.1,0.37 0.1,0.38 0.11,0.38 0.1,0.39 0.1,0.39 0.1,0.4 0.1,0.4 0.1,0.41 0.1,0.41 0.1,0.42 0.1,0.42 0.1,0.43 0.1,0.41 0.1,0.33 0.1,0.32 0.11,0.3 0.1,0.29 0.1,0.27 0.1,0.25 0.1,0.24 0.1,0.21 0.1,0.18 0.1,0.16 0.1,0.14 0.1,0.12 0.1,0.09 0.1,0.06 0.1,0.05 0.11,0.02 0.1,-0.01 0.1,-0.03 0.1,-0.06 0.1,-0.09 0.1,-0.13 0.1,-0.15 0.1,-0.18 0.1,-0.15 0.1,-0.11 0.1,-0.08 0.1,-0.04 h 0.1 l 0.11,0.04 0.1,0.07 0.1,0.1 0.1,-0.03 0.1,-0.25 0.1,-0.26 0.1,-0.27 0.1,-0.29 0.1,-0.28 0.1,-0.3 0.1,-0.31 0.1,-0.32 0.1,-0.33 0.11,-0.33 0.1,-0.35 0.1,-0.35 0.1,-0.36 0.1,-0.37 0.1,-0.39 0.1,-0.39 0.1,-0.4 0.1,-0.4 0.1,-0.42 0.1,-0.43 0.1,-0.44 0.1,-0.47 0.11,-0.48 0.1,-0.5 0.1,-0.52 0.1,-0.54 0.1,-0.55 0.1,-0.58 0.1,-0.6 0.1,-0.61 0.1,-1.19 0.1,-1.96 0.1,-1.85 0.1,-1.75 0.1,-1.64 0.11,-1.54 0.1,-1.46 0.1,-1.39 0.1,-1.32 0.1,-1.25 0.1,-1.18 0.1,-1.11 0.1,-1.06 0.1,-1.08 0.1,-1.1 0.1,-1.12 0.1,-1.14 0.1,-1.16 0.11,-1.18 0.1,-1.21 0.1,-1.22 0.1,-1.25 0.1,-1.27 0.1,-1.29 0.1,-1.31 0.1,-1.34 0.1,-1.35 0.1,-1.39 0.1,-1.44 0.1,-1.47 0.11,-1.52 0.1,-1.55 0.1,-1.6 0.1,-1.64 0.1,-1.68 0.1,-1.72 0.1,-1.77 0.1,-1.8 0.1,-1.85 0.1,-1.88 0.1,-1.93 0.1,-1.97 0.1,-2.01 0.11,-2.08 0.1,-2.18 0.1,-2.29 0.1,-2.39 0.1,-2.5 0.1,-2.61 0.1,-2.72 0.1,-2.82 0.1,-3.48 0.1,-3.51 0.1,-3.32 0.1,-3.15 0.1,-2.98 0.11,-2.66 0.1,-2.11 0.1,-2.02 0.1,-1.94 0.1,-1.85 0.1,-1.77 0.1,-1.68 0.1,-1.6 0.1,-1.51 0.1,-1.43 0.1,-1.34 0.1,-1.26 0.1,-1.17 0.11,-1.09 0.1,-1.09 0.1,-1.06 0.1,-1.04 0.1,-1.02 0.1,-0.99 0.1,-0.97 0.1,-0.94 0.1,-0.94 0.1,-0.87 0.1,-0.8 0.1,-0.72 0.1,-0.65 0.11,-0.57 0.1,-0.5 0.1,-0.43 0.1,-0.35 0.1,-0.25 0.1,-0.18 0.1,-0.11 0.1,-0.04 0.1,0.03 0.1,-0.36 0.1,-0.25 0.1,-0.1 0.1,0.03 0.11,0.17 0.1,0.3 0.1,0.45 0.1,0.58 0.1,0.93 0.1,1.11 0.1,1.21 0.1,1.32 0.1,1.42 0.1,1.52 0.1,1.63 0.1,1.73 0.1,1.84 0.11,1.94 0.1,2.05 0.1,2.15 0.1,2.36 0.1,2.33 0.1,2.29 0.1,2.24 0.1,2.2 0.1,2.16 0.1,2.12 0.1,2.07 0.1,2.04 0.1,1.99 0.11,1.95 0.1,1.91 0.1,1.86 0.1,1.83 0.1,1.78 0.1,1.74 0.1,1.72 0.1,1.69 0.1,1.66 0.1,1.63 0.1,1.61 0.1,1.58 0.1,1.54 0.11,1.28 0.1,1.23 0.1,1.19 0.1,1.15 0.1,1.1 0.1,1.09 0.1,1.06 0.1,1.03 0.1,1.01 0.1,0.99 0.1,0.96 0.1,0.94 0.11,0.92 0.1,0.89 0.1,0.87 0.1,0.85 0.1,0.82 0.1,0.69 0.1,0.6 0.1,0.61 0.1,0.61 0.1,0.61 0.1,0.61 0.1,0.62 0.1,0.62 0.11,0.61 0.1,0.63 0.1,0.62 0.1,0.62 0.1,0.61 0.1,0.6 0.1,0.59 0.1,0.59 0.1,0.58 0.1,0.57 0.1,0.56 0.1,0.55 0.1,0.55 0.11,0.54 0.1,0.53 0.1,0.42 0.1,0.16 0.1,0.19 0.1,0.2 0.1,0.23 0.1,0.24 0.1,0.27 0.1,0.29 0.1,0.3 0.1,0.33 0.1,0.35 0.11,0.37 0.1,0.39 0.1,0.41 0.1,0.43 0.1,0.46 0.1,0.47 0.1,0.49 0.1,0.51 0.1,0.54 0.1,0.51 0.1,0.48 0.1,0.45 0.1,0.43 0.11,0.39 0.1,0.37 0.1,0.34 0.1,0.32 0.1,0.3 0.1,0.29 0.1,0.29 0.1,0.3 0.1,0.29 0.1,0.3 0.1,0.29 0.1,0.3 0.1,0.3 0.11,0.3 0.1,0.3 0.1,0.29 0.1,0.3 0.1,0.3 0.1,0.31 0.1,0.3 0.1,0.3 0.1,0.3 0.1,0.31 0.1,0.3 0.1,0.3 0.1,0.31 0.11,0.3 0.1,0.31 0.1,0.3 0.1,0.31 0.1,0.3 0.1,0.31 0.1,0.32 0.1,0.35 0.1,0.35 0.1,0.34 0.1,0.35 0.1,0.34 0.1,0.33 0.11,0.33 0.1,0.33 0.1,0.33 0.1,0.32 0.1,0.32 0.1,0.31 0.1,0.31 0.1,0.31 0.1,0.31 0.1,0.3 0.1,0.3 0.1,0.3 0.1,0.29 0.11,0.29 0.1,0.28 0.1,0.29 0.1,0.28 0.1,0.27 0.1,0.28 0.1,0.27 0.1,0.27 0.1,0.26 0.1,0.26 0.1,0.26 0.1,0.25 0.11,0.25 0.1,0.25 0.1,0.24 0.1,0.25 0.1,0.23 0.1,0.24 0.1,0.23 0.1,0.23 0.1,0.22 0.1,0.21 0.1,0.19 0.1,0.16 0.1,0.14 0.11,0.11 0.1,0.04 0.1,-0.06 0.1,-0.08 0.1,-0.1 0.1,-0.12 0.1,-0.13 0.1,-0.16 0.1,-0.18 0.1,-0.2 0.1,-0.22 0.1,-0.24 0.1,-0.47 0.11,-0.5 0.1,-0.53 0.1,-0.56 0.1,-0.59 0.1,-0.62 0.1,-0.65 0.1,-0.67 0.1,-0.7 0.1,-0.73 0.1,-0.76 0.1,-0.78 0.1,-0.82 0.1,-0.84 0.11,-0.87 0.1,-0.89 0.1,-0.93 0.1,-0.95 0.1,-0.98 0.1,-1.01 0.1,-1.04 0.1,-1.06 0.1,-1.09 0.1,-1.12 0.1,-1.15 0.1,-1.17 0.1,-1.72 0.11,-2.05 0.1,-1.97 0.1,-1.9 0.1,-1.82 0.1,-1.74 0.1,-1.74 0.1,-1.73 0.1,-1.74 0.1,-1.73 0.1,-1.74 0.1,-1.73 0.1,-1.73 0.1,-1.72 0.11,-1.73 0.1,-1.73 0.1,-1.72 0.1,-1.72 0.1,-1.72 0.1,-1.72 0.1,-1.72 0.1,-1.71 0.1,-1.72 0.1,-1.71 0.1,-1.71 0.1,-1.71 0.1,-1.71 0.11,-1.7 0.1,-1.71 0.1,-1.57 0.1,-1 0.1,-0.73 0.1,-0.48 0.1,-0.21 0.1,0.05 0.1,0.32 0.1,0.06 0.1,-0.88 0.1,-1.19 0.1,-0.16 0.11,-0.09 0.1,-0.08 0.1,-0.16 0.1,-0.18 0.1,-0.18 0.1,-0.18 0.1,-0.18 0.1,-0.17 0.1,-0.17 0.1,-0.18 0.1,-0.17 0.1,-0.16 0.1,-0.17 0.11,-0.16 0.1,-0.16 0.1,-0.16 0.1,-0.16 0.1,-0.16 0.1,-0.15 0.1,-0.16 0.1,-0.15 0.1,-0.15 0.1,-0.14 0.1,-0.15 0.1,-0.14 0.11,-0.13 0.1,-0.14 0.1,-0.13 0.1,-0.12 0.1,-0.13 0.1,-0.12 0.1,-0.13 0.1,-0.14 0.1,-0.14 0.1,-0.16 0.1,-0.17 0.1,-0.18 0.1,-0.19 0.11,-0.2 0.1,-0.21 0.1,-0.22 0.1,-0.23 0.1,-0.24 0.1,-0.25 0.1,-0.26 0.1,-0.27 0.1,-0.28 0.1,-0.29 0.1,-0.3 0.1,-0.31 0.1,-0.32 0.11,-0.33 0.1,-0.34 0.1,-0.35 0.1,-0.36 0.1,-0.95 0.1,-0.88 0.1,-0.7 0.1,-0.53 0.1,-0.35 0.1,-0.2 0.1,-0.03 0.1,0.14 0.1,0.32 0.11,0.48 0.1,0.52 0.1,0.53 0.1,0.53 0.1,0.55 0.1,0.56 0.1,0.62 0.1,0.69 0.1,0.76 0.1,0.83 0.1,0.91 0.1,0.97 0.1,0.93 0.11,0.75 0.1,0.65 0.1,0.55 0.1,2.73 0.1,3.8 0.1,0.04 0.1,0.01 0.1,-0.02 0.1,-0.04 0.1,-0.07 0.1,-0.09 0.1,-0.12 0.1,-0.15 0.11,-0.17 0.1,-0.19 0.1,-0.22 0.1,-0.23 0.1,-0.24 0.1,-0.24 0.1,-0.25 0.1,-0.26 0.1,-0.27 0.1,-0.26 0.1,-0.27 0.1,-0.26 0.1,-0.27 0.11,-0.26 0.1,-0.26 0.1,-0.26 0.1,-0.26 0.1,-0.26 0.1,-0.27 0.1,-0.26 0.1,-0.27 0.1,-0.26 0.1,-0.27 0.1,-0.26 0.1,-0.27 0.1,-0.26 0.11,-0.26 0.1,-0.25 0.1,-0.26 0.1,-0.26 0.1,-0.25 0.1,-0.25 0.1,-0.26 0.1,-0.25 0.1,-0.25 0.1,-0.25 0.1,-0.25 0.1,-0.25 0.1,-0.26 0.11,-0.25 0.1,-0.27 0.1,-0.26 0.1,-0.27 0.1,-0.28 0.1,-0.28 0.1,-0.28 0.1,-0.29 0.1,-0.29 0.1,-0.3 0.1,-0.28 0.1,-0.29 0.11,-0.3 0.1,-0.3 0.1,-0.32 0.1,-0.32 0.1,-0.32 0.1,-0.33 0.1,-0.33 0.1,-0.34 0.1,-0.3 0.1,-0.29 0.1,-0.29 0.1,-0.3 0.1,-0.31 0.11,-0.31 0.1,-0.32 0.1,-0.33 0.1,-0.33 0.1,-0.34 0.1,-0.34 0.1,-0.35 0.1,-0.36 0.1,-0.34 0.1,-0.36 0.1,-0.38 0.1,-0.4 0.1,-0.42 0.11,-0.45 0.1,-0.47 0.1,-0.49 0.1,-0.51 0.1,-0.53 0.1,-0.56 0.1,-0.58 0.1,-14.08 0.1,-10.97 0.1,2.7 0.1,13.53 0.1,-0.56 0.1,-0.55 0.11,-0.52 0.1,-0.5 0.1,-0.34 0.1,0.01 0.1,-0.04 0.1,-0.08 0.1,-0.12 0.1,-0.17 0.1,-0.2 0.1,-0.25 0.1,-0.29 0.1,-0.3 0.1,-0.29 0.11,-0.26 0.1,-0.29 0.1,-0.46 0.1,-0.47 0.1,-0.49 0.1,-0.49 0.1,-0.51 0.1,-0.52 0.1,-0.54 0.1,-0.54 0.1,-0.59 0.1,-0.66 0.1,-0.69 0.11,-0.7 0.1,-0.72 0.1,-0.74 0.1,-0.75 0.1,-0.78 0.1,-0.79 0.1,-0.82 0.1,-0.83 0.1,-0.85 0.1,-0.87 0.1,-0.88 0.1,-0.91 0.1,-2.05 0.11,-3.25 0.1,-3.74 0.1,-2.07 0.1,-1.89 0.1,-1.84 0.1,-1.8 0.1,-1.76 0.1,-1.76 0.1,-1.7 0.1,-1.65 0.1,-1.6 0.1,-1.55 0.1,-1.46 0.11,-1.35 0.1,-1.23 0.1,-1.13 0.1,-1.01 0.1,-0.87 0.1,-0.74 0.1,-1.05 0.1,-0.99 0.1,-0.82 0.1,-0.65 0.1,-0.49 0.1,-0.32 0.1,-0.15 0.11,0.02 0.1,0.18 0.1,0.77 0.1,1.88 0.1,1.73 0.1,1.58 0.1,1.43 0.1,1.27 0.1,1.12 0.1,0.97 0.1,0.81 0.1,0.71 0.11,0.63 0.1,0.55 0.1,0.48 0.1,0.4 0.1,0.33 0.1,0.25 0.1,0.18 0.1,0.13 0.1,0.12 0.1,0.1 0.1,0.08 0.1,0.06 0.1,0.03 0.11,0.01 0.1,-0.01 0.1,-0.03 0.1,-0.05 0.1,-0.05 0.1,-0.04 0.1,-0.04 0.1,-0.02 0.1,-0.02 0.1,-0.02 h 0.1 0.1 l 0.1,0.01 0.11,0.01 0.1,0.03 0.1,0.03 0.1,0.03 0.1,0.05 0.1,0.06 0.1,-1.09 0.1,-4.64 0.1,-2.52 0.1,-0.4 0.1,1.99 0.1,1.66 0.1,1.24 0.11,0.9 0.1,0.73 0.1,0.63 0.1,0.65 0.1,0.69 0.1,0.72 0.1,0.74 0.1,0.75 0.1,0.52 0.1,0.5 0.1,0.5 0.1,0.48 0.1,0.36 0.11,0.32 0.1,0.31 0.1,0.31 0.1,0.29 0.1,0.29 0.1,0.27 0.1,0.27 0.1,0.26 0.1,0.25 0.1,0.24 0.1,0.24 0.1,0.22 0.1,0.21 0.11,0.21 0.1,0.2 0.1,0.19 0.1,0.18 0.1,0.17 0.1,0.16 0.1,0.15 0.1,0.15 0.1,0.11 0.1,0.1 0.1,0.08 0.1,0.09 0.1,0.08 0.11,0.08 0.1,0.07 0.1,0.07 0.1,0.07 0.1,0.08 0.1,0.13 0.1,0.12 0.1,0.11 0.1,0.12 0.1,0.11 0.1,0.12 0.1,0.12 0.1,0.12 0.11,0.12 0.1,0.13 0.1,0.12 0.1,0.13 0.1,0.14 0.1,0.13 0.1,0.14 0.1,0.14 0.1,0.14 0.1,0.14 0.1,0.15 0.1,0.15 0.1,0.15 0.11,0.15 0.1,0.16 0.1,0.16 0.1,0.16 0.1,0.16 0.1,0.15 0.1,0.15 0.1,0.13 0.1,0.11 0.1,0.1 0.1,0.08 0.1,0.07 0.11,0.05 0.1,0.03 0.1,0.01 0.1,-0.01 0.1,-0.03 0.1,-0.06 0.1,-1.47 0.1,-1.13 0.1,-0.8 0.1,-0.46 0.1,-0.13 0.1,0.2 0.1,0.54 0.11,0.88 0.1,1.2 0.1,0.86 0.1,-0.23 0.1,-0.26 0.1,-0.26 0.1,-0.29 0.1,1.93 0.1,-0.93 0.1,-0.76 0.1,-0.57 0.1,-0.4 0.1,-0.34 0.11,-0.21 0.1,-0.02 0.1,0.17 0.1,0.36 0.1,0.35 0.1,0.23 0.1,0.15 0.1,0.33 0.1,0.3 0.1,0.26 0.1,0.21 0.1,0.16 0.1,0.11 0.11,0.09 0.1,0.11 0.1,0.12 0.1,0.15 0.1,0.16 0.1,0.18 0.1,0.18 0.1,0.19 0.1,0.2 0.1,0.19 0.1,0.21 0.1,0.21 0.1,0.21 0.11,0.22 0.1,0.22 0.1,0.23 0.1,0.23 0.1,0.24 0.1,0.24 0.1,0.25 0.1,0.25 0.1,0.26 0.1,0.26 0.1,0.36 0.1,0.37 0.1,0.37 0.11,0.38 0.1,0.38 0.1,0.38 0.1,0.38 0.1,0.39 0.1,0.38 0.1,0.4 0.1,0.35 0.1,0.34 0.1,0.33 0.1,0.32 0.1,0.32 0.1,0.32 0.11,0.31 0.1,0.32 0.1,0.31 0.1,0.31 0.1,0.31 0.1,0.31 0.1,0.31 0.1,0.31 0.1,0.3 0.1,0.3 0.1,0.3 0.1,0.29 0.1,0.29 0.11,0.29 0.1,0.29 0.1,0.24 0.1,0.23 0.1,0.23 0.1,0.23 0.1,0.22 0.1,0.22 0.1,0.21 0.1,0.2 0.1,0.2 0.1,0.2 0.1,0.19 0.11,0.19 0.1,0.17 0.1,0.17 0.1,0.17 0.1,0.16 0.1,0.15 0.1,0.16 0.1,0.15 0.1,0.14 0.1,0.15 0.1,0.13 0.1,0.14 0.11,0.13 0.1,0.13 0.1,0.12 0.1,0.12 0.1,0.12 0.1,0.11 0.1,-0.75 0.1,-1.11 0.1,-0.92 0.1,-2.92 0.1,-2.75 0.1,-2.31 0.1,-1.88 0.11,-1.43 0.1,-0.61 0.1,-0.18 0.1,-0.08 0.1,0.03 0.1,0.13 0.1,0.23 0.1,0.33 0.1,0.43 0.1,0.52 0.1,0.63 0.1,0.72 0.1,0.82 0.11,0.92 0.1,1.02 0.1,1.12 0.1,1.21 0.1,0.87 0.1,0.37 0.1,0.38 0.1,0.41 0.1,0.43 0.1,0.44 0.1,0.44 0.1,0.45 0.1,0.46 0.11,0.46 0.1,0.46 0.1,1.42 0.1,0.42 0.1,0.45 0.1,0.46 0.1,0.48 0.1,0.5 0.1,0.49 0.1,0.51 0.1,0.51 0.1,0.53 0.1,0.53 0.11,0.55 0.1,0.55 0.1,0.56 0.1,0.57 0.1,0.58 0.1,0.58 0.1,0.6 0.1,0.55 0.1,-0.47 0.1,-0.39 0.1,-0.3 0.1,-0.21 0.1,-0.12 0.11,-0.03 0.1,0.06 0.1,0.15 0.1,0.23 0.1,0.32 0.1,0.42 0.1,0.5 0.1,0.59 0.1,0.68 0.1,0.77 0.1,0.87 0.1,1.26 0.1,1.31 0.11,1.35 0.1,1.42 0.1,1.45 0.1,1.44 0.1,1.5 0.1,1.55 0.1,1.61 0.1,1.66 0.1,1.66 0.1,1.67 0.1,1.74 0.1,1.83 0.1,1.94 0.11,1.97 0.1,1.99 0.1,2.02 0.1,2.04 0.1,2.05 0.1,1.95 0.1,1.82 0.1,1.68 0.1,1.58 0.1,1.47 0.1,1.36 0.1,1.25 0.1,1.15 0.11,1.03 0.1,0.92 0.1,0.79 0.1,0.56 0.1,0.54 0.1,0.56 0.1,0.59 0.1,0.61 0.1,0.62 0.1,0.63 0.1,0.65 0.1,0.66 0.11,0.67 0.1,0.68 0.1,0.7 0.1,0.7 0.1,0.71 0.1,0.72 0.1,0.73 0.1,0.74 0.1,0.75 0.1,0.76 0.1,0.76 0.1,0.78 0.1,0.78 0.11,0.8 0.1,0.8 0.1,0.78 0.1,0.64 0.1,0.62 0.1,0.63 0.1,0.61 0.1,0.61 0.1,0.61 0.1,0.59 0.1,0.59 0.1,0.61 0.1,1.7 0.11,3.93 0.1,2.78 0.1,0.67 0.1,0.65 0.1,0.64 0.1,0.62 0.1,0.62 0.1,0.59 0.1,0.59 0.1,0.57 0.1,0.56 0.1,0.54 0.1,0.51 0.11,0.51 0.1,0.49 0.1,0.49 0.1,0.47 0.1,0.48 0.1,0.47 0.1,0.48 0.1,0.47 0.1,0.47 0.1,0.47 0.1,0.47 0.1,0.46 0.1,0.47 0.11,0.46 0.1,0.46 0.1,0.45 0.1,0.46 0.1,0.45 0.1,0.45 0.1,0.45 0.1,0.45 0.1,0.34 0.1,0.3 0.1,0.29 0.1,0.29 0.1,0.27 0.11,0.27 0.1,0.26 0.1,0.25 0.1,0.23 0.1,0.24 0.1,0.22 0.1,0.21 0.1,0.2 0.1,0.2 0.1,0.18 0.1,0.18 0.1,0.16 0.1,0.16 0.11,0.15 0.1,0.14 0.1,0.13 0.1,0.13 0.1,0.11 0.1,0.1 0.1,0.1 0.1,-7.26 0.1,-12.24 0.1,3.78 0.1,17.26 0.1,0.6 0.1,0.73 0.11,0.86 0.1,1 0.1,1.13 0.1,1.26 0.1,1.4 0.1,1.52 0.1,1.27 0.1,0.92 0.1,0.77 0.1,0.61 0.1,0.48 0.1,0.47 0.1,0.47 0.11,0.47 0.1,0.46 0.1,0.45 0.1,0.45 0.1,0.44 0.1,0.44 0.1,0.43 0.1,0.43 0.1,0.42 0.1,0.42 0.1,0.41 0.1,0.41 0.11,0.4 0.1,0.4 0.1,0.39 0.1,0.38 0.1,0.38 0.1,0.38 0.1,0.37 0.1,0.36 0.1,0.37 0.1,0.36 0.1,0.36 0.1,0.34 0.1,0.24 0.11,0.24 0.1,0.23 0.1,0.21 0.1,0.21 0.1,0.2 0.1,0.19 0.1,0.19 0.1,0.17 0.1,0.17 0.1,0.15 0.1,-0.01 0.1,-0.08 0.1,-0.06 0.11,-0.06 0.1,-0.04 0.1,-0.04 0.1,-0.03 0.1,-0.02 0.1,-0.02 h 0.1 0.1 l 0.1,0.01 0.1,0.02 0.1,0.03 0.1,0.04 0.1,0.04 0.11,0.06 0.1,0.06 0.1,0.07 0.1,0.08 0.1,0.1 0.1,0.2 0.1,0.33 0.1,0.47 0.1,0.61 0.1,0.74 0.1,0.88 0.1,1.01 0.1,1.15 0.11,1.32 0.1,1.47 0.1,1.36 0.1,1.1 0.1,1.06 0.1,1.02 0.1,0.54 0.1,0.43 0.1,0.41 0.1,0.42 0.1,0.4 0.1,0.4 0.1,0.4 0.11,0.38 0.1,0.38 0.1,0.38 0.1,0.36 0.1,0.36 0.1,0.36 0.1,0.35 0.1,0.34 0.1,0.33 0.1,0.33 0.1,0.32 0.1,0.32 0.1,0.31 0.11,0.3 0.1,0.29 0.1,0.29 0.1,0.29 0.1,0.27 0.1,0.27 0.1,0.27 0.1,0.26 0.1,0.24 0.1,0.21 0.1,0.22 0.1,0.24 0.1,0.26 0.11,0.28 0.1,0.3 0.1,0.31 0.1,0.33 0.1,0.35 0.1,0.36 0.1,0.38 0.1,0.4 0.1,0.42 0.1,0.44 0.1,0.45 0.1,0.47 0.1,0.48 0.11,0.51 0.1,0.52 0.1,0.54 0.1,0.56 0.1,0.57 0.1,0.59 0.1,0.61 0.1,0.63 0.1,0.64 0.1,0.66 0.1,0.68 0.1,3.13 0.11,0.5 0.1,0.48 0.1,0.47 0.1,0.46 0.1,0.44 0.1,0.42 0.1,0.4 0.1,0.4 0.1,0.37 0.1,0.36 0.1,0.34 0.1,0.33 0.1,0.31 0.11,0.3 0.1,0.28 0.1,0.26 0.1,0.25 0.1,0.23 0.1,0.22 0.1,0.2 0.1,0.19 0.1,0.17 0.1,0.15 0.1,0.14 0.1,0.12 0.1,0.11 0.11,0.09 0.1,0.08 0.1,0.06 0.1,0.04 0.1,0.03 0.1,0.01 h 0.1 0.1 0.1 0.1 0.1 0.1 0.1 0.11 0.1 0.1 0.1 0.1 0.1 0.1 0.1 0.1 0.1 0.1 0.1 0.1 0.11 0.1 0.1 0.1 0.1 0.1 0.1 0.1 0.1 0.1 0.1 0.1 0.1 0.11 0.1 0.1 0.1 0.1 0.1 0.1 0.1 0.1 0.1 0.1 0.1 0.1 0.11 0.1 0.1 0.1 0.1 0.1 0.1 0.1 0.1 0.1 0.1 0.1 0.1 0.11 0.1 0.1 0.1 0.1 0.1 0.1 0.1 0.1 0.1 0.1 0.1 0.1 0.11 0.1 0.1 0.1 0.1 0.1 0.1 0.1 0.1 0.1 0.1 0.1 0.11 0.1 0.1 0.1 0.1 0.1 0.1 0.1 0.1 0.1 0.1 0.1 0.1 0.11 0.1 0.1 0.1 0.1 0.1 0.1 0.1 0.1 0.1 0.1 0.1 0.1 0.11 0.1 0.1 0.1 0.1 0.1 0.1 0.1 0.1 0.1 0.1 0.1 0.1 0.11 0.1 0.1 0.1 0.1 0.1 0.1 0.1 0.1 0.1 0.1 0.1 0.1 0.11 0.1 0.1 0.1 0.1 0.1 0.1 0.1 0.1 0.1 0.1 0.1 0.1 0.11 0.1 0.1 0.1 0.1 0.1 0.1 0.1 0.1 0.1 0.1 0.1 0.1 0.11 0.1 0.1 0.1 0.1 0.1 0.1 0.1 0.1 0.1 0.1 0.1 0.1 0.11 0.1 0.1 0.1 0.1 0.1 0.1 0.1 0.1 0.1 0.1 0.1 0.1 0.11 0.1 0.1 0.1 0.1 0.1 0.1 0.1 0.1 0.1 0.1 0.1 0.11 0.1 0.1 0.1 0.1 0.1 0.1 0.1 0.1 0.1 0.1 0.1 0.1 0.11 0.1 0.1 0.1 0.1 0.1 0.1 0.1 0.1 0.1 0.1 0.1 0.1 0.11 0.1 0.1 0.1 0.1 0.1 0.1 0.1 0.1 0.1 0.1 0.1 0.1 0.11 0.1 0.1 0.1 0.1 0.1 0.1 0.1 0.1 0.1 0.1 0.1 0.1 0.11 0.1 0.1 0.1 0.1 0.1 0.1 0.1 0.1 0.1 0.1 0.1 0.1 0.11 0.1 0.1 0.1 0.1 0.1 0.1 0.1 0.1 0.1 0.1 0.1 0.1 0.11 0.1 0.1 0.1 0.1 0.1 0.1 0.1 0.1 0.1 0.1 0.1 0.1 0.11 0.1 0.1 0.1 0.1 0.1 0.1 0.1 0.1 0.1 0.1 0.1 0.1 0.11 0.1 0.1 0.1 0.1 0.1 0.1 0.1 0.1 0.1 0.1 0.1 0.11 0.1 0.1 0.1 0.1 0.1 0.1 0.1 0.1 0.1 0.1 0.1 0.1 0.11 0.1 0.1 0.1 0.1 0.1 0.1 0.1 0.1 0.1 0.1 0.1 0.1 0.11 0.1 0.1 0.1 0.1 0.1 0.1 0.1 0.1 0.1 0.1 0.1 0.1 0.11 0.1 0.1 0.1 0.1 0.1 0.1 0.1 0.1 0.1 0.1 0.1 0.1 0.11 0.1 0.1 0.1 0.1 0.1 0.1 0.1 0.1 0.1 0.1 0.1 0.1 0.11 0.1 0.1 0.1 0.1 0.1 0.1 0.1 0.1 0.1 0.1 0.1 0.1 0.11 0.1 0.1 0.1 0.1 0.1 0.1 0.1 0.1 0.1 0.1 0.1 0.1 0.11 0.1 0.1 0.1 0.1 0.1 0.1 0.1 0.1 0.1 l 0.1,-0.03 0.1,-0.04 0.1,-0.06 0.11,-0.09 0.1,-0.1 0.1,-0.13 0.1,-0.14 0.1,-0.17 0.1,-0.18 0.1,-0.21 0.1,-0.21 0.1,-0.24 0.1,-0.26 0.1,-0.27 0.1,-0.29 0.11,-0.31 0.1,-0.33 0.1,-0.35 0.1,-0.36 0.1,-0.39 0.1,-0.4 0.1,-0.41 0.1,-0.44 0.1,-0.46 0.1,-0.47 0.1,-0.49 0.1,-0.51 0.1,-0.52 0.11,-0.55 0.1,-0.56 0.1,-0.59 0.1,-0.62 0.1,-0.64 0.1,-0.67 0.1,-0.69 0.1,-0.72 0.1,-0.74 0.1,-0.77 0.1,-0.8 0.1,-0.82 0.1,-0.85 0.11,-0.87 0.1,-0.9 0.1,-0.93 0.1,-0.95 0.1,-0.97 0.1,-1 0.1,-0.81 0.1,-0.8 0.1,-0.8 0.1,-0.81 0.1,-0.82 0.1,-0.83 0.1,-0.83 0.11,-0.85 0.1,-0.85 0.1,-0.87 0.1,-0.87 0.1,-0.88 0.1,-0.89 0.1,-0.9 0.1,-0.91 0.1,-0.92 0.1,-0.86 0.1,-0.69 0.1,-0.69 0.1,-4.8 0.11,-4.84 0.1,-0.35 0.1,-0.35 0.1,-0.35 0.1,-0.36 0.1,-0.35 0.1,-0.36 0.1,-0.35 0.1,-0.36 0.1,-0.35 0.1,-0.36 0.1,-0.36 0.1,-0.36 0.11,-0.37 0.1,-0.39 0.1,-0.4 0.1,-0.41 0.1,-0.43 0.1,-0.44 0.1,-0.45 0.1,-0.46 0.1,-0.48 0.1,-0.5 0.1,-0.5 0.1,-0.52 0.1,-0.53 0.11,-0.55 0.1,-0.56 0.1,-0.57 0.1,-0.59 0.1,-0.6 0.1,-0.61 0.1,-0.63 0.1,-0.63 0.1,-0.66 0.1,-0.66 0.1,-0.68 0.1,-0.69 0.1,-0.71 0.11,-0.72 0.1,-0.42 0.1,-0.4 0.1,-0.47 0.1,-0.49 0.1,-0.49 0.1,-0.49 0.1,-0.48 0.1,-0.48 0.1,-0.51 0.1,-0.52 0.1,-0.51 0.1,-0.49 0.11,-0.48 0.1,-0.48 0.1,-0.48 0.1,-0.47 0.1,-0.47 0.1,-0.47 0.1,-0.47 0.1,-0.46 0.1,-0.66 0.1,-0.67 0.1,-0.68 0.1,-0.69 0.11,-0.69 0.1,-0.71 0.1,-0.71 0.1,-0.72 0.1,-0.73 0.1,-0.74 0.1,-0.75 0.1,-0.92 0.1,-0.94 0.1,-0.95 0.1,-0.97 0.1,-0.98 0.1,-1 0.11,-1.01 0.1,-1.02 0.1,-1.04 0.1,-1.05 0.1,-1.06 0.1,-1.07 0.1,-1.09 0.1,-1.1 0.1,-1.11 0.1,-1.12 0.1,-1.14 0.1,-1.15 0.1,-1.16 0.11,-1.17 0.1,-1.08 0.1,-1.05 0.1,-1.02 0.1,-1 0.1,-0.98 0.1,-0.96 0.1,-0.93 0.1,-0.91 0.1,-0.89 0.1,-0.85 0.1,-0.83 0.1,-0.8 0.11,-0.77 0.1,-0.75 0.1,-0.97 0.1,-1.44 0.1,-1.38 0.1,-1.34 0.1,-1.29 0.1,-1.24 0.1,-1.19 0.1,-1.15 0.1,-1.09 0.1,-1.04 0.1,-1 0.11,-1.07 0.1,-1.05 0.1,-1.01 0.1,-0.96 0.1,-0.92 0.1,-0.88 0.1,-0.83 0.1,-1.09 0.1,0.9 0.1,1.42 0.1,1.44 0.1,1.45 0.1,1.46 0.11,1.47 0.1,1.48 0.1,1.49 0.1,1.51 0.1,0.81 0.1,-0.36 0.1,-0.35 0.1,-0.35 0.1,-0.36 0.1,-0.37 0.1,-0.37 0.1,-0.37 0.1,-0.37 0.11,-0.35 0.1,-0.36 0.1,-0.36 0.1,-0.36 0.1,-0.36 0.1,-0.37 0.1,-0.37 0.1,-0.37 0.1,-0.38 0.1,-0.38 0.1,-0.38 0.1,-0.38 0.1,-0.41 0.11,-0.53 0.1,-0.52 0.1,-0.52 0.1,-0.52 0.1,-0.52 0.1,-0.51 0.1,-0.51 0.1,-0.5 0.1,-0.5 0.1,-0.5 0.1,-0.49 0.1,-0.49 0.1,-0.48 0.11,-0.47 0.1,-0.47 0.1,-0.45 0.1,-0.46 0.1,-0.45 0.1,-0.44 0.1,-0.44 0.1,-0.44 0.1,-0.43 0.1,-0.43 0.1,-0.42 0.1,-0.42 0.11,-0.58 0.1,-0.74 0.1,-0.71 0.1,-0.7 0.1,-0.68 0.1,-0.68 0.1,-0.66 0.1,-0.64 0.1,-0.62 0.1,-0.6 0.1,-0.58 0.1,-0.57 0.1,-0.54 0.11,-0.53 0.1,-0.51 0.1,-0.49 0.1,-0.53 0.1,-0.57 0.1,-0.56 0.1,-0.55 0.1,-0.54 0.1,-0.54 0.1,-0.53 0.1,-0.52 0.1,-0.51 0.1,-0.5 0.11,-0.47 0.1,-0.38 0.1,-0.39 0.1,-0.4 0.1,-0.41 0.1,-0.42 0.1,-0.42 h 0.1 l 0.1,0.52 0.1,0.26 h 0.1 l 0.1,-0.25 0.1,-0.52 0.11,-0.6 0.1,-0.6 0.1,-0.61 0.1,-0.61 0.1,-0.63 0.1,-0.62 0.1,-0.64 0.1,-0.64 0.1,-0.65 0.1,-0.65 0.1,-0.66 0.1,-0.67 0.1,-0.68 0.11,-0.7 0.1,-0.72 0.1,-0.71 0.1,-0.73 0.1,-0.72 0.1,-0.74 0.1,-0.74 0.1,-0.75 0.1,-0.75 0.1,-0.76 0.1,-0.76 0.1,-0.77 0.1,-0.75 0.11,-0.78 0.1,-0.81 0.1,-0.85 0.1,-0.87 0.1,-0.91 0.1,-0.94 0.1,-0.97 0.1,-1 0.1,-1.02 0.1,-1.07 0.1,-1.13 0.1,-1.15 0.1,-1.16 0.11,-1.19 0.1,-1.19 0.1,-1.22 0.1,-1.23 0.1,-1.32 0.1,-1.55 0.1,-1.57 0.1,-1.57 0.1,-1.59 0.1,-1.61 0.1,-1.61 0.1,-1.63 0.1,-1.65 0.11,-1.66 0.1,-1.67 0.1,-1.68 0.1,-1.7 0.1,-1.7 0.1,-1.71 0.1,-1.73 0.1,-1.73 0.1,-1.73 0.1,-1.75 0.1,-1.76 0.1,-1.76 0.1,-1.77 0.11,-1.78 0.1,-1.79 0.1,-1.8 0.1,-1.8 0.1,-1.81 0.1,-1.67 0.1,-1.53 0.1,-1.58 0.1,-1.63 0.1,-1.67 0.1,-1.63 0.1,-1.58 0.11,-1.58 0.1,-1.57 0.1,-1.57 0.1,-1.55 0.1,-1.55 0.1,-1.55 0.1,-1.53 0.1,-1.53 0.1,-1.48 0.1,-0.31 0.1,-0.89 0.1,-1.34 0.1,-1.42 0.11,-1.45 0.1,-1.55 0.1,-1.74 0.1,-1.76 0.1,-1.77 0.1,-1.76 0.1,-1.75 0.1,-1.74 0.1,-1.74 0.1,-1.72 0.1,-1.71 0.1,-1.71 0.1,-1.69 0.11,-1.68 0.1,-1.67 0.1,-1.66 0.1,-1.65 0.1,-1.64 0.1,-1.63 0.1,-1.62 0.1,-1.61 0.1,-1.59 0.1,-1.57 0.1,-1.57 0.1,-1.58 0.1,-1.58 0.11,-1.58 0.1,-1.56 0.1,-1.54 0.1,-1.53 0.1,-2.87 0.1,-15.54 0.1,-9.63 0.1,7.49 0.1,3 0.1,3.23 0.1,3.51 0.1,3.79 0.1,4.06 0.11,4.33 0.1,4.61 0.1,4.89 0.1,5.15 0.1,5.42 0.1,5.68 0.1,5.5 0.1,4.25 0.1,4.64 0.1,4.63 0.1,4.62 0.1,4.63 0.1,4.62 0.11,4.62 0.1,4.62 0.1,4.66 0.1,4.78 0.1,4.9 0.1,5.02 0.1,5.15 0.1,-0.71 0.1,18.75 0.1,21.42 0.1,7.2 0.1,2.6 0.1,1.06 0.11,1.01 0.1,0.95 0.1,0.9 0.1,0.85 0.1,0.8 0.1,0.74 0.1,0.69 0.1,0.64 0.1,0.58 0.1,0.53 0.1,0.48 0.1,0.43 0.1,0.37 0.11,0.32 0.1,0.27 0.1,0.22 0.1,0.16 0.1,0.05 0.1,-0.14 0.1,-0.29 0.1,-0.54 0.1,-1.44 0.1,-1.69 0.1,-2.04 0.1,-2.51 0.1,-2.66 0.11,-3.1 0.1,-2.25 0.1,-1.53 0.1,-1.43 0.1,-1.35 0.1,-1.28 0.1,-1.17 0.1,-1.11 0.1,-0.9 0.1,-0.93 0.1,-1.18 0.1,-1.15 0.11,-1.12 0.1,-1.09 0.1,-1.05 0.1,-1.03 0.1,-1.01 0.1,-0.99 0.1,-0.98 0.1,-0.95 0.1,-0.95 0.1,-0.92 0.1,-0.92 0.1,-0.9 0.1,-0.9 0.11,-0.89 0.1,-0.89 0.1,-0.87 0.1,-0.87 0.1,-0.86 0.1,-0.85 0.1,-0.84 0.1,-0.86 0.1,-0.86 0.1,-0.84 0.1,-0.81 0.1,-0.79 0.1,-0.76 0.11,-0.73 0.1,-4.8 0.1,-6.21 0.1,-3.09 0.1,0.01 0.1,0.51 0.1,0.12 0.1,-0.05 0.1,-0.24 0.1,-0.44 0.1,-0.72 0.1,-1.74 0.1,-2.27 0.11,-2.46 0.1,-2.47 0.1,-1.87 0.1,-1.44 0.1,-1.42 0.1,-1.43 0.1,-0.79 0.1,0.49 0.1,1.34 0.1,2.18 0.1,1.53 0.1,1.61 0.1,1.79 0.11,1.84 0.1,1.91 0.1,1.95 0.1,2.03 0.1,2.67 0.1,3.37 0.1,3.84 0.1,4.05 0.1,0.18 0.1,0.15 0.1,0.13 0.1,0.1 0.1,0.08 0.11,-0.01 0.1,-0.08 0.1,-0.13 0.1,-0.19 0.1,-0.23 0.1,-0.29 0.1,-0.34 0.1,-0.39 0.1,-0.44 0.1,-0.71 0.1,-1.2 0.1,-1.16 0.1,-1.13 0.11,-1.09 0.1,-1.05 0.1,-1.01 0.1,-0.94 0.1,-0.85 0.1,-0.76 0.1,-0.67 0.1,-0.57 0.1,-0.48 0.1,-0.39 0.1,-0.3 0.1,-0.36 0.1,-0.44 0.11,-0.45 0.1,-0.45 0.1,-0.46 0.1,-0.47 0.1,-0.47 0.1,-0.48 0.1,-0.49 0.1,-18.65 0.1,-13.13 0.1,8.46 0.1,30.07 0.1,1.55 0.1,-0.46 0.11,-0.46 0.1,-0.47 0.1,-0.45 0.1,-0.46 0.1,-0.45 0.1,-0.46 0.1,-0.45 0.1,-0.45 0.1,-0.44 0.1,-0.45 0.1,-0.44 0.1,-0.44 0.11,-0.44 0.1,-0.44 0.1,-0.44 0.1,-0.43 0.1,-1.2 0.1,-1.24 0.1,-1.3 0.1,-1.35 0.1,-1.39 0.1,-1.45 0.1,-1.5 0.1,-1.54 0.1,-0.67 0.11,-0.54 0.1,-0.52 0.1,-0.52 0.1,-0.51 0.1,-0.51 0.1,-0.5 0.1,-0.5 0.1,-0.49 0.1,-0.49 0.1,-0.47 0.1,-0.46 0.1,-0.44 0.1,-0.45 0.11,-0.46 0.1,-0.54 0.1,-0.59 0.1,-0.5 0.1,-0.41 0.1,-0.33 0.1,-0.21 0.1,-0.11 h 0.1 l 0.1,0.04 0.1,0.06 0.1,0.08 0.1,0.11 0.11,0.12 0.1,0.15 0.1,0.17 0.1,0.2 0.1,0.21 0.1,0.24 0.1,0.25 0.1,0.28 0.1,0.3 0.1,0.32 0.1,0.35 0.1,0.36 0.1,0.39 0.11,0.41 0.1,0.43 0.1,0.45 0.1,0.48 0.1,0.7 0.1,0.84 0.1,0.86 0.1,0.87 0.1,0.89 0.1,0.9 0.1,0.92 0.1,0.93 0.1,0.95 0.11,0.96 0.1,0.98 0.1,1 0.1,1.01 0.1,1.02 0.1,1.04 0.1,1.06 0.1,1.07 0.1,1.08 0.1,1.1 0.1,1.12 0.1,1.12 0.1,1.14 0.11,1.14 0.1,1.16 0.1,1.17 0.1,1.14 0.1,1.1 0.1,1.07 0.1,1.04 0.1,1.02 0.1,0.89 0.1,0.77 0.1,0.73 0.1,0.69 0.1,0.65 0.11,0.61 0.1,0.56 0.1,0.53 0.1,0.49 0.1,0.44 0.1,0.41 0.1,0.36 0.1,-12.85 0.1,24.95 0.1,5.39 0.1,1.01 0.1,0.82 0.1,0.6 0.11,-83.93 0.1,88.06 0.1,12.95 0.1,4.01 0.1,2.66 0.1,2.37 0.1,2.09 0.1,1.81 0.1,1.66 0.1,1.54 0.1,1.4 0.1,1.39 0.11,1.36 0.1,1.34 0.1,1.3 0.1,1.27 0.1,1.24 0.1,1.21 0.1,1.19 0.1,1.15 0.1,1.12 0.1,1.09 0.1,1.07 0.1,1.03 0.1,1.01 0.11,0.97 0.1,0.94 0.1,0.92 0.1,0.88 0.1,0.11 0.1,-0.42 0.1,-0.24 0.1,-0.04 0.1,0.14 0.1,0.34 0.1,0.53 0.1,0.73 0.1,0.96 0.11,1.11 0.1,1.46 0.1,1.46 0.1,1.41 0.1,1.39 0.1,1.34 0.1,1.31 0.1,1.28 0.1,1.24 0.1,1.2 0.1,1.17 0.1,1.13 0.1,1.1 0.11,1.06 0.1,1.03 0.1,1 0.1,0.97 0.1,0.93 0.1,0.9 0.1,0.81 0.1,0.65 0.1,0.62 0.1,0.62 0.1,0.6 0.1,0.6 0.1,0.59 0.11,0.59 0.1,0.57 0.1,0.57 0.1,0.57 0.1,0.55 0.1,0.55 0.1,0.53 0.1,0.51 0.1,0.5 0.1,0.48 0.1,0.47 0.1,0.46 0.1,0.44 0.11,0.43 0.1,0.42 0.1,0.41 0.1,0.39 0.1,0.38 0.1,0.36 0.1,0.34 0.1,0.33 0.1,0.32 0.1,0.3 0.1,0.28 0.1,0.27 0.1,0.25 0.11,0.24 0.1,0.22 0.1,0.21 0.1,0.19 0.1,0.18 0.1,0.16 0.1,0.16 0.1,0.15 0.1,0.13 0.1,0.13 0.1,0.12 0.1,0.1 0.1,0.13 0.11,0.11 0.1,0.07 0.1,0.07 0.1,0.06 0.1,0.05 0.1,0.31 0.1,0.29 0.1,0.27 0.1,0.24 0.1,0.23 0.1,0.21 0.1,0.19 0.1,0.17 0.11,0.14 0.1,0.13 0.1,0.1 0.1,0.09 0.1,0.06 0.1,0.05 0.1,0.02 h 0.1 l 0.1,-0.17 0.1,-0.19 0.1,-0.22 0.1,-0.23 0.11,-0.26 0.1,-0.29 0.1,-0.3 0.1,-0.33 0.1,-0.35 0.1,-0.38 0.1,-0.4 0.1,-0.42 0.1,-0.44 0.1,-0.46 0.1,-0.47 0.1,-0.48 0.1,-0.48 0.11,-0.5 0.1,-0.49 0.1,-0.51 0.1,-0.51 0.1,-0.52 0.1,-0.52 0.1,-0.54 0.1,-0.54 0.1,-0.54 0.1,-0.56 0.1,-0.56 0.1,-0.56 0.1,-0.58 0.11,-0.58 0.1,-0.59 0.1,-0.59 0.1,-0.61 0.1,-0.61 0.1,-0.61 0.1,-0.63 0.1,-0.63 0.1,-0.64 0.1,-0.66 0.1,-0.67 0.1,-0.67 0.1,-0.69 0.11,-0.7 0.1,-0.71 0.1,-0.72 0.1,-0.74 0.1,-0.74 0.1,-0.75 0.1,-0.77 0.1,-0.78 0.1,-0.95 0.1,-2.58 0.1,-4.54 0.1,-6.51 0.1,-8.6 0.11,-11.58 0.1,-6.65 0.1,-5.11 0.1,-4.43 0.1,-4.1 0.1,-3.94 0.1,-3.97 0.1,-3.84 0.1,-3.67 0.1,-3.5 0.1,-3.35 0.1,-3.18 0.1,-3.01 0.11,-2.66 0.1,-2.42 0.1,-2.18 0.1,-1.95 0.1,-1.71 0.1,-1.47 0.1,-1.26 0.1,-1.64 0.1,-2.23 0.1,-1.19 0.1,0.28 0.1,0.05 0.1,-0.1 0.11,-0.01 0.1,0.1 0.1,0.2 0.1,0.32 0.1,0.42 0.1,0.54 0.1,0.64 0.1,0.75 0.1,0.87 0.1,0.97 0.1,1.08 0.1,0.93 0.1,0.7 0.11,0.74 0.1,0.74 0.1,0.74 0.1,0.74 0.1,0.74 0.1,0.74 0.1,0.74 0.1,0.73 0.1,0.74 0.1,0.74 0.1,3.27 0.1,5.85 0.1,0.43 0.11,0.51 0.1,0.59 0.1,0.65 0.1,0.83 0.1,0.82 0.1,0.79 0.1,0.77 0.1,0.76 0.1,0.74 0.1,0.72 0.1,0.69 0.1,0.65 0.11,0.31 0.1,0.29 0.1,0.27 0.1,0.25 0.1,0.23 0.1,0.21 0.1,0.2 0.1,0.19 0.1,0.18 0.1,0.17 0.1,0.17 0.1,0.15 0.1,0.14 0.11,0.14 0.1,0.07 0.1,0.02 0.1,0.03 0.1,0.02 0.1,0.03 0.1,0.03 0.1,0.04 0.1,0.05 0.1,0.05 0.1,-0.04 0.1,-0.05 0.1,-0.04 0.11,-0.04 0.1,-0.04 0.1,-0.04 0.1,-0.04 0.1,-0.06 0.1,-0.08 0.1,-0.09 0.1,-0.08 0.1,-0.07 0.1,-0.06 0.1,-0.04 0.1,-0.02 0.1,-0.02 0.11,0.01 0.1,0.02 0.1,0.03 0.1,0.05 0.1,0.06 0.1,0.07 0.1,0.1 0.1,0.1 0.1,0.12 0.1,0.14 0.1,0.15 0.1,0.16 0.1,0.15 0.11,0.13 0.1,0.13 0.1,0.16 0.1,0.17 0.1,0.19 0.1,0.2 0.1,0.22 0.1,0.19 0.1,0.15 0.1,0.11 0.1,0.07 0.1,0.02 0.1,-0.01 0.11,-0.05 0.1,-0.1 0.1,-0.14 0.1,-0.17 0.1,0.19 0.1,0.41 0.1,0.53 0.1,0.66 0.1,0.78 0.1,0.9 0.1,1.03 0.1,1.15 0.1,1.27 0.11,1.39 0.1,2.23 0.1,1.82 0.1,1.64 0.1,1.55 0.1,1.46 0.1,1.37 0.1,1.28 0.1,1.19 0.1,0.72 0.1,0.36 0.1,0.19 0.1,0.03 0.11,-0.16 0.1,-0.39 0.1,-0.73 0.1,-0.94 0.1,-1.55 0.1,-1.82 0.1,-1.92 0.1,-2.04 0.1,-2.15 0.1,-2.26 0.1,-2.37 0.1,-2.44 0.1,-2.46 0.11,-2.51 0.1,-2.55 0.1,-2.61 0.1,-2.67 0.1,-2.71 0.1,-2.78 0.1,-2.82 0.1,-3.11 0.1,-3.19 0.1,-3.24 0.1,-3.32 0.1,-3.39 0.11,-3.45 0.1,-3.53 0.1,-3.58 0.1,-3.5 0.1,-3.34 0.1,-3.18 0.1,-3.02 0.1,-2.91 0.1,-3.01 0.1,-2.88 0.1,-2.75 0.1,-2.62 0.1,-2.49 0.11,-2.36 0.1,-2.24 0.1,-2.11 0.1,-1.99 0.1,-1.92 0.1,-1.84 0.1,-1.75 0.1,-1.66 0.1,-1.57 0.1,-1.48 0.1,-1.39 0.1,-1.3 0.1,-1.13 0.11,-1 0.1,-0.93 0.1,-0.83 0.1,-0.76 0.1,-0.66 0.1,-0.58 0.1,-0.49 0.1,-0.39 0.1,-0.3 0.1,-0.54 0.1,-0.83 0.1,-0.92 0.1,-1.09 0.11,-1.13 0.1,-1.08 0.1,-1.02 0.1,-0.98 0.1,-0.92 0.1,-0.87 0.1,-0.82 0.1,-0.76 0.1,-0.72 0.1,-0.66 0.1,-0.61 0.1,-0.56 0.1,-0.49 0.11,-0.44 0.1,-0.37 0.1,-0.8 0.1,-1.08 0.1,-1.02 0.1,-0.89 0.1,-0.75 0.1,-0.59 0.1,-0.16 0.1,0.82 0.1,0.96 0.1,1.1 0.1,1.11 0.11,1.29 0.1,1.33 0.1,1.38 0.1,1.43 0.1,1.47 0.1,1.51 0.1,1.56 0.1,1.61 0.1,1.64 0.1,1.7 0.1,1.85 0.1,2.39 0.1,1.12 0.11,1.16 0.1,1.28 0.1,1.24 0.1,-8.57 0.1,0.46 0.1,0.37 0.1,0.44 0.1,0.48 0.1,0.54 0.1,0.6 0.1,0.64 0.1,0.71 0.1,0.76 0.11,0.81 0.1,0.87 0.1,0.92 0.1,0.97 0.1,1.03 0.1,1.09 0.1,1.14 0.1,1.19 0.1,1.25 0.1,1.31 0.1,1.22 0.1,1.14 0.1,1.16 0.11,1.18 0.1,0.35 0.1,1.29 0.1,2.34 0.1,3.44 0.1,4.51 0.1,5.14 0.1,5.36 0.1,5.53 0.1,5.74 0.1,6.17 0.1,8.67 0.11,8.79 0.1,8.34 0.1,7.78 0.1,7.06 0.1,6.23 0.1,5.39 0.1,4.55 0.1,3.56 0.1,2.41 0.1,2.29 0.1,2.28 0.1,2.2 0.1,2.09 0.11,1.97 0.1,1.86 0.1,1.75 0.1,1.7 0.1,1.66 0.1,1.63 0.1,1.58 0.1,1.55 0.1,1.5 0.1,1.46 0.1,1.42 0.1,1.38 0.1,1.35 0.11,1.32 0.1,1.28 0.1,1.26 0.1,1.22 0.1,1.19 0.1,1.17 0.1,1.15 0.1,1.13 0.1,1.12 0.1,1.1 0.1,1.08 0.1,1.06 0.1,1.05 0.11,1.02 0.1,1.01 0.1,1 0.1,0.97 0.1,0.96 0.1,0.93 0.1,0.93 0.1,0.9 0.1,0.88 0.1,0.87 0.1,0.85 0.1,0.83 0.1,0.82 0.11,0.79 0.1,0.79 0.1,0.79 0.1,0.77 0.1,0.78 0.1,0.77 0.1,0.76 0.1,-3.46 0.1,0.75 0.1,0.73 0.1,0.42 0.1,0.5 0.1,0.56 0.11,0.63 0.1,0.68 0.1,0.71 0.1,0.75 0.1,0.8 0.1,0.86 0.1,0.91 0.1,0.96 0.1,1.02 0.1,1.08 0.1,1.13 0.1,1.19 0.1,1.24 0.11,1.08 0.1,1 0.1,0.88 0.1,0.84 0.1,0.83 0.1,0.8 0.1,0.79 0.1,0.76 0.1,0.74 0.1,0.72 0.1,0.7 0.1,0.68 0.1,0.66 0.11,0.63 0.1,0.62 0.1,0.6 0.1,0.57 0.1,0.55 0.1,-6.77 0.1,-1.54 0.1,5.47 0.1,12.49 0.1,3.42 0.1,0.3 0.1,0.55 0.1,0.81 0.11,1.07 0.1,1.34 0.1,1.61 0.1,1.87 0.1,2.13 0.1,2.4 0.1,2.68 0.1,2.94 0.1,3.21 0.1,3.4 0.1,1.14 0.1,1.12 0.11,1.09 0.1,1.08 0.1,1.05 0.1,1.03 0.1,1.01 0.1,0.99 0.1,0.97 0.1,0.95 0.1,0.92 0.1,-0.87 0.1,-20.83 0.1,-8.02 0.1,6.83 0.11,21.58 0.1,3.9 0.1,1.85 0.1,1.79 0.1,1.72 0.1,1.66 0.1,1.6 0.1,1.53 0.1,1.47 0.1,1.41 0.1,1.35 0.1,1.28 0.1,1.22 0.11,1.15 0.1,1.08 0.1,1.03 0.1,0.95 0.1,0.89 0.1,0.83 0.1,0.75 0.1,0.7 0.1,0.63 0.1,0.56 0.1,0.5 0.1,0.44 0.1,0.4 0.11,0.38 0.1,0.34 0.1,0.31 0.1,0.28 0.1,0.25 0.1,0.23 0.1,0.19 0.1,0.16 0.1,0.13 0.1,0.1 0.1,0.07 0.1,0.04 0.1,0.01 0.11,-0.02 0.1,-0.06 0.1,-0.07 0.1,-0.08 0.1,-0.09 0.1,-0.08 0.1,-0.09 0.1,-0.1 0.1,-0.09 0.1,-0.1 0.1,-0.1 0.1,-0.1 0.1,-0.1 0.11,-0.11 0.1,-0.11 0.1,-0.11 0.1,-0.12 0.1,-0.11 0.1,-0.12 0.1,-0.13 0.1,-0.12 0.1,-0.13 0.1,-0.13 0.1,-0.13 0.1,-0.13 0.1,-0.14 0.11,-0.14 0.1,-0.15 0.1,-0.14 0.1,-0.15 0.1,-0.15 0.1,-0.15 0.1,-0.16 0.1,-0.15 0.1,-0.16 0.1,-0.17 0.1,-0.16 0.1,-0.17 0.1,-0.17 0.11,-0.17 0.1,-0.18 0.1,-0.18 0.1,-0.18 0.1,-0.18 0.1,-0.19 0.1,-0.19 0.1,-0.19 0.1,-0.19 0.1,-0.2 0.1,-0.19 0.1,-0.21 0.1,-0.2 0.11,-0.21 0.1,-0.2 0.1,-0.22 0.1,-0.21 0.1,-0.21 0.1,-0.33 0.1,-0.36 0.1,-0.38 0.1,-0.4 0.1,-0.42 0.1,-0.44 0.1,-0.46 0.11,-0.49 0.1,-0.5 0.1,-0.52 0.1,-0.54 0.1,-0.57 0.1,-0.58 0.1,-0.61 0.1,-0.62 0.1,-0.65 0.1,-0.67 0.1,-0.69 0.1,-0.7 0.1,-0.73 0.11,-0.75 0.1,-0.77 0.1,-0.79 0.1,-0.81 0.1,-0.83 0.1,-0.85 0.1,-0.88 0.1,-0.89 0.1,-0.97 0.1,-1.01 0.1,-0.96 0.1,-0.91 0.1,-0.86 0.11,-0.81 0.1,-0.76 0.1,-0.71 0.1,-0.67 0.1,-0.61 0.1,-0.56 0.1,-0.51 0.1,-0.47 0.1,-0.41 0.1,-0.36 0.1,-0.32 0.1,-0.28 0.1,-0.45 0.11,-0.56 0.1,-0.55 0.1,-0.55 0.1,-0.54 0.1,-0.55 0.1,-0.54 0.1,-0.54 0.1,-0.53 0.1,-0.54 0.1,-0.53 0.1,-0.53 0.1,-0.53 0.1,-0.53 0.11,-0.52 0.1,-0.52 0.1,-0.52 0.1,-0.52 0.1,-0.51 0.1,-0.51 0.1,-0.51 0.1,-0.51 0.1,-0.51 0.1,-0.5 0.1,-0.5 0.1,-0.5 0.1,-0.49 0.11,-0.5 0.1,-0.49 0.1,-0.49 0.1,-0.49 0.1,-0.48 0.1,-0.48 0.1,-0.48 0.1,-0.48 0.1,-0.48 0.1,-0.47 0.1,-0.47 0.1,-0.47 0.1,-0.47 0.11,-0.46 0.1,-0.46 0.1,-0.46 0.1,-0.46 0.1,-0.46 0.1,-0.54 0.1,-0.61 0.1,-0.6 0.1,-0.6 0.1,-0.59 0.1,-0.58 0.1,-0.58 0.1,-0.57 0.11,-0.57 0.1,-0.56 0.1,-0.55 0.1,-0.55 0.1,-0.54 0.1,-0.53 0.1,-0.53 0.1,-0.52 0.1,-0.52 0.1,-0.51 0.1,-0.5 0.1,-0.5 0.1,-0.49 0.11,-0.48 0.1,-0.48 0.1,-0.47 0.1,-0.47 0.1,-0.46 0.1,-0.45 0.1,-0.45 0.1,-0.44 0.1,-0.44 0.1,-0.43 0.1,-0.42 0.1,-0.42 0.11,-0.41 0.1,-0.4 0.1,-0.4 0.1,-0.39 0.1,-0.39 0.1,-0.37 0.1,-0.38 0.1,-0.32 0.1,-0.21 0.1,-0.19 0.1,-0.17 0.1,-0.14 0.1,-0.12 0.11,-0.1 0.1,-0.08 0.1,-0.06 0.1,-0.04 0.1,-0.01 0.1,0.01 0.1,0.03 0.1,-0.27 0.1,-0.41 0.1,-0.38 0.1,-0.35 0.1,-0.22 0.1,-0.18 0.11,-0.13 0.1,-0.07 0.1,-0.06 0.1,-0.05 0.1,-0.06 0.1,-0.05 0.1,-0.04 0.1,-0.04 0.1,-0.04 0.1,-0.03 0.1,-0.03 0.1,-0.03 0.1,-0.02 0.11,-0.05 0.1,-0.04 0.1,-0.04 0.1,-0.04 0.1,-0.04 0.1,-0.03 0.1,-0.04 0.1,-0.03 0.1,-0.03 0.1,-0.03 0.1,-0.03 0.1,-0.02 0.1,-0.03 0.11,-0.02 0.1,-0.02 0.1,-0.02 0.1,-0.02 0.1,-0.01 0.1,-0.02 0.1,-0.01 0.1,-0.01 0.1,-0.01 0.1,-0.01 0.1,-0.01 h 0.1 0.1 0.11 0.1 0.1 0.1 l 0.1,0.01 0.1,0.01 h 0.1 l 0.1,0.02 0.1,0.01 0.1,0.01 h 0.1 0.1 0.1 l 0.11,-0.01 h 0.1 l 0.1,-0.01 h 0.1 l 0.1,-0.01 0.1,-0.01 0.1,-0.01 0.1,-0.01 0.1,-0.01 0.1,-0.02 0.1,-0.01 0.1,-0.02 0.1,-0.02 0.11,-0.02 0.1,-0.02 0.1,-0.02 0.1,-0.02 0.1,-0.02 0.1,-0.03 0.1,-0.03 0.1,-0.02 0.1,-0.03 0.1,-0.03 0.1,-0.03 0.1,-0.04 0.1,-0.03 0.11,-0.03 0.1,-0.04 0.1,-0.04 0.1,-0.04 0.1,-0.04 0.1,-0.04 0.1,-0.04 0.1,-0.04 0.1,-0.05 0.1,-0.07 0.1,-0.1 0.1,-0.1 0.11,-0.1 0.1,-0.11 0.1,-0.1 0.1,-0.1 0.1,-0.11 0.1,-0.11 0.1,-0.11 0.1,-0.11 0.1,-0.11 0.1,-0.11 0.1,-0.11 0.1,-0.08 0.1,-0.07 0.11,-0.07 0.1,-0.07 0.1,-0.07 0.1,-0.07 0.1,-0.07 0.1,-0.08 0.1,-0.08 0.1,-0.08 0.1,-0.09 0.1,-0.1 0.1,-0.1 0.1,-0.1 0.1,-0.11 0.11,-0.11 0.1,-0.12 0.1,-0.12 0.1,-0.13 0.1,-0.13 0.1,-0.13 0.1,-0.14 0.1,-0.14 0.1,-0.15 0.1,-0.15 0.1,-0.16 0.1,-0.16 0.1,-0.17 0.11,-0.17 0.1,-0.17 0.1,-0.18 0.1,-0.18 0.1,-0.19 0.1,-0.19 0.1,-0.23 0.1,-0.29 0.1,-0.29 0.1,-0.29 0.1,-0.29 0.1,-0.29 0.1,-0.29 0.11,-0.29 0.1,-0.3 0.1,-0.3 0.1,-0.31 0.1,-0.31 0.1,-0.33 0.1,-0.34 0.1,-0.34 0.1,-0.35 0.1,-0.37 0.1,-0.37 0.1,-0.39 0.1,-0.39 0.11,-0.41 0.1,-0.42 0.1,-0.43 0.1,-0.44 0.1,-0.45 0.1,-0.47 0.1,-0.47 0.1,-0.49 0.1,-0.49 0.1,-0.51 0.1,-0.52 0.1,-0.53 0.1,-0.54 0.11,-0.56 0.1,-0.56 0.1,-0.58 0.1,-0.58 0.1,-0.6 0.1,-0.59 0.1,-0.6 0.1,-0.36 0.1,0.62 0.1,0.53 0.1,0.45 0.1,-0.08 0.1,-0.35 0.11,-0.36 0.1,-0.35 0.1,-0.36 0.1,-0.35 0.1,-0.35 0.1,-0.35 0.1,-0.35 0.1,-0.35 0.1,-0.35 0.1,-0.35 0.1,-0.35 0.1,-0.36 0.1,-0.35 0.11,-0.35 0.1,-0.36 0.1,-0.56 0.1,-1.07 0.1,-1.59 0.1,-2.09 0.1,-2.61 0.1,-3 0.1,-2.52 0.1,-2.64 0.1,-2.78 0.1,-2.9 0.11,-3.04 0.1,-3.16 0.1,-3.29 0.1,-3.42 0.1,-3.35 0.1,-3.31 0.1,-3.34 0.1,-3.36 0.1,-3.39 0.1,-3.41 0.1,-3.43 0.1,-3.46 0.1,-3.48 0.11,-3.51 0.1,-3.54 0.1,-3.55 0.1,-3.58 0.1,-3.61 0.1,-3.63 0.1,-3.44 0.1,-3.3 0.1,-2.09 0.1,-1.81 0.1,-2.18 0.1,-2.54 0.1,-2.91 0.11,1.26 0.1,-1.54 0.1,-1.42 0.1,-1.29 0.1,-1.15 0.1,-1.03 0.1,-0.9"
         id="path194" />
    </g>
  </g>
  <g
     fill="none"
     color="#ffffff"
     stroke="#9400d3"
     stroke-width="2"
     stroke-linecap="butt"
     stroke-linejoin="miter"
     id="g199"
     transform="translate(-672.6525,-116.93137)" />
  <g
     fill="none"
     color="#000000"
     stroke="currentColor"
     stroke-width="2"
     stroke-linecap="butt"
     stroke-linejoin="miter"
     id="g201"
     transform="translate(-672.6525,-116.93137)" />
  <g
     fill="none"
     color="#000000"
     stroke="#000000"
     stroke-width="1"
     stroke-linecap="butt"
     stroke-linejoin="miter"
     id="g203"
     transform="translate(-672.6525,-116.93137)" />
  <g
     fill="none"
     color="#000000"
     stroke="currentColor"
     stroke-width="1"
     stroke-linecap="butt"
     stroke-linejoin="miter"
     id="g207"
     transform="translate(-32.672656,-15.9225)">
    <path
       stroke="#000000"
       d="M 108.9,27.01 V 420.6 H 562.19 V 27.01 Z"
       id="path205" />
  </g>
  <g
     fill="none"
     color="#000000"
     stroke="currentColor"
     stroke-width="1"
     stroke-linecap="butt"
     stroke-linejoin="miter"
     id="g209"
     transform="translate(-672.6525,-116.93137)" />
  <metadata
     id="metadata218">
    <rdf:RDF>
      <cc:Work
         rdf:about="">
        <dc:title>Gnuplot</dc:title>
      </cc:Work>
    </rdf:RDF>
  </metadata>
</svg>
