<?xml version="1.0" encoding="UTF-8" standalone="no"?>
<svg
   width="583.59601"
   height="476.25699"
   viewBox="0 0 583.59601 476.25699"
   version="1.1"
   id="svg266"
   sodipodi:docname="4EnoESM.svg"
   inkscape:version="1.2 (dc2aedaf03, 2022-05-15)"
   xmlns:inkscape="http://www.inkscape.org/namespaces/inkscape"
   xmlns:sodipodi="http://sodipodi.sourceforge.net/DTD/sodipodi-0.dtd"
   xmlns:xlink="http://www.w3.org/1999/xlink"
   xmlns="http://www.w3.org/2000/svg"
   xmlns:svg="http://www.w3.org/2000/svg"
   xmlns:rdf="http://www.w3.org/1999/02/22-rdf-syntax-ns#"
   xmlns:cc="http://creativecommons.org/ns#"
   xmlns:dc="http://purl.org/dc/elements/1.1/">
  <defs
     id="defs270">
    <defs
       id="defs34">
      <circle
         id="gpDot"
         r="0.5"
         stroke-width="0.5"
         stroke="currentColor"
         cx="0"
         cy="0" />
      <path
         id="gpPt0"
         stroke-width="0.222"
         stroke="currentColor"
         d="M -1,0 H 1 M 0,-1 v 2" />
      <path
         id="gpPt1"
         stroke-width="0.222"
         stroke="currentColor"
         d="M -1,-1 1,1 M 1,-1 -1,1" />
      <path
         id="gpPt2"
         stroke-width="0.222"
         stroke="currentColor"
         d="M -1,0 H 1 M 0,-1 v 2 m -1,-2 2,2 m -2,0 2,-2" />
      <rect
         id="gpPt3"
         stroke-width="0.222"
         stroke="currentColor"
         x="-1"
         y="-1"
         width="2"
         height="2" />
      <rect
         id="gpPt4"
         stroke-width="0.222"
         stroke="currentColor"
         fill="currentColor"
         x="-1"
         y="-1"
         width="2"
         height="2" />
      <circle
         id="gpPt5"
         stroke-width="0.222"
         stroke="currentColor"
         cx="0"
         cy="0"
         r="1" />
      <use
         xlink:href="#gpPt5"
         id="gpPt6"
         fill="currentColor"
         stroke="none" />
      <path
         id="gpPt7"
         stroke-width="0.222"
         stroke="currentColor"
         d="m 0,-1.33 -1.33,2 h 2.66 z" />
      <use
         xlink:href="#gpPt7"
         id="gpPt8"
         fill="currentColor"
         stroke="none" />
      <use
         xlink:href="#gpPt7"
         id="gpPt9"
         stroke="currentColor"
         transform="scale(-1)" />
      <use
         xlink:href="#gpPt9"
         id="gpPt10"
         fill="currentColor"
         stroke="none" />
      <use
         xlink:href="#gpPt3"
         id="gpPt11"
         stroke="currentColor"
         transform="rotate(45)" />
      <use
         xlink:href="#gpPt11"
         id="gpPt12"
         fill="currentColor"
         stroke="none" />
      <path
         id="gpPt13"
         stroke-width="0.222"
         stroke="currentColor"
         d="M 0,1.33 1.265,0.411 0.782,-1.067 -0.782,-1.076 -1.265,0.411 Z" />
      <use
         xlink:href="#gpPt13"
         id="gpPt14"
         fill="currentColor"
         stroke="none" />
      <filter
         id="textbox"
         filterUnits="objectBoundingBox"
         x="0"
         y="0"
         height="1"
         width="1">
        <feFlood
           flood-color="white"
           flood-opacity="1"
           result="bgnd"
           id="feFlood24" />
        <feComposite
           in="SourceGraphic"
           in2="bgnd"
           operator="atop"
           id="feComposite26" />
      </filter>
      <filter
         id="greybox"
         filterUnits="objectBoundingBox"
         x="0"
         y="0"
         height="1"
         width="1">
        <feFlood
           flood-color="lightgrey"
           flood-opacity="1"
           result="grey"
           id="feFlood29" />
        <feComposite
           in="SourceGraphic"
           in2="grey"
           operator="atop"
           id="feComposite31" />
      </filter>
    </defs>
  </defs>
  <sodipodi:namedview
     id="namedview268"
     pagecolor="#ffffff"
     bordercolor="#666666"
     borderopacity="1.0"
     inkscape:showpageshadow="2"
     inkscape:pageopacity="0.0"
     inkscape:pagecheckerboard="0"
     inkscape:deskcolor="#d1d1d1"
     showgrid="false"
     inkscape:zoom="1.5969425"
     inkscape:cx="291.80763"
     inkscape:cy="231.69276"
     inkscape:window-width="1858"
     inkscape:window-height="1057"
     inkscape:window-x="-8"
     inkscape:window-y="-8"
     inkscape:window-maximized="1"
     inkscape:current-layer="svg266" />
  <title
     id="title2">Gnuplot</title>
  <desc
     id="desc4">Produced by GNUPLOT 5.4 patchlevel 3 </desc>
  <g
     fill="none"
     color="#ffffff"
     stroke="currentColor"
     stroke-width="1"
     stroke-linecap="butt"
     stroke-linejoin="miter"
     id="g36"
     transform="translate(-657.17126,-77.088963)" />
  <g
     fill="none"
     color="#000000"
     stroke="currentColor"
     stroke-width="1"
     stroke-linecap="butt"
     stroke-linejoin="miter"
     id="g46"
     transform="translate(-4.0833984,-6.9225)">
    <path
       stroke="#000000"
       d="m 80.92,429.6 h 9 m 484.9,0 h -9"
       id="path38" />
    <g
       transform="translate(73.36,435.45)"
       stroke="none"
       fill="#000000"
       font-family="Arial"
       font-size="18px"
       text-anchor="end"
       id="g44">
      <text
         id="text42"><tspan
           font-family="Arial"
           id="tspan40">-0.4</tspan></text>
    </g>
  </g>
  <g
     fill="none"
     color="#000000"
     stroke="currentColor"
     stroke-width="1"
     stroke-linecap="butt"
     stroke-linejoin="miter"
     id="g56"
     transform="translate(-4.0833984,-6.9225)">
    <path
       stroke="#000000"
       d="m 80.92,383.87 h 9 m 484.9,0 h -9"
       id="path48" />
    <g
       transform="translate(73.36,389.72)"
       stroke="none"
       fill="#000000"
       font-family="Arial"
       font-size="18px"
       text-anchor="end"
       id="g54">
      <text
         id="text52"><tspan
           font-family="Arial"
           id="tspan50">-0.35</tspan></text>
    </g>
  </g>
  <g
     fill="none"
     color="#000000"
     stroke="currentColor"
     stroke-width="1"
     stroke-linecap="butt"
     stroke-linejoin="miter"
     id="g66"
     transform="translate(-4.0833984,-6.9225)">
    <path
       stroke="#000000"
       d="m 80.92,338.14 h 9 m 484.9,0 h -9"
       id="path58" />
    <g
       transform="translate(73.36,343.99)"
       stroke="none"
       fill="#000000"
       font-family="Arial"
       font-size="18px"
       text-anchor="end"
       id="g64">
      <text
         id="text62"><tspan
           font-family="Arial"
           id="tspan60">-0.3</tspan></text>
    </g>
  </g>
  <g
     fill="none"
     color="#000000"
     stroke="currentColor"
     stroke-width="1"
     stroke-linecap="butt"
     stroke-linejoin="miter"
     id="g76"
     transform="translate(-4.0833984,-6.9225)">
    <path
       stroke="#000000"
       d="m 80.92,292.4 h 9 m 484.9,0 h -9"
       id="path68" />
    <g
       transform="translate(73.36,298.25)"
       stroke="none"
       fill="#000000"
       font-family="Arial"
       font-size="18px"
       text-anchor="end"
       id="g74">
      <text
         id="text72"><tspan
           font-family="Arial"
           id="tspan70">-0.25</tspan></text>
    </g>
  </g>
  <g
     fill="none"
     color="#000000"
     stroke="currentColor"
     stroke-width="1"
     stroke-linecap="butt"
     stroke-linejoin="miter"
     id="g86"
     transform="translate(-4.0833984,-6.9225)">
    <path
       stroke="#000000"
       d="m 80.92,246.67 h 9 m 484.9,0 h -9"
       id="path78" />
    <g
       transform="translate(73.36,252.52)"
       stroke="none"
       fill="#000000"
       font-family="Arial"
       font-size="18px"
       text-anchor="end"
       id="g84">
      <text
         id="text82"><tspan
           font-family="Arial"
           id="tspan80">-0.2</tspan></text>
    </g>
  </g>
  <g
     fill="none"
     color="#000000"
     stroke="currentColor"
     stroke-width="1"
     stroke-linecap="butt"
     stroke-linejoin="miter"
     id="g96"
     transform="translate(-4.0833984,-6.9225)">
    <path
       stroke="#000000"
       d="m 80.92,200.94 h 9 m 484.9,0 h -9"
       id="path88" />
    <g
       transform="translate(73.36,206.79)"
       stroke="none"
       fill="#000000"
       font-family="Arial"
       font-size="18px"
       text-anchor="end"
       id="g94">
      <text
         id="text92"><tspan
           font-family="Arial"
           id="tspan90">-0.15</tspan></text>
    </g>
  </g>
  <g
     fill="none"
     color="#000000"
     stroke="currentColor"
     stroke-width="1"
     stroke-linecap="butt"
     stroke-linejoin="miter"
     id="g106"
     transform="translate(-4.0833984,-6.9225)">
    <path
       stroke="#000000"
       d="m 80.92,155.21 h 9 m 484.9,0 h -9"
       id="path98" />
    <g
       transform="translate(73.36,161.06)"
       stroke="none"
       fill="#000000"
       font-family="Arial"
       font-size="18px"
       text-anchor="end"
       id="g104">
      <text
         id="text102"><tspan
           font-family="Arial"
           id="tspan100">-0.1</tspan></text>
    </g>
  </g>
  <g
     fill="none"
     color="#000000"
     stroke="currentColor"
     stroke-width="1"
     stroke-linecap="butt"
     stroke-linejoin="miter"
     id="g116"
     transform="translate(-4.0833984,-6.9225)">
    <path
       stroke="#000000"
       d="m 80.92,109.47 h 9 m 484.9,0 h -9"
       id="path108" />
    <g
       transform="translate(73.36,115.32)"
       stroke="none"
       fill="#000000"
       font-family="Arial"
       font-size="18px"
       text-anchor="end"
       id="g114">
      <text
         id="text112"><tspan
           font-family="Arial"
           id="tspan110">-0.05</tspan></text>
    </g>
  </g>
  <g
     fill="none"
     color="#000000"
     stroke="currentColor"
     stroke-width="1"
     stroke-linecap="butt"
     stroke-linejoin="miter"
     id="g126"
     transform="translate(-4.0833984,-6.9225)">
    <path
       stroke="#000000"
       d="m 80.92,63.74 h 9 m 484.9,0 h -9"
       id="path118" />
    <g
       transform="translate(73.36,69.59)"
       stroke="none"
       fill="#000000"
       font-family="Arial"
       font-size="18px"
       text-anchor="end"
       id="g124">
      <text
         id="text122"><tspan
           font-family="Arial"
           id="tspan120">0</tspan></text>
    </g>
  </g>
  <g
     fill="none"
     color="#000000"
     stroke="currentColor"
     stroke-width="1"
     stroke-linecap="butt"
     stroke-linejoin="miter"
     id="g136"
     transform="translate(-4.0833984,-6.9225)">
    <path
       stroke="#000000"
       d="m 80.92,18.01 h 9 m 484.9,0 h -9"
       id="path128" />
    <g
       transform="translate(73.36,23.86)"
       stroke="none"
       fill="#000000"
       font-family="Arial"
       font-size="18px"
       text-anchor="end"
       id="g134">
      <text
         id="text132"><tspan
           font-family="Arial"
           id="tspan130">0.05</tspan></text>
    </g>
  </g>
  <g
     fill="none"
     color="#000000"
     stroke="currentColor"
     stroke-width="1"
     stroke-linecap="butt"
     stroke-linejoin="miter"
     id="g146"
     transform="translate(-4.0833984,-6.9225)">
    <path
       stroke="#000000"
       d="m 80.92,429.6 v -9 m 0,-402.59 v 9"
       id="path138" />
    <g
       transform="translate(80.92,449.85)"
       stroke="none"
       fill="#000000"
       font-family="Arial"
       font-size="18px"
       text-anchor="middle"
       id="g144">
      <text
         id="text142"><tspan
           font-family="Arial"
           id="tspan140">0</tspan></text>
    </g>
  </g>
  <g
     fill="none"
     color="#000000"
     stroke="currentColor"
     stroke-width="1"
     stroke-linecap="butt"
     stroke-linejoin="miter"
     id="g156"
     transform="translate(-4.0833984,-6.9225)">
    <path
       stroke="#000000"
       d="m 151.44,429.6 v -9 m 0,-402.59 v 9"
       id="path148" />
    <g
       transform="translate(151.44,449.85)"
       stroke="none"
       fill="#000000"
       font-family="Arial"
       font-size="18px"
       text-anchor="middle"
       id="g154">
      <text
         id="text152"><tspan
           font-family="Arial"
           id="tspan150">10</tspan></text>
    </g>
  </g>
  <g
     fill="none"
     color="#000000"
     stroke="currentColor"
     stroke-width="1"
     stroke-linecap="butt"
     stroke-linejoin="miter"
     id="g166"
     transform="translate(-4.0833984,-6.9225)">
    <path
       stroke="#000000"
       d="m 221.95,429.6 v -9 m 0,-402.59 v 9"
       id="path158" />
    <g
       transform="translate(221.95,449.85)"
       stroke="none"
       fill="#000000"
       font-family="Arial"
       font-size="18px"
       text-anchor="middle"
       id="g164">
      <text
         id="text162"><tspan
           font-family="Arial"
           id="tspan160">20</tspan></text>
    </g>
  </g>
  <g
     fill="none"
     color="#000000"
     stroke="currentColor"
     stroke-width="1"
     stroke-linecap="butt"
     stroke-linejoin="miter"
     id="g176"
     transform="translate(-4.0833984,-6.9225)">
    <path
       stroke="#000000"
       d="m 292.47,429.6 v -9 m 0,-402.59 v 9"
       id="path168" />
    <g
       transform="translate(292.47,449.85)"
       stroke="none"
       fill="#000000"
       font-family="Arial"
       font-size="18px"
       text-anchor="middle"
       id="g174">
      <text
         id="text172"><tspan
           font-family="Arial"
           id="tspan170">30</tspan></text>
    </g>
  </g>
  <g
     fill="none"
     color="#000000"
     stroke="currentColor"
     stroke-width="1"
     stroke-linecap="butt"
     stroke-linejoin="miter"
     id="g186"
     transform="translate(-4.0833984,-6.9225)">
    <path
       stroke="#000000"
       d="m 362.98,429.6 v -9 m 0,-402.59 v 9"
       id="path178" />
    <g
       transform="translate(362.98,449.85)"
       stroke="none"
       fill="#000000"
       font-family="Arial"
       font-size="18px"
       text-anchor="middle"
       id="g184">
      <text
         id="text182"><tspan
           font-family="Arial"
           id="tspan180">40</tspan></text>
    </g>
  </g>
  <g
     fill="none"
     color="#000000"
     stroke="currentColor"
     stroke-width="1"
     stroke-linecap="butt"
     stroke-linejoin="miter"
     id="g196"
     transform="translate(-4.0833984,-6.9225)">
    <path
       stroke="#000000"
       d="m 433.5,429.6 v -9 m 0,-402.59 v 9"
       id="path188" />
    <g
       transform="translate(433.5,449.85)"
       stroke="none"
       fill="#000000"
       font-family="Arial"
       font-size="18px"
       text-anchor="middle"
       id="g194">
      <text
         id="text192"><tspan
           font-family="Arial"
           id="tspan190">50</tspan></text>
    </g>
  </g>
  <g
     fill="none"
     color="#000000"
     stroke="currentColor"
     stroke-width="1"
     stroke-linecap="butt"
     stroke-linejoin="miter"
     id="g206"
     transform="translate(-4.0833984,-6.9225)">
    <path
       stroke="#000000"
       d="m 504.01,429.6 v -9 m 0,-402.59 v 9"
       id="path198" />
    <g
       transform="translate(504.01,449.85)"
       stroke="none"
       fill="#000000"
       font-family="Arial"
       font-size="18px"
       text-anchor="middle"
       id="g204">
      <text
         id="text202"><tspan
           font-family="Arial"
           id="tspan200">60</tspan></text>
    </g>
  </g>
  <g
     fill="none"
     color="#000000"
     stroke="currentColor"
     stroke-width="1"
     stroke-linecap="butt"
     stroke-linejoin="miter"
     id="g216"
     transform="translate(-4.0833984,-6.9225)">
    <path
       stroke="#000000"
       d="m 574.53,429.6 v -9 m 0,-402.59 v 9"
       id="path208" />
    <g
       transform="translate(574.53,449.85)"
       stroke="none"
       fill="#000000"
       font-family="Arial"
       font-size="18px"
       text-anchor="middle"
       id="g214">
      <text
         id="text212"><tspan
           font-family="Arial"
           id="tspan210">70</tspan></text>
    </g>
  </g>
  <g
     fill="none"
     color="#000000"
     stroke="currentColor"
     stroke-width="1"
     stroke-linecap="butt"
     stroke-linejoin="miter"
     id="g218"
     transform="translate(-657.17126,-77.088963)" />
  <g
     fill="none"
     color="#000000"
     stroke="currentColor"
     stroke-width="1"
     stroke-linecap="butt"
     stroke-linejoin="miter"
     id="g222"
     transform="translate(-4.0833984,-6.9225)">
    <path
       stroke="#000000"
       d="M 80.92,18.01 V 429.6 h 493.9 V 18.01 Z"
       id="path220" />
  </g>
  <g
     fill="none"
     color="#000000"
     stroke="currentColor"
     stroke-width="1"
     stroke-linecap="butt"
     stroke-linejoin="miter"
     id="g230"
     transform="translate(-4.0833984,-6.9225)">
    <g
       transform="rotate(-90,123.955,99.855)"
       stroke="none"
       fill="#000000"
       font-family="Arial"
       font-size="22px"
       text-anchor="middle"
       id="g228">
      <text
         id="text226"><tspan
           font-family="Arial"
           id="tspan224">v0 (Hartree)</tspan></text>
    </g>
  </g>
  <g
     fill="none"
     color="#000000"
     stroke="currentColor"
     stroke-width="1"
     stroke-linecap="butt"
     stroke-linejoin="miter"
     id="g242"
     transform="translate(-4.0833984,-6.9225)">
    <g
       transform="translate(327.87,474.55)"
       stroke="none"
       fill="#000000"
       font-family="Arial"
       font-size="22px"
       text-anchor="middle"
       id="g240">
      <text
         id="text238"><tspan
           font-family="Arial"
           id="tspan232">x (</tspan><tspan
           font-family="Arial"
           id="tspan234">Å</tspan><tspan
           font-family="Arial"
           id="tspan236">)</tspan></text>
    </g>
  </g>
  <g
     fill="none"
     color="#000000"
     stroke="currentColor"
     stroke-width="1"
     stroke-linecap="butt"
     stroke-linejoin="miter"
     id="g244"
     transform="translate(-657.17126,-77.088963)" />
  <g
     id="gnuplot_plot_1"
     transform="translate(-4.0833984,-6.9225)">
    <title
       id="title246">'wf4EwoESM.dat' u 2:3</title>
    <g
       fill="none"
       color="#000000"
       stroke="currentColor"
       stroke-width="1"
       stroke-linecap="butt"
       stroke-linejoin="miter"
       id="g250">
      <path
         stroke="#9400d3"
         d="m 80.92,66.55 h 0.68 0.68 0.68 0.67 0.68 0.68 0.68 0.68 0.68 0.67 0.68 0.68 0.68 0.68 0.68 0.67 0.68 0.68 l 0.68,0.01 h 0.68 0.68 0.68 0.67 0.68 0.68 0.68 0.68 0.68 0.67 0.68 0.68 0.68 0.68 0.68 0.68 0.67 0.68 0.68 0.68 l 0.68,0.01 h 0.68 0.67 0.68 0.68 0.68 0.68 0.68 0.67 0.68 0.68 0.68 0.68 0.68 0.68 0.67 0.68 l 0.68,0.01 h 0.68 0.68 0.68 0.67 0.68 0.68 0.68 0.68 0.68 0.68 0.67 0.68 0.68 0.68 l 0.68,0.01 h 0.68 0.67 0.68 0.68 0.68 0.68 0.68 0.67 0.68 0.68 0.68 0.68 0.68 l 0.68,0.01 h 0.67 0.68 0.68 0.68 0.68 0.68 0.67 0.68 0.68 0.68 0.68 l 0.68,0.01 h 0.67 0.68 0.68 0.68 0.68 0.68 0.68 0.67 0.68 l 0.68,0.01 0.68,0.09 0.68,0.23 0.68,0.34 0.67,0.39 0.68,0.35 0.68,0.3 0.68,0.25 0.68,0.19 0.68,0.28 0.68,-0.02 0.67,-0.04 0.68,0.08 0.68,-0.01 0.68,0.02 0.68,-0.1 0.68,-0.04 0.67,-0.01 0.68,-0.04 0.68,-0.01 h 0.68 l 0.68,-0.02 0.68,0.09 0.67,0.12 0.68,0.02 0.68,0.07 0.68,0.01 0.68,-0.01 0.68,-0.01 0.68,0.01 0.67,0.04 0.68,0.04 0.68,0.02 0.68,0.02 h 0.68 l 0.68,0.02 0.67,0.02 0.68,-0.03 0.68,0.01 0.68,0.01 0.68,-0.03 0.68,0.01 0.68,0.03 0.67,0.04 0.68,0.09 0.68,0.16 0.68,0.16 0.68,0.27 0.68,0.38 0.67,0.22 0.68,0.09 0.68,0.04 h 0.68 l 0.68,0.06 0.68,0.15 0.67,0.2 0.68,0.18 0.68,0.11 0.68,0.06 0.68,0.04 0.68,-0.04 0.68,-0.07 0.67,0.07 0.68,0.16 0.68,0.17 0.68,0.2 0.68,0.07 0.68,0.27 0.67,0.43 0.68,0.31 0.68,0.44 0.68,0.49 0.68,0.53 0.68,0.54 0.68,0.59 0.67,0.75 0.68,0.69 0.68,0.53 0.68,0.42 0.68,0.74 0.68,1 0.67,0.72 0.68,0.73 0.68,1.16 0.68,1.48 0.68,1.56 0.68,1.68 0.67,1.89 0.68,2.03 0.68,2.09 0.68,2.08 0.68,2.04 0.68,1.92 0.68,1.71 0.67,1.35 0.68,0.85 0.68,1.46 0.68,4.52 0.68,5.67 0.68,4.51 0.67,3.24 0.68,1.12 0.68,2.02 0.68,3.53 0.68,3.22 0.68,3.25 0.67,3.85 0.68,4.57 0.68,5.1 0.68,5.49 0.68,5.99 0.68,6.75 0.68,7.83 0.67,9.13 0.68,10.5 0.68,11.81 0.68,12.94 0.68,13.78 0.68,14.34 0.67,14.64 0.68,14.66 0.68,14.46 0.68,13.9 0.68,12.96 0.68,11.84 0.68,10.18 0.67,8.35 0.68,8.89 0.68,12.21 0.68,13.07 0.68,10.35 0.68,7.4 0.67,4.3 0.68,1.27 0.68,-0.11 0.68,-0.59 0.68,-1.14 0.68,-1.5 0.67,-2.69 0.68,-5.48 0.68,-8.08 0.68,-9.88 0.68,-10.72 0.68,-7.93 0.68,-3.52 0.67,-1.99 0.68,-1.7 0.68,-0.63 0.68,0.71 0.68,1.92 0.68,2.4 0.67,3.22 0.68,6.79 0.68,10.47 0.68,10.33 0.68,8.59 0.68,6.21 0.68,3.13 0.67,1.22 0.68,0.58 0.68,-0.1 0.68,-0.71 0.68,-1.7 0.68,-4.31 0.67,-7.31 0.68,-9.37 0.68,-10.84 0.68,-9.45 0.68,-4.97 0.68,-2.59 0.67,-2.2 0.68,-1.31 0.68,0.05 0.68,1.41 0.68,2.22 0.68,2.68 0.68,5.39 0.67,9.81 0.68,10.82 0.68,9.27 0.68,7.14 0.68,4.07 0.68,1.61 0.67,0.71 0.68,0.08 0.68,-0.61 0.68,-1.33 0.68,-3.45 0.68,-6.59 0.67,-8.9 0.68,-10.6 0.68,-10.37 0.68,-6.3 0.68,-2.97 0.68,-2.27 0.68,-1.64 0.67,-0.33 0.68,1.05 0.68,2.1 0.68,2.44 0.68,4.23 0.68,8.65 0.67,10.9 0.68,9.74 0.68,7.79 0.68,4.94 0.68,2.09 0.68,0.83 0.68,0.24 0.67,-0.46 0.68,-1.05 0.68,-2.59 0.68,-5.61 0.68,-8.19 0.68,-10.02 0.67,-10.74 0.68,-7.73 0.68,-3.68 0.68,-2.44 0.68,-2.09 0.68,-0.97 0.67,0.37 0.68,1.54 0.68,1.93 0.68,2.98 0.68,6.96 0.68,10.52 0.68,10.19 0.67,8.48 0.68,6.08 0.68,3.14 0.68,1.62 0.68,1.22 0.68,0.7 0.67,0.23 0.68,-0.85 0.68,-3.62 0.68,-6.84 0.68,-9.72 0.68,-12.71 0.68,-12.73 0.67,-9.45 0.68,-8.19 0.68,-9.75 0.68,-11.57 0.68,-12.75 0.68,-13.75 0.67,-14.37 0.68,-14.65 0.68,-14.66 0.68,-14.42 0.68,-13.91 0.68,-13.13 0.67,-12.05 0.68,-10.78 0.68,-9.4 0.68,-8.08 0.68,-6.94 0.68,-6.12 0.68,-5.58 0.67,-5.17 0.68,-4.7 0.68,-4 0.68,-3.34 0.68,-3.16 0.68,-3.54 0.67,-2.48 0.68,-0.97 0.68,-2.79 0.68,-4.38 0.68,-5.43 0.68,-5.02 0.67,-2 0.68,-0.77 0.68,-1.27 0.68,-1.65 0.68,-1.89 0.68,-2.01 0.68,-2.09 0.67,-2.09 0.68,-2.05 0.68,-1.91 0.68,-1.73 0.68,-1.57 0.68,-1.51 0.67,-1.24 0.68,-0.81 0.68,-0.67 0.68,-0.97 0.68,-0.83 0.68,-0.45 0.68,-0.5 0.67,-0.64 0.68,-0.77 0.68,-0.63 0.68,-0.53 0.68,-0.54 0.68,-0.5 0.67,-0.45 0.68,-0.35 0.68,-0.39 0.68,-0.28 0.68,-0.12 0.68,-0.18 0.67,-0.17 0.68,-0.18 0.68,-0.09 0.68,0.1 0.68,0.01 0.68,-0.06 0.68,-0.02 0.67,-0.1 0.68,-0.17 0.68,-0.22 0.68,-0.14 0.68,-0.08 0.68,-0.04 0.67,0.05 0.68,-0.09 0.68,-0.34 0.68,-0.26 0.68,-0.22 0.68,-0.24 0.68,-0.17 0.67,-0.1 0.68,-0.04 0.68,-0.05 h 0.68 l 0.68,0.03 0.68,-0.02 h 0.67 l 0.68,0.02 0.68,-0.01 h 0.68 l 0.68,-0.02 0.68,-0.01 0.67,-0.03 0.68,-0.04 0.68,-0.03 0.68,-0.02 0.68,0.01 0.68,0.01 0.68,0.01 0.67,-0.08 0.68,-0.19 0.68,0.03 0.68,0.08 0.68,-0.12 0.68,-0.01 h 0.67 l 0.68,0.03 0.68,0.01 0.68,0.07 0.68,0.07 0.68,0.03 0.67,-0.01 0.68,-0.06 0.68,0.02 0.68,-0.06 0.68,-0.2 0.68,-0.17 0.68,-0.24 0.67,-0.29 0.68,-0.33 0.68,-0.39 0.68,-0.36 0.68,-0.26 0.68,-0.12 0.67,-0.01 h 0.68 0.68 0.68 0.68 0.68 0.68 0.67 0.68 0.68 l 0.68,-0.01 h 0.68 0.68 0.67 0.68 0.68 0.68 0.68 0.68 0.67 0.68 0.68 l 0.68,-0.01 h 0.68 0.68 0.68 0.67 0.68 0.68 0.68 0.68 0.68 0.67 0.68 0.68 0.68 l 0.68,-0.01 h 0.68 0.68 0.67 0.68 0.68 0.68 0.68 0.68 0.67 0.68 0.68 0.68 0.68 0.68 l 0.67,-0.01 h 0.68 0.68 0.68 0.68 0.68 0.68 0.67 0.68 0.68 0.68 0.68 0.68 0.67 0.68 0.68 0.68 l 0.68,-0.01 h 0.68 0.68 0.67 0.68 0.68 0.68 0.68 0.68 0.67 0.68 0.68 0.68 0.68 0.68 0.67 0.68 0.68 0.68 0.68 0.68 l 0.68,-0.01 h 0.67 0.68 0.68 0.68 0.68 0.68 0.67 0.68 0.68 0.68 0.68 0.68 0.67 0.68 0.68 0.68 0.68 0.68 0.68 0.67 0.68 0.68 0.68 0.68 0.68 0.67 l 0.68,-0.01 h 0.68 0.68 0.68 0.68 0.68 0.67 0.68 0.68 0.68 0.68 0.68 0.67 0.68 0.68 0.68 0.68 0.68 0.67 0.68 0.68 0.68 0.68 0.68 0.68 0.67 0.68 0.68 0.68 0.68 0.68 0.67 0.68 0.68 0.68 0.68 0.68 0.68 0.67 0.68 0.68 0.68 0.68 0.68 0.67 0.68 0.68 0.68 0.68 0.68 0.67 0.68 0.68 0.68 0.68 0.68 0.68 0.67 0.68 0.68 0.68 0.68 0.68 0.67 0.68 0.68 0.68 0.68 0.68 0.67 0.68 0.68 0.68 0.68 0.68 0.68 0.67 0.68 0.68 0.68 0.68 0.68 0.67 0.68 0.68 0.68 0.68 0.68 0.68 0.67 0.68 0.68 0.68 0.68 0.68 0.67 0.68 0.68 0.68 0.68 0.68 0.67 0.68 0.68 0.68 0.68 0.68 0.68 0.67 0.68 0.68 0.68 0.68 0.68 0.67 0.68 0.68 0.68 0.68 0.68 0.68 0.67 0.68 0.68 0.68 0.68 0.68 0.67 0.68 l 0.68,0.01 h 0.68 0.68 0.68 0.67 0.68 0.68 0.68"
         id="path248" />
    </g>
  </g>
  <g
     fill="none"
     color="#ffffff"
     stroke="#9400d3"
     stroke-width="2"
     stroke-linecap="butt"
     stroke-linejoin="miter"
     id="g253"
     transform="translate(-657.17126,-77.088963)" />
  <g
     fill="none"
     color="#000000"
     stroke="currentColor"
     stroke-width="2"
     stroke-linecap="butt"
     stroke-linejoin="miter"
     id="g255"
     transform="translate(-657.17126,-77.088963)" />
  <g
     fill="none"
     color="#000000"
     stroke="#000000"
     stroke-width="1"
     stroke-linecap="butt"
     stroke-linejoin="miter"
     id="g257"
     transform="translate(-657.17126,-77.088963)" />
  <g
     fill="none"
     color="#000000"
     stroke="currentColor"
     stroke-width="1"
     stroke-linecap="butt"
     stroke-linejoin="miter"
     id="g261"
     transform="translate(-4.0833984,-6.9225)">
    <path
       stroke="#000000"
       d="M 80.92,18.01 V 429.6 h 493.9 V 18.01 Z"
       id="path259" />
  </g>
  <g
     fill="none"
     color="#000000"
     stroke="currentColor"
     stroke-width="1"
     stroke-linecap="butt"
     stroke-linejoin="miter"
     id="g263"
     transform="translate(-657.17126,-77.088963)" />
  <metadata
     id="metadata569">
    <rdf:RDF>
      <cc:Work
         rdf:about="">
        <dc:title>Gnuplot</dc:title>
      </cc:Work>
    </rdf:RDF>
  </metadata>
</svg>
