<?xml version="1.0" encoding="UTF-8" standalone="no"?>
<svg
   width="583.59601"
   height="469.67001"
   viewBox="0 0 583.59601 469.67001"
   version="1.1"
   id="svg246"
   sodipodi:docname="oneside4EwESM.svg"
   inkscape:version="1.2 (dc2aedaf03, 2022-05-15)"
   xmlns:inkscape="http://www.inkscape.org/namespaces/inkscape"
   xmlns:sodipodi="http://sodipodi.sourceforge.net/DTD/sodipodi-0.dtd"
   xmlns:xlink="http://www.w3.org/1999/xlink"
   xmlns="http://www.w3.org/2000/svg"
   xmlns:svg="http://www.w3.org/2000/svg"
   xmlns:rdf="http://www.w3.org/1999/02/22-rdf-syntax-ns#"
   xmlns:cc="http://creativecommons.org/ns#"
   xmlns:dc="http://purl.org/dc/elements/1.1/">
  <defs
     id="defs250">
    <defs
       id="defs34">
      <circle
         id="gpDot"
         r="0.5"
         stroke-width="0.5"
         stroke="currentColor"
         cx="0"
         cy="0" />
      <path
         id="gpPt0"
         stroke-width="0.222"
         stroke="currentColor"
         d="M -1,0 H 1 M 0,-1 v 2" />
      <path
         id="gpPt1"
         stroke-width="0.222"
         stroke="currentColor"
         d="M -1,-1 1,1 M 1,-1 -1,1" />
      <path
         id="gpPt2"
         stroke-width="0.222"
         stroke="currentColor"
         d="M -1,0 H 1 M 0,-1 v 2 m -1,-2 2,2 m -2,0 2,-2" />
      <rect
         id="gpPt3"
         stroke-width="0.222"
         stroke="currentColor"
         x="-1"
         y="-1"
         width="2"
         height="2" />
      <rect
         id="gpPt4"
         stroke-width="0.222"
         stroke="currentColor"
         fill="currentColor"
         x="-1"
         y="-1"
         width="2"
         height="2" />
      <circle
         id="gpPt5"
         stroke-width="0.222"
         stroke="currentColor"
         cx="0"
         cy="0"
         r="1" />
      <use
         xlink:href="#gpPt5"
         id="gpPt6"
         fill="currentColor"
         stroke="none" />
      <path
         id="gpPt7"
         stroke-width="0.222"
         stroke="currentColor"
         d="m 0,-1.33 -1.33,2 h 2.66 z" />
      <use
         xlink:href="#gpPt7"
         id="gpPt8"
         fill="currentColor"
         stroke="none" />
      <use
         xlink:href="#gpPt7"
         id="gpPt9"
         stroke="currentColor"
         transform="scale(-1)" />
      <use
         xlink:href="#gpPt9"
         id="gpPt10"
         fill="currentColor"
         stroke="none" />
      <use
         xlink:href="#gpPt3"
         id="gpPt11"
         stroke="currentColor"
         transform="rotate(45)" />
      <use
         xlink:href="#gpPt11"
         id="gpPt12"
         fill="currentColor"
         stroke="none" />
      <path
         id="gpPt13"
         stroke-width="0.222"
         stroke="currentColor"
         d="M 0,1.33 1.265,0.411 0.782,-1.067 -0.782,-1.076 -1.265,0.411 Z" />
      <use
         xlink:href="#gpPt13"
         id="gpPt14"
         fill="currentColor"
         stroke="none" />
      <filter
         id="textbox"
         filterUnits="objectBoundingBox"
         x="0"
         y="0"
         height="1"
         width="1">
        <feFlood
           flood-color="white"
           flood-opacity="1"
           result="bgnd"
           id="feFlood24" />
        <feComposite
           in="SourceGraphic"
           in2="bgnd"
           operator="atop"
           id="feComposite26" />
      </filter>
      <filter
         id="greybox"
         filterUnits="objectBoundingBox"
         x="0"
         y="0"
         height="1"
         width="1">
        <feFlood
           flood-color="lightgrey"
           flood-opacity="1"
           result="grey"
           id="feFlood29" />
        <feComposite
           in="SourceGraphic"
           in2="grey"
           operator="atop"
           id="feComposite31" />
      </filter>
    </defs>
  </defs>
  <sodipodi:namedview
     id="namedview248"
     pagecolor="#ffffff"
     bordercolor="#666666"
     borderopacity="1.0"
     inkscape:showpageshadow="2"
     inkscape:pageopacity="0.0"
     inkscape:pagecheckerboard="0"
     inkscape:deskcolor="#d1d1d1"
     showgrid="false"
     inkscape:zoom="1.4928528"
     inkscape:cx="293.39799"
     inkscape:cy="229.09158"
     inkscape:window-width="1858"
     inkscape:window-height="1057"
     inkscape:window-x="-8"
     inkscape:window-y="-8"
     inkscape:window-maximized="1"
     inkscape:current-layer="svg246" />
  <title
     id="title2">Gnuplot</title>
  <desc
     id="desc4">Produced by GNUPLOT 5.4 patchlevel 3 </desc>
  <g
     fill="none"
     color="#ffffff"
     stroke="currentColor"
     stroke-width="1"
     stroke-linecap="butt"
     stroke-linejoin="miter"
     id="g36"
     transform="translate(-636.42974,-26.916744)" />
  <g
     fill="none"
     color="#000000"
     stroke="currentColor"
     stroke-width="1"
     stroke-linecap="butt"
     stroke-linejoin="miter"
     id="g46"
     transform="translate(-4.0833984,-11.51)">
    <path
       stroke="#000000"
       d="m 80.92,399.48 h 9 m 484.9,0 h -9"
       id="path38" />
    <g
       transform="translate(73.36,405.33)"
       stroke="none"
       fill="#000000"
       font-family="Arial"
       font-size="18px"
       text-anchor="end"
       id="g44">
      <text
         id="text42"><tspan
           font-family="Arial"
           id="tspan40">-0.35</tspan></text>
    </g>
  </g>
  <g
     fill="none"
     color="#000000"
     stroke="currentColor"
     stroke-width="1"
     stroke-linecap="butt"
     stroke-linejoin="miter"
     id="g56"
     transform="translate(-4.0833984,-11.51)">
    <path
       stroke="#000000"
       d="m 80.92,349.29 h 9 m 484.9,0 h -9"
       id="path48" />
    <g
       transform="translate(73.36,355.14)"
       stroke="none"
       fill="#000000"
       font-family="Arial"
       font-size="18px"
       text-anchor="end"
       id="g54">
      <text
         id="text52"><tspan
           font-family="Arial"
           id="tspan50">-0.3</tspan></text>
    </g>
  </g>
  <g
     fill="none"
     color="#000000"
     stroke="currentColor"
     stroke-width="1"
     stroke-linecap="butt"
     stroke-linejoin="miter"
     id="g66"
     transform="translate(-4.0833984,-11.51)">
    <path
       stroke="#000000"
       d="m 80.92,299.1 h 9 m 484.9,0 h -9"
       id="path58" />
    <g
       transform="translate(73.36,304.95)"
       stroke="none"
       fill="#000000"
       font-family="Arial"
       font-size="18px"
       text-anchor="end"
       id="g64">
      <text
         id="text62"><tspan
           font-family="Arial"
           id="tspan60">-0.25</tspan></text>
    </g>
  </g>
  <g
     fill="none"
     color="#000000"
     stroke="currentColor"
     stroke-width="1"
     stroke-linecap="butt"
     stroke-linejoin="miter"
     id="g76"
     transform="translate(-4.0833984,-11.51)">
    <path
       stroke="#000000"
       d="m 80.92,248.9 h 9 m 484.9,0 h -9"
       id="path68" />
    <g
       transform="translate(73.36,254.75)"
       stroke="none"
       fill="#000000"
       font-family="Arial"
       font-size="18px"
       text-anchor="end"
       id="g74">
      <text
         id="text72"><tspan
           font-family="Arial"
           id="tspan70">-0.2</tspan></text>
    </g>
  </g>
  <g
     fill="none"
     color="#000000"
     stroke="currentColor"
     stroke-width="1"
     stroke-linecap="butt"
     stroke-linejoin="miter"
     id="g86"
     transform="translate(-4.0833984,-11.51)">
    <path
       stroke="#000000"
       d="m 80.92,198.71 h 9 m 484.9,0 h -9"
       id="path78" />
    <g
       transform="translate(73.36,204.56)"
       stroke="none"
       fill="#000000"
       font-family="Arial"
       font-size="18px"
       text-anchor="end"
       id="g84">
      <text
         id="text82"><tspan
           font-family="Arial"
           id="tspan80">-0.15</tspan></text>
    </g>
  </g>
  <g
     fill="none"
     color="#000000"
     stroke="currentColor"
     stroke-width="1"
     stroke-linecap="butt"
     stroke-linejoin="miter"
     id="g96"
     transform="translate(-4.0833984,-11.51)">
    <path
       stroke="#000000"
       d="m 80.92,148.51 h 9 m 484.9,0 h -9"
       id="path88" />
    <g
       transform="translate(73.36,154.36)"
       stroke="none"
       fill="#000000"
       font-family="Arial"
       font-size="18px"
       text-anchor="end"
       id="g94">
      <text
         id="text92"><tspan
           font-family="Arial"
           id="tspan90">-0.1</tspan></text>
    </g>
  </g>
  <g
     fill="none"
     color="#000000"
     stroke="currentColor"
     stroke-width="1"
     stroke-linecap="butt"
     stroke-linejoin="miter"
     id="g106"
     transform="translate(-4.0833984,-11.51)">
    <path
       stroke="#000000"
       d="m 80.92,98.32 h 9 m 484.9,0 h -9"
       id="path98" />
    <g
       transform="translate(73.36,104.17)"
       stroke="none"
       fill="#000000"
       font-family="Arial"
       font-size="18px"
       text-anchor="end"
       id="g104">
      <text
         id="text102"><tspan
           font-family="Arial"
           id="tspan100">-0.05</tspan></text>
    </g>
  </g>
  <g
     fill="none"
     color="#000000"
     stroke="currentColor"
     stroke-width="1"
     stroke-linecap="butt"
     stroke-linejoin="miter"
     id="g116"
     transform="translate(-4.0833984,-11.51)">
    <path
       stroke="#000000"
       d="m 80.92,48.13 h 9 m 484.9,0 h -9"
       id="path108" />
    <g
       transform="translate(73.36,53.98)"
       stroke="none"
       fill="#000000"
       font-family="Arial"
       font-size="18px"
       text-anchor="end"
       id="g114">
      <text
         id="text112"><tspan
           font-family="Arial"
           id="tspan110">0</tspan></text>
    </g>
  </g>
  <g
     fill="none"
     color="#000000"
     stroke="currentColor"
     stroke-width="1"
     stroke-linecap="butt"
     stroke-linejoin="miter"
     id="g126"
     transform="translate(-4.0833984,-11.51)">
    <path
       stroke="#000000"
       d="m 80.92,429.6 v -9 m 0,-402.59 v 9"
       id="path118" />
    <g
       transform="translate(80.92,449.85)"
       stroke="none"
       fill="#000000"
       font-family="Arial"
       font-size="18px"
       text-anchor="middle"
       id="g124">
      <text
         id="text122"><tspan
           font-family="Arial"
           id="tspan120">0</tspan></text>
    </g>
  </g>
  <g
     fill="none"
     color="#000000"
     stroke="currentColor"
     stroke-width="1"
     stroke-linecap="butt"
     stroke-linejoin="miter"
     id="g136"
     transform="translate(-4.0833984,-11.51)">
    <path
       stroke="#000000"
       d="m 151.44,429.6 v -9 m 0,-402.59 v 9"
       id="path128" />
    <g
       transform="translate(151.44,449.85)"
       stroke="none"
       fill="#000000"
       font-family="Arial"
       font-size="18px"
       text-anchor="middle"
       id="g134">
      <text
         id="text132"><tspan
           font-family="Arial"
           id="tspan130">10</tspan></text>
    </g>
  </g>
  <g
     fill="none"
     color="#000000"
     stroke="currentColor"
     stroke-width="1"
     stroke-linecap="butt"
     stroke-linejoin="miter"
     id="g146"
     transform="translate(-4.0833984,-11.51)">
    <path
       stroke="#000000"
       d="m 221.95,429.6 v -9 m 0,-402.59 v 9"
       id="path138" />
    <g
       transform="translate(221.95,449.85)"
       stroke="none"
       fill="#000000"
       font-family="Arial"
       font-size="18px"
       text-anchor="middle"
       id="g144">
      <text
         id="text142"><tspan
           font-family="Arial"
           id="tspan140">20</tspan></text>
    </g>
  </g>
  <g
     fill="none"
     color="#000000"
     stroke="currentColor"
     stroke-width="1"
     stroke-linecap="butt"
     stroke-linejoin="miter"
     id="g156"
     transform="translate(-4.0833984,-11.51)">
    <path
       stroke="#000000"
       d="m 292.47,429.6 v -9 m 0,-402.59 v 9"
       id="path148" />
    <g
       transform="translate(292.47,449.85)"
       stroke="none"
       fill="#000000"
       font-family="Arial"
       font-size="18px"
       text-anchor="middle"
       id="g154">
      <text
         id="text152"><tspan
           font-family="Arial"
           id="tspan150">30</tspan></text>
    </g>
  </g>
  <g
     fill="none"
     color="#000000"
     stroke="currentColor"
     stroke-width="1"
     stroke-linecap="butt"
     stroke-linejoin="miter"
     id="g166"
     transform="translate(-4.0833984,-11.51)">
    <path
       stroke="#000000"
       d="m 362.98,429.6 v -9 m 0,-402.59 v 9"
       id="path158" />
    <g
       transform="translate(362.98,449.85)"
       stroke="none"
       fill="#000000"
       font-family="Arial"
       font-size="18px"
       text-anchor="middle"
       id="g164">
      <text
         id="text162"><tspan
           font-family="Arial"
           id="tspan160">40</tspan></text>
    </g>
  </g>
  <g
     fill="none"
     color="#000000"
     stroke="currentColor"
     stroke-width="1"
     stroke-linecap="butt"
     stroke-linejoin="miter"
     id="g176"
     transform="translate(-4.0833984,-11.51)">
    <path
       stroke="#000000"
       d="m 433.5,429.6 v -9 m 0,-402.59 v 9"
       id="path168" />
    <g
       transform="translate(433.5,449.85)"
       stroke="none"
       fill="#000000"
       font-family="Arial"
       font-size="18px"
       text-anchor="middle"
       id="g174">
      <text
         id="text172"><tspan
           font-family="Arial"
           id="tspan170">50</tspan></text>
    </g>
  </g>
  <g
     fill="none"
     color="#000000"
     stroke="currentColor"
     stroke-width="1"
     stroke-linecap="butt"
     stroke-linejoin="miter"
     id="g186"
     transform="translate(-4.0833984,-11.51)">
    <path
       stroke="#000000"
       d="m 504.01,429.6 v -9 m 0,-402.59 v 9"
       id="path178" />
    <g
       transform="translate(504.01,449.85)"
       stroke="none"
       fill="#000000"
       font-family="Arial"
       font-size="18px"
       text-anchor="middle"
       id="g184">
      <text
         id="text182"><tspan
           font-family="Arial"
           id="tspan180">60</tspan></text>
    </g>
  </g>
  <g
     fill="none"
     color="#000000"
     stroke="currentColor"
     stroke-width="1"
     stroke-linecap="butt"
     stroke-linejoin="miter"
     id="g196"
     transform="translate(-4.0833984,-11.51)">
    <path
       stroke="#000000"
       d="m 574.53,429.6 v -9 m 0,-402.59 v 9"
       id="path188" />
    <g
       transform="translate(574.53,449.85)"
       stroke="none"
       fill="#000000"
       font-family="Arial"
       font-size="18px"
       text-anchor="middle"
       id="g194">
      <text
         id="text192"><tspan
           font-family="Arial"
           id="tspan190">70</tspan></text>
    </g>
  </g>
  <g
     fill="none"
     color="#000000"
     stroke="currentColor"
     stroke-width="1"
     stroke-linecap="butt"
     stroke-linejoin="miter"
     id="g198"
     transform="translate(-636.42974,-26.916744)" />
  <g
     fill="none"
     color="#000000"
     stroke="currentColor"
     stroke-width="1"
     stroke-linecap="butt"
     stroke-linejoin="miter"
     id="g202"
     transform="translate(-4.0833984,-11.51)">
    <path
       stroke="#000000"
       d="M 80.92,18.01 V 429.6 h 493.9 V 18.01 Z"
       id="path200" />
  </g>
  <g
     fill="none"
     color="#000000"
     stroke="currentColor"
     stroke-width="1"
     stroke-linecap="butt"
     stroke-linejoin="miter"
     id="g210"
     transform="translate(-4.0833984,-11.51)">
    <g
       transform="rotate(-90,123.955,99.855)"
       stroke="none"
       fill="#000000"
       font-family="Arial"
       font-size="22px"
       text-anchor="middle"
       id="g208">
      <text
         id="text206"><tspan
           font-family="Arial"
           id="tspan204">v0 (Hartree)</tspan></text>
    </g>
  </g>
  <g
     fill="none"
     color="#000000"
     stroke="currentColor"
     stroke-width="1"
     stroke-linecap="butt"
     stroke-linejoin="miter"
     id="g222"
     transform="translate(-4.0833984,-11.51)">
    <g
       transform="translate(327.87,474.55)"
       stroke="none"
       fill="#000000"
       font-family="Arial"
       font-size="22px"
       text-anchor="middle"
       id="g220">
      <text
         id="text218"><tspan
           font-family="Arial"
           id="tspan212">x (</tspan><tspan
           font-family="Arial"
           id="tspan214">Å</tspan><tspan
           font-family="Arial"
           id="tspan216">)</tspan></text>
    </g>
  </g>
  <g
     fill="none"
     color="#000000"
     stroke="currentColor"
     stroke-width="1"
     stroke-linecap="butt"
     stroke-linejoin="miter"
     id="g224"
     transform="translate(-636.42974,-26.916744)" />
  <g
     id="gnuplot_plot_1"
     transform="translate(-4.0833984,-11.51)">
    <title
       id="title226">'wfoneside4E.dat' u 2:3</title>
    <g
       fill="none"
       color="#000000"
       stroke="currentColor"
       stroke-width="1"
       stroke-linecap="butt"
       stroke-linejoin="miter"
       id="g230">
      <path
         stroke="#9400d3"
         d="m 80.92,49.02 0.68,2.97 0.68,2.39 0.68,1.33 0.67,0.24 0.68,-0.03 0.68,0.01 h 0.68 0.68 0.68 l 0.67,0.01 h 0.68 0.68 0.68 0.68 0.68 l 0.67,0.01 h 0.68 0.68 0.68 0.68 l 0.68,0.01 h 0.68 0.67 0.68 0.68 l 0.68,0.01 h 0.68 0.68 0.67 0.68 l 0.68,0.01 h 0.68 0.68 0.68 0.68 l 0.67,0.01 h 0.68 0.68 0.68 0.68 0.68 l 0.67,0.01 h 0.68 0.68 0.68 0.68 l 0.68,0.01 h 0.67 0.68 0.68 0.68 l 0.68,0.01 h 0.68 0.68 0.67 0.68 l 0.68,0.01 h 0.68 0.68 0.68 0.67 l 0.68,0.01 h 0.68 0.68 0.68 0.68 0.68 l 0.67,0.01 h 0.68 0.68 0.68 0.68 l 0.68,0.01 h 0.67 0.68 0.68 0.68 l 0.68,0.01 h 0.68 0.67 0.68 0.68 l 0.68,0.01 h 0.68 0.68 0.68 0.67 l 0.68,0.01 h 0.68 0.68 0.68 0.68 l 0.67,0.01 h 0.68 0.68 0.68 0.68 l 0.68,0.01 h 0.67 0.68 0.68 0.68 0.68 l 0.68,0.01 h 0.68 0.67 0.68 0.68 l 0.68,0.01 h 0.68 0.68 0.67 0.68 l 0.68,0.01 h 0.68 0.68 0.68 0.68 l 0.67,0.01 h 0.68 0.68 0.68 0.68 l 0.68,0.01 h 0.67 0.68 0.68 0.68 0.68 l 0.68,0.01 h 0.67 0.68 0.68 0.68 l 0.68,0.01 h 0.68 0.68 0.67 0.68 l 0.68,0.01 h 0.68 0.68 0.68 0.67 l 0.68,0.01 h 0.68 0.68 0.68 0.68 l 0.68,0.01 h 0.67 0.68 0.68 0.68 0.68 l 0.68,0.01 h 0.67 0.68 0.68 0.68 l 0.68,0.01 h 0.68 0.67 0.68 0.68 l 0.68,0.01 h 0.68 0.68 0.68 0.67 l 0.68,0.01 h 0.68 0.68 0.68 0.68 l 0.67,0.01 h 0.68 0.68 0.68 0.68 0.68 l 0.68,0.01 h 0.67 0.68 0.68 0.68 l 0.68,0.01 h 0.68 0.67 0.68 0.68 l 0.68,0.01 h 0.68 0.68 0.67 0.68 l 0.68,0.01 h 0.68 0.68 0.68 0.68 l 0.67,0.01 h 0.68 0.68 l 0.68,0.2 0.68,1.72 0.68,6.06 0.67,9.06 0.68,10.82 0.68,10.7 0.68,10.2 0.68,9.83 0.68,9.2 0.67,8.16 0.68,6.72 0.68,5.12 0.68,3.91 0.68,3.63 0.68,4.44 0.68,6.28 0.67,8.8 0.68,11.47 0.68,13.84 0.68,15.5 0.68,16.34 0.68,16.51 0.67,16.25 0.68,15.71 0.68,15.01 0.68,14.18 0.68,13.25 0.68,12.14 0.68,10.4 0.67,8.5 0.68,9.22 0.68,12.95 0.68,13.98 0.68,11.11 0.68,7.95 0.67,4.63 0.68,1.36 0.68,-0.11 0.68,-0.63 0.68,-1.2 0.68,-1.59 0.67,-2.89 0.68,-5.95 0.68,-8.83 0.68,-10.8 0.68,-11.74 0.68,-8.69 0.68,-3.86 0.67,-2.19 0.68,-1.87 0.68,-0.71 0.68,0.75 0.68,2.09 0.68,2.61 0.67,3.5 0.68,7.42 0.68,11.44 0.68,11.3 0.68,9.4 0.68,6.8 0.68,3.42 0.67,1.35 0.68,0.65 0.68,-0.1 0.68,-0.76 0.68,-1.85 0.68,-4.71 0.67,-8.01 0.68,-10.27 0.68,-11.88 0.68,-10.35 0.68,-5.45 0.68,-2.82 0.67,-2.42 0.68,-1.43 0.68,0.07 0.68,1.54 0.68,2.44 0.68,2.95 0.68,5.92 0.67,10.77 0.68,11.88 0.68,10.19 0.68,7.84 0.68,4.46 0.68,1.77 0.67,0.79 0.68,0.09 0.68,-0.68 0.68,-1.47 0.68,-3.79 0.68,-7.24 0.67,-9.76 0.68,-11.64 0.68,-11.38 0.68,-6.93 0.68,-3.26 0.68,-2.51 0.68,-1.8 0.67,-0.38 0.68,1.14 0.68,2.3 0.68,2.67 0.68,4.62 0.68,9.48 0.67,11.95 0.68,10.67 0.68,8.54 0.68,5.41 0.68,2.27 0.68,0.89 0.68,0.25 0.67,-0.53 0.68,-1.16 0.68,-2.86 0.68,-6.16 0.68,-9 0.68,-10.99 0.67,-11.77 0.68,-8.49 0.68,-4.03 0.68,-2.66 0.68,-2.29 0.68,-1.05 0.67,0.41 0.68,1.71 0.68,2.13 0.68,3.27 0.68,7.66 0.68,11.56 0.68,11.2 0.67,9.31 0.68,6.67 0.68,3.46 0.68,1.78 0.68,1.34 0.68,0.78 0.67,0.26 0.68,-0.92 0.68,-3.95 0.68,-7.48 0.68,-10.64 0.68,-13.91 0.68,-13.94 0.67,-10.35 0.68,-8.96 0.68,-10.68 0.68,-12.68 0.68,-13.98 0.68,-15.06 0.67,-15.77 0.68,-16.06 0.68,-16.09 0.68,-15.82 0.68,-15.27 0.68,-14.39 0.67,-13.21 0.68,-11.8 0.68,-10.29 0.68,-8.84 0.68,-7.59 0.68,-6.69 0.68,-6.11 0.67,-5.67 0.68,-5.14 0.68,-4.39 0.68,-3.66 0.68,-3.46 0.68,-3.89 0.67,-2.73 0.68,-1.08 0.68,-3.07 0.68,-4.81 0.68,-5.94 0.68,-5.5 0.67,-2.2 0.68,-0.85 0.68,-1.38 0.68,-1.82 0.68,-2.06 0.68,-2.22 0.68,-2.27 0.67,-2.29 0.68,-2.24 0.68,-2.1 0.68,-1.9 0.68,-1.72 0.68,-1.66 0.67,-1.35 0.68,-0.89 0.68,-0.71 0.68,-1.09 0.68,-0.94 0.68,-0.48 0.68,-0.53 0.67,-0.71 0.68,-0.85 0.68,-0.7 0.68,-0.56 0.68,-0.59 0.68,-0.54 0.67,-0.49 0.68,-0.38 0.68,-0.46 0.68,-0.3 0.68,-0.09 0.68,-0.23 0.67,-0.18 0.68,-0.19 0.68,-0.1 0.68,0.1 0.68,0.01 0.68,-0.07 0.68,-0.01 0.67,-0.12 0.68,-0.18 0.68,-0.24 0.68,-0.16 0.68,-0.09 0.68,-0.04 0.67,0.05 0.68,-0.1 0.68,-0.37 0.68,-0.29 0.68,-0.24 0.68,-0.27 0.68,-0.18 0.67,-0.12 0.68,-0.05 0.68,-0.04 0.68,-0.01 0.68,0.03 0.68,-0.02 h 0.67 l 0.68,0.02 0.68,-0.01 h 0.68 l 0.68,-0.02 0.68,-0.02 0.67,-0.03 0.68,-0.04 0.68,-0.04 0.68,-0.02 h 0.68 l 0.68,0.02 h 0.68 l 0.67,-0.07 0.68,-0.22 0.68,0.04 0.68,0.08 0.68,-0.14 h 0.68 0.67 l 0.68,0.02 0.68,0.02 0.68,0.07 0.68,0.08 0.68,0.03 0.67,-0.01 0.68,-0.06 0.68,0.02 0.68,-0.08 0.68,-0.22 0.68,-0.18 0.68,-0.27 0.67,-0.31 0.68,-0.38 0.68,-0.42 0.68,-0.4 0.68,-0.29 0.68,-0.13 0.67,-0.01 h 0.68 l 0.68,-0.01 h 0.68 0.68 0.68 0.68 0.67 l 0.68,-0.01 h 0.68 0.68 0.68 0.68 l 0.67,-0.01 h 0.68 0.68 0.68 0.68 l 0.68,-0.01 h 0.67 0.68 0.68 0.68 l 0.68,-0.01 h 0.68 0.68 0.67 0.68 l 0.68,-0.01 h 0.68 0.68 0.68 0.67 0.68 l 0.68,-0.01 h 0.68 0.68 0.68 0.68 l 0.67,-0.01 h 0.68 0.68 0.68 0.68 l 0.68,-0.01 h 0.67 0.68 0.68 0.68 l 0.68,-0.01 h 0.68 0.67 0.68 0.68 l 0.68,-0.01 h 0.68 0.68 0.68 0.67 0.68 l 0.68,-0.01 h 0.68 0.68 0.68 0.67 l 0.68,-0.01 h 0.68 0.68 0.68 0.68 l 0.68,-0.01 h 0.67 0.68 0.68 0.68 l 0.68,-0.01 h 0.68 0.67 0.68 0.68 l 0.68,-0.01 h 0.68 0.68 0.67 0.68 0.68 l 0.68,-0.01 h 0.68 0.68 0.68 0.67 l 0.68,-0.01 h 0.68 0.68 0.68 0.68 l 0.67,-0.01 h 0.68 0.68 0.68 0.68 l 0.68,-0.01 h 0.67 0.68 0.68 0.68 l 0.68,-0.01 h 0.68 0.68 0.67 0.68 l 0.68,-0.01 h 0.68 0.68 0.68 0.67 l 0.68,-0.01 h 0.68 0.68 0.68 0.68 0.68 l 0.67,-0.01 h 0.68 0.68 0.68 0.68 l 0.68,-0.01 h 0.67 0.68 0.68 0.68 l 0.68,-0.01 h 0.68 0.67 0.68 0.68 l 0.68,-0.01 h 0.68 0.68 0.68 0.67 l 0.68,-0.01 h 0.68 0.68 0.68 0.68 0.67 l 0.68,-0.01 h 0.68 0.68 0.68 0.68 l 0.68,-0.01 h 0.67 0.68 0.68 0.68 l 0.68,-0.01 h 0.68 0.67 0.68 0.68 l 0.68,-0.01 h 0.68 0.68 0.67 0.68 l 0.68,-0.01 h 0.68 0.68 0.68 0.68 0.67 l 0.68,-0.01 h 0.68 0.68 0.68 0.68 l 0.67,-0.01 h 0.68 0.68 0.68 0.68 l 0.68,-0.01 h 0.67 0.68 0.68 0.68 l 0.68,-0.01 h 0.68 0.68 0.67 0.68 l 0.68,-0.01 h 0.68 0.68 0.68 0.67 0.68 l 0.68,-0.01 h 0.68 0.68 0.68 0.68 l 0.67,-0.01 h 0.68 0.68 0.68 0.68 l 0.68,-0.01 h 0.67 0.68 0.68 0.68 L 549.72,39 h 0.68 0.67 0.68 0.68 l 0.68,-0.01 h 0.68 0.68 0.68 0.67 0.68 l 0.68,-0.01 h 0.68 0.68 0.68 l 0.67,-0.01 h 0.68 0.68 0.68 0.68 0.68 l 0.68,-0.01 h 0.67 0.68 0.68 0.68 l 0.68,-0.01 h 0.68 0.67 0.68 0.68 l 0.68,-0.01 0.68,0.01 0.68,-0.04 0.67,0.24 0.68,1.33 0.68,2.39 0.68,2.96"
         id="path228" />
    </g>
  </g>
  <g
     fill="none"
     color="#ffffff"
     stroke="#9400d3"
     stroke-width="2"
     stroke-linecap="butt"
     stroke-linejoin="miter"
     id="g233"
     transform="translate(-636.42974,-26.916744)" />
  <g
     fill="none"
     color="#000000"
     stroke="currentColor"
     stroke-width="2"
     stroke-linecap="butt"
     stroke-linejoin="miter"
     id="g235"
     transform="translate(-636.42974,-26.916744)" />
  <g
     fill="none"
     color="#000000"
     stroke="#000000"
     stroke-width="1"
     stroke-linecap="butt"
     stroke-linejoin="miter"
     id="g237"
     transform="translate(-636.42974,-26.916744)" />
  <g
     fill="none"
     color="#000000"
     stroke="currentColor"
     stroke-width="1"
     stroke-linecap="butt"
     stroke-linejoin="miter"
     id="g241"
     transform="translate(-4.0833984,-11.51)">
    <path
       stroke="#000000"
       d="M 80.92,18.01 V 429.6 h 493.9 V 18.01 Z"
       id="path239" />
  </g>
  <g
     fill="none"
     color="#000000"
     stroke="currentColor"
     stroke-width="1"
     stroke-linecap="butt"
     stroke-linejoin="miter"
     id="g243"
     transform="translate(-636.42974,-26.916744)" />
  <metadata
     id="metadata252">
    <rdf:RDF>
      <cc:Work
         rdf:about="">
        <dc:title>Gnuplot</dc:title>
      </cc:Work>
    </rdf:RDF>
  </metadata>
</svg>
