<?xml version="1.0" encoding="UTF-8" standalone="no"?>
<svg
   width="583.59601"
   height="469.67001"
   viewBox="0 0 583.59601 469.67001"
   version="1.1"
   id="svg246"
   sodipodi:docname="oneside4EwoESM.svg"
   inkscape:version="1.2 (dc2aedaf03, 2022-05-15)"
   xmlns:inkscape="http://www.inkscape.org/namespaces/inkscape"
   xmlns:sodipodi="http://sodipodi.sourceforge.net/DTD/sodipodi-0.dtd"
   xmlns:xlink="http://www.w3.org/1999/xlink"
   xmlns="http://www.w3.org/2000/svg"
   xmlns:svg="http://www.w3.org/2000/svg"
   xmlns:rdf="http://www.w3.org/1999/02/22-rdf-syntax-ns#"
   xmlns:cc="http://creativecommons.org/ns#"
   xmlns:dc="http://purl.org/dc/elements/1.1/">
  <defs
     id="defs250">
    <defs
       id="defs34">
      <circle
         id="gpDot"
         r="0.5"
         stroke-width="0.5"
         stroke="currentColor"
         cx="0"
         cy="0" />
      <path
         id="gpPt0"
         stroke-width="0.222"
         stroke="currentColor"
         d="M -1,0 H 1 M 0,-1 v 2" />
      <path
         id="gpPt1"
         stroke-width="0.222"
         stroke="currentColor"
         d="M -1,-1 1,1 M 1,-1 -1,1" />
      <path
         id="gpPt2"
         stroke-width="0.222"
         stroke="currentColor"
         d="M -1,0 H 1 M 0,-1 v 2 m -1,-2 2,2 m -2,0 2,-2" />
      <rect
         id="gpPt3"
         stroke-width="0.222"
         stroke="currentColor"
         x="-1"
         y="-1"
         width="2"
         height="2" />
      <rect
         id="gpPt4"
         stroke-width="0.222"
         stroke="currentColor"
         fill="currentColor"
         x="-1"
         y="-1"
         width="2"
         height="2" />
      <circle
         id="gpPt5"
         stroke-width="0.222"
         stroke="currentColor"
         cx="0"
         cy="0"
         r="1" />
      <use
         xlink:href="#gpPt5"
         id="gpPt6"
         fill="currentColor"
         stroke="none" />
      <path
         id="gpPt7"
         stroke-width="0.222"
         stroke="currentColor"
         d="m 0,-1.33 -1.33,2 h 2.66 z" />
      <use
         xlink:href="#gpPt7"
         id="gpPt8"
         fill="currentColor"
         stroke="none" />
      <use
         xlink:href="#gpPt7"
         id="gpPt9"
         stroke="currentColor"
         transform="scale(-1)" />
      <use
         xlink:href="#gpPt9"
         id="gpPt10"
         fill="currentColor"
         stroke="none" />
      <use
         xlink:href="#gpPt3"
         id="gpPt11"
         stroke="currentColor"
         transform="rotate(45)" />
      <use
         xlink:href="#gpPt11"
         id="gpPt12"
         fill="currentColor"
         stroke="none" />
      <path
         id="gpPt13"
         stroke-width="0.222"
         stroke="currentColor"
         d="M 0,1.33 1.265,0.411 0.782,-1.067 -0.782,-1.076 -1.265,0.411 Z" />
      <use
         xlink:href="#gpPt13"
         id="gpPt14"
         fill="currentColor"
         stroke="none" />
      <filter
         id="textbox"
         filterUnits="objectBoundingBox"
         x="0"
         y="0"
         height="1"
         width="1">
        <feFlood
           flood-color="white"
           flood-opacity="1"
           result="bgnd"
           id="feFlood24" />
        <feComposite
           in="SourceGraphic"
           in2="bgnd"
           operator="atop"
           id="feComposite26" />
      </filter>
      <filter
         id="greybox"
         filterUnits="objectBoundingBox"
         x="0"
         y="0"
         height="1"
         width="1">
        <feFlood
           flood-color="lightgrey"
           flood-opacity="1"
           result="grey"
           id="feFlood29" />
        <feComposite
           in="SourceGraphic"
           in2="grey"
           operator="atop"
           id="feComposite31" />
      </filter>
    </defs>
  </defs>
  <sodipodi:namedview
     id="namedview248"
     pagecolor="#ffffff"
     bordercolor="#666666"
     borderopacity="1.0"
     inkscape:showpageshadow="2"
     inkscape:pageopacity="0.0"
     inkscape:pagecheckerboard="0"
     inkscape:deskcolor="#d1d1d1"
     showgrid="false"
     inkscape:zoom="1.3902192"
     inkscape:cx="288.44373"
     inkscape:cy="225.86367"
     inkscape:window-width="1858"
     inkscape:window-height="1057"
     inkscape:window-x="-8"
     inkscape:window-y="-8"
     inkscape:window-maximized="1"
     inkscape:current-layer="svg246" />
  <title
     id="title2">Gnuplot</title>
  <desc
     id="desc4">Produced by GNUPLOT 5.4 patchlevel 3 </desc>
  <g
     fill="none"
     color="#ffffff"
     stroke="currentColor"
     stroke-width="1"
     stroke-linecap="butt"
     stroke-linejoin="miter"
     id="g36"
     transform="translate(-668.7268,-37.405198)" />
  <g
     fill="none"
     color="#000000"
     stroke="currentColor"
     stroke-width="1"
     stroke-linecap="butt"
     stroke-linejoin="miter"
     id="g46"
     transform="translate(-4.0833984,-11.51)">
    <path
       stroke="#000000"
       d="m 80.92,394.46 h 9 m 484.9,0 h -9"
       id="path38" />
    <g
       transform="translate(73.36,400.31)"
       stroke="none"
       fill="#000000"
       font-family="Arial"
       font-size="18px"
       text-anchor="end"
       id="g44">
      <text
         id="text42"><tspan
           font-family="Arial"
           id="tspan40">-0.35</tspan></text>
    </g>
  </g>
  <g
     fill="none"
     color="#000000"
     stroke="currentColor"
     stroke-width="1"
     stroke-linecap="butt"
     stroke-linejoin="miter"
     id="g56"
     transform="translate(-4.0833984,-11.51)">
    <path
       stroke="#000000"
       d="m 80.92,344.27 h 9 m 484.9,0 h -9"
       id="path48" />
    <g
       transform="translate(73.36,350.12)"
       stroke="none"
       fill="#000000"
       font-family="Arial"
       font-size="18px"
       text-anchor="end"
       id="g54">
      <text
         id="text52"><tspan
           font-family="Arial"
           id="tspan50">-0.3</tspan></text>
    </g>
  </g>
  <g
     fill="none"
     color="#000000"
     stroke="currentColor"
     stroke-width="1"
     stroke-linecap="butt"
     stroke-linejoin="miter"
     id="g66"
     transform="translate(-4.0833984,-11.51)">
    <path
       stroke="#000000"
       d="m 80.92,294.08 h 9 m 484.9,0 h -9"
       id="path58" />
    <g
       transform="translate(73.36,299.93)"
       stroke="none"
       fill="#000000"
       font-family="Arial"
       font-size="18px"
       text-anchor="end"
       id="g64">
      <text
         id="text62"><tspan
           font-family="Arial"
           id="tspan60">-0.25</tspan></text>
    </g>
  </g>
  <g
     fill="none"
     color="#000000"
     stroke="currentColor"
     stroke-width="1"
     stroke-linecap="butt"
     stroke-linejoin="miter"
     id="g76"
     transform="translate(-4.0833984,-11.51)">
    <path
       stroke="#000000"
       d="m 80.92,243.88 h 9 m 484.9,0 h -9"
       id="path68" />
    <g
       transform="translate(73.36,249.73)"
       stroke="none"
       fill="#000000"
       font-family="Arial"
       font-size="18px"
       text-anchor="end"
       id="g74">
      <text
         id="text72"><tspan
           font-family="Arial"
           id="tspan70">-0.2</tspan></text>
    </g>
  </g>
  <g
     fill="none"
     color="#000000"
     stroke="currentColor"
     stroke-width="1"
     stroke-linecap="butt"
     stroke-linejoin="miter"
     id="g86"
     transform="translate(-4.0833984,-11.51)">
    <path
       stroke="#000000"
       d="m 80.92,193.69 h 9 m 484.9,0 h -9"
       id="path78" />
    <g
       transform="translate(73.36,199.54)"
       stroke="none"
       fill="#000000"
       font-family="Arial"
       font-size="18px"
       text-anchor="end"
       id="g84">
      <text
         id="text82"><tspan
           font-family="Arial"
           id="tspan80">-0.15</tspan></text>
    </g>
  </g>
  <g
     fill="none"
     color="#000000"
     stroke="currentColor"
     stroke-width="1"
     stroke-linecap="butt"
     stroke-linejoin="miter"
     id="g96"
     transform="translate(-4.0833984,-11.51)">
    <path
       stroke="#000000"
       d="m 80.92,143.49 h 9 m 484.9,0 h -9"
       id="path88" />
    <g
       transform="translate(73.36,149.34)"
       stroke="none"
       fill="#000000"
       font-family="Arial"
       font-size="18px"
       text-anchor="end"
       id="g94">
      <text
         id="text92"><tspan
           font-family="Arial"
           id="tspan90">-0.1</tspan></text>
    </g>
  </g>
  <g
     fill="none"
     color="#000000"
     stroke="currentColor"
     stroke-width="1"
     stroke-linecap="butt"
     stroke-linejoin="miter"
     id="g106"
     transform="translate(-4.0833984,-11.51)">
    <path
       stroke="#000000"
       d="m 80.92,93.3 h 9 m 484.9,0 h -9"
       id="path98" />
    <g
       transform="translate(73.36,99.15)"
       stroke="none"
       fill="#000000"
       font-family="Arial"
       font-size="18px"
       text-anchor="end"
       id="g104">
      <text
         id="text102"><tspan
           font-family="Arial"
           id="tspan100">-0.05</tspan></text>
    </g>
  </g>
  <g
     fill="none"
     color="#000000"
     stroke="currentColor"
     stroke-width="1"
     stroke-linecap="butt"
     stroke-linejoin="miter"
     id="g116"
     transform="translate(-4.0833984,-11.51)">
    <path
       stroke="#000000"
       d="m 80.92,43.11 h 9 m 484.9,0 h -9"
       id="path108" />
    <g
       transform="translate(73.36,48.96)"
       stroke="none"
       fill="#000000"
       font-family="Arial"
       font-size="18px"
       text-anchor="end"
       id="g114">
      <text
         id="text112"><tspan
           font-family="Arial"
           id="tspan110">0</tspan></text>
    </g>
  </g>
  <g
     fill="none"
     color="#000000"
     stroke="currentColor"
     stroke-width="1"
     stroke-linecap="butt"
     stroke-linejoin="miter"
     id="g126"
     transform="translate(-4.0833984,-11.51)">
    <path
       stroke="#000000"
       d="m 80.92,429.6 v -9 m 0,-402.59 v 9"
       id="path118" />
    <g
       transform="translate(80.92,449.85)"
       stroke="none"
       fill="#000000"
       font-family="Arial"
       font-size="18px"
       text-anchor="middle"
       id="g124">
      <text
         id="text122"><tspan
           font-family="Arial"
           id="tspan120">0</tspan></text>
    </g>
  </g>
  <g
     fill="none"
     color="#000000"
     stroke="currentColor"
     stroke-width="1"
     stroke-linecap="butt"
     stroke-linejoin="miter"
     id="g136"
     transform="translate(-4.0833984,-11.51)">
    <path
       stroke="#000000"
       d="m 151.44,429.6 v -9 m 0,-402.59 v 9"
       id="path128" />
    <g
       transform="translate(151.44,449.85)"
       stroke="none"
       fill="#000000"
       font-family="Arial"
       font-size="18px"
       text-anchor="middle"
       id="g134">
      <text
         id="text132"><tspan
           font-family="Arial"
           id="tspan130">10</tspan></text>
    </g>
  </g>
  <g
     fill="none"
     color="#000000"
     stroke="currentColor"
     stroke-width="1"
     stroke-linecap="butt"
     stroke-linejoin="miter"
     id="g146"
     transform="translate(-4.0833984,-11.51)">
    <path
       stroke="#000000"
       d="m 221.95,429.6 v -9 m 0,-402.59 v 9"
       id="path138" />
    <g
       transform="translate(221.95,449.85)"
       stroke="none"
       fill="#000000"
       font-family="Arial"
       font-size="18px"
       text-anchor="middle"
       id="g144">
      <text
         id="text142"><tspan
           font-family="Arial"
           id="tspan140">20</tspan></text>
    </g>
  </g>
  <g
     fill="none"
     color="#000000"
     stroke="currentColor"
     stroke-width="1"
     stroke-linecap="butt"
     stroke-linejoin="miter"
     id="g156"
     transform="translate(-4.0833984,-11.51)">
    <path
       stroke="#000000"
       d="m 292.47,429.6 v -9 m 0,-402.59 v 9"
       id="path148" />
    <g
       transform="translate(292.47,449.85)"
       stroke="none"
       fill="#000000"
       font-family="Arial"
       font-size="18px"
       text-anchor="middle"
       id="g154">
      <text
         id="text152"><tspan
           font-family="Arial"
           id="tspan150">30</tspan></text>
    </g>
  </g>
  <g
     fill="none"
     color="#000000"
     stroke="currentColor"
     stroke-width="1"
     stroke-linecap="butt"
     stroke-linejoin="miter"
     id="g166"
     transform="translate(-4.0833984,-11.51)">
    <path
       stroke="#000000"
       d="m 362.98,429.6 v -9 m 0,-402.59 v 9"
       id="path158" />
    <g
       transform="translate(362.98,449.85)"
       stroke="none"
       fill="#000000"
       font-family="Arial"
       font-size="18px"
       text-anchor="middle"
       id="g164">
      <text
         id="text162"><tspan
           font-family="Arial"
           id="tspan160">40</tspan></text>
    </g>
  </g>
  <g
     fill="none"
     color="#000000"
     stroke="currentColor"
     stroke-width="1"
     stroke-linecap="butt"
     stroke-linejoin="miter"
     id="g176"
     transform="translate(-4.0833984,-11.51)">
    <path
       stroke="#000000"
       d="m 433.5,429.6 v -9 m 0,-402.59 v 9"
       id="path168" />
    <g
       transform="translate(433.5,449.85)"
       stroke="none"
       fill="#000000"
       font-family="Arial"
       font-size="18px"
       text-anchor="middle"
       id="g174">
      <text
         id="text172"><tspan
           font-family="Arial"
           id="tspan170">50</tspan></text>
    </g>
  </g>
  <g
     fill="none"
     color="#000000"
     stroke="currentColor"
     stroke-width="1"
     stroke-linecap="butt"
     stroke-linejoin="miter"
     id="g186"
     transform="translate(-4.0833984,-11.51)">
    <path
       stroke="#000000"
       d="m 504.01,429.6 v -9 m 0,-402.59 v 9"
       id="path178" />
    <g
       transform="translate(504.01,449.85)"
       stroke="none"
       fill="#000000"
       font-family="Arial"
       font-size="18px"
       text-anchor="middle"
       id="g184">
      <text
         id="text182"><tspan
           font-family="Arial"
           id="tspan180">60</tspan></text>
    </g>
  </g>
  <g
     fill="none"
     color="#000000"
     stroke="currentColor"
     stroke-width="1"
     stroke-linecap="butt"
     stroke-linejoin="miter"
     id="g196"
     transform="translate(-4.0833984,-11.51)">
    <path
       stroke="#000000"
       d="m 574.53,429.6 v -9 m 0,-402.59 v 9"
       id="path188" />
    <g
       transform="translate(574.53,449.85)"
       stroke="none"
       fill="#000000"
       font-family="Arial"
       font-size="18px"
       text-anchor="middle"
       id="g194">
      <text
         id="text192"><tspan
           font-family="Arial"
           id="tspan190">70</tspan></text>
    </g>
  </g>
  <g
     fill="none"
     color="#000000"
     stroke="currentColor"
     stroke-width="1"
     stroke-linecap="butt"
     stroke-linejoin="miter"
     id="g198"
     transform="translate(-668.7268,-37.405198)" />
  <g
     fill="none"
     color="#000000"
     stroke="currentColor"
     stroke-width="1"
     stroke-linecap="butt"
     stroke-linejoin="miter"
     id="g202"
     transform="translate(-4.0833984,-11.51)">
    <path
       stroke="#000000"
       d="M 80.92,18.01 V 429.6 h 493.9 V 18.01 Z"
       id="path200" />
  </g>
  <g
     fill="none"
     color="#000000"
     stroke="currentColor"
     stroke-width="1"
     stroke-linecap="butt"
     stroke-linejoin="miter"
     id="g210"
     transform="translate(-4.0833984,-11.51)">
    <g
       transform="rotate(-90,123.955,99.855)"
       stroke="none"
       fill="#000000"
       font-family="Arial"
       font-size="22px"
       text-anchor="middle"
       id="g208">
      <text
         id="text206"><tspan
           font-family="Arial"
           id="tspan204">v0 (Hartree)</tspan></text>
    </g>
  </g>
  <g
     fill="none"
     color="#000000"
     stroke="currentColor"
     stroke-width="1"
     stroke-linecap="butt"
     stroke-linejoin="miter"
     id="g222"
     transform="translate(-4.0833984,-11.51)">
    <g
       transform="translate(327.87,474.55)"
       stroke="none"
       fill="#000000"
       font-family="Arial"
       font-size="22px"
       text-anchor="middle"
       id="g220">
      <text
         id="text218"><tspan
           font-family="Arial"
           id="tspan212">x (</tspan><tspan
           font-family="Arial"
           id="tspan214">Å</tspan><tspan
           font-family="Arial"
           id="tspan216">)</tspan></text>
    </g>
  </g>
  <g
     fill="none"
     color="#000000"
     stroke="currentColor"
     stroke-width="1"
     stroke-linecap="butt"
     stroke-linejoin="miter"
     id="g224"
     transform="translate(-668.7268,-37.405198)" />
  <g
     id="gnuplot_plot_1"
     transform="translate(-4.0833984,-11.51)">
    <title
       id="title226">'wfoneside4EwoESM.dat' u 2:3</title>
    <g
       fill="none"
       color="#000000"
       stroke="currentColor"
       stroke-width="1"
       stroke-linecap="butt"
       stroke-linejoin="miter"
       id="g230">
      <path
         stroke="#9400d3"
         d="m 80.92,49.89 0.68,0.02 0.68,0.03 0.68,0.03 0.67,0.03 0.68,0.03 0.68,0.02 0.68,0.03 0.68,0.03 0.68,0.03 0.67,0.03 0.68,0.03 0.68,0.03 0.68,0.02 0.68,0.03 0.68,0.03 0.67,0.03 0.68,0.03 0.68,0.03 0.68,0.02 0.68,0.03 0.68,0.03 0.68,0.03 0.67,0.03 0.68,0.03 0.68,0.02 0.68,0.03 0.68,0.03 0.68,0.03 0.67,0.03 0.68,0.03 0.68,0.02 0.68,0.03 0.68,0.03 0.68,0.03 0.68,0.03 0.67,0.03 0.68,0.03 0.68,0.02 0.68,0.03 0.68,0.03 0.68,0.03 0.67,0.03 0.68,0.03 0.68,0.02 0.68,0.03 0.68,0.03 0.68,0.03 0.67,0.03 0.68,0.03 0.68,0.03 0.68,0.02 0.68,0.03 0.68,0.03 0.68,0.03 0.67,0.03 0.68,0.03 0.68,0.03 0.68,0.02 0.68,0.03 0.68,0.03 0.67,0.03 0.68,0.03 0.68,0.03 0.68,0.03 0.68,0.02 0.68,0.03 0.68,0.03 0.67,0.03 0.68,0.03 0.68,0.03 0.68,0.03 0.68,0.02 0.68,0.03 0.67,0.03 0.68,0.03 0.68,0.03 0.68,0.03 0.68,0.03 0.68,0.02 0.67,0.03 0.68,0.03 0.68,0.03 0.68,0.03 0.68,0.03 0.68,0.03 0.68,0.03 0.67,0.02 0.68,0.03 0.68,0.03 0.68,0.03 0.68,0.03 0.68,0.03 0.67,0.03 0.68,0.03 0.68,0.02 0.68,0.03 0.68,0.03 0.68,0.03 0.67,0.03 0.68,0.03 0.68,0.03 0.68,0.03 0.68,0.03 0.68,0.02 0.68,0.03 0.67,0.03 0.68,0.03 0.68,0.03 0.68,0.03 0.68,0.03 0.68,0.03 0.67,0.02 0.68,0.03 0.68,0.03 0.68,0.04 0.68,0.02 0.68,0.03 0.68,0.03 0.67,0.03 0.68,0.03 0.68,0.03 0.68,0.03 0.68,0.03 0.68,0.02 0.67,0.03 0.68,0.03 0.68,0.03 0.68,0.03 0.68,0.03 0.68,0.03 0.67,0.03 0.68,0.03 0.68,0.02 0.68,0.03 0.68,0.03 0.68,0.03 0.68,0.03 0.67,0.03 0.68,0.03 0.68,0.03 0.68,0.02 0.68,0.03 0.68,0.03 0.67,0.03 0.68,0.03 0.68,0.03 0.68,0.03 0.68,0.03 0.68,0.03 0.68,0.03 0.67,0.02 0.68,0.03 0.68,0.03 0.68,0.03 0.68,0.03 0.68,0.03 0.67,0.03 0.68,0.03 0.68,0.03 0.68,0.03 0.68,0.02 0.68,0.03 0.67,0.03 0.68,0.03 0.68,0.03 0.68,0.03 0.68,0.03 0.68,0.03 0.68,0.03 0.67,0.03 0.68,0.02 0.68,0.03 0.68,0.03 0.68,0.03 0.68,0.03 0.67,0.03 0.68,0.03 0.68,0.03 0.68,0.03 0.68,0.03 0.68,0.03 0.68,0.02 0.67,0.03 0.68,0.03 0.68,0.03 0.68,0.03 0.68,0.03 0.68,0.03 0.67,0.03 0.68,0.03 0.68,0.03 0.68,0.03 0.68,0.03 0.68,0.03 0.67,0.03 0.68,0.03 0.68,0.03 0.68,0.03 0.68,0.03 0.68,0.02 0.68,0.03 0.67,0.03 0.68,0.03 0.68,0.03 0.68,0.23 0.68,1.75 0.68,6.08 0.67,9.09 0.68,10.83 0.68,10.72 0.68,10.22 0.68,9.85 0.68,9.23 0.67,8.19 0.68,6.76 0.68,5.15 0.68,3.95 0.68,3.66 0.68,4.46 0.68,6.29 0.67,8.81 0.68,11.48 0.68,13.85 0.68,15.52 0.68,16.36 0.68,16.54 0.67,16.27 0.68,15.74 0.68,15.03 0.68,14.2 0.68,13.28 0.68,12.15 0.68,10.41 0.67,8.51 0.68,9.22 0.68,12.96 0.68,13.99 0.68,11.11 0.68,7.95 0.67,4.63 0.68,1.36 0.68,-0.12 0.68,-0.62 0.68,-1.2 0.68,-1.59 0.67,-2.89 0.68,-5.96 0.68,-8.82 0.68,-10.81 0.68,-11.74 0.68,-8.69 0.68,-3.86 0.67,-2.18 0.68,-1.88 0.68,-0.71 0.68,0.76 0.68,2.08 0.68,2.61 0.67,3.5 0.68,7.42 0.68,11.45 0.68,11.29 0.68,9.41 0.68,6.8 0.68,3.42 0.67,1.35 0.68,0.64 0.68,-0.09 0.68,-0.76 0.68,-1.85 0.68,-4.71 0.67,-8.01 0.68,-10.28 0.68,-11.88 0.68,-10.35 0.68,-5.44 0.68,-2.83 0.67,-2.41 0.68,-1.43 0.68,0.06 0.68,1.54 0.68,2.44 0.68,2.95 0.68,5.93 0.67,10.76 0.68,11.89 0.68,10.18 0.68,7.84 0.68,4.47 0.68,1.76 0.67,0.79 0.68,0.09 0.68,-0.67 0.68,-1.48 0.68,-3.79 0.68,-7.23 0.67,-9.77 0.68,-11.64 0.68,-11.38 0.68,-6.93 0.68,-3.26 0.68,-2.5 0.68,-1.81 0.67,-0.37 0.68,1.14 0.68,2.3 0.68,2.66 0.68,4.62 0.68,9.48 0.67,11.96 0.68,10.66 0.68,8.54 0.68,5.41 0.68,2.27 0.68,0.89 0.68,0.25 0.67,-0.53 0.68,-1.16 0.68,-2.85 0.68,-6.16 0.68,-9 0.68,-10.99 0.67,-11.78 0.68,-8.49 0.68,-4.03 0.68,-2.66 0.68,-2.29 0.68,-1.05 0.67,0.41 0.68,1.71 0.68,2.13 0.68,3.28 0.68,7.65 0.68,11.56 0.68,11.2 0.67,9.31 0.68,6.68 0.68,3.46 0.68,1.77 0.68,1.34 0.68,0.77 0.67,0.27 0.68,-0.92 0.68,-3.95 0.68,-7.48 0.68,-10.63 0.68,-13.92 0.68,-13.94 0.67,-10.34 0.68,-8.95 0.68,-10.68 0.68,-12.67 0.68,-13.96 0.68,-15.05 0.67,-15.74 0.68,-16.04 0.68,-16.07 0.68,-15.79 0.68,-15.24 0.68,-14.37 0.67,-13.2 0.68,-11.78 0.68,-10.27 0.68,-8.83 0.68,-7.58 0.68,-6.67 0.68,-6.09 0.67,-5.65 0.68,-5.12 0.68,-4.37 0.68,-3.64 0.68,-3.43 0.68,-3.86 0.67,-2.68 0.68,-1.04 0.68,-3.03 0.68,-4.77 0.68,-5.94 0.68,-5.49 0.67,-2.17 0.68,-0.81 0.68,-1.35 0.68,-1.78 0.68,-2.03 0.68,-2.18 0.68,-2.25 0.67,-2.26 0.68,-2.21 0.68,-2.07 0.68,-1.86 0.68,-1.7 0.68,-1.63 0.67,-1.34 0.68,-0.86 0.68,-0.7 0.68,-1.05 0.68,-0.9 0.68,-0.46 0.68,-0.52 0.67,-0.68 0.68,-0.82 0.68,-0.67 0.68,-0.54 0.68,-0.56 0.68,-0.52 0.67,-0.47 0.68,-0.35 0.68,-0.43 0.68,-0.27 0.68,-0.08 0.68,-0.19 0.67,-0.16 0.68,-0.17 0.68,-0.07 0.68,0.13 0.68,0.03 0.68,-0.04 0.68,0.02 0.67,-0.09 0.68,-0.16 0.68,-0.21 0.68,-0.13 0.68,-0.06 0.68,-0.01 0.67,0.08 0.68,-0.08 0.68,-0.35 0.68,-0.26 0.68,-0.21 0.68,-0.24 0.68,-0.15 0.67,-0.09 0.68,-0.02 0.68,-0.02 0.68,0.03 0.68,0.06 0.68,0.01 0.67,0.03 0.68,0.04 0.68,0.02 0.68,0.02 0.68,0.02 0.68,0.01 h 0.67 l 0.68,-0.01 0.68,-0.01 h 0.68 l 0.68,0.04 0.68,0.04 0.68,0.03 0.67,-0.05 0.68,-0.18 0.68,0.07 0.68,0.11 0.68,-0.12 0.68,0.03 0.67,0.03 0.68,0.05 0.68,0.05 0.68,0.1 0.68,0.1 0.68,0.06 0.67,0.02 0.68,-0.03 0.68,0.05 0.68,-0.05 0.68,-0.19 0.68,-0.16 0.68,-0.23 0.67,-0.29 0.68,-0.34 0.68,-0.4 0.68,-0.37 0.68,-0.26 0.68,-0.1 0.67,0.01 0.68,0.03 0.68,0.03 0.68,0.02 0.68,0.03 0.68,0.03 0.68,0.03 0.67,0.02 0.68,0.03 0.68,0.03 0.68,0.02 0.68,0.03 0.68,0.03 0.67,0.02 0.68,0.03 0.68,0.03 0.68,0.03 0.68,0.02 0.68,0.03 0.67,0.03 0.68,0.02 0.68,0.03 0.68,0.03 0.68,0.02 0.68,0.03 0.68,0.03 0.67,0.03 0.68,0.02 0.68,0.03 0.68,0.03 0.68,0.02 0.68,0.03 0.67,0.03 0.68,0.03 0.68,0.02 0.68,0.03 0.68,0.03 0.68,0.02 0.68,0.03 0.67,0.03 0.68,0.02 0.68,0.03 0.68,0.03 0.68,0.03 0.68,0.02 0.67,0.03 0.68,0.03 0.68,0.03 0.68,0.02 0.68,0.03 0.68,0.03 0.67,0.02 0.68,0.03 0.68,0.03 0.68,0.02 0.68,0.03 0.68,0.03 0.68,0.03 0.67,0.02 0.68,0.03 0.68,0.03 0.68,0.03 0.68,0.02 0.68,0.03 0.67,0.03 0.68,0.02 0.68,0.03 0.68,0.03 0.68,0.03 0.68,0.02 0.68,0.03 0.67,0.03 0.68,0.03 0.68,0.02 0.68,0.03 0.68,0.03 0.68,0.03 0.67,0.02 0.68,0.03 0.68,0.03 0.68,0.02 0.68,0.03 0.68,0.03 0.67,0.03 0.68,0.02 0.68,0.03 0.68,0.03 0.68,0.03 0.68,0.02 0.68,0.03 0.67,0.03 0.68,0.03 0.68,0.02 0.68,0.03 0.68,0.03 0.68,0.03 0.67,0.02 0.68,0.03 0.68,0.03 0.68,0.03 0.68,0.02 0.68,0.03 0.67,0.03 0.68,0.02 0.68,0.03 0.68,0.03 0.68,0.03 0.68,0.03 0.68,0.02 0.67,0.03 0.68,0.03 0.68,0.02 0.68,0.03 0.68,0.03 0.68,0.03 0.67,0.03 0.68,0.02 0.68,0.03 0.68,0.03 0.68,0.03 0.68,0.02 0.68,0.03 0.67,0.03 0.68,0.03 0.68,0.02 0.68,0.03 0.68,0.03 0.68,0.03 0.67,0.02 0.68,0.03 0.68,0.03 0.68,0.03 0.68,0.02 0.68,0.03 0.67,0.03 0.68,0.03 0.68,0.02 0.68,0.03 0.68,0.03 0.68,0.03 0.68,0.02 0.67,0.03 0.68,0.03 0.68,0.03 0.68,0.03 0.68,0.02 0.68,0.03 0.67,0.03 0.68,0.03 0.68,0.02 0.68,0.03 0.68,0.03 0.68,0.03 0.68,0.03 0.67,0.02 0.68,0.03 0.68,0.03 0.68,0.03 0.68,0.02 0.68,0.03 0.67,0.03 0.68,0.03 0.68,0.03 0.68,0.02 0.68,0.03 0.68,0.03 0.67,0.03 0.68,0.02 0.68,0.03 0.68,0.03 0.68,0.03 0.68,0.03 0.68,0.02 0.67,0.03 0.68,0.03 0.68,0.03 0.68,0.02 0.68,0.03 0.68,0.03 0.67,0.03 0.68,0.03 0.68,0.02 0.68,0.03 0.68,0.03 0.68,0.03 0.67,0.03 0.68,0.02 0.68,0.03 0.68,0.03 0.68,0.03 0.68,0.03 0.68,0.02 0.67,0.03 0.68,0.03 0.68,0.03 0.68,0.02 0.68,0.03 0.68,0.03 0.67,0.03 0.68,0.03 0.68,0.02 0.68,0.03 0.68,0.03 0.68,0.03 0.68,0.03 0.67,0.02 0.68,0.03 0.68,0.03 0.68,0.03 0.68,0.03 0.68,0.03 0.67,0.02 0.68,0.03 0.68,0.03 0.68,0.03 0.68,0.03 0.68,0.02 0.67,0.03 0.68,0.03 0.68,0.03 0.68,0.03 0.68,0.02 0.68,0.03 0.68,0.03 0.67,0.03 0.68,0.03 0.68,0.02 0.68,0.03 0.68,0.03 0.68,0.03 0.67,0.03 0.68,0.02 0.68,0.03 0.68,0.03 0.68,0.03 0.68,0.03 0.68,0.03 0.67,0.02 0.68,0.03 0.68,0.03 0.68,0.03 0.68,0.03 0.68,0.02 0.67,0.03 0.68,0.03 0.68,0.03 0.68,0.03 0.68,0.03 0.68,0.02 0.67,0.03 0.68,0.03 0.68,0.03 0.68,0.03"
         id="path228" />
    </g>
  </g>
  <g
     fill="none"
     color="#ffffff"
     stroke="#9400d3"
     stroke-width="2"
     stroke-linecap="butt"
     stroke-linejoin="miter"
     id="g233"
     transform="translate(-668.7268,-37.405198)" />
  <g
     fill="none"
     color="#000000"
     stroke="currentColor"
     stroke-width="2"
     stroke-linecap="butt"
     stroke-linejoin="miter"
     id="g235"
     transform="translate(-668.7268,-37.405198)" />
  <g
     fill="none"
     color="#000000"
     stroke="#000000"
     stroke-width="1"
     stroke-linecap="butt"
     stroke-linejoin="miter"
     id="g237"
     transform="translate(-668.7268,-37.405198)" />
  <g
     fill="none"
     color="#000000"
     stroke="currentColor"
     stroke-width="1"
     stroke-linecap="butt"
     stroke-linejoin="miter"
     id="g241"
     transform="translate(-4.0833984,-11.51)">
    <path
       stroke="#000000"
       d="M 80.92,18.01 V 429.6 h 493.9 V 18.01 Z"
       id="path239" />
  </g>
  <g
     fill="none"
     color="#000000"
     stroke="currentColor"
     stroke-width="1"
     stroke-linecap="butt"
     stroke-linejoin="miter"
     id="g243"
     transform="translate(-668.7268,-37.405198)" />
  <metadata
     id="metadata252">
    <rdf:RDF>
      <cc:Work
         rdf:about="">
        <dc:title>Gnuplot</dc:title>
      </cc:Work>
    </rdf:RDF>
  </metadata>
</svg>
