<?xml version="1.0" encoding="UTF-8" standalone="no"?>
<svg
   width="593.88599"
   height="480.25739"
   viewBox="0 0 593.88599 480.25739"
   version="1.1"
   id="svg319"
   sodipodi:docname="wf.svg"
   inkscape:version="1.1.2 (b8e25be833, 2022-02-05)"
   xmlns:inkscape="http://www.inkscape.org/namespaces/inkscape"
   xmlns:sodipodi="http://sodipodi.sourceforge.net/DTD/sodipodi-0.dtd"
   xmlns:xlink="http://www.w3.org/1999/xlink"
   xmlns="http://www.w3.org/2000/svg"
   xmlns:svg="http://www.w3.org/2000/svg"
   xmlns:rdf="http://www.w3.org/1999/02/22-rdf-syntax-ns#"
   xmlns:cc="http://creativecommons.org/ns#"
   xmlns:dc="http://purl.org/dc/elements/1.1/">
  <defs
     id="defs323">
    <defs
       id="defs34">
      <circle
         id="gpDot"
         r="0.5"
         stroke-width="0.5"
         stroke="currentColor"
         cx="0"
         cy="0" />
      <path
         id="gpPt0"
         stroke-width="0.222"
         stroke="currentColor"
         d="M -1,0 H 1 M 0,-1 v 2" />
      <path
         id="gpPt1"
         stroke-width="0.222"
         stroke="currentColor"
         d="M -1,-1 1,1 M 1,-1 -1,1" />
      <path
         id="gpPt2"
         stroke-width="0.222"
         stroke="currentColor"
         d="M -1,0 H 1 M 0,-1 v 2 m -1,-2 2,2 m -2,0 2,-2" />
      <rect
         id="gpPt3"
         stroke-width="0.222"
         stroke="currentColor"
         x="-1"
         y="-1"
         width="2"
         height="2" />
      <rect
         id="gpPt4"
         stroke-width="0.222"
         stroke="currentColor"
         fill="currentColor"
         x="-1"
         y="-1"
         width="2"
         height="2" />
      <circle
         id="gpPt5"
         stroke-width="0.222"
         stroke="currentColor"
         cx="0"
         cy="0"
         r="1" />
      <use
         xlink:href="#gpPt5"
         id="gpPt6"
         fill="currentColor"
         stroke="none"
         x="0"
         y="0"
         width="100%"
         height="100%" />
      <path
         id="gpPt7"
         stroke-width="0.222"
         stroke="currentColor"
         d="m 0,-1.33 -1.33,2 h 2.66 z" />
      <use
         xlink:href="#gpPt7"
         id="gpPt8"
         fill="currentColor"
         stroke="none"
         x="0"
         y="0"
         width="100%"
         height="100%" />
      <use
         xlink:href="#gpPt7"
         id="gpPt9"
         stroke="currentColor"
         transform="scale(-1)"
         x="0"
         y="0"
         width="100%"
         height="100%" />
      <use
         xlink:href="#gpPt9"
         id="gpPt10"
         fill="currentColor"
         stroke="none"
         x="0"
         y="0"
         width="100%"
         height="100%" />
      <use
         xlink:href="#gpPt3"
         id="gpPt11"
         stroke="currentColor"
         transform="rotate(45)"
         x="0"
         y="0"
         width="100%"
         height="100%" />
      <use
         xlink:href="#gpPt11"
         id="gpPt12"
         fill="currentColor"
         stroke="none"
         x="0"
         y="0"
         width="100%"
         height="100%" />
      <path
         id="gpPt13"
         stroke-width="0.222"
         stroke="currentColor"
         d="M 0,1.33 1.265,0.411 0.782,-1.067 -0.782,-1.076 -1.265,0.411 Z" />
      <use
         xlink:href="#gpPt13"
         id="gpPt14"
         fill="currentColor"
         stroke="none"
         x="0"
         y="0"
         width="100%"
         height="100%" />
      <filter
         id="textbox"
         filterUnits="objectBoundingBox"
         x="0"
         y="0"
         height="1"
         width="1">
        <feFlood
           flood-color="white"
           flood-opacity="1"
           result="bgnd"
           id="feFlood24" />
        <feComposite
           in="SourceGraphic"
           in2="bgnd"
           operator="atop"
           id="feComposite26" />
      </filter>
      <filter
         id="greybox"
         filterUnits="objectBoundingBox"
         x="0"
         y="0"
         height="1"
         width="1">
        <feFlood
           flood-color="lightgrey"
           flood-opacity="1"
           result="grey"
           id="feFlood29" />
        <feComposite
           in="SourceGraphic"
           in2="grey"
           operator="atop"
           id="feComposite31" />
      </filter>
    </defs>
  </defs>
  <sodipodi:namedview
     id="namedview321"
     pagecolor="#ffffff"
     bordercolor="#666666"
     borderopacity="1.0"
     inkscape:pageshadow="2"
     inkscape:pageopacity="0.0"
     inkscape:pagecheckerboard="0"
     showgrid="false"
     fit-margin-top="8"
     fit-margin-bottom="8"
     fit-margin-right="8"
     fit-margin-left="8"
     inkscape:zoom="1.2875855"
     inkscape:cx="302.11585"
     inkscape:cy="237.65412"
     inkscape:window-width="1858"
     inkscape:window-height="1057"
     inkscape:window-x="-8"
     inkscape:window-y="-8"
     inkscape:window-maximized="1"
     inkscape:current-layer="svg319" />
  <title
     id="title2">Gnuplot</title>
  <desc
     id="desc4">Produced by GNUPLOT 5.4 patchlevel 3 </desc>
  <g
     fill="none"
     color="#ffffff"
     stroke="currentColor"
     stroke-width="1"
     stroke-linecap="butt"
     stroke-linejoin="miter"
     id="g36"
     transform="translate(-648.91395,-138.8358)" />
  <g
     fill="none"
     color="#000000"
     stroke="currentColor"
     stroke-width="1"
     stroke-linecap="butt"
     stroke-linejoin="miter"
     id="g46"
     transform="translate(1.9166015,-2.9225)">
    <path
       stroke="#000000"
       d="m 80.92,426 h 9 m 484.9,0 h -9"
       id="path38" />
    <g
       transform="translate(73.36,431.85)"
       stroke="none"
       fill="#000000"
       font-family="Arial"
       font-size="18px"
       text-anchor="end"
       id="g44">
      <text
         id="text42"><tspan
           font-family="Arial"
           id="tspan40">-0.4</tspan></text>
    </g>
  </g>
  <g
     fill="none"
     color="#000000"
     stroke="currentColor"
     stroke-width="1"
     stroke-linecap="butt"
     stroke-linejoin="miter"
     id="g56"
     transform="translate(1.9166015,-2.9225)">
    <path
       stroke="#000000"
       d="m 80.92,380.67 h 9 m 484.9,0 h -9"
       id="path48" />
    <g
       transform="translate(73.36,386.52)"
       stroke="none"
       fill="#000000"
       font-family="Arial"
       font-size="18px"
       text-anchor="end"
       id="g54">
      <text
         id="text52"><tspan
           font-family="Arial"
           id="tspan50">-0.35</tspan></text>
    </g>
  </g>
  <g
     fill="none"
     color="#000000"
     stroke="currentColor"
     stroke-width="1"
     stroke-linecap="butt"
     stroke-linejoin="miter"
     id="g66"
     transform="translate(1.9166015,-2.9225)">
    <path
       stroke="#000000"
       d="m 80.92,335.34 h 9 m 484.9,0 h -9"
       id="path58" />
    <g
       transform="translate(73.36,341.19)"
       stroke="none"
       fill="#000000"
       font-family="Arial"
       font-size="18px"
       text-anchor="end"
       id="g64">
      <text
         id="text62"><tspan
           font-family="Arial"
           id="tspan60">-0.3</tspan></text>
    </g>
  </g>
  <g
     fill="none"
     color="#000000"
     stroke="currentColor"
     stroke-width="1"
     stroke-linecap="butt"
     stroke-linejoin="miter"
     id="g76"
     transform="translate(1.9166015,-2.9225)">
    <path
       stroke="#000000"
       d="m 80.92,290 h 9 m 484.9,0 h -9"
       id="path68" />
    <g
       transform="translate(73.36,295.85)"
       stroke="none"
       fill="#000000"
       font-family="Arial"
       font-size="18px"
       text-anchor="end"
       id="g74">
      <text
         id="text72"><tspan
           font-family="Arial"
           id="tspan70">-0.25</tspan></text>
    </g>
  </g>
  <g
     fill="none"
     color="#000000"
     stroke="currentColor"
     stroke-width="1"
     stroke-linecap="butt"
     stroke-linejoin="miter"
     id="g86"
     transform="translate(1.9166015,-2.9225)">
    <path
       stroke="#000000"
       d="m 80.92,244.67 h 9 m 484.9,0 h -9"
       id="path78" />
    <g
       transform="translate(73.36,250.52)"
       stroke="none"
       fill="#000000"
       font-family="Arial"
       font-size="18px"
       text-anchor="end"
       id="g84">
      <text
         id="text82"><tspan
           font-family="Arial"
           id="tspan80">-0.2</tspan></text>
    </g>
  </g>
  <g
     fill="none"
     color="#000000"
     stroke="currentColor"
     stroke-width="1"
     stroke-linecap="butt"
     stroke-linejoin="miter"
     id="g96"
     transform="translate(1.9166015,-2.9225)">
    <path
       stroke="#000000"
       d="m 80.92,199.34 h 9 m 484.9,0 h -9"
       id="path88" />
    <g
       transform="translate(73.36,205.19)"
       stroke="none"
       fill="#000000"
       font-family="Arial"
       font-size="18px"
       text-anchor="end"
       id="g94">
      <text
         id="text92"><tspan
           font-family="Arial"
           id="tspan90">-0.15</tspan></text>
    </g>
  </g>
  <g
     fill="none"
     color="#000000"
     stroke="currentColor"
     stroke-width="1"
     stroke-linecap="butt"
     stroke-linejoin="miter"
     id="g106"
     transform="translate(1.9166015,-2.9225)">
    <path
       stroke="#000000"
       d="m 80.92,154.01 h 9 m 484.9,0 h -9"
       id="path98" />
    <g
       transform="translate(73.36,159.86)"
       stroke="none"
       fill="#000000"
       font-family="Arial"
       font-size="18px"
       text-anchor="end"
       id="g104">
      <text
         id="text102"><tspan
           font-family="Arial"
           id="tspan100">-0.1</tspan></text>
    </g>
  </g>
  <g
     fill="none"
     color="#000000"
     stroke="currentColor"
     stroke-width="1"
     stroke-linecap="butt"
     stroke-linejoin="miter"
     id="g116"
     transform="translate(1.9166015,-2.9225)">
    <path
       stroke="#000000"
       d="m 80.92,108.67 h 9 m 484.9,0 h -9"
       id="path108" />
    <g
       transform="translate(73.36,114.52)"
       stroke="none"
       fill="#000000"
       font-family="Arial"
       font-size="18px"
       text-anchor="end"
       id="g114">
      <text
         id="text112"><tspan
           font-family="Arial"
           id="tspan110">-0.05</tspan></text>
    </g>
  </g>
  <g
     fill="none"
     color="#000000"
     stroke="currentColor"
     stroke-width="1"
     stroke-linecap="butt"
     stroke-linejoin="miter"
     id="g126"
     transform="translate(1.9166015,-2.9225)">
    <path
       stroke="#000000"
       d="m 80.92,63.34 h 9 m 484.9,0 h -9"
       id="path118" />
    <g
       transform="translate(73.36,69.19)"
       stroke="none"
       fill="#000000"
       font-family="Arial"
       font-size="18px"
       text-anchor="end"
       id="g124">
      <text
         id="text122"><tspan
           font-family="Arial"
           id="tspan120">0</tspan></text>
    </g>
  </g>
  <g
     fill="none"
     color="#000000"
     stroke="currentColor"
     stroke-width="1"
     stroke-linecap="butt"
     stroke-linejoin="miter"
     id="g136"
     transform="translate(1.9166015,-2.9225)">
    <path
       stroke="#000000"
       d="m 80.92,18.01 h 9 m 484.9,0 h -9"
       id="path128" />
    <g
       transform="translate(73.36,23.86)"
       stroke="none"
       fill="#000000"
       font-family="Arial"
       font-size="18px"
       text-anchor="end"
       id="g134">
      <text
         id="text132"><tspan
           font-family="Arial"
           id="tspan130">0.05</tspan></text>
    </g>
  </g>
  <g
     fill="none"
     color="#000000"
     stroke="currentColor"
     stroke-width="1"
     stroke-linecap="butt"
     stroke-linejoin="miter"
     id="g146"
     transform="translate(1.9166015,-2.9225)">
    <path
       stroke="#000000"
       d="m 80.92,426 v -9 m 0,-398.99 v 9"
       id="path138" />
    <g
       transform="translate(80.92,446.25)"
       stroke="none"
       fill="#000000"
       font-family="Arial"
       font-size="18px"
       text-anchor="middle"
       id="g144">
      <text
         id="text142"><tspan
           font-family="Arial"
           id="tspan140">0</tspan></text>
    </g>
  </g>
  <g
     fill="none"
     color="#000000"
     stroke="currentColor"
     stroke-width="1"
     stroke-linecap="butt"
     stroke-linejoin="miter"
     id="g156"
     transform="translate(1.9166015,-2.9225)">
    <path
       stroke="#000000"
       d="m 151.48,426 v -9 m 0,-398.99 v 9"
       id="path148" />
    <g
       transform="translate(151.48,446.25)"
       stroke="none"
       fill="#000000"
       font-family="Arial"
       font-size="18px"
       text-anchor="middle"
       id="g154">
      <text
         id="text152"><tspan
           font-family="Arial"
           id="tspan150">10</tspan></text>
    </g>
  </g>
  <g
     fill="none"
     color="#000000"
     stroke="currentColor"
     stroke-width="1"
     stroke-linecap="butt"
     stroke-linejoin="miter"
     id="g166"
     transform="translate(1.9166015,-2.9225)">
    <path
       stroke="#000000"
       d="m 222.03,426 v -9 m 0,-398.99 v 9"
       id="path158" />
    <g
       transform="translate(222.03,446.25)"
       stroke="none"
       fill="#000000"
       font-family="Arial"
       font-size="18px"
       text-anchor="middle"
       id="g164">
      <text
         id="text162"><tspan
           font-family="Arial"
           id="tspan160">20</tspan></text>
    </g>
  </g>
  <g
     fill="none"
     color="#000000"
     stroke="currentColor"
     stroke-width="1"
     stroke-linecap="butt"
     stroke-linejoin="miter"
     id="g176"
     transform="translate(1.9166015,-2.9225)">
    <path
       stroke="#000000"
       d="m 292.59,426 v -9 m 0,-398.99 v 9"
       id="path168" />
    <g
       transform="translate(292.59,446.25)"
       stroke="none"
       fill="#000000"
       font-family="Arial"
       font-size="18px"
       text-anchor="middle"
       id="g174">
      <text
         id="text172"><tspan
           font-family="Arial"
           id="tspan170">30</tspan></text>
    </g>
  </g>
  <g
     fill="none"
     color="#000000"
     stroke="currentColor"
     stroke-width="1"
     stroke-linecap="butt"
     stroke-linejoin="miter"
     id="g186"
     transform="translate(1.9166015,-2.9225)">
    <path
       stroke="#000000"
       d="m 363.15,426 v -9 m 0,-398.99 v 9"
       id="path178" />
    <g
       transform="translate(363.15,446.25)"
       stroke="none"
       fill="#000000"
       font-family="Arial"
       font-size="18px"
       text-anchor="middle"
       id="g184">
      <text
         id="text182"><tspan
           font-family="Arial"
           id="tspan180">40</tspan></text>
    </g>
  </g>
  <g
     fill="none"
     color="#000000"
     stroke="currentColor"
     stroke-width="1"
     stroke-linecap="butt"
     stroke-linejoin="miter"
     id="g196"
     transform="translate(1.9166015,-2.9225)">
    <path
       stroke="#000000"
       d="m 433.71,426 v -9 m 0,-398.99 v 9"
       id="path188" />
    <g
       transform="translate(433.71,446.25)"
       stroke="none"
       fill="#000000"
       font-family="Arial"
       font-size="18px"
       text-anchor="middle"
       id="g194">
      <text
         id="text192"><tspan
           font-family="Arial"
           id="tspan190">50</tspan></text>
    </g>
  </g>
  <g
     fill="none"
     color="#000000"
     stroke="currentColor"
     stroke-width="1"
     stroke-linecap="butt"
     stroke-linejoin="miter"
     id="g206"
     transform="translate(1.9166015,-2.9225)">
    <path
       stroke="#000000"
       d="m 504.26,426 v -9 m 0,-398.99 v 9"
       id="path198" />
    <g
       transform="translate(504.26,446.25)"
       stroke="none"
       fill="#000000"
       font-family="Arial"
       font-size="18px"
       text-anchor="middle"
       id="g204">
      <text
         id="text202"><tspan
           font-family="Arial"
           id="tspan200">60</tspan></text>
    </g>
  </g>
  <g
     fill="none"
     color="#000000"
     stroke="currentColor"
     stroke-width="1"
     stroke-linecap="butt"
     stroke-linejoin="miter"
     id="g216"
     transform="translate(1.9166015,-2.9225)">
    <path
       stroke="#000000"
       d="m 574.82,426 v -9 m 0,-398.99 v 9"
       id="path208" />
    <g
       transform="translate(574.82,446.25)"
       stroke="none"
       fill="#000000"
       font-family="Arial"
       font-size="18px"
       text-anchor="middle"
       id="g214">
      <text
         id="text212"><tspan
           font-family="Arial"
           id="tspan210">70</tspan></text>
    </g>
  </g>
  <g
     fill="none"
     color="#000000"
     stroke="currentColor"
     stroke-width="1"
     stroke-linecap="butt"
     stroke-linejoin="miter"
     id="g218"
     transform="translate(-648.91395,-138.8358)" />
  <g
     fill="none"
     color="#000000"
     stroke="currentColor"
     stroke-width="1"
     stroke-linecap="butt"
     stroke-linejoin="miter"
     id="g222"
     transform="translate(1.9166015,-2.9225)">
    <path
       stroke="#000000"
       d="M 80.92,18.01 V 426 h 493.9 V 18.01 Z"
       id="path220" />
  </g>
  <g
     fill="none"
     color="#000000"
     stroke="currentColor"
     stroke-width="1"
     stroke-linecap="butt"
     stroke-linejoin="miter"
     id="g230"
     transform="translate(-0.08339844,-2.9225)">
    <g
       transform="rotate(-90,123.055,98.955)"
       stroke="none"
       fill="#000000"
       font-family="Arial"
       font-size="22px"
       text-anchor="middle"
       id="g228">
      <text
         id="text226"><tspan
           font-family="Arial"
           id="tspan224">v0 (Hartree)</tspan></text>
    </g>
  </g>
  <g
     fill="none"
     color="#000000"
     stroke="currentColor"
     stroke-width="1"
     stroke-linecap="butt"
     stroke-linejoin="miter"
     id="g242"
     transform="translate(1.9166015,-6.9225)">
    <g
       transform="translate(327.87,474.55)"
       stroke="none"
       fill="#000000"
       font-family="Arial"
       font-size="22px"
       text-anchor="middle"
       id="g240">
      <text
         id="text238"><tspan
           font-family="Arial"
           id="tspan232">x (</tspan><tspan
           font-family="Arial"
           id="tspan234">Å</tspan><tspan
           font-family="Arial"
           id="tspan236">)</tspan></text>
    </g>
  </g>
  <g
     fill="none"
     color="#000000"
     stroke="currentColor"
     stroke-width="1"
     stroke-linecap="butt"
     stroke-linejoin="miter"
     id="g244"
     transform="translate(-648.91395,-138.8358)" />
  <g
     id="gnuplot_plot_1"
     transform="translate(1.9166015,-2.9225)">
    <title
       id="title246">no empty layer</title>
    <g
       fill="none"
       color="#000000"
       stroke="currentColor"
       stroke-width="1"
       stroke-linecap="butt"
       stroke-linejoin="miter"
       id="g254">
      <g
         transform="translate(464.75,259.72)"
         stroke="none"
         fill="#000000"
         font-family="Arial"
         font-size="14px"
         text-anchor="end"
         id="g252">
        <text
           id="text250"><tspan
             font-family="Arial"
             id="tspan248">no empty layer</tspan></text>
      </g>
    </g>
    <g
       fill="none"
       color="#000000"
       stroke="currentColor"
       stroke-width="1"
       stroke-linecap="butt"
       stroke-linejoin="miter"
       id="g258">
      <path
         stroke="#9400d3"
         d="M 474.54,255.17 H 522.7 M 80.92,62.8 l 0.68,0.1 0.68,0.08 0.68,0.04 0.68,0.01 h 0.67 0.68 l 0.68,0.01 h 0.68 0.68 0.68 0.68 0.68 l 0.67,0.01 h 0.68 0.68 0.68 0.68 0.68 l 0.68,0.01 h 0.68 0.68 0.67 0.68 0.68 l 0.68,0.01 h 0.68 0.68 0.68 0.68 0.68 l 0.67,0.01 h 0.68 0.68 0.68 0.68 0.68 l 0.68,0.01 h 0.68 0.67 0.68 0.68 0.68 0.68 l 0.68,0.01 h 0.68 0.68 0.68 0.67 0.68 l 0.68,0.01 h 0.68 0.68 0.68 0.68 0.68 l 0.67,0.01 h 0.68 0.68 0.68 0.68 0.68 l 0.68,0.01 h 0.68 0.68 0.67 0.68 0.68 l 0.68,0.01 h 0.68 0.68 0.68 0.68 0.68 l 0.67,0.01 h 0.68 0.68 0.68 0.68 0.68 0.68 l 0.68,0.01 h 0.67 0.68 0.68 0.68 0.68 l 0.68,0.01 h 0.68 0.68 0.68 0.67 0.68 l 0.68,0.01 h 0.68 0.68 0.68 0.68 0.68 l 0.67,0.01 h 0.68 0.68 0.68 0.68 0.68 l 0.68,0.01 h 0.68 0.68 l 0.67,0.27 0.68,2.26 0.68,6.12 0.68,8.56 0.68,9.89 0.68,9.54 0.68,9.13 0.68,8.78 0.67,8.15 0.68,7.14 0.68,5.8 0.68,4.37 0.68,3.42 0.68,3.34 0.68,4.26 0.68,6.06 0.68,8.39 0.67,10.78 0.68,12.82 0.68,14.18 0.68,14.83 0.68,14.89 0.68,14.59 0.68,14.07 0.68,13.41 0.68,12.63 0.67,11.79 0.68,10.69 0.68,8.97 0.68,7.52 0.68,8.87 0.68,12.2 0.68,12.27 0.68,9.4 0.67,6.6 0.68,3.51 0.68,0.81 0.68,-0.23 0.68,-0.67 0.68,-1.15 0.68,-1.55 0.68,-3.06 0.68,-5.98 0.67,-8.36 0.68,-10.07 0.68,-10.42 0.68,-6.91 0.68,-2.95 0.68,-1.92 0.68,-1.56 0.68,-0.39 0.67,0.93 0.68,2.04 0.68,2.38 0.68,3.62 0.68,7.62 0.68,10.59 0.68,9.89 0.68,8.1 0.68,5.54 0.67,2.57 0.68,1.05 0.68,0.49 0.68,-0.22 0.68,-0.78 0.68,-2.04 0.68,-4.88 0.68,-7.69 0.68,-9.63 0.67,-10.77 0.68,-8.54 0.68,-4.17 0.68,-2.39 0.68,-2.08 0.68,-1.03 0.68,0.34 0.68,1.63 0.67,2.26 0.68,2.95 0.68,6.26 0.68,10.27 0.68,10.51 0.68,8.83 0.68,6.53 0.68,3.42 0.68,1.34 0.67,0.61 0.68,-0.08 0.68,-0.71 0.68,-1.61 0.68,-4.03 0.68,-7.08 0.68,-9.2 0.68,-10.72 0.67,-9.73 0.68,-5.35 0.68,-2.67 0.68,-2.21 0.68,-1.4 0.68,-0.06 0.68,1.29 0.68,2.17 0.68,2.54 0.67,4.9 0.68,9.33 0.68,10.72 0.68,9.27 0.68,7.23 0.68,4.23 0.68,1.65 0.68,0.66 0.68,0.07 0.67,-0.59 0.68,-1.22 0.68,-3.09 0.68,-6.15 0.68,-8.48 0.68,-10.2 0.68,-10.33 0.68,-6.69 0.67,-3.16 0.68,-2.34 0.68,-1.87 0.68,-0.66 0.68,0.64 0.68,1.71 0.68,1.98 0.68,3.49 0.68,7.86 0.67,10.62 0.68,9.76 0.68,7.97 0.68,5.37 0.68,2.62 0.68,1.43 0.68,1.08 0.68,0.56 0.67,0.12 0.68,-1.22 0.68,-4.16 0.68,-7.16 0.68,-10.01 0.68,-12.61 0.68,-11.67 0.68,-8.29 0.68,-7.66 0.67,-9.37 0.68,-10.95 0.68,-11.96 0.68,-12.79 0.68,-13.55 0.68,-14.19 0.68,-14.68 0.68,-14.91 0.67,-14.75 0.68,-13.97 0.68,-12.46 0.68,-10.32 0.68,-7.9 0.68,-5.65 0.68,-3.99 0.68,-3.28 0.68,-3.55 0.67,-4.63 0.68,-6.09 0.68,-7.37 0.68,-8.3 0.68,-8.87 0.68,-9.2 0.68,-9.65 0.68,-9.75 0.68,-8.18 0.67,-5.46 0.68,-1.55 0.68,-0.18 h 0.68 0.68 0.68 l 0.68,-0.01 h 0.68 0.67 0.68 0.68 0.68 l 0.68,-0.01 h 0.68 0.68 0.68 0.68 0.67 0.68 l 0.68,-0.01 h 0.68 0.68 0.68 0.68 0.68 l 0.67,-0.01 h 0.68 0.68 0.68 0.68 0.68 l 0.68,-0.01 h 0.68 0.68 0.67 0.68 0.68 l 0.68,-0.01 h 0.68 0.68 0.68 0.68 0.68 l 0.67,-0.01 h 0.68 0.68 0.68 0.68 0.68 l 0.68,-0.01 h 0.68 0.67 0.68 0.68 0.68 0.68 l 0.68,-0.01 h 0.68 0.68 0.68 0.67 0.68 l 0.68,-0.01 h 0.68 0.68 0.68 0.68 0.68 l 0.67,-0.01 h 0.68 0.68 0.68 0.68 0.68 l 0.68,-0.01 h 0.68 0.68 0.67 0.68 0.68 l 0.68,-0.01 h 0.68 0.68 0.68 0.68 0.68 l 0.67,-0.01 h 0.68 0.68 0.68 0.68 0.68 l 0.68,-0.01 h 0.68 0.67 0.68 0.68 0.68 0.68 l 0.68,-0.01 h 0.68 0.68 0.68 0.67 0.68 l 0.68,-0.01 h 0.68 0.68 0.68 0.68 0.68 l 0.67,-0.01 h 0.68 0.68 0.68 0.68 0.68 l 0.68,-0.01 h 0.68 0.68 0.67 0.68 0.68 L 354.49,63 h 0.68 0.68 0.68 0.68 0.67 l 0.68,-0.01 h 0.68 0.68 0.68 0.68 0.68 0.68 l 0.68,-0.01 h 0.67 0.68 0.68 0.68 0.68 l 0.68,-0.01 h 0.68 0.68 0.68 0.67 0.68 l 0.68,-0.01 h 0.68 0.68 0.68 0.68 0.68 l 0.67,-0.01 h 0.68 0.68 0.68 0.68 0.68 l 0.68,-0.01 h 0.68 0.68 0.67 0.68 0.68 l 0.68,-0.01 h 0.68 0.68 0.68 0.68 0.67 l 0.68,-0.01 h 0.68 0.68 0.68 0.68 0.68 0.68 l 0.68,-0.01 h 0.67 0.68 0.68 0.68 0.68 l 0.68,-0.01 h 0.68 0.68 0.68 0.67 0.68 l 0.68,-0.01 h 0.68 0.68 0.68 0.68 0.68 l 0.67,-0.01 h 0.68 0.68 0.68 0.68 0.68 l 0.68,-0.01 h 0.68 0.68 0.67 0.68 0.68 l 0.68,-0.01 h 0.68 0.68 0.68 0.68 0.67 l 0.68,-0.01 h 0.68 0.68 0.68 0.68 0.68 0.68 l 0.68,-0.01 h 0.67 0.68 0.68 0.68 0.68 l 0.68,-0.01 h 0.68 0.68 0.68 0.67 0.68 l 0.68,-0.01 h 0.68 0.68 0.68 0.68 0.68 l 0.67,-0.01 h 0.68 0.68 0.68 0.68 0.68 l 0.68,-0.01 h 0.68 0.68 0.67 0.68 0.68 l 0.68,-0.01 h 0.68 0.68 0.68 0.68 0.67 0.68 l 0.68,-0.01 h 0.68 0.68 0.68 0.68 0.68 l 0.68,-0.01 h 0.67 0.68 0.68 0.68 0.68 l 0.68,-0.01 h 0.68 0.68 0.67 0.68 0.68 l 0.68,-0.01 h 0.68 0.68 0.68 0.68 0.68 l 0.67,-0.01 h 0.68 0.68 0.68 0.68 0.68 l 0.68,-0.01 h 0.68 0.68 0.67 0.68 0.68 l 0.68,-0.01 h 0.68 0.68 0.68 0.68 0.67 0.68 L 476,62.71 h 0.68 0.68 0.68 0.68 0.68 l 0.68,-0.01 h 0.67 0.68 0.68 0.68 0.68 l 0.68,-0.01 h 0.68 0.68 0.67 0.68 0.68 l 0.68,-0.01 h 0.68 0.68 0.68 0.68 0.68 l 0.67,-0.01 h 0.68 0.68 0.68 0.68 0.68 l 0.68,-0.01 h 0.68 0.68 0.67 0.68 0.68 l 0.68,-0.01 h 0.68 0.68 0.68 0.68 0.67 0.68 l 0.68,-0.01 h 0.68 0.68 0.68 0.68 0.68 l 0.68,-0.01 h 0.67 0.68 0.68 0.68 0.68 l 0.68,-0.01 h 0.68 0.68 0.67 0.68 0.68 l 0.68,-0.01 h 0.68 0.68 0.68 0.68 0.68 l 0.67,-0.01 h 0.68 0.68 0.68 0.68 0.68 l 0.68,-0.01 h 0.68 0.68 0.67 0.68 0.68 0.68 l 0.68,-0.01 h 0.68 0.68 0.68 0.67 0.68 l 0.68,-0.01 h 0.68 0.68 0.68 0.68 0.68 l 0.68,-0.01 h 0.67 0.68 0.68 0.68 0.68 l 0.68,-0.01 h 0.68 0.68 0.67 0.68 0.68 l 0.68,-0.01 h 0.68 0.68 0.68 0.68 0.68 l 0.67,-0.01 h 0.68 0.68 0.68 0.68 0.68 l 0.68,-0.01 h 0.68 0.68 0.67 0.68 0.68 0.68 l 0.68,-0.01 h 0.68 0.68 0.68 0.67 0.68 l 0.68,-0.01 h 0.68 0.68 0.68 0.68 0.68 l 0.68,-0.01 h 0.67 0.68 0.68 0.68 0.68 l 0.68,-0.01 h 0.68 l 0.68,0.01 0.67,0.04 0.68,0.08 0.39,0.06"
         id="path256" />
    </g>
  </g>
  <g
     id="gnuplot_plot_2"
     transform="translate(1.9166015,-2.9225)">
    <title
       id="title261">2 empty layers</title>
    <g
       fill="none"
       color="#000000"
       stroke="currentColor"
       stroke-width="1"
       stroke-linecap="butt"
       stroke-linejoin="miter"
       id="g269">
      <g
         transform="translate(464.75,280.72)"
         stroke="none"
         fill="#000000"
         font-family="Arial"
         font-size="14px"
         text-anchor="end"
         id="g267">
        <text
           id="text265"><tspan
             font-family="Arial"
             id="tspan263">2 empty layers</tspan></text>
      </g>
    </g>
    <g
       fill="none"
       color="#000000"
       stroke="currentColor"
       stroke-width="1"
       stroke-linecap="butt"
       stroke-linejoin="miter"
       id="g273">
      <path
         stroke="#009e73"
         d="M 474.54,276.17 H 522.7 M 80.92,62.78 l 0.68,0.07 0.68,0.06 0.68,0.03 0.68,0.01 h 0.67 0.68 0.68 l 0.68,0.01 h 0.68 0.68 0.68 0.68 0.67 l 0.68,0.01 h 0.68 0.68 0.68 0.68 0.68 l 0.68,0.01 h 0.68 0.67 0.68 0.68 0.68 l 0.68,0.01 h 0.68 0.68 0.68 0.68 0.67 l 0.68,0.01 h 0.68 0.68 0.68 0.68 0.68 l 0.68,0.01 h 0.67 0.68 0.68 0.68 0.68 l 0.68,0.01 h 0.68 0.68 0.68 0.67 0.68 l 0.68,0.01 h 0.68 0.68 0.68 0.68 0.68 l 0.67,0.01 h 0.68 0.68 0.68 0.68 0.68 l 0.68,0.01 h 0.68 0.68 0.67 0.68 0.68 l 0.68,0.01 h 0.68 0.68 0.68 0.68 0.68 l 0.67,0.01 h 0.68 0.68 0.68 0.68 0.68 0.68 l 0.68,0.01 h 0.67 0.68 0.68 0.68 0.68 l 0.68,0.01 h 0.68 0.68 0.68 0.67 0.68 l 0.68,0.01 h 0.68 0.68 0.68 0.68 0.68 l 0.67,0.01 h 0.68 0.68 0.68 0.68 0.68 l 0.68,0.01 h 0.68 0.68 l 0.67,0.02 0.68,0.21 0.68,0.58 0.68,0.84 0.68,0.97 0.68,0.89 0.68,0.78 0.68,0.62 0.67,0.79 0.68,0.21 0.68,-0.17 0.68,0.16 0.68,0.21 0.68,0.4 0.68,-0.25 0.68,-0.39 0.68,0.1 0.67,-0.07 0.68,-0.09 0.68,0.34 0.68,0.57 0.68,0.28 0.68,0.41 0.68,0.53 0.68,0.6 0.68,0.62 0.67,0.61 0.68,0.6 0.68,0.53 0.68,0.48 0.68,0.76 0.68,0.99 0.68,0.8 0.68,0.73 0.67,0.9 0.68,1.17 0.68,1.45 0.68,1.64 0.68,1.78 0.68,1.94 0.68,2.04 0.68,2.05 0.68,2.01 0.67,1.91 0.68,1.75 0.68,1.47 0.68,1.09 0.68,0.88 0.68,3.1 0.68,5.45 0.68,5.16 0.67,4.16 0.68,1.67 0.68,1.21 0.68,3.17 0.68,3.34 0.68,3.1 0.68,3.51 0.68,4.24 0.68,4.87 0.67,5.31 0.68,5.73 0.68,6.36 0.68,7.3 0.68,8.51 0.68,9.86 0.68,11.2 0.68,12.41 0.68,13.37 0.67,14.04 0.68,14.43 0.68,14.57 0.68,14.44 0.68,14.05 0.68,13.25 0.68,12.2 0.68,10.83 0.67,8.87 0.68,8.16 0.68,10.76 0.68,13.16 0.68,11.55 0.68,8.45 0.68,5.57 0.68,2.32 0.68,0.25 0.67,-0.41 0.68,-0.92 0.68,-1.34 0.68,-2 0.68,-4.21 0.68,-7.11 0.68,-9.12 0.68,-10.56 0.67,-9.48 0.68,-5 0.68,-2.26 0.68,-1.86 0.68,-1.12 0.68,0.17 0.68,1.46 0.68,2.3 0.68,2.63 0.67,4.97 0.68,9.32 0.68,10.66 0.68,9.25 0.68,7.23 0.68,4.3 0.68,1.74 0.68,0.77 0.68,0.2 0.67,-0.49 0.68,-1.14 0.68,-3.05 0.68,-6.16 0.68,-8.54 0.68,-10.31 0.68,-10.45 0.68,-6.73 0.67,-3.13 0.68,-2.28 0.68,-1.76 0.68,-0.5 0.68,0.88 0.68,2 0.68,2.35 0.68,3.88 0.68,8.14 0.67,10.83 0.68,9.89 0.68,8.02 0.68,5.31 0.68,2.37 0.68,0.95 0.68,0.37 0.68,-0.36 0.67,-0.97 0.68,-2.36 0.68,-5.31 0.68,-8.02 0.68,-9.9 0.68,-10.82 0.68,-8.15 0.68,-3.87 0.68,-2.35 0.67,-2.01 0.68,-0.87 0.68,0.5 0.68,1.76 0.68,2.28 0.68,3.13 0.68,6.73 0.68,10.44 0.67,10.32 0.68,8.55 0.68,6.15 0.68,3.05 0.68,1.15 0.68,0.49 0.68,-0.2 0.68,-0.78 0.68,-1.74 0.67,-4.29 0.68,-7.24 0.68,-9.24 0.68,-10.67 0.68,-9.32 0.68,-4.97 0.68,-2.63 0.68,-2.29 0.68,-1.47 0.67,-0.17 0.68,1.12 0.68,1.85 0.68,2.27 0.68,4.99 0.68,9.48 0.68,10.57 0.68,9.12 0.67,7.11 0.68,4.22 0.68,1.98 0.68,1.34 0.68,0.92 0.68,0.41 0.68,-0.24 0.68,-2.31 0.68,-5.58 0.67,-8.45 0.68,-11.55 0.68,-13.16 0.68,-10.76 0.68,-8.16 0.68,-8.87 0.68,-10.83 0.68,-12.19 0.67,-13.26 0.68,-14.04 0.68,-14.45 0.68,-14.56 0.68,-14.44 0.68,-14.03 0.68,-13.37 0.68,-12.41 0.68,-11.21 0.67,-9.86 0.68,-8.51 0.68,-7.3 0.68,-6.36 0.68,-5.73 0.68,-5.31 0.68,-4.86 0.68,-4.25 0.68,-3.52 0.67,-3.09 0.68,-3.33 0.68,-3.18 0.68,-1.21 0.68,-1.67 0.68,-4.16 0.68,-5.16 0.68,-5.45 0.67,-3.1 0.68,-0.88 0.68,-1.09 0.68,-1.47 0.68,-1.75 0.68,-1.91 0.68,-2.01 0.68,-2.05 0.68,-2.04 0.67,-1.95 0.68,-1.77 0.68,-1.64 0.68,-1.45 0.68,-1.17 0.68,-0.9 0.68,-0.73 0.68,-0.81 0.67,-0.98 0.68,-0.76 0.68,-0.48 0.68,-0.53 0.68,-0.61 0.68,-0.6 0.68,-0.63 0.68,-0.59 0.68,-0.53 0.67,-0.41 0.68,-0.27 0.68,-0.58 0.68,-0.35 0.68,0.1 0.68,0.08 0.68,-0.1 0.68,0.37 0.68,0.22 0.67,-0.36 0.68,-0.11 0.68,-0.25 0.68,0.08 0.68,-0.13 0.68,-0.79 0.68,-0.62 0.68,-0.78 0.67,-0.89 0.68,-0.97 0.68,-0.84 0.68,-0.58 0.68,-0.21 0.68,-0.02 h 0.68 0.68 l 0.68,-0.01 h 0.67 0.68 0.68 0.68 0.68 l 0.68,-0.01 h 0.68 0.68 0.67 0.68 0.68 l 0.68,-0.01 h 0.68 0.68 0.68 0.68 0.68 l 0.67,-0.01 h 0.68 0.68 0.68 0.68 0.68 l 0.68,-0.01 h 0.68 0.67 0.68 0.68 0.68 l 0.68,-0.01 h 0.68 0.68 0.68 0.68 0.67 l 0.68,-0.01 h 0.68 0.68 0.68 0.68 0.68 l 0.68,-0.01 h 0.68 0.67 0.68 0.68 0.68 l 0.68,-0.01 h 0.68 0.68 0.68 0.67 0.68 l 0.68,-0.01 h 0.68 0.68 0.68 0.68 0.68 l 0.68,-0.01 h 0.67 0.68 0.68 0.68 0.68 0.68 L 385.72,63 h 0.68 0.67 0.68 0.68 0.68 l 0.68,-0.01 h 0.68 0.68 0.68 0.68 0.67 l 0.68,-0.01 h 0.68 0.68 0.68 0.68 0.68 l 0.68,-0.01 h 0.68 0.67 0.68 0.68 0.68 l 0.68,-0.01 h 0.68 0.68 0.68 0.67 0.68 l 0.68,-0.01 h 0.68 0.68 0.68 0.68 0.68 l 0.68,-0.01 h 0.67 0.68 0.68 0.68 0.68 l 0.68,-0.01 h 0.68 0.68 0.67 0.68 0.68 l 0.68,-0.01 h 0.68 0.68 0.68 0.68 0.68 l 0.67,-0.01 h 0.68 0.68 0.68 0.68 0.68 l 0.68,-0.01 h 0.68 0.68 0.67 0.68 0.68 0.68 l 0.68,-0.01 h 0.68 0.68 0.68 0.67 0.68 l 0.68,-0.01 h 0.68 0.68 0.68 0.68 0.68 l 0.68,-0.01 h 0.67 0.68 0.68 0.68 0.68 l 0.68,-0.01 h 0.68 0.68 0.67 0.68 0.68 l 0.68,-0.01 h 0.68 0.68 0.68 0.68 0.68 l 0.67,-0.01 h 0.68 0.68 0.68 0.68 0.68 l 0.68,-0.01 h 0.68 0.67 0.68 0.68 0.68 l 0.68,-0.01 h 0.68 0.68 0.68 0.68 0.67 l 0.68,-0.01 h 0.68 0.68 0.68 0.68 0.68 l 0.68,-0.01 h 0.68 0.67 0.68 0.68 0.68 l 0.68,-0.01 h 0.68 0.68 0.68 0.67 0.68 L 476,62.78 h 0.68 0.68 0.68 0.68 0.68 0.68 l 0.67,-0.01 h 0.68 0.68 0.68 0.68 0.68 l 0.68,-0.01 h 0.68 0.67 0.68 0.68 0.68 l 0.68,-0.01 h 0.68 0.68 0.68 0.68 0.67 l 0.68,-0.01 h 0.68 0.68 0.68 0.68 0.68 l 0.68,-0.01 h 0.68 0.67 0.68 0.68 0.68 l 0.68,-0.01 h 0.68 0.68 0.68 0.67 0.68 l 0.68,-0.01 h 0.68 0.68 0.68 0.68 0.68 l 0.68,-0.01 h 0.67 0.68 0.68 0.68 0.68 l 0.68,-0.01 h 0.68 0.68 0.67 0.68 0.68 l 0.68,-0.01 h 0.68 0.68 0.68 0.68 0.68 l 0.67,-0.01 h 0.68 0.68 0.68 0.68 0.68 0.68 l 0.68,-0.01 h 0.68 0.67 0.68 0.68 0.68 l 0.68,-0.01 h 0.68 0.68 0.68 0.67 0.68 l 0.68,-0.01 h 0.68 0.68 0.68 0.68 0.68 l 0.68,-0.01 h 0.67 0.68 0.68 0.68 0.68 l 0.68,-0.01 h 0.68 0.68 0.67 0.68 0.68 l 0.68,-0.01 h 0.68 0.68 0.68 0.68 0.68 l 0.67,-0.01 h 0.68 0.68 0.68 0.68 0.68 l 0.68,-0.01 h 0.68 0.68 0.67 0.68 0.68 l 0.68,-0.01 h 0.68 0.68 0.68 0.68 0.67 l 0.68,-0.01 h 0.68 0.68 0.68 0.68 0.68 l 0.68,-0.01 h 0.68 0.67 0.68 0.68 0.68 l 0.68,-0.01 h 0.68 0.68 l 0.68,0.01 0.67,0.03 0.68,0.05 0.39,0.05"
         id="path271" />
    </g>
  </g>
  <g
     id="gnuplot_plot_3"
     transform="translate(1.9166015,-2.9225)">
    <title
       id="title276">4 empty layers</title>
    <g
       fill="none"
       color="#000000"
       stroke="currentColor"
       stroke-width="1"
       stroke-linecap="butt"
       stroke-linejoin="miter"
       id="g284">
      <g
         transform="translate(464.75,301.72)"
         stroke="none"
         fill="#000000"
         font-family="Arial"
         font-size="14px"
         text-anchor="end"
         id="g282">
        <text
           id="text280"><tspan
             font-family="Arial"
             id="tspan278">4 empty layers</tspan></text>
      </g>
    </g>
    <g
       fill="none"
       color="#000000"
       stroke="currentColor"
       stroke-width="1"
       stroke-linecap="butt"
       stroke-linejoin="miter"
       id="g288">
      <path
         stroke="#56b4e9"
         d="M 474.54,297.17 H 522.7 M 80.92,62.74 l 0.68,0.04 0.68,0.04 0.68,0.02 0.68,0.01 h 0.67 0.68 0.68 0.68 0.68 l 0.68,0.01 h 0.68 0.68 0.67 0.68 0.68 l 0.68,0.01 h 0.68 0.68 0.68 0.68 0.68 l 0.67,0.01 h 0.68 0.68 0.68 0.68 0.68 l 0.68,0.01 h 0.68 0.68 0.67 0.68 l 0.68,0.01 h 0.68 0.68 0.68 0.68 0.68 l 0.67,0.01 h 0.68 0.68 0.68 0.68 0.68 l 0.68,0.01 h 0.68 0.68 0.67 0.68 0.68 l 0.68,0.01 h 0.68 0.68 0.68 0.68 0.67 l 0.68,0.01 h 0.68 0.68 0.68 0.68 l 0.68,0.01 h 0.68 0.68 0.67 0.68 0.68 l 0.68,0.01 h 0.68 0.68 0.68 0.68 0.68 l 0.67,0.01 h 0.68 0.68 0.68 0.68 0.68 l 0.68,0.01 h 0.68 0.67 0.68 0.68 l 0.68,0.01 h 0.68 0.68 0.68 0.68 0.68 l 0.67,0.01 h 0.68 0.68 0.68 0.68 0.68 l 0.68,0.01 h 0.68 0.67 0.68 0.68 0.68 l 0.68,0.01 h 0.68 0.68 0.68 0.68 l 0.67,0.01 0.68,0.09 0.68,0.23 0.68,0.34 0.68,0.39 0.68,0.34 0.68,0.3 0.68,0.25 0.67,0.19 0.68,0.28 0.68,-0.02 0.68,-0.04 0.68,0.08 0.68,-0.01 0.68,0.02 0.68,-0.1 0.68,-0.04 h 0.67 l 0.68,-0.04 0.68,-0.02 0.68,0.01 0.68,-0.02 0.68,0.09 0.68,0.12 0.68,0.02 0.68,0.07 0.67,0.01 0.68,-0.01 0.68,-0.01 0.68,0.02 0.68,0.03 0.68,0.04 0.68,0.03 0.68,0.01 0.67,0.01 0.68,0.02 0.68,0.01 0.68,-0.03 0.68,0.01 0.68,0.02 0.68,-0.03 0.68,0.01 0.68,0.03 0.67,0.04 0.68,0.09 0.68,0.16 0.68,0.16 0.68,0.27 0.68,0.37 0.68,0.22 0.68,0.09 0.67,0.05 0.68,-0.01 0.68,0.06 0.68,0.16 0.68,0.2 0.68,0.17 0.68,0.11 0.68,0.06 0.68,0.04 0.67,-0.04 0.68,-0.07 0.68,0.07 0.68,0.16 0.68,0.17 0.68,0.2 0.68,0.07 0.68,0.27 0.68,0.43 0.67,0.3 0.68,0.44 0.68,0.48 0.68,0.53 0.68,0.53 0.68,0.6 0.68,0.73 0.68,0.69 0.67,0.52 0.68,0.42 0.68,0.74 0.68,0.99 0.68,0.71 0.68,0.73 0.68,1.15 0.68,1.46 0.68,1.55 0.67,1.67 0.68,1.87 0.68,2.01 0.68,2.07 0.68,2.07 0.68,2.02 0.68,1.9 0.68,1.7 0.67,1.34 0.68,0.84 0.68,1.45 0.68,4.48 0.68,5.62 0.68,4.47 0.68,3.21 0.68,1.12 0.68,2 0.67,3.5 0.68,3.19 0.68,3.22 0.68,3.82 0.68,4.53 0.68,5.05 0.68,5.45 0.68,5.93 0.68,6.69 0.67,7.76 0.68,9.06 0.68,10.41 0.68,11.71 0.68,12.82 0.68,13.66 0.68,14.22 0.68,14.5 0.67,14.54 0.68,14.33 0.68,13.78 0.68,12.85 0.68,11.73 0.68,10.09 0.68,8.28 0.68,8.82 0.68,12.1 0.67,12.95 0.68,10.26 0.68,7.34 0.68,4.26 0.68,1.26 0.68,-0.1 0.68,-0.6 0.68,-1.12 0.67,-1.49 0.68,-2.67 0.68,-5.43 0.68,-8.01 0.68,-9.79 0.68,-10.63 0.68,-7.86 0.68,-3.49 0.68,-1.97 0.67,-1.69 0.68,-0.62 0.68,0.7 0.68,1.91 0.68,2.37 0.68,3.19 0.68,6.74 0.68,10.38 0.67,10.24 0.68,8.51 0.68,6.16 0.68,3.1 0.68,1.21 0.68,0.57 0.68,-0.09 0.68,-0.71 0.68,-1.69 0.67,-4.26 0.68,-7.25 0.68,-9.29 0.68,-10.75 0.68,-9.36 0.68,-4.93 0.68,-2.56 0.68,-2.19 0.68,-1.3 0.67,0.06 0.68,1.38 0.68,2.21 0.68,2.66 0.68,5.34 0.68,9.73 0.68,10.72 0.68,9.19 0.67,7.08 0.68,4.03 0.68,1.59 0.68,0.71 0.68,0.08 0.68,-0.6 0.68,-1.33 0.68,-3.42 0.68,-6.53 0.67,-8.82 0.68,-10.51 0.68,-10.27 0.68,-6.25 0.68,-2.94 0.68,-2.25 0.68,-1.63 0.68,-0.33 0.67,1.04 0.68,2.09 0.68,2.41 0.68,4.2 0.68,8.57 0.68,10.81 0.68,9.65 0.68,7.73 0.68,4.89 0.67,2.07 0.68,0.82 0.68,0.25 0.68,-0.46 0.68,-1.04 0.68,-2.57 0.68,-5.56 0.68,-8.13 0.68,-9.93 0.67,-10.64 0.68,-7.66 0.68,-3.65 0.68,-2.41 0.68,-2.08 0.68,-0.96 0.68,0.36 0.68,1.53 0.67,1.92 0.68,2.95 0.68,6.89 0.68,10.44 0.68,10.1 0.68,8.4 0.68,6.03 0.68,3.12 0.68,1.6 0.67,1.2 0.68,0.7 0.68,0.23 0.68,-0.85 0.68,-3.59 0.68,-6.77 0.68,-9.63 0.68,-12.6 0.67,-12.62 0.68,-9.37 0.68,-8.12 0.68,-9.67 0.68,-11.47 0.68,-12.64 0.68,-13.62 0.68,-14.25 0.68,-14.51 0.67,-14.54 0.68,-14.29 0.68,-13.79 0.68,-13.02 0.68,-11.95 0.68,-10.68 0.68,-9.32 0.68,-8.01 0.68,-6.88 0.67,-6.06 0.68,-5.53 0.68,-5.13 0.68,-4.66 0.68,-3.97 0.68,-3.3 0.68,-3.14 0.68,-3.51 0.67,-2.45 0.68,-0.97 0.68,-2.76 0.68,-4.35 0.68,-5.38 0.68,-4.98 0.68,-1.98 0.68,-0.77 0.68,-1.25 0.67,-1.64 0.68,-1.87 0.68,-2 0.68,-2.06 0.68,-2.08 0.68,-2.03 0.68,-1.9 0.68,-1.71 0.67,-1.56 0.68,-1.5 0.68,-1.22 0.68,-0.81 0.68,-0.66 0.68,-0.97 0.68,-0.82 0.68,-0.44 0.68,-0.5 0.67,-0.64 0.68,-0.76 0.68,-0.63 0.68,-0.52 0.68,-0.53 0.68,-0.5 0.68,-0.45 0.68,-0.35 0.67,-0.38 0.68,-0.28 0.68,-0.12 0.68,-0.18 0.68,-0.17 0.68,-0.17 0.68,-0.1 0.68,0.1 0.68,0.01 0.67,-0.06 0.68,-0.02 0.68,-0.1 0.68,-0.17 0.68,-0.21 0.68,-0.15 0.68,-0.07 0.68,-0.04 0.68,0.04 0.67,-0.09 0.68,-0.33 0.68,-0.27 0.68,-0.21 0.68,-0.24 0.68,-0.17 0.68,-0.1 0.68,-0.04 0.67,-0.05 h 0.68 l 0.68,0.03 0.68,-0.02 h 0.68 l 0.68,0.02 0.68,-0.01 0.68,-0.01 0.68,-0.01 0.67,-0.02 0.68,-0.03 0.68,-0.03 0.68,-0.04 0.68,-0.02 0.68,0.01 0.68,0.01 0.68,0.01 0.67,-0.08 0.68,-0.19 0.68,0.03 0.68,0.08 0.68,-0.13 0.68,-0.01 0.68,0.01 0.68,0.02 0.68,0.02 0.67,0.06 0.68,0.07 0.68,0.03 0.68,-0.01 0.68,-0.06 0.68,0.02 0.68,-0.06 0.68,-0.2 0.68,-0.17 0.67,-0.24 0.68,-0.28 0.68,-0.34 0.68,-0.38 0.68,-0.36 0.68,-0.26 0.68,-0.12 0.68,-0.01 h 0.67 0.68 0.68 0.68 l 0.68,-0.01 h 0.68 0.68 0.68 0.68 0.67 L 411.51,63 h 0.68 0.68 0.68 0.68 0.68 l 0.68,-0.01 h 0.67 0.68 0.68 0.68 0.68 l 0.68,-0.01 h 0.68 0.68 0.68 0.67 l 0.68,-0.01 h 0.68 0.68 0.68 0.68 0.68 l 0.68,-0.01 h 0.68 0.67 0.68 0.68 0.68 l 0.68,-0.01 h 0.68 0.68 0.68 0.67 0.68 l 0.68,-0.01 h 0.68 0.68 0.68 0.68 0.68 l 0.68,-0.01 h 0.67 0.68 0.68 0.68 l 0.68,-0.01 h 0.68 0.68 0.68 0.67 0.68 l 0.68,-0.01 h 0.68 0.68 0.68 0.68 0.68 l 0.68,-0.01 h 0.67 0.68 0.68 0.68 0.68 l 0.68,-0.01 h 0.68 0.68 0.67 0.68 l 0.68,-0.01 h 0.68 0.68 0.68 0.68 0.68 l 0.68,-0.01 h 0.67 0.68 0.68 0.68 0.68 l 0.68,-0.01 h 0.68 0.68 0.68 0.67 0.68 l 0.68,-0.01 h 0.68 0.68 0.68 0.68 0.68 l 0.67,-0.01 h 0.68 0.68 0.68 0.68 l 0.68,-0.01 h 0.68 0.68 0.68 0.67 0.68 l 0.68,-0.01 h 0.68 0.68 0.68 0.68 0.68 l 0.67,-0.01 h 0.68 0.68 0.68 0.68 0.68 l 0.68,-0.01 h 0.68 0.68 0.67 0.68 l 0.68,-0.01 h 0.68 0.68 0.68 0.68 0.68 l 0.68,-0.01 h 0.67 0.68 0.68 0.68 0.68 l 0.68,-0.01 h 0.68 0.68 0.67 0.68 0.68 l 0.68,-0.01 h 0.68 0.68 0.68 0.68 0.68 l 0.67,-0.01 h 0.68 0.68 0.68 0.68 l 0.68,-0.01 h 0.68 0.68 0.67 0.68 0.68 l 0.68,-0.01 h 0.68 0.68 0.68 0.68 0.68 l 0.67,-0.01 h 0.68 0.68 0.68 0.68 0.68 l 0.68,-0.01 h 0.68 0.68 0.67 0.68 0.68 l 0.68,-0.01 h 0.68 0.68 0.68 0.68 l 0.67,-0.01 h 0.68 0.68 0.68 0.68 0.68 l 0.68,-0.01 h 0.68 0.68 0.67 0.68 0.68 l 0.68,-0.01 h 0.68 0.68 0.68 0.68 0.67 l 0.68,-0.01 h 0.68 0.68 0.68 0.68 l 0.68,-0.01 h 0.68 0.68 0.67 0.68 0.68 l 0.68,-0.01 h 0.68 0.68 0.68 0.68 0.68 l 0.67,-0.01 h 0.68 0.68 0.68 0.68 0.68 l 0.68,-0.01 h 0.68 0.67 0.68 0.68 0.68 l 0.68,-0.01 h 0.68 0.68 0.68 0.68 l 0.67,-0.01 h 0.68 0.68 0.68 0.68 0.68 l 0.68,-0.01 0.68,0.01 0.67,0.01 0.68,0.04 0.39,0.03"
         id="path286" />
    </g>
  </g>
  <g
     id="gnuplot_plot_4"
     transform="translate(1.9166015,-2.9225)">
    <title
       id="title291">6 empty layers</title>
    <g
       fill="none"
       color="#000000"
       stroke="currentColor"
       stroke-width="1"
       stroke-linecap="butt"
       stroke-linejoin="miter"
       id="g299">
      <g
         transform="translate(464.75,322.72)"
         stroke="none"
         fill="#000000"
         font-family="Arial"
         font-size="14px"
         text-anchor="end"
         id="g297">
        <text
           id="text295"><tspan
             font-family="Arial"
             id="tspan293">6 empty layers</tspan></text>
      </g>
    </g>
    <g
       fill="none"
       color="#000000"
       stroke="currentColor"
       stroke-width="1"
       stroke-linecap="butt"
       stroke-linejoin="miter"
       id="g303">
      <path
         stroke="#e69f00"
         d="M 474.54,318.17 H 522.7 M 80.92,62.77 l 0.68,0.01 0.68,0.01 0.68,0.01 h 0.68 0.67 0.68 l 0.68,0.01 h 0.68 0.68 0.68 0.68 0.68 l 0.67,0.01 h 0.68 0.68 0.68 0.68 0.68 0.68 l 0.68,0.01 h 0.68 0.67 0.68 0.68 0.68 l 0.68,0.01 h 0.68 0.68 0.68 0.68 0.67 l 0.68,0.01 h 0.68 0.68 0.68 0.68 0.68 l 0.68,0.01 h 0.67 0.68 0.68 0.68 0.68 0.68 l 0.68,0.01 h 0.68 0.68 0.67 0.68 0.68 l 0.68,0.01 h 0.68 0.68 0.68 0.68 0.67 l 0.68,0.01 h 0.68 0.68 0.68 0.68 0.68 l 0.68,0.01 h 0.68 0.67 0.68 0.68 0.68 l 0.68,0.01 h 0.68 0.68 0.68 0.68 0.67 0.68 l 0.68,0.01 h 0.68 0.68 0.68 0.68 0.68 l 0.67,0.01 h 0.68 0.68 0.68 0.68 0.68 l 0.68,0.01 h 0.68 0.68 0.67 0.68 0.68 l 0.68,0.01 h 0.68 0.68 0.68 0.68 0.67 l 0.68,0.01 h 0.68 0.68 0.68 0.68 0.68 0.68 l 0.68,0.01 h 0.67 l 0.68,0.04 0.68,0.1 0.68,0.15 0.68,0.16 0.68,0.15 0.68,0.13 0.68,0.1 0.67,0.09 0.68,0.07 0.68,0.04 0.68,0.03 0.68,0.01 0.68,-0.01 0.68,-0.01 0.68,-0.02 0.68,-0.04 0.67,-0.03 0.68,-0.03 0.68,-0.02 0.68,-0.01 0.68,0.01 h 0.68 l 0.68,0.01 0.68,0.04 0.68,0.03 0.67,0.01 h 0.68 l 0.68,0.02 0.68,0.03 0.68,0.03 0.68,0.03 0.68,0.01 0.68,-0.01 0.67,-0.02 0.68,-0.03 0.68,-0.01 h 0.68 0.68 l 0.68,0.02 0.68,0.01 0.68,0.02 0.68,-0.01 h 0.67 l 0.68,0.01 0.68,0.01 0.68,0.04 0.68,0.04 0.68,0.09 0.68,0.11 0.68,0.05 0.67,0.04 0.68,0.03 0.68,0.04 0.68,0.07 0.68,0.08 0.68,0.06 0.68,0.03 0.68,0.01 0.68,-0.01 0.67,-0.05 0.68,-0.03 0.68,-0.02 H 197 l 0.68,-0.01 0.68,0.01 0.68,0.01 h 0.68 l 0.68,0.01 0.67,0.04 0.68,0.02 0.68,0.1 0.68,0.13 0.68,0.09 0.68,0.12 0.68,0.09 0.68,0.05 0.67,0.04 0.68,0.05 0.68,0.06 0.68,0.06 0.68,0.05 0.68,0.04 0.68,0.04 0.68,0.01 h 0.68 l 0.67,0.01 0.68,-0.01 0.68,-0.03 0.68,-0.05 0.68,-0.08 0.68,-0.05 0.68,0.06 0.68,0.15 0.67,0.23 0.68,0.36 0.68,0.19 0.68,0.15 0.68,0.47 0.68,0.18 0.68,-0.14 0.68,0.02 0.68,0.1 0.67,0.17 0.68,0.19 0.68,0.16 0.68,0.1 0.68,-0.15 0.68,0.31 0.68,0.14 0.68,-0.27 0.68,0.11 0.67,0.18 0.68,0.19 0.68,0.02 0.68,0.24 0.68,0.43 0.68,0.28 0.68,0.36 0.68,0.47 0.67,0.51 0.68,0.54 0.68,0.5 0.68,0.67 0.68,0.79 0.68,0.58 0.68,0.48 0.68,0.49 0.68,0.88 0.67,0.9 0.68,0.64 0.68,0.9 0.68,1.32 0.68,1.51 0.68,1.58 0.68,1.75 0.68,1.94 0.67,2.04 0.68,2.08 0.68,2.05 0.68,1.99 0.68,1.83 0.68,1.58 0.68,1.16 0.68,0.73 0.68,2.6 0.67,5.4 0.68,5.08 0.68,4.18 0.68,2.3 0.68,0.99 0.68,2.86 0.68,3.46 0.68,3.11 0.67,3.42 0.68,4.11 0.68,4.77 0.68,5.21 0.68,5.62 0.68,6.2 0.68,7.08 0.68,8.26 0.68,9.59 0.67,10.95 0.68,12.18 0.68,13.2 0.68,13.91 0.68,14.36 0.68,14.55 0.68,14.48 0.68,14.16 0.68,13.44 0.67,12.43 0.68,11.17 0.68,9.27 0.68,8.06 0.68,10.04 0.68,12.97 0.68,12.12 0.68,9.03 0.67,6.19 0.68,2.93 0.68,0.5 0.68,-0.32 0.68,-0.81 0.68,-1.27 0.68,-1.76 0.68,-3.65 0.68,-6.59 0.67,-8.77 0.68,-10.37 0.68,-10.04 0.68,-5.92 0.68,-2.55 0.68,-1.89 0.68,-1.34 0.68,-0.09 0.67,1.22 0.68,2.2 0.68,2.5 0.68,4.23 0.68,8.56 0.68,10.72 0.68,9.6 0.68,7.7 0.68,4.92 0.67,2.13 0.68,0.89 0.68,0.34 0.68,-0.38 0.68,-0.96 0.68,-2.52 0.68,-5.55 0.68,-8.15 0.68,-9.99 0.67,-10.72 0.68,-7.68 0.68,-3.59 0.68,-2.32 0.68,-1.95 0.68,-0.78 0.68,0.61 0.68,1.83 0.67,2.3 0.68,3.34 0.68,7.2 0.68,10.64 0.68,10.23 0.68,8.43 0.68,5.94 0.68,2.85 0.68,1.13 0.67,0.49 0.68,-0.23 0.68,-0.82 0.68,-1.95 0.68,-4.66 0.68,-7.58 0.68,-9.54 0.68,-10.84 0.67,-9.01 0.68,-4.54 0.68,-2.47 0.68,-2.12 0.68,-1.15 0.68,0.23 0.68,1.54 0.68,2.25 0.68,2.78 0.67,5.79 0.68,10 0.68,10.57 0.68,8.93 0.68,6.72 0.68,3.65 0.68,1.37 0.68,0.6 0.68,-0.05 0.67,-0.68 0.68,-1.44 0.68,-3.67 0.68,-6.73 0.68,-8.88 0.68,-10.5 0.68,-9.94 0.68,-5.81 0.67,-2.86 0.68,-2.34 0.68,-1.7 0.68,-0.43 0.68,0.87 0.68,1.79 0.68,2.08 0.68,4.17 0.68,8.74 0.67,10.67 0.68,9.46 0.68,7.58 0.68,4.82 0.68,2.29 0.68,1.4 0.68,1.03 0.68,0.5 0.67,-0.04 0.68,-1.76 0.68,-4.92 0.68,-7.89 0.68,-10.92 0.68,-13.14 0.68,-11.46 0.68,-8.41 0.68,-8.54 0.67,-10.48 0.68,-11.98 0.68,-13.06 0.68,-13.92 0.68,-14.39 0.68,-14.55 0.68,-14.47 0.68,-14.12 0.67,-13.52 0.68,-12.62 0.68,-11.46 0.68,-10.14 0.68,-8.79 0.68,-7.52 0.68,-6.51 0.68,-5.82 0.68,-5.36 0.67,-4.97 0.68,-4.4 0.68,-3.67 0.68,-3.16 0.68,-3.27 0.68,-3.4 0.68,-1.56 0.68,-1.42 0.68,-3.62 0.67,-4.59 0.68,-5.74 0.68,-3.91 0.68,-1.04 0.68,-0.94 0.68,-1.43 0.68,-1.74 0.68,-1.94 0.67,-2.03 0.68,-2.08 0.68,-2.06 0.68,-1.99 0.68,-1.84 0.68,-1.63 0.68,-1.53 0.68,-1.43 0.68,-1.08 0.67,-0.68 0.68,-0.78 0.68,-0.96 0.68,-0.63 0.68,-0.43 0.68,-0.54 0.68,-0.74 0.68,-0.72 0.67,-0.55 0.68,-0.53 0.68,-0.53 0.68,-0.47 0.68,-0.43 0.68,-0.35 0.68,-0.41 0.68,-0.19 0.68,-0.07 0.67,-0.19 0.68,-0.16 0.68,-0.2 0.68,-0.13 0.68,0.31 0.68,0.01 0.68,-0.32 0.68,0.03 0.68,-0.13 0.67,-0.18 0.68,-0.13 0.68,-0.2 0.68,-0.03 0.68,-0.04 0.68,0.03 0.68,-0.13 0.68,-0.39 0.67,-0.29 0.68,-0.3 0.68,-0.25 0.68,-0.18 0.68,-0.09 0.68,0.01 0.68,0.05 0.68,0.08 0.68,0.05 0.67,0.01 h 0.68 l 0.68,0.02 0.68,-0.04 0.68,-0.04 0.68,-0.02 0.68,-0.05 0.68,-0.06 0.67,-0.06 0.68,-0.05 0.68,-0.04 0.68,-0.05 0.68,-0.07 0.68,-0.1 0.68,-0.17 0.68,-0.07 0.68,-0.05 0.67,-0.1 0.68,-0.04 0.68,-0.01 0.68,-0.02 0.68,-0.01 0.68,0.02 0.68,-0.01 h 0.68 l 0.68,0.01 0.67,0.03 0.68,0.03 0.68,0.04 0.68,0.01 0.68,-0.03 0.68,-0.06 0.68,-0.07 0.68,-0.07 0.67,-0.05 0.68,-0.03 0.68,-0.03 0.68,-0.06 0.68,-0.09 0.68,-0.09 0.68,-0.06 0.68,-0.04 0.68,-0.03 h 0.67 0.68 0.68 l 0.68,-0.01 0.68,-0.01 0.68,-0.02 0.68,-0.01 h 0.68 l 0.67,0.01 0.68,0.02 0.68,0.02 0.68,0.02 0.68,-0.01 0.68,-0.01 0.68,-0.04 0.68,-0.03 0.68,-0.02 0.67,-0.01 h 0.68 l 0.68,-0.02 0.68,-0.04 0.68,-0.02 0.68,-0.01 0.68,-0.01 0.68,0.01 0.67,0.01 0.68,0.03 0.68,0.03 0.68,0.03 0.68,0.03 0.68,0.02 0.68,0.01 h 0.68 l 0.68,-0.01 0.67,-0.05 0.68,-0.07 0.68,-0.07 0.68,-0.1 0.68,-0.11 0.68,-0.14 0.68,-0.16 0.68,-0.17 0.68,-0.12 0.67,-0.06 0.68,-0.01 h 0.68 0.68 l 0.68,-0.01 h 0.68 0.68 0.68 0.67 0.68 L 476,62.95 h 0.68 0.68 0.68 0.68 0.68 l 0.68,-0.01 h 0.67 0.68 0.68 0.68 0.68 l 0.68,-0.01 h 0.68 0.68 0.67 0.68 0.68 0.68 l 0.68,-0.01 h 0.68 0.68 0.68 0.68 0.67 l 0.68,-0.01 h 0.68 0.68 0.68 0.68 0.68 l 0.68,-0.01 h 0.68 0.67 0.68 0.68 0.68 l 0.68,-0.01 h 0.68 0.68 0.68 0.67 0.68 l 0.68,-0.01 h 0.68 0.68 0.68 0.68 0.68 0.68 l 0.67,-0.01 h 0.68 0.68 0.68 0.68 0.68 l 0.68,-0.01 h 0.68 0.67 0.68 0.68 0.68 l 0.68,-0.01 h 0.68 0.68 0.68 0.68 0.67 l 0.68,-0.01 h 0.68 0.68 0.68 0.68 0.68 0.68 l 0.68,-0.01 h 0.67 0.68 0.68 0.68 0.68 l 0.68,-0.01 h 0.68 0.68 0.67 0.68 0.68 l 0.68,-0.01 h 0.68 0.68 0.68 0.68 0.68 l 0.67,-0.01 h 0.68 0.68 0.68 0.68 0.68 l 0.68,-0.01 h 0.68 0.67 0.68 0.68 0.68 0.68 l 0.68,-0.01 h 0.68 0.68 0.68 0.67 0.68 l 0.68,-0.01 h 0.68 0.68 0.68 0.68 0.68 l 0.68,-0.01 h 0.67 0.68 0.68 0.68 0.68 l 0.68,-0.01 h 0.68 0.68 0.67 0.68 0.68 l 0.68,-0.01 h 0.68 0.68 0.68 0.68 0.68 0.67 L 569,62.73 h 0.68 0.68 0.68 0.68 0.68 0.68 0.67 l 0.68,0.01 0.39,0.01"
         id="path301" />
    </g>
  </g>
  <g
     fill="none"
     color="#ffffff"
     stroke="#e69f00"
     stroke-width="2"
     stroke-linecap="butt"
     stroke-linejoin="miter"
     id="g306"
     transform="translate(-648.91395,-138.8358)" />
  <g
     fill="none"
     color="#000000"
     stroke="currentColor"
     stroke-width="2"
     stroke-linecap="butt"
     stroke-linejoin="miter"
     id="g308"
     transform="translate(-648.91395,-138.8358)" />
  <g
     fill="none"
     color="#000000"
     stroke="#000000"
     stroke-width="1"
     stroke-linecap="butt"
     stroke-linejoin="miter"
     id="g310"
     transform="translate(-648.91395,-138.8358)" />
  <g
     fill="none"
     color="#000000"
     stroke="currentColor"
     stroke-width="1"
     stroke-linecap="butt"
     stroke-linejoin="miter"
     id="g314"
     transform="translate(1.9166015,-2.9225)">
    <path
       stroke="#000000"
       d="M 80.92,18.01 V 426 h 493.9 V 18.01 Z"
       id="path312" />
  </g>
  <g
     fill="none"
     color="#000000"
     stroke="currentColor"
     stroke-width="1"
     stroke-linecap="butt"
     stroke-linejoin="miter"
     id="g316"
     transform="translate(-648.91395,-138.8358)" />
  <metadata
     id="metadata325">
    <rdf:RDF>
      <cc:Work
         rdf:about="">
        <dc:title>Gnuplot</dc:title>
      </cc:Work>
    </rdf:RDF>
  </metadata>
</svg>
