<?xml version="1.0" encoding="UTF-8" standalone="no"?>
<svg
   width="604.44702"
   height="479.89606"
   viewBox="0 0 604.44702 479.89606"
   version="1.1"
   id="svg331"
   sodipodi:docname="beta44.svg"
   inkscape:version="1.1.2 (b8e25be833, 2022-02-05)"
   xmlns:inkscape="http://www.inkscape.org/namespaces/inkscape"
   xmlns:sodipodi="http://sodipodi.sourceforge.net/DTD/sodipodi-0.dtd"
   xmlns:xlink="http://www.w3.org/1999/xlink"
   xmlns="http://www.w3.org/2000/svg"
   xmlns:svg="http://www.w3.org/2000/svg"
   xmlns:rdf="http://www.w3.org/1999/02/22-rdf-syntax-ns#"
   xmlns:cc="http://creativecommons.org/ns#"
   xmlns:dc="http://purl.org/dc/elements/1.1/">
  <defs
     id="defs335">
    <defs
       id="defs34">
      <circle
         id="gpDot"
         r="0.5"
         stroke-width="0.5"
         stroke="currentColor"
         cx="0"
         cy="0" />
      <path
         id="gpPt0"
         stroke-width="0.222"
         stroke="currentColor"
         d="M -1,0 H 1 M 0,-1 v 2" />
      <path
         id="gpPt1"
         stroke-width="0.222"
         stroke="currentColor"
         d="M -1,-1 1,1 M 1,-1 -1,1" />
      <path
         id="gpPt2"
         stroke-width="0.222"
         stroke="currentColor"
         d="M -1,0 H 1 M 0,-1 v 2 m -1,-2 2,2 m -2,0 2,-2" />
      <rect
         id="gpPt3"
         stroke-width="0.222"
         stroke="currentColor"
         x="-1"
         y="-1"
         width="2"
         height="2" />
      <rect
         id="gpPt4"
         stroke-width="0.222"
         stroke="currentColor"
         fill="currentColor"
         x="-1"
         y="-1"
         width="2"
         height="2" />
      <circle
         id="gpPt5"
         stroke-width="0.222"
         stroke="currentColor"
         cx="0"
         cy="0"
         r="1" />
      <use
         xlink:href="#gpPt5"
         id="gpPt6"
         fill="currentColor"
         stroke="none"
         x="0"
         y="0"
         width="100%"
         height="100%" />
      <path
         id="gpPt7"
         stroke-width="0.222"
         stroke="currentColor"
         d="m 0,-1.33 -1.33,2 h 2.66 z" />
      <use
         xlink:href="#gpPt7"
         id="gpPt8"
         fill="currentColor"
         stroke="none"
         x="0"
         y="0"
         width="100%"
         height="100%" />
      <use
         xlink:href="#gpPt7"
         id="gpPt9"
         stroke="currentColor"
         transform="scale(-1)"
         x="0"
         y="0"
         width="100%"
         height="100%" />
      <use
         xlink:href="#gpPt9"
         id="gpPt10"
         fill="currentColor"
         stroke="none"
         x="0"
         y="0"
         width="100%"
         height="100%" />
      <use
         xlink:href="#gpPt3"
         id="gpPt11"
         stroke="currentColor"
         transform="rotate(45)"
         x="0"
         y="0"
         width="100%"
         height="100%" />
      <use
         xlink:href="#gpPt11"
         id="gpPt12"
         fill="currentColor"
         stroke="none"
         x="0"
         y="0"
         width="100%"
         height="100%" />
      <path
         id="gpPt13"
         stroke-width="0.222"
         stroke="currentColor"
         d="M 0,1.33 1.265,0.411 0.782,-1.067 -0.782,-1.076 -1.265,0.411 Z" />
      <use
         xlink:href="#gpPt13"
         id="gpPt14"
         fill="currentColor"
         stroke="none"
         x="0"
         y="0"
         width="100%"
         height="100%" />
      <filter
         id="textbox"
         filterUnits="objectBoundingBox"
         x="0"
         y="0"
         height="1"
         width="1">
        <feFlood
           flood-color="white"
           flood-opacity="1"
           result="bgnd"
           id="feFlood24" />
        <feComposite
           in="SourceGraphic"
           in2="bgnd"
           operator="atop"
           id="feComposite26" />
      </filter>
      <filter
         id="greybox"
         filterUnits="objectBoundingBox"
         x="0"
         y="0"
         height="1"
         width="1">
        <feFlood
           flood-color="lightgrey"
           flood-opacity="1"
           result="grey"
           id="feFlood29" />
        <feComposite
           in="SourceGraphic"
           in2="grey"
           operator="atop"
           id="feComposite31" />
      </filter>
    </defs>
  </defs>
  <sodipodi:namedview
     id="namedview333"
     pagecolor="#ffffff"
     bordercolor="#666666"
     borderopacity="1.0"
     inkscape:pageshadow="2"
     inkscape:pageopacity="0.0"
     inkscape:pagecheckerboard="0"
     showgrid="false"
     fit-margin-left="8"
     fit-margin-top="8"
     fit-margin-bottom="8"
     fit-margin-right="8"
     inkscape:zoom="1.1009789"
     inkscape:cx="192.10177"
     inkscape:cy="231.61206"
     inkscape:window-width="1858"
     inkscape:window-height="1057"
     inkscape:window-x="-8"
     inkscape:window-y="-8"
     inkscape:window-maximized="1"
     inkscape:current-layer="svg331" />
  <title
     id="title2">Gnuplot</title>
  <desc
     id="desc4">Produced by GNUPLOT 5.4 patchlevel 6 </desc>
  <g
     fill="none"
     color="#ffffff"
     stroke="currentColor"
     stroke-width="1"
     stroke-linecap="butt"
     stroke-linejoin="miter"
     id="g36"
     transform="translate(-721.68948,-85.576216)" />
  <g
     fill="none"
     color="#000000"
     stroke="currentColor"
     stroke-width="1"
     stroke-linecap="butt"
     stroke-linejoin="miter"
     id="g46"
     transform="translate(4.9366016,-2.9225)">
    <path
       stroke="#000000"
       d="m 97.7,426 h 9 m 468.12,0 h -9"
       id="path38" />
    <g
       transform="translate(89.31,431.85)"
       stroke="none"
       fill="#000000"
       font-family="Arial"
       font-size="18px"
       text-anchor="end"
       id="g44">
      <text
         id="text42"><tspan
           font-family="Arial"
           id="tspan40">-0.0003</tspan></text>
    </g>
  </g>
  <g
     fill="none"
     color="#000000"
     stroke="currentColor"
     stroke-width="1"
     stroke-linecap="butt"
     stroke-linejoin="miter"
     id="g56"
     transform="translate(4.9366016,-2.9225)">
    <path
       stroke="#000000"
       d="m 97.7,385.2 h 9 m 468.12,0 h -9"
       id="path48" />
    <g
       transform="translate(89.31,391.05)"
       stroke="none"
       fill="#000000"
       font-family="Arial"
       font-size="18px"
       text-anchor="end"
       id="g54">
      <text
         id="text52"><tspan
           font-family="Arial"
           id="tspan50">-0.0002</tspan></text>
    </g>
  </g>
  <g
     fill="none"
     color="#000000"
     stroke="currentColor"
     stroke-width="1"
     stroke-linecap="butt"
     stroke-linejoin="miter"
     id="g66"
     transform="translate(4.9366016,-2.9225)">
    <path
       stroke="#000000"
       d="m 97.7,344.4 h 9 m 468.12,0 h -9"
       id="path58" />
    <g
       transform="translate(89.31,350.25)"
       stroke="none"
       fill="#000000"
       font-family="Arial"
       font-size="18px"
       text-anchor="end"
       id="g64">
      <text
         id="text62"><tspan
           font-family="Arial"
           id="tspan60">-0.0002</tspan></text>
    </g>
  </g>
  <g
     fill="none"
     color="#000000"
     stroke="currentColor"
     stroke-width="1"
     stroke-linecap="butt"
     stroke-linejoin="miter"
     id="g76"
     transform="translate(4.9366016,-2.9225)">
    <path
       stroke="#000000"
       d="m 97.7,303.6 h 9 m 468.12,0 h -9"
       id="path68" />
    <g
       transform="translate(89.31,309.45)"
       stroke="none"
       fill="#000000"
       font-family="Arial"
       font-size="18px"
       text-anchor="end"
       id="g74">
      <text
         id="text72"><tspan
           font-family="Arial"
           id="tspan70">-0.0001</tspan></text>
    </g>
  </g>
  <g
     fill="none"
     color="#000000"
     stroke="currentColor"
     stroke-width="1"
     stroke-linecap="butt"
     stroke-linejoin="miter"
     id="g86"
     transform="translate(4.9366016,-2.9225)">
    <path
       stroke="#000000"
       d="m 97.7,262.8 h 9 m 468.12,0 h -9"
       id="path78" />
    <g
       transform="translate(89.31,268.65)"
       stroke="none"
       fill="#000000"
       font-family="Arial"
       font-size="18px"
       text-anchor="end"
       id="g84">
      <text
         id="text82"><tspan
           font-family="Arial"
           id="tspan80">-0.0001</tspan></text>
    </g>
  </g>
  <g
     fill="none"
     color="#000000"
     stroke="currentColor"
     stroke-width="1"
     stroke-linecap="butt"
     stroke-linejoin="miter"
     id="g96"
     transform="translate(4.9366016,-2.9225)">
    <path
       stroke="#000000"
       d="m 97.7,222 h 9 m 468.12,0 h -9"
       id="path88" />
    <g
       transform="translate(89.31,227.85)"
       stroke="none"
       fill="#000000"
       font-family="Arial"
       font-size="18px"
       text-anchor="end"
       id="g94">
      <text
         id="text92"><tspan
           font-family="Arial"
           id="tspan90">0.0000</tspan></text>
    </g>
  </g>
  <g
     fill="none"
     color="#000000"
     stroke="currentColor"
     stroke-width="1"
     stroke-linecap="butt"
     stroke-linejoin="miter"
     id="g106"
     transform="translate(4.9366016,-2.9225)">
    <path
       stroke="#000000"
       d="m 97.7,181.21 h 9 m 468.12,0 h -9"
       id="path98" />
    <g
       transform="translate(89.31,187.06)"
       stroke="none"
       fill="#000000"
       font-family="Arial"
       font-size="18px"
       text-anchor="end"
       id="g104">
      <text
         id="text102"><tspan
           font-family="Arial"
           id="tspan100">0.0000</tspan></text>
    </g>
  </g>
  <g
     fill="none"
     color="#000000"
     stroke="currentColor"
     stroke-width="1"
     stroke-linecap="butt"
     stroke-linejoin="miter"
     id="g116"
     transform="translate(4.9366016,-2.9225)">
    <path
       stroke="#000000"
       d="m 97.7,140.41 h 9 m 468.12,0 h -9"
       id="path108" />
    <g
       transform="translate(89.31,146.26)"
       stroke="none"
       fill="#000000"
       font-family="Arial"
       font-size="18px"
       text-anchor="end"
       id="g114">
      <text
         id="text112"><tspan
           font-family="Arial"
           id="tspan110">0.0001</tspan></text>
    </g>
  </g>
  <g
     fill="none"
     color="#000000"
     stroke="currentColor"
     stroke-width="1"
     stroke-linecap="butt"
     stroke-linejoin="miter"
     id="g126"
     transform="translate(4.9366016,-2.9225)">
    <path
       stroke="#000000"
       d="m 97.7,99.61 h 9 m 468.12,0 h -9"
       id="path118" />
    <g
       transform="translate(89.31,105.46)"
       stroke="none"
       fill="#000000"
       font-family="Arial"
       font-size="18px"
       text-anchor="end"
       id="g124">
      <text
         id="text122"><tspan
           font-family="Arial"
           id="tspan120">0.0001</tspan></text>
    </g>
  </g>
  <g
     fill="none"
     color="#000000"
     stroke="currentColor"
     stroke-width="1"
     stroke-linecap="butt"
     stroke-linejoin="miter"
     id="g136"
     transform="translate(4.9366016,-2.9225)">
    <path
       stroke="#000000"
       d="m 97.7,58.81 h 9 m 468.12,0 h -9"
       id="path128" />
    <g
       transform="translate(89.31,64.66)"
       stroke="none"
       fill="#000000"
       font-family="Arial"
       font-size="18px"
       text-anchor="end"
       id="g134">
      <text
         id="text132"><tspan
           font-family="Arial"
           id="tspan130">0.0002</tspan></text>
    </g>
  </g>
  <g
     fill="none"
     color="#000000"
     stroke="currentColor"
     stroke-width="1"
     stroke-linecap="butt"
     stroke-linejoin="miter"
     id="g146"
     transform="translate(4.9366016,-2.9225)">
    <path
       stroke="#000000"
       d="m 97.7,18.01 h 9 m 468.12,0 h -9"
       id="path138" />
    <g
       transform="translate(89.31,23.86)"
       stroke="none"
       fill="#000000"
       font-family="Arial"
       font-size="18px"
       text-anchor="end"
       id="g144">
      <text
         id="text142"><tspan
           font-family="Arial"
           id="tspan140">0.0003</tspan></text>
    </g>
  </g>
  <g
     fill="none"
     color="#000000"
     stroke="currentColor"
     stroke-width="1"
     stroke-linecap="butt"
     stroke-linejoin="miter"
     id="g156"
     transform="translate(4.9366016,-2.9225)">
    <path
       stroke="#000000"
       d="m 97.7,426 v -9 m 0,-398.99 v 9"
       id="path148" />
    <g
       transform="translate(97.7,449.85)"
       stroke="none"
       fill="#000000"
       font-family="Arial"
       font-size="18px"
       text-anchor="middle"
       id="g154">
      <text
         id="text152"><tspan
           font-family="Arial"
           id="tspan150">-0.06</tspan></text>
    </g>
  </g>
  <g
     fill="none"
     color="#000000"
     stroke="currentColor"
     stroke-width="1"
     stroke-linecap="butt"
     stroke-linejoin="miter"
     id="g166"
     transform="translate(4.9366016,-2.9225)">
    <path
       stroke="#000000"
       d="m 177.22,426 v -9 m 0,-398.99 v 9"
       id="path158" />
    <g
       transform="translate(177.22,449.85)"
       stroke="none"
       fill="#000000"
       font-family="Arial"
       font-size="18px"
       text-anchor="middle"
       id="g164">
      <text
         id="text162"><tspan
           font-family="Arial"
           id="tspan160">-0.04</tspan></text>
    </g>
  </g>
  <g
     fill="none"
     color="#000000"
     stroke="currentColor"
     stroke-width="1"
     stroke-linecap="butt"
     stroke-linejoin="miter"
     id="g176"
     transform="translate(4.9366016,-2.9225)">
    <path
       stroke="#000000"
       d="m 256.74,426 v -9 m 0,-398.99 v 9"
       id="path168" />
    <g
       transform="translate(256.74,449.85)"
       stroke="none"
       fill="#000000"
       font-family="Arial"
       font-size="18px"
       text-anchor="middle"
       id="g174">
      <text
         id="text172"><tspan
           font-family="Arial"
           id="tspan170">-0.02</tspan></text>
    </g>
  </g>
  <g
     fill="none"
     color="#000000"
     stroke="currentColor"
     stroke-width="1"
     stroke-linecap="butt"
     stroke-linejoin="miter"
     id="g186"
     transform="translate(4.9366016,-2.9225)">
    <path
       stroke="#000000"
       d="m 336.26,426 v -9 m 0,-398.99 v 9"
       id="path178" />
    <g
       transform="translate(336.26,449.85)"
       stroke="none"
       fill="#000000"
       font-family="Arial"
       font-size="18px"
       text-anchor="middle"
       id="g184">
      <text
         id="text182"><tspan
           font-family="Arial"
           id="tspan180">0.00</tspan></text>
    </g>
  </g>
  <g
     fill="none"
     color="#000000"
     stroke="currentColor"
     stroke-width="1"
     stroke-linecap="butt"
     stroke-linejoin="miter"
     id="g196"
     transform="translate(4.9366016,-2.9225)">
    <path
       stroke="#000000"
       d="m 415.78,426 v -9 m 0,-398.99 v 9"
       id="path188" />
    <g
       transform="translate(415.78,449.85)"
       stroke="none"
       fill="#000000"
       font-family="Arial"
       font-size="18px"
       text-anchor="middle"
       id="g194">
      <text
         id="text192"><tspan
           font-family="Arial"
           id="tspan190">0.02</tspan></text>
    </g>
  </g>
  <g
     fill="none"
     color="#000000"
     stroke="currentColor"
     stroke-width="1"
     stroke-linecap="butt"
     stroke-linejoin="miter"
     id="g206"
     transform="translate(4.9366016,-2.9225)">
    <path
       stroke="#000000"
       d="m 495.3,426 v -9 m 0,-398.99 v 9"
       id="path198" />
    <g
       transform="translate(495.3,449.85)"
       stroke="none"
       fill="#000000"
       font-family="Arial"
       font-size="18px"
       text-anchor="middle"
       id="g204">
      <text
         id="text202"><tspan
           font-family="Arial"
           id="tspan200">0.04</tspan></text>
    </g>
  </g>
  <g
     fill="none"
     color="#000000"
     stroke="currentColor"
     stroke-width="1"
     stroke-linecap="butt"
     stroke-linejoin="miter"
     id="g216"
     transform="translate(4.9366016,-2.9225)">
    <path
       stroke="#000000"
       d="m 574.82,426 v -9 m 0,-398.99 v 9"
       id="path208" />
    <g
       transform="translate(574.82,449.85)"
       stroke="none"
       fill="#000000"
       font-family="Arial"
       font-size="18px"
       text-anchor="middle"
       id="g214">
      <text
         id="text212"><tspan
           font-family="Arial"
           id="tspan210">0.06</tspan></text>
    </g>
  </g>
  <g
     fill="none"
     color="#000000"
     stroke="currentColor"
     stroke-width="1"
     stroke-linecap="butt"
     stroke-linejoin="miter"
     id="g218"
     transform="translate(-721.68948,-85.576216)" />
  <g
     fill="none"
     color="#000000"
     stroke="currentColor"
     stroke-width="1"
     stroke-linecap="butt"
     stroke-linejoin="miter"
     id="g222"
     transform="translate(4.9366016,-2.9225)">
    <path
       stroke="#000000"
       d="M 97.7,18.01 V 426 H 574.82 V 18.01 Z"
       id="path220" />
  </g>
  <g
     fill="none"
     color="#000000"
     stroke="currentColor"
     stroke-width="1"
     stroke-linecap="butt"
     stroke-linejoin="miter"
     id="g230"
     transform="translate(4.9366016,-2.9225)">
    <g
       transform="rotate(-90,120.545,101.465)"
       stroke="none"
       fill="#000000"
       font-family="Arial"
       font-size="22px"
       text-anchor="middle"
       id="g228">
      <text
         id="text226"><tspan
           font-family="Arial"
           id="tspan224">Stress (atomic unit)</tspan></text>
    </g>
  </g>
  <g
     fill="none"
     color="#000000"
     stroke="currentColor"
     stroke-width="1"
     stroke-linecap="butt"
     stroke-linejoin="miter"
     id="g238"
     transform="translate(4.9366016,-2.9225)">
    <g
       transform="translate(336.26,474.55)"
       stroke="none"
       fill="#000000"
       font-family="Arial"
       font-size="22px"
       text-anchor="middle"
       id="g236">
      <text
         id="text234"><tspan
           font-family="Arial"
           id="tspan232">Strain</tspan></text>
    </g>
  </g>
  <g
     fill="none"
     color="#000000"
     stroke="currentColor"
     stroke-width="1"
     stroke-linecap="butt"
     stroke-linejoin="miter"
     id="g240"
     transform="translate(-721.68948,-85.576216)" />
  <g
     id="gnuplot_plot_1"
     transform="translate(4.9366016,-2.9225)">
    <title
       id="title242">optimized</title>
    <g
       fill="none"
       color="#000000"
       stroke="currentColor"
       stroke-width="1"
       stroke-linecap="butt"
       stroke-linejoin="miter"
       id="g250">
      <g
         transform="translate(481.83,46.36)"
         stroke="none"
         fill="#000000"
         font-family="Arial"
         font-size="18px"
         text-anchor="end"
         id="g248">
        <text
           id="text246"><tspan
             font-family="Arial"
             id="tspan244">optimized</tspan></text>
      </g>
    </g>
    <g
       fill="none"
       color="#000000"
       stroke="currentColor"
       stroke-width="1"
       stroke-linecap="butt"
       stroke-linejoin="miter"
       id="g264">
      <use
         xlink:href="#gpPt4"
         transform="matrix(4.5,0,0,4.5,535.06,336.6)"
         color="#9400d3"
         id="use252"
         x="0"
         y="0"
         width="100%"
         height="100%" />
      <use
         xlink:href="#gpPt4"
         transform="matrix(4.5,0,0,4.5,455.54,291.04)"
         color="#9400d3"
         id="use254"
         x="0"
         y="0"
         width="100%"
         height="100%" />
      <use
         xlink:href="#gpPt4"
         transform="matrix(4.5,0,0,4.5,336.26,222)"
         color="#9400d3"
         id="use256"
         x="0"
         y="0"
         width="100%"
         height="100%" />
      <use
         xlink:href="#gpPt4"
         transform="matrix(4.5,0,0,4.5,216.98,153.37)"
         color="#9400d3"
         id="use258"
         x="0"
         y="0"
         width="100%"
         height="100%" />
      <use
         xlink:href="#gpPt4"
         transform="matrix(4.5,0,0,4.5,137.46,107.3)"
         color="#9400d3"
         id="use260"
         x="0"
         y="0"
         width="100%"
         height="100%" />
      <use
         xlink:href="#gpPt4"
         transform="matrix(4.5,0,0,4.5,524.13,40.51)"
         color="#9400d3"
         id="use262"
         x="0"
         y="0"
         width="100%"
         height="100%" />
    </g>
  </g>
  <g
     id="gnuplot_plot_2"
     transform="translate(4.9366016,-2.9225)">
    <title
       id="title267">not optimized</title>
    <g
       fill="none"
       color="#000000"
       stroke="currentColor"
       stroke-width="1"
       stroke-linecap="butt"
       stroke-linejoin="miter"
       id="g275">
      <g
         transform="translate(481.83,73.36)"
         stroke="none"
         fill="#000000"
         font-family="Arial"
         font-size="18px"
         text-anchor="end"
         id="g273">
        <text
           id="text271"><tspan
             font-family="Arial"
             id="tspan269">not optimized</tspan></text>
      </g>
    </g>
    <g
       fill="none"
       color="#000000"
       stroke="currentColor"
       stroke-width="1"
       stroke-linecap="butt"
       stroke-linejoin="miter"
       id="g289">
      <use
         xlink:href="#gpPt6"
         transform="matrix(4.5,0,0,4.5,535.06,423.11)"
         color="#009e73"
         id="use277"
         x="0"
         y="0"
         width="100%"
         height="100%" />
      <use
         xlink:href="#gpPt6"
         transform="matrix(4.5,0,0,4.5,455.54,343.25)"
         color="#009e73"
         id="use279"
         x="0"
         y="0"
         width="100%"
         height="100%" />
      <use
         xlink:href="#gpPt6"
         transform="matrix(4.5,0,0,4.5,336.26,222)"
         color="#009e73"
         id="use281"
         x="0"
         y="0"
         width="100%"
         height="100%" />
      <use
         xlink:href="#gpPt6"
         transform="matrix(4.5,0,0,4.5,216.98,101.17)"
         color="#009e73"
         id="use283"
         x="0"
         y="0"
         width="100%"
         height="100%" />
      <use
         xlink:href="#gpPt6"
         transform="matrix(4.5,0,0,4.5,137.46,20.8)"
         color="#009e73"
         id="use285"
         x="0"
         y="0"
         width="100%"
         height="100%" />
      <use
         xlink:href="#gpPt6"
         transform="matrix(4.5,0,0,4.5,524.13,67.51)"
         color="#009e73"
         id="use287"
         x="0"
         y="0"
         width="100%"
         height="100%" />
    </g>
  </g>
  <g
     fill="none"
     color="#ffffff"
     stroke="#009e73"
     stroke-width="2"
     stroke-linecap="butt"
     stroke-linejoin="miter"
     id="g294"
     transform="translate(4.9366016,-2.9225)" />
  <g
     fill="none"
     color="#000000"
     stroke="currentColor"
     stroke-width="2"
     stroke-linecap="butt"
     stroke-linejoin="miter"
     id="g304"
     transform="translate(4.9366016,-2.9225)">
    <path
       stroke="#56b4e9"
       stroke-dasharray="4, 6"
       d="m 137.46,107.39 4.02,2.32 4.01,2.31 4.02,2.32 4.01,2.32 4.02,2.31 4.02,2.32 4.01,2.32 4.02,2.31 4.02,2.32 4.01,2.32 4.02,2.31 4.01,2.32 4.02,2.32 4.02,2.31 4.01,2.32 4.02,2.32 4.01,2.31 4.02,2.32 4.02,2.32 4.01,2.31 4.02,2.32 4.02,2.32 4.01,2.31 4.02,2.32 4.01,2.32 4.02,2.31 4.02,2.32 4.01,2.32 4.02,2.31 4.01,2.32 4.02,2.32 4.02,2.31 4.01,2.32 4.02,2.32 4.02,2.31 4.01,2.32 4.02,2.32 4.01,2.31 4.02,2.32 4.02,2.31 4.01,2.32 4.02,2.32 4.01,2.31 4.02,2.32 4.02,2.32 4.01,2.31 4.02,2.32 4.02,2.32 4.01,2.31 4.02,2.32 4.01,2.32 4.02,2.31 4.02,2.32 4.01,2.32 4.02,2.31 4.02,2.32 4.01,2.32 4.02,2.31 4.01,2.32 4.02,2.32 4.02,2.31 4.01,2.32 4.02,2.32 4.01,2.31 4.02,2.32 4.02,2.32 4.01,2.31 4.02,2.32 4.02,2.32 4.01,2.31 4.02,2.32 4.01,2.32 4.02,2.31 4.02,2.32 4.01,2.31 4.02,2.32 4.01,2.32 4.02,2.31 4.02,2.32 4.01,2.32 4.02,2.31 4.02,2.32 4.01,2.32 4.02,2.31 4.01,2.32 4.02,2.32 4.02,2.31 4.01,2.32 4.02,2.32 4.01,2.31 4.02,2.32 4.02,2.32 4.01,2.31 4.02,2.32 4.02,2.32 4.01,2.31 4.02,2.32 4.01,2.32 4.02,2.31"
       id="path302"
       sodipodi:nodetypes="cccccccccccccccccccccccccccccccccccccccccccccccccccccccccccccccccccccccccccccccccccccccccccccccccccc" />
  </g>
  <g
     fill="none"
     color="#000000"
     stroke="currentColor"
     stroke-width="2"
     stroke-linecap="butt"
     stroke-linejoin="miter"
     id="g317"
     transform="translate(4.9366016,-2.9225)">
    <path
       stroke="#e69f00"
       stroke-dasharray="4, 6"
       d="m 137.46,20.76 4.02,4.07 4.01,4.06 4.02,4.07 4.01,4.07 4.02,4.06 4.02,4.07 4.01,4.07 4.02,4.06 4.02,4.07 4.01,4.07 4.02,4.06 4.01,4.07 4.02,4.07 4.02,4.06 4.01,4.07 4.02,4.07 4.01,4.07 4.02,4.06 4.02,4.07 4.01,4.07 4.02,4.06 4.02,4.07 4.01,4.07 4.02,4.06 4.01,4.07 4.02,4.07 4.02,4.06 4.01,4.07 4.02,4.07 4.01,4.06 4.02,4.07 4.02,4.07 4.01,4.06 4.02,4.07 4.02,4.07 4.01,4.06 4.02,4.07 4.01,4.07 4.02,4.06 4.02,4.07 4.01,4.07 4.02,4.07 4.01,4.06 4.02,4.07 4.02,4.07 4.01,4.06 4.02,4.07 4.02,4.07 4.01,4.06 4.02,4.07 4.01,4.07 4.02,4.06 4.02,4.07 4.01,4.07 4.02,4.06 4.02,4.07 4.01,4.07 4.02,4.06 4.01,4.07 4.02,4.07 4.02,4.06 4.01,4.07 4.02,4.07 4.01,4.06 4.02,4.07 4.02,4.07 4.01,4.07 4.02,4.06 4.02,4.07 4.01,4.07 4.02,4.06 4.01,4.07 4.02,4.07 4.02,4.06 4.01,4.07 4.02,4.07 4.01,4.06 4.02,4.07 4.02,4.07 4.01,4.06 4.02,4.07 4.02,4.07 4.01,4.06 4.02,4.07 4.01,4.07 4.02,4.06 4.02,4.07 4.01,4.07 4.02,4.06 4.01,4.07 4.02,4.07 4.02,4.06 4.01,4.07 4.02,4.07 4.02,4.07 4.01,4.06 4.02,4.07 4.01,4.07 4.02,4.06"
       id="path315"
       sodipodi:nodetypes="cccccccccccccccccccccccccccccccccccccccccccccccccccccccccccccccccccccccccccccccccccccccccccccccccccc" />
  </g>
  <g
     fill="none"
     color="#000000"
     stroke="currentColor"
     stroke-width="2"
     stroke-linecap="butt"
     stroke-linejoin="miter"
     id="g320"
     transform="translate(-721.68948,-85.576216)" />
  <g
     fill="none"
     color="#000000"
     stroke="#000000"
     stroke-width="1"
     stroke-linecap="butt"
     stroke-linejoin="miter"
     id="g322"
     transform="translate(-721.68948,-85.576216)" />
  <g
     fill="none"
     color="#000000"
     stroke="currentColor"
     stroke-width="1"
     stroke-linecap="butt"
     stroke-linejoin="miter"
     id="g326"
     transform="translate(4.9366016,-2.9225)">
    <path
       stroke="#000000"
       d="M 97.7,18.01 V 426 H 574.82 V 18.01 Z"
       id="path324" />
  </g>
  <g
     fill="none"
     color="#000000"
     stroke="currentColor"
     stroke-width="1"
     stroke-linecap="butt"
     stroke-linejoin="miter"
     id="g328"
     transform="translate(-721.68948,-85.576216)" />
  <metadata
     id="metadata337">
    <rdf:RDF>
      <cc:Work
         rdf:about="">
        <dc:title>Gnuplot</dc:title>
      </cc:Work>
    </rdf:RDF>
  </metadata>
</svg>
